<svg width="303" height="218" viewBox="0 0 303 218" fill="none" xmlns="http://www.w3.org/2000/svg">
<path d="M284.64 0H18.3604C8.22024 0 0 8.22831 0 18.3785V199.622C0 209.772 8.22024 218 18.3604 218H284.64C294.78 218 303 209.772 303 199.622V18.3785C303 8.22831 294.78 0 284.64 0Z" fill="#F0E68C"/>
<path d="M202.144 197L202.432 194.824C203.616 194.312 215.36 189.064 215.712 181.576C216.096 173.352 206.016 174.92 204.96 180.712C204.928 181 204.544 181.064 204.576 180.712C206.112 172.648 219.168 172.52 218.784 180.584C218.368 188.744 206.816 193.224 203.584 194.76H216.512L216.224 197H202.144ZM230.914 196.904C219.33 196.904 222.818 174.6 234.146 174.536C245.41 174.472 242.978 196.904 230.914 196.904ZM230.85 196.456C238.658 196.456 242.146 175.08 234.018 175.08C226.402 175.08 223.522 196.456 230.85 196.456ZM244.581 197L244.869 194.824C246.053 194.312 257.798 189.064 258.15 181.576C258.534 173.352 248.454 174.92 247.398 180.712C247.366 181 246.982 181.064 247.014 180.712C248.549 172.648 261.606 172.52 261.222 180.584C260.806 188.744 249.254 193.224 246.021 194.76H258.95L258.662 197H244.581ZM277.471 190.984H280.031L278.367 192.648H277.247L276.639 197H273.695L274.303 192.648H264.127L264.351 190.984L278.111 174.6H279.775L277.471 190.984ZM276.447 177.352L264.959 190.984H274.527L276.447 177.352Z" fill="white"/>
</svg>
