<svg width="327" height="301" viewBox="0 0 327 301" fill="none" xmlns="http://www.w3.org/2000/svg">
<path d="M87.5791 271.445H86.8614H81.4508H80.7331C79.897 271.445 79.2188 272.053 79.2188 272.803V283.164H89.1013V272.803C89.1013 272.053 88.423 271.445 87.5791 271.445Z" fill="#FB9572"/>
<path d="M90.332 285.35V298.292H58.5469V295.949C58.5469 294.536 59.3356 293.257 60.566 292.595L64.478 290.48L65.6216 289.856L66.7968 289.225L68.4373 288.333L68.7844 288.144L70.7719 287.078L72.4361 286.187L74.7628 284.924L76.5295 283.977C77.4838 283.44 78.5723 283.164 79.6765 283.164H88.1472C89.354 283.164 90.332 284.143 90.332 285.35Z" fill="#F9FFFF"/>
<path d="M90.3319 298.301H58.5547V300.605H90.3319V298.301Z" fill="#263238"/>
<path d="M86.2226 289.852C86.2226 291.596 84.8108 293.001 83.0757 293.001C81.3405 293.001 79.9287 291.588 79.9287 289.852C79.9287 288.116 81.3405 286.703 83.0757 286.703C84.8108 286.703 86.2226 288.116 86.2226 289.852Z" fill="#263238"/>
<path d="M69.6673 289.227V290.481H64.4775L65.6212 289.858L66.7964 289.227H69.6673Z" fill="#263238"/>
<path d="M73.643 287.082V288.337H68.4375L68.7845 288.147L70.7721 287.082H73.643Z" fill="#263238"/>
<path d="M77.0811 284.926V286.181H72.4277L74.7544 284.926H77.0811Z" fill="#263238"/>
<path d="M125.17 271.445H125.887H131.298H132.016C132.852 271.445 133.53 272.053 133.53 272.803V283.164H123.647V272.803C123.647 272.053 124.326 271.445 125.17 271.445Z" fill="#FB9572"/>
<path d="M122.409 285.35V298.292H154.194V295.949C154.194 294.536 153.406 293.257 152.175 292.595L148.263 290.48L147.12 289.856L145.944 289.225L144.304 288.333L143.957 288.144L141.969 287.078L140.305 286.187L137.978 284.924L136.212 283.977C135.257 283.44 134.169 283.164 133.065 283.164H124.594C123.387 283.164 122.409 284.143 122.409 285.35Z" fill="#F9FFFF"/>
<path d="M122.417 300.605H154.194V298.301H122.417V300.605Z" fill="#263238"/>
<path d="M126.519 289.852C126.519 291.596 127.93 293.001 129.666 293.001C131.401 293.001 132.812 291.588 132.812 289.852C132.812 288.116 131.401 286.703 129.666 286.703C127.93 286.703 126.519 288.116 126.519 289.852Z" fill="#263238"/>
<path d="M143.073 289.227V290.481H148.271L147.119 289.858L145.944 289.227H143.073Z" fill="#263238"/>
<path d="M139.099 287.082V288.337H144.304L143.957 288.147L141.97 287.082H139.099Z" fill="#263238"/>
<path d="M135.667 284.926V286.181H140.313L137.986 284.926H135.667Z" fill="#263238"/>
<path d="M135.217 276.147C124.956 276.352 129.799 276.352 121.644 276.163C111.359 258.556 93.9518 159.272 93.9518 159.272C93.9518 159.272 97.0199 262.376 91.8617 276.313C84.2822 276.518 91.8617 276.313 76.679 276.731C63.9019 213.014 72.9484 132.353 72.9484 132.353L112.534 131.398C112.534 131.398 139.839 240.753 135.217 276.147Z" fill="#22202B"/>
<path d="M98.01 156.536L93.7725 158.93L94.1525 159.603L98.39 157.209L98.01 156.536Z" fill="#02191E"/>
<path d="M82.8545 48.0227L83.5722 58.8185L84.0139 65.4475C84.0139 65.4475 84.2742 70.2377 84.3688 70.727C84.3846 70.8927 84.424 71.0426 84.4635 71.2005C85.0392 73.4812 86.7586 75.1779 88.8645 75.8013C89.9292 76.1249 91.0965 76.1643 92.2638 75.8723C93.2182 75.6356 94.0542 75.1936 94.764 74.6018C96.2863 73.3628 97.1854 71.453 97.1144 69.417C97.1065 68.9671 97.0434 68.5252 96.9251 68.0675C96.8305 67.6966 94.9849 60.3653 94.9849 60.3653L91.9247 47.3283V47.3125L82.8624 48.0149L82.8545 48.0227Z" fill="#FB9572"/>
<path d="M94.2673 57.2883L83.4541 56.1914L83.4857 57.1463C83.4857 57.1463 86.5143 60.6502 95.1823 61.2026L94.2595 57.2883H94.2673Z" fill="#FA724B"/>
<path d="M100.199 39.2543L100.625 47.067C100.932 52.7253 99.2052 57.6971 94.1101 59.4727C93.5422 59.67 92.5248 59.8041 91.4521 59.8515C89.7169 59.9304 87.9818 59.6147 86.3728 58.9518L84.8585 58.3284C83.0287 57.3735 81.538 56.3081 80.8597 54.493L76.8215 43.7289C74.132 36.5554 78.6829 28.4822 86.2861 27.5668C86.5542 27.5352 86.8224 27.5115 87.0984 27.4958C90.5293 27.3064 93.7078 28.5296 96.0819 30.6603C98.4559 32.7911 100.018 35.8135 100.207 39.2464L100.199 39.2543Z" fill="#FB9572"/>
<path d="M82.3501 33.2822C83.6515 35.1368 86.4751 35.7129 88.3995 34.5133C89.0463 35.555 90.1899 36.2732 91.4124 36.3994C92.6349 36.5257 93.9047 36.0522 94.7408 35.1605C95.1667 36.3916 96.7677 37.0466 97.935 36.4626C98.0218 36.9519 98.4556 37.3543 98.9446 37.4017C99.4336 37.449 99.9384 37.1334 100.112 36.6678C100.285 36.21 100.143 35.705 99.9778 35.2473C98.5108 31.1673 94.7723 28.0027 90.5133 27.2136C89.2355 26.9768 87.9184 26.9611 86.6328 27.1426C85.3393 27.3241 84.0774 27.7029 82.8943 28.2632C81.7033 28.8235 80.6228 29.5732 79.6606 30.457C79.2741 30.8122 78.8245 31.1989 78.651 31.7118C78.4775 32.2327 78.7141 32.793 79.0059 33.2191C79.6921 34.2214 81.1591 34.3397 82.0662 33.5742C82.1687 33.4874 82.2633 33.3927 82.3422 33.2822H82.3501Z" fill="#5B353D"/>
<path d="M80.5124 47.9048C80.8121 47.2972 79.5028 44.3536 79.5344 43.6749C79.5659 42.9962 79.6369 42.286 79.9997 41.7099C80.4887 40.9286 81.4194 40.5577 82.2081 40.0763C83.4779 39.3109 84.5111 38.1587 85.1263 36.8092C86.3488 37.1328 87.666 36.1068 87.8868 34.86C88.1156 33.6131 87.4215 32.3268 86.4119 31.5692C85.3945 30.8116 84.1089 30.5117 82.847 30.4249C81.3326 30.3144 82.9258 28.4204 80.7332 29.5489C79.8183 30.0224 77.1761 33.037 76.7502 33.9682C76.2533 35.0573 75.8747 36.1937 75.6224 37.3616C75.37 38.5296 75.2359 39.7212 75.2201 40.9129C75.2122 42.0808 75.3226 43.233 75.5908 44.3773C75.7407 45.0323 76.4111 46.658 76.9474 47.092C77.3023 47.3761 77.8939 48.0469 78.3671 48.0627C78.864 48.0863 80.0155 48.6072 80.3073 48.2205C80.3862 48.1179 80.4493 48.0153 80.5045 47.8969L80.5124 47.9048Z" fill="#5B353D"/>
<path d="M80.6857 47.6119C80.6857 47.6119 80.1414 44.9287 77.6964 45.8047C75.2593 46.6806 77.2626 53.1754 82.3419 51.534L80.6857 47.6119Z" fill="#FB9572"/>
<path d="M92.1931 49.6896C92.2641 49.6975 92.343 49.6817 92.4061 49.6422L93.6364 48.8215C93.9361 48.6163 94.0387 48.2296 93.8809 47.9061L92.1458 44.4416C92.0669 44.2838 91.8776 44.2207 91.7199 44.2996C91.5621 44.3785 91.499 44.5679 91.5779 44.7257L93.0607 47.6851C93.2263 48.0087 93.1159 48.4033 92.8162 48.6005L92.0511 49.1135C91.9092 49.2082 91.8697 49.4055 91.9644 49.5554C92.0196 49.6343 92.0984 49.6817 92.1931 49.6975V49.6896Z" fill="#FA724B"/>
<path d="M87.7766 41.5036C87.8791 41.7561 86.5935 42.6084 85.1896 43.145C83.7857 43.6817 82.2635 43.9105 82.1688 43.6738C82.1057 43.5159 82.4528 42.1901 84.6296 41.3457C86.8065 40.5013 87.7056 41.3299 87.7766 41.5036Z" fill="#5B353D"/>
<path d="M92.5959 40.5257C92.6038 40.802 94.1181 41.0782 95.6166 41.0229C97.1152 40.9677 98.6059 40.581 98.598 40.3206C98.598 40.1548 97.754 39.0658 95.4195 39.1447C93.0849 39.2236 92.5801 40.3363 92.588 40.5257H92.5959Z" fill="#5B353D"/>
<path d="M95.7028 43.4596C96.2391 43.3807 96.7281 43.7595 96.807 44.2882C96.8859 44.817 96.5073 45.3142 95.9789 45.3931C95.4504 45.472 94.9535 45.0932 94.8747 44.5645C94.7958 44.0357 95.1744 43.5385 95.7028 43.4596Z" fill="#1C243D" stroke="#1C243D" stroke-width="0.25" stroke-miterlimit="10"/>
<path d="M86.3337 45.4987C86.8621 45.4198 87.359 45.7986 87.4379 46.3273C87.5167 46.856 87.1382 47.3532 86.6097 47.4321C86.0734 47.5111 85.5844 47.1323 85.5055 46.6035C85.4267 46.0748 85.8052 45.5776 86.3337 45.4987Z" fill="#1C243D" stroke="#1C243D" stroke-width="0.25" stroke-miterlimit="10"/>
<path d="M94.2049 54.1376C94.2444 54.1218 94.268 54.106 94.2759 54.0981C94.4258 54.0192 94.481 53.8377 94.4021 53.6957C94.3233 53.5457 94.1655 53.4826 93.9999 53.5615C93.9841 53.5694 92.1385 54.4927 90.1983 53.743C90.0405 53.6799 89.867 53.7588 89.8118 53.9166C89.7487 54.0745 89.8276 54.2481 89.9853 54.3033C91.9729 55.0767 93.8106 54.3191 94.2049 54.1376Z" fill="#FA724B"/>
<path d="M157.151 10.1602C157.151 10.1602 157.806 13.8377 159.415 14.4453C161.024 15.053 157.269 15.1161 157.269 15.1161C157.269 15.1161 155.132 10.7678 157.151 10.168V10.1602Z" fill="#FA724B"/>
<path d="M154.88 10.9729L161.198 11.1071C161.623 11.0913 161.971 10.752 161.986 10.3258C162.002 9.89178 161.671 9.52087 161.237 9.48931L159.242 9.34726C158.129 9.26834 157.017 9.4972 156.024 10.0102L154.888 10.9808L154.88 10.9729Z" fill="#FA724B"/>
<path d="M152.907 13.633L160.416 3.28702C160.739 2.8372 161.37 2.73461 161.828 3.06605C162.246 3.37383 162.364 3.94992 162.112 4.39185L155.707 15.4559C155.25 16.253 154.225 16.5213 153.436 16.0636C152.639 15.6059 152.371 14.5799 152.828 13.7908C152.86 13.7434 152.892 13.6961 152.923 13.6487L152.907 13.633Z" fill="#FB9572"/>
<path d="M151.386 24.8937C151.441 24.6648 151.512 24.4359 151.638 24.2229C151.827 23.8993 151.969 23.5442 151.985 23.1654L152.23 15.5815C152.23 15.3448 152.277 15.1159 152.356 14.895L152.537 14.3662C152.711 13.8612 153.05 13.435 153.499 13.1509C154.556 12.488 156.465 11.2648 156.638 10.957C156.67 11.107 156.796 11.5173 156.93 11.9593C157.222 12.8668 157.829 13.6481 158.642 14.1453L159.375 14.5951C160.274 15.1475 160.692 16.2365 160.393 17.2467L158.776 22.7471C158.547 23.5205 158.153 24.2387 157.609 24.8463C157.53 24.9331 154.596 31.3253 154.596 31.3253L150.589 27.0323L151.386 24.8937Z" fill="#FB9572"/>
<path d="M156.654 10.911C156.654 10.911 156.654 10.9425 156.646 10.9662C156.638 10.911 156.638 10.8794 156.654 10.911Z" fill="#FB9572"/>
<path d="M160.409 17.0962L163.24 10.5698C163.485 10.0016 163.224 9.33869 162.656 9.08615C162.136 8.8573 161.536 9.06248 161.253 9.52809L157.522 15.5889C157.049 16.3622 157.285 17.3645 158.058 17.838C158.831 18.3115 159.833 18.0747 160.306 17.3013C160.346 17.2382 160.385 17.1593 160.416 17.0962H160.409Z" fill="#FB9572"/>
<path d="M105.625 75.5422L140.202 53.5877L137.773 56.7759L151.37 25.1225C151.922 23.8441 153.405 23.2522 154.683 23.8046C155.803 24.286 156.394 25.4855 156.15 26.6377L149.083 60.3587C148.83 61.5819 148.105 62.5841 147.143 63.2233L146.654 63.5469L112.494 86.1406C109.584 88.0662 105.672 87.2613 103.748 84.3571C101.823 81.4451 102.628 77.5309 105.53 75.6053C105.554 75.5895 105.601 75.558 105.625 75.5422Z" fill="#FB9572"/>
<path d="M75.0151 81.0354L58.4601 118.442L58.9175 116.682L57.4347 124.068L55.9046 131.447L54.3351 138.826L53.5464 142.511L53.152 144.358L52.9549 145.281C52.8602 145.589 52.9391 145.905 52.5053 146.181C50.8884 147.175 48.8536 146.923 47.5364 145.676C47.1657 145.321 47.3077 145.021 47.2682 144.705V143.766L47.2367 141.88L47.1973 138.108L47.1263 130.563L47.0947 123.027L47.1184 115.498C47.1184 115.04 47.213 114.606 47.3787 114.212L47.5758 113.738L63.4368 76.0321C64.7855 72.8202 68.4846 71.3129 71.7025 72.6624C74.9205 74.0119 76.419 77.713 75.0703 80.9328C75.0625 80.9565 75.0388 81.0117 75.023 81.0433L75.0151 81.0354Z" fill="#FB9572"/>
<path d="M49.8152 155.168L49.4209 163.352C49.3972 163.809 49.0265 164.164 48.5691 164.172C48.1116 164.172 47.7252 163.817 47.7015 163.359L47.5911 161.237C47.528 160.053 47.7961 158.877 48.3561 157.835L49.8074 155.168H49.8152Z" fill="#FA724B"/>
<path d="M50.8566 139.528C51.527 139.591 52.0791 139.946 52.4183 140.444C52.789 140.988 52.9073 141.706 52.6391 142.393C52.9467 143.016 52.0476 144.8 52.8599 146.205C53.0492 146.52 53.2543 146.986 53.4515 147.53C53.4515 147.53 53.4515 147.53 53.4515 147.538C54.6188 151.2 50.7304 155.012 50.7304 155.012C49.2871 157.924 47.8832 161.159 47.7412 164.395C47.7175 164.963 47.2443 165.129 46.8973 165.2C46.5502 165.271 46.2821 164.979 46.1874 164.6C45.241 161.072 45.7142 155.793 46.1953 152.526C46.6133 149.701 47.0945 146.749 47.4257 144.105C47.5283 143.293 47.7806 142.511 48.1829 141.793L48.664 140.925C48.9795 140.01 49.8865 139.426 50.8487 139.512L50.8566 139.528Z" fill="#FB9572"/>
<path d="M50.2651 149.32L53.0335 156.399C53.278 157.015 53.9721 157.322 54.5952 157.078C55.1552 156.857 55.4628 156.257 55.3287 155.681L53.5935 148.279C53.3727 147.339 52.4341 146.755 51.4955 146.976C50.557 147.197 49.9733 148.136 50.1942 149.076C50.2099 149.154 50.2415 149.241 50.2651 149.312V149.32Z" fill="#FB9572"/>
<path d="M115.437 131.046C114.435 117.488 114.443 103.883 115.129 90.3011C115.161 89.7408 115.184 89.1647 115.2 88.5965L115.177 85.8818L134.981 72.9474L126.092 59.8867L116.241 64.8506C115.673 64.9058 96.5945 66.6341 96.7049 66.6341C98.8502 76.1435 83.6438 77.6666 84.054 67.7941C83.5729 67.9046 71.5608 69.0252 70.638 69.191C68.1693 69.3567 66.513 70.6825 65.259 72.0951C64.1311 73.3656 63.2477 74.8335 62.5852 76.396L56.1572 91.4138L68.7135 96.1488L69.2341 93.0553C69.2972 94.0812 69.3603 95.0282 69.4313 95.9041C70.3777 108.255 70.5354 120.66 70.0149 133.034L69.9676 134.1C69.9045 135.528 71.0481 136.712 72.4757 136.712H113.173C114.632 136.712 115.784 135.473 115.673 134.021L115.453 131.046H115.437Z" fill="#424660"/>
<path d="M82.0977 68C82.0977 68.1263 82.0977 68.2684 82.1213 68.3867C82.2633 70.6043 83.2728 72.6482 84.9607 74.1318C86.5066 75.4734 88.4468 76.1995 90.458 76.1995H90.7341C90.8445 76.1916 90.9549 76.1916 91.0495 76.1758C93.2579 76.0337 95.3007 75.0236 96.7756 73.3348C98.2505 71.646 98.984 69.4916 98.8262 67.2582C98.8105 66.982 98.7789 66.7137 98.7237 66.4375L96.4207 66.6585C96.468 67.2346 96.4838 67.4397 96.4995 67.5502C96.4995 67.6239 96.5048 67.7396 96.5153 67.8975C96.5705 69.5389 95.9948 71.0936 94.9063 72.2773C93.81 73.4611 92.3036 74.1397 90.671 74.195C89.0383 74.2423 87.4688 73.6583 86.2699 72.5377C85.079 71.4171 84.3849 69.894 84.3297 68.2526C84.3218 68.0947 84.3297 67.9132 84.3297 67.7633L82.0977 68.0079V68Z" fill="#6A6F89"/>
<path d="M241.805 267.422C241.962 274.603 242.081 280.191 242.144 283.071C242.175 284.468 242.191 285.233 242.191 285.233C242.341 286.796 247.16 293.472 249.715 296.929C250.67 298.207 252.263 298.838 253.832 298.546L260.789 297.268L260.284 296.747L250.402 286.409L251.435 267.43H241.789L241.805 267.422Z" fill="#FB9572"/>
<path d="M241.71 300.606H243.879V291.822L251.435 300.606H268.921C268.921 300.606 267.998 297.055 263.912 296.826C263.912 296.826 260.008 296.723 255.954 296.636C252.697 296.565 248.832 290.883 247.121 287.758C246.781 287.135 244.202 283.039 241.718 283.039V300.614L241.71 300.606Z" fill="black"/>
<path d="M196.099 297.26L203.055 298.539C204.625 298.831 206.226 298.199 207.172 296.921C209.736 293.464 214.547 286.788 214.697 285.226C214.697 285.226 214.807 284.452 215.012 283.032C215.414 280.143 216.211 274.564 217.22 267.406H207.693L206.486 286.386L196.596 296.724L196.091 297.245L196.099 297.26Z" fill="#FB9572"/>
<path d="M215.185 300.606H213.016V291.822L205.46 300.606H187.975C187.975 300.606 188.897 297.055 192.983 296.826C192.983 296.826 196.887 296.723 200.941 296.636C204.198 296.565 208.063 290.883 209.775 287.758C210.114 287.135 212.693 283.039 215.177 283.039V300.614L215.185 300.606Z" fill="black"/>
<path d="M252.168 118.758C252.168 118.758 258.998 130.09 258.998 151.358C258.998 172.626 253.517 276.204 253.517 276.204H238.334L236.851 150.64H234.311L217.914 276.204H204.814C204.814 276.204 205.176 125.947 224.626 118.758H252.176H252.168Z" fill="#424660"/>
<path d="M243.074 31.418C247.301 34.409 248.871 38.6389 249.352 42.7583L253.28 72.8097C253.477 74.317 251.773 75.6191 249.541 75.6822L225.635 76.2978C223.293 76.3609 221.392 75.0193 221.597 73.4331L226.692 33.0595L243.082 31.4102L243.074 31.418Z" fill="#5B353D"/>
<path d="M229.508 56.2852L229.421 62.4801L229.389 64.6187L229.334 68.7618L229.311 70.2533C230.028 72.4946 232.118 74.136 234.603 74.1518C237.087 74.1676 239.201 72.5498 239.942 70.3165L239.927 70.2139L239.682 68.0516L238.949 61.7225L238.326 56.3483L229.5 56.293L229.508 56.2852Z" fill="#FB9572"/>
<path d="M229.468 59.5382C229.468 59.5382 234.295 59.9722 238.53 57.6758C238.53 57.6758 236.062 61.3691 229.437 61.9688L229.468 59.5382Z" fill="#FA724B"/>
<path d="M238.216 28.5464C232.852 27.6704 228.018 30.3141 225.636 34.5125C225.486 34.6782 223.206 37.4087 223.199 48.8437C223.199 49.5855 223.151 50.3352 223.12 51.077C223.12 51.2428 223.112 51.4085 223.12 51.5742C223.199 56.5302 227.292 60.4839 232.245 60.4049C234.312 60.3734 236.197 59.6473 237.703 58.4399C237.703 58.4399 237.766 58.3768 237.892 58.2742C238.113 58.0848 238.342 57.8875 238.539 57.6665C238.594 57.6034 238.665 57.5482 238.728 57.4771C241.386 54.9045 248.319 47.6363 248.248 41.7333C248.272 41.5282 248.288 41.3309 248.295 41.1257C248.635 35.0333 244.249 29.5092 238.231 28.5306L238.216 28.5464Z" fill="#FB9572"/>
<path d="M224.949 35.1288L225.438 34.3633C227.639 30.5201 231.748 28.1289 236.18 28.1289C236.867 28.1289 237.569 28.1841 238.263 28.2946C244.359 29.289 248.871 34.9315 248.532 41.1422C248.532 41.2685 248.516 41.3947 248.5 41.5131C248.784 41.8051 248.95 41.9866 248.95 41.9866C248.95 41.9866 247.775 46.6742 245.953 48.6393C245.953 48.6393 239.856 45.7351 242.932 38.3801C242.932 38.3801 232.19 39.4376 224.957 35.1209L224.949 35.1288Z" fill="#5B353D"/>
<path d="M230.076 49.8786C229.903 49.7523 229.776 49.5787 229.705 49.3735C229.611 49.0973 229.642 48.7816 229.784 48.5291L231.417 45.6723C231.488 45.5461 231.654 45.4987 231.78 45.5776C231.914 45.6487 231.953 45.8144 231.882 45.9407L230.25 48.7974C230.179 48.9237 230.163 49.0736 230.21 49.2078C230.258 49.3498 230.36 49.4524 230.494 49.5156L231.575 49.9654C231.709 50.0206 231.772 50.1785 231.717 50.3126C231.661 50.4468 231.504 50.5099 231.37 50.4547L230.289 49.997C230.218 49.9654 230.147 49.9259 230.076 49.8786Z" fill="#FA724B"/>
<path d="M228.405 44.0841C228.176 44.7233 227.474 45.0547 226.843 44.8259C226.204 44.597 225.873 43.8947 226.102 43.2633C226.331 42.6241 227.032 42.2927 227.663 42.5215C228.302 42.7504 228.634 43.4527 228.405 44.0841Z" fill="#262429"/>
<path d="M228.144 44.3062C228.207 43.8169 228.12 43.304 227.805 43.0751C227.489 42.8147 227.079 42.8305 226.614 42.8857C226.149 42.9331 225.636 43.0357 225.076 42.9015C224.784 42.8226 224.563 42.649 224.366 42.4754C224.177 42.2939 224.003 42.065 223.972 41.8046C224.122 42.0098 224.327 42.1281 224.54 42.2228C224.753 42.3254 224.966 42.4043 225.163 42.4122C225.581 42.428 226.046 42.3096 226.551 42.2702C227.04 42.2071 227.718 42.3018 228.113 42.7674C228.31 42.9962 228.396 43.304 228.373 43.5723C228.365 43.8406 228.27 44.0932 228.136 44.3062H228.144Z" fill="#262429"/>
<path d="M223.767 40.605C224.697 40.0684 225.754 39.7606 226.859 39.6896C227.403 39.6502 227.986 39.6186 228.523 39.8159C229.059 39.9974 229.54 40.3288 229.895 40.7787C229.911 40.8023 229.903 40.826 229.887 40.8418C229.879 40.8418 229.863 40.8497 229.856 40.8497C229.28 40.8102 228.807 40.684 228.318 40.6287C227.837 40.5735 227.363 40.392 226.859 40.3604C225.857 40.2736 224.816 40.392 223.806 40.6761C223.783 40.684 223.759 40.6761 223.751 40.6524C223.751 40.6366 223.751 40.6129 223.767 40.5972V40.605Z" fill="#262429"/>
<path d="M234.872 45.5915C234.643 46.2307 234.975 46.9252 235.614 47.154C236.252 47.3829 236.946 47.0514 237.175 46.4122C237.404 45.773 237.073 45.0785 236.434 44.8497C235.795 44.6208 235.101 44.9522 234.872 45.5915Z" fill="#262429"/>
<path d="M234.936 45.9229C234.967 45.6704 235.054 45.4257 235.219 45.2048C235.377 44.9838 235.63 44.8023 235.929 44.7471C236.529 44.6366 237.112 44.9917 237.452 45.3547C237.822 45.7098 238.106 46.0965 238.437 46.3491C238.587 46.4674 238.808 46.5385 239.037 46.6016C239.258 46.6568 239.494 46.6963 239.739 46.6332C239.55 46.8147 239.273 46.8778 239.013 46.9015C238.761 46.9094 238.477 46.9015 238.201 46.7831C237.68 46.5385 237.341 46.1281 237.018 45.7967C236.694 45.4573 236.387 45.189 235.977 45.189C235.59 45.1653 235.196 45.5047 234.936 45.9229Z" fill="#262429"/>
<path d="M240.717 45.6459C240.078 44.8173 239.305 44.0992 238.453 43.5704C238.027 43.2942 237.546 43.16 237.12 42.9154C236.694 42.6629 236.237 42.4814 235.756 42.1736C235.756 42.1736 235.732 42.1262 235.74 42.1105C235.74 42.1026 235.756 42.0947 235.763 42.0947C236.316 41.9447 236.907 41.9605 237.443 42.1341C237.995 42.292 238.437 42.6629 238.855 43.0259C239.691 43.744 240.362 44.62 240.788 45.6065C240.795 45.6301 240.788 45.6538 240.764 45.6617C240.748 45.6696 240.724 45.6617 240.709 45.6459H240.717Z" fill="#262429"/>
<path d="M229.714 54.9672C229.658 54.9593 229.627 54.9514 229.619 54.9436C229.43 54.8962 229.303 54.7068 229.351 54.5095C229.398 54.3201 229.572 54.1938 229.785 54.2412C229.8 54.2412 232.206 54.7936 234.241 53.3652C234.406 53.2469 234.627 53.2863 234.746 53.452C234.864 53.6178 234.824 53.8387 234.659 53.9571C232.569 55.4249 230.226 55.0698 229.714 54.9672Z" fill="#FA724B"/>
<path d="M228.01 68.163C228.065 71.4775 230.77 74.1527 234.107 74.1527C237.443 74.1527 239.896 71.7221 240.18 68.6128L228.404 67.4922C228.404 67.4922 228.223 67.7053 228.018 68.163H228.01Z" fill="#FB9572"/>
<path d="M243.823 48.9793C243.823 48.9793 244.872 46.6433 246.914 47.9376C248.957 49.2318 245.81 54.748 241.512 52.2148L243.823 48.9714V48.9793Z" fill="#FB9572"/>
<path d="M242.372 67.7055L256.332 70.578L252.026 88.6814L248.153 105.988L253.312 119.759C259.124 137.081 261.033 150.67 262.926 168.845L268.029 196.268C268.171 197.665 267.075 198.88 265.663 198.88H202.306C200.815 198.88 199.695 197.523 199.979 196.055C203.118 180.019 218.111 118.433 218.245 108.702C218.356 100.195 214.602 92.8956 213.971 87.6634C212.535 75.747 215.643 68.0211 215.643 68.0211L227.118 66.6716L242.38 67.6976L242.372 67.7055Z" fill="#D25B3D"/>
<path d="M256.451 128.185L249.486 125.636C248.879 125.415 248.564 124.736 248.784 124.129C248.989 123.576 249.565 123.261 250.125 123.387L257.381 124.918C258.304 125.115 258.896 126.015 258.698 126.938C258.501 127.861 257.602 128.453 256.679 128.256C256.601 128.24 256.514 128.217 256.443 128.185H256.451Z" fill="#FB9572"/>
<path d="M260.733 122.101L265.245 126.678L262.871 129.306L262.729 129.985C262.374 131.658 261.317 133.142 259.748 133.828C259.432 133.97 259.101 134.073 258.754 134.144C257.713 134.365 256.545 134.262 255.575 133.315L253.919 127.523L257.65 125.242L260.741 122.109L260.733 122.101Z" fill="#FB9572"/>
<path d="M254.913 125.796L245.606 128.96C245.196 129.102 244.967 129.552 245.109 129.963C245.236 130.341 245.614 130.555 245.993 130.491L255.67 128.795C256.514 128.645 257.074 127.84 256.932 126.995C256.782 126.151 255.978 125.591 255.134 125.733C255.055 125.748 254.976 125.764 254.905 125.796H254.913Z" fill="#FB9572"/>
<path d="M255.165 127.288L245.212 130.863C244.77 131.021 244.542 131.51 244.699 131.952C244.841 132.355 245.259 132.584 245.662 132.505L256.049 130.508C256.956 130.335 257.547 129.459 257.374 128.551C257.2 127.644 256.325 127.052 255.418 127.225C255.339 127.241 255.244 127.265 255.173 127.296L255.165 127.288Z" fill="#FB9572"/>
<path d="M256.325 128.535L246.482 132.409C246.048 132.583 245.827 133.08 246.001 133.514C246.159 133.909 246.577 134.122 246.979 134.035L257.295 131.715C258.194 131.51 258.762 130.618 258.557 129.718C258.352 128.819 257.461 128.251 256.562 128.456C256.483 128.472 256.396 128.503 256.317 128.535H256.325Z" fill="#FB9572"/>
<path d="M258.691 129.68L248.138 133.926C247.712 134.1 247.507 134.581 247.681 135.007C247.839 135.394 248.257 135.599 248.651 135.504L259.693 132.766C260.561 132.553 261.089 131.669 260.876 130.801C260.663 129.933 259.78 129.404 258.912 129.617C258.841 129.633 258.762 129.665 258.699 129.688L258.691 129.68Z" fill="#FB9572"/>
<path d="M257.366 131.382L250.307 135.312C250.023 135.47 249.92 135.825 250.078 136.109C250.22 136.37 250.535 136.48 250.804 136.37L258.344 133.458C258.935 133.229 259.235 132.558 259.006 131.966C258.777 131.374 258.107 131.074 257.516 131.303C257.468 131.319 257.413 131.351 257.374 131.374L257.366 131.382Z" fill="#FB9572"/>
<path d="M257.153 125.652L275.112 99.7437L275.427 105.978L250.433 81.1825C250.315 81.0642 250.189 80.93 250.078 80.8038C247.815 78.1601 248.122 74.1748 250.772 71.9099C253.415 69.645 257.398 69.9528 259.661 72.6043L282.542 99.3649L282.802 99.6648C284.23 101.338 284.301 103.839 282.857 105.599L262.84 129.953L257.145 125.644L257.153 125.652Z" fill="#D25B3D"/>
<path d="M227.103 66.6795L242.364 67.7055L245.361 68.321L244.478 69.197C238.744 74.9026 229.193 73.7741 224.942 66.8926L227.095 66.6716L227.103 66.6795Z" fill="#FB9572"/>
<path d="M167.224 78.1519L158.816 71.6334C158.445 71.3414 157.901 71.4124 157.617 71.7833C157.357 72.1227 157.388 72.5962 157.672 72.896L164.976 80.6298C165.615 81.3006 166.672 81.3322 167.35 80.693C168.028 80.0538 168.052 78.9963 167.413 78.3176C167.358 78.2545 167.287 78.1913 167.224 78.144V78.1519Z" fill="#FB9572"/>
<path d="M164.321 79.1076L155.132 73.7492C154.722 73.5125 154.202 73.6466 153.957 74.057C153.744 74.4279 153.831 74.8935 154.154 75.1539L162.412 81.8618C163.13 82.4458 164.187 82.3353 164.771 81.6172C165.354 80.899 165.244 79.8415 164.526 79.2576C164.463 79.2023 164.384 79.155 164.313 79.1076H164.321Z" fill="#FB9572"/>
<path d="M164.061 81.0872L154.099 77.3702C153.658 77.2045 153.161 77.4333 152.995 77.8753C152.845 78.2777 153.019 78.7197 153.382 78.9248L162.657 84.1254C163.461 84.5753 164.487 84.2912 164.944 83.4862C165.394 82.6813 165.11 81.6554 164.305 81.1976C164.234 81.1582 164.148 81.1187 164.069 81.0872H164.061Z" fill="#FB9572"/>
<path d="M166.017 84.0543L154.684 80.9528C154.226 80.8266 153.753 81.0949 153.635 81.5526C153.524 81.9709 153.737 82.397 154.124 82.5627L164.921 87.203C165.773 87.566 166.759 87.1715 167.122 86.327C167.484 85.4748 167.09 84.4883 166.246 84.1253C166.175 84.0937 166.096 84.07 166.025 84.0464L166.017 84.0543Z" fill="#FB9572"/>
<path d="M175.394 86.1842L172.744 79.9498C172.744 79.9498 166.174 77.314 166.103 77.7323C166.032 78.1426 159.936 84.8821 159.936 84.8821L172.216 90.935L175.071 93.0657L178.305 88.0782L175.386 86.1763L175.394 86.1842Z" fill="#FB9572"/>
<path d="M172.784 79.8627L169.732 73.2416C169.464 72.6655 168.778 72.413 168.202 72.6813C167.673 72.9259 167.421 73.5178 167.579 74.0544L169.653 81.0464C169.913 81.9382 170.852 82.4433 171.735 82.1749C172.626 81.9145 173.131 80.9754 172.863 80.0916C172.839 80.0126 172.808 79.9337 172.776 79.8706L172.784 79.8627Z" fill="#FB9572"/>
<path d="M166.19 80.8279C166.19 80.8279 167.539 82.6193 170.875 82.3747" stroke="#FA724B" stroke-width="0.75" stroke-miterlimit="10" stroke-linecap="round"/>
<path d="M177.579 86.691L191.453 93.4778L205.35 100.225L198.883 102.561L210.272 71.8863C211.407 68.8165 214.815 67.2539 217.883 68.3982C220.951 69.5425 222.512 72.9438 221.369 76.0136C221.314 76.1557 221.258 76.2978 221.195 76.4319L207.48 106.144L207.338 106.444C206.289 108.709 203.607 109.695 201.343 108.653C201.233 108.598 201.115 108.543 201.004 108.48L187.58 100.841L174.133 93.2411" fill="#D25B3D"/>
<path d="M216.66 104.355C225.281 107.094 234.493 107.962 243.468 106.889C245.645 106.628 248.004 106.147 249.423 104.466" stroke="#22202B" stroke-miterlimit="10"/>
<path d="M248.856 106.059C243.39 108.229 237.427 108.718 231.567 109.294C225.715 109.87 219.737 110.588 214.444 113.153" stroke="#22202B" stroke-miterlimit="10"/>
<path d="M242.136 107.348C243.351 110.149 242.712 113.401 241.663 116.273C240.614 119.146 239.178 121.916 238.792 124.946C238.263 129.089 239.912 133.445 243.051 136.199" stroke="#22202B" stroke-miterlimit="10"/>
</svg>
