<svg width="159" height="37" viewBox="0 0 159 37" fill="none" xmlns="http://www.w3.org/2000/svg">
<path d="M61.1157 36.8994C61.1157 36.7976 61.1157 36.6957 61.1157 36.5939C61.1157 29.3446 61.1157 22.0749 61.1157 14.8256C61.1157 14.6424 61.1568 14.5202 61.3005 14.3776C62.4091 13.3595 63.4971 12.321 64.6057 11.3028C64.8315 11.2621 65.0779 11.3028 65.3242 11.2824C65.4679 11.2824 65.509 11.3232 65.509 11.4657C65.509 11.8526 65.509 12.2191 65.509 12.606V12.8708C65.509 12.8708 65.6527 12.7689 65.6938 12.7282C66.6587 11.8322 67.7878 11.3028 69.0811 11.1399C70.6208 10.9363 72.0784 11.2417 73.4333 11.9748C75.8763 13.278 77.3134 15.3551 77.9909 17.9819C78.2988 19.163 78.3399 20.3848 78.2783 21.5862C78.1551 23.6225 77.5392 25.4756 76.2459 27.0843C75.0552 28.5708 73.4949 29.5075 71.6062 29.7926C69.3685 30.1388 67.4182 29.5075 65.7759 27.9599C65.7143 27.8988 65.6322 27.8377 65.5295 27.7359C65.5295 27.8377 65.5295 27.8988 65.5295 27.9803C65.5295 30.9126 65.5295 33.8449 65.5295 36.7568C65.5295 36.8179 65.5295 36.879 65.5295 36.9401H61.1363L61.1157 36.8994ZM65.4885 20.4255C65.4885 21.8306 65.4885 23.2356 65.4885 24.6407C65.4885 24.7222 65.4885 24.8036 65.5295 24.8851C66.0428 25.944 66.7202 26.8603 67.7467 27.4916C68.4447 27.9192 69.2043 28.1228 70.046 28.0006C71.0519 27.8581 71.8115 27.3083 72.4069 26.5549C73.4333 25.2312 73.8645 23.704 73.9876 22.0749C74.0492 21.2197 74.0287 20.3441 73.9876 19.4888C73.9466 18.5114 73.7618 17.5543 73.4333 16.6176C73.0638 15.5994 72.5711 14.6424 71.7294 13.95C70.7645 13.1558 69.6765 12.8097 68.4242 13.0948C67.3361 13.3391 66.556 13.9907 65.9812 14.9274C65.6527 15.4976 65.4474 16.0881 65.4679 16.7601C65.509 18.0023 65.4679 19.2241 65.4679 20.4662" fill="#0066CC"/>
<path d="M132.887 5.5376C133.934 5.82269 136.993 6.77976 138.04 7.06485C138.984 7.3092 139.949 7.41102 140.934 7.28884C141.632 7.20739 142.31 6.98339 142.946 6.69831C143.89 6.27068 145.738 5.19143 145.923 5.08961C145.923 3.11438 145.923 2.91075 145.923 1.11878C145.923 0.935511 146.067 0.792969 146.251 0.792969H150.911C151.096 0.792969 151.24 0.935511 151.219 1.11878C151.178 3.05329 151.219 2.93111 151.219 5.08961C151.219 5.08961 153.601 6.00596 155.407 6.73903L154.463 9.40662C153.97 9.22335 151.24 8.28664 151.219 8.26628C151.219 12.5629 151.425 16.8392 151.425 21.1358C151.425 21.7875 151.302 22.4187 151.548 23.0296C151.815 23.7016 152.266 24.2107 153.026 24.3736C153.786 24.5365 154.586 24.2107 154.853 23.498C155.038 23.0296 155.058 22.5409 155.079 22.0522C155.079 21.7875 155.079 21.5024 155.079 21.2377C155.12 20.7082 155.448 20.3417 156.146 20.2806C156.311 20.2806 156.475 20.3213 156.578 20.4435C156.783 20.6675 156.865 20.6471 157.029 20.5453C157.358 20.3009 157.727 20.1177 158.158 20.2195C158.507 20.3009 158.733 20.5249 158.836 20.8711C158.836 20.9118 158.877 20.9322 158.877 20.9526V21.1562C158.61 21.6856 158.446 22.2355 158.405 22.8464C158.179 25.4325 157.05 27.4892 154.75 28.8331C153.703 29.444 152.513 29.7291 151.322 29.892C150.788 29.9531 150.255 29.892 149.741 29.8106C149.269 29.7291 148.838 29.5051 148.468 29.1997C148.161 28.935 147.873 28.6702 147.565 28.4055C147.545 28.3852 147.524 28.2833 147.545 28.263C147.647 28.0797 148.099 27.5706 148.222 27.367C148.078 27.367 147.278 27.5503 146.99 27.5095C146.99 27.5095 146.908 27.2244 146.908 27.1837C146.908 27.0615 147.688 26.2063 147.729 26.1045C147.729 26.1045 146.498 26.3488 146.395 26.247L146.21 25.3307C146.354 25.1067 147.155 24.4958 147.155 24.4958C147.155 24.4958 146.067 24.2107 146.046 24.1496C146.067 24.1292 145.923 8.57172 145.923 8.34773C145.738 8.42918 143.418 9.83424 142.351 10.0786C141.222 10.3433 140.051 10.3841 138.902 10.2415C137.218 10.0379 133.605 8.89754 131.983 8.40882L132.887 5.61906V5.5376Z" fill="#0066CC"/>
<path d="M85.9153 15.9242C85.9153 15.9242 85.9769 15.802 86.018 15.7409C86.6133 14.5191 87.3729 13.3992 88.4609 12.5235C89.4669 11.709 90.596 11.2406 91.8893 11.1185C92.9774 11.0167 94.0244 11.1185 95.0303 11.5665C96.6111 12.2384 97.5349 13.4806 97.966 15.1097C98.1713 15.8631 98.2329 16.6369 98.2329 17.4311C98.2329 20.3634 98.2329 23.2957 98.2329 26.228C98.2329 26.5742 98.2945 26.9203 98.3356 27.2462C98.3356 27.348 98.3972 27.4294 98.4382 27.5109C98.4998 27.6331 98.6025 27.6941 98.7667 27.6534C99.1773 27.572 99.4647 27.3072 99.7726 27.0629C99.8547 26.9814 99.9369 26.9203 100.019 26.8389C100.306 26.5334 100.696 26.5131 100.963 26.7574C101.23 27.0018 101.271 27.4294 101.004 27.6941C100.758 27.9589 100.491 28.2236 100.204 28.4476C99.4031 29.0992 98.4998 29.5472 97.4939 29.7508C95.8105 30.0766 94.3939 29.1603 94.0039 27.4905C93.9218 27.1036 93.8807 26.6963 93.8807 26.3094C93.8807 23.1531 93.8807 19.9968 93.8807 16.8405C93.8807 15.9446 93.7781 15.0486 93.4291 14.1933C93.1416 13.5213 92.7105 13.053 91.9715 12.9308C91.3966 12.8493 90.8629 12.9308 90.3496 13.1752C89.4464 13.6028 88.7689 14.2951 88.2351 15.1097C87.3318 16.474 86.757 17.9605 86.408 19.5488C86.1822 20.5874 86.059 21.6463 85.8948 22.6848C85.8948 22.807 85.8537 22.9902 85.8537 23.1124C85.8537 25.2709 85.8537 27.4294 85.8537 29.5676C85.8537 29.7712 85.7921 29.8323 85.6074 29.8323C84.314 29.8323 83.0207 29.8323 81.7273 29.8323C81.5426 29.8323 81.481 29.7712 81.481 29.5879C81.481 21.1575 81.481 9.22469 81.481 0.814671C81.481 0.631402 81.522 0.570312 81.7273 0.570312C83.0207 0.570312 84.2935 0.570312 85.5868 0.570312C85.7648 0.570312 85.8537 0.658553 85.8537 0.835035C85.8537 4.60223 85.8537 11.8719 85.8537 15.6391V15.9038H85.9153V15.9242Z" fill="#0066CC"/>
<path d="M128.74 15.8816C128.863 15.6576 128.966 15.4336 129.089 15.23C129.725 14.0693 130.505 13.0308 131.573 12.2366C132.517 11.5442 133.585 11.137 134.776 11.0555C136.007 10.9537 137.198 11.1166 138.307 11.7275C139.703 12.481 140.462 13.7027 140.832 15.2096C141.016 15.9223 141.078 16.6758 141.078 17.4089C141.078 20.3819 141.078 23.3346 141.078 26.3076C141.078 26.6334 141.119 26.9592 141.181 27.2647C141.283 27.6923 141.468 27.7941 141.858 27.5701C142.228 27.3461 142.577 27.061 142.905 26.7963C143.316 26.4501 143.891 26.5927 144.034 27.0814C144.116 27.3868 143.993 27.6108 143.788 27.8348C143.234 28.405 142.597 28.8937 141.879 29.2399C141.222 29.5657 140.544 29.8101 139.805 29.8101C138.676 29.8101 137.67 29.3213 137.116 28.1606C136.828 27.5701 136.746 26.9388 136.746 26.2872C136.746 23.0902 136.746 19.8932 136.746 16.6961C136.746 15.902 136.644 15.1282 136.397 14.3747C135.925 12.99 134.878 12.6235 133.626 12.99C132.764 13.2548 132.086 13.8249 131.532 14.5173C130.526 15.7594 129.931 17.2256 129.479 18.7325C129.171 19.7506 128.966 20.8095 128.863 21.8684C128.781 22.5608 128.74 23.2735 128.74 23.9862C128.74 25.8392 128.74 27.7127 128.74 29.5861C128.74 29.8101 128.678 29.8508 128.473 29.8508C127.2 29.8508 125.927 29.8508 124.655 29.8508C124.449 29.8508 124.388 29.7897 124.388 29.5861C124.388 23.4975 124.388 17.4292 124.388 11.3406C124.388 11.1573 124.429 11.0759 124.634 11.0759C126.01 11.0759 127.364 11.0759 128.74 11.0759C128.74 12.6031 128.74 14.1304 128.74 15.6373V15.8816C128.74 15.8816 128.781 15.8816 128.802 15.8816H128.74Z" fill="#0066CC"/>
<path d="M51.5495 27.0417C51.3237 27.3064 51.1389 27.5304 50.9336 27.7341C49.8661 28.8541 48.5727 29.5668 47.033 29.75C45.0827 29.974 43.3583 29.3631 41.8802 28.121C40.3815 26.8585 39.5809 24.9443 39.1497 23.0709C38.9239 22.0731 38.7597 21.3604 38.8007 20.3422C38.8623 18.1837 39.4166 16.1881 40.71 14.4369C41.9417 12.7671 43.543 11.6268 45.6165 11.2399C48.0184 10.7919 50.0714 11.5046 51.7343 13.2965C51.8164 13.3984 51.8985 13.5002 51.9806 13.602C52.0627 13.7038 52.1448 13.8056 52.2475 13.9278C52.5554 13.602 52.8634 13.2965 53.1508 12.9707C53.7256 12.3598 54.3004 11.7693 54.8752 11.1584C54.9779 11.0566 55.0805 10.9955 55.2448 11.0159C55.4501 11.0159 55.7375 10.9751 55.8607 11.0769C55.9633 11.1788 55.9017 11.4638 55.9017 11.6675C55.9017 16.6157 55.9017 21.564 55.9017 26.5123C55.9017 26.8177 55.9633 27.1232 56.0454 27.4083C56.1275 27.6933 56.2712 27.7544 56.5792 27.6323C56.9898 27.4694 57.3182 27.1843 57.6467 26.8992C57.7494 26.7974 57.8725 26.6956 57.9957 26.6548C58.2626 26.553 58.5089 26.6141 58.6937 26.8381C58.8785 27.0621 58.9195 27.3064 58.7964 27.5712C58.7142 27.7341 58.5705 27.897 58.4268 28.0192C57.5646 28.8337 56.5587 29.465 55.3885 29.7297C54.3825 29.9537 53.4587 29.8315 52.6375 29.1391C52.0627 28.6504 51.7753 27.9784 51.6316 27.2454C51.6316 27.1843 51.6111 27.1232 51.5905 27.0214M51.5084 19.5684C51.5084 18.367 51.5084 17.1859 51.5084 15.9845C51.5084 15.8827 51.5084 15.7809 51.4468 15.679C51.0363 14.8849 50.5025 14.1722 49.784 13.6224C48.4701 12.6449 47.0125 12.6449 45.6986 13.6224C45.0211 14.1314 44.5284 14.7831 44.1589 15.5161C43.3788 16.9823 43.0914 18.5706 43.0503 20.1997C43.0093 21.34 43.0914 22.4804 43.3377 23.58C43.5636 24.6796 43.9536 25.7181 44.6721 26.5937C45.8218 27.9988 47.5257 28.3246 49.0654 27.2861C50.1124 26.5734 50.7694 25.5959 51.2005 24.4149C51.4263 23.7836 51.57 23.132 51.5495 22.4396C51.5084 21.4622 51.5495 20.4848 51.5495 19.5277" fill="#0066CC"/>
<path d="M115.847 13.869C116.299 13.4006 116.73 12.9526 117.161 12.5046C117.613 12.0363 118.064 11.5476 118.516 11.0792C118.578 11.0181 118.701 10.9774 118.804 10.957C118.988 10.957 119.153 10.957 119.337 10.957C119.44 10.957 119.481 10.9978 119.481 11.0996C119.481 11.1607 119.481 11.2421 119.481 11.3032C119.481 16.2311 119.481 21.159 119.481 26.0869C119.481 26.4331 119.522 26.7589 119.563 27.1051C119.563 27.1662 119.563 27.2273 119.604 27.3087C119.727 27.6956 119.83 27.8382 120.138 27.6956C120.446 27.5531 120.733 27.3494 121 27.1458C121.123 27.0644 121.205 26.9422 121.308 26.8404C121.596 26.5756 121.986 26.5756 122.232 26.82C122.499 27.0644 122.519 27.492 122.252 27.7771C121.267 28.836 120.097 29.5894 118.639 29.8134C116.915 30.0985 115.539 29.1007 115.211 27.3698C115.211 27.2883 115.17 27.1865 115.149 27.044C115.067 27.1458 115.026 27.2069 114.965 27.268C113.938 28.5712 112.604 29.4265 110.961 29.7319C109.504 29.9967 108.108 29.7319 106.814 29.0599C104.761 27.9807 103.53 26.2295 102.852 24.0506C102.442 22.7677 102.36 21.4645 102.401 20.1409C102.483 17.8194 103.16 15.7017 104.679 13.9097C106.157 12.1585 108.087 11.0996 110.551 11.0792C112.193 11.0792 113.774 11.7512 114.944 12.9119C115.622 13.5839 115.601 13.5839 115.847 13.8893M115.129 19.4892C115.129 18.3082 115.129 17.1271 115.129 15.946C115.129 15.8442 115.129 15.7424 115.067 15.6406C114.739 15.0093 114.349 14.4188 113.835 13.9301C113.199 13.3395 112.481 12.9119 111.598 12.8304C110.715 12.749 109.955 13.0544 109.278 13.5839C108.375 14.2762 107.82 15.2129 107.41 16.2311C106.979 17.29 106.773 18.3896 106.691 19.53C106.589 20.9961 106.65 22.4215 106.999 23.847C107.246 24.8855 107.656 25.8629 108.354 26.6978C109.524 28.0621 111.249 28.2861 112.727 27.268C113.61 26.6367 114.246 25.8018 114.657 24.804C114.985 24.0099 115.211 23.2157 115.17 22.3401C115.129 21.383 115.17 20.4259 115.17 19.4689" fill="#0066CC"/>
<path d="M0.102539 16.6161V0.305195C0.102539 0.203379 0.205186 0.101562 0.307833 0.101562C2.05283 0.101562 14.1036 0.101562 16.3207 0.101562C16.5055 0.101562 16.6697 0.264468 16.6697 0.447738C16.6697 0.834639 16.6697 1.30299 16.6697 1.56772C16.6697 1.68989 16.6287 1.75098 16.485 1.75098C16.4234 1.75098 16.3413 1.75098 16.2797 1.75098C12.4612 1.75098 8.64276 1.75098 4.80377 1.75098C4.72165 1.75098 4.63953 1.75098 4.57794 1.75098C4.51636 1.77135 4.45477 1.83244 4.43424 1.89353C4.41371 1.93425 4.43424 2.01571 4.43424 2.0768C4.43424 5.27382 4.43424 10.385 4.43424 13.5617C4.43424 13.7924 4.55057 13.9078 4.78324 13.9078C7.61629 13.9078 10.4493 13.9078 13.2824 13.9078C13.474 13.9078 13.5698 14.0029 13.5698 14.1929C13.5698 14.5187 13.5698 14.8649 13.5698 15.1907C13.5698 15.4147 13.5082 15.4554 13.3029 15.4554C10.4699 15.4554 7.61629 15.4554 4.78324 15.4554C4.41371 15.4554 4.41371 15.374 4.41371 15.822C4.41371 19.1412 4.41371 24.1505 4.41371 27.4697C4.41371 27.5308 4.41371 27.6123 4.41371 27.6734C4.41371 27.7752 4.45477 27.8363 4.57794 27.8363C4.63953 27.8363 4.70112 27.8363 4.76271 27.8363H16.3618C16.5534 27.8363 16.6492 27.9313 16.6492 28.1214C16.6492 28.4676 16.6492 28.8137 16.6492 29.1803C16.6492 29.3432 16.5876 29.4043 16.4234 29.3839C16.3823 29.3839 16.3618 29.3839 16.3207 29.3839H0.102539V16.5754" fill="#0066CC"/>
<path d="M24.3479 15.5788C24.3479 19.1831 24.3479 22.7874 24.3479 26.3917C24.3479 26.7175 24.4094 27.0433 24.471 27.3692C24.5531 27.7357 24.7379 27.8375 25.0869 27.6339C25.477 27.4099 25.826 27.1248 26.1544 26.8397C26.4829 26.575 26.914 26.575 27.1604 26.8804C27.3657 27.1248 27.3451 27.5117 27.1193 27.7561C26.1339 28.7946 24.9637 29.5684 23.5062 29.7924C21.679 30.0775 20.3241 28.9982 20.0572 27.2266C19.9956 26.8397 19.9751 26.4325 19.9751 26.0252C19.9751 18.8777 19.9751 7.98336 19.9751 0.835867C19.9751 0.64581 20.0709 0.550781 20.2625 0.550781C21.5353 0.550781 22.8287 0.550781 24.1015 0.550781C24.3068 0.550781 24.3479 0.591508 24.3479 0.79514C24.3479 4.48089 24.3479 11.8931 24.3479 15.5788Z" fill="#0066CC"/>
<path d="M33.9763 15.5788C33.9763 19.1831 33.9763 22.7874 33.9763 26.3917C33.9763 26.7175 34.0379 27.0433 34.0994 27.3692C34.1816 27.7357 34.3663 27.8375 34.7153 27.6339C35.1054 27.4099 35.4544 27.1248 35.7829 26.8397C36.1113 26.575 36.5424 26.575 36.7888 26.8804C36.9941 27.1248 36.9736 27.5117 36.7477 27.7561C35.7623 28.7946 34.5922 29.5684 33.1346 29.7924C31.3075 30.0775 29.9525 28.9982 29.6856 27.2266C29.624 26.8397 29.6035 26.4325 29.6035 26.0252C29.6035 18.8777 29.6035 7.98336 29.6035 0.835867C29.6035 0.64581 29.6993 0.550781 29.8909 0.550781C31.1637 0.550781 32.4571 0.550781 33.7299 0.550781C33.9352 0.550781 33.9763 0.591508 33.9763 0.79514C33.9763 4.48089 33.9763 11.8931 33.9763 15.5788Z" fill="#0066CC"/>
</svg>
