<svg width="79" height="72" viewBox="0 0 79 72" fill="none" xmlns="http://www.w3.org/2000/svg">
<path fill-rule="evenodd" clip-rule="evenodd" d="M65.1297 37.0239C64.8848 37.0156 64.6349 37.0035 64.3962 37.0072C51.2016 37.251 38.0044 37.5073 24.8037 37.7391C18.703 37.8466 12.5978 37.9215 6.49149 37.9883C4.996 38.0055 3.49699 37.9329 1.99527 37.8727C1.08235 37.8404 0.923117 37.7461 0.0745911 37.0235C0.381458 36.2597 1.10681 36.0886 1.90449 36.0243C4.62212 35.8072 7.33415 35.5495 10.0558 35.3935C23.5303 34.6408 37.0628 34.4702 50.602 34.2828C55.1264 34.2171 59.649 34.1064 64.1689 34.0082C64.4958 34.0001 64.8143 33.9638 65.1862 33.7366C64.8266 33.6032 64.4697 33.4574 64.0997 33.3449C60.3426 32.1618 56.7471 30.6393 53.3152 28.7282C50.6513 27.2452 48.2233 25.4806 46.1383 23.3429C45.5801 22.7654 45.2004 22.0358 44.7745 21.3576C44.542 20.9888 44.5438 20.5838 44.9449 20.3429C45.3295 20.1111 45.6815 20.2531 46.0881 20.5028C49.504 22.6191 52.8734 24.8155 56.3836 26.7799C60.5571 29.1203 65.1312 30.5081 69.7418 31.7429C71.4905 32.2121 73.2473 32.6441 74.9905 33.1381C75.5895 33.3046 76.1948 33.5485 76.7326 33.8489C77.7645 34.4233 77.8432 35.3479 76.9291 35.9824C76.5808 36.2206 76.1786 36.4533 75.7562 36.5398C70.4397 37.6102 66.0583 40.2252 61.7626 42.9791C58.1223 45.3118 54.8576 48.0225 51.8373 50.9951C51.127 51.6931 50.4029 52.3877 49.6208 53.0156C49.4017 53.1942 48.8913 53.285 48.6484 53.1622C48.4104 53.0431 48.1649 52.5482 48.2304 52.3159C48.4422 51.6018 48.6919 50.8736 49.113 50.2636C51.8521 46.3111 55.5379 43.2154 59.6863 40.5507C61.3312 39.4953 63.0352 38.5147 64.7159 37.4944C64.8796 37.3963 65.0384 37.2943 65.1972 37.1923C65.1668 37.1325 65.1452 37.0722 65.1197 37.0162L65.1297 37.0239Z" fill="#F0E68C"/>
</svg>
