<svg width="241" height="326" viewBox="0 0 241 326" fill="none" xmlns="http://www.w3.org/2000/svg">
<g clip-path="url(#clip0_1_1828)">
<path d="M204.871 309.847C204.871 309.847 201.603 313.694 200.261 315.698C198.918 317.702 196.908 323.056 196.908 323.056C196.908 323.056 196.689 327.291 208.535 327.072C220.381 326.853 223.243 324.176 223.243 324.176C223.243 324.176 223.201 321.448 222.467 318.468C221.724 315.488 221.529 309.569 221.529 309.569C221.529 309.569 210.604 307.566 204.871 309.855V309.847Z" fill="#573D50"/>
<path d="M168.454 158.494C168.454 158.494 167.492 168.816 168.454 184.197C169.417 199.579 174.55 237.051 174.55 237.051C174.55 237.051 173.655 240.587 174.55 243.264C175.445 245.942 177.717 250.622 177.717 250.622C177.717 250.622 179.692 285.174 180.14 288.962C180.587 292.751 179.692 295.647 180.14 298.105C180.587 300.555 183.272 303.468 183.272 303.468C183.272 303.468 191.665 307.054 201.215 303.468C201.215 303.468 198.918 258.199 198.918 244.165C198.918 230.131 193.328 188.382 192.661 179.946C191.994 171.502 190.204 159.454 190.204 159.454C190.204 159.454 175.547 155.994 168.454 158.511V158.494Z" fill="#4A3241"/>
<path d="M200.26 306.843C200.26 306.843 203.612 311.465 213.001 310.799C222.391 310.134 225.304 308.215 225.304 308.215C225.304 308.215 226.426 303.921 225.304 303.458C225.304 303.458 227.009 299.729 227.161 295.679C227.313 291.63 225.987 275.137 225.304 258.863C224.628 242.59 224.772 221.888 224.67 210.269C224.569 198.651 223.784 166.382 223.784 166.382C223.784 166.382 212.216 155.85 190.196 159.436L183.154 159.739C183.154 159.739 184.176 184.861 184.615 187.53C185.054 190.207 186.844 198.39 187.511 202.768C188.178 207.146 192.205 235.678 193.548 244.593C194.89 253.509 196.005 260.867 196.68 265.548C197.347 270.229 200.26 306.843 200.26 306.843Z" fill="#4A3241"/>
<path d="M185.231 191.438C186.126 196.203 186.953 200.985 187.814 205.758L190.28 220.104L191.487 227.285L192.078 230.88L192.593 234.483L194.628 248.905L196.553 263.335L197.516 270.55L197.997 274.162C198.174 275.365 198.2 276.578 198.301 277.79L199.34 292.313C199.644 297.154 199.99 301.994 200.26 306.844C199.728 302.02 199.264 297.187 198.766 292.363L197.398 277.883C197.22 275.466 196.84 273.067 196.503 270.668L195.489 263.461L193.463 249.056L191.538 234.635L191.048 231.032L190.483 227.437L189.385 220.247L187.24 205.851C186.565 201.043 185.856 196.245 185.214 191.438H185.231Z" fill="#553C4E"/>
<path d="M177.725 157.652C178.164 160.026 178.485 162.426 178.764 164.817C179.042 167.208 179.304 169.624 179.448 172.015C179.583 174.398 179.828 176.763 180.444 179.019C181.069 181.25 182.2 183.456 184.37 184.643C183.205 184.29 182.158 183.524 181.364 182.564C180.571 181.596 179.996 180.468 179.574 179.306C178.73 176.965 178.434 174.507 178.274 172.091C178.232 170.87 178.114 169.683 178.046 168.487C177.978 167.292 177.894 166.088 177.852 164.884C177.742 162.485 177.674 160.077 177.725 157.652Z" fill="#553C4E"/>
<path d="M180.478 190.578C182.141 190.704 183.678 190.848 185.24 190.848C186.016 190.848 186.793 190.848 187.57 190.78C188.355 190.747 189.14 190.629 189.985 190.578C189.309 191.075 188.541 191.462 187.73 191.673C186.92 191.908 186.076 192.026 185.231 192.009C184.387 192.009 183.542 191.883 182.74 191.656C181.938 191.428 181.153 191.092 180.478 190.578Z" fill="#553C4E"/>
<path d="M183.272 303.466C183.272 303.466 179.228 306.716 176.424 308.762C173.967 310.555 159.774 312.626 156.354 318.3C155.671 319.437 156.481 320.877 157.807 320.877H199.053C201.316 320.877 203.148 319.058 203.173 316.802C203.207 314.091 203.106 310.681 202.557 308.753C201.535 305.209 201.223 303.458 201.223 303.458C201.223 303.458 190.829 302.102 183.28 303.458L183.272 303.466Z" fill="#573D50"/>
<path d="M132.316 126.509C132.316 126.509 136.318 129.094 139.138 135.661C141.958 142.227 141.46 147.641 141.46 147.641C141.46 147.641 135.676 146.47 131.134 138.178C126.583 129.894 128.854 125.811 132.316 126.501V126.509Z" fill="#4A3241"/>
<path d="M126.592 129.902L129.302 130.137L134.309 127.688L141.528 137.032L124.506 147.623C124.506 147.623 121.526 147.8 120.031 146.706C118.545 145.603 114.518 142.437 110.819 140.93C107.121 139.423 111.022 133.269 113.614 131.67C116.198 130.07 126.6 129.893 126.6 129.893L126.592 129.902Z" fill="#CA8A6A"/>
<path d="M164.342 73.8172C164.342 73.8172 162.502 75.8378 161.058 82.0172C159.614 88.2051 155.578 117.57 155.578 117.57C155.578 117.57 154.337 116.324 153.72 117.57C153.104 118.816 154.497 119.742 154.497 119.742C154.497 119.742 151.238 118.816 151.702 119.742C152.167 120.668 152.277 121.291 152.277 121.291L132.316 126.519C132.316 126.519 135.576 128.01 139.139 135.671C141.933 141.682 141.461 147.651 141.461 147.651C141.461 147.651 163.253 140.099 167.711 137.11C172.169 134.122 173.098 108.461 173.098 99.4948C173.098 90.5287 172.482 72.1166 164.342 73.8172Z" fill="#573D50"/>
<path d="M170.489 66.3047L164.342 73.8059C164.342 73.8059 161.471 93.7503 161.471 122.821C161.471 151.891 160.543 158.87 161.471 162.726C162.4 166.582 168.04 168.822 168.04 168.822C168.04 168.822 170.708 165.168 170.489 148.566C170.278 131.955 171.536 80.9283 171.536 80.9283L170.489 66.3047Z" fill="#4A3241"/>
<path d="M167.711 150.985L168.454 158.503C168.454 158.503 171.477 159.488 180.469 159.732C189.461 159.976 203.671 158.133 203.671 158.133V150C203.671 150 181.423 153.325 167.711 150.985Z" fill="#2D1F28"/>
<path d="M172.279 151.539L173.048 159.268C173.048 159.268 177.784 159.941 183.163 159.747L182.58 151.783C182.58 151.783 174.407 151.758 172.279 151.547V151.539Z" fill="#684F60"/>
<path d="M216.378 178.387C216.378 178.387 213.449 178.42 212.334 180.475C211.22 182.529 208.383 184.381 206.027 187.706C203.68 191.032 200.589 190.653 201.332 192.261C202.075 193.869 207.758 193.979 209.734 192.261C211.709 190.544 212.326 189.55 212.95 189.803C213.567 190.047 212.089 193.499 209.987 195.595C207.884 197.691 205.942 198.92 204.879 198.18C203.806 197.439 203.317 202.002 206.778 202.616C210.24 203.231 212.216 202.12 214.69 199.409C214.69 199.409 215.188 201.008 217.907 200.52C220.625 200.023 222.483 198.306 222.483 198.306C222.483 198.306 223.471 199.417 225.818 198.18C228.165 196.95 229.896 195.309 230.268 190.586C230.639 185.854 230.268 184.751 230.268 184.751L231.29 181.763L216.395 178.387H216.378Z" fill="#CA8A6A"/>
<path d="M214.682 199.408C214.682 199.408 217.4 196.865 218.388 194.07L214.682 199.408Z" fill="#CA8A6A"/>
<path d="M192.611 55.5625L193.911 56.4633C193.911 56.4633 182.791 85.7947 183.897 104.771C185.012 123.747 188.862 151.967 188.862 151.967C188.862 151.967 173.393 153.323 167.703 150.982C167.703 150.982 166.588 118.199 167.204 97.3791C167.821 76.5508 171.527 66.3134 171.527 66.3134L192.602 55.5709L192.611 55.5625Z" fill="#EFE0E4"/>
<path d="M180.317 38.6094L188.702 53.5108C188.702 53.5108 180.258 64.4469 173.841 68.2691L168.556 52.4585L180.317 38.6094Z" fill="#CA8A6A"/>
<path d="M173.833 68.2759L178.62 75.373L192.611 55.5634L188.693 51.4297L187.967 52.2211L188.693 53.5176C188.693 53.5176 180.951 63.5192 173.833 68.2759Z" fill="white"/>
<path d="M171.266 60.59L170.32 61.1793L170.793 75.3736L173.833 68.2764L171.266 60.59Z" fill="white"/>
<path d="M171.536 73.6318C171.536 73.6318 172.11 78.3379 173.132 79.0367C174.154 79.7355 176.264 79.0367 176.264 79.0367L177.97 74.3979L173.841 68.2773L171.545 73.6318H171.536Z" fill="#D36B6E"/>
<path d="M171.536 146.663L175.741 153.684L181.305 145.922L176.256 79.034C176.256 79.034 175.209 77.5776 173.124 79.034C173.124 79.034 166.453 98.5996 171.528 146.663H171.536Z" fill="#D36B6E"/>
<path d="M202.81 63.4023L218.008 71.1309C218.008 71.1309 208.737 81.4609 210.409 93.2389C212.081 105.017 222.086 125.096 222.086 125.096L227.152 165.801C227.152 165.801 211.085 168.731 203.916 169.354C196.748 169.969 190.449 166.887 188.963 161.592C187.477 156.296 183.897 120.558 183.221 111.558C182.537 102.559 181.305 93.5672 186.371 83.3383C191.437 73.1093 195.27 63.697 202.81 63.4108V63.4023Z" fill="#573D50"/>
<path d="M187.114 103.963V105.874H201.578V102.793L187.114 103.963Z" fill="#4A3241"/>
<path d="M218.017 71.1315C218.017 71.1315 210.976 70.5169 208.003 76.427C205.04 82.3455 204.668 87.5147 207.016 93.4331C209.363 99.3516 215.299 117.461 215.299 117.461C215.299 117.461 212.951 120.542 214.311 121.653C215.67 122.765 216.413 123.253 216.413 123.253C216.413 123.253 216.286 123.75 216.042 125.223C215.797 126.705 218.017 128.548 218.017 128.548L214.437 171.796C214.437 171.796 221.108 174.886 227.17 174.515C233.224 174.145 235.698 173.244 235.698 173.244C235.698 173.244 241.009 131.015 241.009 123.985C241.009 116.956 231.248 91.6989 228.901 85.7804C226.554 79.8619 221.732 71.7292 218.026 71.1147L218.017 71.1315Z" fill="#573D50"/>
<path d="M206.551 92.1719L208.932 98.4271C209.725 100.515 210.502 102.603 211.254 104.708C212.774 108.9 214.327 113.084 215.788 117.302L215.915 117.664L215.594 117.9C215.171 118.211 214.749 118.666 214.496 119.121C214.226 119.584 214.158 120.08 214.285 120.535C214.412 121.007 214.8 121.419 215.197 121.806C215.433 121.975 215.653 122.16 215.898 122.32L216.666 122.775L217.046 122.993L216.945 123.414C216.725 124.34 216.615 125.368 216.742 126.277C216.801 126.731 216.945 127.152 217.173 127.447C217.392 127.742 217.705 127.91 218.101 127.994L218.633 128.104L218.591 128.609C218.025 134.814 217.536 141.018 216.911 147.215L215.982 156.509C215.636 159.607 215.315 162.705 214.935 165.795C215.062 162.68 215.264 159.574 215.433 156.459L216.041 147.139C216.446 140.926 216.978 134.721 217.443 128.508L217.932 129.122C217.299 129.021 216.641 128.676 216.244 128.137C215.847 127.599 215.678 126.992 215.611 126.42C215.535 125.847 215.543 125.283 215.594 124.736C215.644 124.181 215.737 123.667 215.872 123.111L216.151 123.751L215.29 123.238C215.011 123.052 214.741 122.825 214.471 122.623C213.973 122.135 213.457 121.596 213.246 120.821C213.027 120.064 213.196 119.213 213.567 118.599C213.947 117.967 214.412 117.471 215.003 117.041L214.808 117.639C213.356 113.421 211.988 109.178 210.595 104.935C209.894 102.822 209.21 100.692 208.543 98.5618L206.551 92.1719Z" fill="#422D3F"/>
<path d="M216.405 123.254C217.798 123.835 219.166 124.424 220.542 124.929C221.918 125.409 223.312 125.906 224.688 126.015C225.38 126.116 226.03 126.032 226.621 125.839C226.748 125.788 226.892 125.721 226.909 125.695C226.909 125.653 226.909 125.847 226.909 125.788C226.866 125.67 226.562 125.409 226.284 125.232C225.085 124.491 223.683 123.911 222.332 123.262C223.835 123.456 225.304 123.767 226.74 124.441C227.094 124.643 227.466 124.778 227.812 125.3C227.888 125.434 227.972 125.645 227.939 125.872C227.93 125.99 227.896 126.091 227.846 126.184C227.804 126.285 227.744 126.36 227.694 126.411C227.466 126.664 227.255 126.756 227.044 126.866C226.241 127.194 225.363 127.278 224.57 127.194C222.957 127.034 221.522 126.453 220.162 125.78C218.803 125.089 217.536 124.264 216.396 123.271L216.405 123.254Z" fill="#422D3F"/>
<path d="M215.535 172.258L214.683 177.099C214.683 177.099 220.247 181.78 225.431 182.394C230.624 183.009 233.714 180.466 233.714 180.466L234.677 173.529L215.544 172.258H215.535Z" fill="#EFE0E4"/>
<path d="M193.911 56.4647L202.81 63.4019L195.769 68.2764L198.361 69.6487C198.361 69.6487 183.39 91.4368 182.58 100.26C182.58 100.26 181.305 84.7943 193.911 56.4647Z" fill="#4A3241"/>
<path d="M197.778 320.877C198.023 320.001 198.369 319.184 198.749 318.385C199.129 317.585 199.543 316.81 199.999 316.061C200.446 315.303 200.945 314.579 201.468 313.872C201.992 313.165 202.557 312.475 203.224 311.852C202.979 312.727 202.633 313.552 202.253 314.344C201.873 315.143 201.46 315.918 201.004 316.667C200.548 317.425 200.058 318.149 199.535 318.856C199.003 319.563 198.445 320.254 197.778 320.877Z" fill="#422D3F"/>
<path d="M155.417 15.3534C153.965 15.7996 151.769 18.1906 152.377 23.6124C152.985 29.0341 153.956 35.3988 154.682 40.8206C155.409 46.2339 156.624 53.2048 160.998 53.4742C165.372 53.7436 170.716 52.5565 174.727 48.7343C178.738 44.9122 180.317 38.6148 180.317 38.6148C180.317 38.6148 186.151 38.9853 187.24 34.4391C188.329 29.8929 186.387 25.1699 180.072 26.9884C180.072 26.9884 182.74 21.6592 181.651 17.0541C180.561 12.4489 175.453 9.1824 155.417 15.3619V15.3534Z" fill="#CA8A6A"/>
<path d="M178.375 34.7356C178.375 34.7356 175.099 35.3417 173.756 32.7403C172.422 30.1389 170.961 28.6824 171.088 26.022C171.206 23.3616 175.707 20.4487 176.315 18.7565C176.922 17.0643 175.36 11.1122 169.256 12.1898C163.151 13.2674 156.886 17.4011 154.936 17.6621C152.994 17.923 151.415 14.3198 150.199 12.0551C148.983 9.79039 152.141 5.54727 153.72 3.73721C155.299 1.91873 156.633 -0.135479 157.604 0.10025C158.575 0.344398 159.183 5.42941 159.183 5.42941C159.183 5.42941 164.646 0.790599 167.567 0.0834125C170.48 -0.623774 169.906 3.61935 169.906 3.61935C169.906 3.61935 176.559 2.53331 183.356 3.01319C190.162 3.50148 192.104 10.0345 192.585 14.2777C193.075 18.5208 187.502 32.7487 187.502 32.7487C187.502 32.7487 188.203 24.4477 180.072 26.9986L178.375 34.7524V34.7356Z" fill="#70414E"/>
<path d="M161.977 33.7693C161.977 34.3418 161.513 34.7964 160.947 34.7964C160.381 34.7964 159.917 34.3334 159.917 33.7693C159.917 33.2052 160.381 32.7422 160.947 32.7422C161.513 32.7422 161.977 33.2052 161.977 33.7693Z" fill="#4A3241"/>
<path d="M159.428 29.3457H162.83C162.83 29.3457 162.712 26.5001 160.947 26.3822C159.183 26.2643 159.428 29.3457 159.428 29.3457Z" fill="#70414E"/>
<path d="M156.996 47.1787C157.646 47.1619 158.229 47.1113 158.735 46.9598C159.25 46.8083 159.673 46.5725 160.044 46.2442C160.424 45.9243 160.72 45.4781 161.049 45.015C161.184 44.7625 161.336 44.5183 161.496 44.2573C161.64 43.9879 161.783 43.7185 161.978 43.4491C162.037 43.769 162.045 44.089 162.054 44.4173C162.028 44.7372 161.969 45.0571 161.893 45.3771C161.682 46.0001 161.387 46.6483 160.821 47.1198C160.28 47.5996 159.537 47.869 158.845 47.8522C158.144 47.8522 157.486 47.6081 156.996 47.1703V47.1787Z" fill="#422D3F"/>
<path d="M187.004 29.3458C185.45 29.2701 183.897 29.489 182.782 30.3056C182.638 30.3898 182.503 30.4992 182.385 30.6255C182.267 30.7518 182.123 30.8444 182.039 30.9959L181.727 31.3916L181.473 31.8463C181.38 31.9894 181.313 32.1493 181.262 32.3177L181.068 32.806C180.967 33.1512 180.891 33.5048 180.798 33.85L179.962 33.2775C180.46 33.0333 180.941 32.8649 181.49 32.7723C182.022 32.6966 182.664 32.6966 183.196 33.0754C183.728 33.4711 183.871 34.0857 183.888 34.5908C183.871 34.8434 183.863 35.1044 183.812 35.3485C183.761 35.5927 183.685 35.8284 183.618 36.0641C183.593 35.82 183.567 35.5758 183.55 35.3401C183.517 35.1044 183.466 34.8771 183.424 34.6582C183.289 34.2288 183.078 33.8584 182.774 33.7405C182.183 33.4711 181.22 33.8415 180.519 34.2541L179.413 34.9023L179.683 33.6816C179.776 33.2775 179.844 32.8734 179.953 32.4693C180.114 32.082 180.198 31.661 180.452 31.3074C180.823 30.5413 181.482 29.8931 182.225 29.4553C182.976 29.0175 183.837 28.8239 184.656 28.8323C185.475 28.8407 186.278 29.0007 186.995 29.3458H187.004Z" fill="#422D3F"/>
<path d="M155.763 34.1365C155.763 34.709 155.392 35.1636 154.936 35.1636C154.48 35.1636 154.108 34.7005 154.108 34.1365C154.108 33.5724 154.48 33.1094 154.936 33.1094C155.392 33.1094 155.763 33.5724 155.763 34.1365Z" fill="#4A3241"/>
<path d="M155.535 30.7383C155.822 31.7738 155.966 32.8262 156.042 33.8869C156.117 34.9309 156.117 36.0253 156.016 37.0693C155.932 38.1048 155.814 39.1151 155.864 40.0917C155.915 41.0598 156.168 42.0028 156.996 42.7268C156.472 42.5921 155.991 42.2385 155.636 41.7839C155.298 41.3208 155.071 40.7652 154.961 40.218C154.724 39.1151 154.767 38.0122 154.851 36.9683L155.13 33.8785C155.222 32.843 155.332 31.7991 155.535 30.7383Z" fill="#422D3F"/>
<path d="M153.332 29.7519H155.333C155.333 29.7519 155.265 26.9063 154.227 26.7885C153.188 26.6706 153.332 29.7519 153.332 29.7519Z" fill="#70414E"/>
<path d="M168.547 52.4668C169.881 51.5323 171.198 50.7746 172.464 49.9411C173.098 49.5201 173.714 49.0992 174.322 48.653C174.93 48.1984 175.504 47.7101 176.137 47.1797C175.681 48.7709 174.44 50.0253 173.098 50.9177C172.414 51.3639 171.679 51.7175 170.919 51.9869C170.159 52.2563 169.366 52.4499 168.538 52.4668H168.547Z" fill="#422D3F"/>
<path d="M74.9607 162.739L75.3744 171.124C75.3744 171.124 71.3892 172.648 68.6788 171.124L65.7236 163.783L74.9607 162.73V162.739Z" fill="#85533F"/>
<path d="M79.7815 167.914L83.674 193.676L58.597 190.047L55.8867 167.266L79.7815 167.914Z" fill="#2D1F28"/>
<path d="M79.7812 167.915H81.1406L84.6869 191.075C84.8051 191.816 85.489 192.321 86.232 192.228C86.9497 192.136 87.4647 191.504 87.431 190.789L86.1476 166.391L87.5407 165.793L88.5539 192.161C88.5793 192.834 88.1149 193.432 87.4563 193.567L85.1175 194.047C84.3407 194.207 83.5892 193.685 83.471 192.902L79.7897 167.915H79.7812Z" fill="#4A3241"/>
<path d="M81.0898 167.78C81.0898 167.78 82.3395 168.967 83.682 168.807C85.016 168.647 86.139 166.391 86.139 166.391L87.6082 190.738C87.6504 191.504 87.0762 192.169 86.3163 192.253C85.548 192.338 84.8472 191.799 84.7289 191.033L81.0983 167.788L81.0898 167.78Z" fill="#EFE0E4"/>
<path d="M86.131 166.391L59.4076 165.793C59.4076 165.793 58.4788 168.293 55.8867 167.266L81.1325 167.915C81.1325 167.915 81.9599 168.975 83.674 168.807C85.388 168.639 86.131 166.391 86.131 166.391Z" fill="white"/>
<path d="M87.5322 165.794L60.3867 164.371L59.4072 165.794L86.1306 166.392L87.5322 165.794Z" fill="#573D50"/>
<path d="M71.1862 100.262C71.1862 100.262 73.3983 104.202 74.3609 107.679C75.3234 111.156 75.6865 127.101 75.4416 136.69C75.1968 146.279 75.5176 155.582 75.5176 155.582C75.5176 155.582 76.8854 156.593 76.649 156.955C76.4126 157.317 75.4501 158.032 75.4501 158.032C75.4501 158.032 76.7081 158.032 76.6828 158.992C76.6575 159.952 75.2137 160.432 75.2137 160.432C75.2137 160.432 76.3535 160.196 76.6828 161.273C77.0121 162.351 74.9688 162.747 74.9688 162.747L62.6414 164.144L65.47 115.231C65.47 115.231 65.4869 105.077 71.1946 100.262H71.1862Z" fill="#4A3241"/>
<path d="M59.6952 302.524L61.4514 311.835C61.4514 311.835 64.5501 314.361 69.6837 313.898C74.8089 313.435 76.5567 310.875 76.5567 310.875V299.737C76.5567 299.737 67.0747 299.4 59.6952 302.524Z" fill="#85533F"/>
<path d="M58.606 312.509C58.606 312.509 59.653 310.186 62.6842 311.002C65.7153 311.819 65.8336 312.627 69.5571 312.509C73.2806 312.391 74.8004 311.347 74.3361 310.068C73.8717 308.788 78.6506 307.508 81.0908 308.67C81.0908 308.67 83.075 312.156 87.3811 313.957C91.6957 315.759 107.071 317.156 108.591 320.288C109.292 321.736 109.055 325.634 109.055 325.634H63.1486C63.1486 325.634 58.9522 325.87 58.606 323.429C58.2598 320.987 58.606 312.501 58.606 312.501V312.509Z" fill="#573D50"/>
<path d="M70.5528 171.93L77.8902 298.735C77.8902 298.735 68.4927 307.087 57.4571 301.589C57.4571 301.589 44.6569 200.748 45.0284 188.523C45.4 176.299 56.6803 167.165 70.5528 171.938V171.93Z" fill="#4A3241"/>
<path d="M25.2539 159.714L22.5352 166.18C22.5352 166.18 35.4029 176.131 48.5071 176.847C61.6112 177.562 72.0726 171.088 72.0726 171.088C72.0726 171.088 72.0726 162.577 71.2283 156.221C70.3839 149.864 61.0117 146.152 47.2997 150.344C33.596 154.537 25.2455 159.706 25.2455 159.706L25.2539 159.714Z" fill="#EFE0E4"/>
<path d="M62.2867 91.0156C62.2867 91.0156 67.3865 95.9238 69.3116 97.5992C71.2367 99.2746 71.6167 100.832 71.9629 105.033C72.3175 109.226 71.4732 123.496 71.355 127.932C71.2367 132.369 71.6674 137.522 72.0473 141.478C72.4357 145.435 73.2716 155.572 73.2716 155.572C73.2716 155.572 73.508 162.096 70.8652 164.016C68.2224 165.935 66.3987 159.756 66.6351 152.844C66.8799 145.932 64.2709 118.133 63.3506 107.163C62.4303 96.1932 60.2857 95.3598 60.2857 95.3598C60.2857 95.3598 59.2218 91.2598 62.2783 91.0156H62.2867Z" fill="#573D50"/>
<path d="M38.7299 87.3477C38.7299 87.3477 36.9737 89.8144 33.1235 91.3719C29.2733 92.9294 23.6247 95.977 25.7862 109.801C27.9477 123.625 32.8787 135.731 32.8787 135.731L32.0174 136.691V138.13H30.9873L32.0174 139.932C32.0174 139.932 27.5931 151.676 22.5439 157.435C22.5439 157.435 29.4 163.429 37.455 168.944C45.51 174.458 54.7724 175.174 59.8216 168.228C64.8707 161.274 66.7958 157.679 66.7958 149.403C66.7958 141.128 69.4977 122.522 64.4232 109.809C64.4232 109.809 56.9424 98.4353 54.8991 95.5645C52.8558 92.6937 43.1458 85.4871 38.7384 87.3561L38.7299 87.3477Z" fill="#573D50"/>
<path d="M64.415 109.801C65.0652 111.804 65.5549 113.85 66.0362 115.904C66.4837 117.959 66.8636 120.038 67.1929 122.118C67.8599 126.285 68.1892 130.503 68.1808 134.738C68.1217 138.964 67.8346 143.173 67.2774 147.349C66.9987 149.437 66.6863 151.516 66.3232 153.587C65.9264 155.65 65.5296 157.721 64.9976 159.758C65.2678 157.671 65.5465 155.591 65.7575 153.503C66.0024 151.424 66.2135 149.336 66.3824 147.248C66.7201 143.072 66.9818 138.896 67.0156 134.721C67.0494 130.553 66.7539 126.386 66.3064 122.227C66.0868 120.148 65.8082 118.068 65.4789 116.005C65.1834 113.926 64.8034 111.863 64.415 109.801Z" fill="#422D3F"/>
<path d="M44.6826 66.3484L42.749 82.6727C42.749 82.6727 51.5639 93.2384 58.7155 95.5536C58.7155 95.5536 59.7118 94.7622 57.7867 82.6727L57.7192 73.5634C57.7192 73.5634 50.0526 65.6834 44.6826 66.3484Z" fill="#85533F"/>
<path d="M33.3341 66.207C33.3341 66.207 30.6322 69.0694 31.0291 70.1302C31.4259 71.191 32.8866 71.0563 32.8866 71.0563C32.8866 71.0563 33.2159 73.6324 34.8117 73.6998C36.3991 73.7671 37.9273 71.1236 37.9273 71.1236C37.9273 71.1236 38.7885 76.4107 42.301 75.2825C45.8134 74.1628 45.6615 67.7392 45.6615 67.7392C45.6615 67.7392 43.8208 61.3493 40.0466 61.2819C36.2724 61.2146 33.3425 66.2154 33.3425 66.2154L33.3341 66.207Z" fill="#353635"/>
<path d="M67.8935 38.5098C67.8935 38.5098 70.5279 54.2784 71.4989 59.6664C72.4699 65.063 71.7775 72.5305 66.5088 73.4987C61.2401 74.4669 57.3562 73.9112 52.6363 71.9749C47.9165 70.0385 42.234 63.9517 42.234 63.9517C42.234 63.9517 34.4661 71.1414 30.4471 62.8488C26.428 54.5478 35.5806 51.2307 40.0134 55.3812C40.0134 55.3812 35.1585 44.5966 39.7348 38.5098C44.3111 32.4229 63.866 21.3605 67.8935 38.5098Z" fill="#85533F"/>
<path d="M40.8156 63.2607C39.9375 63.3618 39.034 63.3197 38.1475 63.0082C37.7084 62.8398 37.2778 62.5956 36.9316 62.1999C36.5855 61.7958 36.4335 61.2486 36.4166 60.7351C36.4166 60.2383 36.5095 59.6995 36.805 59.2281C37.109 58.765 37.5649 58.4283 38.0293 58.2178C38.9834 57.8053 39.929 57.78 40.9 57.8726L40.5539 58.9755L39.3802 58.462C38.9834 58.3357 38.5781 58.201 38.1728 58.0999C37.3623 57.9147 36.5348 57.8642 35.7327 57.9989C34.9474 58.1673 34.1875 58.5461 33.5627 59.1186C32.921 59.6827 32.4144 60.4236 32.0176 61.2234C32.1611 60.331 32.5495 59.4638 33.1321 58.7229C33.7231 57.9821 34.5506 57.3928 35.4963 57.1065C36.4504 56.8287 37.4467 56.8624 38.3923 57.0139C38.8567 57.1149 39.3127 57.2581 39.7686 57.3928L41.0605 57.94C41.356 58.0663 41.4911 58.403 41.3729 58.6977C41.2715 58.9418 41.0182 59.0765 40.7649 59.0429H40.7227C39.9797 58.9418 39.11 58.9839 38.4515 59.2449C38.1137 59.3712 37.8351 59.5648 37.6409 59.8174C37.4636 60.0784 37.3538 60.4067 37.3116 60.7772C37.2863 61.1307 37.3538 61.4591 37.5311 61.7622C37.7169 62.0652 38.0293 62.3094 38.3755 62.5114C39.0847 62.924 39.9459 63.1344 40.8072 63.2776L40.8156 63.2607Z" fill="#422D3F"/>
<path d="M71.7437 31.3594C71.7437 31.3594 73.0271 36.175 73.6941 41.9251C74.3527 47.6752 69.8862 50.2935 69.8862 50.2935C69.8862 50.2935 67.6064 41.5126 67.6064 37.3873C67.6064 33.262 71.7522 31.3594 71.7522 31.3594H71.7437Z" fill="#353635"/>
<path d="M62.0679 53.9728C62.0679 54.6295 61.5359 55.1683 60.8689 55.1683C60.2019 55.1683 59.6699 54.6379 59.6699 53.9728C59.6699 53.3077 60.2019 52.7773 60.8689 52.7773C61.5359 52.7773 62.0679 53.3077 62.0679 53.9728Z" fill="#353635"/>
<path d="M58.2591 50.2953C58.2591 50.2953 59.3483 48.46 61.2227 48.8557C61.2227 48.8557 60.446 46.9362 59.0528 47.2056C57.6596 47.4666 58.2591 50.2953 58.2591 50.2953Z" fill="#353635"/>
<path d="M65.8758 52.6172C66.1207 53.4759 66.374 54.2925 66.7455 54.9829C66.9481 55.3196 67.1423 55.6059 67.4294 55.8248C67.7587 56.111 68.0964 56.4141 68.4088 56.7761C68.7212 57.1381 68.9999 57.5759 69.1518 58.081C69.2869 58.5946 69.3038 59.1334 69.1772 59.6049C69.059 60.0932 68.8817 60.4636 68.6959 60.8845C68.4848 61.2802 68.2822 61.7012 67.9275 62.0043C68.0458 61.5749 68.088 61.1539 68.1386 60.7246C68.1893 60.3121 68.2484 59.849 68.2653 59.4786C68.2991 58.704 68.0289 58.1316 67.5054 57.5338C67.2521 57.2392 66.9566 56.9445 66.661 56.633C66.3064 56.2626 66.0278 55.7995 65.9011 55.3365C65.6225 54.4188 65.6394 53.4928 65.8758 52.6172Z" fill="#422D3F"/>
<path d="M66.6694 60.3203C66.8636 60.5224 66.948 60.6992 66.9902 60.8591C67.0325 61.0191 67.0409 61.1706 66.9987 61.3137C66.9649 61.4569 66.8805 61.5831 66.7623 61.701C66.6441 61.8189 66.4752 61.9283 66.205 62.0041C66.0108 61.802 65.9264 61.6252 65.8757 61.4653C65.8335 61.3053 65.8251 61.1538 65.8757 61.0107C65.9095 60.8675 65.9939 60.7413 66.1206 60.6234C66.2388 60.5055 66.4077 60.3961 66.6778 60.3203H66.6694Z" fill="#422D3F"/>
<path d="M61.2235 63.2617C62.0932 64.3646 62.9291 65.2823 63.9676 65.8463C64.4827 66.1241 65.0231 66.3599 65.6394 66.4777C65.9349 66.5703 66.2558 66.5788 66.5851 66.6461C66.9144 66.6966 67.2437 66.6966 67.6067 66.7724C67.3028 66.9492 66.9735 67.1091 66.6358 67.2186C66.2896 67.2944 65.935 67.4122 65.5634 67.387C64.8289 67.4375 64.0605 67.2354 63.3935 66.865C62.7265 66.4946 62.1776 65.9389 61.8061 65.3159C61.4346 64.6845 61.2066 63.9857 61.2235 63.2701V63.2617Z" fill="#422D3F"/>
<path d="M42.9596 80.9303H41.8113L38.7295 87.3455L46.8605 96.219L50.8627 93.9964V98.0964C50.8627 98.0964 62.3541 107.231 64.4059 109.79C64.4059 109.79 60.9019 99.9991 58.715 95.5455C58.715 95.5455 47.8906 88.6673 42.7486 82.6646L42.9512 80.9219L42.9596 80.9303Z" fill="#4A3241"/>
<path d="M57.7949 82.6758L61.7549 87.685L62.8694 94.6811H61.2229L63.5533 97.5856L64.4061 109.793L58.7153 95.5483C58.7153 95.5483 59.0614 91.6924 58.5211 87.7776C57.9722 83.8544 57.7949 82.6758 57.7949 82.6758Z" fill="#4A3241"/>
<path d="M40.0977 102.281C40.0977 102.281 38.1726 97.2466 35.5298 94.8472C32.887 92.4478 29.6532 92.5909 27.0611 96.2363C24.4689 99.8817 24.9502 107.61 26.7655 115.103C28.5809 122.596 45.6281 146.278 47.3168 149.031C48.997 151.793 52.4841 150.951 52.4841 150.951C52.4841 150.951 50.8039 153.35 53.2018 153.232C55.6082 153.114 55.9713 152.155 55.9713 152.155C55.9713 152.155 55.7771 155.034 57.795 154.672L59.813 154.31L61.9745 156.945L67.5049 139.56L63.6632 139.922C63.6632 139.922 63.8321 138.002 61.1049 138.844C61.1049 138.844 62.27 136.327 61.1049 136.209C59.9397 136.091 58.9771 136.445 58.9771 136.445L40.0977 102.281Z" fill="#573D50"/>
<path d="M42.0817 105.875C43.6353 108.342 45.1551 110.825 46.6242 113.343C48.1018 115.851 49.5794 118.36 51.0064 120.894C52.4333 123.428 53.8687 125.962 55.2534 128.522C56.655 131.073 58.0313 133.632 59.3907 136.208L58.8925 135.964C59.3484 135.914 59.7622 135.897 60.2097 135.93C60.6487 135.973 61.1216 136.031 61.5944 136.343C61.7126 136.41 61.8139 136.545 61.9152 136.646C61.9997 136.772 62.0588 136.924 62.1094 137.067C62.1263 137.21 62.1348 137.362 62.1348 137.496L62.0419 137.867C61.9659 138.103 61.8561 138.296 61.7548 138.498L61.3833 139.037L60.9189 138.532C61.2735 138.347 61.6113 138.187 61.9828 138.06C62.3543 137.934 62.7342 137.816 63.1902 137.842C63.4097 137.858 63.6883 137.926 63.8657 138.145C64.0514 138.347 64.1021 138.608 64.0936 138.818C64.1105 139.037 64.043 139.231 64.0092 139.424L63.8234 139.972L63.6208 139.719C64.9042 139.652 66.196 139.584 67.4879 139.551C66.2129 139.753 64.938 139.929 63.663 140.098L63.3928 140.131L63.4604 139.837L63.587 139.323C63.587 139.155 63.6377 138.978 63.6124 138.835C63.587 138.507 63.4435 138.414 63.1564 138.406C62.8693 138.406 62.5232 138.515 62.2108 138.641C61.8899 138.776 61.5691 138.944 61.2735 139.121L60.0577 139.854L60.8091 138.616L61.1047 138.128C61.1722 137.968 61.2651 137.799 61.2989 137.639C61.4002 137.294 61.3326 137.126 61.13 137.008C60.9105 136.873 60.539 136.814 60.1675 136.806C59.8044 136.798 59.3991 136.831 59.0445 136.899L58.7152 136.958L58.5463 136.663C57.094 134.146 55.6502 131.612 54.2402 129.069C52.8132 126.535 51.4285 123.976 50.0438 121.416C48.6591 118.857 47.3166 116.272 45.9825 113.688C44.6316 111.112 43.3398 108.502 42.0732 105.875H42.0817Z" fill="#422D3F"/>
<path d="M39.2363 137.109C40.7308 138.995 42.1831 140.915 43.6016 142.851C45.0116 144.796 46.4048 146.749 47.7726 148.719L47.7388 148.669C48.0175 148.98 48.3721 149.3 48.7267 149.569C49.0898 149.839 49.4697 150.074 49.8666 150.251C50.2634 150.42 50.6771 150.529 51.0824 150.58C51.4877 150.613 51.8845 150.546 52.2729 150.42L53.9616 149.872L52.94 151.295C52.6529 151.691 52.3574 152.196 52.2645 152.592C52.2476 152.684 52.2392 152.769 52.2476 152.785C52.2561 152.802 52.2223 152.752 52.2223 152.76C52.2223 152.785 52.4671 152.827 52.6951 152.785C53.1764 152.726 53.7083 152.558 54.2149 152.373C54.73 152.179 55.245 151.969 55.7601 151.741L56.3258 151.497L56.4102 152.087C56.4693 152.499 56.5875 152.945 56.7564 153.341C56.9253 153.737 57.1279 154.116 57.4234 154.368C57.7105 154.621 58.082 154.722 58.4788 154.646C58.6815 154.646 58.8757 154.528 59.0868 154.469C59.281 154.377 59.4752 154.25 59.6778 154.141L59.8804 154.031L59.9902 154.174C60.6572 155.101 61.3412 156.01 61.9829 156.953C61.1807 156.136 60.4208 155.294 59.644 154.452L59.948 154.486C59.7453 154.629 59.5511 154.789 59.3401 154.924C59.1036 155.025 58.8926 155.185 58.6139 155.227C58.0989 155.387 57.4403 155.286 56.9844 154.932C56.52 154.595 56.2245 154.132 56.0049 153.678C55.7854 153.206 55.625 152.743 55.5152 152.23L56.1653 152.566C55.6503 152.827 55.1353 153.088 54.5864 153.307C54.0376 153.526 53.4888 153.737 52.8386 153.846C52.5178 153.88 52.1547 153.964 51.6481 153.703C51.3948 153.568 51.1922 153.265 51.15 153.004C51.0993 152.743 51.1331 152.541 51.1669 152.356C51.3442 151.64 51.665 151.152 52.0196 150.622L52.6867 151.497C52.1463 151.691 51.5637 151.792 50.998 151.75C50.4323 151.699 49.8919 151.548 49.3937 151.32C48.904 151.093 48.4565 150.807 48.0344 150.487C47.6122 150.159 47.2407 149.83 46.8776 149.409L46.8607 149.384L46.8438 149.359C45.5267 147.355 44.2179 145.335 42.943 143.306C41.6765 141.268 40.4353 139.214 39.2363 137.118V137.109Z" fill="#422D3F"/>
<path d="M9.76901 292.042L5.94415 298.803C5.94415 298.803 6.06236 307.171 11.7701 308.215C17.4778 309.259 23.8864 308.215 23.8864 308.215C23.8864 308.215 21.4378 304.612 21.7924 302.751C22.147 300.89 23.0589 299.653 23.0589 299.653C23.0589 299.653 16.5153 291.209 9.76901 292.042Z" fill="#85533F"/>
<path d="M7.57373 295.906C7.57373 295.906 6.63651 294.727 4.54255 297.75C2.44859 300.772 0 305.066 0 305.066C0 305.066 3.58845 312.272 8.43496 316.339C13.2815 320.405 16.1691 325.978 23.0589 327.494C29.9487 329.001 37.8687 326.677 38.5695 326.332C39.2703 325.987 40.0808 324.589 39.9711 322.729C39.8613 320.868 39.0254 321.912 33.5541 317.618C28.0828 313.316 26.0986 308.442 25.1698 305.765C25.1698 305.765 20.9734 304.258 14.9195 306.581C14.9195 306.581 11.0777 307.507 10.1405 304.721C9.20331 301.934 10.2672 298.945 7.58217 295.906H7.57373Z" fill="#573D50"/>
<path d="M22.5435 166.172C22.5435 166.172 19.0901 172.916 19.9936 184.736C20.897 196.556 25.2623 220.803 25.2623 220.803C25.2623 220.803 24.0717 222.899 25.2623 223.497C26.4528 224.094 27.4998 224.692 27.4998 224.692C27.4998 224.692 25.4227 224.246 25.2623 225.888C25.1018 227.538 27.4998 227.832 27.4998 227.832C27.4998 227.832 23.7509 227.984 24.6459 229.929C25.5493 231.873 26.7483 232.177 26.7483 232.177L8.43457 290.839C8.43457 290.839 17.2917 299.368 25.6929 300.117C25.6929 300.117 46.5565 252.525 49.1064 237.413C51.6563 222.301 51.5044 213.764 51.9603 204.041C52.4163 194.317 51.3693 176.881 51.3693 176.881C51.3693 176.881 40.1058 178.582 22.5435 166.164V166.172Z" fill="#4A3241"/>
<path d="M30.2524 170.996C29.3236 173.488 28.6819 176.081 28.2513 178.691C27.8291 181.309 27.6856 183.961 27.8882 186.588C28.0993 189.223 28.4624 191.858 28.817 194.493C29.1801 197.128 29.5685 199.755 29.9822 202.382C30.8097 207.635 31.6118 212.889 32.4899 218.133C32.9205 220.769 33.3933 223.336 33.8662 226.005C34.2377 228.708 34.1533 231.427 33.8915 234.104C33.292 239.459 31.9326 244.661 30.2777 249.738C29.4587 252.28 28.5299 254.781 27.6012 257.281C26.6724 259.782 25.7099 262.257 24.7304 264.732C22.7715 269.682 20.7873 274.616 18.7694 279.541C16.7176 284.449 14.6828 289.366 12.5635 294.249L18.2374 279.33C20.1457 274.363 22.037 269.396 23.8945 264.412C25.7099 259.42 27.6603 254.461 29.273 249.418C30.8772 244.375 32.1859 239.223 32.7432 233.986C33.0134 231.376 33.1063 228.741 32.777 226.165C32.3464 223.597 31.8651 220.929 31.4598 218.31C30.6324 213.057 29.8049 207.795 29.1125 202.516C28.7579 199.881 28.4202 197.238 28.1078 194.594C27.8038 191.951 27.483 189.307 27.3394 186.638C27.2212 183.953 27.4576 181.267 27.9642 178.649C28.4708 176.031 29.2139 173.454 30.2693 171.005L30.2524 170.996Z" fill="#553C4E"/>
<path d="M27.7282 181.375C28.8849 181.602 30.0163 181.602 31.0549 181.35C32.0934 181.097 33.0222 180.584 33.8159 179.876C34.6433 179.203 35.2512 178.277 35.8929 177.368L36.7457 175.903C37.0075 175.398 37.2692 174.884 37.5901 174.379C37.5225 174.96 37.4043 175.541 37.2861 176.122C37.1257 176.686 36.9146 177.241 36.7035 177.805C36.18 178.875 35.5468 179.944 34.5842 180.76C33.647 181.577 32.448 182.158 31.19 182.259C29.9488 182.377 28.6907 182.074 27.7197 181.392L27.7282 181.375Z" fill="#553C4E"/>
<path d="M49.537 234.787C50.0352 231.385 50.3645 227.959 50.6854 224.549C50.9893 221.131 51.1751 217.705 51.3271 214.278C51.4706 210.852 51.5381 207.434 51.4959 203.999C51.479 200.564 51.4959 197.121 51.5212 193.686V193.517L51.631 193.374C51.9856 192.894 52.3403 192.271 52.6104 191.665C52.8975 191.051 53.1424 190.411 53.3619 189.762C53.801 188.458 54.088 187.102 54.3076 185.73C54.5271 184.358 54.6622 182.977 54.7466 181.579L54.8057 179.483L54.7888 177.387L54.9999 179.483L55.0928 181.588C55.0928 182.994 55.1013 184.408 54.9239 185.814C54.7635 187.22 54.5271 188.626 54.1387 189.998C53.9361 190.68 53.7165 191.362 53.4379 192.036C53.1593 192.709 52.8722 193.341 52.3994 194.006L52.5091 193.694C52.5767 197.129 52.6189 200.564 52.6442 204.007C52.7033 207.451 52.602 210.911 52.3909 214.346C52.1883 217.789 51.8337 221.224 51.3777 224.634C51.1582 226.343 50.888 228.043 50.5756 229.744C50.2632 231.436 49.9339 233.128 49.5117 234.804L49.537 234.787Z" fill="#553C4E"/>
<path d="M67.1838 140.589C67.1838 140.589 98.0529 132.491 101.177 131.657C104.301 130.815 107.307 130.335 112.238 131.657C117.169 132.979 119.212 133.694 120.056 134.292C120.901 134.89 122.581 139.091 122.699 139.807C122.817 140.522 122.1 142.206 122.1 142.206C122.1 142.206 122.336 144.125 121.863 144.487C121.39 144.849 117.177 142.686 116.088 142.45C114.999 142.214 108.514 142.812 106.952 139.091C106.952 139.091 82.0611 151.559 78.0927 153.235C74.1243 154.91 66.179 156.552 62.6328 154.893L67.1838 140.589Z" fill="#85533F"/>
<path d="M119.71 137.113C120.132 137.433 120.444 137.804 120.715 138.191C120.993 138.578 121.23 138.982 121.424 139.412C121.626 139.833 121.778 140.279 121.905 140.742C122.023 141.205 122.108 141.676 122.082 142.207C121.66 141.887 121.348 141.516 121.069 141.129C120.791 140.742 120.554 140.338 120.36 139.908C120.157 139.487 120.005 139.041 119.887 138.578C119.769 138.115 119.684 137.644 119.701 137.113H119.71Z" fill="#422D3F"/>
<path d="M43.9057 57.7291C43.9057 57.7291 55.5576 49.5712 51.6736 33.6679C51.6736 33.6679 59.3233 42.6341 68.1214 39.8053C68.1214 39.8053 72.6723 37.2628 71.8787 32.001C71.085 26.7392 64.7102 22.0415 54.0293 24.1209C43.3484 26.192 43.0698 29.3406 43.0698 29.3406C43.0698 29.3406 38.4935 30.0647 33.6385 33.3817C28.7835 36.6987 27.745 45.0755 31.5277 54.7909C31.5277 54.7909 35.5805 51.9201 40.0217 55.3718L42.2423 63.9423C42.2423 63.9423 41.2713 67.815 43.627 68.5053C45.9828 69.1957 46.1263 66.7037 45.7041 64.6326C45.2904 62.5616 43.8972 57.7207 43.8972 57.7207L43.9057 57.7291Z" fill="#353635"/>
<path d="M69.5991 53.4516C69.4556 54.0914 68.8223 54.5039 68.1722 54.3608C67.5221 54.2177 67.1168 53.5863 67.2603 52.938C67.4039 52.2898 68.0371 51.8857 68.6873 52.0288C69.3289 52.1719 69.7427 52.8033 69.5991 53.4516Z" fill="#353635"/>
<path d="M66.6689 49.0414C66.6689 49.0414 68.1297 47.4839 69.869 48.2752C69.869 48.2752 69.5228 46.2379 68.1043 46.1958C66.6858 46.1537 66.6689 49.0414 66.6689 49.0414Z" fill="#353635"/>
<path d="M57.7271 73.565C57.1361 73.9017 56.4522 74.0112 55.7852 74.0112C55.1181 74.0112 54.4427 73.8933 53.8178 73.6492C52.5682 73.1693 51.4537 72.2937 50.8711 71.0898C51.5043 71.334 52.0447 71.6287 52.5935 71.8728C53.1339 72.1338 53.6912 72.3358 54.2316 72.5547C55.3292 72.9673 56.4437 73.2703 57.7271 73.565Z" fill="#422D3F"/>
<path d="M105.255 142.195C104.816 143.248 107.324 143.778 108.531 142.195C109.747 140.613 111.807 136.74 110.228 136.378C108.649 136.016 106.099 140.141 105.247 142.195H105.255Z" fill="#CA8A6A"/>
<path d="M109.603 142.197C110.431 140.959 111.14 139.966 112.246 139.107C113.352 138.248 115.142 137.878 115.75 138.492C116.366 139.107 116.425 139.78 116.425 139.78C116.425 139.78 114.948 140.765 114.391 141.254C113.833 141.742 112.009 143.401 110.802 143.645C109.595 143.889 109.004 143.072 109.595 142.197H109.603Z" fill="#CA8A6A"/>
<path d="M119.71 140.451C119.009 140.089 117.785 139.273 116.425 139.769L112.896 142.497C112.896 142.497 112.423 143.97 114.087 143.684C115.75 143.398 117.472 142.396 118.579 142.194C119.685 141.983 120.478 140.855 119.701 140.451H119.71Z" fill="#CA8A6A"/>
<path d="M117.413 146.103C117.413 146.103 122.091 144.192 122.091 143.199C122.091 142.205 119.609 141.885 118.587 142.205C117.557 142.517 114.712 143.746 114.399 144.1C114.095 144.453 113.048 146.171 117.413 146.112V146.103Z" fill="#CA8A6A"/>
<path d="M126.591 129.904C126.591 129.904 124.556 128.187 123.332 127.202C122.099 126.217 120.656 126.158 118.089 127.875C115.522 129.593 110.397 130.645 109.139 131.007C107.881 131.369 110.304 133.827 112.845 133.76C115.387 133.693 118.283 132.194 118.283 132.194C118.283 132.194 119.144 133.701 122.099 133.154C125.055 132.598 126.591 129.904 126.591 129.904Z" fill="#CA8A6A"/>
</g>
<defs>
<clipPath id="clip0_1_1828">
<rect width="241" height="326" fill="white"/>
</clipPath>
</defs>
</svg>
