<svg width="93" height="93" viewBox="0 0 93 93" fill="none" xmlns="http://www.w3.org/2000/svg">
<rect width="93" height="93" rx="11" fill="#FFF5EE"/>
<path d="M67.6378 34.8468H66.3883C65.8888 32.3128 64.872 29.8758 63.4202 27.7328L64.3188 26.8341C64.7344 26.4185 64.9633 25.8651 64.9633 25.2757C64.9633 24.6861 64.7344 24.1327 64.3188 23.7172L62.1246 21.523C61.2654 20.6636 59.8671 20.6638 59.0075 21.523L58.0846 22.4462C55.9433 21.0241 53.5145 20.0333 50.9952 19.5539V18.2039C50.9952 16.9886 50.0065 16 48.7912 16H45.2088C43.9935 16 43.0049 16.9886 43.0049 18.2039V19.5539C40.4855 20.0333 38.0567 21.0241 35.9156 22.4462L34.9925 21.5228C34.1331 20.6637 32.7348 20.6638 31.8753 21.523L29.6812 23.7171C29.2656 24.1327 29.0367 24.6861 29.0367 25.2757C29.0367 25.8651 29.2656 26.4185 29.6812 26.8341L30.5797 27.7328C29.1279 29.8759 28.1111 32.313 27.6117 34.8468H26.3622C25.1469 34.8468 24.1582 35.8355 24.1582 37.0508V40.1538C24.1582 41.3691 25.1469 42.3577 26.3622 42.3577H27.612C28.1113 44.8913 29.1281 47.3279 30.58 49.4713L29.6812 50.3703C28.8219 51.2296 28.8218 52.6277 29.6809 53.4872L31.8753 55.6816C32.2909 56.0972 32.8443 56.326 33.4339 56.326C34.0235 56.326 34.5769 56.0972 34.9925 55.6816L35.9147 54.7591C36.1266 54.8999 36.3423 55.0355 36.5597 55.168C35.8997 55.5607 35.455 56.2793 35.455 57.1014C35.455 58.1095 36.1214 58.9649 37.0368 59.2503V67.386C37.0368 67.5704 37.1068 67.7481 37.2327 67.8829L46.4682 77.769C46.6058 77.9163 46.7984 78 47 78C47.2016 78 47.3943 77.9163 47.5318 77.769L56.7674 67.8829C56.8934 67.7481 56.9634 67.5704 56.9634 67.386V59.2503C57.8787 58.9649 58.5451 58.1094 58.5451 57.1013C58.5451 56.2792 58.1005 55.5606 57.4406 55.168C57.6579 55.0354 57.8736 54.8999 58.0855 54.7591L59.0078 55.6816C59.4234 56.0972 59.9768 56.326 60.5664 56.326C61.156 56.326 61.7094 56.0972 62.1249 55.6816L64.3193 53.4872C65.1785 52.6278 65.1784 51.2297 64.3191 50.3702L63.4201 49.4713C64.8721 47.3279 65.8889 44.8912 66.3882 42.3577H67.638C68.8533 42.3577 69.842 41.3691 69.842 40.1538V37.0508C69.8418 35.8355 68.8531 34.8468 67.6378 34.8468ZM55.5108 54.851H50.0534V41.4017H52.095C54.0234 41.4017 55.5923 39.8328 55.5923 37.9044C55.5923 35.976 54.0234 34.4071 52.095 34.4071C50.1666 34.4071 48.5977 35.976 48.5977 37.9044V39.946H45.4019V37.9044C45.4019 35.976 43.833 34.4071 41.9046 34.4071C39.9762 34.4071 38.4073 35.976 38.4073 37.9044C38.4073 39.8328 39.9762 41.4017 41.9046 41.4017H43.9463V54.851H38.4888C38.4802 54.0266 38.4536 53.2775 38.4048 52.4897C38.2651 50.2457 37.5135 48.2606 36.1066 46.4211C34.3077 44.0686 33.3568 41.2559 33.3568 38.2869C33.3568 30.8979 39.477 24.8865 46.9998 24.8865C54.5225 24.8865 60.6427 30.8979 60.6427 38.2869C60.6427 41.256 59.6918 44.0687 57.8929 46.4211C56.486 48.2608 55.7342 50.246 55.5949 52.4899C55.5459 53.2823 55.5193 54.0308 55.5108 54.851ZM45.402 54.851V41.4017H48.5978V54.851H45.402ZM43.9464 39.946H41.9047C40.779 39.946 39.8631 39.0301 39.8631 37.9044C39.8631 36.7787 40.779 35.8628 41.9049 35.8628C43.0305 35.8628 43.9464 36.7787 43.9464 37.9044V39.946ZM50.0535 39.946V37.9044C50.0535 36.7787 50.9694 35.8628 52.0951 35.8628C53.2208 35.8628 54.1368 36.7787 54.1368 37.9044C54.1368 39.0301 53.2208 39.946 52.0951 39.946H50.0535ZM38.4923 59.3518H43.9464V64.0328L38.4923 66.2962V59.3518ZM48.5978 59.3518V63.4287L47.2789 62.8813C47.1003 62.8072 46.8996 62.8072 46.7209 62.8813L45.4019 63.4287V59.3517H48.5978V59.3518ZM47 76.206L39.0127 67.6562L47 64.3416L54.9873 67.6561L47 76.206ZM50.0535 64.0328V59.3518H55.5077V66.2962L50.0535 64.0328ZM56.2946 57.8961H37.7054C37.2672 57.8961 36.9107 57.5395 36.9107 57.1013C36.9107 56.6632 37.2673 56.3065 37.7054 56.3065H56.2947C56.7329 56.3065 57.0894 56.6632 57.0894 57.1014C57.0893 57.5396 56.7328 57.8961 56.2946 57.8961ZM68.3862 40.1538C68.3862 40.5664 68.0506 40.9022 67.6378 40.9022H65.7796C65.423 40.9022 65.1187 41.1607 65.0613 41.5128C64.6151 44.2456 63.5166 46.8783 61.8841 49.1262C61.6738 49.4158 61.7053 49.8153 61.9583 50.0685L63.2895 51.3996C63.5812 51.6914 63.5812 52.1662 63.2897 52.4582L61.0953 54.6523C60.9548 54.7929 60.7668 54.8704 60.5661 54.8704C60.3655 54.8704 60.1775 54.7929 60.037 54.6523L58.6865 53.3016C58.5456 53.1606 58.3592 53.0884 58.1716 53.0884C58.0246 53.0884 57.8769 53.1328 57.7497 53.2233C57.5022 53.3996 57.2491 53.5701 56.9914 53.7344C57.0051 53.3505 57.0237 52.9708 57.048 52.5799C57.1707 50.6064 57.8068 48.9302 59.0494 47.305C61.0442 44.6967 62.0986 41.5783 62.0986 38.2867C62.0986 34.2833 60.5208 30.5375 57.6559 27.7396C54.8109 24.9609 51.0265 23.4307 47 23.4307C42.9735 23.4307 39.1891 24.9609 36.3441 27.7396C33.4792 30.5377 31.9014 34.2835 31.9014 38.2868C31.9014 41.5781 32.9558 44.6967 34.9507 47.3052C36.1933 48.9304 36.8293 50.6065 36.9521 52.5799C36.9763 52.9696 36.9949 53.3494 37.0084 53.7344C36.7509 53.5702 36.4978 53.3994 36.2504 53.2234C35.9608 53.0174 35.5649 53.0502 35.3135 53.3017L33.963 54.6524C33.8226 54.793 33.6345 54.8705 33.4339 54.8705C33.2332 54.8705 33.0452 54.793 32.9046 54.6524L30.7103 52.4581C30.4186 52.1662 30.4186 51.6914 30.7103 51.3995L32.0415 50.0683C32.2946 49.8152 32.3262 49.4157 32.1158 49.126C30.4834 46.8783 29.3849 44.2456 28.9387 41.5126C28.8813 41.1606 28.577 40.9021 28.2204 40.9021H26.3622C25.9495 40.9021 25.6137 40.5664 25.6137 40.1537V37.0507C25.6137 36.638 25.9494 36.3022 26.3622 36.3022H28.2201C28.5767 36.3022 28.8809 36.0437 28.9384 35.6917C29.3846 32.9582 30.4833 30.3254 32.1154 28.0776C32.3257 27.788 32.2943 27.3885 32.0412 27.1354L30.7103 25.8046C30.5698 25.6639 30.4923 25.4759 30.4923 25.2753C30.4923 25.0746 30.5698 24.8867 30.7105 24.746L32.9044 22.5519C33.1963 22.2603 33.6713 22.2602 33.963 22.5518L35.3142 23.9032C35.5656 24.1545 35.9616 24.1874 36.251 23.9815C38.4996 22.3808 41.1256 21.3102 43.845 20.8852C44.1992 20.8298 44.4604 20.5247 44.4604 20.1661V18.2039C44.4604 17.7913 44.7961 17.4555 45.2088 17.4555H48.7912C49.2039 17.4555 49.5397 17.7912 49.5397 18.2039V20.1664C49.5397 20.5249 49.8009 20.8301 50.1551 20.8854C52.8745 21.3103 55.5004 22.381 57.7491 23.9818C58.0388 24.188 58.4345 24.1549 58.6859 23.9034L60.037 22.5521C60.3288 22.2603 60.8036 22.2604 61.0956 22.552L63.2898 24.7464C63.4304 24.8869 63.5079 25.0749 63.5079 25.2755C63.5079 25.4762 63.4304 25.6641 63.2898 25.8048L61.959 27.1357C61.7059 27.3887 61.6743 27.7882 61.8847 28.0779C63.5167 30.3253 64.6154 32.9582 65.0617 35.6919C65.1193 36.0439 65.4234 36.3025 65.7801 36.3025H67.6379C68.0506 36.3025 68.3864 36.6381 68.3864 37.0509L68.3862 40.1538Z" fill="#0066CC"/>
</svg>
