<svg width="67" height="67" viewBox="0 0 67 67" fill="none" xmlns="http://www.w3.org/2000/svg">
<rect width="67" height="67" rx="11" fill="white"/>
<path d="M54.2148 15.4473H13.7852C13.3326 15.4478 12.8987 15.6278 12.5787 15.9478C12.2587 16.2678 12.0786 16.7017 12.0781 17.1543V40.6783C12.0786 41.1308 12.2587 41.5647 12.5787 41.8848C12.8987 42.2048 13.3326 42.3848 13.7852 42.3853H27.4737V47.325C27.4735 47.5673 27.3771 47.7996 27.2058 47.971C27.0345 48.1424 26.8022 48.2389 26.5598 48.2392L24.4783 48.2402C24.1086 48.2406 23.7542 48.3877 23.4928 48.6491C23.2314 48.9105 23.0844 49.2649 23.084 49.6346V51.1584C23.0844 51.5281 23.2314 51.8825 23.4928 52.1439C23.7542 52.4053 24.1086 52.5524 24.4783 52.5527H43.5217C43.8914 52.5524 44.2458 52.4053 44.5072 52.1439C44.7686 51.8825 44.9156 51.5281 44.916 51.1584V49.6346C44.9156 49.2649 44.7686 48.9105 44.5072 48.6491C44.2458 48.3877 43.8914 48.2406 43.5217 48.2402L41.4402 48.2392C41.1978 48.2388 40.9655 48.1424 40.7942 47.971C40.6229 47.7996 40.5265 47.5673 40.5263 47.3249V42.3853H54.2148C54.6674 42.3848 55.1013 42.2048 55.4213 41.8848C55.7413 41.5647 55.9214 41.1308 55.9219 40.6783V17.1543C55.9214 16.7017 55.7413 16.2678 55.4213 15.9478C55.1013 15.6278 54.6674 15.4478 54.2148 15.4473ZM43.4785 51.1152L24.5215 51.1584L24.4783 49.6777L43.4785 49.6346L43.4785 51.1152ZM28.7257 48.2402C28.8484 47.9507 28.9115 47.6394 28.9112 47.325V42.3892H39.0888V47.325C39.0885 47.6394 39.1515 47.9507 39.2742 48.2402H28.7257ZM54.4844 40.6783C54.4842 40.7497 54.4558 40.8182 54.4053 40.8687C54.3548 40.9192 54.2863 40.9477 54.2148 40.9478H13.7852C13.7137 40.9477 13.6452 40.9192 13.5947 40.8687C13.5442 40.8182 13.5158 40.7497 13.5156 40.6783V17.1543C13.5158 17.0829 13.5442 17.0144 13.5947 16.9639C13.6452 16.9133 13.7137 16.8849 13.7852 16.8848H54.2148C54.2863 16.8849 54.3548 16.9133 54.4053 16.9639C54.4558 17.0144 54.4842 17.0829 54.4844 17.1543V40.6783ZM31.2907 38.7915C31.2907 38.8151 31.286 38.8385 31.277 38.8603C31.268 38.8821 31.2547 38.9019 31.2381 38.9186C31.2214 38.9353 31.2015 38.9486 31.1797 38.9576C31.1579 38.9666 31.1346 38.9713 31.111 38.9712H29.6735C29.6258 38.9712 29.5801 38.9523 29.5464 38.9186C29.5127 38.8849 29.4938 38.8392 29.4938 38.7915C29.4938 38.7439 29.5127 38.6982 29.5464 38.6645C29.5801 38.6308 29.6258 38.6119 29.6735 38.6119H31.111C31.1346 38.6118 31.1579 38.6165 31.1797 38.6255C31.2015 38.6345 31.2214 38.6478 31.2381 38.6645C31.2547 38.6811 31.268 38.701 31.277 38.7228C31.286 38.7446 31.2907 38.7679 31.2907 38.7915ZM38.4781 38.7915C38.4782 38.8151 38.4735 38.8385 38.4645 38.8603C38.4555 38.8821 38.4422 38.9019 38.4256 38.9186C38.4089 38.9353 38.389 38.9486 38.3672 38.9576C38.3454 38.9666 38.3221 38.9713 38.2985 38.9712H36.861C36.8133 38.9712 36.7676 38.9523 36.7339 38.9186C36.7002 38.8849 36.6813 38.8392 36.6813 38.7915C36.6813 38.7439 36.7002 38.6982 36.7339 38.6645C36.7676 38.6308 36.8133 38.6119 36.861 38.6119H38.2985C38.3221 38.6118 38.3454 38.6165 38.3672 38.6255C38.389 38.6345 38.4089 38.6478 38.4256 38.6645C38.4422 38.6811 38.4555 38.701 38.4645 38.7228C38.4735 38.7446 38.4782 38.7679 38.4781 38.7915ZM34.8844 38.7915C34.8844 38.8151 34.8798 38.8385 34.8708 38.8603C34.8617 38.8821 34.8485 38.9019 34.8318 38.9186C34.8151 38.9353 34.7953 38.9486 34.7735 38.9576C34.7517 38.9666 34.7283 38.9713 34.7047 38.9712H33.2672C33.2196 38.9712 33.1739 38.9523 33.1402 38.9186C33.1065 38.8849 33.0875 38.8392 33.0875 38.7915C33.0875 38.7439 33.1065 38.6982 33.1402 38.6645C33.1739 38.6308 33.2196 38.6119 33.2672 38.6119H34.7047C34.7283 38.6118 34.7517 38.6165 34.7735 38.6255C34.7953 38.6345 34.8151 38.6478 34.8318 38.6645C34.8485 38.6811 34.8617 38.701 34.8708 38.7228C34.8798 38.7446 34.8844 38.7679 34.8844 38.7915ZM50.972 18.9498C50.6436 18.6221 50.1987 18.4381 49.7348 18.4381C49.2709 18.4381 48.8259 18.6221 48.4975 18.9498L41.397 26.0502V23.256C41.3966 22.8808 41.2473 22.5211 40.9821 22.2559C40.7168 21.9906 40.3571 21.8414 39.982 21.8409H28.018C27.6428 21.8413 27.2831 21.9905 27.0177 22.2558C26.7524 22.521 26.6031 22.8807 26.6026 23.256V35.2203C26.6031 35.5955 26.7524 35.9552 27.0177 36.2205C27.2831 36.4857 27.6428 36.6349 28.018 36.6353H39.982C40.3571 36.6349 40.7168 36.4856 40.982 36.2203C41.2473 35.9551 41.3966 35.5954 41.397 35.2203V33.3057L42.6081 32.8731C42.6142 32.8709 42.6191 32.8668 42.6251 32.8645C42.6373 32.8597 42.648 32.8521 42.6601 32.8467C42.7297 32.8152 42.7938 32.7726 42.8498 32.7207C42.8574 32.7137 42.8673 32.7115 42.8745 32.7043L52.5633 23.0155C52.891 22.6871 53.075 22.2421 53.075 21.7782C53.075 21.3143 52.891 20.8693 52.5633 20.5409L50.972 18.9498ZM38.8098 32.7032L39.6117 30.4579L41.0552 31.9013L38.8098 32.7032ZM39.9595 23.256V27.4878L38.8087 28.6385C38.8015 28.6458 38.7993 28.6557 38.7923 28.6632C38.7404 28.7193 38.6978 28.7834 38.6663 28.853C38.6609 28.865 38.6533 28.8757 38.6485 28.8879C38.6462 28.894 38.6421 28.8989 38.6399 28.9049L38.5899 29.0449L37.3474 27.8984C37.2192 27.7801 37.0523 27.7125 36.8779 27.7081C36.7035 27.7037 36.5335 27.7629 36.3995 27.8745L34.0642 29.8226L31.2145 26.7318C31.092 26.5992 30.9241 26.5175 30.7442 26.5029C30.5642 26.4882 30.3854 26.5418 30.2431 26.6528L28.0275 28.3855L28.018 23.2784L39.9595 23.256ZM39.982 35.1978L28.0401 35.2203L28.0308 30.2077L30.6066 28.1931L33.4708 31.2998C33.5958 31.4354 33.7682 31.5178 33.9523 31.5299C34.1364 31.542 34.318 31.4828 34.4598 31.3647L36.8361 29.3825L38.0645 30.5161L37.419 32.3232C37.3447 32.532 37.3215 32.7555 37.3514 32.9751C37.3812 33.1947 37.4632 33.4039 37.5904 33.5853C37.7177 33.7668 37.8866 33.9151 38.0829 34.0179C38.2792 34.1207 38.4973 34.1749 38.7189 34.1762C38.8794 34.176 39.0387 34.1482 39.1899 34.0941L39.9686 33.8159L39.982 35.1978ZM42.3664 31.1798L40.3333 29.1467L47.7026 21.7774L49.7356 23.8105L42.3664 31.1798ZM51.5469 21.9992L50.752 22.7941L48.7189 20.7611L49.5138 19.9661C49.5725 19.9076 49.6519 19.8748 49.7348 19.8748C49.8176 19.8748 49.897 19.9076 49.9557 19.9661L51.5469 21.5573C51.6054 21.616 51.6383 21.6954 51.6382 21.7783C51.6382 21.8611 51.6054 21.9405 51.5469 21.9992Z" fill="#6495ED"/>
</svg>
