<svg width="92" height="92" viewBox="0 0 92 92" fill="none" xmlns="http://www.w3.org/2000/svg">
<g filter="url(#filter0_d_46_188)">
<rect x="4" width="84" height="84" rx="12" fill="white"/>
</g>
<g clip-path="url(#clip0_46_188)">
<path d="M67.1939 59.1758H58.8424C58.3697 59.1758 58.0546 58.8606 58.0546 58.3879C58.0546 57.9152 58.3697 57.6 58.8424 57.6H67.1939C68.5333 57.6 69.5576 56.5758 69.5576 55.2364V20.8849C69.5576 19.5455 68.5333 18.5212 67.1939 18.5212H24.8061C23.4667 18.5212 22.4424 19.5455 22.4424 20.8849V55.2364C22.4424 56.5758 23.4667 57.6 24.8061 57.6H33.3152C33.7879 57.6 34.103 57.9152 34.103 58.3879C34.103 58.8606 33.7879 59.1758 33.3152 59.1758H24.8061C22.6 59.1758 20.8667 57.4424 20.8667 55.2364V20.8849C20.8667 18.6788 22.6 16.9455 24.8061 16.9455H67.1939C69.4 16.9455 71.1333 18.6788 71.1333 20.8849V55.2364C71.1333 57.4424 69.4 59.1758 67.1939 59.1758Z" fill="#0066CC"/>
<path d="M50.097 59.1758H44.1091C43.6364 59.1758 43.3212 58.8606 43.3212 58.3879C43.3212 57.9152 43.6364 57.6 44.1091 57.6H50.097C50.5697 57.6 50.8848 57.9152 50.8848 58.3879C50.8848 58.8606 50.5697 59.1758 50.097 59.1758Z" fill="#0066CC"/>
<path d="M70.3455 26.0849H21.6545C21.1818 26.0849 20.8667 25.7697 20.8667 25.297C20.8667 24.8242 21.1818 24.5091 21.6545 24.5091H70.3455C70.8182 24.5091 71.1333 24.8242 71.1333 25.297C71.1333 25.7697 70.8182 26.0849 70.3455 26.0849Z" fill="#0066CC"/>
<path d="M26.9333 23.6424C25.7515 23.6424 24.8061 22.697 24.8061 21.5152C24.8061 20.3333 25.7515 19.3879 26.9333 19.3879C28.1152 19.3879 29.0606 20.3333 29.0606 21.5152C29.0606 22.697 28.1152 23.6424 26.9333 23.6424ZM26.9333 20.9636C26.6182 20.9636 26.3818 21.2 26.3818 21.5152C26.3818 21.8303 26.6182 22.0667 26.9333 22.0667C27.2485 22.0667 27.4848 21.8303 27.4848 21.5152C27.4848 21.2 27.2485 20.9636 26.9333 20.9636Z" fill="#0066CC"/>
<path d="M32.6061 23.6424C31.4242 23.6424 30.4788 22.697 30.4788 21.5152C30.4788 20.3333 31.4242 19.3879 32.6061 19.3879C33.7879 19.3879 34.7333 20.3333 34.7333 21.5152C34.7333 22.697 33.7879 23.6424 32.6061 23.6424ZM32.6061 20.9636C32.2909 20.9636 32.0545 21.2 32.0545 21.5152C32.0545 21.8303 32.2909 22.0667 32.6061 22.0667C32.9212 22.0667 33.1576 21.8303 33.1576 21.5152C33.1576 21.2 32.9212 20.9636 32.6061 20.9636Z" fill="#0066CC"/>
<path d="M50.5697 52.2424C50.3333 52.2424 50.1758 52.1637 50.0182 52.0061C49.703 51.6909 49.703 51.2182 50.0182 50.903L57.7394 43.1818L53.8 39.2424L46.1576 46.8849C45.8424 47.2 45.3697 47.2 45.0546 46.8849C44.7394 46.5697 44.7394 46.097 45.0546 45.7818L53.2485 37.5879C53.4061 37.4303 53.5636 37.3515 53.8 37.3515C54.0364 37.3515 54.1939 37.4303 54.3515 37.5879L59.3939 42.6303C59.7091 42.9455 59.7091 43.4182 59.3939 43.7334L51.1212 52.0061C50.9636 52.1637 50.8061 52.2424 50.5697 52.2424Z" fill="#0066CC"/>
<path d="M34.8909 67.0546C34.497 67.0546 34.103 66.9758 33.7091 66.8182C32.1333 66.1091 30.9515 64.9273 30.1636 63.2727C29.6121 62.1697 29.8485 60.8303 30.7152 60.0424L41.1152 49.7212C41.4303 49.4061 41.903 49.4061 42.2182 49.7212C42.5333 50.0364 42.5333 50.5091 42.2182 50.8243L31.8182 61.2243C31.4242 61.5394 31.3455 62.0909 31.5818 62.5637C32.2121 63.903 33.1576 64.8485 34.3394 65.3212C34.6546 65.4788 35.2849 65.5576 35.7576 65.0849L46.3152 54.6061C46.6303 54.2909 47.103 54.2909 47.4182 54.6061C47.7333 54.9212 47.7333 55.394 47.4182 55.7091L36.8606 66.2667C36.3091 66.8182 35.6788 67.0546 34.8909 67.0546Z" fill="#0066CC"/>
<path d="M58.8424 43.9697C58.6061 43.9697 58.4485 43.8909 58.2909 43.7334L53.2485 38.6909C53.0909 38.5334 53.0121 38.2182 53.0121 37.9818C53.0909 37.7455 53.2485 37.5091 53.4849 37.4303L61.2849 34.6728C61.6 34.594 61.9152 34.6728 62.0727 34.8303C62.3091 35.0667 62.3879 35.3818 62.2303 35.6182L59.4727 43.4182C59.3939 43.6546 59.1576 43.8909 58.9212 43.8909C58.9212 43.9697 58.9212 43.9697 58.8424 43.9697ZM55.2182 38.4546L58.5273 41.7637L60.3394 36.7212L55.2182 38.4546Z" fill="#0066CC"/>
<path d="M38.3576 64.4546C38.1212 64.4546 37.9636 64.3758 37.8061 64.2182L32.7636 59.2546C32.4485 58.9394 32.4485 58.4667 32.7636 58.1516C33.0788 57.8364 33.5515 57.8364 33.8667 58.1516L38.9091 63.1152C39.2243 63.4303 39.2243 63.9031 38.9091 64.2182C38.7515 64.3758 38.5939 64.4546 38.3576 64.4546Z" fill="#0066CC"/>
<path d="M51.2 60.2C51.0424 60.2 50.8061 60.1212 50.6485 59.9637L31.4242 41.5273C30.6364 40.8182 30.2424 39.8728 30.2424 38.8485C30.2424 37.8243 30.6364 36.8 31.3455 36.0909C32.0546 35.3819 33.0788 34.9879 34.103 34.9879C35.1273 34.9879 36.0727 35.4606 36.7818 36.1697L55.3758 55.4728C55.6909 55.7879 55.6909 56.2606 55.3758 56.5758C55.0606 56.8909 54.5879 56.8909 54.2727 56.5758L35.6788 37.2728C35.2849 36.8 34.6546 36.5637 34.103 36.5637C33.4727 36.5637 32.9212 36.8 32.5273 37.194C32.1333 37.5879 31.897 38.2182 31.897 38.7697C31.897 39.4 32.1333 39.9516 32.6061 40.3455L51.8303 58.7819C52.1455 59.097 52.1455 59.5697 51.8303 59.8849C51.5939 60.1213 51.4364 60.2 51.2 60.2Z" fill="#0066CC"/>
<path d="M60.9697 67.0546C60.7333 67.0546 60.5758 66.9758 60.4182 66.8182C60.4182 66.8182 57.8182 64.297 53.9576 63.6667C52.4606 63.4303 51.2 62.4061 50.7273 60.9091C50.2546 59.4909 50.6485 58.0727 51.6727 57.0485L51.7515 56.9697C52.6182 56.0243 53.8788 55.4727 55.1394 55.4727H55.2182C56.2424 55.4727 57.1879 55.8667 57.9758 56.5758C59.7879 57.8364 61.3636 64.2182 61.7576 66.1879C61.8364 66.5031 61.6788 66.897 61.3636 67.0546C61.2061 67.0546 61.1273 67.0546 60.9697 67.0546ZM55.2182 56.9697C55.1394 56.9697 55.1394 57.0485 55.2182 56.9697C54.3515 56.9697 53.5636 57.3637 52.9333 57.994L52.8546 58.0728C52.2243 58.7031 52.0667 59.4909 52.303 60.3576C52.6182 61.2243 53.3273 61.9334 54.2727 62.0121C56.5576 62.4061 58.4485 63.3515 59.7091 64.1394C58.8424 61.0667 57.8182 58.1515 57.1091 57.6788C57.0303 57.6788 57.0303 57.6 56.9515 57.5212C56.4 57.2849 55.8485 56.9697 55.2182 56.9697Z" fill="#0066CC"/>
<path d="M67.1939 33.8848H24.7273C24.2545 33.8848 23.9394 33.5697 23.9394 33.097V28.3697C23.9394 27.897 24.2545 27.5818 24.7273 27.5818H67.1939C67.6667 27.5818 67.9818 27.897 67.9818 28.3697V33.097C67.9818 33.5697 67.6667 33.8848 67.1939 33.8848ZM25.5151 32.3091H66.4061V29.1576H25.5151V32.3091Z" fill="#0066CC"/>
<path d="M45.6061 41.1333C43.8727 41.1333 42.5333 39.7939 42.5333 38.0606C42.5333 36.3273 43.8727 34.9879 45.6061 34.9879C47.3394 34.9879 48.6788 36.3273 48.6788 38.0606C48.6788 39.7939 47.3394 41.1333 45.6061 41.1333ZM45.6061 36.5636C44.8182 36.5636 44.1091 37.2727 44.1091 38.0606C44.1091 38.8485 44.8182 39.5576 45.6061 39.5576C46.3939 39.5576 47.103 38.8485 47.103 38.0606C47.103 37.2727 46.3939 36.5636 45.6061 36.5636Z" fill="#0066CC"/>
<path d="M67.2727 38.8485H63.9636C63.4909 38.8485 63.1758 38.5333 63.1758 38.0606C63.1758 37.5879 63.4909 37.2727 63.9636 37.2727H67.2727C67.7454 37.2727 68.0606 37.5879 68.0606 38.0606C68.0606 38.5333 67.7454 38.8485 67.2727 38.8485Z" fill="#0066CC"/>
<path d="M27.6424 38.8485H24.7273C24.2545 38.8485 23.9394 38.5333 23.9394 38.0606C23.9394 37.5879 24.2545 37.2727 24.7273 37.2727H27.6424C28.1151 37.2727 28.4303 37.5879 28.4303 38.0606C28.4303 38.5333 28.1151 38.8485 27.6424 38.8485Z" fill="#0066CC"/>
<path d="M67.2727 44.0485H62.3879C61.9152 44.0485 61.6 43.7334 61.6 43.2606C61.6 42.7879 61.9152 42.4727 62.3879 42.4727H67.2727C67.7455 42.4727 68.0606 42.7879 68.0606 43.2606C68.0606 43.7334 67.7455 44.0485 67.2727 44.0485Z" fill="#0066CC"/>
<path d="M29.2182 44.0485H24.7273C24.2545 44.0485 23.9394 43.7334 23.9394 43.2606C23.9394 42.7879 24.2545 42.4727 24.7273 42.4727H29.2182C29.6909 42.4727 30.0061 42.7879 30.0061 43.2606C30.0061 43.7334 29.6909 44.0485 29.2182 44.0485Z" fill="#0066CC"/>
<path d="M67.2727 49.2485H58.4485C57.9758 49.2485 57.6606 48.9333 57.6606 48.4606C57.6606 47.9879 57.9758 47.6727 58.4485 47.6727H67.2727C67.7455 47.6727 68.0606 47.9879 68.0606 48.4606C68.0606 48.9333 67.7455 49.2485 67.2727 49.2485Z" fill="#0066CC"/>
<path d="M34.7333 49.2485H24.7273C24.2545 49.2485 23.9394 48.9333 23.9394 48.4606C23.9394 47.9879 24.2545 47.6727 24.7273 47.6727H34.7333C35.2061 47.6727 35.5212 47.9879 35.5212 48.4606C35.5212 48.9333 35.2061 49.2485 34.7333 49.2485Z" fill="#0066CC"/>
<path d="M67.2727 54.4485H58.4485C57.9758 54.4485 57.6606 54.1333 57.6606 53.6606C57.6606 53.1879 57.9758 52.8727 58.4485 52.8727H67.2727C67.7455 52.8727 68.0606 53.1879 68.0606 53.6606C68.0606 54.1333 67.7455 54.4485 67.2727 54.4485Z" fill="#0066CC"/>
<path d="M32.3697 54.4485H24.7273C24.2545 54.4485 23.9394 54.1333 23.9394 53.6606C23.9394 53.1879 24.2545 52.8727 24.7273 52.8727H32.3697C32.8424 52.8727 33.1576 53.1879 33.1576 53.6606C33.1576 54.1333 32.8424 54.4485 32.3697 54.4485Z" fill="#0066CC"/>
</g>
<defs>
<filter id="filter0_d_46_188" x="0" y="0" width="92" height="92" filterUnits="userSpaceOnUse" color-interpolation-filters="sRGB">
<feFlood flood-opacity="0" result="BackgroundImageFix"/>
<feColorMatrix in="SourceAlpha" type="matrix" values="0 0 0 0 0 0 0 0 0 0 0 0 0 0 0 0 0 0 127 0" result="hardAlpha"/>
<feOffset dy="4"/>
<feGaussianBlur stdDeviation="2"/>
<feComposite in2="hardAlpha" operator="out"/>
<feColorMatrix type="matrix" values="0 0 0 0 0 0 0 0 0 0 0 0 0 0 0 0 0 0 0.25 0"/>
<feBlend mode="normal" in2="BackgroundImageFix" result="effect1_dropShadow_46_188"/>
<feBlend mode="normal" in="SourceGraphic" in2="effect1_dropShadow_46_188" result="shape"/>
</filter>
<clipPath id="clip0_46_188">
<rect width="52" height="52" fill="white" transform="translate(20 16)"/>
</clipPath>
</defs>
</svg>
