<svg width="102" height="95" viewBox="0 0 102 95" fill="none" xmlns="http://www.w3.org/2000/svg">
<path d="M49.2783 75.6648C49.2783 70.6321 51.0022 63.2983 51.0022 63.2983C51.0022 63.2983 52.726 70.6321 52.726 75.6648C52.726 80.6976 51.9542 81.5224 51.0022 81.5224C50.0501 81.5224 49.2783 80.6976 49.2783 75.6648Z" fill="#E8A87C"/>
<path d="M67.4001 71.2173C64.2285 67.1459 61.0005 60.2692 61.0005 60.2692C61.0005 60.2692 67.0171 65.2599 70.1887 69.3313C73.3604 73.4027 73.2533 74.4901 72.4872 75.0102C71.7154 75.5303 70.5774 75.2886 67.4058 71.2173H67.4001Z" fill="#E8A87C"/>
<path d="M79.2545 57.6916C74.1224 56.1366 67.1763 52.3436 67.1763 52.3436C67.1763 52.3436 75.1871 53.0844 80.3192 54.6394C85.4513 56.1944 86.0541 57.1347 85.7612 57.9753C85.4682 58.8211 84.3866 59.2466 79.2601 57.6916H79.2545Z" fill="#E8A87C"/>
<path d="M80.3192 40.2425C75.1871 41.7975 67.1763 42.5383 67.1763 42.5383C67.1763 42.5383 74.1224 38.7453 79.2545 37.1903C84.3866 35.6353 85.4626 36.0661 85.7555 36.9066C86.0485 37.7524 85.4457 38.6875 80.3136 40.2425H80.3192Z" fill="#E8A87C"/>
<path d="M70.1838 25.5509C67.0122 29.6223 60.9956 34.613 60.9956 34.613C60.9956 34.613 64.2236 27.7363 67.3953 23.6649C70.5669 19.5935 71.7105 19.3518 72.4767 19.8719C73.2484 20.392 73.3499 21.4847 70.1782 25.5509H70.1838Z" fill="#E8A87C"/>
<path d="M52.7187 19.214C52.7187 24.2468 50.9948 31.5805 50.9948 31.5805C50.9948 31.5805 49.271 24.2468 49.271 19.214C49.271 14.1812 50.0428 13.3564 50.9948 13.3564C51.9469 13.3564 52.7187 14.1812 52.7187 19.214Z" fill="#E8A87C"/>
<path d="M34.6011 23.6603C37.7727 27.7316 41.0007 34.6083 41.0007 34.6083C41.0007 34.6083 34.9841 29.6176 31.8125 25.5462C28.6408 21.4748 28.7479 20.3874 29.514 19.8673C30.2802 19.3472 31.4238 19.5889 34.5954 23.6603H34.6011Z" fill="#E8A87C"/>
<path d="M22.7438 37.1903C27.8759 38.7453 34.822 42.5383 34.822 42.5383C34.822 42.5383 26.8112 41.7975 21.6791 40.2425C16.547 38.6875 15.9442 37.7472 16.2371 36.9066C16.5301 36.0661 17.6117 35.6353 22.7382 37.1903H22.7438Z" fill="#E8A87C"/>
<path d="M21.6783 54.6302C26.8104 53.0752 34.8213 52.3345 34.8213 52.3345C34.8213 52.3345 27.8752 56.1274 22.7431 57.6824C17.6109 59.2374 16.5349 58.8067 16.242 57.9661C15.9491 57.1256 16.5518 56.1852 21.684 54.6302H21.6783Z" fill="#E8A87C"/>
<path d="M31.8142 69.3313C34.9859 65.2599 41.0024 60.2692 41.0024 60.2692C41.0024 60.2692 37.7745 67.1459 34.6028 71.2173C31.4311 75.2886 30.2876 75.5303 29.5214 75.0102C28.7496 74.4901 28.6482 73.4027 31.8199 69.3313H31.8142Z" fill="#E8A87C"/>
<path d="M74.4854 48.2227C71.8489 48.2227 68.0068 47.4407 68.0068 47.4407C68.0068 47.4407 71.8489 46.6587 74.4854 46.6587C77.1218 46.6587 77.5556 47.0103 77.5556 47.4407C77.5556 47.8711 77.1218 48.2227 74.4854 48.2227Z" fill="#E8A87C"/>
<path d="M96.6584 48.8093C92.0727 48.8093 85.3857 47.4434 85.3857 47.4434C85.3857 47.4434 92.0727 46.0775 96.6584 46.0775C101.244 46.0775 101.999 46.6869 101.999 47.4434C101.999 48.1999 101.25 48.8093 96.6584 48.8093Z" fill="#E8A87C"/>
<path d="M81.7402 48.6124C81.0472 48.6124 80.4839 48.0871 80.4839 47.4409C80.4839 46.7947 81.0472 46.2694 81.7402 46.2694C82.4331 46.2694 82.9964 46.7947 82.9964 47.4409C82.9964 48.0871 82.4331 48.6124 81.7402 48.6124Z" fill="#E8A87C"/>
<path d="M70.4908 35.2026C68.3557 36.6473 64.7559 38.1182 64.7559 38.1182C64.7559 38.1182 67.3698 35.3759 69.5049 33.9312C71.64 32.4866 72.209 32.5338 72.4794 32.8858C72.7498 33.2378 72.6258 33.7579 70.4908 35.2026Z" fill="#E8A87C"/>
<path d="M88.7994 23.5177C85.087 26.034 78.8169 28.5925 78.8169 28.5925C78.8169 28.5925 83.3631 23.8224 87.0756 21.306C90.7881 18.7896 91.7796 18.8737 92.2528 19.483C92.726 20.0924 92.5063 21.0013 88.7938 23.5124L88.7994 23.5177Z" fill="#E8A87C"/>
<path d="M76.6096 31.5377C76.0463 31.9212 75.2632 31.8004 74.852 31.2803C74.4407 30.755 74.5703 30.0247 75.128 29.6412C75.6914 29.2577 76.4744 29.3786 76.8857 29.8987C77.2913 30.424 77.1673 31.1542 76.6096 31.5377Z" fill="#E8A87C"/>
<path d="M59.0557 26.8555C58.2388 29.1932 56.2559 32.361 56.2559 32.361C56.2559 32.361 56.6446 28.7099 57.4558 26.3722C58.2726 24.0344 58.7628 23.7612 59.2022 23.8925C59.6416 24.0239 59.8669 24.5177 59.0557 26.8555Z" fill="#E8A87C"/>
<path d="M66.5036 7.36845C65.084 11.4346 61.625 16.9454 61.625 16.9454C61.625 16.9454 62.301 10.594 63.715 6.52266C65.1347 2.45652 65.9853 1.97846 66.7571 2.20961C67.5289 2.44076 67.9176 3.29707 66.498 7.3632L66.5036 7.36845Z" fill="#E8A87C"/>
<path d="M61.6966 20.537C61.4825 21.1516 60.7727 21.4931 60.1136 21.2882C59.4545 21.0886 59.0883 20.4267 59.308 19.812C59.5221 19.1974 60.2319 18.8559 60.891 19.0608C61.5501 19.2604 61.9163 19.9223 61.6966 20.537Z" fill="#E8A87C"/>
<path d="M44.5436 26.3685C45.3604 28.7063 45.7435 32.3574 45.7435 32.3574C45.7435 32.3574 43.7549 29.1896 42.9437 26.8518C42.1324 24.514 42.3521 24.0202 42.7972 23.8889C43.2422 23.7576 43.7323 24.0307 44.5436 26.3685Z" fill="#E8A87C"/>
<path d="M38.2796 6.52325C39.6993 10.5894 40.3696 16.946 40.3696 16.946C40.3696 16.946 36.9107 11.4352 35.491 7.36905C34.0714 3.30291 34.4657 2.44661 35.2319 2.21546C36.0037 1.98431 36.8543 2.45711 38.274 6.5285L38.2796 6.52325Z" fill="#E8A87C"/>
<path d="M42.6974 19.8155C42.9115 20.4302 42.5509 21.0921 41.8918 21.2917C41.2327 21.4914 40.5229 21.1551 40.3088 20.5405C40.0947 19.9258 40.4553 19.2639 41.1144 19.0643C41.7735 18.8646 42.4833 19.2009 42.6974 19.8155Z" fill="#E8A87C"/>
<path d="M32.4943 33.9322C34.6294 35.3769 37.2434 38.1192 37.2434 38.1192C37.2434 38.1192 33.6379 36.6482 31.5085 35.2036C29.3734 33.7589 29.2495 33.2388 29.5199 32.8868C29.7903 32.5348 30.3649 32.4875 32.4943 33.9322Z" fill="#E8A87C"/>
<path d="M14.9181 21.3063C18.6305 23.8227 23.1768 28.5928 23.1768 28.5928C23.1768 28.5928 16.9067 26.0344 13.1942 23.518C9.48173 21.0016 9.26203 20.0981 9.73524 19.4887C10.2085 18.8793 11.2056 18.7952 14.9124 21.3116L14.9181 21.3063Z" fill="#E8A87C"/>
<path d="M26.8656 29.6437C27.429 30.022 27.5529 30.7574 27.1417 31.2828C26.7304 31.8081 25.9474 31.9237 25.384 31.5402C24.8207 31.1567 24.6967 30.4265 25.108 29.9011C25.5192 29.3758 26.3023 29.2602 26.8656 29.6437Z" fill="#E8A87C"/>
<path d="M27.5151 46.6541C30.1516 46.6541 33.9936 47.4361 33.9936 47.4361C33.9936 47.4361 30.1516 48.2181 27.5151 48.2181C24.8786 48.2181 24.4448 47.8664 24.4448 47.4361C24.4448 47.0057 24.8786 46.6541 27.5151 46.6541Z" fill="#E8A87C"/>
<path d="M5.34055 46.0775C9.92621 46.0775 16.6132 47.4434 16.6132 47.4434C16.6132 47.4434 9.92621 48.8093 5.34055 48.8093C0.754887 48.8093 0 48.1999 0 47.4434C0 46.6869 0.749254 46.0775 5.34055 46.0775Z" fill="#E8A87C"/>
<path d="M20.2582 46.2648C20.9511 46.2648 21.5145 46.7901 21.5145 47.4363C21.5145 48.0824 20.9511 48.6078 20.2582 48.6078C19.5653 48.6078 19.002 48.0824 19.002 47.4363C19.002 46.7901 19.5653 46.2648 20.2582 46.2648Z" fill="#E8A87C"/>
<path d="M31.5012 59.6794C33.6363 58.2347 37.2361 56.7638 37.2361 56.7638C37.2361 56.7638 34.6221 59.5061 32.487 60.9508C30.3519 62.3954 29.7829 62.3482 29.5125 61.9962C29.2421 61.6442 29.3661 61.1241 31.5012 59.6794Z" fill="#E8A87C"/>
<path d="M13.1983 71.3703C16.9108 68.8539 23.1809 66.2955 23.1809 66.2955C23.1809 66.2955 18.6347 71.0656 14.9222 73.5767C11.2097 76.0879 10.2182 76.0091 9.74501 75.3997C9.27179 74.7903 9.4915 73.8814 13.204 71.3703H13.1983Z" fill="#E8A87C"/>
<path d="M25.3902 63.3446C25.9536 62.9611 26.7366 63.0819 27.1479 63.602C27.5591 64.1274 27.4295 64.8576 26.8718 65.2411C26.3085 65.6246 25.5254 65.5038 25.1142 64.9837C24.7029 64.4583 24.8325 63.7281 25.3902 63.3446Z" fill="#E8A87C"/>
<path d="M42.9401 68.0283C43.757 65.6905 45.74 62.5227 45.74 62.5227C45.74 62.5227 45.3513 66.1738 44.5401 68.5116C43.7288 70.8493 43.2331 71.1225 42.7937 70.9912C42.3543 70.8599 42.1289 70.366 42.9401 68.0283Z" fill="#E8A87C"/>
<path d="M35.4986 87.5115C36.9182 83.4454 40.3772 77.9346 40.3772 77.9346C40.3772 77.9346 39.7012 84.2859 38.2872 88.3573C36.8675 92.4235 36.0169 92.9015 35.2451 92.6704C34.4789 92.4392 34.0846 91.5829 35.5042 87.5168L35.4986 87.5115Z" fill="#E8A87C"/>
<path d="M40.3046 74.3433C40.5187 73.7286 41.2285 73.3872 41.8876 73.592C42.5467 73.7917 42.9129 74.4536 42.6932 75.0682C42.4791 75.6829 41.7693 76.0244 41.1102 75.8195C40.4511 75.6146 40.0849 74.9579 40.3046 74.3433Z" fill="#E8A87C"/>
<path d="M57.4558 68.5116C56.6389 66.1738 56.2559 62.5227 56.2559 62.5227C56.2559 62.5227 58.2445 65.6905 59.0557 68.0283C59.8669 70.366 59.6472 70.8599 59.2022 70.9912C58.7628 71.1225 58.267 70.8493 57.4558 68.5116Z" fill="#E8A87C"/>
<path d="M63.715 88.3573C62.2954 84.2912 61.625 77.9346 61.625 77.9346C61.625 77.9346 65.084 83.4401 66.5036 87.5115C67.9232 91.5777 67.5289 92.434 66.7627 92.6651C65.9966 92.8963 65.1403 92.4235 63.7207 88.3521L63.715 88.3573Z" fill="#E8A87C"/>
<path d="M59.3034 75.0662C59.0894 74.4516 59.4499 73.7897 60.109 73.59C60.7681 73.3904 61.478 73.7266 61.692 74.3413C61.9061 74.9559 61.5456 75.6179 60.8864 75.8175C60.2273 76.0171 59.5175 75.6809 59.3034 75.0662Z" fill="#E8A87C"/>
<path d="M69.5044 60.9494C67.3693 59.5047 64.7554 56.7625 64.7554 56.7625C64.7554 56.7625 68.3608 58.2334 70.4903 59.6781C72.6254 61.1228 72.7493 61.6429 72.4789 61.9948C72.2085 62.3468 71.6339 62.3941 69.5044 60.9494Z" fill="#E8A87C"/>
<path d="M87.0751 73.5754C83.3626 71.059 78.8164 66.2942 78.8164 66.2942C78.8164 66.2942 85.0865 68.8526 88.799 71.369C92.5114 73.8854 92.7311 74.7889 92.2579 75.3983C91.7847 76.0077 90.7876 76.0918 87.0807 73.5754H87.0751Z" fill="#E8A87C"/>
<path d="M75.1272 65.2412C74.5638 64.8578 74.4399 64.1275 74.8511 63.6022C75.2624 63.0768 76.0454 62.9613 76.6088 63.3448C77.1721 63.7283 77.2961 64.4585 76.8848 64.9838C76.4736 65.5092 75.6905 65.6247 75.1272 65.2412Z" fill="#E8A87C"/>
<g filter="url(#filter0_f_1_2561)">
<path d="M41.4826 59.3752C34.7241 54.7856 33.2372 46.0465 38.1709 39.7593C43.1046 33.4722 52.4989 32.089 59.2573 36.6787C66.0157 41.2683 67.5025 50.0074 62.5689 56.2945C57.6352 62.5816 48.241 63.9648 41.4826 59.3752Z" fill="#E8A87C"/>
</g>
<path d="M52.0252 11.0407C52.0252 11.5707 51.5633 11.9959 50.9999 11.9959C50.4366 11.9959 49.9746 11.5655 49.9746 11.0407C49.9746 10.5158 50.4366 10.0854 50.9999 10.0854C51.5633 10.0854 52.0252 10.5158 52.0252 11.0407Z" fill="#E8A87C"/>
<path d="M50.9999 1.91041C51.5662 1.91041 52.0252 1.48275 52.0252 0.955207C52.0252 0.427661 51.5662 0 50.9999 0C50.4336 0 49.9746 0.427661 49.9746 0.955207C49.9746 1.48275 50.4336 1.91041 50.9999 1.91041Z" fill="#E8A87C"/>
<path d="M53.2313 5.99734C53.2313 7.14783 52.2341 8.07769 51.0004 8.07769C49.7667 8.07769 48.7695 7.14783 48.7695 5.99734C48.7695 4.84684 49.7667 3.91699 51.0004 3.91699C52.2341 3.91699 53.2313 4.84684 53.2313 5.99734Z" fill="#E8A87C"/>
<path d="M28.8832 17.4283C29.2156 17.8534 29.1142 18.4517 28.6578 18.7614C28.2015 19.071 27.5593 18.9765 27.2269 18.5514C26.8946 18.1263 26.996 17.528 27.4523 17.2183C27.9086 16.9087 28.5508 17.0031 28.8832 17.4283Z" fill="#E8A87C"/>
<path d="M22.5277 9.26933C22.8601 9.69445 22.7587 10.2928 22.3024 10.6024C21.8461 10.9121 21.2038 10.8176 20.8715 10.3925C20.5391 9.96736 20.6405 9.36905 21.0968 9.05939C21.5531 8.74974 22.1953 8.84421 22.5277 9.26933Z" fill="#E8A87C"/>
<path d="M26.6845 12.6841C27.4112 13.614 27.1858 14.9168 26.1887 15.5945C25.1916 16.2722 23.7945 16.0621 23.0678 15.1322C22.341 14.2024 22.5664 12.8995 23.5635 12.2218C24.5606 11.5441 25.9577 11.7543 26.6845 12.6841Z" fill="#E8A87C"/>
<path d="M14.1896 35.2809C14.7305 35.4436 15.0234 35.9842 14.8488 36.4828C14.6741 36.9866 14.0939 37.2595 13.5587 37.0968C13.0179 36.9341 12.7249 36.3935 12.8996 35.895C13.0742 35.3911 13.6545 35.1182 14.1896 35.2809Z" fill="#E8A87C"/>
<path d="M3.904 32.1647C4.44482 32.3274 4.73776 32.868 4.56312 33.3666C4.38848 33.8704 3.80823 34.1433 3.27305 33.9806C2.73223 33.8179 2.43929 33.2773 2.61393 32.7787C2.78857 32.2749 3.36882 32.002 3.904 32.1647Z" fill="#E8A87C"/>
<path d="M9.41852 32.6528C10.5903 33.0101 11.2325 34.1816 10.8551 35.2795C10.472 36.3722 9.21572 36.9711 8.03832 36.6191C6.86655 36.2619 6.22433 35.0904 6.60178 33.9924C6.98485 32.8997 8.24112 32.3009 9.41852 32.6528Z" fill="#E8A87C"/>
<path d="M13.5538 57.7821C14.0946 57.6194 14.6692 57.8923 14.8439 58.3962C15.0185 58.9 14.7256 59.4354 14.1848 59.5981C13.6439 59.7608 13.0693 59.4878 12.8947 58.984C12.7201 58.4801 13.013 57.9448 13.5538 57.7821Z" fill="#E8A87C"/>
<path d="M3.27305 60.8983C3.81386 60.7356 4.38848 61.0085 4.56312 61.5124C4.73776 62.0162 4.44482 62.5516 3.904 62.7143C3.36318 62.877 2.78857 62.6041 2.61393 62.1002C2.43929 61.5964 2.73223 61.061 3.27305 60.8983Z" fill="#E8A87C"/>
<path d="M8.03853 58.2681C9.21029 57.9109 10.4722 58.5098 10.8553 59.6077C11.2384 60.7004 10.5961 61.8772 9.41873 62.2344C8.24697 62.5916 6.98506 61.9928 6.60199 60.8948C6.21891 59.8021 6.86113 58.6253 8.03853 58.2681Z" fill="#E8A87C"/>
<path d="M27.2255 76.3317C27.5579 75.9066 28.2001 75.8121 28.6564 76.1218C29.1127 76.4314 29.2141 77.0297 28.8817 77.4549C28.5493 77.88 27.9071 77.9744 27.4508 77.6648C26.9945 77.3551 26.8931 76.7568 27.2255 76.3317Z" fill="#E8A87C"/>
<path d="M20.8651 84.4906C21.1975 84.0655 21.8397 83.971 22.296 84.2807C22.7523 84.5904 22.8537 85.1887 22.5214 85.6138C22.189 86.0389 21.5468 86.1334 21.0905 85.8237C20.6342 85.5141 20.5328 84.9158 20.8651 84.4906Z" fill="#E8A87C"/>
<path d="M23.0687 79.7489C23.7955 78.819 25.1926 78.6141 26.1897 79.2866C27.1868 79.9643 27.4065 81.2671 26.6854 82.197C25.9587 83.1268 24.5616 83.3317 23.5645 82.6593C22.5674 81.9816 22.3476 80.6787 23.0687 79.7489Z" fill="#E8A87C"/>
<path d="M50.9975 84.8001C51.5637 84.8001 52.0228 84.3724 52.0228 83.8449C52.0228 83.3173 51.5637 82.8896 50.9975 82.8896C50.4312 82.8896 49.9722 83.3173 49.9722 83.8449C49.9722 84.3724 50.4312 84.8001 50.9975 84.8001Z" fill="#E8A87C"/>
<path d="M49.9722 93.9303C49.9722 93.4002 50.4341 92.9751 50.9975 92.9751C51.5608 92.9751 52.0228 93.4055 52.0228 93.9303C52.0228 94.4551 51.5608 94.8855 50.9975 94.8855C50.4341 94.8855 49.9722 94.4551 49.9722 93.9303Z" fill="#E8A87C"/>
<path d="M48.7622 88.887C48.7622 87.7365 49.7593 86.8066 50.9931 86.8066C52.2268 86.8066 53.2239 87.7365 53.2239 88.887C53.2239 90.0375 52.2268 90.9673 50.9931 90.9673C49.7593 90.9673 48.7622 90.0375 48.7622 88.887Z" fill="#E8A87C"/>
<path d="M73.1102 77.4549C72.7779 77.0297 72.8793 76.4314 73.3356 76.1218C73.7919 75.8121 74.4341 75.9066 74.7665 76.3317C75.0989 76.7568 74.9975 77.3551 74.5412 77.6648C74.0848 77.9744 73.4426 77.88 73.1102 77.4549Z" fill="#E8A87C"/>
<path d="M79.4706 85.6138C79.1382 85.1887 79.2396 84.5904 79.6959 84.2807C80.1522 83.971 80.7945 84.0655 81.1268 84.4906C81.4592 84.9158 81.3578 85.5141 80.9015 85.8237C80.4452 86.1334 79.803 86.0389 79.4706 85.6138Z" fill="#E8A87C"/>
<path d="M75.3139 82.1946C74.5871 81.2647 74.8125 79.9619 75.8096 79.2842C76.8067 78.6065 78.2038 78.8167 78.9306 79.7465C79.6573 80.6764 79.4319 81.9792 78.4348 82.6569C77.4377 83.3346 76.0406 83.1245 75.3139 82.1946Z" fill="#E8A87C"/>
<path d="M87.8082 59.5981C87.2674 59.4354 86.9744 58.8948 87.1491 58.3962C87.3237 57.8923 87.904 57.6194 88.4392 57.7821C88.98 57.9448 89.2729 58.4854 89.0983 58.984C88.9236 59.4878 88.3434 59.7608 87.8082 59.5981Z" fill="#E8A87C"/>
<path d="M98.089 62.7143C97.5482 62.5516 97.2552 62.011 97.4298 61.5124C97.6045 61.0085 98.1847 60.7356 98.7199 60.8983C99.2607 61.061 99.5537 61.6016 99.379 62.1002C99.2044 62.6041 98.6241 62.877 98.089 62.7143Z" fill="#E8A87C"/>
<path d="M92.5735 62.2319C91.4017 61.8747 90.7595 60.7032 91.1369 59.6052C91.52 58.5125 92.7763 57.9136 93.9537 58.2656C95.1254 58.6229 95.7677 59.7944 95.3902 60.8923C95.0071 61.985 93.7509 62.5839 92.5735 62.2319Z" fill="#E8A87C"/>
<path d="M88.4392 37.1023C87.8983 37.265 87.3237 36.9921 87.1491 36.4883C86.9744 35.9844 87.2674 35.4491 87.8082 35.2864C88.349 35.1237 88.9236 35.3966 89.0983 35.9004C89.2729 36.4043 88.98 36.9396 88.4392 37.1023Z" fill="#E8A87C"/>
<path d="M98.7248 33.9861C98.184 34.1488 97.6094 33.8759 97.4347 33.3721C97.2601 32.8682 97.553 32.3329 98.0938 32.1702C98.6347 32.0075 99.2093 32.2804 99.3839 32.7842C99.5586 33.2881 99.2656 33.8234 98.7248 33.9861Z" fill="#E8A87C"/>
<path d="M93.9539 36.6133C92.7821 36.9706 91.5202 36.3717 91.1371 35.2737C90.7541 34.181 91.3963 33.0042 92.5737 32.647C93.7455 32.2898 95.0074 32.8887 95.3904 33.9866C95.7735 35.0793 95.1313 36.2561 93.9539 36.6133Z" fill="#E8A87C"/>
<path d="M74.7733 18.5515C74.4409 18.9767 73.7987 19.0711 73.3424 18.7615C72.8861 18.4518 72.7847 17.8535 73.1171 17.4284C73.4495 17.0033 74.0917 16.9088 74.548 17.2184C75.0043 17.5281 75.1057 18.1264 74.7733 18.5515Z" fill="#E8A87C"/>
<path d="M81.1288 10.3926C80.7964 10.8177 80.1542 10.9122 79.6979 10.6025C79.2416 10.2929 79.1402 9.69457 79.4725 9.26945C79.8049 8.84433 80.4471 8.74986 80.9035 9.05951C81.3598 9.36917 81.4612 9.96748 81.1288 10.3926Z" fill="#E8A87C"/>
<path d="M78.9301 15.1392C78.2033 16.0691 76.8062 16.274 75.8091 15.6015C74.812 14.9238 74.5923 13.621 75.3134 12.6911C76.0401 11.7613 77.4372 11.5564 78.4343 12.2288C79.4314 12.9065 79.6512 14.2094 78.9301 15.1392Z" fill="#E8A87C"/>
<path d="M55.7538 13.951C56.4524 10.4207 58.3847 5.42993 58.3847 5.42993C58.3847 5.42993 58.272 10.7359 57.5735 14.2662C56.8749 17.7964 56.351 18.306 55.8496 18.2167C55.3482 18.1327 55.0553 17.4812 55.7538 13.951Z" fill="#E8A87C"/>
<path d="M44.893 14.0775C44.3859 10.5156 44.5719 5.21497 44.5719 5.21497C44.5719 5.21497 46.2225 10.295 46.7295 13.8516C47.2365 17.4081 46.9041 18.0438 46.3971 18.1068C45.8901 18.1699 45.4 17.6393 44.893 14.0775Z" fill="#E8A87C"/>
<path d="M34.138 17.4691C32.4761 14.2278 30.8931 9.13196 30.8931 9.13196C30.8931 9.13196 34.1436 13.487 35.8055 16.7284C37.4674 19.9697 37.3659 20.6684 36.904 20.8733C36.4421 21.0782 35.7998 20.7157 34.138 17.4744V17.4691Z" fill="#E8A87C"/>
<path d="M25.0287 23.7982C22.3753 21.1925 19.1812 16.8059 19.1812 16.8059C19.1812 16.8059 23.7161 20.0105 26.3695 22.6109C29.0229 25.2166 29.1581 25.9048 28.7863 26.2358C28.4144 26.5615 27.6821 26.4039 25.0287 23.7982Z" fill="#E8A87C"/>
<path d="M18.4662 32.4369C15.0805 30.7243 10.585 27.4724 10.585 27.4724C10.585 27.4724 15.9593 29.2113 19.345 30.9239C22.7308 32.6365 23.0857 33.2564 22.8434 33.6767C22.6012 34.097 21.8463 34.1547 18.4606 32.4421L18.4662 32.4369Z" fill="#E8A87C"/>
<path d="M15.0863 42.5462C11.3005 41.8948 5.94873 40.0929 5.94873 40.0929C5.94873 40.0929 11.6386 40.198 15.4243 40.8494C19.21 41.5008 19.7564 41.9894 19.6663 42.4569C19.5761 42.9245 18.8776 43.1977 15.0919 42.5462H15.0863Z" fill="#E8A87C"/>
<path d="M15.2215 53.1329C11.402 53.6057 5.71777 53.4324 5.71777 53.4324C5.71777 53.4324 11.1654 51.8931 14.9792 51.4203C18.7931 50.9475 19.4748 51.2574 19.5424 51.7303C19.61 52.2031 19.041 52.6601 15.2215 53.1329Z" fill="#E8A87C"/>
<path d="M18.8612 63.1672C15.3854 64.717 9.9209 66.1932 9.9209 66.1932C9.9209 66.1932 14.5911 63.162 18.0669 61.6122C21.5428 60.0625 22.292 60.157 22.5118 60.5878C22.7315 61.0186 22.3427 61.6175 18.8669 63.1672H18.8612Z" fill="#E8A87C"/>
<path d="M25.6437 71.6569C22.8495 74.1312 18.1455 77.1099 18.1455 77.1099C18.1455 77.1099 21.5819 72.8809 24.3705 70.4066C27.1647 67.9322 27.9027 67.8061 28.2576 68.1529C28.6069 68.4996 28.4379 69.1825 25.6437 71.6569Z" fill="#E8A87C"/>
<path d="M34.9106 77.773C33.074 80.9303 29.5869 85.1225 29.5869 85.1225C29.5869 85.1225 31.4516 80.1108 33.2881 76.9535C35.1246 73.7962 35.7894 73.4652 36.2401 73.6911C36.6907 73.917 36.7527 74.621 34.9162 77.7782L34.9106 77.773Z" fill="#E8A87C"/>
<path d="M45.75 80.9249C45.0514 84.4551 43.1191 89.4459 43.1191 89.4459C43.1191 89.4459 43.2318 84.1399 43.9304 80.6097C44.6289 77.0794 45.1528 76.5698 45.6542 76.6538C46.1556 76.7379 46.4485 77.3893 45.75 80.9196V80.9249Z" fill="#E8A87C"/>
<path d="M57.0997 80.8032C57.6067 84.365 57.4208 89.6657 57.4208 89.6657C57.4208 89.6657 55.7701 84.5857 55.2631 81.0291C54.7561 77.4726 55.0885 76.8369 55.5955 76.7739C56.1025 76.7108 56.5926 77.2414 57.0997 80.8032Z" fill="#E8A87C"/>
<path d="M67.8619 77.4055C69.5238 80.6469 71.1068 85.7427 71.1068 85.7427C71.1068 85.7427 67.8563 81.3876 66.1944 78.1462C64.5325 74.9049 64.6339 74.2062 65.0959 74.0013C65.5578 73.7964 66.2 74.1589 67.8619 77.4003V77.4055Z" fill="#E8A87C"/>
<path d="M76.9637 71.0825C79.617 73.6882 82.8112 78.0748 82.8112 78.0748C82.8112 78.0748 78.2763 74.8702 75.6229 72.2698C72.9695 69.6694 72.8343 68.9759 73.2061 68.645C73.5779 68.314 74.3103 68.4769 76.9637 71.0825Z" fill="#E8A87C"/>
<path d="M83.5271 62.4468C86.9129 64.1594 91.4084 67.4112 91.4084 67.4112C91.4084 67.4112 86.034 65.6724 82.6483 63.9598C79.2626 62.2471 78.9077 61.6272 79.1499 61.207C79.3921 60.7867 80.147 60.7289 83.5328 62.4415L83.5271 62.4468Z" fill="#E8A87C"/>
<path d="M86.9077 52.3348C90.6934 52.9863 96.0452 54.7882 96.0452 54.7882C96.0452 54.7882 90.3554 54.6831 86.5697 54.0317C82.784 53.3803 82.2375 52.8917 82.3277 52.4241C82.4178 51.9566 83.1163 51.6834 86.902 52.3348H86.9077Z" fill="#E8A87C"/>
<path d="M86.7722 41.7458C90.5917 41.273 96.2759 41.4463 96.2759 41.4463C96.2759 41.4463 90.8283 42.9856 87.0145 43.4584C83.195 43.9312 82.5189 43.6212 82.4513 43.1484C82.3837 42.6756 82.9527 42.2186 86.7722 41.7458Z" fill="#E8A87C"/>
<path d="M83.1338 31.7202C86.6097 30.1704 92.0742 28.6942 92.0742 28.6942C92.0742 28.6942 87.404 31.7254 83.9281 33.2752C80.4523 34.8249 79.703 34.7251 79.4833 34.2996C79.2636 33.8688 79.6523 33.2699 83.1282 31.7202H83.1338Z" fill="#E8A87C"/>
<path d="M76.3515 23.2244C79.1458 20.75 83.8497 17.7714 83.8497 17.7714C83.8497 17.7714 80.4133 22.0004 77.6247 24.4747C74.8305 26.9491 74.0925 27.0751 73.7376 26.7284C73.3883 26.3817 73.5573 25.6987 76.3515 23.2244Z" fill="#E8A87C"/>
<path d="M67.0883 17.1038C68.9248 13.9465 72.412 9.75427 72.412 9.75427C72.412 9.75427 70.5473 14.766 68.7108 17.9233C66.8743 21.0806 66.2095 21.4116 65.7588 21.1857C65.3081 20.9598 65.2462 20.2558 67.0827 17.0985L67.0883 17.1038Z" fill="#E8A87C"/>
<defs>
<filter id="filter0_f_1_2561" x="31.2588" y="29.9696" width="38.2222" height="36.1146" filterUnits="userSpaceOnUse" color-interpolation-filters="sRGB">
<feFlood flood-opacity="0" result="BackgroundImageFix"/>
<feBlend mode="normal" in="SourceGraphic" in2="BackgroundImageFix" result="shape"/>
<feGaussianBlur stdDeviation="2" result="effect1_foregroundBlur_1_2561"/>
</filter>
</defs>
</svg>
