<svg width="93" height="93" viewBox="0 0 93 93" fill="none" xmlns="http://www.w3.org/2000/svg">
<rect width="93" height="93" rx="11" fill="#E8A87C"/>
<g clip-path="url(#clip0_46_203)">
<path d="M49.9678 32.0113C50.1409 32.0113 50.314 31.9585 50.4597 31.8572C50.6919 31.6968 50.8291 31.4328 50.8291 31.15V20.8615C50.8291 20.3843 50.4428 20 49.9676 20H43.032C42.5548 20 42.1705 20.3863 42.1705 20.8615V31.1478C42.1705 31.4307 42.3077 31.6947 42.5399 31.8551C42.7722 32.0155 43.0677 32.0536 43.3317 31.9565L46.4988 30.7826L49.6659 31.9585C49.7651 31.9944 49.8666 32.0113 49.9678 32.0113ZM46.499 29.0006C46.3976 29.0006 46.2963 29.0175 46.1992 29.0534L43.8937 29.9086V21.725H49.1065V29.9105L46.8009 29.0554C46.7017 29.0175 46.6002 29.0006 46.499 29.0006Z" fill="white"/>
<path d="M26.5319 75H66.4657C66.9429 75 67.3271 74.6137 67.3271 74.1385V43.9805C67.3271 43.9066 67.3186 43.8348 67.2998 43.7629L62.7771 26.3741C62.6779 25.9939 62.3359 25.7301 61.9432 25.7301H49.9679C49.4907 25.7301 49.1064 26.1164 49.1064 26.5916C49.1064 27.0666 49.4927 27.4531 49.9679 27.4531H61.2781L65.6042 44.0904V73.275H27.3955V44.0903L31.7217 27.4529H43.0321C43.5092 27.4529 43.8935 27.0666 43.8935 26.5914C43.8935 26.1164 43.5072 25.7299 43.0321 25.7299H31.0567C30.6641 25.7299 30.322 25.9959 30.2228 26.3739L25.7003 43.7628C25.6813 43.8324 25.6729 43.9063 25.6729 43.9803V74.1387C25.6706 74.6137 26.0569 75 26.5319 75Z" fill="white"/>
<path d="M31.0612 27.4529H43.0303C43.5075 27.4529 43.8918 27.0666 43.8918 26.5914C43.8918 26.1164 43.5055 25.7299 43.0303 25.7299H31.9226V21.725H61.0759V25.7301H49.9681C49.491 25.7301 49.1067 26.1164 49.1067 26.5916C49.1067 27.0666 49.493 27.4531 49.9681 27.4531H61.9373C62.4145 27.4531 62.7988 27.0668 62.7988 26.5916V20.8615C62.7988 20.3843 62.4125 20 61.9373 20H31.0613C30.5841 20 30.1999 20.3863 30.1999 20.8615V26.5894C30.1999 27.0666 30.5861 27.4529 31.0612 27.4529Z" fill="white"/>
<path d="M35.6976 67.3887H57.3006C57.7778 67.3887 58.1621 67.0024 58.1621 66.5272V52.2927C58.1621 51.8155 57.7758 51.4312 57.3006 51.4312H35.6954C35.2182 51.4312 34.8339 51.8175 34.8339 52.2927V66.5272C34.8341 67.0044 35.2204 67.3887 35.6976 67.3887ZM56.4393 65.6659H36.5591V53.1542H56.4393V65.6659Z" fill="white"/>
<path d="M43.0299 44.8418H66.4657C66.9429 44.8418 67.3271 44.4555 67.3271 43.9803C67.3271 43.5031 66.9409 43.1188 66.4657 43.1188H43.0321C42.5549 43.1188 42.1706 43.5051 42.1706 43.9803C42.1684 44.4555 42.5549 44.8418 43.0299 44.8418Z" fill="white"/>
<path d="M31.9476 44.8418H37.245C37.7222 44.8418 38.1064 44.4555 38.1064 43.9803C38.1064 43.5031 37.7202 43.1188 37.245 43.1188H31.9476C31.4704 43.1188 31.0861 43.5051 31.0861 43.9803C31.0861 44.4555 31.4704 44.8418 31.9476 44.8418Z" fill="white"/>
</g>
<defs>
<clipPath id="clip0_46_203">
<rect width="55" height="55" fill="white" transform="matrix(-1 0 0 1 74 20)"/>
</clipPath>
</defs>
</svg>
