<svg width="28" height="29" viewBox="0 0 28 29" fill="none" xmlns="http://www.w3.org/2000/svg">
<path d="M19.6643 19.5777V20.628C19.6643 21.3083 19.205 21.8858 18.5734 22.0805V22.7585C18.5734 23.4487 18.1006 24.0328 17.4547 24.2191V24.8891C17.4547 25.7288 16.7551 26.4121 15.8952 26.4121H14.4796C13.6197 26.4121 12.9201 25.7289 12.9201 24.8891V24.2191C12.2742 24.0329 11.8013 23.4488 11.8013 22.7585V22.0806C11.1697 21.8858 10.7105 21.3083 10.7105 20.6281V19.5785C10.543 16.8238 9.81248 15.6044 9.16777 14.5284C8.57035 13.5312 8.00598 12.5894 8.00598 10.7731C8.00598 6.90608 11.2275 3.76005 15.1874 3.76005C19.1472 3.76005 22.3688 6.90608 22.3688 10.7731C22.3688 12.5894 21.8044 13.5313 21.207 14.5284C20.5624 15.6042 19.8319 16.8236 19.6643 19.5777ZM14.4796 25.4966H15.8952C16.2382 25.4966 16.5172 25.224 16.5172 24.8891V24.2815H13.8575V24.8891C13.8576 25.224 14.1366 25.4966 14.4796 25.4966ZM13.3608 23.366H17.0138C17.3568 23.366 17.6359 23.0935 17.6359 22.7585V22.151H12.7388V22.7585C12.7388 23.0935 13.0179 23.366 13.3608 23.366ZM12.27 21.2354H18.1047C18.4477 21.2354 18.7268 20.963 18.7268 20.628V20.0204H11.648V20.628C11.648 20.963 11.9271 21.2354 12.27 21.2354ZM16.8153 11.8869H17.9064C18.5081 11.8869 18.9976 11.4089 18.9976 10.8213C18.9976 10.2338 18.5081 9.75576 17.9064 9.75576C17.3048 9.75576 16.8153 10.2338 16.8153 10.8213V11.8869ZM14.4969 19.1049H15.8778V12.8024H14.4969V19.1049ZM15.1874 4.67558C11.7444 4.67558 8.94348 7.41093 8.94348 10.7731C8.94348 12.3412 9.39951 13.1024 9.97695 14.066C10.6412 15.1746 11.3895 16.4235 11.6162 19.105H13.5595V12.8024H12.4684C11.3497 12.8024 10.4397 11.9137 10.4397 10.8213C10.4397 9.72892 11.3497 8.84024 12.4684 8.84024C13.587 8.84024 14.497 9.72892 14.497 10.8213V11.8869H15.8779V10.8213C15.8779 9.72892 16.7879 8.84024 17.9065 8.84024C19.0251 8.84024 19.9351 9.72892 19.9351 10.8213C19.9351 11.9136 19.0251 12.8024 17.9065 12.8024H16.8154V19.1049H18.7587C18.9853 16.4235 19.7337 15.1745 20.3979 14.066C20.9753 13.1023 21.4314 12.3411 21.4314 10.7731C21.4313 7.41088 18.6303 4.67558 15.1874 4.67558ZM13.5594 11.8869V10.8213C13.5594 10.2338 13.0699 9.75576 12.4683 9.75576C11.8667 9.75576 11.3772 10.2338 11.3772 10.8213C11.3772 11.4089 11.8667 11.8869 12.4683 11.8869H13.5594ZM15.6561 2.00191V0.457819C15.6561 0.20502 15.4462 5.72161e-05 15.1873 5.72161e-05C14.9285 5.72161e-05 14.7186 0.20502 14.7186 0.457819V2.00191C14.7186 2.2547 14.9285 2.45967 15.1873 2.45967C15.4462 2.45967 15.6561 2.2547 15.6561 2.00191ZM21.4467 2.21831C21.5762 1.99939 21.4994 1.71941 21.2752 1.59301C21.0509 1.46655 20.7642 1.54163 20.6349 1.76055L19.8443 3.09779C19.7148 3.31671 19.7916 3.59669 20.0158 3.72309C20.0896 3.76469 20.1703 3.78449 20.2497 3.78449C20.4118 3.78449 20.5693 3.70238 20.6561 3.55555L21.4467 2.21831ZM25.7318 5.94512C25.6023 5.72614 25.3156 5.65112 25.0914 5.77758L23.7221 6.54965C23.4979 6.67605 23.4211 6.95603 23.5505 7.17496C23.6373 7.32178 23.7949 7.40389 23.957 7.40389C24.0365 7.40389 24.117 7.3841 24.1909 7.3425L25.5602 6.57042C25.7844 6.44403 25.8613 6.16405 25.7318 5.94512ZM10.5305 3.09779L9.73988 1.76055C9.61045 1.54157 9.32375 1.4665 9.09957 1.59301C8.87539 1.71941 8.79852 1.99939 8.92801 2.21831L9.71861 3.55555C9.80539 3.70238 9.96301 3.78449 10.125 3.78449C10.2045 3.78449 10.2851 3.76469 10.3589 3.72309C10.5831 3.59669 10.66 3.31677 10.5305 3.09779ZM6.8242 7.17496C6.95369 6.95603 6.87682 6.67605 6.65264 6.54965L5.2833 5.77758C5.05895 5.65118 4.77236 5.72625 4.64299 5.94512C4.5135 6.16405 4.59037 6.44403 4.81455 6.57042L6.18389 7.3425C6.25772 7.3841 6.33834 7.40389 6.4178 7.40389C6.57986 7.40395 6.73737 7.32184 6.8242 7.17496ZM2.72399 8.51912H3.31021C4.3768 8.51912 5.24451 9.36649 5.24451 10.4081V24.9489C5.24451 25.0292 5.22283 25.1082 5.1817 25.1777L3.82906 27.4657H22.5535C22.8123 27.4657 23.0222 27.6707 23.0222 27.9235C23.0222 28.1763 22.8123 28.3812 22.5535 28.3812C22.5535 28.3812 3.02006 28.3813 3.01666 28.3813C2.93721 28.3813 2.85658 28.3615 2.78276 28.3199C2.706 28.2767 2.64658 28.2155 2.60674 28.1448L0.85256 25.1777C0.811426 25.1082 0.789747 25.0292 0.789747 24.9489V10.4081C0.78969 9.36649 1.6574 8.51912 2.72399 8.51912ZM3.31021 9.43464H2.72399C2.17438 9.43464 1.72719 9.87129 1.72719 10.4081V11.621H4.30696V10.4081C4.30701 9.87129 3.85983 9.43464 3.31021 9.43464ZM4.30701 24.491V12.5365H1.72725V24.4911H4.30701V24.491ZM3.01713 27.0079L3.96383 25.4066H2.07031L3.01713 27.0079ZM25.1559 15.3972C25.1559 15.65 25.3658 15.8549 25.6246 15.8549H26.7412C27.0001 15.8549 27.21 15.65 27.21 15.3972C27.21 15.1444 27.0001 14.9394 26.7412 14.9394H25.6246C25.3658 14.9394 25.1559 15.1443 25.1559 15.3972ZM23.4716 14.9394H22.355C22.0961 14.9394 21.8863 15.1444 21.8863 15.3972C21.8863 15.65 22.0961 15.8549 22.355 15.8549H23.4716C23.7305 15.8549 23.9404 15.65 23.9404 15.3972C23.9404 15.1444 23.7305 14.9394 23.4716 14.9394ZM24.5481 17.9966C24.807 17.9966 25.0169 17.7916 25.0169 17.5388V16.4483C25.0169 16.1955 24.807 15.9906 24.5481 15.9906C24.2892 15.9906 24.0794 16.1955 24.0794 16.4483V17.5388C24.0794 17.7917 24.2892 17.9966 24.5481 17.9966ZM24.0794 13.2555V14.3459C24.0794 14.5987 24.2892 14.8037 24.5481 14.8037C24.807 14.8037 25.0169 14.5987 25.0169 14.3459V13.2555C25.0169 13.0027 24.807 12.7977 24.5481 12.7977C24.2892 12.7977 24.0794 13.0027 24.0794 13.2555ZM3.9203 1.54821V0.457762C3.9203 0.204963 3.71041 0 3.45155 0C3.19268 0 2.9828 0.204963 2.9828 0.457762V1.54821C2.9828 1.80101 3.19268 2.00597 3.45155 2.00597C3.71041 2.00597 3.9203 1.80101 3.9203 1.54821ZM2.84381 2.59946C2.84381 2.34666 2.63393 2.1417 2.37506 2.1417H1.25844C0.999571 2.1417 0.789688 2.34666 0.789688 2.59946C0.789688 2.85226 0.999571 3.05722 1.25844 3.05722H2.37506C2.63393 3.05722 2.84381 2.85231 2.84381 2.59946ZM3.9203 4.74115V3.65076C3.9203 3.39796 3.71041 3.193 3.45155 3.193C3.19268 3.193 2.9828 3.39796 2.9828 3.65076V4.74121C2.9828 4.99401 3.19268 5.19897 3.45155 5.19897C3.71041 5.19897 3.9203 4.99401 3.9203 4.74115ZM6.1134 2.59946C6.1134 2.34666 5.90352 2.1417 5.64465 2.1417H4.52809C4.26922 2.1417 4.05934 2.34666 4.05934 2.59946C4.05934 2.85226 4.26922 3.05722 4.52809 3.05722H5.64465C5.90352 3.05722 6.1134 2.85231 6.1134 2.59946ZM9.13496 23.4665C9.13496 23.7193 9.34484 23.9242 9.60371 23.9242H10.7203C10.9792 23.9242 11.1891 23.7193 11.1891 23.4665C11.1891 23.2137 10.9792 23.0087 10.7203 23.0087H9.60371C9.34484 23.0087 9.13496 23.2137 9.13496 23.4665ZM8.05848 22.4152C8.05848 22.668 8.26836 22.873 8.52723 22.873C8.78609 22.873 8.99598 22.668 8.99598 22.4152V21.3248C8.99598 21.072 8.78609 20.867 8.52723 20.867C8.26836 20.867 8.05848 21.072 8.05848 21.3248V22.4152ZM8.05848 24.5178V25.6082C8.05848 25.861 8.26836 26.0659 8.52723 26.0659C8.78609 26.0659 8.99598 25.861 8.99598 25.6082V24.5178C8.99598 24.265 8.78609 24.06 8.52723 24.06C8.26836 24.06 8.05848 24.2649 8.05848 24.5178ZM7.91943 23.4665C7.91943 23.2137 7.70955 23.0087 7.45068 23.0087H6.33406C6.0752 23.0087 5.86531 23.2137 5.86531 23.4665C5.86531 23.7193 6.0752 23.9242 6.33406 23.9242H7.45068C7.70955 23.9242 7.91943 23.7193 7.91943 23.4665ZM22.9241 23.9242H24.0407C24.2996 23.9242 24.5094 23.7193 24.5094 23.4665C24.5094 23.2137 24.2996 23.0087 24.0407 23.0087H22.9241C22.6652 23.0087 22.4553 23.2137 22.4553 23.4665C22.4553 23.7193 22.6652 23.9242 22.9241 23.9242ZM21.3788 22.4152C21.3788 22.668 21.5887 22.873 21.8475 22.873C22.1064 22.873 22.3163 22.668 22.3163 22.4152V21.3248C22.3163 21.072 22.1064 20.867 21.8475 20.867C21.5887 20.867 21.3788 21.072 21.3788 21.3248V22.4152ZM21.3788 24.5178V25.6082C21.3788 25.861 21.5887 26.0659 21.8475 26.0659C22.1064 26.0659 22.3163 25.861 22.3163 25.6082V24.5178C22.3163 24.265 22.1064 24.06 21.8475 24.06C21.5887 24.06 21.3788 24.2649 21.3788 24.5178ZM19.1857 23.4665C19.1857 23.7193 19.3955 23.9242 19.6544 23.9242H20.771C21.0299 23.9242 21.2398 23.7193 21.2398 23.4665C21.2398 23.2137 21.0299 23.0087 20.771 23.0087H19.6544C19.3955 23.0087 19.1857 23.2137 19.1857 23.4665Z" fill="#6495ED"/>
</svg>
