<svg width="46" height="46" viewBox="0 0 46 46" fill="none" xmlns="http://www.w3.org/2000/svg">
<path d="M33.7334 9.96644C34.1568 9.96644 34.5001 9.62321 34.5001 9.1998C34.5001 8.7764 34.1568 8.43317 33.7334 8.43317C33.31 8.43317 32.9668 8.7764 32.9668 9.1998C32.9668 9.62321 33.31 9.96644 33.7334 9.96644Z" fill="white"/>
<path d="M45.1179 13.1569C45.094 13.1131 45.0659 13.0717 45.0337 13.0332C44.0628 11.6441 42.453 10.7332 40.6333 10.7332H39.0581C38.9659 9.87185 38.7202 9.02615 38.3333 8.25223L37.4861 6.55715C37.3558 6.29723 37.0906 6.13318 36.8 6.13318H30.6666C30.3761 6.13318 30.1108 6.29723 29.9805 6.55715L29.1334 8.25223C28.7464 9.02615 28.5008 9.87185 28.4085 10.7332H13.8V9.96654C13.8 8.69849 12.7681 7.66654 11.5 7.66654H9.96664C8.69858 7.66654 7.66664 8.69849 7.66664 9.96654V10.7332H5.36664C3.54685 10.7332 1.93685 11.6444 0.96591 13.0336C0.933836 13.0721 0.905895 13.1134 0.881996 13.157C0.325234 14.0026 0 15.0137 0 16.0998V34.4998C0 37.4592 2.40736 39.8665 5.36664 39.8665H11.4949C11.4966 39.8665 11.4983 39.8668 11.5 39.8668C11.5028 39.8668 11.5056 39.8665 11.5084 39.8665H34.4916C34.4944 39.8665 34.4972 39.8668 34.5 39.8668C34.5017 39.8668 34.5034 39.8665 34.5051 39.8665H40.6334C43.5927 39.8665 46 37.4591 46 34.4998V16.0998C46 15.0137 45.6748 14.0026 45.1179 13.1569ZM30.5049 8.93756L31.1405 7.66645H36.3262L36.9617 8.93756C37.2427 9.49953 37.4276 10.1098 37.5125 10.7331H29.9542C30.039 10.1098 30.2239 9.49962 30.5049 8.93756ZM9.2 9.96645C9.2 9.54401 9.54419 9.19982 9.96664 9.19982H11.5C11.9224 9.19982 12.2666 9.54401 12.2666 9.96645V10.7331H9.2V9.96645ZM5.36664 12.2665H8.43327H13.0333H40.6333C41.8144 12.2665 42.872 12.8036 43.5757 13.6462L41.9515 17.8233C41.2722 19.5705 39.6216 20.6998 37.7464 20.6998H30.4681C28.7962 18.3799 26.0718 16.8665 23.0001 16.8665C19.9284 16.8665 17.2039 18.3798 15.5321 20.6998H8.25403C6.37873 20.6998 4.7274 19.5705 4.0489 17.8233L2.42407 13.6465C3.12773 12.8037 4.18546 12.2665 5.36664 12.2665ZM34.2685 37.5806L33.9757 38.3331H12.0243L11.7315 37.5806C11.1834 36.1707 11.3589 34.6458 12.213 33.3977C12.9927 32.2577 14.1919 31.5642 15.5455 31.4517C17.2185 33.7611 19.9365 35.2665 23 35.2665C26.0635 35.2665 28.7815 33.7611 30.4545 31.4517C31.8081 31.5643 33.0073 32.2577 33.787 33.3977C34.6411 34.6458 34.8166 36.1707 34.2685 37.5806ZM23 33.7332C18.7726 33.7332 15.3334 30.2939 15.3334 26.0665C15.3334 21.8392 18.7727 18.3999 23 18.3999C27.2273 18.3999 30.6666 21.8392 30.6666 26.0665C30.6666 30.2939 27.2274 33.7332 23 33.7332ZM1.53336 34.4998V16.0998C1.53336 15.9494 1.54298 15.8014 1.55996 15.6554L2.61904 18.3792C3.52987 20.7206 5.74093 22.2332 8.25403 22.2332H14.6376C14.1003 23.4008 13.8 24.6991 13.8 26.0665C13.8 27.4844 14.1226 28.8282 14.6979 30.0288C13.1871 30.3448 11.8374 31.2311 10.9472 32.5315C9.82019 34.1799 9.57869 36.2751 10.3024 38.1366L10.3789 38.3333H5.36664C3.25297 38.3332 1.53336 36.6135 1.53336 34.4998ZM44.4666 34.4998C44.4666 36.6135 42.747 38.3332 40.6333 38.3332H35.621L35.6975 38.1365C36.4212 36.275 36.1797 34.1797 35.0527 32.5314C34.1626 31.231 32.8129 30.3448 31.302 30.0287C31.8773 28.8282 32.1999 27.4844 32.1999 26.0665C32.1999 24.6991 31.8997 23.4007 31.3623 22.2331H37.7463C40.2587 22.2331 42.4705 20.7205 43.3805 18.3791L44.4399 15.6546C44.4568 15.8008 44.4665 15.9491 44.4665 16.0998V34.4998H44.4666Z" fill="white"/>
<path d="M22.9999 21.4664C20.463 21.4664 18.3999 23.5295 18.3999 26.0664C18.3999 28.6033 20.463 30.6664 22.9999 30.6664C25.5368 30.6664 27.5999 28.6033 27.5999 26.0664C27.5999 23.5295 25.5368 21.4664 22.9999 21.4664ZM22.9999 29.1332C21.3086 29.1332 19.9333 27.7577 19.9333 26.0665C19.9333 24.3753 21.3087 22.9999 22.9999 22.9999C24.6912 22.9999 26.0665 24.3753 26.0665 26.0665C26.0665 27.7577 24.6912 29.1332 22.9999 29.1332Z" fill="white"/>
<path d="M19.1665 15.3332H26.8332C27.2563 15.3332 27.5998 14.9897 27.5998 14.5666C27.5998 14.1434 27.2563 13.7999 26.8332 13.7999H19.1665C18.7434 13.7999 18.3999 14.1434 18.3999 14.5666C18.3999 14.9897 18.7434 15.3332 19.1665 15.3332Z" fill="white"/>
</svg>
