<svg width="32" height="32" viewBox="0 0 32 32" fill="none" xmlns="http://www.w3.org/2000/svg">
<g clip-path="url(#clip0_1_2858)">
<path d="M6.75 32H25.25C27.0396 31.998 28.7553 31.2862 30.0207 30.0207C31.2862 28.7553 31.998 27.0396 32 25.25V6.75C31.998 4.96041 31.2862 3.24469 30.0207 1.97926C28.7553 0.713825 27.0396 0.00201816 25.25 0L6.75 0C4.96041 0.00201816 3.24469 0.713825 1.97926 1.97926C0.713825 3.24469 0.00201816 4.96041 0 6.75L0 25.25C0.00201816 27.0396 0.713825 28.7553 1.97926 30.0207C3.24469 31.2862 4.96041 31.998 6.75 32ZM31 6.75V9.89444H24.9536L20.1303 1H25.25C26.7745 1.00165 28.2361 1.60799 29.314 2.68596C30.392 3.76394 30.9983 5.22551 31 6.75ZM13.0072 9.89444L8.18394 1H18.9928L23.8161 9.89444H13.0072ZM6.75 1H7.04644L11.8698 9.89444H1V6.75C1.00165 5.22551 1.60799 3.76394 2.68596 2.68596C3.76394 1.60799 5.22551 1.00165 6.75 1ZM1 10.8944H31V25.25C30.9983 26.7745 30.392 28.2361 29.314 29.314C28.2361 30.392 26.7745 30.9983 25.25 31H6.75C5.22551 30.9983 3.76394 30.392 2.68596 29.314C1.60799 28.2361 1.00165 26.7745 1 25.25V10.8944ZM12.9049 27.5216C12.9852 27.5642 13.0755 27.584 13.1663 27.579C13.257 27.5741 13.3446 27.5445 13.4198 27.4934L22.4511 21.3608C22.5186 21.315 22.5738 21.2533 22.612 21.1812C22.6502 21.1091 22.6701 21.0288 22.6701 20.9472C22.6701 20.8656 22.6502 20.7853 22.612 20.7132C22.5738 20.6411 22.5186 20.5794 22.4511 20.5336L13.4198 14.401C13.3446 14.35 13.257 14.3204 13.1663 14.3154C13.0755 14.3104 12.9852 14.3303 12.9049 14.3728C12.8246 14.4153 12.7574 14.4789 12.7106 14.5568C12.6637 14.6346 12.6389 14.7238 12.6389 14.8146V27.0798C12.6389 27.1706 12.6637 27.2598 12.7105 27.3376C12.7574 27.4155 12.8246 27.4791 12.9049 27.5216ZM13.6389 15.7585L21.2802 20.9472L13.6389 26.1359V15.7585Z" fill="#6495ED"/>
</g>
<defs>
<clipPath id="clip0_1_2858">
<rect width="32" height="32" fill="white"/>
</clipPath>
</defs>
</svg>
