<svg width="38" height="38" viewBox="0 0 38 38" fill="none" xmlns="http://www.w3.org/2000/svg">
<path d="M24.7898 4.82087C25.1234 4.82087 25.4286 4.59829 25.5191 4.26074L26.0132 2.41737C26.1212 2.01443 25.8821 1.60007 25.479 1.49208C25.0759 1.3841 24.6617 1.6233 24.5537 2.02616L24.0597 3.86953C23.9516 4.27247 24.1907 4.68683 24.5938 4.79482C24.6593 4.81248 24.7251 4.82087 24.7898 4.82087Z" fill="#0066CC"/>
<path d="M21.1047 2.66304V0.755473C21.1047 0.338215 20.7664 0 20.3492 0C19.932 0 19.5938 0.338215 19.5938 0.755473V2.66304C19.5938 3.0803 19.932 3.41852 20.3492 3.41852C20.7664 3.41852 21.1047 3.0803 21.1047 2.66304Z" fill="#0066CC"/>
<path d="M15.9089 4.82089C15.9736 4.82089 16.0395 4.8125 16.105 4.79498C16.508 4.68692 16.7471 4.27263 16.6391 3.8697L16.145 2.02633C16.037 1.62339 15.623 1.38419 15.2198 1.49217C14.8167 1.60024 14.5776 2.01453 14.6856 2.41746L15.1797 4.26083C15.2701 4.5983 15.5754 4.82089 15.9089 4.82089Z" fill="#0066CC"/>
<path d="M9.04805 14.7237C7.94434 18.3459 5.99536 25.4304 5.97576 25.5015C5.91327 25.7288 5.96048 25.9722 6.10335 26.1597C6.24629 26.3471 6.46843 26.4572 6.70415 26.4572H10.6061V32.1784C10.6061 32.5956 10.9444 32.9338 11.3616 32.9338H15.9986V37.2445C15.9986 37.6618 16.3369 38 16.7541 38H25.9874C26.4046 38 26.7429 37.6618 26.7429 37.2445V37.2189C26.7429 32.5564 28.0338 27.8746 30.4758 23.6794C31.4359 22.0304 31.9806 20.1474 32.051 18.2342C32.0663 17.8172 31.7408 17.4668 31.3238 17.4515C30.9086 17.4354 30.5564 17.7617 30.5411 18.1786C30.4798 19.8447 30.0058 21.4839 29.1702 22.9192C26.7211 27.1264 25.3695 31.803 25.2421 36.4891H17.5097V32.1784C17.5097 31.7611 17.1714 31.4229 16.7543 31.4229H12.1172V25.7017C12.1172 25.2845 11.7789 24.9463 11.3617 24.9463H7.69675C8.26838 22.8828 9.63772 17.972 10.4933 15.1641C11.8286 10.7822 15.658 7.74414 20.0226 7.60409C23.9469 7.47851 27.6438 9.67108 29.4422 13.1913C29.632 13.5629 30.0871 13.7101 30.4587 13.5204C30.8302 13.3305 30.9775 12.8754 30.7877 12.5039C28.7243 8.4651 24.4811 5.94745 19.9741 6.09396C17.4483 6.17493 15.0667 7.06786 13.0869 8.67595C11.1778 10.2267 9.78111 12.3179 9.04805 14.7237Z" fill="#0066CC"/>
<path d="M23.1112 14.6598L19.6254 18.1462L18.1772 16.6986C17.8823 16.4036 17.4039 16.4037 17.1088 16.6988C16.8139 16.9939 16.814 17.4722 17.1091 17.7671L19.0915 19.7487C19.2389 19.8962 19.4323 19.9699 19.6255 19.9699C19.8189 19.9699 20.0122 19.8961 20.1597 19.7486L24.1795 15.728C24.4745 15.433 24.4745 14.9546 24.1794 14.6596C23.8844 14.3647 23.4062 14.3647 23.1112 14.6598Z" fill="#0066CC"/>
<path d="M20.5692 10.0968C16.6497 10.0968 13.4609 13.2852 13.4609 17.2042C13.4609 21.1236 16.6497 24.3124 20.5692 24.3124C24.4882 24.3124 27.6766 21.1238 27.6766 17.2042C27.6766 13.2852 24.4882 10.0968 20.5692 10.0968ZM20.5692 22.8015C17.4828 22.8015 14.9719 20.2906 14.9719 17.2042C14.9719 14.1183 17.4828 11.6077 20.5692 11.6077C23.6551 11.6077 26.1656 14.1183 26.1656 17.2042C26.1657 20.2906 23.6551 22.8015 20.5692 22.8015Z" fill="#0066CC"/>
<path d="M31.0516 15.9494C32.0238 15.9494 32.0254 14.4384 31.0516 14.4384C30.0793 14.4385 30.0777 15.9494 31.0516 15.9494Z" fill="#0066CC"/>
</svg>
