<svg width="92" height="92" viewBox="0 0 92 92" fill="none" xmlns="http://www.w3.org/2000/svg">
<g filter="url(#filter0_d_46_192)">
<rect x="4" width="84" height="84" rx="12" fill="white"/>
</g>
<path d="M41.05 36.9L40.2062 41.8406C40.1777 42.0126 40.1976 42.1892 40.2638 42.3505C40.3301 42.5118 40.44 42.6514 40.5812 42.7536C40.7224 42.8559 40.8894 42.9167 41.0633 42.9294C41.2371 42.942 41.4111 42.9058 41.5656 42.825L46 40.5L50.4344 42.825C50.5889 42.9058 50.7628 42.942 50.9367 42.9294C51.1106 42.9167 51.2776 42.8559 51.4188 42.7536C51.56 42.6514 51.6699 42.5118 51.7361 42.3505C51.8024 42.1892 51.8223 42.0126 51.7937 41.8406L50.95 36.9L54.5406 33.4031C54.6611 33.2829 54.7466 33.1321 54.7879 32.9669C54.8292 32.8017 54.8247 32.6285 54.775 32.4656C54.7214 32.3003 54.6228 32.1531 54.4904 32.0405C54.3579 31.928 54.1968 31.8544 54.025 31.8281L49.0562 31.1063L46.8437 26.5875C46.767 26.429 46.6471 26.2953 46.4979 26.2018C46.3487 26.1083 46.1761 26.0587 46 26.0587C45.8239 26.0587 45.6513 26.1083 45.5021 26.2018C45.3529 26.2953 45.233 26.429 45.1562 26.5875L42.9437 31.0781L37.975 31.8C37.8032 31.8263 37.642 31.8998 37.5096 32.0124C37.3771 32.125 37.2786 32.2722 37.225 32.4375C37.1752 32.6003 37.1708 32.7736 37.2121 32.9388C37.2534 33.1039 37.3389 33.2548 37.4594 33.375L41.05 36.9ZM43.6937 32.8688C43.8456 32.8476 43.99 32.7896 44.1142 32.6997C44.2384 32.6098 44.3387 32.4908 44.4062 32.3531L46 29.1188L47.5937 32.3531C47.6613 32.4908 47.7615 32.6098 47.8858 32.6997C48.01 32.7896 48.1544 32.8476 48.3062 32.8688L51.8687 33.3844L49.2906 35.9063C49.1821 36.0116 49.1007 36.1417 49.0534 36.2854C49.006 36.429 48.9941 36.582 49.0187 36.7313L49.6281 40.2844L46.4406 38.6063C46.3036 38.5385 46.1528 38.5032 46 38.5032C45.8471 38.5032 45.6964 38.5385 45.5594 38.6063L42.3719 40.2844L42.9812 36.7313C43.0058 36.582 42.994 36.429 42.9466 36.2854C42.8993 36.1417 42.8179 36.0116 42.7094 35.9063L40.1312 33.3844L43.6937 32.8688Z" fill="#0066CC"/>
<path d="M21.7094 33.5625H27.5969V35.4375H21.7094V33.5625Z" fill="#0066CC"/>
<path d="M45.0625 12.9375H46.9375V20.1375H45.0625V12.9375Z" fill="#0066CC"/>
<path d="M64.4031 33.5625H70.2906V35.4375H64.4031V33.5625Z" fill="#0066CC"/>
<path d="M56.4391 22.7269L60.6022 18.5638L61.928 19.8896L57.7649 24.0527L56.4391 22.7269Z" fill="#0066CC"/>
<path d="M30.0625 19.8947L31.3883 18.5689L35.5514 22.732L34.2256 24.0578L30.0625 19.8947Z" fill="#0066CC"/>
<path d="M26.5 55.5C26.4629 55.5479 26.4343 55.6018 26.4156 55.6594C26.4156 55.6594 26.4156 55.6594 26.4156 55.7156C26.3535 55.8211 26.318 55.9402 26.3125 56.0625V70.125C26.3125 70.3736 26.4113 70.6121 26.5871 70.7879C26.7629 70.9637 27.0014 71.0625 27.25 71.0625H57.25C57.4012 71.0587 57.5493 71.0183 57.6815 70.9448C57.8137 70.8714 57.9262 70.767 58.0094 70.6406L65.5094 59.6719C65.6185 59.5215 65.6805 59.342 65.6875 59.1562V45.75C65.6895 45.604 65.6574 45.4595 65.5938 45.3281C65.5151 45.1721 65.3945 45.0411 65.2454 44.95C65.0963 44.8589 64.9247 44.8113 64.75 44.8125H57.25L57.4375 44.5312C59.1516 42.1578 60.0705 39.3027 60.0625 36.375C60.0622 34.165 59.5411 31.9862 58.5414 30.0153C57.5417 28.0444 56.0916 26.3368 54.3086 25.0311C52.5256 23.7254 50.46 22.8583 48.2793 22.5001C46.0985 22.1419 43.8641 22.3027 41.7571 22.9695C39.6501 23.6362 37.73 24.7902 36.1523 26.3378C34.5747 27.8854 33.384 29.783 32.6769 31.8768C31.9697 33.9706 31.766 36.2015 32.0822 38.3887C32.3984 40.576 33.2257 42.6579 34.4969 44.4656C34.5906 44.5875 34.6656 44.7188 34.7594 44.85C34.5272 44.8846 34.3164 45.005 34.1687 45.1875L26.5 55.5ZM56.3125 69.1875H28.1875V57H56.3125V69.1875ZM63.8125 58.875L58.1875 67.1063V56.3625L63.8125 48.6281V58.875ZM62.875 46.6875L56.7344 55.125H52.4875C53.2396 52.1494 54.4375 49.3047 56.0406 46.6875H62.875ZM33.925 34.6781C34.3105 32.0089 35.5659 29.5414 37.4965 27.6582C39.4271 25.7751 41.9251 24.5815 44.6031 24.2625C46.3149 24.0586 48.0505 24.2234 49.6934 24.7457C51.3362 25.268 52.8483 26.1357 54.1281 27.2906C55.4057 28.4341 56.4276 29.8343 57.1271 31.3997C57.8266 32.9651 58.1879 34.6604 58.1875 36.375C58.1957 38.9101 57.4052 41.3834 55.9281 43.4438C55.525 44.0063 55.1125 44.6156 54.7094 45.2531C52.788 48.2911 51.3846 51.6271 50.5562 55.125H41.4344C40.5844 51.6327 39.179 48.2996 37.2719 45.2531C36.8781 44.625 36.4656 43.9969 36.0344 43.3781C34.2531 40.8507 33.499 37.7407 33.925 34.6781ZM35.3875 46.6875H35.9406C37.5341 49.3119 38.7373 52.1542 39.5125 55.125H29.125L35.3875 46.6875Z" fill="#0066CC"/>
<defs>
<filter id="filter0_d_46_192" x="0" y="0" width="92" height="92" filterUnits="userSpaceOnUse" color-interpolation-filters="sRGB">
<feFlood flood-opacity="0" result="BackgroundImageFix"/>
<feColorMatrix in="SourceAlpha" type="matrix" values="0 0 0 0 0 0 0 0 0 0 0 0 0 0 0 0 0 0 127 0" result="hardAlpha"/>
<feOffset dy="4"/>
<feGaussianBlur stdDeviation="2"/>
<feComposite in2="hardAlpha" operator="out"/>
<feColorMatrix type="matrix" values="0 0 0 0 0 0 0 0 0 0 0 0 0 0 0 0 0 0 0.25 0"/>
<feBlend mode="normal" in2="BackgroundImageFix" result="effect1_dropShadow_46_192"/>
<feBlend mode="normal" in="SourceGraphic" in2="effect1_dropShadow_46_192" result="shape"/>
</filter>
</defs>
</svg>
