<svg width="41" height="44" viewBox="0 0 41 44" fill="none" xmlns="http://www.w3.org/2000/svg">
<path d="M36.7285 0H4.27072C1.91327 0.00299103 0.00280268 2.04185 0 4.55773V10.9386H1.70827V4.55773C1.70827 3.04743 2.85553 1.82307 4.27072 1.82307H36.7284C38.1436 1.82307 39.2908 3.04743 39.2908 4.55773V24.6119H40.9992V4.55773C40.9964 2.04185 39.0859 0.00299103 36.7285 0Z" fill="white"/>
<path d="M39.2909 34.6444V39.2021C39.2909 40.7124 38.1437 41.9368 36.7285 41.9368H4.27072C2.85553 41.9368 1.70827 40.7124 1.70827 39.2021V34.6444H0V39.2021C0.00280268 41.7181 1.91327 43.7568 4.27072 43.7598H36.7284C39.0859 43.7568 40.9963 41.718 40.9991 39.2021V34.6444H39.2909Z" fill="white"/>
<path d="M37.584 7.29688H3.41797V9.11821H37.584V7.29688Z" fill="white"/>
<path d="M36.7283 3.64062H35.02V5.46196H36.7283V3.64062Z" fill="white"/>
<path d="M40.8699 30.5107L36.5992 23.2183C36.5406 23.1296 36.4681 23.0522 36.385 22.9897C35.9841 22.688 35.4299 22.7903 35.1471 23.2183L30.8764 30.5107C30.7915 30.6555 30.7466 30.8229 30.7466 30.9938C30.7466 31.4972 31.129 31.9053 31.6008 31.9053H33.309V36.4631C33.309 36.9665 33.6915 37.3746 34.1632 37.3746H37.5798C38.0516 37.3746 38.434 36.9665 38.434 36.4631V31.9053H40.1423C40.3036 31.906 40.4617 31.858 40.5984 31.7668C40.9984 31.5 41.12 30.9376 40.8699 30.5107ZM37.5798 30.0823C37.108 30.0823 36.7256 30.4904 36.7256 30.9938V35.5516H35.0173V30.9938C35.0173 30.4904 34.6349 30.0823 34.1631 30.0823H33.1381L35.8715 25.4215L38.6047 30.0823H37.5798Z" fill="white"/>
<path d="M31.6036 12.7578H4.27072C1.91327 12.7609 0.00280268 14.7997 0 17.3156V28.2542C0.00280268 30.7702 1.91327 32.809 4.27072 32.812H29.041V30.9889H4.27072C2.85553 30.9889 1.70827 29.7645 1.70827 28.2542V17.3156C1.70827 15.8053 2.85553 14.581 4.27072 14.581H31.6035C33.0187 14.581 34.1659 15.8053 34.1659 17.3156V20.9619H35.8743V17.3156C35.8715 14.7997 33.961 12.7609 31.6036 12.7578Z" fill="white"/>
<path d="M29.6629 3.64453H27.9546V5.46587H29.6629V3.64453Z" fill="white"/>
<path d="M33.0799 3.64453H31.3716V5.46587H33.0799V3.64453Z" fill="white"/>
<path d="M26.3206 17.3125H22.904C22.4323 17.3125 22.0498 17.7206 22.0498 18.2241V27.3396C22.0498 27.8431 22.4323 28.2512 22.904 28.2512H26.3206C27.7358 28.2512 28.8831 27.0268 28.8831 25.5166V20.0472C28.8831 18.5369 27.7358 17.3125 26.3206 17.3125ZM27.1748 25.5165C27.1748 26.0199 26.7923 26.428 26.3206 26.428H23.7582V19.1357H26.3206C26.7923 19.1357 27.1748 19.5438 27.1748 20.0472V25.5165Z" fill="white"/>
<path d="M16.2257 17.3125H12.809C11.3938 17.3125 10.2466 18.5369 10.2466 20.0472V28.2511H11.9549V20.0472C11.9549 19.5437 12.3373 19.1356 12.809 19.1356H16.2257C16.6974 19.1356 17.0798 19.5437 17.0798 20.0472V28.2511H18.7881V20.0472C18.7881 18.5369 17.6408 17.3125 16.2257 17.3125Z" fill="white"/>
<path d="M17.9382 21.875H11.105V23.6963H17.9382V21.875Z" fill="white"/>
</svg>
