<svg width="92" height="92" viewBox="0 0 92 92" fill="none" xmlns="http://www.w3.org/2000/svg">
<g filter="url(#filter0_d_46_189)">
<rect x="4" width="84" height="84" rx="12" fill="white"/>
</g>
<path d="M19.75 31.6875H17.875V27.9375C17.8764 26.6947 18.3707 25.5033 19.2495 24.6245C20.1283 23.7457 21.3197 23.2514 22.5625 23.25H54.4375V21.375H52.5625C52.3771 21.375 52.1958 21.32 52.0416 21.217C51.8875 21.114 51.7673 20.9676 51.6963 20.7963C51.6254 20.625 51.6068 20.4365 51.643 20.2546C51.6792 20.0727 51.7685 19.9057 51.8996 19.7746L57.5246 14.1496C57.6116 14.0625 57.715 13.9935 57.8287 13.9463C57.9425 13.8992 58.0644 13.875 58.1875 13.875C58.3106 13.875 58.4325 13.8992 58.5463 13.9463C58.66 13.9935 58.7634 14.0625 58.8504 14.1496L64.4754 19.7746C64.6065 19.9057 64.6958 20.0727 64.732 20.2546C64.7682 20.4365 64.7496 20.625 64.6787 20.7963C64.6077 20.9676 64.4875 21.114 64.3334 21.217C64.1792 21.32 63.9979 21.375 63.8125 21.375H61.9375V23.25H65.6875C66.9303 23.2514 68.1217 23.7457 69.0005 24.6245C69.8793 25.5033 70.3736 26.6947 70.375 27.9375V46.6875H68.5V27.9375C68.4991 27.1918 68.2025 26.477 67.6753 25.9497C67.148 25.4225 66.4332 25.1259 65.6875 25.125H61.9375V42H60.0625V20.4375C60.0625 20.1889 60.1613 19.9504 60.3371 19.7746C60.5129 19.5988 60.7514 19.5 61 19.5H61.5493L58.1875 16.1382L54.8257 19.5H55.375C55.6236 19.5 55.8621 19.5988 56.0379 19.7746C56.2137 19.9504 56.3125 20.1889 56.3125 20.4375V42.9375H54.4375V25.125H22.5625C21.8168 25.1259 21.102 25.4225 20.5747 25.9497C20.0475 26.477 19.7509 27.1918 19.75 27.9375V31.6875ZM22.5625 60.75H38.1774L35.9274 68.25H33.8125V70.125H54.4375V68.25H52.3226L51.1168 64.2305L49.3207 64.7695L50.365 68.25H37.8845L40.1345 60.75H46.9375V58.875H22.5625C21.8168 58.8741 21.102 58.5775 20.5747 58.0503C20.0475 57.523 19.7509 56.8082 19.75 56.0625V55.125H46V53.25H19.75V33.5625H17.875V56.0625C17.8764 57.3053 18.3707 58.4968 19.2495 59.3755C20.1283 60.2543 21.3197 60.7486 22.5625 60.75ZM50.6875 44.8125V29.8125H46.9375V51.375H22.5625V49.5H26.3125V42C26.3125 41.7514 26.4113 41.5129 26.5871 41.3371C26.7629 41.1613 27.0014 41.0625 27.25 41.0625H32.875C33.1236 41.0625 33.3621 41.1613 33.5379 41.3371C33.7137 41.5129 33.8125 41.7514 33.8125 42V49.5H35.6875V35.4375C35.6875 35.1889 35.7863 34.9504 35.9621 34.7746C36.1379 34.5988 36.3764 34.5 36.625 34.5H42.25C42.4986 34.5 42.7371 34.5988 42.9129 34.7746C43.0887 34.9504 43.1875 35.1889 43.1875 35.4375V49.5H45.0625V28.875C45.0625 28.6264 45.1613 28.3879 45.3371 28.2121C45.5129 28.0363 45.7514 27.9375 46 27.9375H51.625C51.8736 27.9375 52.1121 28.0363 52.2879 28.2121C52.4637 28.3879 52.5625 28.6264 52.5625 28.875V44.8125H50.6875ZM31.9375 42.9375H28.1875V49.5H31.9375V42.9375ZM41.3125 36.375H37.5625V49.5H41.3125V36.375ZM22.5625 27V28.875H24.4375V27H22.5625ZM28.1875 27H26.3125V28.875H28.1875V27ZM30.0625 27V28.875H31.9375V27H30.0625ZM73.3008 65.3242C73.8265 65.8527 74.1226 66.5671 74.125 67.3125C74.1253 67.6819 74.0528 68.0478 73.9116 68.3892C73.7704 68.7306 73.5632 69.0408 73.302 69.302C73.0408 69.5632 72.7306 69.7704 72.3892 69.9116C72.0478 70.0528 71.6819 70.1253 71.3125 70.125C70.5679 70.1185 69.855 69.823 69.3242 69.3008L64.8367 64.8135C62.4763 66.2059 59.689 66.6896 56.9975 66.1738C54.3059 65.6581 51.8949 64.1783 50.2164 62.0119C48.5379 59.8456 47.7072 57.1414 47.8801 54.4063C48.0529 51.6712 49.2174 49.0931 51.1552 47.1553C53.0931 45.2174 55.6712 44.0529 58.4063 43.8801C61.1413 43.7072 63.8455 44.5379 66.0119 46.2164C68.1783 47.8949 69.6581 50.3059 70.1738 52.9975C70.6896 55.689 70.2059 58.4763 68.8135 60.8367L73.3008 65.3242ZM68.5 55.125C68.5 53.2708 67.9502 51.4582 66.92 49.9165C65.8899 48.3748 64.4257 47.1732 62.7127 46.4636C60.9996 45.7541 59.1146 45.5684 57.296 45.9301C55.4775 46.2919 53.807 47.1848 52.4959 48.4959C51.1848 49.807 50.2919 51.4775 49.9301 53.296C49.5684 55.1146 49.7541 56.9996 50.4636 58.7127C51.1732 60.4257 52.3748 61.8899 53.9165 62.92C55.4582 63.9502 57.2708 64.5 59.125 64.5C61.6105 64.4972 63.9935 63.5086 65.751 61.751C67.5085 59.9935 68.4972 57.6105 68.5 55.125ZM71.9748 66.6502L67.7107 62.3858C67.3064 62.8632 66.8632 63.3064 66.3858 63.7108L70.6502 67.9749C70.7363 68.0655 70.8396 68.1381 70.9542 68.1882C71.0688 68.2383 71.1923 68.2649 71.3173 68.2665C71.4423 68.2682 71.5664 68.2447 71.6823 68.1976C71.7981 68.1505 71.9034 68.0807 71.9918 67.9923C72.0802 67.9038 72.15 67.7986 72.1971 67.6828C72.2443 67.5669 72.2677 67.4428 72.2661 67.3178C72.2644 67.1927 72.2378 67.0693 72.1877 66.9547C72.1376 66.8401 72.0651 66.7367 71.9744 66.6506L71.9748 66.6502ZM66.625 55.125C66.625 56.6084 66.1851 58.0584 65.361 59.2918C64.5369 60.5252 63.3656 61.4864 61.9951 62.0541C60.6247 62.6218 59.1167 62.7703 57.6618 62.4809C56.207 62.1915 54.8706 61.4772 53.8217 60.4283C52.7728 59.3794 52.0585 58.043 51.7691 56.5882C51.4797 55.1333 51.6282 53.6253 52.1959 52.2549C52.7636 50.8844 53.7249 49.7131 54.9582 48.889C56.1916 48.0649 57.6416 47.625 59.125 47.625C61.1134 47.6272 63.0198 48.4181 64.4258 49.8242C65.8319 51.2302 66.6228 53.1366 66.625 55.125ZM64.75 55.125C64.75 54.0125 64.4201 52.925 63.802 51.9999C63.1839 51.0749 62.3054 50.3539 61.2776 49.9282C60.2498 49.5024 59.1188 49.391 58.0276 49.6081C56.9365 49.8251 55.9342 50.3609 55.1475 51.1475C54.3609 51.9342 53.8251 52.9365 53.6081 54.0276C53.391 55.1188 53.5024 56.2498 53.9282 57.2776C54.3539 58.3054 55.0749 59.1839 55.9999 59.802C56.9249 60.4201 58.0125 60.75 59.125 60.75C60.6163 60.7484 62.0461 60.1552 63.1007 59.1007C64.1552 58.0461 64.7484 56.6163 64.75 55.125ZM55.375 55.125H57.25C57.2506 54.6279 57.4483 54.1513 57.7998 53.7998C58.1513 53.4483 58.6279 53.2506 59.125 53.25V51.375C58.1308 51.3761 57.1776 51.7716 56.4746 52.4746C55.7716 53.1776 55.3761 54.1308 55.375 55.125ZM67.5625 19.5H69.4375C69.4359 18.0087 68.8427 16.5789 67.7882 15.5243C66.7336 14.4698 65.3038 13.8766 63.8125 13.875V15.75C64.8067 15.7511 65.7599 16.1466 66.4629 16.8496C67.1659 17.5526 67.5614 18.5058 67.5625 19.5Z" fill="#0066CC"/>
<defs>
<filter id="filter0_d_46_189" x="0" y="0" width="92" height="92" filterUnits="userSpaceOnUse" color-interpolation-filters="sRGB">
<feFlood flood-opacity="0" result="BackgroundImageFix"/>
<feColorMatrix in="SourceAlpha" type="matrix" values="0 0 0 0 0 0 0 0 0 0 0 0 0 0 0 0 0 0 127 0" result="hardAlpha"/>
<feOffset dy="4"/>
<feGaussianBlur stdDeviation="2"/>
<feComposite in2="hardAlpha" operator="out"/>
<feColorMatrix type="matrix" values="0 0 0 0 0 0 0 0 0 0 0 0 0 0 0 0 0 0 0.25 0"/>
<feBlend mode="normal" in2="BackgroundImageFix" result="effect1_dropShadow_46_189"/>
<feBlend mode="normal" in="SourceGraphic" in2="effect1_dropShadow_46_189" result="shape"/>
</filter>
</defs>
</svg>
