<svg width="92" height="92" viewBox="0 0 92 92" fill="none" xmlns="http://www.w3.org/2000/svg">
<g filter="url(#filter0_d_46_191)">
<rect x="4" width="84" height="84" rx="12" fill="white"/>
</g>
<g clip-path="url(#clip0_46_191)">
<path d="M71.7677 16.2863H20.2323C18.45 16.2863 17 17.7363 17 19.5185V57.4408C17 59.2229 18.45 60.6729 20.2323 60.6729H28.1777V66.8073C28.1777 67.3078 28.5835 67.7136 29.0839 67.7136H34.3169C34.8173 67.7136 35.2231 67.3078 35.2231 66.8073V60.6729H37.8945V66.8075C37.8945 67.3079 38.3003 67.7137 38.8008 67.7137H44.0337C44.5341 67.7137 44.9399 67.3079 44.9399 66.8075V60.6729H47.6112V66.8073C47.6112 67.3078 48.017 67.7136 48.5174 67.7136H53.7504C54.2508 67.7136 54.6566 67.3078 54.6566 66.8073V60.6729H57.3277V66.8073C57.3277 67.3078 57.7334 67.7136 58.2339 67.7136H63.4668C63.9673 67.7136 64.3731 67.3078 64.3731 66.8073V60.6729H71.7677C73.55 60.6729 75 59.2229 75 57.4408V19.5185C75 17.7363 73.55 16.2863 71.7677 16.2863ZM20.2323 18.0988H71.7677C72.5506 18.0988 73.1875 18.7357 73.1875 19.5185V25.1325H18.8125V19.5185C18.8125 18.7357 19.4494 18.0988 20.2323 18.0988ZM33.4106 65.9011H29.9902V57.6745H33.4106V65.9011ZM43.1274 65.9012H39.707V52.4147H43.1274V65.9012ZM52.8441 65.9011H49.4237V46.9224H52.8441V65.9011ZM62.5605 65.9011H59.1401V41.9815H62.5605V65.9011ZM71.7677 58.8604H64.3731V41.0753C64.3731 40.5748 63.9673 40.169 63.4668 40.169H58.2339C57.7334 40.169 57.3277 40.5748 57.3277 41.0753V58.8604H54.6566V46.0162C54.6566 45.5157 54.2508 45.1099 53.7504 45.1099H48.5174C48.017 45.1099 47.6112 45.5157 47.6112 46.0162V58.8604H44.9399V51.5085C44.9399 51.008 44.5341 50.6022 44.0337 50.6022H38.8008C38.3003 50.6022 37.8945 51.008 37.8945 51.5085V58.8604H35.2231V56.7682C35.2231 56.2678 34.8173 55.862 34.3169 55.862H29.0839C28.5835 55.862 28.1777 56.2678 28.1777 56.7682V58.8604H20.2323C19.4494 58.8604 18.8125 58.2236 18.8125 57.4408V26.945H73.1875V57.4408C73.1875 58.2236 72.5505 58.8604 71.7677 58.8604ZM24.0069 21.6156C24.0069 20.8669 24.6175 20.2562 25.3663 20.2562C26.1149 20.2562 26.7256 20.8669 26.7256 21.6156C26.7256 22.3643 26.1149 22.975 25.3663 22.975C24.6175 22.975 24.0069 22.3643 24.0069 21.6156ZM29.2251 21.6156C29.2251 20.8669 29.8357 20.2562 30.5845 20.2562C31.3331 20.2562 31.9438 20.8669 31.9438 21.6156C31.9438 22.3643 31.3333 22.975 30.5845 22.975C29.8357 22.975 29.2251 22.3643 29.2251 21.6156ZM34.4433 21.6156C34.4433 20.8669 35.0539 20.2562 35.8026 20.2562C36.5514 20.2562 37.162 20.8669 37.162 21.6156C37.162 22.3643 36.5513 22.975 35.8026 22.975C35.054 22.975 34.4433 22.3643 34.4433 21.6156ZM64.136 30.5256C64.3193 30.7262 64.4028 30.9986 64.3637 31.2674L63.7598 35.4147C63.6941 35.8657 63.3068 36.1906 62.8642 36.1906C62.8207 36.1906 62.7767 36.1875 62.7324 36.181C62.2372 36.1089 61.8941 35.649 61.9662 35.1537L62.2076 33.4955C52.784 41.7869 41.567 48.2331 28.8312 52.6684C28.7325 52.7028 28.6321 52.719 28.5332 52.719C28.1583 52.719 27.8076 52.4846 27.6773 52.1106C27.5127 51.638 27.7624 51.1214 28.2351 50.9567C40.7247 46.6071 51.7221 40.2947 60.9586 32.1805L59.3309 32.2689C58.8308 32.295 58.404 31.9128 58.3769 31.4131C58.3498 30.9133 58.7329 30.4861 59.2327 30.459L63.4177 30.2319C63.6889 30.217 63.9527 30.325 64.136 30.5256ZM28.0265 47.2915C28.1611 47.6413 28.4974 47.8722 28.8722 47.8722H30.5134C30.8884 47.8722 31.2245 47.6413 31.3592 47.2915L31.7157 46.3652C32.3921 46.1863 33.0373 45.9188 33.6433 45.5661L34.5511 45.9694C34.8937 46.1216 35.2946 46.0472 35.5598 45.782L36.7202 44.6215C36.9853 44.3564 37.0598 43.9555 36.9077 43.6129L36.5043 42.7045C36.8568 42.0987 37.1243 41.4536 37.3032 40.7776L38.2297 40.421C38.5796 40.2864 38.8104 39.9502 38.8104 39.5752V37.934C38.8104 37.559 38.5795 37.2229 38.2297 37.0882L37.3035 36.7317C37.1245 36.0552 36.8571 35.4101 36.5044 34.8041L36.9076 33.8963C37.0598 33.5537 36.9853 33.1528 36.7202 32.8877L35.5597 31.7272C35.2946 31.4621 34.8936 31.3879 34.551 31.5398L33.6427 31.9433C33.0369 31.5907 32.392 31.3232 31.7158 31.1443L31.3592 30.2177C31.2245 29.8679 30.8883 29.637 30.5134 29.637H28.8723C28.4975 29.637 28.1613 29.8678 28.0266 30.2177L27.6698 31.1443C26.9937 31.3232 26.3486 31.5906 25.7428 31.9433L24.8345 31.5398C24.4919 31.3875 24.091 31.4621 23.8259 31.7272L22.6654 32.8877C22.4003 33.1528 22.3258 33.5537 22.4779 33.8963L22.8813 34.8045C22.5287 35.4104 22.2612 36.0554 22.0824 36.7316L21.1559 37.0882C20.806 37.2228 20.5753 37.559 20.5753 37.934V39.5752C20.5753 39.9502 20.8061 40.2863 21.1559 40.421L22.0821 40.7775C22.2611 41.454 22.5286 42.0992 22.8812 42.7051L22.4779 43.6129C22.3257 43.9555 22.4002 44.3564 22.6653 44.6215L23.8259 45.782C24.0911 46.0471 24.492 46.1213 24.8345 45.9694L25.7428 45.5659C26.3486 45.9185 26.9937 46.186 27.6697 46.3648L28.0265 47.2915ZM25.4469 43.7142L24.6676 44.0604L24.387 43.7799L24.7329 43.0008C24.8595 42.7162 24.8308 42.3864 24.6571 42.1278C24.2075 41.4583 23.9009 40.7188 23.746 39.9299C23.686 39.6241 23.473 39.3706 23.1822 39.2588L22.3877 38.953V38.5562L23.1824 38.2503C23.4732 38.1384 23.6861 37.8848 23.7462 37.5792C23.9011 36.7908 24.2075 36.0515 24.6572 35.3817C24.8309 35.1231 24.8596 34.7935 24.7331 34.5087L24.387 33.7293L24.6676 33.4488L25.4469 33.795C25.7316 33.9213 26.0613 33.8928 26.3199 33.7191C26.9897 33.2694 27.729 32.9629 28.5174 32.808C28.8231 32.748 29.0765 32.5351 29.1884 32.2443L29.4944 31.4494H29.8911L30.197 32.2443C30.309 32.535 30.5624 32.7479 30.868 32.808C31.6563 32.9629 32.3957 33.2694 33.0654 33.7191C33.3242 33.8928 33.6539 33.9215 33.9385 33.795L34.7179 33.4488L34.9985 33.7293L34.6525 34.5084C34.5261 34.7932 34.5547 35.1228 34.7284 35.3814C35.1781 36.051 35.4847 36.7904 35.6395 37.5792C35.6996 37.8849 35.9125 38.1385 36.2033 38.2504L36.9979 38.5562V38.953L36.203 39.2589C35.9122 39.3707 35.6993 39.6244 35.6392 39.93C35.4843 40.7183 35.1779 41.4576 34.7282 42.1274C34.5545 42.3861 34.526 42.7157 34.6524 43.0004L34.9986 43.7799L34.7181 44.0604L33.9391 43.7144C33.6545 43.5881 33.3247 43.6166 33.066 43.7903C32.3963 44.24 31.6569 44.5466 30.8682 44.7013C30.5625 44.7613 30.309 44.9743 30.197 45.2651L29.8912 46.0598H29.4945L29.1884 45.2648C29.0765 44.9741 28.8229 44.7611 28.5173 44.7011C27.7291 44.5463 26.9898 44.2398 26.32 43.7901C26.0613 43.6164 25.7316 43.5877 25.4469 43.7142ZM34.2243 38.7546C34.2243 36.256 32.1915 34.2231 29.6928 34.2231C27.1942 34.2231 25.1615 36.256 25.1615 38.7546C25.1615 41.2532 27.1943 43.2861 29.6928 43.2861C32.1915 43.2861 34.2243 41.2531 34.2243 38.7546ZM26.9738 38.7546C26.9738 37.2554 28.1935 36.0356 29.6927 36.0356C31.192 36.0356 32.4117 37.2554 32.4117 38.7546C32.4117 40.2538 31.1919 41.4736 29.6927 41.4736C28.1935 41.4736 26.9738 40.2538 26.9738 38.7546Z" fill="#0066CC"/>
</g>
<defs>
<filter id="filter0_d_46_191" x="0" y="0" width="92" height="92" filterUnits="userSpaceOnUse" color-interpolation-filters="sRGB">
<feFlood flood-opacity="0" result="BackgroundImageFix"/>
<feColorMatrix in="SourceAlpha" type="matrix" values="0 0 0 0 0 0 0 0 0 0 0 0 0 0 0 0 0 0 127 0" result="hardAlpha"/>
<feOffset dy="4"/>
<feGaussianBlur stdDeviation="2"/>
<feComposite in2="hardAlpha" operator="out"/>
<feColorMatrix type="matrix" values="0 0 0 0 0 0 0 0 0 0 0 0 0 0 0 0 0 0 0.25 0"/>
<feBlend mode="normal" in2="BackgroundImageFix" result="effect1_dropShadow_46_191"/>
<feBlend mode="normal" in="SourceGraphic" in2="effect1_dropShadow_46_191" result="shape"/>
</filter>
<clipPath id="clip0_46_191">
<rect width="58" height="58" fill="white" transform="translate(17 13)"/>
</clipPath>
</defs>
</svg>
