<svg width="44" height="44" viewBox="0 0 44 44" fill="none" xmlns="http://www.w3.org/2000/svg">
<path d="M2.0625 21.882C2.06209 22.243 2.15103 22.5985 2.32139 22.9169C2.49174 23.2352 2.73822 23.5064 3.03884 23.7063L6.49352 26.0094C6.60647 26.0847 6.73917 26.1249 6.87492 26.1249C7.01066 26.1249 7.14336 26.0847 7.25631 26.0094L10.711 23.7063C11.0116 23.5064 11.2582 23.2352 11.4285 22.9169C11.5989 22.5986 11.6879 22.243 11.6875 21.882C11.6875 21.3614 11.5331 20.8526 11.2439 20.4197C10.9547 19.9869 10.5436 19.6496 10.0627 19.4503C9.58175 19.2511 9.05253 19.199 8.54197 19.3006C8.03141 19.4022 7.56243 19.6528 7.19434 20.0209L6.875 20.3403L6.55566 20.0209C6.18757 19.6528 5.71859 19.4022 5.20803 19.3006C4.69747 19.199 4.16826 19.2511 3.68731 19.4503C3.20637 19.6496 2.7953 19.9869 2.50609 20.4197C2.21687 20.8526 2.0625 21.3614 2.0625 21.882ZM6.38885 21.7986C6.45269 21.8625 6.52848 21.9131 6.6119 21.9477C6.69531 21.9822 6.78471 22 6.875 22C6.96529 22 7.05469 21.9822 7.1381 21.9477C7.22152 21.9131 7.29731 21.8625 7.36115 21.7986L8.16656 20.9932C8.34236 20.8174 8.56635 20.6977 8.81019 20.6492C9.05403 20.6007 9.30677 20.6256 9.53646 20.7207C9.76615 20.8158 9.96248 20.9769 10.1006 21.1837C10.2387 21.3904 10.3125 21.6334 10.3125 21.882C10.3127 22.0166 10.2795 22.1492 10.216 22.2679C10.1525 22.3865 10.0606 22.4877 9.94847 22.5622L6.875 24.6112L3.80145 22.5622C3.68938 22.4876 3.5975 22.3865 3.53399 22.2678C3.47049 22.1492 3.43734 22.0166 3.4375 21.882C3.43752 21.6334 3.51126 21.3904 3.64939 21.1837C3.78752 20.9769 3.98385 20.8158 4.21354 20.7207C4.44323 20.6256 4.69598 20.6007 4.93982 20.6492C5.18366 20.6977 5.40764 20.8174 5.58345 20.9932L6.38885 21.7986Z" fill="#0066CC"/>
<path d="M33 23.375H34.375V24.75H33V23.375Z" fill="#0066CC"/>
<path d="M35.75 23.375H37.125V24.75H35.75V23.375Z" fill="#0066CC"/>
<path d="M38.5 23.375H39.875V24.75H38.5V23.375Z" fill="#0066CC"/>
<path d="M39.7244 16.7578C39.6353 16.6466 39.514 16.5657 39.377 16.5264C39.2401 16.4871 39.0943 16.4914 38.9598 16.5386C38.8254 16.5858 38.7089 16.6735 38.6266 16.7898C38.5442 16.906 38.5 17.045 38.5 17.1875V19.9375H34.375C33.281 19.9375 32.2318 20.3721 31.4582 21.1457C30.6846 21.9193 30.25 22.9685 30.25 24.0625C30.25 25.1565 30.6846 26.2057 31.4582 26.9793C32.2318 27.7529 33.281 28.1875 34.375 28.1875H38.5C39.5936 28.1863 40.6421 27.7513 41.4154 26.9779C42.1888 26.2046 42.6237 25.1561 42.625 24.0625V22.0719C42.6236 20.9794 42.2518 19.9196 41.5705 19.0656L39.7244 16.7578ZM41.25 24.0625C41.2492 24.7916 40.9592 25.4906 40.4436 26.0061C39.9281 26.5217 39.2291 26.8117 38.5 26.8125H34.375C33.6457 26.8125 32.9462 26.5228 32.4305 26.007C31.9147 25.4913 31.625 24.7918 31.625 24.0625C31.625 23.3332 31.9147 22.6337 32.4305 22.118C32.9462 21.6022 33.6457 21.3125 34.375 21.3125H39.1875C39.3698 21.3125 39.5447 21.2401 39.6736 21.1111C39.8026 20.9822 39.875 20.8073 39.875 20.625V19.1474L40.4968 19.9246C40.9835 20.5346 41.249 21.2916 41.25 22.0719V24.0625Z" fill="#0066CC"/>
<path d="M30.9181 33.7868C30.769 31.5232 29.7646 29.401 28.1086 27.8506C26.4526 26.3001 24.269 25.4374 22.0005 25.4374C19.732 25.4374 17.5483 26.3001 15.8923 27.8506C14.2364 29.401 13.232 31.5232 13.0828 33.7868C10.8723 32.1089 9.17442 29.8468 8.18062 27.2556L6.89551 27.7446C8.11354 30.9208 10.2958 33.6358 13.1359 35.5083C13.4113 37.665 14.4636 39.6473 16.0956 41.084C17.7276 42.5206 19.8273 43.3129 22.0016 43.3127C24.1758 43.3124 26.2753 42.5195 27.907 41.0825C29.5386 39.6455 30.5904 37.663 30.8654 35.5062C33.0314 34.0811 34.8253 32.1586 36.0972 29.8992L34.8984 29.226C33.8981 31.0029 32.5433 32.5553 30.9181 33.7868ZM17.188 40.2074V39.875C17.1876 38.9533 17.4521 38.0508 17.9499 37.2751C18.4478 36.4994 19.158 35.8831 19.9962 35.4995C20.0999 35.4519 20.1901 35.3793 20.2588 35.2881C20.3274 35.197 20.3723 35.0902 20.3893 34.9773C20.4064 34.8645 20.3951 34.7492 20.3565 34.6418C20.3178 34.5344 20.2531 34.4384 20.168 34.3623C19.7527 33.9911 19.4598 33.5025 19.3282 32.9612C19.1967 32.42 19.2326 31.8515 19.4312 31.331C19.6299 30.8106 19.9819 30.3628 20.4407 30.0468C20.8995 29.7309 21.4434 29.5617 22.0004 29.5617C22.5575 29.5617 23.1014 29.7309 23.5602 30.0468C24.019 30.3628 24.371 30.8106 24.5696 31.331C24.7683 31.8515 24.8042 32.42 24.6726 32.9612C24.5411 33.5025 24.2482 33.9911 23.8328 34.3623C23.7478 34.4384 23.6831 34.5344 23.6444 34.6418C23.6058 34.7492 23.5945 34.8645 23.6115 34.9773C23.6286 35.0902 23.6735 35.197 23.7421 35.2881C23.8107 35.3793 23.901 35.4519 24.0047 35.4995C24.8415 35.8849 25.5506 36.5016 26.0482 37.2769C26.5458 38.0522 26.8112 38.9537 26.813 39.875V40.2074C25.4586 41.3258 23.7569 41.9375 22.0005 41.9375C20.244 41.9375 18.5424 41.3258 17.188 40.2074ZM28.1002 38.8438C27.9557 38.0007 27.6389 37.1965 27.1694 36.4814C26.7 35.7664 26.0881 35.1558 25.372 34.6881C25.8074 34.0704 26.0648 33.3451 26.116 32.5911C26.1673 31.8372 26.0104 31.0837 25.6626 30.4128C25.3148 29.7419 24.7894 29.1794 24.1437 28.7868C23.4981 28.3942 22.7569 28.1865 22.0013 28.1863C21.2456 28.1862 20.5044 28.3937 19.8586 28.7861C19.2127 29.1784 18.6871 29.7407 18.3391 30.4115C17.991 31.0822 17.8339 31.8357 17.8849 32.5897C17.9359 33.3436 18.193 34.0691 18.6282 34.6869C17.9107 35.1531 17.2977 35.7631 16.8281 36.4785C16.3584 37.1938 16.0424 37.9988 15.9 38.8425C15.0742 37.7154 14.5768 36.3814 14.4631 34.9888C14.3494 33.5961 14.6237 32.1992 15.2556 30.9529C15.8876 29.7067 16.8525 28.6599 18.0432 27.9288C19.2339 27.1976 20.6039 26.8106 22.0012 26.8107C23.3985 26.8109 24.7685 27.1981 25.9591 27.9295C27.1496 28.661 28.1143 29.7079 28.746 30.9543C29.3777 32.2006 29.6518 33.5976 29.5378 34.9903C29.4238 36.3829 28.9262 37.7167 28.1002 38.8438Z" fill="#0066CC"/>
<path d="M36.453 18.8862L37.7974 18.598C36.8838 14.3996 34.3431 10.7345 30.7322 8.4058C30.2974 6.41336 29.1943 4.62954 27.6059 3.35045C26.0176 2.07136 24.0396 1.37393 22.0002 1.37393C19.9609 1.37393 17.9829 2.07136 16.3946 3.35045C14.8062 4.62954 13.7031 6.41336 13.2683 8.4058C9.91946 10.5508 7.48202 13.8583 6.4248 17.692L7.75022 18.058C8.61121 14.9331 10.4789 12.1796 13.0638 10.2241C13.0638 10.2535 13.0627 10.2829 13.0627 10.3125C13.0627 12.6829 14.0043 14.9562 15.6804 16.6323C17.3565 18.3084 19.6298 19.25 22.0002 19.25C24.3706 19.25 26.6439 18.3084 28.32 16.6323C29.9961 14.9562 30.9377 12.6829 30.9377 10.3125C30.9377 10.2838 30.9368 10.2553 30.9366 10.2266C33.7465 12.3654 35.7023 15.4356 36.453 18.8862ZM15.8471 14.7039C15.9214 14.2322 16.1166 13.7878 16.4137 13.4139C16.7108 13.04 17.0996 12.7495 17.5424 12.5705C17.6543 12.5257 17.7526 12.4522 17.8272 12.3575C17.9018 12.2627 17.9501 12.15 17.9674 12.0306C17.9846 11.9112 17.9702 11.7894 17.9255 11.6774C17.8808 11.5654 17.8074 11.4671 17.7127 11.3924C17.4879 11.2157 17.3239 10.9733 17.2433 10.699C17.1627 10.4246 17.1697 10.132 17.2632 9.86183C17.3567 9.59164 17.5321 9.35732 17.765 9.19147C17.9979 9.02562 18.2767 8.93649 18.5626 8.93649C18.8485 8.93649 19.1273 9.02562 19.3602 9.19147C19.5931 9.35732 19.7685 9.59164 19.862 9.86183C19.9555 10.132 19.9624 10.4246 19.8819 10.699C19.8013 10.9733 19.6372 11.2157 19.4125 11.3924C19.3177 11.4671 19.2442 11.5654 19.1995 11.6774C19.1548 11.7895 19.1403 11.9113 19.1575 12.0307C19.1748 12.1501 19.2232 12.2629 19.2978 12.3577C19.3725 12.4525 19.4707 12.526 19.5828 12.5708C20.0945 12.7733 20.5332 13.1254 20.8418 13.581C21.1504 14.0366 21.3145 14.5747 21.3127 15.125V17.8435C20.2295 17.7439 19.1805 17.4119 18.2373 16.8701C17.2941 16.3283 16.4788 15.5894 15.8471 14.7039ZM22.6877 17.8435V15.125C22.686 14.5748 22.8502 14.0368 23.1588 13.5813C23.4674 13.1258 23.9061 12.7738 24.4177 12.5713C24.5297 12.5265 24.628 12.453 24.7027 12.3582C24.7773 12.2634 24.8257 12.1507 24.843 12.0312C24.8602 11.9118 24.8457 11.79 24.801 11.6779C24.7563 11.5659 24.6828 11.4676 24.588 11.3929C24.3633 11.2162 24.1992 10.9738 24.1186 10.6995C24.0381 10.4252 24.045 10.1325 24.1385 9.86235C24.232 9.59216 24.4074 9.35783 24.6403 9.19199C24.8732 9.02614 25.152 8.93701 25.4379 8.93701C25.7238 8.93701 26.0026 9.02614 26.2355 9.19199C26.4684 9.35783 26.6438 9.59216 26.7373 9.86235C26.8308 10.1325 26.8378 10.4252 26.7572 10.6995C26.6766 10.9738 26.5126 11.2162 26.2878 11.3929C26.1931 11.4676 26.1197 11.5659 26.075 11.6779C26.0303 11.7899 26.0159 11.9117 26.0331 12.0311C26.0504 12.1505 26.0987 12.2632 26.1733 12.358C26.2479 12.4527 26.3461 12.5262 26.4581 12.571C26.9008 12.7499 27.2896 13.0404 27.5866 13.4142C27.8837 13.788 28.0789 14.2323 28.1533 14.7039C27.5216 15.5894 26.7063 16.3283 25.7631 16.8701C24.8199 17.4119 23.7709 17.7439 22.6877 17.8435ZM29.0287 13.1037C28.7231 12.5617 28.3 12.0952 27.7905 11.7382C28.0428 11.3212 28.1798 10.8446 28.1873 10.3573C28.1949 9.86993 28.0728 9.38933 27.8335 8.9647C27.5943 8.54006 27.2465 8.18664 26.8257 7.94063C26.4049 7.69462 25.9264 7.56485 25.439 7.56462C24.9516 7.56439 24.4728 7.6937 24.0519 7.93931C23.6309 8.18492 23.2827 8.53801 23.0431 8.96242C22.8034 9.38683 22.6808 9.86731 22.6879 10.3547C22.695 10.842 22.8315 11.3187 23.0834 11.736C22.6555 12.032 22.2879 12.4069 22.0002 12.8405C21.7127 12.4069 21.3452 12.0321 20.9174 11.736C21.1693 11.3187 21.3058 10.842 21.3129 10.3547C21.32 9.86731 21.1974 9.38683 20.9578 8.96242C20.7181 8.53801 20.37 8.18492 19.949 7.93931C19.528 7.6937 19.0493 7.56439 18.5619 7.56462C18.0745 7.56485 17.5959 7.69462 17.1751 7.94063C16.7544 8.18664 16.4066 8.54006 16.1673 8.9647C15.9281 9.38933 15.806 9.86993 15.8135 10.3573C15.8211 10.8446 15.958 11.3212 16.2103 11.7382C15.7008 12.0952 15.2777 12.5617 14.9721 13.1037C14.5166 11.9565 14.3487 10.7153 14.4831 9.48838C14.6176 8.26144 15.0504 7.08606 15.7436 6.06483C16.4368 5.04361 17.3695 4.20759 18.4601 3.62974C19.5508 3.05189 20.7663 2.74978 22.0006 2.74978C23.2349 2.74978 24.4505 3.05189 25.5411 3.62974C26.6318 4.20759 27.5644 5.04361 28.2577 6.06483C28.9509 7.08606 29.3836 8.26144 29.5181 9.48838C29.6526 10.7153 29.4847 11.9565 29.0291 13.1037H29.0287Z" fill="#0066CC"/>
</svg>
