<svg width="102" height="102" viewBox="0 0 102 102" fill="none" xmlns="http://www.w3.org/2000/svg">
<rect width="102" height="102" rx="11" fill="#6495ED"/>
<path d="M83.2593 78.9982L73.2562 46.6121C73.0819 46.048 72.4832 45.7315 71.9191 45.906C71.3548 46.0804 71.0386 46.679 71.213 47.2431L81.2161 79.6292C81.2339 79.6871 81.219 79.7346 81.2032 79.7642C81.187 79.795 81.1546 79.8355 81.093 79.8545L75.4353 81.5846C74.8706 81.7573 74.5528 82.355 74.7255 82.9197C74.8662 83.3802 75.2898 83.6766 75.7475 83.6766C75.8512 83.6766 75.9565 83.6615 76.0606 83.6296L81.7182 81.8994C82.3137 81.7175 82.8018 81.3147 83.0928 80.7656C83.3832 80.2178 83.4422 79.5903 83.2593 78.9982Z" fill="white"/>
<path d="M70.556 83.0767L58.9645 86.6213C58.8644 86.6522 58.7585 86.5975 58.7282 86.4998L45.4902 43.6397C45.4164 43.4009 45.4463 43.1397 45.5722 42.9234C47.2037 40.1206 49.7767 35.7001 51.4269 32.865C51.7012 32.394 52.1404 32.0464 52.6641 31.8863L55.4008 31.0493C55.7843 30.9321 56.1872 30.9244 56.5695 31.0209C56.4389 32.0863 56.2101 33.1155 55.8868 34.075C53.6231 34.1488 51.933 36.6058 52.7019 38.7438C53.1944 40.2459 54.5995 41.2022 56.1057 41.2022C57.4236 41.2123 58.7103 40.4335 59.2956 39.2457C60.1599 37.6555 59.5075 35.4717 57.9662 34.5935C58.2409 33.7481 58.4537 32.8602 58.5992 31.9455L67.5021 36.2191C67.7304 36.3288 67.9036 36.5292 67.9778 36.769L69.6627 42.2243C69.8372 42.7885 70.4368 43.1045 70.9998 42.9304C71.5641 42.756 71.8803 42.1574 71.7059 41.5933L70.0211 36.1379C69.7716 35.3307 69.1908 34.6575 68.4274 34.2911L58.8205 29.6795C58.8302 29.4285 58.836 29.1766 58.836 28.9241C58.836 25.5549 57.9819 22.3724 56.4308 19.9629C54.7859 17.4073 52.5502 16 50.1357 16C47.7212 16 45.4856 17.4073 43.8409 19.9627C42.2898 22.3722 41.4357 25.5549 41.4357 28.924C41.4357 29.1972 41.4424 29.4708 41.4538 29.7436L31.8888 35.0012C31.147 35.4088 30.6058 36.1142 30.404 36.9361L29.3387 41.2726C29.1979 41.846 29.5486 42.4251 30.122 42.566C30.6801 42.708 31.2769 42.3607 31.4153 41.7827L32.4806 37.4462C32.5402 37.2037 32.6998 36.9956 32.9188 36.8752L43.1114 31.2726C43.5884 31.0104 44.1433 30.9388 44.6745 31.0718L47.4506 31.7656C47.9831 31.8987 48.4426 32.2245 48.7444 32.683L48.9111 32.9362L47.5824 35.2189C47.1229 34.7725 46.5433 34.4466 45.8884 34.2951C44.0248 33.8228 41.9955 35.0876 41.6079 36.9709C41.1876 38.8204 42.2978 40.6733 44.1013 41.1994L43.724 41.8476C43.2983 42.5794 43.1972 43.4626 43.447 44.2708L49.8913 65.1352L44.5895 86.7204C44.5483 86.8312 44.4887 86.8657 44.3698 86.8488L38.6301 85.4144C38.058 85.2721 37.4768 85.6195 37.3335 86.1925C37.1904 86.7654 37.5386 87.3458 38.1116 87.4891C38.3849 87.5319 44.315 89.1085 44.42 88.994C45.4546 89.0077 46.4356 88.2453 46.6661 87.2303L51.1178 69.1063L56.685 87.131C56.9925 88.1268 57.9156 88.7685 58.9097 88.7685C59.135 88.7685 59.3639 88.7355 59.5899 88.6663L71.1813 85.1217C71.746 84.949 72.0638 84.3512 71.8911 83.7865C71.7185 83.2217 71.1204 82.9041 70.556 83.0767ZM57.3887 38.2776C57.215 38.6194 56.9177 38.8733 56.551 38.9925C55.795 39.2381 54.9798 38.8277 54.7337 38.0772C54.7336 38.0772 54.7336 38.0772 54.7336 38.0772C54.4121 37.1863 55.162 36.1797 56.1023 36.207C56.7089 36.207 57.2742 36.5905 57.4719 37.1934C57.5903 37.554 57.5608 37.9389 57.3887 38.2776ZM47.9693 29.6909L45.1931 28.9972C44.6573 28.8634 44.109 28.8347 43.5744 28.9067C43.5773 25.9495 44.3101 23.1847 45.6389 21.1202C46.8767 19.1974 48.4737 18.1385 50.1357 18.1385C51.7977 18.1385 53.3947 19.1974 54.6325 21.1202C55.9555 23.1753 56.6871 25.9242 56.6965 28.8662C56.0597 28.7677 55.4042 28.8119 54.7753 29.0042L52.0387 29.8412C51.3101 30.0639 50.664 30.4704 50.1542 31.0158C49.5795 30.3669 48.8218 29.9041 47.9693 29.6909ZM44.7812 39.1681C44.006 38.9886 43.5181 38.2156 43.6932 37.4448C43.8487 36.6909 44.6606 36.1895 45.4062 36.3785C45.8679 36.4855 46.2353 36.8058 46.4132 37.2277L45.2689 39.1933C45.1076 39.2114 44.9432 39.2055 44.7812 39.1681Z" fill="white"/>
<path d="M76.3995 76.4461C76.8008 75.6776 76.8788 74.7989 76.6188 73.9718L74.9295 68.5992C74.3928 66.8926 72.5677 65.9405 70.8596 66.476L59.7645 69.9583C58.089 70.446 57.0823 72.3728 57.64 74.0264L59.3292 79.3992C59.8614 81.1211 61.7366 82.0574 63.399 81.5223L74.4944 78.0402C75.3217 77.7805 75.9984 77.2144 76.3995 76.4461ZM74.5041 75.456C74.3673 75.7181 74.1363 75.9111 73.8539 75.9996L62.7585 79.4818C62.1762 79.6655 61.5522 79.3401 61.369 78.7578L59.6799 73.3851C59.4897 72.8213 59.8333 72.1651 60.4047 71.9987L71.5 68.5164C72.0675 68.3333 72.7079 68.6531 72.8896 69.2406L74.5787 74.613C74.6674 74.8949 74.6408 75.1943 74.5041 75.456Z" fill="white"/>
<path d="M55.9704 65.4433C56.0741 65.4433 56.1794 65.4281 56.2835 65.3962L70.7285 60.9781C71.2932 60.8055 71.6109 60.2077 71.4383 59.643C71.2655 59.0782 70.6675 58.7607 70.1032 58.9332L55.6582 63.3513C55.0935 63.5239 54.7757 64.1217 54.9484 64.6864C55.0894 65.1469 55.5128 65.4433 55.9704 65.4433Z" fill="white"/>
<path d="M54.2614 60.7878C54.3651 60.7878 54.4704 60.7727 54.5745 60.7408L66.7367 57.0208C67.3014 56.8482 67.6192 56.2504 67.4466 55.6857C67.2738 55.1208 66.676 54.8034 66.1114 54.9759L53.9492 58.6958C53.3845 58.8685 53.0667 59.4662 53.2394 60.0309C53.3802 60.4916 53.8037 60.7878 54.2614 60.7878Z" fill="white"/>
<path d="M62.9901 51.7686C62.8166 51.204 62.2181 50.8878 61.6539 51.0609L52.4388 53.8958C51.8743 54.0696 51.5574 54.6678 51.7312 55.2322C51.9031 55.8019 52.5183 56.1132 53.0675 55.9399L62.2826 53.105C62.847 52.9312 63.1638 52.333 62.9901 51.7686Z" fill="white"/>
<path d="M33.6807 84.1775L21.9215 81.2388C21.8192 81.2132 21.756 81.111 21.7805 81.0111L30.2258 46.6285C30.3666 46.0551 30.0159 45.4759 29.4425 45.3352C28.8697 45.1936 28.2899 45.5449 28.1492 46.1184L19.7038 80.5011C19.3991 81.7416 20.1614 83.0031 21.403 83.3135L33.1622 86.2522C33.7198 86.3962 34.3178 86.0515 34.4588 85.4741C34.602 84.9011 34.2535 84.3207 33.6807 84.1775Z" fill="white"/>
<path d="M27.2624 69.7604L25.9467 75.2365C25.5287 76.9754 26.6032 78.7325 28.342 79.1535L39.6439 81.8902C41.3244 82.3372 43.1895 81.2028 43.5593 79.4976L44.875 74.0216C45.293 72.2828 44.2184 70.5257 42.4795 70.1044L31.1777 67.3679C29.4897 66.9214 27.6353 68.0552 27.2624 69.7604ZM29.8383 69.577C30.0906 69.4224 30.3897 69.3771 30.6744 69.4462L41.9761 72.1828C42.5709 72.3269 42.9384 72.9275 42.7957 73.5219L41.48 78.9979C41.3525 79.5789 40.7222 79.9638 40.1469 79.8118L28.845 77.0752C28.2504 76.9312 27.8828 76.3305 28.0257 75.7362L29.3414 70.2601C29.4106 69.9733 29.5871 69.7306 29.8383 69.577Z" fill="white"/>
</svg>
