<svg width="67" height="67" viewBox="0 0 67 67" fill="none" xmlns="http://www.w3.org/2000/svg">
<rect width="67" height="67" rx="11" fill="white"/>
<path d="M19.0113 28.9193C19.3157 29.4244 19.3269 30.0591 19.0406 30.5757C18.6987 31.1928 18.8581 31.9508 19.4197 32.3776C20.079 32.879 20.8047 33.281 21.5765 33.5726C21.7427 33.6354 21.9131 33.6655 22.0805 33.6655C22.5791 33.6655 23.0511 33.3986 23.3063 32.9348C23.5912 32.417 24.1349 32.0886 24.7251 32.0776C25.314 32.0651 25.8707 32.3746 26.1748 32.8814C26.5386 33.4875 27.2755 33.7285 27.9272 33.4542C28.6874 33.1341 29.3976 32.7053 30.038 32.1796C30.5833 31.732 30.7144 30.9687 30.3495 30.3648C30.0442 29.8593 30.0318 29.2246 30.3171 28.7085C30.6025 28.1921 31.1468 27.865 31.7376 27.8548C32.4448 27.8426 33.0218 27.3244 33.1095 26.6227C33.1603 26.2169 33.1821 25.8022 33.1744 25.3904C33.1668 24.9787 33.1294 24.5651 33.0636 24.1613C32.9512 23.473 32.3704 22.9808 31.6762 22.9808C31.6665 22.9808 31.6565 22.981 31.6467 22.9812C31.0547 22.9945 30.5 22.6865 30.1955 22.1812C29.8911 21.6759 29.8798 21.0412 30.1662 20.5247C30.5081 19.9076 30.3487 19.1496 29.7871 18.7227C29.1277 18.2214 28.402 17.8194 27.6302 17.5278C26.9688 17.2782 26.2413 17.5463 25.9005 18.1656C25.6155 18.6834 25.0719 19.0119 24.4817 19.0229C23.8911 19.0311 23.336 18.7258 23.0319 18.219C22.6681 17.6129 21.9311 17.3719 21.2796 17.6463C20.5191 17.9665 19.8089 18.3953 19.1688 18.9208C18.6235 19.3683 18.4924 20.1316 18.8572 20.7356C19.1625 21.2412 19.1749 21.8758 18.8896 22.3919C18.6042 22.9083 18.0599 23.2354 17.4691 23.2456C16.7619 23.2578 16.1849 23.7759 16.0972 24.4777C16.0465 24.8837 16.0246 25.2983 16.0323 25.71C16.0399 26.1215 16.0773 26.5351 16.1431 26.9392C16.257 27.6372 16.8512 28.1315 17.56 28.1192C18.1522 28.1063 18.7069 28.4139 19.0113 28.9193ZM16.9141 26.8133C16.8542 26.4458 16.8203 26.0697 16.8133 25.6954C16.8063 25.3208 16.8262 24.9437 16.8723 24.5744C16.9114 24.2624 17.168 24.0319 17.4826 24.0265C18.3519 24.0115 19.153 23.5299 19.5733 22.7697C19.9933 22.0097 19.9751 21.0755 19.5258 20.3315C19.3636 20.0629 19.4219 19.7234 19.6644 19.5243C20.2462 19.0467 20.8916 18.6569 21.5826 18.3661C21.8724 18.244 22.2002 18.3512 22.362 18.6208C22.8096 19.3666 23.6287 19.8226 24.4962 19.8037C25.3651 19.7876 26.1654 19.3041 26.5848 18.5422C26.7364 18.2667 27.0599 18.1472 27.3541 18.2585C28.0554 18.5233 28.7148 18.8887 29.3142 19.3444C29.564 19.5344 29.6348 19.8713 29.4827 20.1458C29.0615 20.906 29.0781 21.8403 29.5262 22.5841C29.9746 23.3283 30.794 23.7794 31.6624 23.7621C31.975 23.756 32.2419 23.9765 32.2926 24.287C32.3525 24.6542 32.3864 25.0303 32.3934 25.4048C32.4004 25.7797 32.3805 26.1568 32.3344 26.5258C32.2953 26.8379 32.0387 27.0683 31.7242 27.0738C30.8548 27.0887 30.0537 27.5703 29.6334 28.3306C29.2133 29.0905 29.2315 30.0248 29.6808 30.7688C29.8431 31.0374 29.7848 31.3768 29.5423 31.5759C28.9602 32.0538 28.3148 32.4435 27.6241 32.7343C27.3344 32.8564 27.0065 32.7491 26.8448 32.4795C26.3972 31.7335 25.579 31.2785 24.7105 31.2965C23.8416 31.3127 23.0413 31.7962 22.6219 32.5581C22.4703 32.8336 22.1467 32.9529 21.8526 32.8418C21.1513 32.5769 20.4919 32.2115 19.8926 31.7558C19.6428 31.5659 19.5719 31.2289 19.724 30.9544C20.1452 30.1942 20.1286 29.2599 19.6805 28.5162C19.2405 27.7859 18.4441 27.3376 17.593 27.3376C17.5768 27.3376 17.5605 27.3378 17.5443 27.3381C17.2334 27.344 16.9648 27.1237 16.9141 26.8133ZM24.6018 28.7256C24.622 28.7256 24.6423 28.7255 24.6626 28.7251C25.5106 28.7093 26.3018 28.3641 26.8903 27.7533C27.4788 27.1424 27.7942 26.3389 27.7783 25.4909C27.7461 23.7602 26.328 22.3746 24.6042 22.3746C24.5844 22.3746 24.5641 22.3747 24.5441 22.3751C22.7934 22.4078 21.3958 23.8586 21.4284 25.6092C21.4443 26.4573 21.7894 27.2485 22.4002 27.837C22.9964 28.4115 23.7762 28.7256 24.6018 28.7256ZM24.5587 23.1562C24.5738 23.1559 24.5889 23.1558 24.604 23.1558C25.9036 23.1558 26.9729 24.2006 26.9972 25.5054C27.0091 26.1449 26.7713 26.7506 26.3276 27.2112C25.8838 27.6719 25.2873 27.9321 24.6479 27.944C24.008 27.9573 23.4026 27.7181 22.9421 27.2744C22.4815 26.8307 22.2213 26.2342 22.2094 25.5947C22.1849 24.2747 23.2387 23.1808 24.5587 23.1562ZM32.2966 43.2881C31.7794 43.003 31.4514 42.4596 31.4404 41.87C31.4294 41.28 31.7372 40.7246 32.2437 40.4204C32.8501 40.0563 33.0906 39.319 32.8158 38.6674C32.6567 38.2904 32.4683 37.9203 32.2558 37.5677C32.0436 37.2154 31.8045 36.8759 31.5452 36.5587C31.0976 36.0112 30.3333 35.8795 29.7281 36.2451C29.2225 36.5506 28.5876 36.5633 28.0712 36.2779C27.5551 35.9926 27.228 35.4485 27.2176 34.858C27.2051 34.1525 26.6882 33.5758 25.9883 33.4869C25.1665 33.3825 24.3371 33.3972 23.523 33.5305C22.8252 33.6449 22.3294 34.2409 22.3438 34.9479C22.3559 35.5387 22.0493 36.0951 21.5438 36.3996C21.0383 36.7042 20.4031 36.7152 19.8864 36.4283C19.2683 36.0853 18.5096 36.2452 18.0824 36.8085C17.584 37.4659 17.1833 38.1923 16.8917 38.9676C16.6433 39.628 16.9114 40.3544 17.5293 40.6951C18.0465 40.9802 18.3746 41.5237 18.3855 42.1134C18.3965 42.7033 18.0887 43.2587 17.5822 43.5629C16.9758 43.927 16.7352 44.6644 17.0101 45.3159C17.1691 45.6928 17.3576 46.0629 17.5701 46.4156C17.7826 46.7684 18.0217 47.1078 18.2807 47.4245C18.7283 47.9722 19.4926 48.104 20.0978 47.7382C20.6034 47.4326 21.2383 47.4201 21.7547 47.7055C22.2708 47.9908 22.598 48.5348 22.6083 49.1253C22.6207 49.8307 23.1377 50.4073 23.8376 50.4964C24.1981 50.5422 24.56 50.5651 24.9216 50.5651C25.384 50.5651 25.8459 50.5277 26.303 50.4528C26.303 50.4527 26.303 50.4527 26.303 50.4527C27.0006 50.3383 27.4965 49.7423 27.4821 49.0355C27.47 48.4446 27.7765 47.8883 28.2822 47.5837C28.7876 47.2791 29.4228 47.268 29.9396 47.555C30.5577 47.898 31.3164 47.7381 31.7436 47.1748C32.242 46.5175 32.6426 45.7911 32.9343 45.0157C33.1826 44.3554 32.9144 43.6288 32.2966 43.2881ZM32.203 44.7406C31.9379 45.4454 31.5739 46.1056 31.121 46.7029C30.9309 46.9533 30.5936 47.0244 30.3187 46.8719C29.558 46.4497 28.6232 46.4662 27.8789 46.9145C27.1345 47.363 26.6831 48.1819 26.7009 49.0515C26.7073 49.3658 26.4868 49.6309 26.1765 49.6818C25.4366 49.8031 24.6828 49.8163 23.9361 49.7214C23.6248 49.6818 23.3949 49.4254 23.3894 49.1115C23.3741 48.2426 22.8925 47.4418 22.1326 47.0217C21.7669 46.8196 21.3609 46.7189 20.9551 46.7189C20.5173 46.7189 20.0798 46.8362 19.6936 47.0696C19.4244 47.2322 19.0846 47.1737 18.8855 46.9301C18.65 46.642 18.4326 46.3333 18.2392 46.0125C18.0458 45.6915 17.8745 45.355 17.7299 45.0122C17.6076 44.7224 17.7146 44.3945 17.9843 44.2326C18.7298 43.785 19.1827 42.9674 19.1665 42.0988C19.1504 41.2307 18.6675 40.4305 17.9064 40.0109C17.6316 39.8594 17.5124 39.5363 17.6229 39.2426C17.888 38.5379 18.2521 37.8777 18.7049 37.2804C18.8949 37.0299 19.2323 36.9589 19.5073 37.1113C20.2678 37.5337 21.2026 37.5172 21.947 37.0687C22.6913 36.6201 23.1427 35.8013 23.125 34.9317C23.1185 34.6173 23.339 34.3522 23.6494 34.3014C24.389 34.1802 25.1429 34.1667 25.8899 34.2619C26.2012 34.3014 26.4311 34.5578 26.4366 34.8716C26.4519 35.7407 26.9335 36.5415 27.6934 36.9615C28.4538 37.3818 29.3883 37.3634 30.1323 36.9137C30.4015 36.7511 30.7414 36.8097 30.9405 37.053C31.1762 37.3415 31.3937 37.6503 31.5867 37.9708C31.7801 38.2916 31.9514 38.6281 32.096 38.971C32.2183 39.2608 32.1112 39.5887 31.8415 39.7506C31.0962 40.1982 30.6432 41.0158 30.6594 41.8844C30.6756 42.7526 31.1584 43.5526 31.9195 43.9722C32.1942 44.1238 32.3135 44.4469 32.203 44.7406ZM25.6774 38.9096C24.854 38.7055 24.0006 38.834 23.2741 39.2718C22.5476 39.7095 22.035 40.4039 21.8308 41.2271C21.6265 42.0504 21.7551 42.9039 22.1929 43.6305C22.6306 44.357 23.3251 44.8696 24.1483 45.0739C24.4038 45.1372 24.6621 45.1686 24.9186 45.1686C25.489 45.1686 26.0505 45.0137 26.5516 44.7117C28.0514 43.8081 28.5364 41.8527 27.6328 40.353C27.1951 39.6263 26.5007 39.1138 25.6774 38.9096ZM26.1484 44.0426C25.6007 44.3726 24.9571 44.4695 24.3364 44.3155C23.7157 44.1615 23.1921 43.7751 22.862 43.2272C22.5319 42.6794 22.435 42.0359 22.589 41.4152C22.743 40.7945 23.1294 40.2709 23.6773 39.9408C24.0551 39.7132 24.4784 39.5965 24.9085 39.5965C25.1019 39.5965 25.2967 39.6201 25.4893 39.6679C26.11 39.8219 26.6336 40.2083 26.9637 40.7561C27.645 41.8869 27.2793 43.3612 26.1484 44.0426ZM51.2066 35.3989C50.6496 35.0918 50.2962 34.5065 50.2844 33.8715C50.2726 33.2362 50.604 32.6381 51.1496 32.3105C51.7832 31.9301 52.0346 31.1597 51.7473 30.4787C51.5788 30.0793 51.3792 29.6872 51.1541 29.3136C50.9291 28.9401 50.6758 28.5805 50.4012 28.2446C49.9335 27.6724 49.135 27.5347 48.5024 27.9169C47.9579 28.246 47.2741 28.2596 46.718 27.9522C46.1622 27.6449 45.8098 27.059 45.7987 26.4231C45.7857 25.6859 45.2455 25.0834 44.5141 24.9904C43.6438 24.8796 42.7651 24.8952 41.9023 25.0365C41.1731 25.156 40.655 25.7788 40.6701 26.5175C40.6831 27.1539 40.3529 27.753 39.8084 28.0811C39.264 28.409 38.5801 28.4209 38.0235 28.1121C37.3775 27.7534 36.5847 27.9206 36.1383 28.5093C35.6104 29.2057 35.1859 29.9753 34.8769 30.7966C34.6173 31.4867 34.8975 32.2459 35.5431 32.6019C36.1001 32.909 36.4534 33.4942 36.4653 34.1292C36.4771 34.7646 36.1456 35.3627 35.6001 35.6902C34.9665 36.0707 34.7151 36.8411 35.0023 37.5221C35.1708 37.9215 35.3704 38.3136 35.5955 38.6872C35.8207 39.0608 36.074 39.4206 36.3483 39.7562C36.8162 40.3283 37.6148 40.4661 38.2473 40.0839C38.7917 39.7547 39.4755 39.7412 40.0316 40.0487C40.5875 40.3559 40.9398 40.9419 40.951 41.5777C40.964 42.3149 41.5042 42.9174 42.2355 43.0105C42.6175 43.059 43.0009 43.0833 43.384 43.0833C43.874 43.0833 44.3633 43.0436 44.8473 42.9643C45.5765 42.8448 46.0947 42.222 46.0795 41.4833C46.0665 40.8469 46.3967 40.2479 46.9412 39.9198C47.4856 39.5918 48.1695 39.5798 48.7262 39.8888C49.3722 40.2476 50.1651 40.0803 50.6113 39.4916C51.1394 38.7952 51.5637 38.0256 51.8727 37.2042C52.1325 36.514 51.8523 35.7549 51.2066 35.3989ZM51.1417 36.929C50.8592 37.6799 50.4714 38.3833 49.9889 39.0197C49.7798 39.2955 49.4083 39.3738 49.1055 39.2058C48.3051 38.7615 47.3215 38.7786 46.5381 39.2507C45.7548 39.7226 45.2799 40.5842 45.2986 41.4994C45.3057 41.8455 45.0628 42.1373 44.7212 42.1933C44.7212 42.1933 44.7212 42.1933 44.7211 42.1933C43.9331 42.3225 43.13 42.3368 42.3342 42.2355C41.9915 42.1919 41.7383 41.9095 41.7322 41.564C41.7161 40.6496 41.2094 39.8069 40.4097 39.365C40.0248 39.1522 39.5976 39.0464 39.1708 39.0464C38.7101 39.0464 38.2497 39.1697 37.8433 39.4154C37.5469 39.5947 37.1726 39.53 36.9533 39.2618C36.7025 38.9549 36.4708 38.626 36.2648 38.2841C36.0588 37.9422 35.8763 37.5837 35.7223 37.2185C35.5876 36.8994 35.7055 36.5383 36.0024 36.3601C36.7868 35.889 37.2635 35.0287 37.2465 34.1147C37.2294 33.2012 36.7213 32.3594 35.9204 31.9177C35.6178 31.7509 35.4865 31.3951 35.6081 31.0718C35.8906 30.321 36.2785 29.6176 36.7609 28.9812C36.9701 28.7054 37.3418 28.627 37.6444 28.7951C38.4448 29.2393 39.4284 29.222 40.2116 28.7502C40.9949 28.2783 41.4698 27.4167 41.4512 26.5015C41.4441 26.1554 41.6869 25.8635 42.0287 25.8076C42.8171 25.6783 43.6202 25.6641 44.4156 25.7654C44.7583 25.809 45.0115 26.0914 45.0176 26.4369C45.0337 27.3513 45.5405 28.194 46.3401 28.6359C47.1401 29.078 48.1235 29.0588 48.9065 28.5855C49.203 28.4063 49.5772 28.4709 49.7964 28.739C50.0474 29.0462 50.2791 29.3751 50.4849 29.7167C50.6908 30.0586 50.8734 30.4171 51.0275 30.7823C51.1621 31.1015 51.0443 31.4625 50.7473 31.6408C49.9629 32.1119 49.4862 32.9722 49.5033 33.8861C49.5203 34.7996 50.0284 35.6415 50.8294 36.0831C51.132 36.2499 51.2633 36.6057 51.1417 36.929ZM31.9145 18.3405C31.9145 18.1247 32.0894 17.9498 32.3051 17.9498H43.4985C43.7142 17.9498 43.8891 18.1247 43.8891 18.3405V22.3076L44.9826 21.2142C45.1352 21.0616 45.3825 21.0616 45.5351 21.2142C45.6876 21.3667 45.6876 21.614 45.5351 21.7665L43.7755 23.5262C43.705 23.597 43.6075 23.641 43.4998 23.6413C43.4994 23.6413 43.499 23.6413 43.4985 23.6413C43.4983 23.6413 43.4981 23.6413 43.498 23.6413C43.39 23.6412 43.2923 23.5972 43.2216 23.5262L41.4621 21.7665C41.3095 21.614 41.3096 21.3667 41.4621 21.2142C41.6147 21.0616 41.8619 21.0617 42.0145 21.2142L43.108 22.3076V18.7311H32.3051C32.0894 18.7311 31.9145 18.5562 31.9145 18.3405ZM45.5351 46.2341C45.6876 46.3866 45.6876 46.634 45.5351 46.7865C45.3825 46.939 45.1351 46.939 44.9826 46.7865L43.8891 45.693V49.6602C43.8891 49.876 43.7142 50.0508 43.4985 50.0508H32.3051C32.0894 50.0508 31.9145 49.876 31.9145 49.6602C31.9145 49.4444 32.0894 49.2696 32.3051 49.2696H43.1079V45.6931L42.0144 46.7865C41.8619 46.939 41.6146 46.939 41.462 46.7865C41.3094 46.634 41.3094 46.3866 41.462 46.2341L43.2215 44.4746C43.2238 44.4723 43.2262 44.4701 43.2284 44.4678L43.2287 44.4676L43.2291 44.4671L43.2297 44.4665C43.2297 44.4665 43.2298 44.4665 43.2298 44.4665C43.2647 44.4333 43.3042 44.408 43.3462 44.3901C43.4387 44.351 43.5545 44.3505 43.6474 44.3888C43.6908 44.4067 43.7318 44.4328 43.7677 44.4671C43.7678 44.4672 43.7679 44.4673 43.768 44.4674L43.7684 44.4678L43.7691 44.4685H43.7692C43.7712 44.4705 43.7733 44.4725 43.7752 44.4745L45.5351 46.2341ZM43.3749 28.9808C40.6071 28.9808 38.3554 31.2326 38.3554 34.0004C38.3554 36.7682 40.6071 39.02 43.3749 39.02C46.1427 39.02 48.3944 36.7682 48.3944 34.0004C48.3944 31.2326 46.1427 28.9808 43.3749 28.9808ZM43.3749 38.2387C41.0379 38.2387 39.1366 36.3374 39.1366 34.0004C39.1366 31.6633 41.0379 29.7621 43.3749 29.7621C45.7119 29.7621 47.6132 31.6633 47.6132 34.0004C47.6132 36.3374 45.7119 38.2387 43.3749 38.2387ZM45.4617 34.9694C45.4617 35.7192 44.8517 36.3291 44.102 36.3291H43.7655V36.9874C43.7655 37.2032 43.5906 37.378 43.3749 37.378C43.1592 37.378 42.9843 37.2032 42.9843 36.9874V36.3291H41.8815C41.6658 36.3291 41.4908 36.1543 41.4908 35.9385C41.4908 35.7227 41.6658 35.5479 41.8815 35.5479H44.1019C44.4209 35.5479 44.6804 35.2884 44.6804 34.9694C44.6804 34.6504 44.4209 34.391 44.1019 34.391H42.6477C41.898 34.391 41.288 33.781 41.288 33.0314C41.288 32.2816 41.898 31.6717 42.6477 31.6717H42.9843V31.0134C42.9843 30.7976 43.1592 30.6228 43.3749 30.6228C43.5906 30.6228 43.7655 30.7976 43.7655 31.0134V31.6717H44.8683C45.084 31.6717 45.2589 31.8465 45.2589 32.0623C45.2589 32.2781 45.084 32.453 44.8683 32.453H42.6478C42.3288 32.453 42.0694 32.7124 42.0694 33.0314C42.0694 33.3503 42.3288 33.6097 42.6478 33.6097H44.102C44.8517 33.6097 45.4617 34.2197 45.4617 34.9694Z" fill="#6495ED"/>
</svg>
