<svg width="39" height="39" viewBox="0 0 39 39" fill="none" xmlns="http://www.w3.org/2000/svg">
<g clip-path="url(#clip0_1_1537)">
<path d="M2.93057 39H12.5666C12.9138 38.9975 13.256 38.9164 13.5673 38.7626C13.8787 38.6088 14.1511 38.3864 14.3641 38.1122C14.5771 37.8379 14.7251 37.5189 14.797 37.1792C14.8689 36.8395 14.8628 36.4879 14.7793 36.1509C14.4739 34.9423 14.2802 33.7082 14.2003 32.4641C15.931 33.4983 17.3258 33.7301 18.3538 33.1512C18.8263 32.8629 19.22 32.4621 19.4998 31.9846C19.7798 32.4626 20.1739 32.8637 20.6469 33.1521C21.6746 33.731 23.0695 33.4992 24.8004 32.4651C24.7208 33.7091 24.527 34.9432 24.2215 36.1518C24.1381 36.4887 24.1321 36.8401 24.204 37.1797C24.2759 37.5192 24.4238 37.8381 24.6367 38.1122C24.8496 38.3864 25.1219 38.6087 25.433 38.7624C25.7442 38.9162 26.0862 38.9974 26.4332 39H36.069C36.5863 39.002 37.0888 38.8276 37.4936 38.5057C37.8985 38.1837 38.1815 37.7333 38.296 37.2288C39.0711 33.8654 40.2719 25.6529 34.6912 22.0466C33.8135 21.4786 32.8263 21.101 31.7936 20.9383C30.7608 20.7756 29.7054 20.8314 28.6956 21.102C26.3114 21.7465 25.5128 23.1194 24.5881 24.7102C24.1052 25.6008 23.5311 26.4389 22.8748 27.2107C22.2584 27.8839 21.5508 28.4675 20.7725 28.9444C20.2875 29.2181 19.8562 29.5777 19.4998 30.0056C19.1431 29.5781 18.7118 29.2188 18.2268 28.9453C17.4485 28.4684 16.7409 27.8848 16.1245 27.2116C15.4684 26.4394 14.8943 25.6011 14.4115 24.7102C13.4871 23.1203 12.6888 21.7474 10.3049 21.1036C9.29501 20.8329 8.23957 20.7772 7.20676 20.9399C6.17396 21.1026 5.18677 21.4801 4.30897 22.0481C-1.2726 25.6547 -0.0718229 33.8654 0.703607 37.2288C0.818026 37.7333 1.10101 38.1837 1.50588 38.5057C1.91074 38.8277 2.41328 39.0021 2.93057 39ZM21.2761 29.707C22.123 29.1873 22.8923 28.5506 23.5613 27.8158C24.2573 26.9985 24.8668 26.1115 25.3802 25.1687C26.2709 23.6374 26.914 22.5307 28.935 21.985C29.8212 21.7477 30.7474 21.6989 31.6536 21.8417C32.5599 21.9845 33.4261 22.3157 34.1964 22.8141C39.2911 26.1065 38.1387 33.848 37.4069 37.0235C37.3381 37.3264 37.168 37.5968 36.9247 37.79C36.6815 37.9831 36.3796 38.0875 36.069 38.0859H34.1446C35.1711 34.8398 35.5218 32.0516 35.186 29.7923C35.179 29.7315 35.1598 29.6727 35.1295 29.6194C35.0993 29.5661 35.0587 29.5195 35.0101 29.4822C34.9615 29.4449 34.9059 29.4178 34.8466 29.4025C34.7873 29.3871 34.7255 29.3838 34.6649 29.3928C34.6044 29.4018 34.5462 29.4229 34.4939 29.4548C34.4416 29.4867 34.3963 29.5288 34.3606 29.5786C34.3249 29.6283 34.2996 29.6848 34.2861 29.7445C34.2727 29.8043 34.2714 29.8661 34.2823 29.9264C34.6062 32.1095 34.2314 34.8566 33.1802 38.0859H26.4332C26.2252 38.0845 26.0202 38.036 25.8336 37.9439C25.647 37.8519 25.4837 37.7188 25.3559 37.5546C25.2282 37.3904 25.1393 37.1994 25.0959 36.9959C25.0526 36.7924 25.056 36.5817 25.1057 36.3797C25.497 34.8196 25.7163 33.2213 25.7596 31.6135C25.7742 31.154 25.7733 30.6799 25.7575 30.2783C25.7527 30.1603 25.7025 30.0487 25.6173 29.9669C25.5321 29.8851 25.4185 29.8395 25.3004 29.8396H25.2818C25.1608 29.8444 25.0465 29.8971 24.9643 29.9861C24.8821 30.0752 24.8386 30.1932 24.8434 30.3143C24.8556 30.6232 24.858 30.991 24.8507 31.3523C23.6511 32.1534 22.0918 32.9187 21.0942 32.3578C20.6871 32.1287 20.0866 31.4495 20.1082 30.9477C20.1287 30.4834 20.5019 30.2174 21.2761 29.707ZM4.8044 22.8141C5.57472 22.3157 6.441 21.9844 7.34731 21.8416C8.25361 21.6988 9.17979 21.7477 10.066 21.985C12.0867 22.5307 12.7302 23.6374 13.6208 25.1687C14.1342 26.1113 14.7436 26.9983 15.4395 27.8155C16.1086 28.5503 16.8778 29.1871 17.7247 29.707C18.4989 30.2174 18.8721 30.4834 18.8919 30.9456C18.9139 31.4474 18.313 32.1266 17.906 32.3557C16.9072 32.9172 15.3487 32.1515 14.1495 31.3502C14.1425 30.9888 14.1446 30.6211 14.1565 30.3115C14.1612 30.1904 14.1176 30.0725 14.0353 29.9835C13.953 29.8945 13.8388 29.8419 13.7177 29.8371C13.5969 29.8336 13.4796 29.8776 13.3908 29.9596C13.3021 30.0417 13.249 30.1552 13.243 30.2759C13.2275 30.6781 13.2266 31.1522 13.2412 31.6107C13.2839 33.2194 13.5026 34.8186 13.8935 36.3797C13.9433 36.5817 13.9466 36.7923 13.9033 36.9958C13.86 37.1993 13.7712 37.3903 13.6434 37.5545C13.5157 37.7187 13.3524 37.8518 13.1659 37.9438C12.9793 38.0359 12.7743 38.0845 12.5663 38.0859H5.81596C4.76418 34.8562 4.39307 32.1104 4.71908 29.9264C4.73686 29.8065 4.70627 29.6844 4.63405 29.587C4.56182 29.4897 4.45388 29.425 4.33396 29.4072C4.21404 29.3894 4.09197 29.42 3.9946 29.4923C3.89724 29.5645 3.83255 29.6724 3.81477 29.7923C3.47961 32.0516 3.83031 34.8398 4.8565 38.0859H2.93057C2.62022 38.0871 2.31872 37.9826 2.07579 37.7894C1.83286 37.5963 1.663 37.3261 1.59421 37.0235C0.862349 33.848 -0.290284 26.1068 4.8044 22.8141Z" fill="white"/>
<path d="M16.309 16.5272C16.5314 17.1905 16.9623 17.7641 17.5373 18.1625C18.1124 18.561 18.8008 18.763 19.5 18.7383C20.1991 18.763 20.8875 18.561 21.4626 18.1625C22.0376 17.7641 22.4685 17.1905 22.691 16.5272C23.0247 16.4533 23.3234 16.2679 23.5377 16.0016C23.752 15.7352 23.8691 15.4038 23.8698 15.0619V14.5439C23.8698 14.3266 23.9173 14.1119 24.0088 13.9148C24.1003 13.7177 24.2337 13.5429 24.3996 13.4026C25.5863 12.3987 26.4361 11.0546 26.8339 9.55197C27.2317 8.04938 27.1583 6.46086 26.6238 5.00131C26.0893 3.54175 25.1193 2.28161 23.8452 1.39133C22.571 0.501064 21.0542 0.0236359 19.4998 0.0236359C17.9454 0.0236359 16.4286 0.501064 15.1545 1.39133C13.8803 2.28161 12.9104 3.54175 12.3758 5.00131C11.8413 6.46086 11.768 8.04938 12.1657 9.55197C12.5635 11.0546 13.4133 12.3987 14.6 13.4026C14.766 13.5429 14.8994 13.7176 14.991 13.9148C15.0826 14.1119 15.13 14.3266 15.1301 14.5439V15.0619C15.1308 15.4038 15.2479 15.7352 15.4622 16.0016C15.6765 16.2679 15.9752 16.4533 16.309 16.5272ZM19.5 17.8242C19.055 17.8389 18.6148 17.7287 18.2292 17.5061C17.8436 17.2835 17.5281 16.9574 17.3184 16.5646H21.6809C21.4713 16.9573 21.1559 17.2835 20.7704 17.5061C20.385 17.7287 19.9449 17.8389 19.5 17.8242ZM22.9557 15.0619C22.9555 15.218 22.8933 15.3676 22.7829 15.478C22.6725 15.5883 22.5229 15.6504 22.3668 15.6506H16.6332C16.4771 15.6504 16.3274 15.5883 16.217 15.478C16.1066 15.3676 16.0444 15.218 16.0442 15.0619V14.5439C16.0442 14.5412 22.9557 14.5412 22.9557 14.5439V15.0619ZM18.0286 10.143H17.5926C17.4801 10.1373 17.3716 10.0987 17.2808 10.032C17.19 9.96528 17.1207 9.87337 17.0817 9.76766C17.0665 9.68943 17.0708 9.60868 17.0941 9.53248C17.1174 9.45628 17.1591 9.38695 17.2154 9.33058C17.2717 9.2742 17.341 9.23249 17.4172 9.20909C17.4933 9.1857 17.5741 9.18133 17.6523 9.19638C17.7583 9.23549 17.8504 9.30484 17.9173 9.39583C17.9842 9.48683 18.0229 9.59546 18.0286 9.70825V10.143ZM18.9427 13.622V11.0571H20.0578V13.622H18.9427ZM12.8273 7.59951C12.829 6.47903 13.1129 5.37702 13.6527 4.39514C14.1925 3.41326 14.9709 2.58313 15.916 1.98132C16.8612 1.3795 17.9427 1.02539 19.0607 0.95163C20.1788 0.877875 21.2974 1.08686 22.3134 1.5593C23.3294 2.03174 24.2101 2.75243 24.8742 3.65489C25.5384 4.55735 25.9645 5.61251 26.1134 6.72306C26.2623 7.8336 26.1292 8.96376 25.7263 10.0093C25.3233 11.0548 24.6636 11.9821 23.8079 12.7055C23.5165 12.9537 23.2884 13.2678 23.1425 13.6217H20.9716V11.0577H21.4064C21.7304 11.0515 22.0435 10.9394 22.2979 10.7386C22.5522 10.5377 22.7338 10.2591 22.815 9.9453C22.8569 9.72008 22.8433 9.48804 22.7754 9.26924C22.7076 9.05043 22.5875 8.85144 22.4255 8.68945C22.2635 8.52746 22.0645 8.40735 21.8457 8.3395C21.6269 8.27164 21.3949 8.25808 21.1696 8.29998C20.8558 8.38104 20.5771 8.56262 20.3762 8.81698C20.1753 9.07133 20.0631 9.38447 20.0569 9.70856V10.143H18.9427V9.70886C18.9364 9.38483 18.8243 9.07176 18.6233 8.81746C18.4224 8.56317 18.1438 8.38164 17.83 8.30059C17.6047 8.25854 17.3726 8.27199 17.1537 8.33979C16.9349 8.4076 16.7358 8.5277 16.5738 8.68973C16.4118 8.85175 16.2917 9.05081 16.2239 9.26969C16.1561 9.48856 16.1426 9.72066 16.1847 9.94591C16.2658 10.2593 16.4473 10.5376 16.7014 10.7382C16.9555 10.9388 17.2683 11.0508 17.592 11.0571H18.0277V13.6214H15.8571C15.7111 13.2676 15.483 12.9536 15.1917 12.7055C14.4502 12.0774 13.8545 11.2952 13.4462 10.4133C13.0378 9.53152 12.8266 8.57128 12.8273 7.59951ZM20.9713 10.143V9.70886C20.9769 9.5961 21.0155 9.48748 21.0823 9.39651C21.1492 9.30554 21.2413 9.23626 21.3473 9.19729C21.4255 9.18167 21.5064 9.1856 21.5828 9.20873C21.6592 9.23186 21.7287 9.27347 21.7851 9.32989C21.8416 9.3863 21.8832 9.45577 21.9064 9.53213C21.9296 9.6085 21.9335 9.6894 21.918 9.76766C21.879 9.87362 21.8097 9.96576 21.7187 10.0326C21.6278 10.0995 21.5191 10.1381 21.4064 10.1436L20.9713 10.143Z" fill="white"/>
<path d="M8.53125 20.1094C9.34478 20.1094 10.14 19.8681 10.8165 19.4161C11.4929 18.9642 12.0201 18.3218 12.3314 17.5702C12.6428 16.8186 12.7242 15.9915 12.5655 15.1936C12.4068 14.3957 12.015 13.6628 11.4398 13.0876C10.8645 12.5123 10.1316 12.1205 9.33371 11.9618C8.53581 11.8031 7.70877 11.8846 6.95717 12.1959C6.20556 12.5072 5.56315 13.0344 5.11118 13.7109C4.65921 14.3873 4.41797 15.1825 4.41797 15.9961C4.41918 17.0866 4.85293 18.1321 5.62406 18.9033C6.39518 19.6744 7.44071 20.1082 8.53125 20.1094ZM8.53125 12.7969C9.164 12.7969 9.78253 12.9845 10.3086 13.336C10.8347 13.6876 11.2448 14.1872 11.4869 14.7718C11.7291 15.3564 11.7924 15.9996 11.669 16.6202C11.5456 17.2408 11.2409 17.8109 10.7934 18.2583C10.346 18.7057 9.77597 19.0104 9.15539 19.1338C8.5348 19.2573 7.89154 19.1939 7.30696 18.9518C6.72238 18.7096 6.22273 18.2996 5.8712 17.7735C5.51966 17.2474 5.33203 16.6288 5.33203 15.9961C5.333 15.1479 5.67037 14.3347 6.27013 13.735C6.86989 13.1352 7.68306 12.7978 8.53125 12.7969Z" fill="white"/>
<path d="M30.4688 20.1094C31.2823 20.1094 32.0775 19.8681 32.754 19.4161C33.4304 18.9642 33.9576 18.3218 34.2689 17.5702C34.5803 16.8186 34.6617 15.9915 34.503 15.1936C34.3443 14.3957 33.9525 13.6628 33.3773 13.0876C32.802 12.5123 32.0691 12.1205 31.2712 11.9618C30.4733 11.8031 29.6463 11.8846 28.8947 12.1959C28.1431 12.5072 27.5007 13.0344 27.0487 13.7109C26.5967 14.3873 26.3555 15.1825 26.3555 15.9961C26.3567 17.0866 26.7904 18.1321 27.5616 18.9033C28.3327 19.6744 29.3782 20.1082 30.4688 20.1094ZM30.4688 12.7969C31.1015 12.7969 31.72 12.9845 32.2461 13.336C32.7722 13.6876 33.1823 14.1872 33.4244 14.7718C33.6666 15.3564 33.7299 15.9996 33.6065 16.6202C33.4831 17.2408 33.1784 17.8109 32.7309 18.2583C32.2835 18.7057 31.7135 19.0104 31.0929 19.1338C30.4723 19.2573 29.829 19.1939 29.2445 18.9518C28.6599 18.7096 28.1602 18.2996 27.8087 17.7735C27.4572 17.2474 27.2695 16.6288 27.2695 15.9961C27.2705 15.1479 27.6079 14.3347 28.2076 13.735C28.8074 13.1352 29.6206 12.7978 30.4688 12.7969Z" fill="white"/>
<path d="M36.316 0.498463C36.0281 0.216806 35.6414 0.059082 35.2387 0.059082C34.836 0.059082 34.4493 0.216806 34.1615 0.498463L32.4446 2.21538C32.302 2.35624 32.1886 2.52386 32.1108 2.70864C32.0331 2.89342 31.9926 3.09172 31.9917 3.29217C31.9908 3.49263 32.0294 3.69129 32.1054 3.87679C32.1814 4.06228 32.2933 4.23095 32.4346 4.37314C32.5759 4.51532 32.7438 4.62822 32.9288 4.70537C33.1139 4.78251 33.3123 4.82238 33.5127 4.8227C33.7132 4.82301 33.9117 4.78376 34.097 4.7072C34.2823 4.63064 34.4506 4.51826 34.5923 4.37652L36.3093 2.65961C36.5943 2.3726 36.7548 1.98489 36.756 1.58041C36.7573 1.17593 36.5992 0.787236 36.316 0.498463ZM35.6697 2.00667L33.9394 3.73729C33.8212 3.8456 33.6659 3.90451 33.5056 3.9019C33.3453 3.89929 33.1921 3.83537 33.0774 3.72328C32.9682 3.60731 32.908 3.45367 32.9093 3.29439C32.9106 3.13511 32.9734 2.98248 33.0844 2.86832L34.8145 1.138C34.9296 1.02459 35.0852 0.961578 35.2468 0.962835C35.4085 0.964092 35.563 1.02951 35.6764 1.1447C35.7898 1.2599 35.8528 1.41542 35.8516 1.57707C35.8503 1.73872 35.7849 1.89325 35.6697 2.00667Z" fill="white"/>
<path d="M36.3095 12.3051C36.5946 12.0176 36.755 11.6292 36.7557 11.2243C36.7564 10.8193 36.5976 10.4304 36.3135 10.1418L34.5996 8.42826C34.4592 8.2835 34.2916 8.16804 34.1062 8.08858C33.9209 8.00912 33.7217 7.96723 33.5201 7.96535C33.3184 7.96347 33.1184 8.00164 32.9317 8.07764C32.7449 8.15363 32.5751 8.26595 32.4321 8.40807C32.289 8.55019 32.1756 8.71929 32.0985 8.90557C32.0213 9.09184 31.9818 9.29159 31.9824 9.49322C31.983 9.69485 32.0236 9.89436 32.1019 10.0802C32.1802 10.266 32.2946 10.4344 32.4385 10.5757L34.1554 12.2926C34.4416 12.5757 34.8273 12.7355 35.2299 12.7379C35.6325 12.7402 36.02 12.5849 36.3095 12.3051ZM33.078 9.92184C32.9646 9.80669 32.9016 9.6512 32.9028 9.48958C32.904 9.32796 32.9694 9.17344 33.0845 9.06003C33.1997 8.94662 33.3552 8.88359 33.5168 8.88482C33.6784 8.88605 33.8329 8.95143 33.9464 9.06658L35.67 10.7902C35.7836 10.9066 35.8468 11.0632 35.8456 11.2258C35.8444 11.3885 35.779 11.5442 35.6636 11.6589C35.5461 11.7652 35.3929 11.8235 35.2345 11.8222C35.076 11.821 34.9238 11.7603 34.808 11.6522L33.078 9.92184Z" fill="white"/>
<path d="M4.40685 4.37652C4.5486 4.51826 4.71692 4.63064 4.90218 4.7072C5.08744 4.78376 5.28599 4.82301 5.48644 4.8227C5.6869 4.82238 5.88532 4.78251 6.07034 4.70537C6.25535 4.62822 6.42333 4.51532 6.56463 4.37314C6.70593 4.23095 6.81778 4.06228 6.89378 3.87679C6.96977 3.69129 7.0084 3.49263 7.00747 3.29217C7.00654 3.09172 6.96606 2.89342 6.88834 2.70864C6.81063 2.52386 6.69721 2.35624 6.55459 2.21538L4.83768 0.498463C4.54985 0.216806 4.16316 0.059082 3.76045 0.059082C3.35775 0.059082 2.97106 0.216806 2.68323 0.498463C2.40001 0.787236 2.24192 1.17593 2.24317 1.58041C2.24443 1.98489 2.40493 2.3726 2.68994 2.65961L4.40685 4.37652ZM3.33587 1.138C3.45087 1.03012 3.60263 0.97008 3.7603 0.97008C3.91798 0.97008 4.06974 1.03012 4.18473 1.138L5.91475 2.86832C6.02583 2.98248 6.08857 3.13511 6.08987 3.29439C6.09118 3.45367 6.03095 3.60731 5.92176 3.72328C5.80711 3.83537 5.65388 3.89929 5.49357 3.9019C5.33325 3.90451 5.17802 3.8456 5.05979 3.73729L3.32947 2.00667C3.21609 1.89013 3.15319 1.73361 3.15439 1.57102C3.15559 1.40843 3.22079 1.25286 3.33587 1.138Z" fill="white"/>
<path d="M4.84414 12.2917L6.56105 10.5748C6.70492 10.4335 6.8193 10.2651 6.89759 10.0793C6.97587 9.89344 7.01648 9.69394 7.01708 9.4923C7.01767 9.29067 6.97824 9.09093 6.90105 8.90465C6.82387 8.71838 6.71048 8.54927 6.56745 8.40715C6.42442 8.26503 6.2546 8.15272 6.06783 8.07672C5.88107 8.00072 5.68108 7.96256 5.47946 7.96444C5.27783 7.96632 5.07858 8.0082 4.89327 8.08766C4.70795 8.16712 4.54026 8.28258 4.3999 8.42735L2.68603 10.1409C2.54387 10.2824 2.43105 10.4506 2.35405 10.6358C2.27704 10.821 2.23737 11.0196 2.2373 11.2202C2.23724 11.4207 2.27679 11.6194 2.35367 11.8046C2.43056 11.9899 2.54327 12.1581 2.68534 12.2997C2.82741 12.4413 2.99604 12.5534 3.18156 12.6297C3.36708 12.706 3.56583 12.7448 3.7664 12.7441C3.96698 12.7433 4.16544 12.703 4.35038 12.6254C4.53533 12.5477 4.70312 12.4343 4.84414 12.2917ZM3.32953 10.7902L5.05315 9.06658C5.16657 8.95143 5.32108 8.88605 5.4827 8.88482C5.64432 8.88359 5.79981 8.94662 5.91496 9.06003C6.03011 9.17344 6.09549 9.32796 6.09672 9.48958C6.09795 9.6512 6.03492 9.80669 5.92151 9.92184L4.19149 11.6522C4.07567 11.7603 3.92347 11.821 3.76502 11.8222C3.60657 11.8235 3.45344 11.7652 3.33593 11.6589C3.22055 11.5442 3.15515 11.3885 3.15395 11.2258C3.15275 11.0632 3.21586 10.9066 3.32953 10.7902Z" fill="white"/>
</g>
<defs>
<clipPath id="clip0_1_1537">
<rect width="39" height="39" fill="white"/>
</clipPath>
</defs>
</svg>
