<svg width="44" height="44" viewBox="0 0 44 44" fill="none" xmlns="http://www.w3.org/2000/svg">
<path d="M14.713 3.28591C14.713 2.90623 15.0208 2.59841 15.4005 2.59841H19.0523C19.432 2.59841 19.7398 2.90623 19.7398 3.28591C19.7398 3.66558 19.432 3.97341 19.0523 3.97341H15.4005C15.0207 3.97341 14.713 3.66566 14.713 3.28591ZM20.5609 39.3075C20.5609 40.3598 19.7048 41.2159 18.6524 41.2159H15.8003C14.748 41.2159 13.8918 40.3598 13.8918 39.3075C13.8918 38.2552 14.7479 37.399 15.8003 37.399H18.6525C19.7048 37.399 20.5609 38.2552 20.5609 39.3075ZM19.1859 39.3075C19.1859 39.0133 18.9465 38.774 18.6524 38.774H15.8003C15.5061 38.774 15.2668 39.0133 15.2668 39.3075C15.2668 39.6016 15.5061 39.8409 15.8003 39.8409H18.6525C18.9466 39.841 19.1859 39.6016 19.1859 39.3075ZM23.0135 31.7613C23.0352 32.0506 22.9348 32.3382 22.7382 32.5501C22.5415 32.7621 22.2623 32.8837 21.9721 32.8837H12.4806C12.1904 32.8837 11.9111 32.7621 11.7144 32.55C11.5177 32.338 11.4174 32.0505 11.4391 31.7611C11.61 29.4846 13.1058 27.5821 15.1306 26.7893C14.3065 26.1577 13.7738 25.1643 13.7738 24.0483C13.7738 22.1446 15.3226 20.5958 17.2263 20.5958C19.1301 20.5958 20.6788 22.1445 20.6788 24.0483C20.6788 25.1643 20.1461 26.1578 19.3221 26.7893C21.3469 27.5821 22.8428 29.4846 23.0135 31.7613ZM15.1489 24.0483C15.1489 25.1938 16.0809 26.1258 17.2264 26.1258C18.372 26.1258 19.3039 25.1938 19.3039 24.0483C19.3039 22.9028 18.3719 21.9708 17.2264 21.9708C16.0809 21.9708 15.1489 22.9028 15.1489 24.0483ZM21.6012 31.5086C21.2666 29.3841 19.4101 27.7678 17.2263 27.7678C15.0427 27.7678 13.1861 29.3842 12.8515 31.5086H21.6012ZM20.0667 11.4128L14.9273 13.611C14.9398 13.7117 14.947 13.814 14.947 13.918C14.947 14.022 14.9399 14.1243 14.9273 14.225L20.0667 16.4232C20.5229 15.8654 21.2161 15.5085 21.9912 15.5085C23.3618 15.5085 24.4767 16.6236 24.4767 17.994C24.4767 19.3645 23.3618 20.4795 21.9912 20.4795C20.6207 20.4795 19.5057 19.3646 19.5057 17.994C19.5057 17.89 19.5129 17.7878 19.5254 17.6871L14.386 15.4889C13.9299 16.0467 13.2367 16.4035 12.4615 16.4035C11.091 16.4035 9.97604 15.2885 9.97604 13.918C9.97604 12.5475 11.091 11.4325 12.4615 11.4325C13.2367 11.4325 13.9299 11.7893 14.386 12.3472L19.5254 10.149C19.513 10.0483 19.5057 9.94598 19.5057 9.84199C19.5057 8.47146 20.6207 7.35651 21.9912 7.35651C23.3618 7.35651 24.4767 8.47146 24.4767 9.84199C24.4767 11.2125 23.3618 12.3275 21.9912 12.3275C21.2161 12.3275 20.5229 11.9707 20.0667 11.4128ZM20.8807 17.994C20.8807 18.6063 21.3789 19.1045 21.9912 19.1045C22.6035 19.1045 23.1017 18.6063 23.1017 17.994C23.1017 17.3817 22.6035 16.8835 21.9912 16.8835C21.3789 16.8835 20.8807 17.3816 20.8807 17.994ZM13.572 13.918C13.572 13.3057 13.0738 12.8075 12.4615 12.8075C11.8492 12.8075 11.351 13.3057 11.351 13.918C11.351 14.5303 11.8492 15.0285 12.4615 15.0285C13.0738 15.0285 13.572 14.5303 13.572 13.918ZM20.8807 9.84199C20.8807 10.4543 21.3789 10.9525 21.9912 10.9525C22.6035 10.9525 23.1017 10.4543 23.1017 9.84199C23.1017 9.22969 22.6035 8.73151 21.9912 8.73151C21.3789 8.73151 20.8807 9.22969 20.8807 9.84199ZM39.6118 23.7196C39.7561 23.9919 39.8378 24.3024 39.8378 24.6315C39.8378 25.3034 39.497 25.8973 38.9797 26.2486C39.1239 26.5209 39.2057 26.8313 39.2057 27.1605C39.2057 27.8321 38.8654 28.4258 38.3484 28.7772C38.4922 29.0486 38.5736 29.358 38.5736 29.6859C38.5736 30.7601 37.6997 31.6341 36.6254 31.6341H30.9231V40.9111C30.9231 42.5669 29.4916 43.914 27.7321 43.914H6.72073C4.96125 43.914 3.52979 42.5668 3.52979 40.9111V3.08885C3.52979 1.43301 4.96125 0.0859375 6.72073 0.0859375H27.7319C29.4914 0.0859375 30.9229 1.43301 30.9229 3.08885V16.4294L32.5643 13.6992C33.1223 12.7711 33.9357 12.6419 34.5112 12.8306C35.5068 13.1572 36.1622 14.4311 36.0358 15.794C35.983 16.3634 35.6499 17.5477 35.2642 18.9189C35.1475 19.334 35.0284 19.7574 34.9159 20.1685L38.5181 20.1504C39.5959 20.1504 40.4698 21.0261 40.4698 22.1024C40.4699 22.7745 40.1292 23.3683 39.6118 23.7196ZM29.548 18.7166V6.48648H4.90479V34.701H29.548V31.5859C29.5249 31.5768 29.5021 31.5669 29.48 31.5553L28.6793 31.135C28.4786 31.4356 28.1365 31.6341 27.7487 31.6341H25.9672C25.3505 31.6341 24.8487 31.1324 24.8487 30.5156V21.7021C24.8487 21.0854 25.3504 20.5837 25.9672 20.5837H27.7487C27.9606 20.5837 28.1583 20.644 28.3273 20.7468L29.548 18.7166ZM27.4923 21.9587H26.2238V30.2592H27.4923V30.1066C27.4923 30.1056 27.4923 30.1047 27.4923 30.1037V21.9587ZM4.90479 3.08885V5.11139H29.548V3.08885C29.548 2.19123 28.7334 1.46094 27.732 1.46094H6.72073C5.71939 1.46094 4.90479 2.19123 4.90479 3.08885ZM29.548 40.9111V36.076H4.90479V40.9111C4.90479 41.8088 5.71939 42.5391 6.72073 42.5391H27.7319C28.7333 42.5391 29.548 41.8088 29.548 40.9111ZM39.0949 22.1024C39.0949 21.7842 38.8377 21.5254 38.5216 21.5254L34.0238 21.5481C33.8091 21.5488 33.6092 21.4514 33.4781 21.2833C33.3472 21.1153 33.3015 20.896 33.3545 20.6895C33.5276 20.015 33.7376 19.2685 33.9407 18.5466C34.2773 17.3495 34.6255 16.1116 34.6667 15.6669C34.747 14.8021 34.3355 14.22 34.0827 14.1371C33.9542 14.0949 33.8144 14.2884 33.7427 14.4076L28.8672 22.5173V29.6807L29.969 30.259H36.6254C36.9414 30.259 37.1986 30.0019 37.1986 29.6858C37.1986 29.3697 36.9414 29.1125 36.6254 29.1125H34.2561C33.8765 29.1125 33.5686 28.8047 33.5686 28.425C33.5686 28.0454 33.8765 27.7375 34.2561 27.7375H36.6254H37.2574C37.5735 27.7375 37.8307 27.4786 37.8307 27.1605C37.8307 26.8423 37.5735 26.5834 37.2574 26.5834H34.8883C34.5086 26.5834 34.2008 26.2756 34.2008 25.8959C34.2008 25.5162 34.5086 25.2084 34.8883 25.2084H37.2574H37.8895C38.2056 25.2084 38.4628 24.9495 38.4628 24.6313C38.4628 24.3132 38.2056 24.0543 37.8895 24.0543H35.5204C35.1407 24.0543 34.8329 23.7465 34.8329 23.3668C34.8329 22.9872 35.1407 22.6793 35.5204 22.6793H37.8896H38.5216C38.8377 22.6795 39.0949 22.4207 39.0949 22.1024Z" fill="#0066CC"/>
</svg>
