<svg width="42" height="42" viewBox="0 0 42 42" fill="none" xmlns="http://www.w3.org/2000/svg">
<path d="M3.85425 18.8035C4.35669 18.7427 4.76471 18.4268 4.97348 17.937L6.48917 14.3829C6.5589 14.2193 6.66825 14.1123 6.83305 14.0459L9.58118 12.9408L8.66538 19.379L4.98447 29.4688C4.85281 29.83 4.87111 30.222 5.03599 30.5726C5.20227 30.9262 5.49594 31.1928 5.86278 31.3232L6.39082 31.5112C6.54906 31.5675 6.71107 31.5942 6.87078 31.5942C7.46436 31.5942 8.02545 31.225 8.24103 30.6349L11.664 21.2628L14.7172 21.697L14.1423 25.7382C14.0879 26.1207 14.1862 26.5021 14.419 26.8121C14.6518 27.1221 14.9906 27.3228 15.3732 27.3772L15.9279 27.4561C16.719 27.5683 17.4543 27.0165 17.5668 26.2253L18.4246 20.1945C18.4791 19.812 18.3808 19.4307 18.148 19.1207C17.9152 18.8107 17.5764 18.6099 17.1938 18.5556L14.6347 18.1915L15.2665 13.7496L18.1588 16.0172C18.5773 16.3454 19.1004 16.4199 19.5938 16.2213L23.8405 14.5136C24.7186 14.1605 24.9011 13.2869 24.6274 12.6065C24.3539 11.9262 23.6175 11.4221 22.7392 11.7753L19.6343 13.0238C19.4168 13.1112 19.1957 13.0796 19.0114 12.9352L15.7794 10.401C15.5739 10.2398 15.3481 10.1435 15.0891 10.1067L14.8838 10.0775C15.4559 9.6477 15.865 9.00064 15.9735 8.23783C16.0787 7.49865 15.8897 6.76283 15.4413 6.1658C14.993 5.56878 14.339 5.18217 13.5999 5.077C12.0739 4.85995 10.6561 5.9248 10.4391 7.45058C10.3341 8.18894 10.5226 8.9241 10.9699 9.52072L10.7673 9.49192C10.5085 9.45517 10.2647 9.48462 10.0225 9.58208L4.91286 11.6367C4.5484 11.7833 4.27433 12.0517 4.12036 12.413L2.25841 16.7793C2.04956 17.2692 2.10403 17.7822 2.40804 18.1869C2.73911 18.6278 3.30693 18.8696 3.85425 18.8035ZM11.6271 9.03017C11.3104 8.60837 11.1768 8.08853 11.2512 7.56624C11.3912 6.58203 12.2382 5.86942 13.2049 5.86942C13.2971 5.86942 13.3905 5.87599 13.4843 5.88928C14.0066 5.96351 14.4686 6.23668 14.7853 6.65848C15.102 7.08029 15.2356 7.60012 15.1613 8.12241C15.008 9.20022 14.0064 9.95228 12.9289 9.79946L12.9273 9.79921C12.4054 9.72481 11.9437 9.45173 11.6271 9.03017ZM3.06388 17.6943C2.93525 17.523 2.91811 17.3234 3.01293 17.1011L4.87488 12.7349C4.94461 12.5713 5.05387 12.4642 5.21884 12.3979L10.3285 10.3432C10.438 10.2992 10.5347 10.2875 10.6518 10.3042L12.8118 10.6114C12.8121 10.6114 12.8123 10.6115 12.8126 10.6116C12.8128 10.6116 12.813 10.6116 12.8132 10.6116L14.9735 10.9189C15.0906 10.9356 15.1803 10.9737 15.2731 11.0466L18.5052 13.5808C18.9237 13.909 19.4467 13.9834 19.9402 13.7849L23.0451 12.5365C23.6057 12.3111 23.8412 12.8504 23.8663 12.9127C23.8913 12.975 24.0946 13.5274 23.5344 13.7527L19.2876 15.4604C19.0702 15.5477 18.8491 15.5164 18.6648 15.3718L15.2134 12.6658C15.0981 12.5753 14.9433 12.5534 14.8074 12.608C14.6715 12.6627 14.575 12.7857 14.5543 12.9308L13.7648 18.4821C13.7329 18.7063 13.8888 18.914 14.1131 18.9459L17.0783 19.3677C17.2439 19.3912 17.3908 19.4784 17.492 19.6132C17.5933 19.748 17.636 19.9134 17.6124 20.079L16.7546 26.1097C16.7058 26.4532 16.3867 26.6926 16.0433 26.6439L15.4885 26.565C15.323 26.5415 15.176 26.4543 15.0748 26.3195C14.9736 26.1846 14.9308 26.0193 14.9543 25.8537L15.5869 21.4065C15.6023 21.2988 15.5741 21.1894 15.5088 21.1024C15.4435 21.0153 15.3463 20.9579 15.2386 20.9426L11.4503 20.4038C11.2585 20.3765 11.0738 20.4871 11.0074 20.6692L7.47051 30.3535C7.35083 30.681 6.98981 30.8537 6.66587 30.7383L6.13783 30.5503C5.97853 30.4937 5.85081 30.3776 5.77829 30.2234C5.70717 30.0722 5.69897 29.9039 5.75516 29.7498L9.45075 19.6199C9.46051 19.5931 9.46748 19.5654 9.4715 19.5371L10.4934 12.3532C10.514 12.2081 10.4557 12.063 10.3404 11.9726C10.267 11.9151 10.1776 11.8853 10.0873 11.8853C10.0357 11.8853 9.98379 11.895 9.93432 11.9149L6.52699 13.2849C6.16277 13.4315 5.8887 13.6999 5.73465 14.0611L4.21896 17.6154C4.12413 17.8377 3.96827 17.9635 3.75565 17.9893C3.50176 18.0199 3.21744 17.8987 3.06388 17.6943ZM36.7644 20.8797H28.6926C28.4661 20.8797 28.2824 21.0634 28.2824 21.2899V24.9842H20.424C20.1975 24.9842 20.0138 25.1679 20.0138 25.3943V29.0887H12.1554C11.9289 29.0887 11.7452 29.2724 11.7452 29.4989V33.1931H3.88665C3.66016 33.1931 3.47649 33.3768 3.47649 33.6033V37.7076C3.47649 37.9341 3.66016 38.1178 3.88665 38.1178H36.7643C36.9908 38.1178 37.1744 37.9341 37.1744 37.7076V21.2899C37.1745 21.0634 36.9909 20.8797 36.7644 20.8797ZM36.3542 37.2975H4.29681V34.0134H12.1553C12.3818 34.0134 12.5655 33.8298 12.5655 33.6033V29.909H20.4239C20.6504 29.909 20.8341 29.7253 20.8341 29.4989V25.8046H28.6925C28.919 25.8046 29.1026 25.6209 29.1026 25.3944V21.7001H36.3541V37.2975H36.3542ZM39.4568 3.88222H37.3565H28.1005H26.0001C25.7737 3.88222 25.59 4.06589 25.59 4.29237C25.59 6.69253 26.7506 8.66431 28.7797 9.72711C29.2177 10.7189 29.7696 11.5531 30.4032 12.1325C30.8956 12.5826 31.1452 13.149 31.1452 13.8159V14.1704H30.434C30.2075 14.1704 30.0239 14.3541 30.0239 14.5806V17.3738C30.0239 17.6003 30.2075 17.784 30.434 17.784H35.0228C35.2493 17.784 35.433 17.6003 35.433 17.3738V14.5806C35.433 14.3541 35.2493 14.1704 35.0228 14.1704H34.3116V13.8159C34.3116 13.149 34.5612 12.5826 35.0536 12.1325C35.6872 11.5531 36.2391 10.7189 36.6772 9.72711C38.7063 8.66431 39.8669 6.69253 39.8669 4.29237C39.867 4.06589 39.6833 3.88222 39.4568 3.88222ZM26.4234 4.70253H27.6969C27.7344 6.00592 27.949 7.28824 28.303 8.44143C27.1862 7.5454 26.5232 6.23922 26.4234 4.70253ZM34.6127 16.9637H30.8442V14.9908H34.6127V16.9637ZM34.5001 11.5272C33.8402 12.1306 33.4913 12.9221 33.4913 13.816V14.1705H31.9655V13.816C31.9655 12.922 31.6167 12.1305 30.9568 11.5272C29.5833 10.2715 28.605 7.50808 28.517 4.70261H36.9398C36.8519 7.50808 35.8734 10.2714 34.5001 11.5272ZM37.1538 8.44143C37.5079 7.28832 37.7224 6.00592 37.76 4.70253H39.0334C38.9337 6.23922 38.2706 7.5454 37.1538 8.44143Z" fill="#0066CC"/>
</svg>
