<svg width="92" height="92" viewBox="0 0 92 92" fill="none" xmlns="http://www.w3.org/2000/svg">
<g filter="url(#filter0_d_46_190)">
<rect x="4" width="84" height="84" rx="12" fill="white"/>
</g>
<path d="M51 58H20C18.896 58 18 57.104 18 56V21C18 19.896 18.896 19 20 19H69C70.104 19 71 19.896 71 21V25" stroke="#0066CC" stroke-width="2" stroke-miterlimit="10" stroke-linecap="round" stroke-linejoin="round"/>
<path d="M74 63C74 64.104 73.104 65 72 65H56C54.896 65 54 64.104 54 63V30C54 28.896 54.896 28 56 28H72C73.104 28 74 28.896 74 30V63Z" stroke="#0066CC" stroke-width="2" stroke-miterlimit="10" stroke-linecap="round" stroke-linejoin="round"/>
<path d="M32 65H51" stroke="#0066CC" stroke-width="2" stroke-miterlimit="10" stroke-linecap="round" stroke-linejoin="round"/>
<path d="M38 65L39 58" stroke="#0066CC" stroke-width="2" stroke-miterlimit="10" stroke-linecap="round" stroke-linejoin="round"/>
<path d="M44.29 54.71C44.11 54.52 44 54.26 44 54C44 53.74 44.11 53.479 44.29 53.29C44.48 53.109 44.74 53 45 53C45.26 53 45.52 53.109 45.71 53.29C45.89 53.479 46 53.74 46 54C46 54.26 45.89 54.52 45.71 54.71C45.52 54.89 45.26 55 45 55C44.74 55 44.48 54.89 44.29 54.71Z" fill="#0066CC"/>
<path d="M54 32H74" stroke="#0066CC" stroke-width="2" stroke-miterlimit="10" stroke-linecap="round" stroke-linejoin="round"/>
<path d="M54 59H74" stroke="#0066CC" stroke-width="2" stroke-miterlimit="10" stroke-linecap="round" stroke-linejoin="round"/>
<path d="M62 62H66" stroke="#0066CC" stroke-width="2" stroke-miterlimit="10" stroke-linecap="round" stroke-linejoin="round"/>
<path d="M53 50H22V23H67V28" stroke="#0066CC" stroke-width="2" stroke-miterlimit="10" stroke-linecap="round" stroke-linejoin="round"/>
<path d="M44 31V45H30V42" stroke="#0066CC" stroke-width="2" stroke-miterlimit="10" stroke-linecap="round" stroke-linejoin="round"/>
<path d="M64 52V42C64 39.791 62.209 38 60 38H48" stroke="#0066CC" stroke-width="2" stroke-miterlimit="10" stroke-linecap="round" stroke-linejoin="round"/>
<path d="M30.29 32.71C30.11 32.52 30 32.26 30 32C30 31.74 30.11 31.48 30.29 31.29C30.48 31.11 30.74 31 31 31C31.26 31 31.52 31.11 31.71 31.29C31.89 31.48 32 31.74 32 32C32 32.26 31.89 32.52 31.71 32.71C31.52 32.89 31.26 33 31 33C30.74 33 30.48 32.89 30.29 32.71Z" fill="#0066CC"/>
<path d="M27 28H41V42H27V28Z" stroke="#0066CC" stroke-width="2" stroke-miterlimit="10" stroke-linecap="round" stroke-linejoin="round"/>
<path d="M27 38L31 35L35 38L41 33" stroke="#0066CC" stroke-width="2" stroke-miterlimit="10" stroke-linecap="round" stroke-linejoin="round"/>
<path d="M50 35L47 38L50 41" stroke="#0066CC" stroke-width="2" stroke-miterlimit="10" stroke-linecap="round" stroke-linejoin="round"/>
<defs>
<filter id="filter0_d_46_190" x="0" y="0" width="92" height="92" filterUnits="userSpaceOnUse" color-interpolation-filters="sRGB">
<feFlood flood-opacity="0" result="BackgroundImageFix"/>
<feColorMatrix in="SourceAlpha" type="matrix" values="0 0 0 0 0 0 0 0 0 0 0 0 0 0 0 0 0 0 127 0" result="hardAlpha"/>
<feOffset dy="4"/>
<feGaussianBlur stdDeviation="2"/>
<feComposite in2="hardAlpha" operator="out"/>
<feColorMatrix type="matrix" values="0 0 0 0 0 0 0 0 0 0 0 0 0 0 0 0 0 0 0.25 0"/>
<feBlend mode="normal" in2="BackgroundImageFix" result="effect1_dropShadow_46_190"/>
<feBlend mode="normal" in="SourceGraphic" in2="effect1_dropShadow_46_190" result="shape"/>
</filter>
</defs>
</svg>
