<svg width="38" height="37" viewBox="0 0 38 37" fill="none" xmlns="http://www.w3.org/2000/svg">
<path d="M31.6505 35.6715H6.3501C5.56274 35.6715 4.80762 35.375 4.25087 34.8472C3.69413 34.3194 3.38135 33.6036 3.38135 32.8572V25.2719C3.38135 25.1599 3.42826 25.0525 3.51178 24.9734C3.59529 24.8942 3.70856 24.8497 3.82666 24.8497H34.174C34.2921 24.8497 34.4053 24.8942 34.4888 24.9734C34.5724 25.0525 34.6193 25.1599 34.6193 25.2719V32.8572C34.6193 33.6036 34.3065 34.3194 33.7498 34.8472C33.193 35.375 32.4379 35.6715 31.6505 35.6715ZM4.27197 25.694V32.8572C4.27197 33.3796 4.49092 33.8807 4.88064 34.2502C5.27037 34.6196 5.79894 34.8272 6.3501 34.8272H31.6505C32.2017 34.8272 32.7303 34.6196 33.12 34.2502C33.5097 33.8807 33.7287 33.3796 33.7287 32.8572V25.694H4.27197Z" fill="white"/>
<path d="M34.174 25.6937H3.82666C3.70856 25.6937 3.59529 25.6492 3.51178 25.5701C3.42826 25.4909 3.38135 25.3835 3.38135 25.2716V12.3503C3.38135 12.2384 3.42826 12.131 3.51178 12.0518C3.59529 11.9727 3.70856 11.9282 3.82666 11.9282C3.94476 11.9282 4.05803 11.9727 4.14154 12.0518C4.22506 12.131 4.27197 12.2384 4.27197 12.3503V24.8494H33.7287V10.6997H25.8659C25.2673 10.6992 24.6934 10.4735 24.2701 10.0722C23.8468 9.67098 23.6088 9.12692 23.6082 8.55945V1.1958H6.3501C5.79894 1.1958 5.27037 1.40335 4.88064 1.7728C4.49092 2.14225 4.27197 2.64333 4.27197 3.16582V9.05688C4.27197 9.16884 4.22506 9.27622 4.14154 9.35538C4.05803 9.43455 3.94476 9.47903 3.82666 9.47903C3.70856 9.47903 3.59529 9.43455 3.51178 9.35538C3.42826 9.27622 3.38135 9.16884 3.38135 9.05688V3.16582C3.38135 2.41941 3.69413 1.70358 4.25087 1.1758C4.80762 0.648009 5.56274 0.351501 6.3501 0.351501H24.0535C24.1716 0.351501 24.2849 0.395978 24.3684 0.475146C24.4519 0.554313 24.4988 0.661688 24.4988 0.773649V8.55945C24.4992 8.90305 24.6434 9.23248 24.8997 9.47544C25.156 9.71841 25.5035 9.85507 25.8659 9.85544H34.148H34.1324C34.1943 9.84994 34.2567 9.85678 34.3156 9.87552C34.3745 9.89426 34.4287 9.92448 34.4745 9.96424C34.5204 10.004 34.5569 10.0524 34.5819 10.1064C34.6068 10.1604 34.6196 10.2187 34.6193 10.2776V25.2716C34.6193 25.3835 34.5724 25.4909 34.4888 25.5701C34.4053 25.6492 34.2921 25.6937 34.174 25.6937Z" fill="white"/>
<path d="M3.82666 11.4416C3.70856 11.4416 3.59529 11.3971 3.51178 11.318C3.42826 11.2389 3.38135 11.1315 3.38135 11.0196V10.3867C3.38135 10.2748 3.42826 10.1675 3.51178 10.0884C3.59529 10.0092 3.70856 9.96478 3.82666 9.96478C3.94476 9.96478 4.05803 10.0092 4.14154 10.0884C4.22506 10.1675 4.27197 10.2748 4.27197 10.3867V11.0196C4.27197 11.1315 4.22506 11.2389 4.14154 11.318C4.05803 11.3971 3.94476 11.4416 3.82666 11.4416Z" fill="white"/>
<path d="M34.1472 10.6999H25.8652C25.2667 10.6993 24.6929 10.4737 24.2696 10.0726C23.8464 9.67151 23.6082 9.12762 23.6074 8.56028V0.773773C23.6072 0.690298 23.6331 0.608637 23.6818 0.539111C23.7306 0.469584 23.7999 0.415314 23.8812 0.38316C23.9625 0.351007 24.052 0.342413 24.1384 0.358465C24.2248 0.374517 24.3042 0.414495 24.3667 0.473345L34.4872 9.97728C34.5481 10.0345 34.5903 10.1073 34.6087 10.1868C34.6271 10.2663 34.6208 10.3491 34.5907 10.4253C34.5606 10.5015 34.5079 10.5678 34.439 10.6162C34.3701 10.6647 34.2878 10.6933 34.2021 10.6985C34.1843 10.6999 34.165 10.6999 34.1472 10.6999ZM24.4988 1.78622V8.56028C24.4994 8.90376 24.6436 9.233 24.8999 9.47582C25.1562 9.71863 25.5036 9.85519 25.8659 9.85557H33.0926L24.4988 1.78622Z" fill="white"/>
<path d="M22.4265 22.3034H15.5739C15.4857 22.3035 15.3994 22.2787 15.3261 22.2322C15.2528 22.1858 15.1956 22.1197 15.162 22.0424L13.2159 17.5585C13.103 17.301 13.054 17.0224 13.0728 16.7441C13.0916 16.4658 13.1776 16.1953 13.3243 15.9536L18.1315 7.96097C18.219 7.81593 18.3454 7.6954 18.4979 7.61156C18.6504 7.52773 18.8235 7.48358 18.9998 7.48358C19.1761 7.48358 19.3492 7.52773 19.5017 7.61156C19.6542 7.6954 19.7806 7.81593 19.8682 7.96097L24.6753 15.9536C24.822 16.1953 24.9081 16.4658 24.9269 16.7441C24.9456 17.0224 24.8967 17.301 24.7837 17.5585L22.8377 22.0424C22.804 22.1196 22.747 22.1856 22.6738 22.232C22.6007 22.2785 22.5146 22.3033 22.4265 22.3034ZM15.8722 21.4591H22.1281L23.9606 17.2377C24.0211 17.0987 24.0473 16.9485 24.0371 16.7985C24.027 16.6485 23.9807 16.5027 23.902 16.3723L19.0941 8.38171C19.0846 8.36591 19.0709 8.35277 19.0544 8.34362C19.0378 8.33448 19.019 8.32966 18.9998 8.32966C18.9806 8.32966 18.9618 8.33448 18.9453 8.34362C18.9287 8.35277 18.915 8.36591 18.9056 8.38171L14.1014 16.3737C14.0226 16.5041 13.9764 16.6499 13.9662 16.7999C13.956 16.9499 13.9822 17.1001 14.0427 17.2391L15.8722 21.4591Z" fill="white"/>
<path d="M18.9999 16.8289C18.6716 16.8289 18.3508 16.7366 18.0779 16.5638C17.805 16.3909 17.5923 16.1452 17.4667 15.8577C17.3411 15.5703 17.3082 15.254 17.3722 14.9488C17.4363 14.6436 17.5943 14.3633 17.8264 14.1433C18.0585 13.9233 18.3542 13.7734 18.6761 13.7127C18.998 13.652 19.3317 13.6832 19.6349 13.8022C19.9382 13.9213 20.1974 14.123 20.3797 14.3817C20.5621 14.6404 20.6594 14.9445 20.6594 15.2557C20.659 15.6728 20.484 16.0728 20.1729 16.3677C19.8618 16.6627 19.4399 16.8285 18.9999 16.8289ZM18.9999 14.5268C18.8478 14.5268 18.6991 14.5695 18.5727 14.6496C18.4462 14.7297 18.3477 14.8436 18.2895 14.9768C18.2313 15.1099 18.2161 15.2565 18.2457 15.3979C18.2754 15.5393 18.3486 15.6692 18.4562 15.7711C18.5637 15.8731 18.7007 15.9425 18.8499 15.9706C18.999 15.9987 19.1536 15.9843 19.2941 15.9291C19.4346 15.874 19.5547 15.7805 19.6392 15.6607C19.7237 15.5408 19.7688 15.3999 19.7688 15.2557C19.7686 15.0624 19.6875 14.8771 19.5433 14.7405C19.3992 14.6038 19.2037 14.527 18.9999 14.5268Z" fill="white"/>
<path d="M22.7274 24.1975H15.2729C14.9206 24.1971 14.5829 24.0643 14.3339 23.8282C14.0848 23.5921 13.9447 23.272 13.9443 22.9381V22.7172C13.9451 22.3835 14.0854 22.0638 14.3344 21.828C14.5834 21.5922 14.9209 21.4595 15.2729 21.4592H22.7274C23.0795 21.4595 23.417 21.5922 23.6661 21.8282C23.9151 22.0642 24.0553 22.3841 24.0559 22.7179V22.9367C24.0559 23.2708 23.916 23.5913 23.6669 23.8277C23.4178 24.0641 23.0799 24.1971 22.7274 24.1975ZM15.2729 22.3035C15.1568 22.3035 15.0456 22.3471 14.9635 22.4248C14.8814 22.5025 14.8352 22.6079 14.835 22.7179V22.9367C14.8352 23.0467 14.8814 23.1522 14.9634 23.23C15.0455 23.3078 15.1568 23.3516 15.2729 23.3518H22.7274C22.8435 23.3516 22.9547 23.3078 23.0368 23.23C23.1189 23.1522 23.1651 23.0467 23.1653 22.9367V22.7158C23.1651 22.6058 23.1189 22.5004 23.0368 22.4227C22.9547 22.345 22.8434 22.3014 22.7274 22.3014L15.2729 22.3035Z" fill="white"/>
<path d="M19 14.5268C18.8819 14.5268 18.7686 14.4823 18.6851 14.4031C18.6016 14.324 18.5547 14.2166 18.5547 14.1046V7.9075C18.5547 7.79554 18.6016 7.68816 18.6851 7.609C18.7686 7.52983 18.8819 7.48535 19 7.48535C19.1181 7.48535 19.2314 7.52983 19.3149 7.609C19.3984 7.68816 19.4453 7.79554 19.4453 7.9075V14.1046C19.4453 14.2166 19.3984 14.324 19.3149 14.4031C19.2314 14.4823 19.1181 14.5268 19 14.5268Z" fill="white"/>
<path d="M18.4509 26.9471C18.4197 26.8656 18.3628 26.7952 18.2879 26.7454C18.213 26.6956 18.1238 26.6689 18.0323 26.6689C17.9409 26.6689 17.8516 26.6956 17.7767 26.7454C17.7019 26.7952 17.6449 26.8656 17.6137 26.9471L15.1831 33.2793C15.1442 33.3826 15.1493 33.4963 15.1973 33.5961C15.2454 33.696 15.3325 33.7742 15.4403 33.8141C15.5481 33.8541 15.6681 33.8527 15.7748 33.8103C15.8815 33.7678 15.9667 33.6877 16.0121 33.5867L16.9027 31.5625H19.2718L20.0414 33.5684C20.0721 33.6506 20.1287 33.7217 20.2037 33.7721C20.2786 33.8225 20.3682 33.8496 20.46 33.8499C20.5106 33.8493 20.5608 33.8407 20.6085 33.8245C20.6635 33.8056 20.7141 33.7766 20.7573 33.7391C20.8005 33.7016 20.8355 33.6564 20.8603 33.6061C20.885 33.5557 20.899 33.5013 20.9016 33.4458C20.9041 33.3903 20.895 33.3349 20.8749 33.2828L18.4509 26.9471ZM17.115 30.7182L18.0331 28.3261L18.9519 30.7182H17.115Z" fill="white"/>
<path d="M22.3989 26.6727C22.2808 26.6727 22.1676 26.7171 22.084 26.7963C22.0005 26.8755 21.9536 26.9829 21.9536 27.0948V33.427C21.9536 33.539 22.0005 33.6464 22.084 33.7255C22.1676 33.8047 22.2808 33.8492 22.3989 33.8492C22.517 33.8492 22.6303 33.8047 22.7138 33.7255C22.7973 33.6464 22.8442 33.539 22.8442 33.427V27.0948C22.8442 26.9829 22.7973 26.8755 22.7138 26.7963C22.6303 26.7171 22.517 26.6727 22.3989 26.6727Z" fill="white"/>
</svg>
