<svg width="156" height="157" viewBox="0 0 156 157" fill="none" xmlns="http://www.w3.org/2000/svg">
<path d="M96.8087 146.903C97.142 146.817 97.468 146.731 97.7904 146.647C97.9515 146.603 98.109 146.559 98.2684 146.517C98.4259 146.473 98.5779 146.414 98.7317 146.365C99.3416 146.154 99.9313 145.942 100.503 145.727C100.849 145.59 101.098 145.473 101.259 145.375L101.127 145.352C101.244 145.33 101.373 145.302 101.514 145.269C101.656 145.238 101.809 145.196 101.97 145.139C102.363 144.998 102.754 144.852 103.138 144.696C103.449 144.564 103.715 144.443 103.937 144.331L103.916 144.351C104.253 144.247 104.567 144.128 104.852 143.992C104.911 143.97 104.962 143.939 105.004 143.899C105.046 143.859 104.97 143.862 104.775 143.912L104.894 143.838L104.107 144.155C104.079 144.152 104.041 144.152 103.982 144.161C103.794 144.223 103.607 144.285 103.42 144.348L102.902 144.571C102.578 144.71 102.123 144.875 101.755 145.024C101.384 145.159 101.094 145.271 101.113 145.348L101.014 145.37C101.028 145.366 101.047 145.365 101.061 145.361C100.318 145.566 99.576 145.773 98.8379 145.987L98.2848 146.149L97.7263 146.286C97.3545 146.379 96.9827 146.473 96.6109 146.566C96.241 146.665 95.871 146.762 95.5011 146.861C95.1312 146.958 94.7667 147.076 94.3931 147.154C93.6495 147.328 92.9115 147.517 92.1771 147.722C92.102 147.739 92.0361 147.768 91.9756 147.81C91.917 147.852 92.0086 147.863 92.254 147.84C92.9573 147.744 93.7155 147.609 94.4902 147.46C94.8802 147.396 95.263 147.281 95.6513 147.189C96.0395 147.094 96.426 146.997 96.8069 146.903H96.8087Z" fill="#0066CC"/>
<path d="M69.8886 149.104C70.0351 149.122 70.1816 149.139 70.33 149.157C70.4783 149.173 70.6303 149.181 70.7805 149.194C71.0827 149.219 71.3886 149.243 71.6944 149.269C72.3079 149.32 72.9251 149.373 73.5295 149.424C73.8317 149.455 74.132 149.456 74.4269 149.463C74.7217 149.466 75.0111 149.468 75.295 149.472C75.859 149.472 76.3938 149.459 76.881 149.426L76.8553 149.346C76.0953 149.248 75.3609 149.181 74.6448 149.135C74.4653 149.124 74.2877 149.115 74.1119 149.104L73.8481 149.091L73.5862 149.067C73.2364 149.036 72.8921 149.008 72.5478 148.985C71.8611 148.937 71.1853 148.904 70.5113 148.877L68.5022 148.703C68.1799 148.706 68.1854 148.756 68.4803 148.847C68.9088 148.939 69.3777 149.023 69.8868 149.102L69.8886 149.104Z" fill="#0066CC"/>
<path d="M85.9391 148.944C86.3383 148.911 86.7431 148.877 87.1497 148.834L87.7614 148.772C87.9646 148.745 88.1661 148.708 88.3676 148.675C88.7741 148.607 89.177 148.536 89.5653 148.463C89.8492 148.408 90.1166 148.351 90.3711 148.294L90.6641 148.263L91.1293 148.144C91.1275 148.131 91.1385 148.114 91.1422 148.1C91.252 148.071 91.3564 148.034 91.4425 147.997L91.5304 147.909C91.3784 147.926 91.2264 147.942 91.0726 147.946C89.9591 148.071 88.9628 148.245 87.9939 148.433C87.7522 148.486 87.5086 148.514 87.2669 148.551L86.5416 148.657C86.0581 148.728 85.5692 148.798 85.0692 148.862C84.734 148.93 84.6553 148.976 84.8769 148.994C85.1882 148.99 85.5399 148.976 85.9354 148.946L85.9391 148.944Z" fill="#0066CC"/>
<path d="M78.773 149.355L78.9231 149.382C79.1191 149.393 79.3132 149.406 79.5074 149.417C79.9432 149.43 80.3883 149.441 80.848 149.434C81.5311 149.391 82.1721 149.34 82.7471 149.267C82.8259 149.254 82.8955 149.241 82.9577 149.228L82.9266 149.241C83.2123 149.252 83.52 149.241 83.8478 149.201L83.9449 149.14C83.9632 149.111 83.9888 149.08 84.0181 149.051L83.2325 149.109C83.1244 149.098 83.0182 149.087 82.9101 149.076C82.7032 149.082 82.4999 149.087 82.2929 149.093C81.8735 149.115 81.456 149.139 81.0384 149.161C80.8296 149.177 80.6264 149.181 80.4304 149.186C80.2344 149.194 80.044 149.203 79.859 149.214L78.8938 149.254C78.4525 149.249 77.9909 149.238 77.6173 149.249C77.2437 149.265 76.958 149.265 76.8701 149.338C77.024 149.36 77.1796 149.38 77.3353 149.391C77.491 149.397 77.6503 149.401 77.8078 149.399C78.1265 149.397 78.447 149.38 78.773 149.355Z" fill="#0066CC"/>
<path d="M76.8682 149.338C76.8352 149.333 76.8041 149.329 76.7693 149.324L76.8572 149.344C76.8572 149.344 76.8645 149.338 76.8682 149.336V149.338Z" fill="#0066CC"/>
<path d="M8.80543 91.8514C8.83839 91.8862 8.86403 91.8807 8.88051 91.8367C8.85121 91.7103 8.81092 91.5362 8.77795 91.3897C8.75231 91.2413 8.73034 91.124 8.72301 91.1149C8.6406 91.0104 8.7047 91.4446 8.80543 91.8532V91.8514Z" fill="#0066CC"/>
<path d="M107.394 8.53938C107.35 8.52106 107.314 8.50457 107.277 8.48991L107.283 8.49358C109.301 9.39496 111.705 10.4026 113.453 11.489C113.696 11.6667 113.7 11.7217 113.469 11.6539C109.515 9.82367 105.376 8.09052 101.059 6.65051L100.545 6.50394L100.025 6.37203C99.6345 6.28409 99.2298 6.17416 98.8067 6.03859V6.02943C98.4258 5.9305 98.0687 5.83706 97.7427 5.72714C95.4534 5.25629 93.0964 4.86789 90.3639 4.42087C90.0104 4.39155 89.6405 4.34758 89.2541 4.32193L89.1625 4.31277C89.1881 4.31827 89.2138 4.32193 89.2376 4.32743L89.2046 4.34025C89.5471 4.34758 89.928 4.40621 90.3529 4.49781L91.4316 4.79278H91.3327H91.3419H91.4316C92.0451 4.90637 92.6751 5.04744 93.318 5.16286C93.9626 5.27461 94.6073 5.41935 95.2483 5.55675C95.5688 5.62637 95.8874 5.69416 96.2006 5.76928C96.512 5.84989 96.8215 5.93233 97.1236 6.01844C97.728 6.18882 98.3104 6.36104 98.8415 6.57905C99.1748 6.68165 99.499 6.78608 99.814 6.89051C99.8195 6.91982 99.8305 6.94913 99.8488 6.98211C99.7005 6.96196 99.5338 6.92898 99.3506 6.87952C99.2719 6.89967 99.0997 6.89051 98.836 6.84837C98.6181 6.79341 98.3983 6.73661 98.1767 6.67982C97.9514 6.62486 97.7225 6.56806 97.4899 6.51127C96.8013 6.33905 96.1127 6.16867 95.4168 6.00378C95.1659 5.936 94.9095 5.86454 94.6512 5.79492C94.6036 5.81141 94.6 5.83706 94.6586 5.87737C94.9388 5.94699 95.2098 6.01661 95.4681 6.08806C95.4845 6.11554 95.5138 6.14668 95.5541 6.17966L94.4626 5.95798L93.9168 5.84805L93.3674 5.75279C92.992 5.70515 92.5909 5.63737 92.1568 5.55126C91.9462 5.50912 91.7393 5.45965 91.5268 5.42484L91.3986 5.36622C91.3876 5.36622 91.3785 5.36622 91.3675 5.36622C90.9847 5.3424 90.5544 5.2966 90.0965 5.2398C89.8676 5.21232 89.6313 5.17568 89.3896 5.1482C89.1478 5.11889 88.9006 5.09141 88.6515 5.06209C88.1772 5.00347 87.6992 4.94301 87.223 4.88255C86.5252 4.8111 85.8238 4.73781 85.126 4.66636C84.6682 4.63339 84.2103 4.60041 83.7543 4.56926C83.366 4.54728 82.9778 4.50697 82.5877 4.49598C82.8734 4.52713 82.9851 4.55644 82.9137 4.57659C82.8368 4.59675 82.7525 4.60774 82.6609 4.60407L82.6097 4.59858C82.3459 4.61873 82.0163 4.62423 81.6115 4.60957C81.2031 4.59675 80.8643 4.5656 80.5951 4.52713L79.5805 4.51613C79.6135 4.53995 79.5805 4.56194 79.4871 4.58026C79.8918 4.59308 80.2948 4.60591 80.7068 4.6169C81.0933 4.62972 81.4724 4.64072 81.8551 4.65354C82.1646 4.66087 82.4723 4.6682 82.7818 4.67369C83.0913 4.68652 83.4045 4.71217 83.7213 4.73598C84.1719 4.77812 84.5949 4.82209 85.0125 4.87156C85.7249 4.97782 86.4611 5.07675 87.212 5.16469C87.9629 5.26912 88.7248 5.37538 89.4885 5.48164C90.2503 5.60988 91.0159 5.72714 91.7668 5.86454C92.5158 6.01844 93.2557 6.16684 93.9663 6.34455C94.252 6.43615 94.534 6.52776 94.8161 6.61936L95.393 6.72745C96.5394 7.14333 98.1456 7.53174 99.6363 7.98426C99.695 7.99708 99.7499 8.00991 99.8103 8.02273C100.043 8.08319 100.274 8.15648 100.506 8.22609L101.523 8.58885C102.188 8.849 101.938 8.88015 102.68 9.18427L104.149 9.70825L105.601 10.2744C106.088 10.4576 106.565 10.6664 107.043 10.868C107.519 11.075 108.004 11.2637 108.473 11.4872C108.658 11.5898 108.803 11.6777 108.914 11.7528C109.171 11.8554 109.425 11.9654 109.68 12.0845C109.806 12.1449 109.934 12.2054 110.059 12.2695C110.183 12.3373 110.308 12.4069 110.433 12.4783L111.381 12.9419C111.698 13.0958 112.015 13.2478 112.324 13.4164C113.561 14.1291 115.398 14.9846 116.176 15.7046C113.727 14.512 111.07 12.9437 108.391 11.7803C106.334 10.7012 103.825 9.82733 101.51 9.01755C100.909 8.81053 100.31 8.59617 99.7023 8.4093C99.0943 8.22609 98.4826 8.04655 97.8709 7.87067C97.2537 7.71678 96.6365 7.56471 96.0193 7.41082C95.4003 7.26425 94.7739 7.147 94.1513 7.02059C93.8399 6.96196 93.5176 6.9015 93.1806 6.83921L92.6733 6.74028C92.6733 6.74028 92.318 6.71096 92.3162 6.71096C92.014 6.67066 91.7008 6.62852 91.3767 6.58638L91.3327 6.58089L91.0177 6.57356L90.2796 6.46363L90.265 6.45814C90.1368 6.44348 90.0104 6.42882 89.8804 6.41417C89.6899 6.39035 89.4976 6.36653 89.3017 6.34272C89.298 6.34272 89.298 6.34272 89.2925 6.34455C89.1845 6.35188 89.0819 6.35004 88.9848 6.33539C88.6533 6.29325 88.3237 6.25111 87.994 6.21081C87.9794 6.20348 87.9721 6.19798 87.9592 6.19065L87.7486 6.165C87.267 6.10088 86.778 6.05508 86.3128 6.01844C86.0729 6.00195 85.8458 5.99279 85.681 5.99462C85.6571 6.01477 85.7066 6.03676 85.8513 6.06241C86.1095 6.06241 86.4172 6.07523 86.7835 6.10455C87.1974 6.14668 87.549 6.21997 87.842 6.28775L87.8255 6.35004C88.0325 6.39035 88.2339 6.42882 88.4317 6.46547C88.7687 6.53875 89.091 6.60654 89.4134 6.68532C89.7375 6.76593 90.0635 6.84654 90.4042 6.93081C90.6899 6.9931 90.9921 7.05173 91.3034 7.10853C91.6129 7.17265 91.9316 7.2386 92.2521 7.30456C92.8949 7.43647 93.5524 7.55738 94.1677 7.71678C94.0981 7.67647 94.0835 7.638 94.1439 7.60319C94.6109 7.70945 95.0743 7.81571 95.5303 7.9183C95.9845 8.02823 96.4332 8.13815 96.8727 8.24441C97.7555 8.44045 98.5906 8.6603 99.3763 8.81236C99.6675 8.90763 99.9678 9.00473 100.287 9.10916C100.719 9.27221 101.003 9.40229 101.136 9.49939C100.482 9.41145 99.64 9.14396 98.7518 8.89114C98.3086 8.76289 97.8599 8.61266 97.4167 8.50091C96.9753 8.38548 96.5449 8.28106 96.1493 8.20228C95.8929 8.14731 95.6365 8.08319 95.3893 8.03739C95.7446 8.13815 96.0651 8.2609 96.3471 8.37632C96.2904 8.42762 95.9918 8.39098 95.4442 8.28289C94.9937 8.18579 94.5432 8.08869 94.0908 7.99159L93.4132 7.84319L92.7319 7.71128L91.3693 7.4438L89.9994 7.21662L89.3145 7.10303C89.0856 7.06639 88.8566 7.04074 88.6277 7.00959C88.1698 6.95097 87.712 6.89234 87.2541 6.83371C86.7963 6.78058 86.3384 6.74577 85.8806 6.70547C85.4227 6.66883 84.9685 6.62302 84.5107 6.60837C82.4741 6.48379 80.3369 6.2676 78.3333 6.40684C78.1282 6.4215 77.9231 6.43432 77.7161 6.44898C77.3407 6.44898 77.0586 6.43249 76.8517 6.40501L76.1961 6.4215C75.9983 6.41783 75.9085 6.40684 75.9122 6.39218C75.7913 6.40501 75.6668 6.41966 75.5312 6.43432C74.9562 6.48928 74.3591 6.51676 73.7658 6.57539C73.6138 6.59188 73.4636 6.60837 73.3116 6.62486C73.513 6.64684 73.3977 6.68532 72.9654 6.74211L73.0369 6.72562L71.9618 6.84287L72.0717 6.79524C71.9398 6.80074 71.8446 6.8044 71.764 6.80623C71.449 6.8502 71.1322 6.89417 70.808 6.93997C70.3868 6.99127 69.9656 7.04257 69.5425 7.09387C69.1176 7.15433 68.6946 7.21662 68.2697 7.27708C67.6507 7.36868 67.039 7.45845 66.4255 7.54822C65.8119 7.63983 65.1966 7.73326 64.5904 7.91281C64.1417 8.02823 63.6911 8.13999 63.2351 8.24991C62.7809 8.369 62.3249 8.48991 61.8689 8.609C60.9495 8.83434 60.032 9.10732 59.1053 9.36198C58.6401 9.48107 58.1859 9.64412 57.7244 9.78519C57.2647 9.92993 56.805 10.0765 56.3435 10.2212C55.8856 10.3715 55.4186 10.5015 54.9663 10.6683C54.5158 10.8386 54.0652 11.0072 53.6165 11.1776C53.1752 11.3498 52.7393 11.5202 52.3071 11.6887C52.091 11.773 51.873 11.8499 51.6606 11.9379C51.45 12.0277 51.2393 12.1174 51.0306 12.2072C50.1954 12.559 49.3768 12.8814 48.5801 13.158C48.5582 13.158 48.5398 13.1544 48.5215 13.1526C48.2725 13.2918 48.038 13.4622 47.7963 13.6142C46.8989 14.0081 45.9978 14.3984 45.1096 14.8142C44.2452 15.2741 43.3936 15.7596 42.5786 16.2982L42.9339 16.1077C43.5859 15.7688 44.2836 15.384 44.9503 15.0304C45.1151 14.9388 45.2836 14.8601 45.4502 14.7868C45.6151 14.7135 45.7781 14.642 45.9374 14.5724C46.2542 14.4368 46.5509 14.3178 46.822 14.2243C46.7011 14.3819 46.3678 14.6072 45.9044 14.8765C45.7854 14.9425 45.6627 15.0121 45.5327 15.0854C45.4008 15.1568 45.2634 15.232 45.1242 15.3181C44.844 15.4848 44.5419 15.6607 44.2287 15.842L42.8533 16.6079C42.6244 16.7361 42.3936 16.8607 42.1665 16.9926L41.4999 17.4103L39.282 18.7954L37.1338 20.2867L36.5972 20.6604L36.328 20.8473L36.0697 21.047L35.035 21.8458L34.0002 22.6446C33.8281 22.7801 33.6523 22.9065 33.4856 23.0476L32.9893 23.4727L30.9985 25.171C30.3557 25.7609 29.7275 26.3655 29.0902 26.9609L28.614 27.4098L28.376 27.6333L28.1489 27.8696L27.2405 28.8113L26.3321 29.753C26.1837 29.9124 26.0244 30.0626 25.8834 30.2275L25.453 30.7204C22.4293 34.0804 19.7243 37.7281 17.382 41.5974C17.2684 41.962 17.0285 42.4163 16.7446 42.9018C16.6036 43.1455 16.4498 43.3947 16.2978 43.6475C16.1458 43.8985 15.9864 44.1477 15.8619 44.4005L15.0176 46.0237L14.5945 46.8353C14.525 46.9709 14.4499 47.1046 14.3858 47.242L14.1953 47.6579L13.4298 49.3196L13.047 50.1496C12.917 50.4262 12.8144 50.7138 12.6972 50.9941L12.1331 52.4415L11.8511 53.1652L11.7101 53.5261L11.5874 53.8943C11.4573 54.3615 11.4665 54.5282 11.3474 54.9698C11.2431 55.3032 11.1313 55.6458 11.0105 55.9921C10.8969 56.3401 10.7852 56.6626 10.7156 56.9722C10.4922 57.5988 10.2779 58.2382 10.0691 58.8886C9.96656 59.2147 9.864 59.5426 9.75961 59.8706C9.7065 60.0336 9.66071 60.2003 9.62225 60.3689L9.49772 60.8727C9.33472 61.5469 9.17172 62.2266 9.00873 62.9063L8.88786 63.4175C8.85306 63.5879 8.82376 63.7619 8.79079 63.9323C8.72669 64.2767 8.66259 64.6193 8.59849 64.9637C8.55088 65.3668 8.48678 65.6691 8.41169 65.8834C8.38422 66.1454 8.34209 66.4477 8.28532 66.7885C8.25602 67.0413 8.22671 67.2978 8.19741 67.558C8.21939 67.4297 8.25235 67.3051 8.29448 67.1824L8.28898 67.1458C8.36041 67.1403 8.35858 67.4041 8.24137 68.0948C8.21389 68.1039 8.18825 68.0984 8.16628 68.0764C8.16078 67.9793 8.16261 67.8822 8.16994 67.787C8.09852 68.3824 8.01793 68.9888 7.93552 69.5971C7.83662 70.2566 7.78534 70.929 7.71941 71.594C7.68095 72.0099 7.64066 72.4313 7.6022 72.8472C7.58389 73.0487 7.5674 73.2484 7.54909 73.4499C7.53078 73.6496 7.51613 73.8512 7.51246 74.0509C7.50147 74.4521 7.48865 74.8533 7.47767 75.2545C7.46118 75.6576 7.43554 76.0478 7.40258 76.4234C7.38976 76.6909 7.37877 76.962 7.36595 77.2332C7.36412 77.5062 7.36229 77.7791 7.35862 78.0539C7.35496 78.6036 7.34947 79.155 7.3458 79.6992C7.32016 80.7892 7.42455 81.85 7.57473 82.8027C7.62052 83.0042 7.65165 83.2955 7.66447 83.6784C7.6718 83.9313 7.66996 84.1859 7.68828 84.4424C7.71209 84.7007 7.73406 84.9609 7.75787 85.2247L7.81098 85.7487L7.93369 86.923L7.99596 87.5093C8.0161 87.7053 8.03442 87.9014 8.06921 88.0937C8.19375 88.8705 8.31645 89.6455 8.44099 90.4186C8.50692 90.8052 8.55637 91.1936 8.63512 91.5784L8.88236 92.7271C9.04902 93.491 9.21385 94.2569 9.38051 95.0208C9.58563 95.7756 9.79074 96.5286 9.99586 97.2816L10.3035 98.4102C10.4134 98.7839 10.5453 99.1522 10.6643 99.5222L11.3951 101.741L11.4866 102.018L11.5929 102.289L11.8035 102.833L12.2247 103.919C12.754 105.381 13.4298 106.783 14.0561 108.203C14.1367 108.379 14.2099 108.558 14.2979 108.732L14.5634 109.251L15.0927 110.288L15.6201 111.324L15.8839 111.843L16.1732 112.347L17.3307 114.366L17.62 114.871L17.9332 115.362L18.5614 116.343L19.1877 117.325L19.5009 117.816L19.8379 118.292C20.2866 118.926 20.7353 119.56 21.1858 120.194C21.2957 120.325 21.4001 120.461 21.5045 120.598C21.6125 120.734 21.7188 120.87 21.825 121.005C22.0356 121.278 22.237 121.56 22.4312 121.85L23.1967 122.797C23.4513 123.114 23.7003 123.435 23.9751 123.735C24.5098 124.349 25.0464 124.962 25.583 125.578C25.7167 125.732 25.8468 125.89 25.986 126.04L26.409 126.483L27.2533 127.374L28.0957 128.268L28.3064 128.491L28.528 128.704L28.9693 129.13L30.7348 130.84L32.5809 132.461L33.0424 132.866C33.1962 133.002 33.3482 133.137 33.5112 133.262L34.4746 134.022L35.4379 134.779L35.9196 135.156C36.0789 135.283 36.251 135.393 36.4159 135.512C38.9945 137.164 42.0127 139.238 45.0052 140.793C45.6902 141.132 46.3806 141.473 47.0747 141.816L47.5948 142.076C47.7688 142.164 47.9483 142.235 48.1259 142.316C48.4812 142.473 48.8384 142.633 49.1955 142.79C49.5526 142.95 49.9097 143.109 50.2669 143.27L50.8053 143.51L51.3547 143.727C52.0873 144.016 52.8217 144.306 53.5561 144.595C53.9205 144.749 54.2978 144.866 54.6714 144.996L55.7941 145.379L56.9167 145.762C57.1017 145.83 57.2922 145.883 57.4826 145.936L58.0522 146.097C58.8104 146.312 59.5686 146.528 60.325 146.74C61.0887 146.924 61.8542 147.09 62.6124 147.263C62.9439 147.338 63.3065 147.42 63.6637 147.503C64.0226 147.576 64.3779 147.64 64.6874 147.713C65.3064 147.854 65.746 147.999 65.6929 148.125C65.8834 148.201 66.017 148.268 66.1013 148.329C66.1031 148.332 66.1013 148.336 66.1013 148.34C66.2423 148.375 66.376 148.409 66.5024 148.446C66.5134 148.468 66.5189 148.488 66.5152 148.508L65.9694 148.402C65.931 148.406 65.8833 148.406 65.8284 148.406C65.5281 148.378 65.1801 148.332 64.7955 148.274C64.4109 148.212 64.0153 148.142 63.6179 148.069C63.2333 147.977 62.845 147.884 62.4586 147.79C62.0795 147.699 61.6986 147.607 61.3195 147.515C60.9459 147.427 60.5686 147.343 60.195 147.248C59.6437 147.098 59.0961 146.947 58.5449 146.797C58.1694 146.693 57.794 146.581 57.4185 146.467C57.2629 146.422 57.1072 146.374 56.9534 146.328C56.697 146.249 56.4314 146.16 56.1567 146.061C56.1366 146.053 56.1219 146.046 56.1036 146.039C55.8032 145.942 55.5047 145.845 55.2062 145.747C54.8069 145.617 54.4095 145.489 54.0011 145.357C53.6715 145.255 53.3583 145.117 53.0451 145.002C52.732 144.885 52.4224 144.769 52.1184 144.656C51.5122 144.43 50.9207 144.234 50.3676 144.038C50.0196 143.903 49.646 143.752 49.2706 143.595C48.9061 143.441 48.5289 143.281 48.1552 143.124C48.2688 143.175 48.3823 143.225 48.4977 143.278C48.8457 143.435 49.1937 143.595 49.5416 143.752C49.8951 143.906 50.2376 144.064 50.5819 144.197C51.1148 144.388 51.6404 144.577 52.1734 144.767C52.6404 144.938 53.1056 145.106 53.5744 145.277C54.0451 145.438 54.5249 145.575 55.0011 145.727C55.5597 145.905 56.1127 146.081 56.6695 146.259C56.8197 146.304 56.968 146.35 57.1164 146.398C57.1914 146.418 57.2647 146.438 57.3398 146.458C57.5321 146.515 57.7299 146.572 57.9204 146.629C58.1053 146.685 58.2958 146.744 58.4826 146.801C58.9771 146.969 59.3946 147.129 59.8031 147.286C60.2371 147.451 60.6858 147.545 61.1308 147.625C61.4055 147.669 61.6802 147.713 61.9641 147.757C62.2773 147.81 62.6051 147.873 62.9531 147.942C63.1362 147.983 63.3212 148.021 63.5098 148.061C63.6966 148.103 63.8889 148.129 64.0794 148.166C64.4603 148.232 64.8394 148.3 65.2057 148.354C65.583 148.409 65.9694 148.479 66.3705 148.563C66.6599 148.629 66.9126 148.706 67.1324 148.756C67.3521 148.809 67.5335 148.86 67.6781 148.911C67.7715 148.954 67.7789 148.981 67.7221 148.999C68.0572 149.025 68.4125 149.06 68.7843 149.102C69.2696 149.157 69.7641 149.216 70.2604 149.272C71.0022 149.324 71.7494 149.375 72.5131 149.428C73.8299 149.56 75.099 149.593 76.2583 149.729C76.6026 149.718 77.0184 149.745 77.4744 149.758C77.8736 149.772 78.033 149.807 78.0604 149.849C78.3956 149.793 78.2619 149.719 78.6868 149.666C79.0274 149.635 79.4065 149.611 79.8223 149.595C80.031 149.589 80.238 149.584 80.4486 149.578C80.6574 149.575 80.868 149.573 81.0786 149.554C81.4998 149.531 81.9229 149.505 82.3459 149.481C82.747 149.459 83.1499 149.441 83.5455 149.424C83.9191 149.406 84.2927 149.41 84.6517 149.377C85.1389 149.346 85.6132 149.314 86.1095 149.283C86.1187 149.283 86.5838 149.236 86.5838 149.236C86.5838 149.236 87.049 149.183 87.0582 149.181C87.1058 149.173 87.1534 149.166 87.201 149.159L87.1717 149.08L87.0893 149.074C87.4593 149.001 87.7743 148.983 88.0307 148.966C88.2651 148.911 88.5343 148.864 88.8365 148.82H88.8914C88.9922 148.798 89.0892 148.776 89.1918 148.754C89.5123 148.688 89.8474 148.627 90.1954 148.571C90.5415 148.518 90.8803 148.472 91.21 148.433C91.6807 148.371 92.1294 148.289 92.5909 148.219C92.9187 148.166 93.2374 148.114 93.5597 148.063C93.9223 147.99 94.2575 147.913 94.578 147.829C94.9204 147.752 95.2611 147.642 95.6146 147.545C96.1493 147.394 96.6896 147.25 97.2299 147.107C97.5925 147.012 97.9551 146.914 98.3177 146.819C98.6382 146.729 98.9514 146.619 99.2682 146.524C99.2792 146.519 99.2866 146.515 99.2866 146.515C98.9422 146.612 98.6016 146.728 98.2536 146.808C98.2793 146.777 98.2994 146.748 98.3177 146.72C98.3177 146.72 98.4386 146.687 98.5558 146.643C98.673 146.603 98.7902 146.561 98.7902 146.561L99.2756 146.414L99.1583 146.418L100.277 146.085L100.25 146.205C100.49 146.125 100.73 146.046 100.968 145.967C101.228 145.876 101.484 145.784 101.741 145.694C101.997 145.608 102.242 145.491 102.497 145.39C103.191 145.104 103.907 144.828 104.636 144.553L104.094 144.736C103.801 144.866 103.497 144.98 103.186 145.077L102.226 145.467C102.204 145.438 102.195 145.405 102.195 145.366L103.158 145.005L104.134 144.639H104.021C104.356 144.489 104.689 144.368 105.019 144.276C105.184 144.219 105.345 144.15 105.506 144.08L105.988 143.875L106.951 143.463C106.944 143.499 106.929 143.542 106.905 143.587L106.222 143.912C106.477 143.807 106.729 143.705 106.98 143.602C107.187 143.523 107.376 143.454 107.554 143.393C107.685 143.285 107.907 143.144 108.217 142.972C108.308 142.922 108.402 142.873 108.497 142.823C108.59 142.768 108.687 142.714 108.784 142.657C108.982 142.545 109.185 142.431 109.394 142.312C109.249 142.351 109.191 142.343 109.224 142.29L109.348 142.175L109.669 141.981L111.511 141.057L113.304 140.044C114.044 139.59 114.691 139.229 114.984 139.119C115.463 138.765 115.973 138.412 116.513 138.06C116.784 137.884 117.062 137.708 117.35 137.534C117.639 137.362 117.918 137.159 118.216 136.974C118.791 136.611 119.037 136.539 119.54 136.241C119.833 136.015 120.128 135.788 120.423 135.559C120.71 135.317 120.998 135.074 121.287 134.83C121.868 134.345 122.459 133.857 123.056 133.37C123.633 132.853 124.212 132.335 124.795 131.813C125.086 131.551 125.384 131.296 125.674 131.03C125.956 130.756 126.238 130.481 126.52 130.206C126.804 129.931 127.087 129.656 127.371 129.381L127.798 128.969C127.941 128.832 128.084 128.696 128.216 128.548C128.756 127.971 129.298 127.392 129.838 126.817C130.391 126.252 130.882 125.635 131.391 125.039C131.642 124.739 131.895 124.44 132.144 124.142L132.518 123.695C132.638 123.543 132.752 123.385 132.869 123.231C133.206 122.784 133.545 122.337 133.886 121.886C134.224 121.434 134.583 120.994 134.895 120.52C135.217 120.053 135.541 119.585 135.865 119.116C136.188 118.647 136.521 118.189 136.81 117.7C136.968 117.385 137.158 117.094 137.378 116.823C139.878 112.766 141.959 108.465 143.585 104.011C143.904 103.227 144.143 102.411 144.409 101.609C144.667 100.803 144.951 100.006 145.154 99.1833C145.334 98.6722 145.49 98.1738 145.632 97.6828C145.7 97.4373 145.768 97.1955 145.836 96.9537C145.903 96.7137 145.944 96.4663 145.997 96.2245C146.098 95.739 146.196 95.2553 146.297 94.768C146.352 94.5243 146.407 94.2788 146.462 94.0333C146.517 93.786 146.587 93.5387 146.634 93.284L147.019 91.2944C147.061 91.0452 147.101 90.7997 147.143 90.5542C147.162 90.4315 147.184 90.3106 147.2 90.1878L147.239 89.8214C147.288 89.3341 147.337 88.8486 147.387 88.3576C147.44 87.8666 147.499 87.3719 147.568 86.8607C147.612 86.3478 147.671 85.8183 147.748 85.2668L147.843 84.261C147.87 83.9184 147.92 83.5795 147.927 83.2351L147.944 80.9596L147.949 80.3917V80.1077L147.94 79.8237L147.892 78.6878L147.845 77.5538L147.821 76.9877L147.81 76.7037L147.784 76.4216L147.575 74.1644C147.127 71.4127 146.896 69.7491 146.85 67.0743C146.859 66.2847 146.81 65.6379 146.823 65.1121C146.828 64.5882 146.861 64.1906 146.922 63.9195C147.044 63.3772 147.281 63.3405 147.645 63.8004C147.566 63.4046 147.495 63.0254 147.429 62.659C147.348 62.2962 147.27 61.95 147.202 61.6184C147.065 60.9533 146.956 60.3487 146.88 59.7991C146.673 58.938 146.477 58.3023 146.348 57.8425C146.217 57.3826 146.141 57.1041 146.123 56.9649C146.087 56.6901 146.281 56.9832 146.658 57.5805C146.881 57.9359 146.766 57.302 146.592 56.6241C146.262 55.3362 146.099 54.6162 146.074 54.2388C146.044 53.8613 146.149 53.8265 146.301 53.9218C146.609 54.1123 147.11 54.8342 147.156 54.3359C147.173 54.1435 147.46 54.8269 147.715 55.6C148.006 56.4794 148.229 57.2397 148.114 57.3038C148.022 57.3551 148.028 57.6849 148.112 58.2015C148.134 58.3316 148.16 58.4727 148.189 58.6229C148.216 58.775 148.248 58.938 148.282 59.1103C148.354 59.4547 148.445 59.8339 148.555 60.2388C149.028 61.9866 149.096 61.2336 149.427 61.9536C149.98 63.2819 150.301 63.128 150.456 62.7836C150.63 62.3933 150.896 62.822 151.222 63.7106C151.385 64.154 151.564 64.7128 151.753 65.3393C151.923 65.9696 152.079 66.6731 152.253 67.3967C152.302 67.5287 152.354 67.7119 152.409 67.939C152.467 68.212 152.506 68.3018 152.515 68.168C152.509 68.1332 152.436 67.7119 152.436 67.7119L152.372 67.2887C152.317 66.9589 152.258 66.6108 152.2 66.2554C152.172 66.0777 152.143 65.8963 152.116 65.7149C152.09 65.5335 152.059 65.3503 152.019 65.1708C151.868 64.4489 151.72 63.7289 151.572 63.0859C151.498 62.7652 151.423 62.463 151.35 62.19C151.277 61.917 151.207 61.6733 151.119 61.4718C150.954 61.0669 150.801 60.8159 150.661 60.7903C150.559 60.7719 150.161 59.2367 150.037 58.5973C149.753 57.1444 149.284 55.4223 149.623 55.7502C149.771 55.8968 149.764 55.4974 149.841 55.3985C149.916 55.2995 150.092 55.4974 150.568 56.8605C150.931 57.8864 151.196 58.7732 151.471 59.5426C151.738 60.3139 151.997 60.9753 152.229 61.5781C152.65 62.7964 153.042 63.7729 153.454 64.9051L153.539 65.1506C153.562 65.2349 153.586 65.3173 153.61 65.4034C153.658 65.5738 153.705 65.7534 153.753 65.9494C153.848 66.3396 153.947 66.7977 154.046 67.3913C154.095 67.6844 154.145 67.9812 154.196 68.278C154.269 68.5656 154.335 68.8881 154.339 69.2581C154.339 69.2673 154.339 69.271 154.339 69.2783L154.343 69.3039C154.376 69.5036 154.408 69.7033 154.441 69.9049L154.462 70.1614C154.467 70.0423 154.482 70.0276 154.507 70.1247C154.539 70.2475 154.561 70.3665 154.573 70.482C154.61 70.7385 154.639 71.0023 154.667 71.2698L154.691 71.3339L154.716 71.5812C154.734 71.6179 154.753 71.6508 154.771 71.6747C154.817 71.7351 154.865 71.8414 154.916 71.9843C154.943 72.0777 154.971 72.1895 154.998 72.3104L154.914 71.453C154.914 71.2917 154.918 71.1324 154.919 70.9693C154.932 71.0243 154.945 71.0811 154.956 71.136C154.918 70.8301 154.894 70.5278 154.885 70.231L154.907 70.3244C154.907 70.3244 154.912 70.3244 154.914 70.3244C154.883 70.2017 154.852 70.0441 154.817 69.8517C154.786 69.6227 154.758 69.3937 154.736 69.1665L154.703 68.8258L154.661 68.4887L154.665 68.1974C154.647 68.1809 154.625 68.1424 154.595 68.0618C154.517 67.787 154.438 67.4297 154.359 66.9919C154.262 66.2957 154.154 65.7387 154.04 65.2276C153.92 64.7164 153.769 64.2547 153.637 63.7344C153.691 63.172 153.738 62.9668 153.905 63.5439C153.987 63.8315 154.101 64.3134 154.255 65.0444C154.376 65.7809 154.526 66.7665 154.722 68.0545C154.78 68.3751 154.857 68.7067 154.894 69.0566C154.962 69.3992 155.009 69.7803 155.037 70.198C155.04 70.2035 155.044 70.2072 155.046 70.2108L155.04 70.1522C155.02 69.7968 155.018 69.5293 155.031 69.3369C155.414 67.9757 155.731 73.3675 155.916 74.7452L156.013 76.4326L156.029 78.1236C156.029 78.3306 156.029 78.5376 156.031 78.7465C156.029 79.1697 156.02 79.5727 156.006 79.963C155.995 80.3459 155.936 80.6683 155.896 80.9413C155.848 81.1923 155.8 81.3957 155.753 81.5789C155.678 81.8628 155.604 82.0222 155.544 81.8409C155.54 81.7712 155.535 81.6998 155.531 81.6265C155.524 81.8757 155.517 82.1285 155.507 82.385C155.493 82.8064 155.476 83.2461 155.46 83.6711C155.456 83.9496 155.434 84.2299 155.412 84.5029C155.392 84.7758 155.377 85.0433 155.366 85.2962C155.363 85.5728 155.388 85.6039 155.418 85.5984L155.484 84.8986L155.557 84.9059L155.489 85.6278C155.509 85.8275 155.513 86.1114 155.496 86.5017C155.473 86.934 155.447 87.3737 155.407 87.8318C155.282 88.7918 155.147 89.7481 155 90.7063C154.881 91.571 154.676 92.3991 154.5 93.1997C154.407 93.5973 154.315 93.9875 154.225 94.3704C154.13 94.7497 154.05 95.1234 153.931 95.477C153.879 95.6291 153.833 95.7518 153.789 95.8544C153.735 96.241 153.68 96.6276 153.625 97.016C153.557 97.375 153.476 97.7543 153.381 98.1555L153.235 98.7546L153.061 99.3445C152.982 99.6029 152.905 99.83 152.83 100.032V100.026L152.788 100.409L152.222 102.391C152.235 102.725 151.903 103.644 151.575 104.553C151.412 105.007 151.249 105.46 151.13 105.837C151.002 106.211 150.911 106.506 150.92 106.658C151.147 106.433 150.841 107.29 150.528 108.16C150.389 108.531 150.242 108.908 150.092 109.287C149.998 109.546 149.874 109.791 149.76 110.046L149.823 109.936C149.68 110.311 149.513 110.676 149.319 111.026C149.29 111.077 149.262 111.119 149.238 111.156C149.097 111.449 148.955 111.742 148.815 112.032C148.704 112.252 148.597 112.453 148.497 112.636C148.491 112.671 148.488 112.7 148.478 112.741C148.412 112.97 148.288 113.252 148.145 113.58C147.989 113.917 147.817 114.272 147.64 114.63C147.467 114.97 147.292 115.322 147.119 115.667C146.995 115.91 146.887 116.161 146.755 116.394C146.63 116.628 146.508 116.859 146.387 117.088C146.237 117.38 146.072 117.685 145.903 117.993C145.757 118.268 145.616 118.536 145.49 118.788L145.801 118.242L145.577 118.719C145.623 118.682 145.658 118.664 145.68 118.669C145.68 118.765 145.605 118.979 145.453 119.311L145.273 119.629L145.081 119.941L144.924 120.117C144.891 120.183 144.858 120.249 144.821 120.32C144.658 120.617 144.473 120.936 144.268 121.276C143.947 121.795 143.62 122.321 143.295 122.845C143.226 122.949 143.156 123.052 143.087 123.156C143.279 122.896 143.455 122.627 143.634 122.361C143.874 122.015 144.096 121.709 144.301 121.441C144.354 121.379 144.391 121.34 144.422 121.315L144.643 120.882L145.001 120.401C145.021 120.426 145.039 120.456 145.055 120.489L144.446 121.428L143.865 122.354C143.671 122.661 143.484 122.975 143.27 123.27C143.054 123.609 142.814 123.964 142.548 124.336L142.151 124.882L141.768 125.369C141.614 125.516 141.55 125.532 141.578 125.421C141.623 125.338 141.676 125.25 141.731 125.159C141.55 125.417 141.369 125.679 141.186 125.941C140.916 126.285 140.645 126.632 140.376 126.978C140.017 127.441 139.658 127.901 139.301 128.361C139.42 128.213 139.537 128.066 139.658 127.916C139.96 127.551 140.243 127.229 140.504 126.943C140.713 126.747 140.739 126.782 140.552 127.079L139.208 128.832C139.085 129.011 138.944 129.184 138.798 129.359C138.651 129.535 138.497 129.717 138.336 129.9L137.858 130.433L137.451 130.831C137.332 130.897 137.334 130.825 137.455 130.622C137.552 130.501 137.653 130.378 137.754 130.254C137.345 130.723 136.95 131.149 136.569 131.543L136.549 131.578C136.342 131.855 136.082 132.124 135.814 132.423C135.536 132.718 135.256 133.016 134.972 133.317C134.68 133.621 134.391 133.923 134.098 134.229C133.803 134.552 133.481 134.837 133.164 135.14C132.833 135.449 132.507 135.753 132.175 136.063C132.106 136.127 132.038 136.189 131.968 136.252L131.906 136.314C131.664 136.556 131.424 136.798 131.186 137.036C130.64 137.523 130.074 137.99 129.52 138.469C129.208 138.771 128.851 139.093 128.454 139.429C128.172 139.68 127.86 139.907 127.569 140.13C127.276 140.35 126.994 140.553 126.738 140.713L126.75 140.7C126.536 140.834 126.401 140.905 126.324 140.927C126.197 141.026 126.071 141.11 125.946 141.176L125.716 141.358C125.582 141.437 125.432 141.537 125.274 141.649C125.196 141.706 125.113 141.764 125.031 141.825C124.945 141.882 124.857 141.94 124.769 142.001C124.415 142.239 124.053 142.488 123.738 142.681C123.527 142.779 123.434 142.794 123.452 142.726C123.595 142.549 123.893 142.276 124.258 141.962C124.445 141.799 124.664 141.631 124.89 141.44C125.117 141.248 125.357 141.044 125.6 140.837C125.857 140.632 126.067 140.478 126.238 140.37C126.364 140.244 126.516 140.101 126.699 139.938C126.904 139.766 127.113 139.59 127.324 139.412L127.272 139.445C127.254 139.441 127.239 139.434 127.227 139.425L127.208 139.438C126.851 139.669 126.529 139.866 126.119 140.149C125.848 140.348 125.577 140.553 125.305 140.77L125.152 140.894C125.249 140.839 125.305 140.821 125.274 140.88C125.335 140.863 125.371 140.867 125.382 140.891C125.205 141.072 124.981 141.272 124.721 141.475C124.456 141.669 124.154 141.871 123.833 142.078C123.769 142.114 123.712 142.147 123.655 142.18C123.679 142.171 123.699 142.166 123.699 142.166C123.34 142.435 123 142.664 122.676 142.853C122.41 142.992 122.403 142.95 122.615 142.757L123.095 142.422C123.095 142.422 123.093 142.413 123.095 142.406L122.749 142.648L122.611 142.745C122.611 142.745 122.611 142.756 122.613 142.759L122.155 143.122L121.895 143.276C121.983 143.248 122.018 143.258 121.983 143.318C121.954 143.353 121.914 143.391 121.875 143.432L122.102 143.289C122.274 143.215 122.355 143.206 122.35 143.261C122.28 143.358 122.121 143.51 121.862 143.723C121.513 143.97 121.176 144.157 120.87 144.322C120.687 144.406 120.626 144.414 120.67 144.355L120.401 144.529C119.998 144.769 119.676 144.943 119.445 145.04C119.374 145.059 119.333 145.059 119.32 145.042C119.231 145.106 119.141 145.168 119.055 145.231C118.982 145.286 118.912 145.341 118.839 145.394L118.826 145.44C118.712 145.518 118.595 145.594 118.48 145.667C118.328 145.782 118.167 145.885 117.998 146C117.69 146.196 117.361 146.398 117.007 146.607C116.469 146.922 115.921 147.231 115.368 147.539C115.015 147.748 114.636 147.911 114.275 148.089C113.929 148.254 113.584 148.411 113.255 148.56L113.136 148.613C113.121 148.638 113.055 148.688 112.934 148.767C112.665 148.917 112.414 149.042 112.18 149.142C112.156 149.168 112.123 149.19 112.081 149.212C111.61 149.507 111.075 149.747 110.519 150C109.96 150.251 109.37 150.496 108.764 150.74C108.44 150.863 108.154 150.971 107.9 151.044C107.478 151.224 107.077 151.368 106.698 151.478C106.407 151.546 106.378 151.513 106.603 151.387L106.131 151.564C105.748 151.707 105.367 151.852 104.984 151.995C104.601 152.136 104.224 152.29 103.834 152.407C103.442 152.537 103.052 152.667 102.664 152.797C102.079 153.001 101.504 153.202 100.926 153.404C100.724 153.471 100.523 153.548 100.318 153.607C100.111 153.666 99.9037 153.724 99.695 153.783C99.2756 153.897 98.8543 154.012 98.4313 154.127C98.0137 154.237 97.5925 154.349 97.1749 154.459C96.5706 154.631 95.9479 154.743 95.3362 154.871C94.9479 154.952 94.5542 155.032 94.1659 155.113C93.7923 155.192 93.4132 155.274 93.0396 155.353C92.9022 155.384 92.7667 155.415 92.633 155.445C92.4975 155.47 92.3638 155.496 92.2301 155.52C91.9645 155.571 91.7026 155.622 91.4426 155.674C91.0855 155.745 90.7155 155.813 90.3346 155.879C89.9482 155.943 89.5617 156.007 89.1716 156.071C88.7815 156.143 88.3878 156.174 87.994 156.218C87.5984 156.26 87.2047 156.302 86.8091 156.346C86.4117 156.39 86.0161 156.436 85.6187 156.48C85.4172 156.505 85.2176 156.531 85.018 156.555C84.8184 156.581 84.6187 156.59 84.4191 156.608C83.8001 156.663 83.1866 156.716 82.5566 156.771C81.9797 156.811 81.3991 156.866 80.813 156.881C80.227 156.888 79.6373 156.894 79.0476 156.901C78.5549 156.905 78.0659 156.908 77.5733 156.912L77.1997 156.916L76.8279 156.901L76.0825 156.868C74.6723 156.791 73.3116 156.777 71.982 156.654C71.3172 156.608 70.6579 156.564 70.0004 156.52L69.5077 156.487L69.0187 156.434L68.0426 156.326C67.6763 156.282 67.3045 156.236 66.9273 156.19C66.9584 156.21 66.9785 156.229 66.9712 156.243C66.8339 156.271 66.5958 156.276 66.2405 156.258C66.0848 156.245 65.9273 156.231 65.7661 156.216C65.605 156.196 65.4383 156.168 65.2698 156.143C64.931 156.09 64.5794 156.029 64.2186 155.963C63.7406 155.873 63.2608 155.785 62.7791 155.694L62.0502 155.553C61.8084 155.501 61.5704 155.437 61.3286 155.379C60.347 155.133 59.3891 154.884 58.5833 154.624C58.3434 154.536 58.2683 154.488 58.3562 154.481C58.4185 154.475 58.4771 154.477 58.5357 154.486L58.3745 154.455C57.946 154.353 57.4955 154.232 57.0431 154.113C56.6054 153.994 56.1549 153.864 55.708 153.732C55.4937 153.666 55.2813 153.6 55.0688 153.534C54.8582 153.468 54.6476 153.402 54.448 153.321C53.9883 153.145 53.5231 152.969 53.0396 152.794C53.0616 152.823 53.0836 152.854 53.1129 152.887L54.1861 153.259L54.0451 153.248L54.4388 153.446L54.0579 153.378C53.6989 153.266 53.4206 153.162 53.2154 153.068C52.6605 152.916 51.9847 152.68 51.373 152.488C51.2577 152.449 51.1423 152.413 51.0269 152.37L50.6899 152.235C50.4665 152.143 50.2431 152.05 50.0215 151.954C49.5911 151.766 49.1845 151.581 48.8054 151.401L47.7084 150.925C47.7358 150.908 47.756 150.888 47.7688 150.866C48.3622 151.066 49.0984 151.383 49.8108 151.68C50.5233 151.975 51.2046 152.257 51.7027 152.334L51.2137 152.165C51.0507 152.107 50.8914 152.037 50.7302 151.973C50.1588 151.731 49.5929 151.496 49.0325 151.269C48.7523 151.158 48.4721 151.044 48.1955 150.934C47.9172 150.822 47.6388 150.72 47.3696 150.595C46.2872 150.115 45.2177 149.663 44.1591 149.217C43.7141 149.001 43.2654 148.774 42.813 148.538C42.1427 148.179 41.4761 147.823 40.8058 147.464C40.3607 147.204 39.9194 146.946 39.4743 146.685C39.0732 146.451 38.674 146.216 38.2766 145.982C38.077 145.865 37.8792 145.749 37.6795 145.634C37.4818 145.517 37.2913 145.387 37.099 145.264C36.3261 144.771 35.5569 144.282 34.7951 143.796C34.4068 143.562 34.0442 143.296 33.6742 143.043C33.3043 142.79 32.9362 142.538 32.5699 142.285C32.2018 142.036 31.8355 141.786 31.4692 141.539C31.1048 141.29 30.7586 141.021 30.4033 140.766C30.0645 140.513 29.722 140.253 29.3777 139.987L29.9729 140.464L29.8338 140.401L30.103 140.698L29.6781 140.436C29.266 140.123 28.854 139.8 28.4437 139.474C28.2349 139.315 28.039 139.143 27.843 138.969L27.2515 138.45C26.9181 138.159 26.6691 137.921 26.4933 137.727C26.4566 137.708 26.42 137.684 26.3815 137.651C25.8541 137.223 25.3211 136.79 24.8523 136.276C24.6234 136.008 24.5684 135.898 24.715 135.973C25.0025 136.235 25.279 136.508 25.5739 136.761L26.464 137.516L26.3541 137.472L27.713 138.622C27.2698 138.229 26.8467 137.842 26.4328 137.455C22.5942 133.976 19.1053 130.164 15.926 126.175L15.2099 125.257L14.5378 124.305C14.0927 123.667 13.6459 123.028 13.2008 122.388C12.9719 122.073 12.7778 121.733 12.5672 121.405L11.9482 120.412L11.3291 119.419C11.1222 119.087 10.9134 118.759 10.7303 118.415C10.3493 117.735 9.96839 117.053 9.58929 116.376L9.01972 115.357L8.49593 114.318C8.1443 113.627 7.7945 112.939 7.44287 112.25C7.25973 111.909 7.10772 111.557 6.94472 111.207L6.46123 110.163C4.24888 105.18 2.6702 99.8758 1.45597 94.6086L1.40835 94.4034C1.51824 95.1216 1.69589 96.0303 1.75266 96.5964C1.46146 96.1695 1.22338 94.3485 0.955993 93.3793C0.842445 92.892 0.756369 92.3753 0.662967 91.8605C0.569565 91.3457 0.477994 90.829 0.397411 90.3344C0.316829 89.8397 0.250898 89.3634 0.210607 88.9292C0.184967 88.4931 0.190461 88.0974 0.228921 87.7658C0.267381 88.0259 0.309503 88.2678 0.351626 88.5078L0.415726 88.8669C0.441365 88.986 0.468837 89.1069 0.494476 89.2278C0.598867 89.717 0.701427 90.2483 0.789334 90.928C0.750875 90.3875 0.699595 89.8214 0.639158 89.2351C0.624507 89.0886 0.608024 88.9402 0.593373 88.7918C0.584216 88.6415 0.573227 88.4895 0.562239 88.3374C0.53843 88.0314 0.516454 87.7218 0.492645 87.4085C0.443197 86.7801 0.384592 86.1334 0.322323 85.4739C0.305841 85.309 0.291189 85.1423 0.274707 84.9755C0.260055 84.8088 0.256392 84.6403 0.245404 84.4717C0.22709 84.1328 0.208776 83.792 0.18863 83.4494L0.0512739 80.9596L0.0347911 78.4643L0.0292969 77.2167C0.0366225 76.8008 0.0622624 76.3868 0.0769137 75.9709L0.186799 73.4792C0.450523 70.165 0.811311 66.8508 1.4871 63.5933C1.54022 63.15 1.60798 62.692 1.6849 62.2248C1.70504 62.1075 1.72519 61.9903 1.7435 61.873C1.76914 61.7558 1.79478 61.6385 1.82225 61.5213C1.8772 61.2868 1.93214 61.0486 1.98891 60.8104C2.10612 60.3341 2.22516 59.8522 2.34421 59.3686L2.52735 58.6431C2.58962 58.4012 2.64456 58.1594 2.71965 57.9231L3.65733 54.6528C3.86062 53.9383 4.10969 53.2256 4.35876 52.5093C4.48513 52.152 4.61333 51.7929 4.74153 51.4338L4.93749 50.897L5.15543 50.3694C5.37886 49.8381 5.60046 49.305 5.8239 48.7737L6.15538 47.9749C6.26893 47.7092 6.36966 47.4399 6.49786 47.1816L7.46851 45.0362C7.90988 44.0432 8.43183 43.0906 8.9373 42.1287C9.223 41.5809 9.49405 41.024 9.78708 40.4817C10.0911 39.943 10.3951 39.4062 10.701 38.8676C10.9281 38.4591 11.1625 38.0505 11.3987 37.6401L11.5764 37.3342L11.7687 37.0355L12.1551 36.4383L13.3492 34.597L13.6495 34.1372L13.9682 33.692L14.6074 32.8016L15.8894 31.0226L17.2519 29.3042C18.1621 28.1096 19.1749 27.0012 20.1602 25.869L20.532 25.4458L20.717 25.2351L20.9111 25.0318L21.6913 24.2201L23.2535 22.6006C24.2333 21.6681 25.2186 20.7355 26.2094 19.8103C26.7258 19.3706 27.2405 18.9328 27.7551 18.4931L28.5316 17.8427C28.7935 17.6302 29.0463 17.4066 29.321 17.2124C29.3741 17.1923 29.418 17.174 29.4675 17.1556L31.3923 15.6625L31.874 15.2906C32.0333 15.1642 32.1945 15.0414 32.3629 14.9278L33.3611 14.2298L35.361 12.8374L37.4231 11.5422L38.4561 10.8954C38.8022 10.6811 39.1612 10.4942 39.5146 10.2908L41.6409 9.09999C41.9925 8.8948 42.3588 8.72075 42.7214 8.53938L43.813 7.99708L44.9045 7.45662C45.2671 7.27524 45.6315 7.09387 46.0052 6.93814L47.082 6.51127L46.952 6.52776L48.5801 5.84439C48.853 5.73447 49.1204 5.60805 49.3969 5.51095L50.2266 5.20866L51.2485 4.78545L52.7448 4.23949C52.992 4.14239 53.2484 4.07277 53.5011 3.99216L54.2612 3.75582C55.0853 3.48101 55.9058 3.20803 56.7263 2.93322C57.479 2.70054 58.228 2.49901 58.9459 2.34329C62.8615 1.50969 67.0664 0.694417 71.2476 0.284031C73.5973 0.0733424 76.0312 -0.097041 78.2088 0.01838C80.8808 -0.102537 83.7964 0.164946 86.4501 0.315177C88.6515 0.467239 90.71 0.809838 92.7063 1.20373C93.7007 1.42542 94.686 1.62695 95.6548 1.88893L97.1108 2.26817C97.5925 2.40741 98.076 2.54482 98.5595 2.68405C98.8965 2.73719 99.2939 2.8178 99.7536 2.95887C100.413 3.16406 101.061 3.35826 101.713 3.57628C102.407 3.80895 103.083 4.03979 103.726 4.2798C103.733 4.28346 103.739 4.28529 103.746 4.28896C103.752 4.28529 103.768 4.28529 103.801 4.29262C103.935 4.31827 104.065 4.35125 104.189 4.39522L105.319 4.77995C105.493 4.82759 105.678 4.88255 105.87 4.94301C106.061 5.00896 106.261 5.08225 106.469 5.16103L107.696 5.6337C108.312 5.87004 108.914 6.13752 109.522 6.39035C109.731 6.47829 109.925 6.5644 110.105 6.64867C110.284 6.73478 110.445 6.82272 110.594 6.90516L110.422 6.8502C110.048 6.74944 109.229 6.43798 108.513 6.165C107.799 5.88836 107.167 5.70698 107.184 5.8334L106.731 5.72164C106.327 5.58973 105.942 5.44683 105.568 5.31126C105.195 5.17935 104.839 5.04011 104.502 4.89721C104.612 4.9595 104.693 5.01263 104.746 5.05843C105.213 5.23248 105.684 5.39736 106.145 5.58973L107.272 6.01844C107.244 6.03309 107.226 6.05325 107.22 6.07706L106.101 5.65569C105.773 5.53477 105.444 5.42851 105.116 5.32774L104.717 5.18484C104.717 5.18484 104.709 5.18851 104.702 5.19034C104.623 5.17935 104.535 5.16469 104.442 5.14637C104.938 5.36072 105.51 5.58057 105.86 5.76561C106.209 5.94699 106.348 6.06058 105.997 6.01844C105.605 5.89752 105.156 5.76744 104.665 5.60805C103.459 5.18118 102.23 4.80743 101.006 4.40438C101.479 4.55827 101.955 4.71949 102.437 4.86972C102.916 5.02179 103.402 5.16835 103.874 5.34423C104.317 5.49996 104.761 5.65569 105.206 5.81325C105.653 5.96348 106.09 6.13936 106.532 6.30241C106.971 6.47096 107.414 6.63035 107.847 6.81356C108.279 6.99677 108.707 7.18547 109.132 7.37967C109.37 7.49143 109.59 7.59403 109.788 7.69845C109.986 7.80472 110.167 7.90731 110.334 8.00441L110.427 8.13449C110.235 8.10518 109.931 8.00808 109.515 7.86517C109.138 7.73693 108.74 7.59403 108.328 7.44013C108.455 7.52807 108.519 7.59036 108.511 7.627C108.447 7.64532 108.301 7.627 108.096 7.57754C107.742 7.48227 107.315 7.34486 106.801 7.18547C106.295 7.01875 105.762 6.82639 105.219 6.62852C104.867 6.5076 104.51 6.38669 104.153 6.26577C103.977 6.20531 103.797 6.14302 103.62 6.08256C103.248 5.97813 102.816 5.85722 102.38 5.73447C101.94 5.61172 101.501 5.48897 101.133 5.40103C102.081 5.73813 103.1 6.06241 104.061 6.43982C104.543 6.62669 105.023 6.79524 105.468 6.9931C105.916 7.1873 106.343 7.37967 106.735 7.57021C108.557 8.50823 110.749 9.49939 112.949 10.6444C115.152 11.7803 117.374 13.039 119.298 14.3434C119.293 14.3727 119.289 14.4057 119.291 14.4405C118.645 14.0997 117.916 13.6802 117.189 13.2313C116.452 12.8008 115.703 12.3721 115.013 12.0332C113.194 11.1501 111.251 10.1278 109.343 9.34183C108.7 9.06885 108.046 8.81419 107.42 8.52472L107.394 8.53938ZM148.795 66.3763C148.79 66.3213 148.786 66.27 148.781 66.2169C148.766 66.1766 148.751 66.1381 148.737 66.096C148.757 66.1931 148.777 66.2865 148.795 66.3763ZM155.462 78.8839C155.44 78.0375 155.441 77.18 155.425 76.3061C155.401 75.7932 155.386 75.2985 155.375 74.8112C155.37 74.3312 155.379 73.9299 155.399 73.5892C155.403 73.5782 155.405 73.569 155.407 73.558L155.357 73.4719C155.313 73.1586 155.293 72.8142 155.242 72.4386C155.211 72.162 155.178 71.8835 155.145 71.605C155.136 71.5775 155.125 71.5372 155.114 71.4933L155.095 71.9073L155.053 71.7791C155.088 72.0246 155.104 72.2701 155.103 72.5137L155.117 72.5889L155.024 72.5779C155.037 72.642 155.049 72.697 155.057 72.7684C155.101 73.144 155.139 73.5379 155.174 73.9574C155.207 74.3898 155.238 74.824 155.273 75.2674C155.306 75.7309 155.352 76.1889 155.37 76.6524C155.394 77.4182 155.429 78.151 155.462 78.882V78.8839ZM152.746 99.6761L152.866 99.2566L153.022 98.7308L153.152 98.1976L153.295 97.67L153.416 97.1332C153.522 96.7247 153.63 96.3143 153.736 95.9057C153.692 96.0065 153.654 96.0798 153.621 96.1274C153.586 95.9607 153.687 95.4862 153.802 94.8852C153.791 94.9365 153.892 94.5335 153.892 94.5335C153.892 94.5335 153.819 94.6801 153.817 94.6947C153.799 94.8394 153.78 94.9897 153.749 95.1454C153.716 95.2993 153.678 95.4624 153.634 95.6327C153.559 95.9753 153.493 96.2978 153.432 96.6111C153.333 97.1057 153.236 97.5967 153.139 98.0896C153.07 98.434 152.998 98.7912 152.892 99.1485C152.844 99.3244 152.795 99.5003 152.746 99.6761ZM150.456 106.858C150.53 106.678 150.601 106.501 150.674 106.321C150.751 106.123 150.837 105.931 150.905 105.731C150.975 105.533 151.044 105.334 151.116 105.134C151.229 104.817 151.341 104.504 151.453 104.189L151.987 102.558C152.114 102.12 152.229 101.644 152.385 101.151L152.533 100.687C152.52 100.7 152.517 100.691 152.526 100.634C152.55 100.491 152.583 100.349 152.625 100.206L152.562 100.317C152.469 100.654 152.377 100.992 152.286 101.327C152.214 101.598 152.145 101.865 152.075 102.135C152.009 102.406 151.916 102.666 151.835 102.934C151.603 103.67 151.35 104.421 151.088 105.178C150.964 105.546 150.837 105.918 150.685 106.275C150.608 106.469 150.531 106.666 150.454 106.862L150.456 106.858ZM106.631 151.376L107.521 151.06C107.555 151.04 107.596 151.018 107.641 150.994C107.504 151.046 107.367 151.097 107.229 151.15C107.03 151.225 106.832 151.3 106.632 151.376H106.631ZM58.6199 154.523C59.5265 154.712 60.51 154.966 61.4861 155.212C61.9714 155.344 62.4641 155.434 62.9421 155.522C63.4201 155.61 63.8834 155.686 64.3212 155.743C63.8303 155.641 63.345 155.538 62.8633 155.435C62.6216 155.388 62.3798 155.338 62.1399 155.291C61.9 155.245 61.6638 155.179 61.4275 155.126C60.4807 154.904 59.5448 154.701 58.6199 154.521V154.523ZM45.2689 141.792C45.4026 141.867 45.5382 141.931 45.6718 141.984C45.5382 141.92 45.4045 141.856 45.2689 141.792ZM30.0737 131.263C30.8319 131.943 31.6176 132.646 32.3886 133.337C32.7677 133.689 33.1761 134 33.5753 134.306C33.9746 134.61 34.3702 134.9 34.7621 135.164C34.1449 134.638 33.6816 134.207 33.6321 134.037C33.6175 134.017 33.6083 134.004 33.5937 133.985C33.4893 133.932 33.4105 133.909 33.3666 133.92C32.9014 133.612 32.4655 133.234 32.0168 132.853C31.5699 132.47 31.1176 132.069 30.6671 131.657C30.6213 131.613 30.5773 131.571 30.5334 131.529C30.4748 131.532 30.2971 131.443 30.0737 131.263ZM9.10396 114.739C9.11495 114.76 9.12594 114.782 9.13693 114.802L9.1296 114.774C9.12045 114.761 9.11312 114.75 9.10579 114.739H9.10396ZM76.9836 4.39338C76.8224 4.39338 76.6631 4.39155 76.5056 4.38972C75.7675 4.38239 75.132 4.37506 74.3115 4.40804C73.9636 4.42087 73.6156 4.45201 73.2694 4.48316L73.1376 4.49964C73.3977 4.48132 73.6559 4.46484 73.9123 4.44651C74.1668 4.44102 74.4214 4.43552 74.6723 4.42819C75.2602 4.42453 75.7712 4.43186 76.24 4.45568C76.3737 4.46484 76.5056 4.474 76.6393 4.48316L76.6686 4.45018C76.7729 4.43186 76.8792 4.41354 76.9836 4.39522V4.39338ZM77.8077 3.62941C77.6685 3.62941 77.5293 3.62574 77.3901 3.62391C76.9598 3.62025 76.5477 3.61109 76.1613 3.59643C76.1356 3.63124 76.0056 3.66788 75.7492 3.70819C75.6942 3.71368 75.6375 3.72101 75.5825 3.72651C75.7529 3.71552 75.9213 3.70269 76.0898 3.6917C76.4543 3.66971 76.8242 3.65689 77.2033 3.64406L77.8095 3.62941H77.8077ZM79.9285 4.40621C79.5732 4.40071 79.2179 4.39705 78.8626 4.39155L78.9011 4.39522C79.0494 4.39705 79.1996 4.40254 79.3479 4.40987L79.9285 4.40621ZM106.986 8.34518C106.837 8.26823 106.706 8.19495 106.435 8.09602C106.504 8.15647 106.762 8.25357 106.986 8.34518Z" fill="#0066CC"/>
<path d="M126.666 17.6247L125.529 16.7416L124.37 15.8897C123.602 15.3144 122.802 14.785 122.013 14.239L121.84 14.1639C119.386 12.5187 116.837 11.0109 114.213 9.65332C115.749 10.7123 118.293 11.9178 120.08 13.1599C120.72 13.5611 121.37 13.9477 122 14.3636C122.621 14.8033 123.253 15.2247 123.864 15.679C124.472 16.1352 125.091 16.5767 125.688 17.0476L127.216 18.1707L126.67 17.6229L126.666 17.6247Z" fill="#0066CC"/>
<path d="M146.597 117.436C146.374 117.762 146.14 118.134 145.892 118.556C145.656 118.979 145.471 119.34 145.339 119.638C145.314 119.774 145.392 119.728 145.559 119.525C145.814 119.129 146.033 118.741 146.224 118.362C146.742 117.444 147.292 116.542 147.753 115.593C147.652 115.639 147.471 115.943 147.266 116.317C147.057 116.687 146.801 117.116 146.597 117.436Z" fill="#0066CC"/>
<path d="M134.202 134.152C134.032 134.319 133.873 134.495 133.697 134.656L133.177 135.149C132.646 135.665 132.173 136.142 131.836 136.536C131.757 136.673 131.82 136.679 132.021 136.549L132.549 136.085L133.016 135.601L133.616 135.024L133.917 134.735C134.016 134.636 134.109 134.533 134.204 134.434L135.351 133.223C135.393 133.179 135.409 133.143 135.398 133.11C135.389 133.079 135.298 133.135 135.124 133.28C134.838 133.537 134.532 133.824 134.202 134.15V134.152Z" fill="#0066CC"/>
<path d="M127.769 140.079C127.404 140.37 127.082 140.643 126.796 140.898C126.734 140.946 126.692 140.995 126.67 141.048C126.648 141.098 126.752 141.048 126.983 140.898L126.908 141.006L128.267 139.932C128.708 139.561 129.14 139.178 129.576 138.798C129.622 138.76 129.639 138.727 129.628 138.698C129.617 138.67 129.516 138.721 129.327 138.852C129.089 139.027 128.84 139.222 128.582 139.43C128.454 139.535 128.322 139.643 128.19 139.753C128.053 139.859 127.913 139.967 127.771 140.077L127.769 140.079Z" fill="#0066CC"/>
<path d="M149.528 111.4C149.352 111.794 149.204 112.151 149.084 112.471L149.055 112.675L149.266 112.336L150.192 110.324C150.251 110.104 150.205 110.114 150.057 110.354C149.888 110.663 149.711 111.009 149.528 111.401V111.4Z" fill="#0066CC"/>
<path d="M151.099 107.472C150.918 107.974 150.826 108.294 150.828 108.435L151.013 108.171C151.288 107.459 151.574 106.752 151.835 106.035L151.914 105.607L151.7 106.022C151.502 106.486 151.293 106.966 151.099 107.472Z" fill="#0066CC"/>
<path d="M152.986 101.818C152.876 102.23 152.777 102.606 152.683 102.95C152.66 103.02 152.656 103.069 152.674 103.098C152.691 103.126 152.757 103.007 152.868 102.741C153.092 102.038 153.291 101.329 153.504 100.623C153.52 100.565 153.522 100.513 153.509 100.468C153.496 100.422 153.449 100.495 153.366 100.686C153.24 101.023 153.114 101.398 152.986 101.818Z" fill="#0066CC"/>
<path d="M20.5667 131.8C20.4 131.604 20.2352 131.419 20.0704 131.239C19.9147 131.052 19.759 130.873 19.6034 130.697C19.2939 130.347 18.9862 130.015 18.6785 129.684C18.065 129.022 17.4368 128.378 16.8617 127.548L15.8288 126.241C15.4882 125.803 15.131 125.377 14.8179 124.919C15.1091 125.421 15.4479 125.89 15.7702 126.373L16.7464 127.815C16.8526 127.974 16.968 128.139 17.0925 128.31C17.1566 128.394 17.2207 128.48 17.2885 128.57C17.3617 128.654 17.435 128.74 17.5119 128.83C18.2518 129.654 18.9953 130.488 19.7059 131.247C20.1418 131.69 20.5227 132.003 20.7883 132.201C20.9165 132.267 20.8524 132.142 20.5667 131.8Z" fill="#0066CC"/>
<path d="M9.10958 115.835C8.94109 115.544 8.79274 115.241 8.6444 114.947C8.49422 114.653 8.34405 114.369 8.19387 114.102C8.15724 114.043 8.12794 114.003 8.1023 113.966L8.14442 113.963C7.97593 113.591 7.80378 113.257 7.62979 112.957L7.21772 112.184C7.21772 112.156 7.20674 112.107 7.18293 112.034C7.01627 111.614 6.84778 111.218 6.65548 110.856L6.18481 109.857L5.72878 108.802L5.50352 108.272L5.30206 107.734L4.49624 105.579L4.45046 105.663L4.36987 105.55L4.97607 107.177L5.28009 107.99C5.33137 108.126 5.37898 108.261 5.43393 108.395L5.60608 108.794L6.10789 109.967L6.08957 109.837L6.56025 111.004L7.01444 112.048C7.00711 112.006 7.00528 111.962 7.00162 111.92C7.16645 112.307 7.34592 112.689 7.51625 113.074L8.0382 114.047C8.38983 114.74 8.71216 115.513 9.10775 116.194C9.48685 116.883 9.86595 117.521 10.2322 117.982L10.0802 117.603C9.76339 117.013 9.43374 116.425 9.10775 115.837L9.10958 115.835Z" fill="#0066CC"/>
<path d="M93.2246 148.067L94.3235 147.841L94.8198 147.739C94.9846 147.704 95.1476 147.656 95.3106 147.614C95.6183 147.521 95.9259 147.427 96.2355 147.334C96.349 147.286 96.4626 147.239 96.5743 147.189C96.4699 147.197 96.3673 147.204 96.2629 147.211C95.763 147.347 95.2648 147.491 94.7612 147.618L93.2429 147.951L93.3327 147.999L93.2264 148.063L93.2246 148.067Z" fill="#0066CC"/>
<path d="M93.3309 148.003C93.2833 147.99 93.2539 147.975 93.2411 147.955L92.1972 148.14C92.0599 148.191 91.9243 148.241 91.7888 148.29C91.9408 148.278 92.0892 148.267 92.2393 148.254L93.3309 148.001V148.003Z" fill="#0066CC"/>
<path d="M92.2629 148.254L92.2391 148.255L92.23 148.259L92.2629 148.254Z" fill="#0066CC"/>
<path d="M122.582 142.769C122.582 142.769 122.586 142.765 122.588 142.761L122.58 142.769H122.582Z" fill="#0066CC"/>
<path d="M101.288 153.307C100.938 153.42 100.59 153.548 100.237 153.651L99.173 153.951C99.1162 153.966 99.0851 153.99 99.0777 154.021C99.0704 154.052 99.1785 154.05 99.4001 154.017C99.7682 153.946 100.178 153.869 100.616 153.748C101.523 153.475 102.383 153.193 103.143 152.896L103.433 152.74C103.448 152.709 103.477 152.674 103.521 152.636L102.356 152.969C101.993 153.054 101.636 153.165 101.286 153.308L101.288 153.307Z" fill="#0066CC"/>
<path d="M86.9061 156.45L85.659 156.617L85.7743 156.566C85.5967 156.573 85.4099 156.584 85.2158 156.599C85.0216 156.615 84.8183 156.63 84.6059 156.639C84.1792 156.661 83.7909 156.694 83.4448 156.738L82.3404 156.835L81.2141 156.896C81.2141 156.919 81.2398 156.94 81.2947 156.96L81.4467 157L81.9741 156.973L82.2727 156.914L82.2763 156.91C82.3239 156.925 82.4137 156.936 82.5584 156.943C82.9393 156.949 83.3642 156.943 83.8239 156.925C84.1828 156.907 84.5271 156.885 84.855 156.859C85.181 156.822 85.4905 156.771 85.7798 156.722C85.8366 156.716 85.8879 156.701 85.9318 156.681C86.1388 156.676 86.3879 156.652 86.6791 156.61C86.9812 156.548 87.0105 156.513 86.7706 156.504L86.908 156.452L86.9061 156.45Z" fill="#0066CC"/>
<path d="M93.3106 155.608C93.7153 155.514 94.0871 155.421 94.4241 155.326L94.6438 155.221C94.675 155.19 94.7153 155.155 94.7647 155.12L93.5743 155.335C93.2043 155.377 92.8399 155.465 92.4681 155.553L90.1935 155.917L90.3327 155.93C90.0983 156.003 90.0964 156.042 90.3638 156.036C90.6843 156.014 91.0451 155.978 91.4517 155.926C92.0725 155.839 92.697 155.758 93.3106 155.608Z" fill="#0066CC"/>
<path d="M42.3697 148.433L42.5034 148.461C42.1646 148.25 41.8038 148.06 41.4174 147.889C41.0822 147.715 40.7453 147.543 40.4211 147.347L39.4138 146.805C39.4395 146.847 39.4541 146.883 39.4596 146.914C39.6061 147.05 39.8589 147.217 40.15 147.393C40.4412 147.57 40.7727 147.763 41.0932 147.924C41.5456 148.16 41.987 148.38 42.4173 148.585L42.5584 148.633C42.8093 148.792 43.0895 148.93 43.399 149.047C43.4411 149.032 43.4722 149.01 43.4905 148.983L42.3679 148.43L42.3697 148.433Z" fill="#0066CC"/>
<path d="M155.443 88.2477L155.359 88.7698L155.297 89.2901C155.312 89.3598 155.335 89.3726 155.368 89.3249L155.522 88.2458C155.491 88.277 155.465 88.277 155.443 88.2477Z" fill="#0066CC"/>
<path d="M94.8088 155.315L93.6147 155.555C93.2411 155.63 92.8693 155.721 92.4921 155.782L91.3602 155.963L91.5122 155.972C91.2558 156.049 91.2577 156.084 91.5196 156.08C91.8456 156.057 92.2192 156.013 92.6331 155.954C93.0451 155.873 93.4114 155.776 93.7283 155.685C94.0726 155.6 94.4169 155.516 94.7612 155.43L94.6714 155.379L94.8088 155.316V155.315Z" fill="#0066CC"/>
<path d="M95.838 155.115L94.6714 155.377C94.7098 155.391 94.7391 155.41 94.7611 155.428L95.8655 155.197C95.9717 155.175 96.0743 155.144 96.1731 155.104C96.272 155.064 96.1603 155.067 95.8362 155.117L95.838 155.115Z" fill="#0066CC"/>
<path d="M68.3284 118.352C67.9364 119.034 67.5885 119.737 67.2552 120.476C67.1544 120.712 67.0848 120.915 67.039 121.086L67.0848 121.13C67.0537 121.155 67.0226 121.207 66.9859 121.231C66.9493 121.253 66.9108 121.282 66.8706 121.315C66.8467 121.282 66.8229 121.249 66.7991 121.216C66.6361 121.007 66.475 120.811 66.3156 120.635C66.1874 120.5 66.0757 120.397 65.9805 120.324L65.9896 120.315C65.8505 120.113 65.7223 119.957 65.5996 119.851C65.5757 119.822 65.5519 119.813 65.5318 119.824C65.5116 119.835 65.5409 119.906 65.6197 120.038L65.5666 120.016L65.9017 120.39C65.9127 120.423 65.9274 120.461 65.9512 120.512L66.1893 120.837L66.4109 121.062C66.5501 121.205 66.746 121.452 66.9017 121.626C66.931 121.586 66.9585 121.546 66.9823 121.507C67.0061 121.467 67.0281 121.434 67.0445 121.381C67.0775 121.286 67.0958 121.201 67.0885 121.133L67.1196 121.093L67.105 121.108C67.5647 120.395 68.0335 119.642 68.4895 118.832C68.9455 118.021 69.3851 117.154 69.777 116.238C69.799 116.198 69.8118 116.143 69.8155 116.073C69.8191 116.005 69.7788 116.018 69.6946 116.112C69.2441 116.724 68.7844 117.585 68.3284 118.349V118.352Z" fill="#0066CC"/>
<path d="M74.3958 106.413C74.0625 107.169 73.5497 107.968 73.4197 108.677L73.4948 108.706C74.2237 107.875 74.4892 106.968 74.8061 106.066C74.8152 105.946 74.7694 105.925 74.676 105.997C74.5771 106.118 74.4837 106.257 74.394 106.413H74.3958Z" fill="#0066CC"/>
<path d="M71.4051 112.664C71.2879 112.862 71.1706 113.063 71.0571 113.272C70.9436 113.483 70.8318 113.691 70.7183 113.9C70.6066 114.113 70.4967 114.327 70.3941 114.542C70.3209 114.699 70.2513 114.853 70.1872 115.005L70.0974 115.141L69.9876 115.437C69.9949 115.452 69.9985 115.476 70.004 115.492C69.9802 115.568 69.9564 115.641 69.9399 115.707L69.9454 115.837L70.1029 115.65C70.4527 115.113 70.7403 114.556 71.004 114.005C71.2659 113.448 71.5021 112.9 71.7732 112.356C71.8464 112.154 71.841 112.087 71.7475 112.167C71.6395 112.306 71.5259 112.469 71.4069 112.662L71.4051 112.664Z" fill="#0066CC"/>
<path d="M73.1779 109.302L73.1284 109.335L72.9984 109.498C72.9563 109.562 72.9141 109.628 72.872 109.694L72.8409 109.745L72.8024 109.813L72.709 109.983C72.5259 110.331 72.3647 110.663 72.2402 110.982C72.2255 111.028 72.2127 111.068 72.2035 111.106V111.084C72.1046 111.213 72.0167 111.365 71.9417 111.546L71.9563 111.634C71.9728 111.665 71.9874 111.698 72.0003 111.735L72.2072 111.317L72.3372 111.183C72.3995 111.079 72.4618 110.976 72.524 110.872C72.6431 110.654 72.7603 110.436 72.8793 110.218C72.9379 110.108 72.9911 110.002 73.0405 109.895C73.0698 109.828 73.0936 109.767 73.1156 109.703L73.2456 109.386C73.4068 109.119 73.5991 108.835 73.4984 108.712C73.3409 108.875 73.2438 109.077 73.176 109.3L73.1779 109.302Z" fill="#0066CC"/>
<path d="M73.4985 108.712C73.4985 108.712 73.515 108.695 73.5242 108.686L73.4949 108.706L73.5004 108.714L73.4985 108.712Z" fill="#0066CC"/>
<path d="M90.2522 79.9336C90.265 79.9593 90.2852 79.9739 90.3145 79.9794C90.3621 79.9043 90.4537 79.7761 90.4482 79.7632C90.4189 79.6918 90.3328 79.8145 90.2522 79.9336Z" fill="#0066CC"/>
<path d="M124.811 39.6627C124.798 39.6719 124.787 39.6792 124.776 39.6865H124.778C125.415 39.3183 126.033 38.71 126.674 38.437C126.778 38.4132 126.813 38.4462 126.78 38.5305C125.743 39.5528 124.544 40.4322 123.28 41.2603L123.018 41.5021C122.927 41.601 122.82 41.6908 122.698 41.7714L122.69 41.7659C122.595 41.8557 122.496 41.9271 122.392 41.9766C121.861 42.5555 121.304 43.1308 120.57 43.6841C120.493 43.7757 120.408 43.871 120.32 43.9644L120.298 43.9846L120.32 43.9717V43.9901C120.392 43.8948 120.489 43.8124 120.617 43.7409L120.982 43.6072L120.967 43.6401H120.971L120.982 43.609C121.681 43.1565 122.319 42.4291 123.053 42.1378C123.15 42.0719 123.245 42.0114 123.34 41.9546C123.361 41.9729 123.381 41.9894 123.403 42.0041C123.377 42.0517 123.34 42.0975 123.293 42.1397C123.3 42.1873 123.278 42.2514 123.229 42.332C123.122 42.4383 123.005 42.5409 122.879 42.638C122.69 42.7827 122.516 42.9439 122.319 43.0777L122.088 43.2114C122.093 43.2407 122.11 43.2609 122.143 43.2682C122.223 43.2133 122.302 43.1638 122.381 43.1198C122.401 43.1345 122.425 43.1455 122.45 43.1546L121.89 43.6475C121.806 43.7427 121.703 43.8362 121.584 43.9241L121.408 44.0469H121.348L121.342 44.056C121.189 44.2722 120.945 44.4866 120.687 44.7027C120.564 44.8053 120.438 44.9043 120.309 45.0032L119.756 45.4429L119.397 45.7324L119.093 45.9797C119.181 45.9357 119.223 45.9284 119.22 45.9614C119.216 45.9962 119.201 46.0255 119.178 46.0438L119.161 46.0512C119.112 46.1318 119.038 46.2142 118.934 46.3021C118.83 46.3901 118.731 46.4505 118.641 46.4835L118.375 46.696C118.399 46.707 118.405 46.7309 118.392 46.7675C118.504 46.6887 118.614 46.6118 118.725 46.5275C118.824 46.4432 118.919 46.3608 119.018 46.2765C119.17 46.1354 119.324 45.998 119.494 45.8679C119.619 45.78 119.738 45.7012 119.859 45.6279C120.278 45.3806 120.692 45.0728 121.104 44.7577C121.516 44.4426 121.927 44.122 122.35 43.8618C122.443 43.8233 122.54 43.783 122.635 43.7427L122.778 43.6053C123.19 43.4734 123.613 43.1088 124.033 42.7974C124.046 42.7809 124.058 42.7681 124.073 42.7516L124.262 42.5977L124.575 42.409C124.795 42.3009 124.8 42.4365 125.04 42.3046L126.74 41.0624C126.807 41.0331 126.864 41.0166 126.914 41.0074C127.047 40.8755 127.203 40.7674 127.381 40.6832L127.95 40.2563C128.379 40.0273 128.849 39.5143 129.256 39.4795C128.95 39.8422 128.562 40.1409 128.152 40.4267C127.747 40.718 127.318 40.9946 126.93 41.2969C126.212 41.6432 125.551 42.2551 124.857 42.7131C124.491 42.9403 124.139 43.1894 123.802 43.4551C123.463 43.7189 123.133 43.9956 122.813 44.285C122.738 44.362 122.655 44.4353 122.562 44.5067L122.423 44.613C122.423 44.613 122.353 44.7174 122.351 44.7174C122.284 44.7962 122.21 44.875 122.13 44.9556L122.119 44.9666L122.062 45.0655L121.868 45.2285H121.862L121.771 45.3238C121.725 45.3696 121.678 45.4154 121.628 45.4612C121.628 45.4612 121.628 45.4631 121.628 45.4649C121.613 45.5034 121.593 45.5327 121.566 45.5528L121.302 45.7635L121.282 45.758L121.227 45.8038C121.101 45.9082 120.969 46.0108 120.852 46.1189C120.793 46.1757 120.742 46.2344 120.711 46.2857C120.718 46.3076 120.742 46.3095 120.789 46.2875C120.841 46.2124 120.91 46.1318 121.004 46.0493C121.119 45.9669 121.225 45.9082 121.324 45.8698L121.361 45.9211C121.423 45.8844 121.487 45.8515 121.547 45.8203C121.765 45.7214 121.972 45.6389 122.194 45.5327C122.544 45.3348 122.912 45.0289 123.267 44.7834C123.232 44.7797 123.205 44.7577 123.19 44.7101C123.714 44.3235 124.205 43.9278 124.553 43.4899C124.643 43.4386 124.734 43.38 124.824 43.3104C124.963 43.2352 125.071 43.2023 125.144 43.2114C124.926 43.6548 124.209 43.9699 123.831 44.3766C123.765 44.4371 123.698 44.4994 123.635 44.5562C123.749 44.4975 123.859 44.4499 123.967 44.4224C123.994 44.4811 123.939 44.5782 123.804 44.7137C123.32 45.1168 122.815 45.496 122.313 45.8789C121.811 46.2618 121.313 46.6484 120.864 47.0826C120.353 47.559 119.683 47.8924 119.244 48.4329L119.099 48.5886C118.993 48.6619 118.905 48.7058 118.831 48.726L118.658 48.8671C118.597 48.8982 118.562 48.9055 118.555 48.8927C118.529 48.9257 118.5 48.9587 118.467 48.9916C118.328 49.1327 118.176 49.2683 118.024 49.4057L117.914 49.5156C117.991 49.501 117.978 49.5504 117.877 49.6622L117.888 49.6384L117.625 49.8985L117.63 49.8436C117.592 49.8692 117.564 49.8857 117.539 49.8985C117.463 49.9755 117.385 50.0524 117.302 50.1294C117.194 50.2265 117.086 50.3217 116.974 50.4152L116.639 50.6973C116.33 50.9923 115.931 51.1681 115.659 51.5144C115.447 51.7507 115.22 51.9779 114.984 52.1996C114.753 52.4268 114.513 52.6485 114.268 52.8665C113.775 53.3007 113.279 53.7367 112.786 54.1691C112.326 54.6216 111.856 55.0393 111.356 55.3398L111.325 55.3306L111.178 55.6018C110.625 55.9865 110.057 56.3584 109.665 56.9154L109.771 56.8274C110.171 56.5215 110.585 56.1038 110.967 55.9499C110.995 56.1606 110.713 56.483 110.359 56.8293L109.565 57.5566C108.691 58.3701 107.836 59.2 106.969 60.0226C106.109 60.8489 105.275 61.7008 104.426 62.538L104.014 62.9466L103.611 63.3625L102.807 64.1961L102.003 65.0297C101.733 65.3063 101.466 65.5848 101.206 65.8706C101.158 66.1729 100.792 66.444 100.526 66.7262C99.9643 67.3417 99.3874 67.9445 98.8434 68.5747L98.1695 69.3955C98.0834 69.5402 98.0962 69.6208 98.0175 69.7601C97.9479 69.8572 97.8709 69.9543 97.7885 70.0496C97.7098 70.1467 97.642 70.2419 97.5852 70.3372C96.871 70.9216 96.3014 71.7039 95.6952 72.4404C95.6275 72.565 95.556 72.6419 95.4809 72.6804C95.4406 72.7647 95.3857 72.8545 95.318 72.9497C95.2703 73.023 95.2191 73.0963 95.1678 73.1696C95.1989 73.1366 95.2374 73.1128 95.2868 73.0963V73.0798C95.3436 73.1201 95.3125 73.2099 95.1476 73.3858C95.1257 73.3729 95.1055 73.3565 95.089 73.3345C95.0945 73.2978 95.1073 73.2649 95.122 73.2337C95.0029 73.4023 94.8766 73.569 94.7484 73.7339C94.6129 73.9171 94.4682 74.0966 94.3217 74.2725C94.2319 74.3843 94.1403 74.496 94.0506 74.6078C93.8785 74.824 93.7191 75.0475 93.5543 75.2673C93.4682 75.3754 93.3785 75.4743 93.2851 75.5641C92.8474 76.1522 92.2503 76.6945 92.0122 77.3412C91.9976 77.4182 91.9463 77.5061 91.8602 77.605C91.7412 77.7315 91.6222 77.8615 91.5068 78.0026L91.3951 78.1437C88.778 81.5752 86.6077 85.2192 84.3936 88.8815C84.3148 89.1105 84.1811 89.3065 84.0126 89.4842C83.4852 90.4699 82.9101 91.4409 82.3167 92.4027C81.738 93.3756 81.1336 94.3338 80.6044 95.3304C80.4395 95.8452 80.1685 96.36 79.8755 96.8785C79.5879 97.4007 79.2766 97.9265 79.0257 98.4559C78.5678 99.4141 78.0697 100.394 77.5569 101.369C77.0532 102.353 76.5386 103.335 76.0789 104.331C75.8775 104.764 75.5954 105.365 75.3683 105.22C75.3006 105.264 75.242 105.29 75.1889 105.299C75.1852 105.299 75.1834 105.295 75.1797 105.295C75.1486 105.335 75.1193 105.374 75.0881 105.409C75.068 105.405 75.0497 105.398 75.0332 105.389L75.1266 105.218C75.1229 105.202 75.1229 105.183 75.1229 105.161C75.1449 105.055 75.1852 104.936 75.2365 104.81C75.2914 104.685 75.3518 104.559 75.4141 104.432C75.4764 104.309 75.5405 104.185 75.6064 104.064L75.7969 103.703L75.9782 103.344C76.0624 103.164 76.1467 102.983 76.2291 102.803C76.2877 102.681 76.3536 102.562 76.4196 102.443C76.447 102.393 76.4727 102.344 76.5001 102.294C76.5349 102.208 76.5789 102.12 76.6302 102.032L76.643 102.016C76.6906 101.917 76.7364 101.818 76.7804 101.717C76.839 101.583 76.8994 101.451 76.9653 101.316C77.1796 100.887 77.3682 100.473 77.4946 100.079C77.5367 99.9546 77.588 99.8245 77.6411 99.6926C77.6924 99.5662 77.751 99.4361 77.8078 99.3079L77.7492 99.4233L77.5624 99.7732C77.5038 99.8923 77.447 100.011 77.3975 100.129L77.1741 100.673C77.0386 100.993 76.9031 101.312 76.7694 101.631C76.687 101.816 76.6045 102.003 76.5221 102.188C76.5038 102.239 76.48 102.289 76.4525 102.336L76.4177 102.41C76.3848 102.47 76.3518 102.534 76.3188 102.595C76.2859 102.653 76.2511 102.712 76.2163 102.77C76.1119 102.921 76.0075 103.04 75.9049 103.155C75.806 103.285 75.7328 103.426 75.6852 103.578C75.6614 103.674 75.6357 103.771 75.6082 103.87C75.5771 103.978 75.5368 104.088 75.491 104.205C75.3921 104.447 75.2584 104.692 75.1614 104.934C75.1138 105.059 75.0533 105.183 74.9819 105.306C74.861 105.476 74.7493 105.596 74.6468 105.66C74.6065 105.676 74.5808 105.667 74.5662 105.64C74.5295 105.753 74.4856 105.87 74.4343 105.991C74.3702 106.149 74.2988 106.308 74.2274 106.469C74.1266 106.709 74.0222 106.951 73.9105 107.195C73.7109 107.613 73.4911 107.999 73.2311 108.324C73.1944 108.441 73.1285 108.571 73.0461 108.708C72.9655 108.824 72.9087 108.857 72.8648 108.844C72.8575 108.974 72.9454 108.967 72.9197 109.122C72.8904 109.241 72.8465 109.37 72.7897 109.505C72.7586 109.573 72.7274 109.639 72.6981 109.707C72.645 109.813 72.5919 109.917 72.537 110.022L72.2 110.652C72.0938 110.852 71.982 111.05 71.8722 111.242C71.7678 111.425 71.6597 111.601 71.5553 111.77C71.4106 111.997 71.266 112.209 71.1231 112.44L70.9949 112.671C70.9949 112.671 70.9638 112.73 70.9326 112.79C70.9015 112.849 70.8722 112.909 70.8722 112.909L70.8374 112.986L70.896 113.047L70.9272 113.017C70.8466 113.23 70.7605 113.387 70.6726 113.488C70.6195 113.622 70.548 113.763 70.4638 113.91L70.4437 113.928C70.4198 113.985 70.396 114.041 70.3722 114.098C70.2916 114.274 70.2056 114.452 70.1103 114.63C70.0133 114.802 69.9162 114.963 69.821 115.113C69.6818 115.328 69.5463 115.524 69.4107 115.725C69.3155 115.866 69.2203 116.007 69.125 116.148C69.0243 116.326 68.9364 116.5 68.854 116.685C68.7661 116.874 68.6727 117.063 68.5756 117.251C68.4291 117.535 68.2771 117.814 68.1269 118.09C68.0244 118.277 67.9236 118.462 67.8229 118.647C67.7332 118.812 67.6434 118.975 67.5537 119.138C67.55 119.147 67.5482 119.153 67.5482 119.153L67.8467 118.66V118.809L67.7112 119.076L67.5702 119.316L67.6105 119.31L67.2826 119.862L67.2753 119.657C67.2075 119.787 67.1398 119.917 67.072 120.047L66.931 120.338C66.909 120.395 66.8834 120.417 66.8577 120.446L66.7845 120.532L66.5757 120.311C66.3047 120.018 66.0208 119.686 65.7351 119.342L65.9475 119.629C66.0647 119.743 66.1838 119.888 66.3065 120.065L66.6838 120.481C66.6929 120.549 66.6984 120.609 66.7002 120.666L66.3156 120.199L65.9274 119.726L65.9713 119.84C65.8358 119.712 65.7003 119.545 65.5721 119.343L64.7864 118.367C64.7956 118.328 64.8102 118.296 64.8267 118.266L65.1069 118.567C65.0062 118.437 64.9055 118.307 64.8066 118.173C64.726 118.059 64.6509 117.949 64.5831 117.843C64.5172 117.839 64.4165 117.781 64.2791 117.669C64.1179 117.532 63.9421 117.361 63.7535 117.167C63.8048 117.275 63.8176 117.341 63.792 117.363L63.7205 117.352L63.5685 117.218C63.0283 116.581 62.4898 115.925 61.9404 115.309C61.5833 114.948 61.2793 114.609 61.195 114.391C60.6822 113.939 60.1529 113.338 59.6127 112.675C59.3581 112.343 59.3105 112.186 59.1072 111.905C58.6713 111.539 58.2611 111.194 57.8545 110.854C57.4571 110.515 57.0652 110.157 56.6696 109.798L55.4645 108.738C55.0671 108.382 54.6459 108.052 54.2356 107.728C53.6441 107.255 53.0324 106.772 52.4207 106.301C52.3053 106.253 52.2174 106.174 52.1533 106.068C51.5068 105.579 50.8329 105.116 50.1772 104.639C49.5106 104.17 48.8311 103.714 48.1608 103.252C47.6792 102.923 47.1865 102.604 46.7012 102.279C46.4356 102.01 46.1481 101.818 45.8496 101.644C45.5511 101.47 45.2489 101.308 44.965 101.085L44.3973 100.671C43.8112 100.284 43.1885 100.063 42.6098 99.5332L42.3223 99.3298L42.0292 99.1228C41.5659 98.8627 41.0971 98.608 40.6245 98.3552L39.2144 97.5967C38.2693 97.2523 37.7474 96.9481 37.187 96.1072C36.5258 95.1197 36.4746 94.5738 37.0679 94.3338C36.6046 94.0168 36.2456 93.7035 35.9947 93.3884C35.3171 92.9267 35.1761 92.6782 35.5717 92.6428C35.7475 92.6263 35.6028 92.4467 35.4233 92.2782C34.0681 90.9975 35.5698 91.3603 35.535 90.84C35.5277 90.7392 35.7603 90.8436 35.9911 90.9957C36.2548 91.1679 36.4764 91.3218 36.4141 91.4354C36.3171 91.615 36.5753 91.9832 37.0643 92.2818C37.5917 92.6061 37.5258 92.258 37.8243 92.2855C38.3664 92.3368 38.5386 92.0199 38.5734 91.7817C38.6539 91.2357 39.4872 91.5582 40.4414 91.9154C40.4945 91.9173 40.5604 91.9319 40.6355 91.9594C40.7216 91.9979 40.7619 91.996 40.7418 91.9466C40.7308 91.9392 40.6099 91.8678 40.6099 91.8678L40.4927 91.7872C40.1063 91.5618 39.6704 91.2375 39.2876 91.0177C38.903 90.7997 38.5715 90.6898 38.4012 90.884C38.3371 90.9554 37.8921 90.6623 37.7327 90.5102C37.3665 90.164 36.9233 89.7517 37.1577 89.6436C37.3665 89.5484 36.9764 88.9786 37.8408 89.4055C39.1429 90.0504 39.8499 90.0339 40.6905 90.1804C40.9249 90.2336 41.1557 90.2794 41.4926 90.4882C41.5769 90.5377 41.6611 90.589 41.7454 90.6421C41.8424 90.6696 41.9358 90.7264 42.0219 90.8162L42.0256 90.8235L42.0329 90.829L42.2197 90.9096L42.2856 90.9627C42.2637 90.9261 42.2692 90.9114 42.304 90.9169C42.3479 90.9243 42.3864 90.9389 42.4193 90.9591C42.4944 90.9994 42.5695 91.0452 42.6428 91.0947H42.6702L42.738 91.1386C42.7563 91.1331 42.7746 91.1276 42.7893 91.1203C42.8277 91.1001 42.879 91.0891 42.9395 91.0873C42.9761 91.0891 43.0145 91.0983 43.0567 91.1093L42.8241 90.9481L42.7233 90.8143L42.7801 90.829C42.6922 90.7777 42.6135 90.7172 42.5457 90.644L42.5787 90.6513L42.5823 90.6458C42.5384 90.6385 42.4853 90.622 42.4248 90.5982C42.2911 90.5267 42.1666 90.4406 42.053 90.3472L42.0018 90.2537C41.9871 90.2629 41.967 90.2684 41.9358 90.2665C41.8388 90.2446 41.7271 90.1988 41.5989 90.1273C41.2271 89.8543 40.9341 89.7884 40.6099 89.64C40.4963 89.1655 40.5989 89.2039 42.0073 90.164C42.1043 90.2116 42.2014 90.2647 42.3003 90.3252C42.412 90.3618 42.5219 90.4259 42.6263 90.5139L42.6354 90.5102L42.6208 90.4992C42.5329 90.4204 42.4743 90.3508 42.4431 90.2885C42.3864 89.6052 43.6775 90.8363 44.1592 90.9353L45.0767 91.5453C45.1317 91.5838 45.1884 91.6223 45.2434 91.6608C45.3551 91.7414 45.4577 91.8238 45.5529 91.9099C45.6445 91.9979 45.7159 92.0785 45.7708 92.1573C45.8184 92.2342 45.8514 92.302 45.8789 92.3698C45.9192 92.476 45.9265 92.5603 45.8386 92.5823C45.8166 92.5768 45.7928 92.5695 45.769 92.5603C45.8386 92.6043 45.9082 92.6483 45.9796 92.6959C46.0968 92.771 46.2159 92.8516 46.3312 92.9304C46.4851 93.0293 46.6426 93.1301 46.7928 93.2034C46.8788 93.2364 46.9026 93.2199 46.9173 93.1942L46.7287 93.0623L46.7708 93.0018L46.9649 93.1392C47.04 93.1447 47.1334 93.1741 47.2506 93.229C47.377 93.295 47.5015 93.3683 47.6297 93.4489C47.8971 93.6211 48.1572 93.7988 48.4099 93.993C48.8604 94.3502 49.2725 94.7093 49.6113 95.0739C49.6461 95.1161 49.6717 95.1545 49.6901 95.1893L50.0692 95.3231C50.1772 95.378 50.2871 95.444 50.3988 95.5209C50.5087 95.5979 50.6167 95.6822 50.723 95.7646C50.7926 95.8214 50.8493 95.8764 50.8988 95.9295L51.038 95.9515L51.5929 96.3436C51.9042 96.2758 52.5928 97.1497 52.8932 97.0617C52.8932 96.9023 53.1533 97.0581 53.4152 97.2193C53.5232 97.2926 53.6331 97.3713 53.7393 97.452C53.8126 97.5051 53.8858 97.5601 53.9573 97.6168L53.9316 97.582C54.0525 97.6443 54.1569 97.7249 54.243 97.8275C54.2539 97.844 54.2631 97.8587 54.2704 97.8733C54.3528 97.943 54.4334 98.0144 54.5122 98.0859C54.5708 98.1427 54.6221 98.1994 54.6678 98.2526C54.6825 98.2526 54.6953 98.2507 54.7118 98.2526C54.7942 98.2746 54.8913 98.313 54.9975 98.3717C55.1037 98.4376 55.2099 98.5109 55.318 98.5897C55.4206 98.6666 55.5231 98.7436 55.6257 98.8205C55.774 98.9268 55.9205 99.0275 56.067 99.1173C56.1604 99.1741 56.2575 99.2382 56.3527 99.306C56.4388 99.3628 56.5249 99.416 56.6091 99.4618L56.4443 99.3335L56.6091 99.4068C56.6091 99.3793 56.6128 99.3555 56.6256 99.3372C56.6787 99.317 56.7612 99.3317 56.8765 99.3811L57.0725 99.5259L57.1073 99.6028L57.1805 99.634C57.2813 99.6889 57.3857 99.7549 57.4937 99.8318C57.6567 99.9509 57.8197 100.079 57.9809 100.204L58.0834 100.277C58.0028 100.207 57.9223 100.136 57.8472 100.061C57.7483 99.9601 57.6677 99.863 57.6018 99.7695C57.5889 99.7439 57.5816 99.7237 57.5798 99.7072L57.4278 99.6395L57.3014 99.4801C57.3252 99.4581 57.349 99.4379 57.3728 99.4178L57.653 99.6614L58.2226 100.11C58.338 100.182 58.4534 100.266 58.5688 100.363L58.7354 100.513L58.8728 100.667C58.8984 100.742 58.8838 100.785 58.8288 100.795C58.7977 100.783 58.7665 100.768 58.7354 100.75C58.8178 100.816 58.9002 100.882 58.9845 100.948C59.098 101.039 59.2061 101.138 59.3141 101.235C59.4607 101.363 59.609 101.492 59.7573 101.614C59.7116 101.572 59.6658 101.528 59.6182 101.484C59.5083 101.371 59.4167 101.261 59.3398 101.153C59.2977 101.057 59.3288 101.03 59.4405 101.079L60.0083 101.547C60.1291 101.627 60.25 101.723 60.369 101.831L60.5394 101.997L60.6492 102.157C60.6492 102.219 60.6053 102.241 60.5192 102.219C60.4771 102.19 60.4331 102.159 60.391 102.126C60.543 102.265 60.6785 102.406 60.7921 102.551L60.8067 102.554C60.9038 102.618 61.0045 102.694 61.1071 102.78C61.2097 102.868 61.3104 102.959 61.4111 103.053C61.5137 103.15 61.6162 103.243 61.7188 103.34C61.825 103.441 61.9276 103.54 62.0338 103.641C62.1437 103.745 62.2481 103.85 62.3543 103.958L62.4184 104.025C62.4184 104.025 62.4349 104.036 62.4404 104.044C62.5283 104.115 62.6144 104.189 62.7023 104.262L63.2169 104.784C63.3396 104.866 63.4605 104.973 63.5813 105.097C63.7572 105.277 63.9513 105.454 64.0465 105.641L64.041 105.638C64.0813 105.715 64.096 105.771 64.0905 105.81C64.1289 105.848 64.1546 105.892 64.1692 105.942L64.2388 106.011C64.2828 106.112 64.3689 106.218 64.4623 106.327L64.5318 106.407L64.5666 106.447C64.5776 106.46 64.5721 106.457 64.5758 106.462C64.5813 106.475 64.5868 106.49 64.5868 106.506C64.5703 106.545 64.5465 106.579 64.5135 106.611C64.4861 106.629 64.4568 106.642 64.4275 106.649C64.4128 106.653 64.3982 106.656 64.3817 106.66C64.3634 106.66 64.3615 106.675 64.3157 106.645C64.1674 106.559 64.0062 106.431 63.8396 106.292C63.7608 106.215 63.7059 106.147 63.6729 106.087C63.6161 106.059 63.5539 106.022 63.4843 105.977C63.411 105.92 63.3396 105.863 63.2682 105.806L63.2773 105.825C63.27 105.837 63.2608 105.85 63.2517 105.861L63.2554 105.867C63.3286 105.993 63.389 106.109 63.4843 106.248C63.5557 106.334 63.6326 106.418 63.715 106.501L63.7627 106.545C63.748 106.506 63.7498 106.479 63.7846 106.475C63.7883 106.444 63.8011 106.42 63.8194 106.404C63.9037 106.44 63.9843 106.499 64.0648 106.574C64.1051 106.612 64.1454 106.654 64.1839 106.698C64.2022 106.719 64.226 106.748 64.2388 106.764C64.2425 106.772 64.2461 106.781 64.2498 106.79V106.818L64.2553 106.805C64.2938 106.825 64.3157 106.856 64.3212 106.904C64.3157 106.953 64.2901 106.982 64.2461 106.99L64.204 106.948L64.1949 106.957L64.2242 106.988L64.237 106.999L64.2461 106.99L64.3084 107.003L64.3157 107.041C64.3267 107.014 64.3432 106.99 64.3652 106.97C64.3743 106.964 64.3853 106.959 64.3945 106.955L64.3853 106.927C64.3982 106.885 64.4183 106.851 64.4476 106.819C64.4806 106.794 64.5135 106.781 64.5465 106.777C64.574 106.794 64.5886 106.823 64.5923 106.865C64.5886 106.898 64.5776 106.926 64.5593 106.944L64.5795 106.959C64.5996 106.995 64.6088 107.041 64.6033 107.094C64.5959 107.12 64.5886 107.142 64.5776 107.162C64.5868 107.162 64.5978 107.166 64.6069 107.166L64.6344 107.16L64.6509 107.133C64.6619 107.136 64.671 107.142 64.6784 107.149C64.6967 107.144 64.715 107.138 64.7333 107.134C64.7626 107.134 64.7901 107.144 64.8157 107.156C64.8542 107.18 64.889 107.211 64.9201 107.25C64.9421 107.274 64.9604 107.303 64.9805 107.334C64.9989 107.365 65.0153 107.4 65.0318 107.44L65.0373 107.455C65.041 107.437 65.0501 107.42 65.0593 107.409C65.0776 107.407 65.0923 107.422 65.1033 107.455C65.1069 107.442 65.1106 107.435 65.1124 107.439C65.1802 107.385 65.2351 107.44 65.2955 107.567C65.312 107.607 65.3267 107.655 65.3395 107.71C65.3615 107.704 65.3816 107.737 65.4036 107.811C65.4219 107.891 65.4256 107.957 65.4146 108.005L65.4421 108.038L65.5483 108.162L65.5721 108.19L65.6197 108.069L65.6801 107.851C65.7058 107.752 65.7369 107.677 65.768 107.611C65.7827 107.576 65.7992 107.547 65.8175 107.519C65.8413 107.475 65.8669 107.437 65.8908 107.396C65.9054 107.367 65.9219 107.342 65.9365 107.316L65.9768 107.23C65.9915 107.178 66.0025 107.122 66.008 107.063C66.0135 107.023 66.0208 106.99 66.0299 106.957C66.0391 106.924 66.0519 106.896 66.0629 106.871C66.0739 106.843 66.0885 106.818 66.1014 106.792C66.1142 106.764 66.127 106.741 66.1417 106.715L66.1765 106.633C66.1838 106.6 66.1911 106.57 66.1966 106.537C66.2003 106.484 66.2021 106.435 66.2094 106.387C66.2167 106.345 66.2259 106.308 66.2406 106.27C66.2442 106.261 66.2406 106.27 66.2515 106.246L66.2827 106.184L66.3468 106.059L66.475 105.81C66.5482 105.671 66.6197 105.533 66.6911 105.396C66.7662 105.255 66.8394 105.117 66.9127 104.978C67.3504 104.198 67.6709 103.421 67.9859 102.648C68.0317 102.54 68.0811 102.43 68.1324 102.322C68.1141 102.323 68.0976 102.322 68.083 102.314C68.0628 102.256 68.0628 102.171 68.0848 102.056C68.1397 101.864 68.2276 101.66 68.3302 101.45C68.3961 101.31 68.4676 101.173 68.5408 101.034C68.6122 100.894 68.6873 100.755 68.7642 100.618C68.9217 100.337 69.0829 100.066 69.2642 99.8575C69.3265 99.7989 69.365 99.7897 69.3778 99.8263C69.3869 99.852 69.3888 99.874 69.3851 99.8941C69.3906 99.8776 69.3961 99.8611 69.4034 99.8447C69.4529 99.7109 69.5115 99.5735 69.5719 99.4361C69.6323 99.3042 69.7001 99.1705 69.7715 99.0385C69.8411 98.914 69.9162 98.793 69.9931 98.6758C70.081 98.5457 70.1689 98.412 70.2532 98.2691C70.2294 98.2691 70.2074 98.2654 70.1818 98.2672L70.0096 98.5878L70.0005 98.5329L69.8832 98.6282L69.8887 98.4908C69.9364 98.379 69.9858 98.2984 70.0389 98.2471C70.092 98.0675 70.2001 97.866 70.2788 97.6755C70.3429 97.5344 70.4198 97.3988 70.5059 97.2706C70.5902 97.146 70.6763 97.0287 70.7642 96.9243L70.9748 96.6037C70.9949 96.622 71.0151 96.6367 71.037 96.6495C70.9107 97.0379 70.4748 97.5179 70.4638 97.8715C70.5151 97.7744 70.5664 97.6755 70.6213 97.5784C71.0444 96.9023 71.3685 96.219 71.6469 95.5301C71.7128 95.3854 71.7861 95.2406 71.8667 95.0977C71.993 94.8889 72.1194 94.68 72.2458 94.4693C72.3282 94.3246 72.4106 94.1817 72.493 94.0388C73.0919 93.0037 73.6505 91.974 74.0973 90.9316C74.1541 90.807 74.2164 90.6824 74.2805 90.5579L74.1559 90.7685L74.1468 90.7081L74.0259 90.785L74.0552 90.6165C74.2036 90.316 74.3867 90.0302 74.5588 89.7389C74.6321 89.6162 74.7017 89.5282 74.7695 89.4714C74.7658 89.4549 74.7695 89.4403 74.7768 89.4256C74.8647 89.2223 74.9709 89.0299 75.1119 88.8522C75.1998 88.7734 75.253 88.7624 75.2676 88.8302L74.916 89.4971L74.9013 89.4458L74.6321 89.9551C74.7347 89.7939 74.8391 89.64 74.9471 89.4916C75.3958 88.7844 75.8353 88.0754 76.2712 87.3645C76.7034 86.6519 77.1045 85.9264 77.4964 85.1954C78.0129 84.3324 78.5568 83.4787 79.1209 82.6378C79.6795 81.7932 80.2161 80.9394 80.7142 80.0747C81.6666 78.5834 82.7819 77.1745 83.7123 75.6777L83.7489 75.6191C83.5749 75.784 83.3881 76.0203 83.2343 76.1357C83.1628 75.8902 83.6299 75.4963 83.7727 75.1959C84.1536 74.6701 84.4833 73.9592 84.9668 73.7943C84.8001 74.0948 84.7342 74.3659 84.4412 74.703C85.0089 74.2487 85.5345 73.5928 86.0858 72.8874C87.3952 71.1653 88.7468 69.4743 90.1314 67.8126C90.4079 67.2868 90.8658 66.8086 91.287 66.3194C91.5159 66.03 91.7467 65.7442 91.9848 65.462C92.2595 65.0608 92.6056 64.7036 92.9444 64.3426C93.2063 64.0733 93.4627 63.8003 93.7155 63.5255C93.8785 63.3295 94.0469 63.1371 94.2173 62.9484L94.9462 62.1808C95.2117 61.8803 95.4754 61.578 95.7355 61.2702C95.9278 61.0339 96.1384 60.8104 96.3472 60.5832L98.3196 58.5331C98.9881 57.8259 99.6877 57.1517 100.374 56.4629C101.004 55.8564 101.596 55.1969 102.27 54.6436C102.294 54.6436 102.314 54.6436 102.336 54.6436L104.609 52.4579L106.92 50.3199L107.22 50.0946H107.165C107.453 49.8436 107.75 49.6054 108.043 49.3636L108.286 49.0997L109.074 48.4384C109.275 48.2442 109.477 48.0499 109.678 47.8557C109.858 47.6744 110.044 47.5077 110.249 47.3812C111.348 46.6777 112.368 45.747 113.409 44.8786C113.991 44.3876 114.579 43.8691 115.207 43.5284C115.813 42.9091 116.628 42.42 117.224 41.7934C118.277 40.8371 119.392 40.216 120.485 39.507C120.551 39.4135 120.645 39.3219 120.769 39.2285C120.952 39.1021 121.134 38.9793 121.32 38.8602C121.516 38.7283 121.71 38.6038 121.905 38.4938L121.912 38.4902C121.912 38.4902 121.912 38.4773 121.916 38.4682C121.938 38.426 121.965 38.3912 122 38.3656L122.3 38.1256C122.379 38.0358 122.474 37.946 122.588 37.8599L122.927 37.6053L123.438 37.226C123.555 37.1399 123.666 37.0758 123.771 37.0337L123.738 37.085C123.624 37.3433 122.873 37.8178 123.046 37.9808L122.961 38.1164C122.765 38.3143 122.56 38.4682 122.342 38.5708C122.388 38.5653 122.427 38.5653 122.458 38.5708L122.859 38.2978L123.168 38.0596C123.177 38.0834 123.19 38.1054 123.205 38.1237L122.901 38.3637C122.818 38.4389 122.734 38.514 122.65 38.5891L122.538 38.6697C122.538 38.6697 122.54 38.6752 122.54 38.6789C122.529 38.7063 122.516 38.7357 122.5 38.765C122.82 38.6092 123.207 38.3839 123.132 38.6569C123.046 38.7631 122.939 38.8731 122.811 38.9848C122.485 39.2431 122.157 39.5015 121.809 39.736C122.084 39.5638 122.335 39.3494 122.602 39.1589C123.101 38.8053 123.557 38.3857 124.078 38.0706C124.227 37.9845 124.361 37.9222 124.485 37.8801L124.569 37.9167C124.551 37.9955 124.494 38.0908 124.399 38.2025C124.311 38.3015 124.214 38.4022 124.111 38.503C124.17 38.4993 124.212 38.5103 124.234 38.5378C124.245 38.5818 124.231 38.6404 124.198 38.71C124.132 38.8199 124.04 38.9409 123.917 39.0709C123.793 39.1955 123.654 39.3183 123.507 39.4392L123.22 39.6682L123.075 39.7818C122.912 39.9741 122.639 40.1922 122.474 40.3845C123.04 40.0383 123.624 39.5857 124.168 39.3604C124.822 39.1167 125.487 38.6825 126.153 38.2117C126.82 37.7427 127.503 37.2553 128.172 36.8724C128.192 36.8944 128.212 36.9146 128.234 36.9329C127.919 37.3158 127.337 37.5906 126.976 37.9534C126.479 38.4041 125.881 38.8126 125.362 39.256C125.188 39.4062 125.005 39.5491 124.809 39.6682L124.811 39.6627ZM38.2181 94.3209C38.2052 94.3081 38.1906 94.2953 38.1778 94.2825L38.1283 94.2788C38.1595 94.2934 38.1888 94.3081 38.2181 94.3209ZM44.976 92.1224C44.7379 91.9777 44.5035 91.8238 44.2691 91.6589C44.1317 91.56 44.0035 91.4592 43.8808 91.3566C43.7618 91.2504 43.672 91.1514 43.6024 91.0562L43.5988 91.0433L43.5493 91.0635C43.4523 91.025 43.3497 90.9737 43.2416 90.9114C43.1629 90.862 43.086 90.8143 43.009 90.7667C42.9981 90.7667 42.9834 90.7667 42.9669 90.763L43.0438 90.8895H42.9907C43.064 90.9261 43.1263 90.9792 43.1757 91.047L43.1995 91.0562L43.1427 91.1295L43.205 91.1496C43.3204 91.2009 43.4358 91.2595 43.5566 91.3292C43.6812 91.3988 43.8021 91.4739 43.9284 91.5508C44.0603 91.6278 44.1903 91.7047 44.3222 91.7817C44.5419 91.9063 44.7562 92.0162 44.9723 92.1279L44.976 92.1224ZM50.7193 95.9753L50.6021 95.891C50.505 95.8177 50.4098 95.7445 50.3127 95.6748L50.1754 95.5594L50.0234 95.4623L49.6974 95.2003C49.7157 95.2351 49.7248 95.2681 49.7267 95.2956C49.6461 95.3213 49.4978 95.2516 49.3293 95.1399C49.3439 95.1509 49.245 95.0538 49.245 95.0538C49.245 95.0538 49.2615 95.1197 49.2652 95.1216C49.3549 95.1619 49.4428 95.215 49.5344 95.2864C49.6333 95.3469 49.7267 95.4019 49.8219 95.4513C49.9684 95.5319 50.1149 95.6107 50.2615 95.6895C50.364 95.7445 50.4647 95.8104 50.5673 95.8782C50.6167 95.913 50.668 95.946 50.7175 95.979L50.7193 95.9753ZM52.7797 97.3787L52.6295 97.2596C52.5178 97.1753 52.4079 97.091 52.298 97.0049C52.2101 96.9371 52.124 96.8694 52.0379 96.7997L51.5673 96.4828C51.4317 96.4113 51.298 96.3216 51.1643 96.2171L51.0435 96.1109C51.0435 96.12 51.0361 96.1255 51.0178 96.1182C50.9684 96.1035 50.9263 96.0816 50.886 96.0523L50.9025 96.0999L51.19 96.2923L51.6625 96.5799C51.8804 96.7155 52.0929 96.8657 52.3053 97.0233C52.4097 97.0984 52.5123 97.1753 52.6148 97.2541L52.7815 97.3787H52.7797ZM65.4183 107.992L65.367 107.902C65.367 107.902 65.3633 107.919 65.3596 107.924L65.3835 107.953L65.4183 107.992ZM69.3796 99.9161C69.158 100.468 68.7185 101.032 68.5463 101.58C68.8888 101.041 69.1763 100.488 69.3796 99.9161ZM78.2528 98.3075C78.2235 98.3515 78.2015 98.3991 78.1905 98.4486L78.2528 98.3075ZM81.2747 92.6959C80.9303 93.3041 80.4468 93.8849 80.2491 94.5206C80.4121 94.2935 80.5641 94.1304 80.6794 94.1414C80.6886 94.1377 80.6959 94.1341 80.7051 94.1322C80.7051 94.0864 80.6923 94.048 80.6666 94.0223C80.8021 93.6596 81.0073 93.306 81.2417 92.9579L81.282 92.9084C81.2508 92.8736 81.2527 92.7985 81.2747 92.6977V92.6959ZM80.152 81.7492L80.141 81.7694L80.1502 81.7639V81.7492H80.152ZM117.621 47.1394L117.489 47.2292C117.282 47.3648 117.082 47.4564 116.866 47.6267C116.775 47.6982 116.685 47.7733 116.597 47.8503L116.566 47.8832C116.702 47.7715 116.841 47.6725 116.982 47.5809C117.15 47.4765 117.306 47.3977 117.456 47.3318L117.582 47.275L117.57 47.242L117.621 47.1376V47.1394ZM117.368 46.3864L117.251 46.4634C117.132 46.544 117.015 46.6154 116.901 46.6796C116.916 46.7107 116.901 46.762 116.852 46.8371L116.815 46.8811C116.857 46.8444 116.898 46.806 116.941 46.7675C117.028 46.6814 117.119 46.5989 117.214 46.5165C117.266 46.4725 117.319 46.4304 117.37 46.3883L117.368 46.3864ZM118.405 46.5403L118.125 46.762L118.137 46.7565C118.178 46.7254 118.218 46.696 118.26 46.6704L118.405 46.5403ZM124.677 39.7341C124.622 39.7525 124.571 39.7653 124.496 39.8257C124.536 39.8331 124.61 39.7781 124.677 39.7341Z" fill="#0066CC"/>
<path d="M129.355 34.0584L127.838 35.1466L127.811 35.2108L125.465 36.8761C126.099 36.7241 126.716 36.0224 127.346 35.6889L127.921 35.2291L129.144 34.3937L129.615 33.9943L129.357 34.0602L129.355 34.0584Z" fill="#0066CC"/>
<path d="M111.85 55.283L111.808 55.2354L111.282 55.6751C111.423 55.7575 111.645 55.4863 111.85 55.283Z" fill="#0066CC"/>
<path d="M56.3492 98.8536C56.4316 98.958 56.5323 99.0624 56.6568 99.1687C56.7869 99.264 56.9041 99.3318 57.0103 99.3721C57.0744 99.3629 57.0817 99.3134 57.0414 99.2255C56.9334 99.1119 56.818 99.0221 56.6916 98.9525L55.8712 98.304C55.8309 98.445 56.177 98.6667 56.3492 98.8536Z" fill="#0066CC"/>
<path d="M61.7005 103.271C61.8103 103.386 61.9239 103.498 62.0411 103.604C62.2261 103.769 62.4056 103.905 62.5667 103.985C62.6345 103.987 62.6583 103.945 62.6327 103.857L62.4806 103.677L62.2975 103.545L61.4715 102.8C61.4569 102.785 61.4386 102.787 61.4129 102.805C61.3891 102.822 61.3964 102.866 61.4331 102.935C61.5063 103.043 61.5942 103.155 61.6968 103.271H61.7005Z" fill="#0066CC"/>
<path d="M63.8579 105.24C63.9733 105.345 64.0868 105.431 64.1931 105.506C64.2114 105.524 64.2352 105.531 64.2663 105.524C64.2956 105.517 64.2883 105.473 64.2407 105.39H64.2993L63.4623 104.595C63.4477 104.581 63.4294 104.582 63.4074 104.601C63.3854 104.619 63.3927 104.663 63.4294 104.734C63.5392 104.905 63.6858 105.072 63.8579 105.24Z" fill="#0066CC"/>
<path d="M54.5323 97.5766C54.6477 97.6609 54.7557 97.7287 54.8601 97.7763L54.948 97.7708L54.8766 97.6517L54.3034 97.201C54.221 97.1864 54.2045 97.2212 54.2558 97.3054C54.3309 97.397 54.4224 97.4868 54.5323 97.5784V97.5766Z" fill="#0066CC"/>
<path d="M53.373 96.7961C53.5232 96.8895 53.6312 96.928 53.6972 96.9133L53.6606 96.7924C53.4573 96.6458 53.2558 96.4937 53.0489 96.3508L52.895 96.3179L52.9774 96.4608C53.0965 96.5762 53.2265 96.6898 53.3712 96.7961H53.373Z" fill="#0066CC"/>
<path d="M51.7432 95.7006C51.8622 95.7793 51.9757 95.8435 52.082 95.8911C52.1021 95.9058 52.1223 95.9039 52.1442 95.8874C52.1644 95.8709 52.1442 95.827 52.0783 95.7555L51.4996 95.3177C51.4831 95.3048 51.4629 95.3067 51.4355 95.3177C51.4098 95.3305 51.4172 95.3671 51.4556 95.4257C51.5344 95.5174 51.6296 95.6071 51.7432 95.6969V95.7006Z" fill="#0066CC"/>
<path d="M123.936 41.5094C123.947 41.5314 123.958 41.5534 123.969 41.5753C124.082 41.5534 124.181 41.4819 124.269 41.3683C124.252 41.3445 124.23 41.3225 124.203 41.3079C124.1 41.3592 124.012 41.4269 123.936 41.5094Z" fill="#0066CC"/>
<path d="M76.2621 87.1997C76.6943 86.6848 76.7529 86.1242 77.1558 85.6076L77.7016 84.6769L76.9159 85.5105C76.8262 85.6002 76.7456 85.7102 76.6742 85.8421C76.5112 86.1609 76.3445 86.4815 76.209 86.7929C76.1339 86.9816 76.0936 87.141 76.0918 87.2638C76.1101 87.3261 76.1651 87.3096 76.264 87.1997H76.2621Z" fill="#0066CC"/>
<path d="M79.5604 81.7364C79.6813 81.5532 79.8021 81.3718 79.8827 81.1868C79.8882 81.1648 79.8919 81.1464 79.8937 81.13L79.923 81.1556C80.0073 81.053 80.0677 80.9467 80.1117 80.8405L80.249 80.5895C80.2637 80.5895 80.282 80.5822 80.3058 80.5693C80.4083 80.4612 80.4834 80.344 80.5347 80.2176L80.7087 79.9025L81.553 78.6713L81.4816 78.6475L81.4779 78.5925L80.8406 79.5214L80.6043 79.8603L80.6556 79.8457L80.3992 80.1645L80.1904 80.4686L80.2472 80.4594L79.9798 80.7727L79.8131 81.0915C79.5403 81.5129 79.1282 81.9361 79.0806 82.3574L79.1959 82.2768C79.3241 82.101 79.4432 81.9178 79.5641 81.7364H79.5604Z" fill="#0066CC"/>
<path d="M125.375 37.2353C125.166 37.3653 125.067 37.4936 125.089 37.576L125.626 37.173C125.542 37.1913 125.461 37.1821 125.375 37.2371V37.2353Z" fill="#0066CC"/>
<path d="M121.339 38.7228C121.469 38.6752 121.566 38.5982 121.632 38.4957L121.643 38.492C121.665 38.4755 121.679 38.4517 121.683 38.4205C121.689 38.3894 121.648 38.3949 121.566 38.4334C121.282 38.6422 121.002 38.8529 120.723 39.0709C120.731 39.1039 120.749 39.1314 120.775 39.1497C120.961 39.0068 121.148 38.8621 121.339 38.7265V38.7228Z" fill="#0066CC"/>
<path d="M69.2422 116.068L68.9382 116.612L68.6635 117.107L68.4163 117.631L68.3357 117.887L68.4401 117.814L69.2807 116.218L69.2294 116.176L69.2422 116.068Z" fill="#0066CC"/>
<path d="M69.2295 116.176C69.2515 116.181 69.268 116.194 69.2808 116.218L69.5866 115.727L69.6709 115.439L69.5207 115.595L69.2295 116.176Z" fill="#0066CC"/>
<path d="M69.5132 115.602L69.5205 115.595L69.5223 115.59L69.5132 115.602Z" fill="#0066CC"/>
<path d="M64.2504 106.982L64.248 106.985L64.2504 106.982Z" fill="#0066CC"/>
<path d="M65.6674 107.842L65.7406 107.629C65.7406 107.629 65.7406 107.602 65.7296 107.558C65.7205 107.516 65.7077 107.483 65.693 107.461C65.671 107.442 65.6527 107.439 65.6344 107.448C65.5996 107.483 65.5758 107.547 65.5593 107.688V107.811L65.5703 107.944L65.6234 107.919C65.6454 107.941 65.6601 107.915 65.6674 107.842Z" fill="#0066CC"/>
<path d="M66.0702 106.623L66.083 106.524L66.1068 106.559C66.1343 106.556 66.1563 106.541 66.1709 106.515C66.1856 106.491 66.1892 106.46 66.1819 106.424L66.1856 106.338L66.2186 106.273C66.1984 106.262 66.1783 106.251 66.1581 106.244L66.1123 106.226L66.0977 106.251L66.1251 106.29H66.1288C66.1142 106.284 66.0977 106.281 66.0812 106.279C66.0482 106.283 66.0244 106.292 66.0061 106.308C65.9841 106.339 65.9805 106.38 65.9951 106.44C65.9951 106.444 65.9988 106.451 66.0098 106.466C65.9933 106.466 65.9841 106.475 65.9841 106.499C65.997 106.537 66.0171 106.567 66.0501 106.581L66.072 106.62L66.0702 106.623Z" fill="#0066CC"/>
<path d="M65.8194 106.887C65.8121 106.92 65.8084 106.959 65.8103 107.006L65.8304 107.089L65.8597 107.188L65.9165 107.151C65.944 107.162 65.9586 107.138 65.9568 107.081L66.0337 106.927L66.0099 106.904C65.9953 106.852 65.9733 106.816 65.944 106.796C65.9183 106.786 65.8964 106.785 65.878 106.796C65.8524 106.816 65.8341 106.845 65.8213 106.889L65.8194 106.887Z" fill="#0066CC"/>
<path d="M71.863 94.9237L71.8758 94.9787C71.9655 94.8816 72.0315 94.768 72.0736 94.6379L72.2531 94.321L72.3996 93.9821C72.3721 93.9821 72.3465 93.9802 72.3227 93.9729C72.1853 94.0389 72.0736 94.2752 71.9564 94.4749C71.8758 94.6178 71.8044 94.7589 71.7439 94.9018L71.7403 94.9531C71.6725 95.0227 71.6285 95.1143 71.6121 95.226C71.6359 95.2499 71.6615 95.2718 71.689 95.2902L71.863 94.9274V94.9237Z" fill="#0066CC"/>
<path d="M124.776 38.3454L124.472 38.5781C124.49 38.6093 124.507 38.6422 124.52 38.6771L125.122 38.2117C125.095 38.2025 125.08 38.1842 125.078 38.1549L124.776 38.3436V38.3454Z" fill="#0066CC"/>
<path d="M121.196 44.3968C121.207 44.3638 121.174 44.3657 121.095 44.4005L120.518 44.8512C120.548 44.8566 120.57 44.8713 120.582 44.8915L120.87 44.7156C120.989 44.6478 121.095 44.5654 121.189 44.4664L121.143 44.4719C121.167 44.4536 121.183 44.4279 121.194 44.395L121.196 44.3968Z" fill="#0066CC"/>
<path d="M47.8091 93.4141L47.9446 93.5204L48.0911 93.6101C48.1241 93.6028 48.1406 93.5827 48.1424 93.5533L47.8512 93.3481C47.8457 93.3756 47.8311 93.3976 47.8091 93.4141Z" fill="#0066CC"/>
<path d="M65.7661 106.944L65.8046 106.891L65.865 106.764L65.843 106.739C65.8302 106.687 65.8101 106.651 65.7826 106.625C65.7606 106.612 65.7423 106.61 65.7295 106.621C65.7222 106.645 65.7222 106.676 65.7258 106.722L65.7185 106.816L65.7533 106.896L65.7643 106.946L65.7661 106.944Z" fill="#0066CC"/>
<path d="M65.7295 106.977L65.7551 106.895L65.7203 106.814L65.6929 106.865C65.6929 106.865 65.6929 106.887 65.6965 106.918C65.702 106.95 65.713 106.968 65.7295 106.977Z" fill="#0066CC"/>
</svg>
