<svg width="67" height="67" viewBox="0 0 67 67" fill="none" xmlns="http://www.w3.org/2000/svg">
<rect width="67" height="67" rx="11" fill="white"/>
<g clip-path="url(#clip0_46_200)">
<path d="M50 30.6667H47.3333V28.8107C47.8444 28.5095 48.2746 28.0885 48.5867 27.584C48.8324 27.0554 48.9818 26.4871 49.028 25.906C49.6712 25.7059 50.0945 25.0923 50.0533 24.42C50.0509 24.2042 50.0943 23.9904 50.1807 23.7927C50.2293 23.678 50.29 23.544 50.36 23.4047C50.6971 22.8397 50.754 22.1506 50.514 21.538L50.5093 21.5293C50.7913 19.882 50.8073 17.682 49.4567 16.0453C48.338 14.6867 46.5027 14 44 14C41.4973 14 39.662 14.6867 38.5433 16.042C37.1927 17.6787 37.21 19.8787 37.4907 21.526L37.486 21.5347C37.252 22.1301 37.3011 22.7996 37.6193 23.3547C35.2936 22.4376 32.7064 22.4376 30.3807 23.3547C30.6984 22.7995 30.7475 22.1302 30.514 21.5347L30.5093 21.526C30.7913 19.8787 30.8073 17.6787 29.4567 16.042C28.338 14.6867 26.5027 14 24 14C21.4973 14 19.662 14.6867 18.5433 16.042C17.1927 17.6787 17.21 19.8787 17.4907 21.526L17.486 21.5347C17.2445 22.1467 17.3004 22.8362 17.6373 23.4013C17.71 23.546 17.7707 23.68 17.8187 23.792C17.9041 23.991 17.9494 24.2048 17.952 24.4213C17.9325 24.8353 18.0813 25.2396 18.3647 25.542C18.5352 25.714 18.7457 25.8412 18.9773 25.912C19.0236 26.4916 19.1709 27.0586 19.4127 27.5873C19.7249 28.0911 20.1554 28.511 20.6667 28.8107V30.6667H18C15.7918 30.6689 14.0022 32.4584 14 34.6667V37.3333C14 38.4379 14.8954 39.3333 16 39.3333H26.5673C27.8408 40.7551 29.4946 41.7826 31.3333 42.2947V51.3333C31.3333 52.8061 32.5272 54 34 54C35.4728 54 36.6667 52.8061 36.6667 51.3333V42.2947C38.5054 41.7826 40.1592 40.7551 41.4327 39.3333H52C53.1046 39.3333 54 38.4379 54 37.3333V34.6667C53.9978 32.4584 52.2082 30.6689 50 30.6667ZM43.7953 30.6507C43.862 30.656 43.9287 30.6667 44 30.6667C44.7498 30.6402 45.4629 30.3352 46 29.8113V31.3333C46 32.4379 45.1046 33.3333 44 33.3333C43.9887 33.3333 43.9773 33.3333 43.9667 33.3333C43.9807 33.1127 44 32.8933 44 32.6667C44.0003 31.9895 43.9317 31.314 43.7953 30.6507ZM39.5713 16.8907C40.4247 15.8573 41.9147 15.3333 44 15.3333C46.0853 15.3333 47.5753 15.8573 48.4287 16.8907C49.1743 17.9326 49.487 19.223 49.3013 20.4907C49.0867 19.4773 48.5947 17.87 47.5387 17.2067C47.0677 16.8963 46.4356 17.0142 46.108 17.4733C46.0467 17.5647 45.6567 18 44 18C42.3433 18 41.9533 17.5647 41.888 17.4707C41.5631 17.0182 40.94 16.9008 40.4727 17.204C39.6824 17.8124 39.1313 18.6795 38.916 19.6533C38.8213 19.9627 38.754 20.2467 38.6993 20.502C38.5115 19.2307 38.8241 17.9361 39.5713 16.8907ZM39.0473 23.2733C38.9893 23.136 38.914 22.9753 38.826 22.7953C38.6867 22.5884 38.6401 22.3328 38.6973 22.09C38.712 22.0534 38.7436 22.0263 38.782 22.0173H38.796C38.8179 22.0222 38.8402 22.0251 38.8627 22.026C38.9028 22.0365 38.942 22.0501 38.98 22.0667C39.174 22.1398 39.3911 22.1185 39.5672 22.009C39.7433 21.8996 39.8584 21.7144 39.8787 21.508C39.9428 21.0127 40.0476 20.5235 40.192 20.0453C40.336 19.4676 40.6126 18.9315 41 18.4793C41.5647 19.046 42.5713 19.3333 44 19.3333C45.4287 19.3333 46.442 19.044 47.0033 18.4787C47.67 19.1227 48.0467 20.776 48.12 21.4467C48.1201 21.6655 48.2276 21.8703 48.4077 21.9947C48.5877 22.1191 48.8173 22.1472 49.022 22.07C49.0587 22.0567 49.0953 22.042 49.172 22.02L49.2007 22.0153L49.2267 22.02H49.2307C49.2427 22.02 49.276 22.0313 49.3027 22.0867C49.3591 22.332 49.3108 22.5898 49.1693 22.798C49.082 22.972 49.0087 23.1313 48.9493 23.2733C48.7926 23.6386 48.7138 24.0326 48.718 24.43C48.718 24.5907 48.718 24.6633 48.3913 24.6633C48.0231 24.6633 47.7247 24.9618 47.7247 25.33C47.7232 25.8932 47.6128 26.4508 47.3993 26.972C47.1111 27.3662 46.731 27.6841 46.292 27.898L46.1587 27.9787C46.0253 28.0553 45.908 28.1193 45.8113 28.1727C45.645 28.2659 45.4971 28.3885 45.3747 28.5347C45.0446 28.9773 44.548 29.2658 44 29.3333C43.7684 29.322 43.5432 29.2533 43.3447 29.1333C42.5632 27.0775 41.1281 25.3353 39.26 24.1747C39.2357 23.8651 39.164 23.5611 39.0473 23.2733ZM19.5713 16.8907C20.4247 15.8573 21.9147 15.3333 24 15.3333C26.0853 15.3333 27.5753 15.8573 28.4287 16.8907C29.1743 17.9326 29.487 19.223 29.3013 20.4907C29.0867 19.4773 28.5947 17.87 27.5387 17.2067C27.0677 16.8963 26.4356 17.0142 26.108 17.4733C26.0467 17.5647 25.6567 18 24 18C22.3433 18 21.9533 17.5647 21.888 17.4707C21.5631 17.0182 20.94 16.9008 20.4727 17.204C19.6826 17.8121 19.1316 18.6786 18.916 19.652C18.8213 19.9613 18.754 20.2453 18.6993 20.5007C18.5118 19.2298 18.8244 17.9358 19.5713 16.8907ZM20.28 25.3333C20.28 24.9651 19.9815 24.6667 19.6133 24.6667C19.5116 24.6779 19.4088 24.6571 19.3193 24.6073C19.2907 24.5541 19.2793 24.4933 19.2867 24.4333C19.285 24.0346 19.2037 23.6402 19.0473 23.2733C18.9893 23.136 18.914 22.9753 18.826 22.7953C18.6867 22.5884 18.6401 22.3328 18.6973 22.09C18.712 22.0534 18.7436 22.0263 18.782 22.0173H18.796C18.8179 22.0222 18.8402 22.0251 18.8627 22.026C18.9028 22.0365 18.942 22.0501 18.98 22.0667C19.174 22.1398 19.3911 22.1185 19.5672 22.009C19.7433 21.8996 19.8584 21.7144 19.8787 21.508C19.9428 21.0127 20.0476 20.5235 20.192 20.0453C20.336 19.4676 20.6126 18.9315 21 18.4793C21.5647 19.046 22.5713 19.3333 24 19.3333C25.4287 19.3333 26.442 19.044 27 18.4787C27.6667 19.1227 28.0433 20.776 28.1167 21.4467C28.1168 21.6655 28.2243 21.8703 28.4043 21.9947C28.5843 22.1191 28.8139 22.1472 29.0187 22.07C29.0553 22.0567 29.092 22.042 29.1687 22.02L29.1973 22.0153L29.2233 22.02H29.2273C29.2393 22.02 29.2727 22.0313 29.2993 22.0867C29.3558 22.332 29.3075 22.5898 29.166 22.798C29.0787 22.972 29.0053 23.1313 28.946 23.2733C28.8301 23.5598 28.7606 23.863 28.74 24.1713C26.8693 25.3319 25.4322 27.0755 24.65 29.1333C24.4531 29.2524 24.2298 29.3211 24 29.3333C23.4459 29.2657 22.9439 28.9736 22.6113 28.5253C22.4871 28.3804 22.3378 28.2589 22.1707 28.1667C22.088 28.122 21.9707 28.058 21.8587 27.9933L21.6807 27.884C21.2525 27.6748 20.8816 27.3645 20.6 26.98C20.3895 26.4565 20.2809 25.8976 20.28 25.3333ZM24.0333 33.3333C24.0227 33.3333 24.0113 33.3333 24 33.3333C22.8954 33.3333 22 32.4379 22 31.3333V29.81C22.5366 30.3348 23.2499 30.6403 24 30.6667C24.0667 30.6667 24.1333 30.656 24.2047 30.6507C24.0683 31.314 23.9997 31.9895 24 32.6667C24 32.8907 24.0193 33.11 24.0333 33.3333ZM16 38C15.6318 38 15.3333 37.7015 15.3333 37.3333V34.6667C15.3333 33.1939 16.5272 32 18 32H20.7333C21.0523 33.5509 22.4166 34.6647 24 34.6667C24.0667 34.6667 24.1333 34.6567 24.2 34.6527C24.4433 35.8419 24.9026 36.9765 25.5553 38H16ZM35.3333 51.3333C35.3333 52.0697 34.7364 52.6667 34 52.6667C33.2636 52.6667 32.6667 52.0697 32.6667 51.3333V42.5673C33.5506 42.6998 34.4494 42.6998 35.3333 42.5673V51.3333ZM34 41.3333C29.2135 41.3333 25.3333 37.4531 25.3333 32.6667C25.3333 27.8802 29.2135 24 34 24C38.7865 24 42.6667 27.8802 42.6667 32.6667C42.6612 37.4509 38.7842 41.3278 34 41.3333ZM52.6667 37.3333C52.6667 37.7015 52.3682 38 52 38H42.4447C43.0974 36.9765 43.5567 35.8419 43.8 34.6527C43.8667 34.6567 43.9333 34.6667 44 34.6667C45.5834 34.6647 46.9477 33.5509 47.2667 32H50C51.4728 32 52.6667 33.1939 52.6667 34.6667V37.3333Z" fill="#6495ED"/>
<path d="M34.0001 25.3334C33.6319 25.3334 33.3334 25.6319 33.3334 26C33.3334 26.3682 33.6319 26.6667 34.0001 26.6667C37.0528 26.6653 39.6199 28.9564 39.9644 31.9896C40.3089 35.0228 38.321 37.8312 35.3457 38.5145C32.3704 39.1978 29.3564 37.5381 28.343 34.6585C27.3296 31.7788 28.64 28.5974 31.3874 27.2667C31.6018 27.1625 31.7443 26.9519 31.7612 26.7141C31.7781 26.4764 31.667 26.2477 31.4695 26.1141C31.2721 25.9806 31.0184 25.9625 30.8041 26.0667C27.4463 27.693 25.8447 31.581 27.0829 35.1004C28.3211 38.6199 32.0043 40.6487 35.6407 39.8143C39.277 38.9799 41.7073 35.5483 41.2873 31.8412C40.8673 28.134 37.731 25.3331 34.0001 25.3334Z" fill="#6495ED"/>
</g>
<defs>
<clipPath id="clip0_46_200">
<rect width="40" height="40" fill="white" transform="translate(14 14)"/>
</clipPath>
</defs>
</svg>
