<svg width="185" height="183" viewBox="0 0 185 183" fill="none" xmlns="http://www.w3.org/2000/svg">
<path d="M91.4458 126.006C92.8403 130.662 97.7882 133.32 102.494 131.94C103.375 131.682 104.184 131.301 104.909 130.821L111.992 154.47L88.0913 161.479C88.5767 162.197 88.9619 162.997 89.2223 163.868C90.6168 168.524 87.9326 173.42 83.2251 174.8C78.5192 176.18 73.5714 173.524 72.1768 168.866C71.9164 167.995 71.7978 167.115 71.8086 166.252L47.9076 173.261L40.8241 149.612C41.6963 149.625 42.5854 149.507 43.4652 149.248C48.1711 147.868 50.8569 142.972 49.4624 138.316C48.0679 133.66 43.12 131.002 38.4141 132.382C37.5343 132.64 36.7238 133.021 35.9995 133.501L28.916 109.852L52.8169 102.843C52.3316 102.125 51.9463 101.325 51.6859 100.454C50.2914 95.7964 52.9757 90.9022 57.6831 89.5224C62.389 88.1426 67.3353 90.7986 68.7314 95.4564C68.9918 96.327 69.1104 97.2067 69.0997 98.0697L93.0006 91.0608L100.084 114.71C99.212 114.698 98.3229 114.815 97.443 115.074C92.7371 116.454 90.0513 121.35 91.4458 126.006Z" fill="#FFF5EE"/>
<path d="M94.5543 56.1146C95.9488 60.7709 93.2646 65.6651 88.5571 67.0464C87.6772 67.3041 86.7882 67.4215 85.916 67.4108L92.9995 91.0598L69.0986 98.0687C69.1109 97.2057 68.9923 96.326 68.7303 95.4554C67.3358 90.7991 62.388 88.1416 57.6821 89.5214C52.9762 90.9012 50.2904 95.7969 51.6849 100.453C51.9453 101.325 52.3305 102.126 52.8159 102.842L28.915 109.851L21.8314 86.2022C21.1057 86.6825 20.2967 87.0637 19.4168 87.3213C14.7109 88.7012 9.7631 86.0452 8.36858 81.3874C6.97406 76.7295 9.65832 71.8354 14.3658 70.4555C15.2472 70.1979 16.1347 70.0805 17.0069 70.0912L9.92335 46.4437L33.8243 39.4348C33.812 40.2978 33.9306 41.1775 34.1926 42.0481C35.5871 46.7044 40.5349 49.3619 45.2408 47.982C49.9467 46.6022 52.6325 41.7065 51.238 37.0502C50.9776 36.1796 50.5924 35.3777 50.107 34.6611L74.0079 27.6522L81.0914 51.3012C81.8172 50.821 82.6262 50.4398 83.506 50.1821C88.2135 48.8023 93.1598 51.4583 94.5543 56.1161V56.1146Z" fill="#F0E68C"/>
<path d="M177.632 100.731C179.027 105.387 176.343 110.283 171.635 111.663C170.755 111.921 169.866 112.038 168.994 112.027L176.078 135.676L152.177 142.685C152.189 141.822 152.07 140.943 151.808 140.072C150.414 135.416 145.466 132.758 140.76 134.138C136.054 135.518 133.368 140.413 134.763 145.07C135.023 145.94 135.409 146.742 135.894 147.459L111.993 154.468L104.91 130.819C104.184 131.299 103.375 131.68 102.495 131.938C97.7875 133.318 92.8412 130.662 91.4467 126.004C90.0522 121.348 92.7364 116.453 97.4439 115.072C98.3238 114.814 99.2129 114.697 100.085 114.708L93.0015 91.0587L116.902 84.0498C116.89 84.9127 117.009 85.7925 117.271 86.6631C118.665 91.3194 123.613 93.9769 128.319 92.597C133.025 91.2172 135.711 86.3215 134.316 81.6652C134.056 80.7946 133.67 79.9927 133.185 79.2761L157.086 72.2672L164.17 95.9162C164.895 95.436 165.704 95.0548 166.584 94.7971C171.29 93.4173 176.238 96.0733 177.632 100.73V100.731Z" fill="#0066CC"/>
<path d="M136.538 43.8028C137.932 48.4591 142.88 51.1166 147.586 49.7367C148.466 49.4791 149.276 49.0979 150 48.6176L157.084 72.2667L133.183 79.2755C133.668 79.9936 134.054 80.7941 134.314 81.6647C135.709 86.3225 133.024 91.2167 128.317 92.5965C123.611 93.9763 118.665 91.3203 117.269 86.6625C117.008 85.7919 116.89 84.9122 116.9 84.0492L92.9994 91.0581L85.9159 67.4091C86.7881 67.4213 87.6772 67.3039 88.557 67.0447C93.2629 65.6649 95.9487 60.7692 94.5542 56.1129C93.1597 51.4566 88.2118 48.7991 83.5059 50.1789C82.6245 50.4366 81.8156 50.8177 81.0913 51.298L74.0078 27.649L97.9087 20.6401C97.4234 19.922 97.0381 19.1216 96.7777 18.251C95.3832 13.5947 98.0675 8.69898 102.775 7.31916C107.481 5.93935 112.429 8.59531 113.823 13.2531C114.084 14.1237 114.202 15.0035 114.191 15.8664L138.092 8.85755L145.176 32.5066C144.304 32.4944 143.415 32.6118 142.535 32.871C137.829 34.2508 135.143 39.1465 136.538 43.8028Z" fill="#E8A87C"/>
</svg>
