<svg width="25" height="22" viewBox="0 0 25 22" fill="none" xmlns="http://www.w3.org/2000/svg">
<path d="M0.0452309 6.56295L1.79347 3.29056C1.79318 3.28468 1.79245 3.27888 1.79245 3.27291V1.58944C1.79245 0.693112 2.63341 -0.0361023 3.6671 -0.0361023H4.57252H20.7969C21.7309 -0.0361023 22.4907 0.622786 22.4907 1.43262V3.15139L24.9256 6.5256C24.9737 6.5922 25 6.67159 25 6.75017V20.8851C25 21.1189 24.7814 21.3085 24.5117 21.3085H6.05602H0.491421C0.22311 21.3085 -0.00203514 21.1154 1.52588e-05 20.8819V6.74094C1.52588e-05 6.67946 0.0154457 6.61875 0.0452309 6.56295ZM4.25465 3.6963H2.65299L1.24767 6.32678H5.36495L4.25465 3.6963ZM2.76901 1.58944V2.84951H4.08429V0.81069H3.66715C3.17189 0.81069 2.76901 1.16003 2.76901 1.58944ZM21.5142 1.43262C21.5142 1.08966 21.1924 0.81069 20.797 0.81069H5.0609V2.84951H21.5142V1.43262ZM21.732 3.6963H5.29454L6.40489 6.32678H23.6302L21.732 3.6963ZM24.0234 20.4617V7.17357H6.55167L6.54454 20.4617H24.0234ZM5.03063 20.4617L3.2942 18.6072L1.52565 20.4617H5.03063ZM2.9214 17.6693C3.01417 17.572 3.15216 17.5158 3.29772 17.5158H3.29992C3.44625 17.5164 3.58458 17.5738 3.67677 17.6723L5.56842 19.6926L5.57516 7.17361H0.976578V19.7087L2.9214 17.6693Z" fill="white"/>
<path d="M11.2927 10.1038H19.7796C20.4477 10.1038 20.9912 10.601 20.9912 11.2121V14.9102C20.9912 15.5213 20.4477 16.0185 19.7796 16.0185H11.2927C10.6246 16.0185 10.0811 15.5213 10.0811 14.9102V11.2121C10.0811 10.601 10.6246 10.1038 11.2927 10.1038ZM11.0577 14.9102C11.0577 15.0268 11.1653 15.1252 11.2927 15.1252H19.7796C19.907 15.1252 20.0146 15.0268 20.0146 14.9102V11.2122C20.0146 11.0956 19.907 10.9972 19.7796 10.9972H11.2927C11.1653 10.9972 11.0577 11.0956 11.0577 11.2122V14.9102Z" fill="white"/>
</svg>
