<svg width="185" height="71" viewBox="0 0 185 71" fill="none" xmlns="http://www.w3.org/2000/svg">
<g clip-path="url(#clip0_1_3228)">
<path d="M138.531 14.5704C137.891 10.8205 135.854 8.02543 132.523 6.16259C130.175 4.84906 127.62 4.22256 124.955 4.06518C123.128 3.95774 121.294 3.92293 119.463 3.92596C113.271 3.93201 107.079 3.92747 100.888 3.92747V3.95017C92.9603 3.95017 85.0327 3.95017 77.1052 3.95017C76.9118 3.95017 76.7184 3.94109 76.5265 3.95925C76.1078 3.9986 75.9966 4.20289 76.19 4.58424C76.7214 5.62689 77.2392 6.6771 77.798 7.70462C79.097 10.0971 80.2284 12.5774 81.6217 14.9214C82.0907 15.7129 82.5049 16.5361 83.0455 17.2867C83.2815 17.6151 83.5617 17.7407 83.9668 17.7588C85.9906 17.8511 88.0158 17.839 90.0396 17.8451C98.66 17.8708 107.282 17.7331 115.901 17.9616C116.364 17.9737 116.824 18.0161 117.285 18.0524C119.28 18.2143 120.841 20.0288 120.87 21.7948C120.883 22.6452 120.809 23.4654 120.455 24.2629C119.594 26.2105 118.209 27.5936 116.152 28.2368C115.251 28.5182 114.306 28.6227 113.356 28.6378C109.962 28.6908 106.569 28.5364 103.175 28.5213C102.347 28.5167 101.517 28.5258 100.688 28.5561C100.145 28.5758 100.02 28.718 99.9148 29.2265C99.4762 31.3451 99.0422 33.4636 98.5884 35.5777C98.1636 37.5616 97.6931 39.5379 97.2865 41.5264C97.0794 42.5448 96.7657 42.7067 98.2428 42.7067C100.867 42.7067 103.489 42.6886 106.112 42.6946C108.196 42.6992 110.279 42.625 112.36 42.7098C113.534 42.7582 114.605 43.079 115.403 44.0051C115.864 44.5408 116.122 45.184 116.286 45.8559C116.617 47.2057 116.577 48.5586 116.167 49.8857C115.905 50.7362 115.482 51.5034 114.843 52.1496C113.824 53.1771 112.531 53.6447 111.162 53.9474C109.894 54.2289 108.601 54.2349 107.306 54.2304C102.601 54.2167 97.8941 54.1184 93.1887 54.2183C93.0532 54.2213 92.9176 54.2243 92.7836 54.2137C92.4197 54.185 92.3618 54.1138 92.3801 53.7416C92.3847 53.6462 92.4014 53.5509 92.4212 53.4571C92.8674 51.399 93.3364 49.344 93.7567 47.2799C94.1541 45.3277 94.611 43.3907 95.0267 41.4432C95.683 38.3712 96.3256 35.2977 96.9743 32.2243C97.1799 31.2497 97.3976 30.2782 97.5819 29.3006C97.7068 28.6317 97.5849 28.494 96.9225 28.5077C94.5501 28.5576 92.1791 28.4229 89.8066 28.438C85.1393 28.4668 80.4736 28.2943 75.8063 28.3382C75.4606 28.3412 75.1134 28.3684 74.7693 28.4093C74.5515 28.435 74.5256 28.547 74.6764 28.7195C74.7266 28.777 74.786 28.827 74.8454 28.8754C76.394 30.139 77.9762 31.3617 79.6086 32.5148C79.9726 32.7721 80.0609 33.049 79.9756 33.4394C79.8568 33.9812 79.7381 34.5245 79.6208 35.0662C79.3558 36.3026 79.0939 37.5374 78.829 38.7737C78.4711 40.4399 78.1102 42.1045 77.7508 43.7706C77.5087 44.8934 77.2788 46.0178 77.023 47.1391C76.6438 48.7992 76.3453 50.4789 75.9936 52.1451C75.6388 53.8309 75.2596 55.5121 74.9002 57.1979C74.5561 58.808 74.2287 60.4212 73.886 62.0328C73.5084 63.8124 73.1231 65.5905 72.7424 67.3702C72.715 67.5003 72.6907 67.635 72.6861 67.7682C72.6724 68.0905 72.747 68.1828 73.0714 68.2055C73.3592 68.2252 73.65 68.2191 73.9393 68.2191C84.952 68.2161 95.9647 68.1571 106.977 68.2917C108.616 68.3114 110.254 68.2342 111.893 68.201C112.009 68.1979 112.124 68.1919 112.239 68.1798C114.62 67.9255 116.968 67.5321 119.231 66.7104C120.998 66.0672 122.647 65.2092 124.2 64.159C125.175 63.5007 126.059 62.738 126.932 61.9511C128.056 60.9357 129.004 59.775 129.845 58.5447C131.037 56.7969 131.962 54.9038 132.584 52.8669C133.064 51.2961 133.35 49.6951 133.425 48.0683C133.524 45.9088 133.265 43.7948 132.458 41.7549C131.762 39.9995 130.713 38.5225 129.249 37.3331C128.47 36.699 127.623 36.1664 126.673 35.8183C126.202 35.6458 125.724 35.496 125.251 35.3356C125.124 35.2932 124.964 35.2644 124.952 35.1056C124.937 34.8997 125.129 34.8892 125.269 34.8377C125.685 34.6849 126.097 34.5229 126.516 34.3792C128.455 33.7164 130.169 32.6737 131.739 31.3783C133.294 30.0951 134.605 28.5954 135.701 26.9157C136.341 25.9336 136.874 24.8894 137.314 23.8044C138.016 22.0702 138.439 20.2709 138.611 18.405C138.73 17.1172 138.741 15.8309 138.526 14.5658L138.531 14.5704Z" fill="#0066CC"/>
<path d="M145.627 44.7611C145.498 45.4965 145.325 46.2199 145.146 46.9447C144.863 48.0948 144.628 49.2585 144.378 50.4177C144.229 51.1093 144.09 51.8039 143.941 52.4954C143.816 53.075 143.682 53.6531 143.559 54.2327C143.149 56.1409 142.737 58.0477 142.336 59.9574C141.998 61.5675 141.692 63.1837 141.342 64.7923C141.126 65.7835 140.885 66.7672 140.727 67.769C140.664 68.1579 140.445 68.3153 140.046 68.3395C139.854 68.3501 139.661 68.3455 139.467 68.3455C133.702 68.3455 127.937 68.3455 122.172 68.3455C122.056 68.3455 121.94 68.3455 121.825 68.341C121.652 68.3349 121.438 68.3606 121.383 68.1579C121.324 67.9384 121.546 67.8885 121.694 67.8128C122.071 67.6222 122.449 67.43 122.831 67.2484C124.838 66.2996 126.563 64.9558 128.164 63.4501C129.91 61.8066 131.389 59.9347 132.537 57.8419C133.682 55.7535 134.555 53.5426 135.033 51.1925C135.414 49.3206 135.501 47.435 135.409 45.5344C135.389 45.1288 135.228 44.7505 135.187 44.351C135.088 43.3931 134.832 42.47 134.503 41.5711C133.731 39.4646 132.563 37.6229 130.816 36.1717C130.594 35.9871 130.373 35.804 130.154 35.6163C129.778 35.294 129.789 35.0458 130.22 34.8249C130.806 34.5253 131.339 34.1515 131.864 33.7626C134.258 31.992 136.213 29.828 137.734 27.2782C138.523 25.9556 139.111 24.5452 139.61 23.0924C140.079 21.7275 140.43 20.3337 140.567 18.9037C140.698 17.5327 140.745 16.1525 140.453 14.7845C140.325 14.1868 140.245 13.583 140.096 12.9853C139.575 10.9045 138.653 9.02803 137.247 7.40731C136.452 6.49026 135.499 5.73816 134.456 5.10561C134.127 4.90586 133.8 4.70308 133.472 4.50333C133.311 4.39286 133.128 4.27936 133.183 4.05388C133.242 3.81024 133.486 3.84505 133.663 3.82386C134.873 3.68767 136.09 3.7482 137.302 3.77544C138.147 3.79511 138.994 3.86472 139.839 3.86624C147.244 3.87986 154.651 3.8738 162.056 3.8738C165.828 3.8738 169.6 3.8738 173.372 3.8738C174.234 3.8738 175.097 3.8738 175.959 3.8738C178.746 3.88894 181.532 3.80873 184.318 3.8738C184.937 3.91466 184.971 3.96006 184.852 4.61077C184.828 4.64406 184.805 4.67735 184.78 4.71065C184.876 5.31142 184.593 5.86225 184.547 6.44335C184.491 6.49177 184.432 6.49631 184.368 6.45697C184.19 6.21484 184.238 5.94699 184.286 5.68217C184.328 5.43702 184.404 5.19792 184.442 4.95126C184.547 4.28693 184.496 4.21732 183.815 4.2158C182.079 4.20975 180.345 4.21429 178.609 4.21429C164.01 4.21429 149.413 4.21429 134.814 4.21732C134.569 4.21732 134.316 4.16738 134.069 4.27179C134.081 4.46701 134.252 4.50635 134.371 4.57596C138.293 6.85345 140.206 10.4339 140.873 14.7346C141.266 17.2724 141.04 19.8086 140.284 22.2889C139.476 24.9356 138.365 27.4265 136.637 29.6116C134.983 31.7015 133.13 33.584 130.8 34.9444C130.434 35.1578 130.445 35.3258 130.756 35.5755C133.675 37.9195 135.159 41.0626 135.665 44.6657C135.951 46.7102 135.877 48.7773 135.485 50.8339C134.832 54.263 133.494 57.3909 131.474 60.2283C129.256 63.3441 126.487 65.8531 123.037 67.5813C122.834 67.6827 122.641 67.8022 122.37 67.946C122.763 67.9384 123.087 67.94 123.41 67.94C128.636 67.94 133.862 67.94 139.088 67.94C139.3 67.94 139.513 67.9354 139.725 67.9369C140.118 67.94 140.309 67.7523 140.389 67.3679C140.896 64.9104 141.415 62.4543 141.934 59.9983C142.489 57.3742 143.031 54.7472 143.623 52.1307C143.991 50.5055 144.307 48.8681 144.665 47.2398C144.937 46.005 145.284 44.7883 145.455 43.5323C145.487 43.2977 145.514 43.0147 145.874 43.0299C145.89 43.6216 145.706 44.1845 145.627 44.7626V44.7611Z" fill="#0066CC"/>
<path d="M15.7589 23.5805C15.7269 22.0657 15.7847 20.5585 16.0588 19.0604C16.4091 17.1521 16.9177 15.2953 17.7065 13.5142C18.3765 11.9994 19.2369 10.5966 20.1749 9.23616C21.0155 8.01797 21.9032 6.84366 23.024 5.85549C23.3818 5.54073 23.659 5.13517 23.9955 4.79317C24.8391 3.93665 25.8305 3.2814 26.8797 2.70031C28.9034 1.58199 31.0855 0.891938 33.3286 0.400122C34.7783 0.082334 36.2584 -0.0780735 37.7492 0.0293693C39.173 0.130759 40.5709 0.403149 41.949 0.769362C43.2373 1.11288 44.4859 1.56686 45.6798 2.15553C47.3107 2.96059 48.8228 3.92909 50.0227 5.32433C50.2847 5.6285 50.5755 5.91602 50.8877 6.17025C51.4907 6.66056 51.9749 7.25073 52.4394 7.8621C53.6271 9.4238 54.6641 11.0824 55.5321 12.8362C56.2828 14.3495 56.8097 15.9491 57.2361 17.5864C57.9016 20.1393 57.9488 22.7346 57.8802 25.342C57.8711 25.6658 57.8345 25.9927 57.7782 26.312C57.728 26.595 57.5315 26.651 57.332 26.4452C56.9513 26.0562 56.7975 25.5478 56.7382 25.0378C56.6361 24.1541 56.1808 23.5987 55.3524 23.3142C54.8606 23.1447 54.3748 22.9601 53.8845 22.7906C52.0663 22.158 50.2451 21.5331 48.4284 20.8975C47.2117 20.4722 45.992 20.0485 44.7859 19.5961C44.3489 19.4326 43.8981 19.3433 43.4489 19.2374C42.8155 19.0891 42.2764 19.3358 41.7678 19.6732C41.6566 19.7474 41.5424 19.8231 41.4465 19.9169C40.6836 20.6659 39.7318 20.9111 38.6994 20.9247C37.2908 20.9444 35.8838 20.9459 34.4752 20.961C33.6758 20.9701 33.0454 20.554 32.4073 20.159C32.1134 19.9774 31.815 19.7958 31.5439 19.5824C31.0064 19.1602 30.4155 19.1148 29.7958 19.3176C28.7527 19.6596 27.7172 20.0228 26.6771 20.3754C25.0006 20.9444 23.3225 21.5119 21.6459 22.0839C20.5525 22.4562 19.4729 22.8723 18.3658 23.2007C17.4248 23.4791 16.9984 24.1298 16.8065 25.0075C16.7212 25.401 16.6542 25.799 16.4837 26.1667C16.3786 26.3922 16.2446 26.6767 15.969 26.6328C15.6705 26.5844 15.7634 26.2621 15.7604 26.0502C15.7482 25.2255 15.7558 24.4022 15.7558 23.5775L15.7589 23.5805Z" fill="#0066CC"/>
<path d="M145.627 44.7621C145.577 44.1689 145.808 43.6135 145.857 43.0339C145.956 42.6617 146.279 42.7555 146.521 42.7494C147.563 42.7267 148.604 42.7661 149.644 42.7328C150.762 42.6965 151.878 42.7131 152.994 42.7419C155.483 42.8085 157.965 42.6011 160.453 42.6223C161.417 42.6299 162.385 42.7419 163.339 42.7116C167.232 42.5905 171.126 42.648 175.02 42.6163C175.606 42.6117 175.758 42.4589 175.926 41.7825C176.27 40.4054 176.501 39.0056 176.798 37.6194C177.375 34.9213 177.954 32.2231 178.513 29.5204C178.69 28.6699 178.656 28.6063 177.756 28.6063C168.595 28.6048 159.436 28.6063 150.275 28.6063C150.005 28.6063 149.734 28.6184 149.465 28.5957C148.93 28.5473 148.75 28.343 148.862 27.7877C149.041 26.8857 149.198 25.9778 149.407 25.0819C149.519 24.5962 149.586 24.0998 149.717 23.6201C149.845 23.154 149.669 22.8665 149.299 22.6001C148.284 21.8662 147.244 21.1731 146.223 20.4513C145.941 20.2515 145.635 20.082 145.42 19.8006C145.384 19.74 145.365 19.6735 145.365 19.6023C145.44 19.4919 145.533 19.5055 145.633 19.5645C147.059 20.5027 148.464 21.4712 149.847 22.4685C150.264 22.7696 150.363 22.9906 150.217 23.5081C149.816 24.926 149.568 26.3773 149.279 27.8179C149.195 28.2386 149.222 28.281 149.655 28.3007C149.944 28.3128 150.234 28.3067 150.523 28.3067C159.72 28.3052 168.916 28.3022 178.114 28.3007C178.249 28.3007 178.383 28.2976 178.519 28.3022C179.025 28.3203 179.146 28.4444 179.057 28.9347C178.918 29.6868 178.754 30.4329 178.595 31.1819C178.335 32.4168 178.073 33.6501 177.808 34.8849C177.546 36.0986 177.272 37.3092 177.016 38.5244C176.85 39.3098 176.687 40.0967 176.564 40.8896C176.488 41.3845 176.319 41.8506 176.194 42.3287C176.028 42.9643 175.874 43.0551 175.215 43.0566C169.932 43.0566 164.648 43.0566 159.366 43.0566C155.163 43.0566 150.958 43.0582 146.756 43.0597C146.66 43.0597 146.562 43.0566 146.466 43.0597C146.034 43.0748 145.991 43.1066 145.901 43.5454C145.837 43.8632 145.787 44.1855 145.735 44.5048C145.72 44.6017 145.7 44.6925 145.624 44.7606L145.627 44.7621Z" fill="#0066CC"/>
<path d="M184.396 6.45742C184.432 6.46044 184.469 6.45742 184.504 6.44531C184.585 6.52552 184.58 6.61026 184.522 6.70106C184.527 6.73586 184.522 6.77067 184.513 6.80396C184.39 6.94015 184.516 7.13083 184.406 7.27005V7.26702C184.263 7.39262 184.408 7.5954 184.286 7.72706C184.141 7.89806 184.297 8.12959 184.173 8.30664V8.30362C184.017 8.47008 184.189 8.70615 184.053 8.87866C183.922 9.01486 184.05 9.21007 183.945 9.35383C183.95 9.38713 183.945 9.42042 183.934 9.4522C183.796 9.62622 183.95 9.85473 183.823 10.0318V10.0288C183.706 10.1241 183.8 10.2845 183.713 10.3904C183.717 10.4237 183.714 10.457 183.7 10.4873C183.566 10.6628 183.715 10.8898 183.593 11.0684V11.0654C183.505 11.3377 183.481 11.6268 183.371 11.8946C183.375 11.9249 183.371 11.9552 183.359 11.9824C183.202 12.1958 183.38 12.4621 183.244 12.6785V12.6755C183.107 12.8056 183.241 13.0039 183.132 13.1416L183.135 13.137C182.987 13.2687 183.126 13.47 183.019 13.6107C183.015 13.6818 183.008 13.7529 183.002 13.8241C182.885 13.9603 183.007 14.1509 182.897 14.2886V14.2856C182.779 14.3749 182.874 14.5353 182.783 14.6352V14.6306C182.643 14.7668 182.772 14.9651 182.675 15.1134C182.681 15.1436 182.68 15.1724 182.669 15.2027C182.512 15.3737 182.677 15.6082 182.552 15.7853L182.555 15.7822C182.408 15.9124 182.55 16.1136 182.436 16.2514C182.44 16.2862 182.436 16.321 182.425 16.3543C182.29 16.5192 182.454 16.7477 182.31 16.9111C182.23 16.9747 182.224 17.0685 182.204 17.1578C182.086 17.2577 182.174 17.4166 182.098 17.5301C182.09 17.5982 182.083 17.6663 182.075 17.7359C182.029 18.0643 181.95 18.3745 181.623 18.55V18.547C181.422 18.6393 181.205 18.5939 180.997 18.5939C176.426 18.5969 171.854 18.6348 167.284 18.5803C164.817 18.5515 162.349 18.5909 159.882 18.5334C154.907 18.4184 149.932 18.5137 144.959 18.488C144.772 18.488 144.414 18.3109 144.453 18.7679C144.639 18.9995 144.897 19.1236 145.16 19.2401C145.27 19.3233 145.437 19.3611 145.405 19.5548L145.373 19.5987C144.924 19.691 144.042 19.0615 144.036 18.6378C144.033 18.3594 144.214 18.2277 144.461 18.1717C144.764 18.1021 145.075 18.1248 145.382 18.1248C157.025 18.1248 168.669 18.1233 180.312 18.1248C181.83 18.1248 181.576 18.0779 181.851 16.9611C182.605 13.9103 183.202 10.8247 183.895 7.76035C183.997 7.31242 183.951 6.78731 184.391 6.45893L184.396 6.45742Z" fill="#0066CC"/>
<path d="M63.6657 64.9732C63.6703 65.0519 63.6748 65.1321 63.6794 65.2108C63.486 65.8373 63.1297 66.3881 62.8069 66.9465C62.0973 68.1738 61.4014 69.4132 60.5943 70.5829C60.5836 70.5981 60.5745 70.6162 60.5638 70.6313C60.2136 71.1217 60.0324 71.1247 59.7415 70.6177C59.5862 70.3469 59.3882 70.1199 59.1812 69.8914C58.4731 69.112 57.5959 68.5582 56.699 68.0285C55.5037 67.3218 54.2519 66.7195 52.9728 66.1899C51.9617 65.7722 50.9262 65.3954 49.8298 65.2335C49.4674 65.1805 49.3775 65.0474 49.4385 64.6796C49.4567 64.5676 49.4902 64.4541 49.5405 64.3512C49.9653 63.4917 50.3963 62.6352 50.8257 61.7772C50.949 61.5487 51.0328 61.302 51.1698 61.0795C51.2201 60.8177 51.3663 60.6029 51.5109 60.388C51.7439 60.1655 51.8064 59.8432 51.983 59.5874C51.9937 59.4966 52.0013 59.4059 52.0987 59.3605C52.3546 59.0502 52.4642 58.6568 52.6774 58.3223C52.72 58.056 52.8769 57.8457 53.017 57.6277C53.0825 57.5763 53.1373 57.5052 53.2286 57.4961C53.2804 57.5233 53.3154 57.5642 53.3322 57.6202C53.1753 58.3647 52.7703 59.0018 52.3942 59.6404C51.5277 61.1159 50.7998 62.6594 50.0262 64.1802C49.74 64.7447 49.8207 64.834 50.4404 64.9823C52.2693 65.4196 53.99 66.146 55.6407 67.0297C56.5726 67.5291 57.5152 68.0179 58.368 68.6505C58.9284 69.0651 59.4248 69.5418 59.8375 70.1032C60.1512 70.53 60.2258 70.5269 60.5151 70.0563C61.4394 68.5521 62.3744 67.0555 63.1815 65.4847C63.2881 65.2774 63.3444 64.9929 63.6657 64.9732Z" fill="#0066CC"/>
<path d="M144.457 18.7657C144.282 18.6613 144.218 18.5403 144.454 18.4525C144.575 18.4086 144.721 18.4253 144.855 18.4253C151.95 18.4253 159.046 18.339 166.139 18.4555C171.207 18.5388 176.273 18.4661 181.339 18.5327C181.435 18.5327 181.532 18.5388 181.628 18.5418C181.472 18.7037 181.267 18.6462 181.082 18.6462C174.033 18.6432 166.982 18.7007 159.933 18.6114C154.984 18.5493 150.037 18.5917 145.089 18.5539C144.872 18.5524 144.567 18.401 144.457 18.7642V18.7657Z" fill="#0066CC"/>
<path d="M54.1819 63.054C54.2794 63.1553 54.3997 63.2129 54.5368 63.2371C56.023 63.9196 57.4315 64.7397 58.802 65.625C59.1721 65.8641 59.533 66.1183 59.9 66.3605C60.3492 66.6571 60.4938 66.6329 60.7664 66.1653C61.1913 65.4389 61.5963 64.7004 62.012 63.9695C63.0704 62.1082 64.1287 60.2453 65.1916 58.387C65.4474 57.9406 65.6636 57.4684 65.9926 57.0659C66.0672 56.9857 66.125 56.845 66.2667 56.9857C66.3047 57.476 65.924 57.7817 65.7185 58.154C64.2627 60.7901 62.7719 63.4065 61.2826 66.0245C61.2065 66.1577 61.1273 66.2893 61.042 66.418C60.6461 67.0203 60.3583 67.0823 59.7568 66.6858C58.8569 66.0941 57.9539 65.507 57.0204 64.9683C55.7702 64.2479 54.4652 63.6245 53.215 62.9026C52.2541 62.3488 52.1673 62.1157 52.478 61.0383C52.7551 60.0804 53.1373 59.1573 53.4038 58.1963C53.4525 58.0208 53.4327 57.7469 53.7449 57.7514C53.8028 57.8301 53.8089 57.9164 53.786 58.0072C53.786 58.4082 53.5576 58.7532 53.5013 59.1406C53.381 59.2254 53.483 59.3903 53.3779 59.4796C53.0749 60.1908 52.9988 60.9732 52.6607 61.6769C52.4978 62.0143 52.8023 62.1853 53.0231 62.3639H53.0262C53.2835 62.541 53.5881 62.6317 53.8378 62.8194C53.9474 62.9041 54.0784 62.9571 54.1789 63.0524L54.1819 63.054Z" fill="#0066CC"/>
<path d="M162.055 3.91164C157.196 3.91466 152.338 3.91769 147.479 3.9192C145.088 3.9192 142.697 3.89953 140.307 3.92677C138.456 3.94796 136.611 3.77696 134.761 3.8163C134.374 3.82387 133.993 3.86019 133.611 3.91012C133.186 3.96612 133.169 4.00697 133.418 4.39891C133.437 4.43069 133.456 4.4655 133.474 4.49879C133.296 4.51695 133.183 4.40799 133.092 4.28239C132.953 4.09323 133 3.90558 133.223 3.82084C133.437 3.73761 133.669 3.71037 133.903 3.71037C135.522 3.71491 137.145 3.65287 138.76 3.73156C140.378 3.81025 141.995 3.7815 143.613 3.78604C149.434 3.79814 155.256 3.79058 161.077 3.79058C161.405 3.79058 161.732 3.79965 162.059 3.80571C162.101 3.83143 162.113 3.85565 162.098 3.87835C162.084 3.90104 162.069 3.91315 162.055 3.91315V3.91164Z" fill="#0066CC"/>
<path d="M20.154 62.801C20.2865 62.5664 20.5895 62.5619 20.7524 62.3667C20.9976 62.0731 21.0342 61.7372 20.9047 61.3967C20.3428 59.9152 20.02 58.358 19.4642 56.875C19.4505 56.8387 19.4215 56.8039 19.4261 56.7676C19.4566 56.5451 19.2023 56.2228 19.5525 56.1184C19.8357 56.0351 19.8281 56.3756 19.9195 56.5421C20.5819 57.7497 21.2336 58.9633 21.8945 60.1724C22.33 61.0078 22.8447 61.8022 23.1767 62.689C23.2346 62.7707 23.2346 62.854 23.1874 62.9387C22.9361 62.9735 22.8478 62.7768 22.7671 62.6149C21.9448 60.9457 20.9245 59.381 20.1372 57.6937C20.1053 57.6241 20.0839 57.5499 20.0657 57.4758C20.489 58.8529 20.9687 60.2133 21.3524 61.601C21.5458 62.2956 20.8956 62.9281 20.1509 62.7995L20.154 62.801Z" fill="#0066CC"/>
<path d="M21.8941 60.1754C21.6947 60.0892 21.652 59.8864 21.5637 59.7229C20.9698 58.6273 20.382 57.5287 19.7912 56.4331C19.7394 56.3362 19.7044 56.2167 19.5095 56.191C19.4135 56.4225 19.4775 56.6465 19.5506 56.8765C20.0409 58.4261 20.5236 59.9772 21.017 61.5268C21.1297 61.8794 21.0962 62.1669 20.7536 62.3697C20.7064 62.3621 20.6607 62.353 20.6135 62.3455C20.9287 62.0322 20.9089 61.6796 20.778 61.2877C20.3912 60.13 20.0029 58.9724 19.7014 57.7905C19.6267 57.4954 19.5765 57.1912 19.3663 56.9491C19.3496 56.4815 19.1151 56.0669 19.042 55.6129C19.0222 55.4858 18.9628 55.3299 19.1318 55.2633C19.2887 55.2013 19.3816 55.3178 19.4516 55.4389C19.5765 55.6553 19.7105 55.8671 19.814 56.0926C20.4033 57.3622 21.1449 58.5532 21.7769 59.8001C21.8363 59.9182 21.9185 60.0317 21.8941 60.1769V60.1754Z" fill="#0066CC"/>
<path d="M162.055 3.91333C162.059 3.87701 162.061 3.84221 162.059 3.80589C164.255 3.80589 166.451 3.80589 168.647 3.80589C169.002 3.7272 169.358 3.72871 169.713 3.80589C170.943 3.80589 172.175 3.80589 173.405 3.80589C173.44 3.82859 173.454 3.8528 173.442 3.87701C173.431 3.90123 173.421 3.91484 173.408 3.91484C170.719 3.91938 168.029 3.92544 165.339 3.92695C164.244 3.92695 163.15 3.91938 162.055 3.91484V3.91333Z" fill="#0066CC"/>
<path d="M184.405 3.91186C181.584 3.91186 178.764 3.91186 175.944 3.91186C175.911 3.88613 175.9 3.86192 175.912 3.83922C175.924 3.81652 175.936 3.80442 175.949 3.80442C176.91 3.80442 177.87 3.80442 178.833 3.80442C179.111 3.72724 179.389 3.72724 179.667 3.80442C180.161 3.80442 180.656 3.80442 181.149 3.80442C181.773 3.72421 182.399 3.72421 183.023 3.80442C183.483 3.80442 183.943 3.80442 184.403 3.80442C184.44 3.82711 184.452 3.84981 184.441 3.87403C184.43 3.89824 184.42 3.91035 184.408 3.91035L184.405 3.91186Z" fill="#0066CC"/>
<path d="M53.7404 58.0084C53.7358 57.9222 53.7297 57.8344 53.7252 57.7482C53.4831 57.4062 53.8363 57.155 53.8561 56.875C53.7054 57.1126 53.6902 57.4864 53.2897 57.5469C53.2699 57.5318 53.2516 57.5151 53.2318 57.5C53.1602 57.3169 53.3232 57.2034 53.3658 57.0536C53.4176 56.7918 53.5622 56.5769 53.7099 56.3635C53.8942 56.194 53.9521 55.9368 54.1363 55.7673C54.2079 55.7022 54.2947 55.6447 54.3906 55.6856C54.4942 55.7294 54.4911 55.8384 54.4774 55.9307C54.4302 56.2848 54.2688 56.6056 54.1896 56.9507C54.1013 57.1777 54.0861 57.4289 53.9612 57.6422C53.8516 57.733 53.9475 57.8934 53.8455 57.9873C53.8196 58.0327 53.7846 58.0387 53.7419 58.01L53.7404 58.0084Z" fill="#0066CC"/>
<path d="M54.1877 56.9477C54.1329 56.5467 54.4298 56.2047 54.4054 55.787C54.0004 55.7991 54.0232 56.2833 53.708 56.3605C53.8329 55.955 54.0704 55.613 54.3247 55.2831C54.3795 55.2119 54.4542 55.1302 54.5653 55.1787C54.6734 55.2256 54.6704 55.3345 54.6582 55.4223C54.6262 55.6644 54.579 55.9035 54.5364 56.1441C54.3811 56.3953 54.3993 56.7207 54.1877 56.9477Z" fill="#0066CC"/>
<path d="M175.949 3.80432C175.949 3.84064 175.949 3.87545 175.944 3.91176C175.099 3.91176 174.254 3.91176 173.41 3.91176C173.406 3.87545 173.406 3.84064 173.407 3.80432C174.255 3.80432 175.102 3.80432 175.95 3.80432H175.949Z" fill="#0066CC"/>
<path d="M184.522 6.69929C184.516 6.61454 184.51 6.5298 184.504 6.44354C184.515 5.85185 184.74 5.29345 184.783 4.7063C184.915 4.8546 184.882 5.03619 184.854 5.19963C184.769 5.70355 184.717 6.21655 184.522 6.69777V6.69929Z" fill="#0066CC"/>
<path d="M23.151 62.9577C23.1601 62.8685 23.1692 62.7807 23.1784 62.6914C23.4479 63.0349 23.6124 63.4329 23.7738 63.8324C23.757 63.8476 23.7418 63.8627 23.7266 63.8778C23.6733 63.9081 23.6169 63.9172 23.5575 63.9051C23.2241 63.6735 22.9972 63.3966 23.1525 62.9577H23.151Z" fill="#0066CC"/>
<path d="M183.022 3.80439C182.398 3.80439 181.772 3.80439 181.147 3.80439C181.772 3.66063 182.398 3.65761 183.022 3.80439Z" fill="#0066CC"/>
<path d="M52.6763 58.3203C52.5743 58.7168 52.4296 59.0891 52.0977 59.3584C52.2347 58.9816 52.3672 58.6033 52.6763 58.3203Z" fill="#0066CC"/>
<path d="M184.405 3.91184C184.4 3.87703 184.398 3.84223 184.4 3.80591C185.026 3.8392 185.132 4.02987 184.852 4.60643C184.855 4.22105 184.706 3.98901 184.403 3.91032L184.405 3.91184Z" fill="#0066CC"/>
<path d="M51.9818 59.5859C51.9133 59.9052 51.825 60.2109 51.5098 60.3865C51.6148 60.0883 51.7214 59.7933 51.9818 59.5859Z" fill="#0066CC"/>
<path d="M181.626 18.5438C181.842 18.3077 181.953 18.0156 182.078 17.7296C182.095 18.0928 182.1 18.4484 181.626 18.5438Z" fill="#0066CC"/>
<path d="M169.712 3.80436C169.358 3.80436 169.001 3.80436 168.646 3.80436C169.001 3.66211 169.358 3.66363 169.712 3.80436Z" fill="#0066CC"/>
<path d="M183.374 11.8898C183.374 11.5947 183.427 11.3118 183.598 11.0605C183.61 11.3602 183.583 11.6492 183.374 11.8898Z" fill="#0066CC"/>
<path d="M51.1684 61.082C51.1425 61.3574 51.0252 61.589 50.8242 61.7797C50.8379 61.4982 50.9323 61.2561 51.1684 61.082Z" fill="#0066CC"/>
<path d="M179.666 3.80437C179.388 3.80437 179.11 3.80437 178.831 3.80437C179.108 3.66515 179.387 3.66515 179.666 3.80437Z" fill="#0066CC"/>
<path d="M53.3643 57.0508C53.4024 57.2233 53.2684 57.3459 53.2303 57.4972C53.1664 57.5532 53.1131 57.6258 53.0156 57.6258C53.075 57.4003 53.1709 57.1961 53.3643 57.0508Z" fill="#0066CC"/>
<path d="M145.408 19.5493C145.326 19.4449 145.245 19.3405 145.163 19.2345C145.401 19.2285 145.516 19.3995 145.635 19.5629C145.559 19.5584 145.484 19.5538 145.408 19.5493Z" fill="#0066CC"/>
<path d="M183.248 12.6736C183.268 12.4391 183.159 12.1833 183.362 11.9775C183.336 12.2121 183.411 12.4618 183.248 12.6736Z" fill="#0066CC"/>
<path d="M182.311 16.9064C182.336 16.7187 182.251 16.5069 182.426 16.3495C182.417 16.5417 182.493 16.7505 182.311 16.9064Z" fill="#0066CC"/>
<path d="M184.055 8.87387C184.074 8.67715 183.98 8.45772 184.176 8.29883C184.163 8.49555 184.216 8.70741 184.055 8.87387Z" fill="#0066CC"/>
<path d="M182.555 15.7805C182.568 15.5807 182.477 15.3613 182.672 15.1979C182.66 15.3976 182.716 15.611 182.555 15.7805Z" fill="#0066CC"/>
<path d="M183.594 11.0635C183.605 10.8653 183.521 10.6504 183.701 10.4824C183.696 10.6822 183.744 10.891 183.594 11.0635Z" fill="#0066CC"/>
<path d="M184.174 8.30339C184.188 8.10515 184.097 7.88724 184.287 7.72229C184.275 7.92053 184.328 8.13088 184.174 8.30339Z" fill="#0066CC"/>
<path d="M183.825 10.027C183.837 9.82873 183.752 9.61234 183.936 9.44739C183.93 9.64714 183.983 9.85597 183.825 10.027Z" fill="#0066CC"/>
<path d="M184.286 7.7253C184.295 7.56337 184.231 7.38329 184.408 7.26526C184.404 7.42869 184.434 7.59969 184.286 7.7253Z" fill="#0066CC"/>
<path d="M184.406 7.26834C184.409 7.1049 184.352 6.92936 184.512 6.80225C184.517 6.96719 184.549 7.13819 184.406 7.26834Z" fill="#0066CC"/>
<path d="M182.678 15.1086C182.675 14.9391 182.608 14.7545 182.787 14.6259C182.787 14.7938 182.8 14.9663 182.678 15.1086Z" fill="#0066CC"/>
<path d="M183.021 13.6059C183.021 13.4394 182.957 13.2563 183.137 13.1322C183.137 13.3002 183.147 13.4697 183.021 13.6059Z" fill="#0066CC"/>
<path d="M66.2256 56.9502C66.1479 56.988 66.0718 57.0274 65.9941 57.0652C65.9987 56.9078 66.0901 56.7958 66.1967 56.6914C66.2195 56.7126 66.2408 56.7338 66.2637 56.755C66.2972 56.8291 66.2865 56.8942 66.2256 56.9502Z" fill="#0066CC"/>
<path d="M182.9 14.2838C182.903 14.1219 182.847 13.9463 183.005 13.8192C183.008 13.9826 183.048 14.1536 182.9 14.2838Z" fill="#0066CC"/>
<path d="M183.946 9.349C183.946 9.18254 183.885 9.00094 184.054 8.87231C184.054 9.03878 184.077 9.21129 183.946 9.349Z" fill="#0066CC"/>
<path d="M182.439 16.2466C182.444 16.0816 182.38 15.9 182.558 15.7775C182.556 15.9424 182.57 16.1134 182.439 16.2466Z" fill="#0066CC"/>
<path d="M183.135 13.1353C183.138 12.9718 183.077 12.7918 183.249 12.6692C183.249 12.8341 183.281 13.0067 183.135 13.1353Z" fill="#0066CC"/>
<path d="M182.1 17.5252C182.088 17.3875 182.064 17.2468 182.207 17.153C182.213 17.2891 182.202 17.4193 182.1 17.5252Z" fill="#0066CC"/>
<path d="M182.786 14.6303C182.778 14.4987 182.758 14.3625 182.903 14.2808C182.906 14.4109 182.903 14.5395 182.786 14.6303Z" fill="#0066CC"/>
<path d="M183.714 10.3856C183.705 10.2509 183.681 10.1117 183.826 10.0239C183.835 10.1586 183.823 10.2857 183.714 10.3856Z" fill="#0066CC"/>
<path d="M53.0244 62.3648C52.6041 62.165 52.4747 62.0228 52.5965 61.7065C52.8614 61.0164 53.0168 60.2961 53.2665 59.603C53.2833 59.5546 53.3411 59.5213 53.3792 59.4805C53.2909 60.1266 53.1158 60.7592 52.8645 61.3494C52.6818 61.7776 52.7351 62.0621 53.0244 62.3648Z" fill="#0066CC"/>
<path d="M53.7398 58.0073C53.7718 57.9906 53.8068 57.9831 53.8433 57.9846C53.8601 58.4083 53.6911 58.776 53.5022 59.1392C53.4352 58.7306 53.7246 58.3977 53.7398 58.0073Z" fill="#0066CC"/>
<path d="M53.8409 62.8212C53.5288 62.744 53.2379 62.6275 53.0293 62.3672C53.3491 62.4307 53.6475 62.5336 53.8409 62.8212Z" fill="#0066CC"/>
<path d="M53.959 57.6408C53.959 57.385 54.0245 57.1505 54.1874 56.9492C54.2072 57.211 54.1706 57.4547 53.959 57.6408Z" fill="#0066CC"/>
<path d="M54.1819 63.0534C54.0236 63.0397 53.9002 62.9762 53.8408 62.8203C54.0053 62.8233 54.1317 62.8839 54.1819 63.0534Z" fill="#0066CC"/>
<path d="M53.8437 57.9857C53.83 57.854 53.8239 57.7239 53.9594 57.6406C53.9716 57.7723 53.9686 57.8994 53.8437 57.9857Z" fill="#0066CC"/>
<path d="M53.3787 59.4811C53.3696 59.3495 53.3666 59.2208 53.5021 59.1406C53.5158 59.2738 53.5143 59.4009 53.3787 59.4811Z" fill="#0066CC"/>
<path d="M184.395 6.45693C184.022 7.78558 183.794 9.14602 183.491 10.4898C183.226 11.6656 182.985 12.8475 182.728 14.0248C182.618 14.5303 182.471 15.0281 182.387 15.5366C182.265 16.2751 182.026 16.9848 181.871 17.7142C181.749 18.2847 181.688 18.3316 181.096 18.3316C178.551 18.3316 176.005 18.3271 173.46 18.3256C163.917 18.3225 154.372 18.3195 144.829 18.3165C144.771 18.3165 144.713 18.3135 144.656 18.3165C144.468 18.3271 144.231 18.265 144.141 18.4799C144.039 18.7236 144.241 18.887 144.417 18.9899C144.742 19.1836 145.012 19.4651 145.377 19.5967C146.122 20.2368 146.979 20.7211 147.768 21.2992C148.403 21.7637 149.053 22.2102 149.708 22.6505C150.019 22.8594 150.032 23.109 149.956 23.448C149.618 24.9416 149.306 26.4398 148.989 27.9379C148.91 28.3117 149.003 28.4282 149.385 28.46C149.557 28.4736 149.733 28.4676 149.906 28.4661C159.242 28.4661 168.578 28.463 177.913 28.4615C178.106 28.4615 178.3 28.4524 178.492 28.4676C178.825 28.4933 178.903 28.5735 178.842 28.9079C178.738 29.4724 178.601 30.0308 178.487 30.5937C178.213 31.9436 177.921 33.2919 177.631 34.6372C177.369 35.8524 177.123 37.0736 176.844 38.2857C176.681 38.9924 176.527 39.7037 176.418 40.4255C176.326 41.0293 176.172 41.6255 176.002 42.2127C175.834 42.7877 175.737 42.8331 175.137 42.8331C172.09 42.8346 169.041 42.7907 165.994 42.8513C163.602 42.8982 161.213 42.7968 158.822 42.8316C156.567 42.8649 154.311 42.8694 152.056 42.8785C150.206 42.8861 148.356 42.8785 146.504 42.8846C146.282 42.8846 146.034 42.8119 145.859 43.0344C145.656 43.1085 145.644 43.2886 145.626 43.4596C145.478 44.8715 145.042 46.2259 144.765 47.6105C144.511 48.8862 144.188 50.1468 143.967 51.4301C143.847 52.1262 143.641 52.8071 143.491 53.4987C143.233 54.676 142.988 55.8564 142.735 57.0352C142.58 57.7646 142.422 58.494 142.263 59.2234C142.119 59.8968 141.944 60.5642 141.832 61.2421C141.65 62.3574 141.386 63.4561 141.164 64.5623C140.957 65.5928 140.709 66.6158 140.518 67.6509C140.454 68.002 140.328 68.0973 139.972 68.1215C139.818 68.1321 139.662 68.1261 139.509 68.1261C133.896 68.1261 128.283 68.1261 122.67 68.1261C122.444 68.1261 122.221 68.1261 121.995 68.1261C121.982 68.0837 121.968 68.0413 121.954 67.9974C122.309 67.7977 122.653 67.5767 123.02 67.4012C124.59 66.643 125.989 65.6428 127.319 64.526C128.906 63.1928 130.255 61.6568 131.453 59.9786C132.09 59.0872 132.649 58.1535 133.139 57.1745C134.001 55.4523 134.723 53.6758 135.12 51.7963C135.319 50.8489 135.577 49.9032 135.581 48.9135C135.584 47.9389 135.641 46.9689 135.601 45.9883C135.505 43.6442 134.882 41.4591 133.772 39.4086C132.961 37.9089 131.851 36.6408 130.506 35.5815C130.46 35.5452 130.407 35.521 130.364 35.4831C130.092 35.2471 130.09 35.1426 130.402 34.9777C131.811 34.2347 133.04 33.245 134.159 32.1388C135.58 30.7329 136.871 29.2151 137.894 27.4809C138.531 26.4004 139.075 25.2761 139.499 24.1108C139.905 23.0016 140.256 21.8666 140.511 20.7014C140.783 19.453 140.858 18.2 140.859 16.9394C140.862 15.3036 140.611 13.6965 140.104 12.1378C139.536 10.393 138.732 8.76316 137.529 7.36035C136.841 6.5568 136.017 5.88491 135.143 5.28414C134.7 4.97845 134.238 4.70152 133.788 4.40795C133.707 4.35498 133.615 4.28386 133.631 4.18398C133.654 4.02811 133.8 4.05687 133.908 4.05384C134.371 4.04325 134.834 4.03265 135.297 4.03568C148.047 4.11891 160.797 4.05233 173.546 4.07049C176.979 4.07503 180.412 4.06897 183.846 4.06746C183.942 4.06746 184.039 4.06746 184.135 4.06746C184.717 4.07805 184.711 4.09621 184.662 4.65007C184.607 5.25992 184.31 5.83194 184.395 6.45995V6.45693Z" fill="#0066CC"/>
<path d="M57.4636 26.3026C57.1225 25.8698 56.9642 25.3492 56.9033 24.8317C56.8073 24.013 56.4038 23.4864 55.6424 23.208C54.8841 22.931 54.1212 22.6617 53.3598 22.3923C51.9634 21.9005 50.564 21.4132 49.1676 20.9184C47.6433 20.3796 46.122 19.8273 44.5962 19.2961C44.2338 19.1705 43.8546 19.0873 43.4785 19.0041C42.8085 18.8558 42.2283 19.1085 41.6755 19.4414C41.4959 19.5488 41.3131 19.6714 41.1715 19.8243C40.5746 20.4644 39.7934 20.6566 38.9726 20.6959C37.4316 20.7701 35.8875 20.7474 34.3449 20.7337C34.0495 20.7307 33.7769 20.6551 33.5135 20.5219C32.8602 20.189 32.2313 19.8106 31.642 19.3809C31.0359 18.9405 30.4086 18.8754 29.7294 19.1039C28.3422 19.5685 26.958 20.0452 25.5722 20.5173C24.188 20.9895 22.8038 21.4616 21.4196 21.9353C20.3994 22.2833 19.3806 22.6344 18.3604 22.984C18.3238 22.9961 18.2888 23.0127 18.2508 23.0233C17.3417 23.2851 16.8498 23.9177 16.6442 24.8075C16.5711 25.1253 16.498 25.4431 16.4097 25.7563C16.3549 25.9545 16.3062 26.1664 16.0199 26.2981C15.9803 25.9409 15.927 25.6125 15.9133 25.2827C15.828 23.3441 15.9438 21.4102 16.2179 19.4959C16.6777 16.2892 17.7939 13.3096 19.5451 10.5706C20.1755 9.5839 20.8654 8.63962 21.5552 7.69533C21.7242 7.4638 21.9359 7.26253 22.1384 7.05824C22.7886 6.40451 23.4541 5.76893 24.0632 5.07282C24.9342 4.0786 26.055 3.39157 27.2199 2.78172C29.0396 1.82835 30.9689 1.19429 32.9714 0.741817C34.3678 0.425542 35.7748 0.200063 37.2047 0.265134C38.3757 0.319612 39.5391 0.457321 40.6918 0.713065C42.1659 1.03842 43.5942 1.48181 44.9723 2.08561C46.9002 2.93002 48.627 4.05438 50.0051 5.663C50.13 5.80827 50.2594 5.95506 50.4102 6.0731C51.6421 7.03706 52.5146 8.30367 53.3735 9.57482C54.4836 11.2152 55.4216 12.9525 56.1343 14.8032C56.7342 16.3634 57.1499 17.972 57.4271 19.62C57.7728 21.678 57.6662 23.7467 57.6479 25.8138C57.6479 25.9742 57.6936 26.1649 57.4591 26.3041L57.4636 26.3026Z" fill="#0066CC"/>
<path d="M19.5955 63.1765C19.4874 63.3521 19.3214 63.4096 19.125 63.402C19.2407 63.2431 19.3976 63.1674 19.5955 63.1765Z" fill="#0066CC"/>
<path d="M23.6348 65.0043C23.7459 64.8318 23.9271 64.685 23.8342 64.4414C24.0581 64.7577 24.0231 64.8545 23.6348 65.0043Z" fill="#0066CC"/>
<path d="M23.7447 64.2064C23.6366 64.1217 23.6305 63.993 23.6016 63.875C23.6427 63.875 23.6838 63.8765 23.7249 63.878C23.731 63.987 23.7386 64.0959 23.7447 64.2049V64.2064Z" fill="#0066CC"/>
<path d="M36.7824 65.117C37.8818 65.117 38.9813 65.114 40.0807 65.117C40.868 65.1185 40.9807 65.2728 40.737 65.9992C40.7188 66.0537 40.6944 66.1067 40.6837 66.1627C40.3213 68.1329 38.1833 69.3466 36.2707 69.1499C34.5805 68.9758 33.1871 67.688 32.8795 66.0022C32.7212 65.1336 32.7349 65.1155 33.6013 65.114C34.6627 65.1124 35.7225 65.114 36.7839 65.114V65.117H36.7824Z" fill="#0066CC"/>
<path d="M1.17806 49.2514C0.81107 48.69 0.669453 48.0226 0.310079 47.4521C0.121255 47.1509 0.235463 46.9951 0.59636 46.9572C2.4115 46.7651 4.14899 46.2959 5.7951 45.5121C6.76968 45.0475 7.66354 44.4603 8.50564 43.7748C9.40407 43.0439 10.2401 42.26 11.0075 41.399C11.0974 41.2991 11.1933 41.2023 11.2969 41.119C11.5436 40.9178 11.6532 40.9389 11.7781 41.2128C12.9491 43.8006 14.3592 46.2627 15.7251 48.749C15.9139 49.094 16.0875 49.4481 16.2215 49.8295C15.8728 49.7144 15.6231 49.4935 15.3612 49.2877C14.8891 48.9185 14.7079 48.9154 14.2587 49.321C13.4181 50.0807 12.576 50.8388 11.6365 51.4789C10.071 52.5443 8.39752 53.4023 6.62501 54.0712C6.5169 54.112 6.40573 54.1438 6.29914 54.1877C6.07986 54.277 6.022 54.4359 6.11184 54.6508C6.2763 55.0397 6.46969 55.4134 6.68136 55.7797C8.25895 58.5005 9.83349 61.2214 11.4096 63.9438C11.8512 64.7065 12.2882 65.4722 12.7298 66.2364C13.0937 66.8629 13.2932 66.9053 13.9221 66.4922C15.6109 65.3829 17.3149 64.3024 19.1254 63.3975C19.2747 63.3067 19.4544 63.2764 19.596 63.172C19.7818 63.0479 19.9675 62.9238 20.1548 62.7998C20.2325 62.7967 20.3056 62.7831 20.3756 62.7619C20.5431 62.6605 20.7472 62.5955 20.7548 62.3397C20.7076 62.3019 20.6604 62.3019 20.6132 62.3397C20.1427 62.4805 19.7924 62.8315 19.3584 63.0389C17.6895 63.8333 16.1027 64.7701 14.5678 65.793C14.2648 65.9958 13.9572 66.191 13.6541 66.3953C13.4181 66.5542 13.2217 66.5118 13.0542 66.2939C12.9841 66.2031 12.9171 66.1108 12.8592 66.0125C11.0974 62.9632 9.33098 59.917 7.58436 56.8601C7.36813 56.4818 7.08641 56.1323 6.95698 55.7055C6.67222 55.4543 6.55801 55.1017 6.40878 54.7718C6.26107 54.445 6.28239 54.4177 6.64176 54.2845C6.96611 54.1635 7.2996 54.0636 7.61786 53.9274C10.1152 52.856 12.3674 51.4078 14.3531 49.5556C14.7734 49.1621 14.8312 49.1651 15.2744 49.5132C15.515 49.7023 15.7495 49.9006 15.9916 50.0882C16.1408 50.2032 16.319 50.2441 16.4697 50.117C16.6068 50.002 16.5565 49.8385 16.4971 49.6917C16.4834 49.6569 16.4652 49.6221 16.4469 49.5873C15.6825 48.1921 14.8998 46.8074 14.1582 45.4001C13.3983 43.961 12.5455 42.5672 11.9456 41.0464C11.7918 40.6575 11.5679 40.5985 11.2466 40.892C10.8355 41.2673 10.4533 41.6744 10.0619 42.0709C9.08733 43.0575 8.02444 43.9352 6.85038 44.6783C5.83622 45.3184 4.74287 45.8056 3.59013 46.1204C2.59119 46.3928 1.58616 46.6546 0.540017 46.7363C-0.00208963 46.7787 -0.126957 47.0813 0.118209 47.5898C0.310079 47.9863 0.504993 48.3797 0.715136 48.7671C0.84914 49.0168 0.914619 49.3119 1.17044 49.4859C1.17197 49.4072 1.17349 49.327 1.17654 49.2484L1.17806 49.2514Z" fill="#0066CC"/>
<path d="M24.012 64.2828C23.9542 64.1224 23.9039 63.9529 23.7714 63.8303C23.7258 63.8515 23.6923 63.8848 23.6694 63.9272C23.7181 64.0089 23.6557 64.139 23.7425 64.2041C23.741 64.2949 23.7425 64.3827 23.8324 64.4387C24.0425 64.7231 23.8232 64.8578 23.6329 65.0016C22.6613 65.2543 21.7538 65.6826 20.8097 66.011C20.1747 66.2319 19.5183 66.4105 18.9108 66.6859C18.055 67.0733 17.2388 67.5515 16.418 68.0115C15.451 68.5533 14.6607 69.3099 13.9115 70.1119C13.846 70.1815 13.779 70.2512 13.7212 70.3268C13.3846 70.7763 13.3922 70.7717 13.0359 70.3041C12.6841 69.8441 12.4237 69.3311 12.1497 68.8272C10.869 66.471 9.54876 64.136 8.26354 61.7829C6.86868 59.2269 5.44489 56.6876 4.04242 54.1347C3.17596 52.5564 2.19986 51.0401 1.38061 49.436C1.33645 49.3498 1.27706 49.2741 1.17504 49.2499C1.17351 49.3286 1.17199 49.4088 1.16895 49.4875C1.52984 50.1639 1.8679 50.854 2.25773 51.5153C4.16119 54.7355 5.93065 58.0299 7.75493 61.2956C9.3173 64.0906 10.8477 66.9038 12.3872 69.7124C12.6004 70.1013 12.8593 70.4585 13.1349 70.802C13.3542 71.0744 13.5582 71.0653 13.7212 70.7732C14.0455 70.1906 14.5389 69.7472 15.017 69.3205C16.2444 68.2203 17.6986 67.4455 19.2123 66.819C20.633 66.2304 22.1025 65.7582 23.5522 65.2407C24.0988 65.0455 24.2115 64.8321 24.0105 64.2843L24.012 64.2828Z" fill="#0066CC"/>
<path d="M19.5944 63.1736C19.4512 63.278 19.2731 63.3083 19.1238 63.3991C17.3133 64.304 15.6093 65.386 13.9205 66.4937C13.2916 66.9069 13.0921 66.8645 12.7282 66.238C12.2866 65.4753 11.8496 64.7096 11.408 63.9454C9.83341 61.223 8.25734 58.5021 6.67975 55.7812C6.46809 55.415 6.27317 55.0412 6.11024 54.6523C6.01887 54.4374 6.07674 54.2786 6.29754 54.1893C6.40413 54.1454 6.51529 54.1136 6.62341 54.0727C8.39592 53.4039 10.071 52.5443 11.6349 51.4805C12.5744 50.8404 13.4165 50.0822 14.2571 49.3226C14.7063 48.917 14.886 48.9185 15.3596 49.2893C15.6215 49.4936 15.8727 49.7145 16.2199 49.831C16.0844 49.4497 15.9123 49.0956 15.7235 48.7505C14.3576 46.2642 12.9475 43.8021 11.7765 41.2144C11.6516 40.939 11.542 40.9193 11.2953 41.1206C11.1917 41.2053 11.0943 41.3007 11.0059 41.4005C10.2385 42.2616 9.40247 43.0455 8.50403 43.7764C7.66194 44.4619 6.76807 45.0491 5.7935 45.5136C4.14738 46.2975 2.4099 46.7681 0.594757 46.9588C0.233861 46.9967 0.11813 47.1525 0.308476 47.4537C0.66785 48.0242 0.809468 48.6915 1.17646 49.253C1.28 49.2772 1.33939 49.3528 1.38203 49.4391C2.20128 51.0432 3.17738 52.561 4.04383 54.1378C5.44631 56.6892 6.86858 59.23 8.26496 61.7859C9.55018 64.1391 10.8704 66.4741 12.1511 68.8302C12.4252 69.3342 12.6856 69.8472 13.0373 70.3072C13.3937 70.7748 13.386 70.7793 13.7226 70.3299C13.7789 70.2527 13.8474 70.1846 13.9129 70.115C14.6606 69.3115 15.4524 68.5563 16.4194 68.0146C17.2402 67.5545 18.0549 67.0763 18.9122 66.6889C19.5198 66.415 20.1761 66.235 20.8111 66.014C21.7552 65.6856 22.6643 65.2574 23.6343 65.0047C23.8246 64.8609 24.0439 64.7262 23.8338 64.4417C23.7439 64.3857 23.7409 64.298 23.7439 64.2072C23.6571 64.1421 23.7196 64.012 23.6708 63.9302C23.6571 63.9075 23.6373 63.8879 23.6008 63.8758C23.3571 63.6155 23.1912 63.3174 23.15 62.9587C23.0556 62.815 22.9399 62.6803 22.8683 62.5274C22.0963 60.878 21.0837 59.3571 20.3055 57.7122C20.2355 57.5654 20.17 57.411 19.934 57.3747C19.9492 57.5049 19.9461 57.6017 19.9735 57.6895C20.3786 58.9864 20.7882 60.2802 21.1933 61.5756C21.344 62.0553 21.3182 62.1658 20.9268 62.4578C20.7578 62.5834 20.5796 62.7075 20.374 62.768C20.304 62.7892 20.2309 62.8028 20.1532 62.8059C19.9675 62.93 19.7817 63.0541 19.5944 63.1781V63.1736ZM2.75557 48.3647C4.87831 47.3583 6.82289 46.0433 8.85884 44.8856C9.54256 44.4967 10.2339 44.1154 10.9329 43.7552C11.4247 43.501 11.6516 43.5524 11.8389 43.961C12.1374 44.6117 12.1556 44.7858 11.5998 45.1081C10.9694 45.4743 10.3253 45.8193 9.68266 46.1644C7.6193 47.2751 5.5529 48.3843 3.48802 49.492C3.35554 49.5632 3.24133 49.6827 3.07078 49.6691C2.83932 49.657 2.54391 49.3135 2.46168 48.97C2.39315 48.684 2.48909 48.4903 2.75557 48.3647Z" fill="#0066CC"/>
<path d="M73.0845 46.798C72.4404 46.686 71.7825 46.63 71.1506 46.4696C70.0313 46.1851 68.938 45.8249 67.8964 45.3089C66.1894 44.463 64.6529 43.4052 63.4195 41.9389C63.124 41.5878 62.7936 41.2579 62.4494 40.9552C62.0627 40.6162 61.8053 40.6904 61.6302 41.1701C61.181 42.3989 60.5445 43.5369 59.914 44.6779C59.0537 46.2381 58.1491 47.7771 57.3558 49.3736C57.2873 49.5113 57.2248 49.6505 57.1624 49.7913C57.1106 49.9078 57.1137 50.0228 57.2233 50.1C57.3268 50.1741 57.4471 50.1605 57.5461 50.0848C57.7608 49.9244 57.9695 49.7534 58.1826 49.59C58.5715 49.2914 58.945 49.2893 59.3034 49.5839C60.2353 50.3542 61.1795 51.1093 62.1449 51.8387C63.5382 52.895 65.0869 53.6516 66.733 54.2206C67.3589 54.437 67.3924 54.4854 67.0863 55.0847C67.0513 55.1528 67.0041 55.2133 66.966 55.2814C66.7086 55.7521 66.4528 56.2212 66.197 56.6918C66.2153 56.719 66.2381 56.7402 66.264 56.7554C66.7863 56.3498 66.9386 55.7051 67.2797 55.1831C67.3726 55.0408 67.4426 54.8759 67.4913 54.7124C67.5949 54.3674 67.5188 54.21 67.1639 54.1086C66.663 53.9664 66.1894 53.7606 65.7051 53.576C64.528 53.1265 63.4453 52.503 62.4418 51.7585C61.3485 50.9474 60.3008 50.0742 59.2288 49.2344C58.8207 48.9151 58.7004 48.9347 58.2664 49.2419C58.0669 49.3827 57.904 49.5824 57.6436 49.6762C57.4822 49.4598 57.6329 49.2979 57.7136 49.1481C58.271 48.1191 58.8283 47.0916 59.4024 46.0731C60.2673 44.5371 61.1277 42.9981 61.8145 41.3714C61.9652 41.0142 62.1236 40.9643 62.4053 41.2352C62.7799 41.5938 63.1454 41.9631 63.4865 42.3535C64.4595 43.4627 65.6183 44.3344 66.9036 45.0471C67.9649 45.6358 69.0765 46.0973 70.2506 46.4393C71.1232 46.6936 72.0003 46.8721 72.8972 46.972C73.3875 47.0265 73.4484 47.1006 73.2246 47.541C72.5013 48.9574 71.7749 50.3724 70.9861 51.7555C70.2171 53.1023 69.4755 54.4643 68.7141 55.8156C67.9055 57.2502 67.0558 58.6651 66.2792 60.1164C65.6199 61.3497 64.93 62.5679 64.2783 63.8057C64.0742 64.1946 63.8017 64.5487 63.6661 64.974C63.6403 65.0088 63.6174 65.0436 63.593 65.0784C63.6098 65.1283 63.6357 65.1737 63.6798 65.2116C63.7819 65.1768 63.8169 65.0829 63.8626 65.0012C64.4656 63.9117 65.0717 62.8236 65.6701 61.731C66.3508 60.4871 66.998 59.225 67.7061 57.9978C69.4892 54.9092 71.2572 51.813 72.9033 48.6502C73.1058 48.2598 73.3205 47.8724 73.4865 47.4669C73.6936 46.9614 73.6433 46.8964 73.0845 46.7995V46.798Z" fill="#0066CC"/>
<path d="M64.278 63.8043C64.9297 62.5664 65.6195 61.3497 66.2789 60.1149C67.0555 58.6621 67.9037 57.2487 68.7138 55.8141C69.4752 54.4628 70.2168 53.1008 70.9858 51.754C71.7746 50.3709 72.5024 48.956 73.2242 47.5395C73.4481 47.1007 73.3872 47.025 72.8968 46.9705C71.9984 46.8707 71.1228 46.6921 70.2503 46.4379C69.0777 46.0959 67.9661 45.6343 66.9032 45.0457C65.618 44.3329 64.4576 43.4612 63.4861 42.352C63.145 41.9631 62.778 41.5939 62.4049 41.2337C62.1248 40.9643 61.9664 41.0128 61.8141 41.3699C61.1258 42.9967 60.267 44.5342 59.402 46.0717C58.828 47.0901 58.2706 48.1191 57.7133 49.1466C57.6326 49.2964 57.4818 49.4584 57.6432 49.6748C57.9036 49.5825 58.0666 49.3827 58.2661 49.2405C58.7 48.9333 58.8203 48.9136 59.2284 49.2329C60.302 50.0728 61.3481 50.9459 62.4415 51.757C63.445 52.5016 64.5277 53.125 65.7048 53.5745C66.189 53.7591 66.6626 53.9649 67.1636 54.1072C67.5184 54.207 67.5946 54.3659 67.491 54.711C67.4423 54.8744 67.3722 55.0393 67.2793 55.1816C66.9382 55.7037 66.786 56.3483 66.2636 56.7539C66.2515 56.819 66.2378 56.884 66.2256 56.9491C66.2134 57.0036 66.2149 57.0671 66.1875 57.114C65.4916 58.2596 64.8597 59.44 64.1942 60.6022C63.3384 62.0958 62.4841 63.5894 61.6573 65.0981C61.4091 65.5506 61.1517 66 60.8715 66.4328C60.5822 66.8807 60.3431 66.9367 59.9198 66.6235C59.4097 66.2467 58.8493 65.9501 58.3254 65.596C57.4666 65.0134 56.5621 64.5064 55.6332 64.0418C54.7058 63.5773 53.7998 63.0718 52.9089 62.5407C52.4156 62.2471 52.3333 62.0337 52.4887 61.495C52.5831 61.1651 52.6942 60.8382 52.8023 60.5114C53.1084 59.5883 53.416 58.6667 53.7221 57.7451C53.7267 57.3047 54.1119 56.9446 54.016 56.43C53.6719 56.7781 53.614 57.2487 53.2866 57.5438C53.1541 57.9464 52.9409 58.3126 52.7384 58.6818C51.8034 60.3782 50.8776 62.0776 50.0324 63.8194C49.9152 64.06 49.7873 64.2991 49.7005 64.5518C49.5984 64.853 49.67 64.9574 49.9898 65.0421C50.3233 65.1314 50.675 65.1314 51.0055 65.2509C51.9268 65.5839 52.8556 65.8911 53.7571 66.283C55.1383 66.8838 56.4463 67.6117 57.727 68.3895C58.5691 68.901 59.3092 69.5396 59.8528 70.3794C60.1117 70.7789 60.1726 70.7759 60.4588 70.4082C60.4939 70.3628 60.5274 70.3159 60.5578 70.2659C61.3299 68.9872 62.1324 67.7252 62.845 66.4101C63.0887 65.9622 63.2942 65.4931 63.5881 65.0724C63.6125 65.0376 63.6369 65.0028 63.6612 64.968C63.7968 64.5427 64.0693 64.1886 64.2734 63.7997L64.278 63.8043ZM62.6349 45.5117C62.3486 45.3528 62.0806 45.1667 61.8354 44.9503C61.6862 44.8187 61.572 44.6688 61.6009 44.4524C61.6436 44.1634 61.7623 43.9016 61.942 43.6746C62.1248 43.4446 62.3456 43.4945 62.5572 43.6338C63.6963 44.3859 64.9175 44.9987 66.0961 45.6827C67.6235 46.5695 69.1539 47.4502 70.6827 48.334C71.132 48.5943 71.2172 48.7759 71.0117 49.1466C70.733 49.649 70.4437 49.7958 70.0005 49.5704C68.9727 49.0468 67.9707 48.4793 66.9794 47.8921C65.5571 47.0507 64.08 46.3108 62.6349 45.5117Z" fill="#0066CC"/>
<path d="M55.7319 44.1996C55.3344 43.8047 55.3207 43.4581 55.5217 42.9709C55.8598 42.1582 56.1278 41.3153 56.4232 40.4861C56.4796 40.3257 56.5785 40.1456 56.4308 40.0018C56.2709 39.8459 56.073 39.9322 55.8887 39.9912C55.4547 40.1289 55.1091 40.4013 54.7756 40.6949C54.4878 40.9476 54.1558 41.0732 53.7721 41.0656C53.3472 41.0566 52.9193 41.0883 52.5006 41.0384C50.6824 40.8205 48.8505 40.7675 47.0277 40.6056C46.2237 40.5345 45.4577 40.3907 44.8258 39.8596C44.4877 39.5766 44.1558 39.286 43.8497 38.9637C43.2665 38.3508 42.668 37.7531 42.0574 37.1674C41.0569 36.2095 40.0976 35.2168 39.1733 34.1848C38.6235 33.5704 38.1104 32.9197 37.4449 32.4142C36.9226 32.0178 36.7323 31.9996 36.2252 32.4036C35.4242 33.0407 34.7268 33.7822 34.04 34.5359C33.3289 35.3167 32.6512 36.1278 31.8822 36.8572C30.8635 37.8227 29.8569 38.8003 28.8489 39.7763C28.3859 40.2243 27.8317 40.4376 27.1936 40.4951C25.6967 40.6313 24.2029 40.7766 22.7075 40.9264C21.8837 41.0097 21.0614 41.1065 20.2285 41.1065C19.7686 41.1065 19.3513 41.0142 18.9646 40.7721C18.5732 40.5269 18.1834 40.2803 17.789 40.0396C17.6184 39.9352 17.4311 39.8596 17.2545 40.0063C17.0961 40.138 17.1601 40.3151 17.2012 40.4861C17.3443 41.0883 17.6002 41.6528 17.8986 42.184C18.3478 42.9815 18.2382 43.6821 17.6854 44.3616C17.6245 44.4357 17.5651 44.5114 17.5073 44.5886C17.0718 45.1727 16.6378 45.7598 16.2007 46.344C15.9632 46.6617 15.8947 46.9962 16.0743 47.3654C16.3423 47.9178 16.5982 48.4762 16.8723 49.024C17.8575 50.9973 18.8762 52.954 19.9239 54.8955C20.3518 55.6885 20.7812 56.4829 21.2122 57.2744C21.4589 57.7284 21.7756 57.9977 22.368 57.9281C23.0745 57.8464 23.7933 57.8873 24.5059 57.8509C25.0313 57.8237 25.4455 58.0007 25.7683 58.4093C26.1262 58.8603 26.484 59.3112 26.8495 59.7562C28.0327 61.1953 29.2189 62.6299 30.4021 64.069C30.6716 64.3974 30.9092 64.753 31.0295 65.1601C31.2122 65.7714 31.4757 66.3465 31.7909 66.8943C32.6954 68.4681 33.8908 69.6923 35.7927 69.995C37.3657 70.2447 38.823 69.9708 40.0976 68.966C41.2381 68.0686 41.9508 66.8792 42.4533 65.5505C42.5416 65.3159 42.6345 65.0889 42.7716 64.8771C43.7187 63.4092 44.7877 62.0291 45.8948 60.6777C46.5526 59.8757 47.2394 59.0994 47.9566 58.3473C48.2688 58.0189 48.6175 57.8419 49.0789 57.8661C49.4641 57.8873 49.8494 57.8706 50.2362 57.8706C50.2362 57.8797 50.2362 57.8888 50.2362 57.8978C50.5453 57.8978 50.859 57.86 51.1605 57.9054C51.8503 58.0113 52.2249 57.692 52.5112 57.1019C52.9863 56.1182 53.5239 55.1649 54.0233 54.1933C55.1806 51.9431 56.3242 49.6853 57.4892 47.4381C57.7023 47.0249 57.6749 46.6754 57.4069 46.3182C56.8663 45.5964 56.373 44.8322 55.7334 44.1966L55.7319 44.1996ZM57.2044 47.4759C56.7095 48.3218 56.2968 49.2086 55.8552 50.0802C55.0466 51.6707 54.2563 53.2702 53.4416 54.8577C53.0305 55.6582 52.5752 56.4375 52.1534 57.2335C51.9767 57.5664 51.7239 57.6769 51.3539 57.6618C50.5834 57.6315 49.8113 57.6497 49.0408 57.6224C48.5627 57.6058 48.1881 57.7692 47.8592 58.1127C47.1678 58.8331 46.5008 59.5761 45.8719 60.3494C45.1821 61.1968 44.4954 62.0473 43.8482 62.928C43.4294 63.4985 42.9787 64.0478 42.633 64.6713C42.4929 64.924 42.3589 65.1722 42.2538 65.4415C41.8168 66.5553 41.2473 67.5874 40.3747 68.4348C38.6875 70.0707 36.2191 70.1705 34.4679 69.3367C33.5421 68.8948 32.8903 68.1276 32.3162 67.2998C31.899 66.696 31.5655 66.0438 31.3462 65.3492C31.1148 64.6153 30.6792 64.0221 30.2102 63.438C28.9265 61.8384 27.5545 60.31 26.3165 58.6726C25.9967 58.2504 25.645 57.8388 25.0952 57.6557C24.7907 57.5543 24.4922 57.4999 24.1892 57.5664C23.5237 57.7117 22.8431 57.6088 22.1746 57.7163C21.7863 57.7783 21.5959 57.4499 21.4345 57.17C21.002 56.4239 20.5787 55.6718 20.1767 54.9091C19.2722 53.1991 18.3737 51.4846 17.489 49.764C17.0855 48.9801 16.7246 48.1765 16.3347 47.3866C16.1657 47.0431 16.1764 46.7374 16.4215 46.4257C16.8479 45.8824 17.253 45.3225 17.6672 44.7717C17.7022 44.7263 17.7448 44.6854 17.7814 44.6415C18.4681 43.8244 18.625 42.9572 18.0768 41.9933C17.8301 41.562 17.6184 41.1065 17.4799 40.6253C17.4448 40.5012 17.3702 40.3741 17.4707 40.2167C17.7083 40.2001 17.8834 40.3589 18.0722 40.474C18.3189 40.6238 18.558 40.7842 18.7971 40.9446C19.1762 41.1988 19.5919 41.3108 20.0503 41.3138C21.3051 41.3244 22.5522 41.2155 23.7917 41.0384C24.48 40.94 25.1759 40.9839 25.8627 40.8644C26.4688 40.76 27.0855 40.7221 27.6946 40.6344C28.1423 40.5708 28.5595 40.3892 28.8732 40.0699C30.2072 38.7125 31.6873 37.5034 32.968 36.096C33.8984 35.0731 34.7953 34.0228 35.8095 33.0786C36.0059 32.8955 36.213 32.7229 36.4247 32.5595C36.7505 32.3098 36.8754 32.2992 37.1906 32.5338C37.515 32.7744 37.8347 33.0256 38.0951 33.3358C40.0047 35.6027 42.2066 37.5896 44.2837 39.6946C44.9918 40.4119 45.8765 40.763 46.8633 40.8417C47.5911 40.9007 48.3206 40.9567 49.053 40.9779C50.3032 41.0142 51.5412 41.2472 52.7945 41.2533C53.1021 41.2548 53.4097 41.2775 53.7173 41.2881C54.2015 41.3047 54.6172 41.1549 54.9842 40.8281C55.3223 40.5254 55.6847 40.2394 56.21 40.1895C56.2268 40.4724 56.1141 40.6949 56.0334 40.9204C55.7943 41.5877 55.5415 42.249 55.3009 42.9164C55.2355 43.0965 55.1867 43.2826 55.1395 43.4672C55.0771 43.7078 55.1273 43.9152 55.3146 44.0952C56.038 44.7929 56.5755 45.6388 57.1983 46.4151C57.4953 46.7858 57.4085 47.1294 57.2059 47.4759H57.2044Z" fill="#0066CC"/>
<path d="M19.2707 39.1362C19.659 39.6144 20.0763 39.749 20.6701 39.6976C22.8218 39.5099 24.943 39.1059 27.0825 38.8365C27.7906 38.7473 28.3556 38.4325 28.8078 37.8938C29.4641 37.1129 30.2225 36.4304 30.9565 35.7252C31.2884 35.4059 31.6143 35.0791 31.9234 34.7371C32.9178 33.643 33.8558 32.4944 34.9537 31.5017C35.5385 30.9735 35.7806 30.344 35.8918 29.598C36.0486 28.5478 35.977 27.4945 35.9755 26.4443C35.9755 25.6392 35.9709 24.8357 35.977 24.0306C35.9801 23.6553 35.84 23.3829 35.5187 23.165C34.136 22.2268 32.7533 21.2855 31.392 20.3155C30.7874 19.8842 30.189 19.8086 29.4885 20.0341C27.1434 20.7892 24.8182 21.6033 22.4975 22.4296C21.0463 22.9456 19.6012 23.4707 18.1865 24.0775C17.7449 24.2667 17.4784 24.5739 17.3383 25.0248C17.0703 25.8844 16.8023 26.7424 16.551 27.608C15.9526 29.6676 15.7044 31.7589 15.7714 33.9048C15.8003 34.8112 16.1155 35.527 16.6988 36.1807C17.5683 37.1553 18.4469 38.1223 19.2677 39.1362H19.2707ZM17.1723 29.7493C17.4464 28.4403 17.8545 27.1571 18.1941 25.8617C18.3479 25.276 18.7728 24.9719 19.2981 24.7812C20.3839 24.3862 21.4742 24.0049 22.566 23.6266C24.4588 22.9728 26.3333 22.2752 28.1865 21.5171C28.6342 21.334 29.1002 21.2129 29.5738 21.1221C30.0017 21.0404 30.4098 21.1085 30.8057 21.3097C31.6158 21.7214 32.3254 22.2873 33.0883 22.7701C33.5421 23.0576 33.97 23.3875 34.4086 23.6992C34.7116 23.9156 34.8532 24.1941 34.8426 24.5799C34.8197 25.3653 34.8365 26.1507 34.8365 26.9361H34.8289C34.8289 27.6837 34.8197 28.4297 34.8304 29.1773C34.8426 30.0202 34.5654 30.6981 33.8421 31.1975C32.8173 31.9027 32.0133 32.8364 31.2412 33.7958C30.1768 35.1184 28.9647 36.2897 27.6581 37.3717C27.3307 37.6426 26.9516 37.7379 26.5526 37.8226C25.1547 38.1208 23.7279 38.2025 22.3163 38.3977C21.9538 38.4476 21.5884 38.4824 21.2351 38.5808C20.6519 38.7442 20.1783 38.5763 19.7732 38.1465C19.391 37.7409 19.0073 37.3323 18.7012 36.8678C18.3723 36.3684 18.0022 35.9053 17.588 35.4755C17.0734 34.9398 16.848 34.2907 16.7673 33.5612C16.6226 32.2583 16.9119 30.9993 17.1739 29.7493H17.1723Z" fill="#0066CC"/>
<path d="M57.4312 29.0396C57.2957 28.6008 57.1647 28.1589 57.0536 27.7125C56.8175 26.7621 56.4627 25.8496 56.1856 24.9129C56.0501 24.4544 55.7714 24.1593 55.31 23.9989C54.6004 23.7537 53.906 23.4677 53.1994 23.2135C51.3158 22.5355 49.4291 21.8636 47.5423 21.1902C46.382 20.7771 45.2338 20.3277 44.04 20.0084C43.4735 19.857 42.9695 19.8646 42.4426 20.196C41.0081 21.0979 39.6376 22.0906 38.2306 23.0319C37.8164 23.3088 37.6611 23.6554 37.6672 24.1426C37.6854 25.6378 37.6733 27.1329 37.6733 28.6265C37.6733 29.0093 37.6687 29.3937 37.6854 29.7766C37.7098 30.3516 37.9139 30.8313 38.3463 31.2535C39.6544 32.5277 40.932 33.8337 42.2142 35.1321C43.0639 35.9931 43.9532 36.8209 44.6932 37.7803C45.147 38.3675 45.7379 38.6701 46.4505 38.7776C48.3936 39.0696 50.3381 39.3632 52.2827 39.6416C52.7015 39.7022 53.1294 39.6916 53.5512 39.7279C53.8497 39.7536 54.0659 39.6537 54.238 39.4056C55.1257 38.1268 56.2084 37.0025 57.1921 35.7994C57.582 35.3227 57.7936 34.8279 57.8058 34.2362C57.818 33.6808 57.8089 33.1255 57.8089 32.5686C57.8287 31.3761 57.7815 30.1927 57.4266 29.0396H57.4312ZM56.8419 33.6808C56.8267 34.4011 56.5693 35.0246 56.0775 35.5528C55.3846 36.2988 54.7192 37.0645 54.1436 37.9074C53.74 38.4991 53.169 38.711 52.4365 38.6096C51.0066 38.4129 49.5707 38.26 48.1362 38.1026C47.617 38.0451 47.1038 37.9452 46.6089 37.7985C45.948 37.6017 45.4363 37.1493 44.9521 36.6801C43.5435 35.3152 42.2781 33.8185 40.9335 32.3945C40.5239 31.9602 40.0853 31.5532 39.6361 31.1703C38.8671 30.5151 38.5488 29.6918 38.593 28.7294C38.6585 27.313 38.657 25.8965 38.6798 24.4801C38.6859 24.0851 38.8656 23.7931 39.196 23.5736C40.3168 22.8291 41.4375 22.0861 42.5446 21.3219C43.0639 20.9632 43.5633 20.9133 44.1709 21.1312C47.1769 22.2117 50.195 23.2574 53.2101 24.3106C53.6091 24.4498 54.0172 24.5648 54.4192 24.6995C54.9445 24.8751 55.2628 25.208 55.4562 25.7543C56.1155 27.6232 56.58 29.5329 56.8008 31.5002C56.8495 31.936 56.845 32.3794 56.8663 32.8183C56.8587 32.8183 56.851 32.8183 56.8434 32.8183C56.8434 33.1058 56.848 33.3933 56.8434 33.6793L56.8419 33.6808Z" fill="#0066CC"/>
<path d="M55.3127 44.0937C55.1254 43.9136 55.0752 43.7063 55.1376 43.4657C55.1864 43.2811 55.2351 43.0949 55.299 42.9149C55.5396 42.249 55.7924 41.5862 56.0315 40.9189C56.1122 40.6934 56.2234 40.4709 56.2081 40.1879C55.6828 40.2379 55.3219 40.5239 54.9823 40.8265C54.6153 41.1534 54.1996 41.3032 53.7154 41.2866C53.4078 41.276 53.1002 41.2533 52.7926 41.2518C51.5378 41.2457 50.3013 41.0112 49.0511 40.9764C48.3187 40.9552 47.5892 40.8992 46.8614 40.8402C45.8746 40.76 44.9899 40.4104 44.2818 39.6931C42.2047 37.5866 40.0028 35.6012 38.0932 33.3343C37.8313 33.0241 37.5115 32.7729 37.1887 32.5323C36.8735 32.2977 36.7486 32.3083 36.4228 32.558C36.2096 32.7214 36.004 32.8939 35.8076 33.077C34.7934 34.0198 33.895 35.0715 32.9661 36.0945C31.6854 37.5019 30.2053 38.7125 28.8713 40.0684C28.5592 40.3862 28.1404 40.5693 27.6927 40.6328C27.0836 40.7191 26.4669 40.7569 25.8608 40.8629C25.174 40.9824 24.4781 40.9385 23.7898 41.0369C22.5503 41.2139 21.3032 41.3229 20.0484 41.3123C19.5885 41.3078 19.1743 41.1973 18.7952 40.9431C18.5561 40.7827 18.317 40.6223 18.0703 40.4724C17.8815 40.3574 17.7049 40.1985 17.4688 40.2152C17.3668 40.3726 17.4414 40.4997 17.478 40.6238C17.6165 41.105 17.8282 41.5605 18.0749 41.9918C18.6231 42.9557 18.4662 43.8213 17.7795 44.64C17.7429 44.6839 17.7003 44.7232 17.6653 44.7702C17.2511 45.3225 16.8445 45.8809 16.4196 46.4242C16.1745 46.7359 16.1638 47.0416 16.3328 47.3851C16.7211 48.175 17.0836 48.9801 17.4871 49.7625C18.3718 51.4831 19.2703 53.1976 20.1748 54.9076C20.5783 55.6703 21.0017 56.4224 21.4326 57.1684C21.594 57.4469 21.7844 57.7753 22.1727 57.7147C22.8412 57.6088 23.5218 57.7117 24.1873 57.5649C24.4903 57.4983 24.7903 57.5528 25.0933 57.6542C25.6431 57.8373 25.9963 58.2489 26.3146 58.6711C27.5526 60.3085 28.9246 61.8369 30.2083 63.4364C30.6773 64.0206 31.1129 64.6138 31.3443 65.3477C31.5621 66.0408 31.8971 66.6945 32.3143 67.2983C32.8869 68.1261 33.5386 68.8948 34.466 69.3352C36.2187 70.1705 38.6871 70.0707 40.3728 68.4333C41.2454 67.5858 41.8149 66.5538 42.2519 65.44C42.357 65.1707 42.4925 64.921 42.6311 64.6698C42.9768 64.0463 43.4275 63.4955 43.8463 62.9265C44.4935 62.0473 45.1802 61.1953 45.87 60.3478C46.4989 59.5746 47.1659 58.8315 47.8573 58.1112C48.1862 57.7677 48.5592 57.6058 49.0389 57.6209C49.8094 57.6466 50.5815 57.63 51.352 57.6603C51.722 57.6754 51.9764 57.5649 52.1515 57.232C52.5733 56.436 53.0286 55.6582 53.4397 54.8561C54.2544 53.2687 55.0463 51.6692 55.8533 50.0787C56.2965 49.2071 56.7076 48.3188 57.2025 47.4744C57.4066 47.1263 57.4918 46.7828 57.1949 46.4136C56.5721 45.6357 56.0345 44.7898 55.3112 44.0937H55.3127ZM36.6862 60.0361C30.7611 59.9665 25.6903 55.1331 25.7375 48.7743C25.7816 42.8286 31.0169 38.0663 37.0121 38.0784C42.9067 38.1087 47.906 43.0844 47.8344 49.2419C47.7659 55.0695 42.8641 60.1072 36.6862 60.0346V60.0361Z" fill="#0066CC"/>
<path d="M37.0122 38.0799C31.0171 38.0678 25.7818 42.83 25.7376 48.7757C25.6904 55.1345 30.7613 59.9664 36.6864 60.0375C42.8642 60.1102 47.766 55.0725 47.8346 49.2448C47.9061 43.0873 42.9069 38.1116 37.0122 38.0814V38.0799ZM36.828 59.8347C30.8587 59.8287 25.9676 54.8288 25.9219 49.0012C25.8762 43.1236 31.0841 38.3068 36.9239 38.2736C42.7972 38.2418 47.7493 43.3763 47.6077 49.0678C47.7904 54.7698 42.7181 59.8408 36.828 59.8347Z" fill="#0066CC"/>
<path d="M40.8656 39.7339C40.8656 39.7339 40.8656 39.7218 40.8656 39.7142C40.858 39.7142 40.8504 39.7173 40.8428 39.7188C40.8504 39.7233 40.858 39.7294 40.8656 39.7339Z" fill="#0066CC"/>
<path d="M43.6353 41.2396C42.8663 40.5631 42.0319 39.9866 41.0329 39.6854C40.9766 39.696 40.9202 39.7051 40.8639 39.7157C40.8639 39.7217 40.8639 39.7293 40.8639 39.7354C41.3375 40.0532 41.8933 40.212 42.3684 40.5298C44.1957 41.7541 45.4794 43.393 46.3048 45.4253C47.0129 47.1671 47.1986 48.9633 46.8575 50.7717C46.4799 52.7707 45.6743 54.6003 44.1698 56.0712C43.2973 56.9232 42.3714 57.6738 41.2613 58.208C40.098 58.7664 38.8797 59.0569 37.5976 59.1356C36.7265 59.1886 35.8586 59.1174 35.0058 58.9949C34.3266 58.8965 33.6734 58.6332 33.0079 58.4425C33.0079 58.4864 33.0064 58.5288 33.0049 58.5727C33.3475 58.8072 33.7587 58.8466 34.1424 58.9661C35.8784 59.5063 37.6463 59.5139 39.3899 59.0932C40.5837 58.8042 41.7075 58.3048 42.7323 57.583C45.1962 55.8472 46.6139 53.4835 47.0768 50.5493C47.3235 48.98 47.22 47.4137 46.6976 45.902C46.0748 44.0966 45.0805 42.5168 43.6338 41.2441L43.6353 41.2396Z" fill="#0066CC"/>
<path d="M29.0528 55.7006C28.296 54.8713 27.7234 53.9209 27.3077 52.8813C26.6758 51.2999 26.5144 49.6429 26.6727 47.9707C26.7702 46.9462 27.058 45.946 27.4585 44.982C28.1224 43.3794 29.1807 42.0795 30.5588 41.0551C32.1593 39.8641 33.9455 39.1029 35.9799 38.9955C36.9073 38.9471 37.8285 38.9637 38.7346 39.1438C39.4472 39.286 40.1401 39.5236 40.8406 39.7188C40.8482 39.7188 40.8558 39.7158 40.8634 39.7143C40.9198 39.7037 40.9761 39.6946 41.0325 39.684C40.667 39.4116 40.2254 39.3375 39.8021 39.2119C37.1722 38.4295 34.6201 38.6383 32.1562 39.8293C30.5847 40.589 29.3086 41.7012 28.2838 43.1101C27.3245 44.4297 26.7291 45.9051 26.5509 47.4986C26.388 48.9589 26.3575 50.4465 26.7671 51.8916C27.0565 52.9116 27.4828 53.8755 28.0706 54.7593C28.7696 55.808 29.6634 56.6781 30.7111 57.3818C31.4283 57.863 32.1547 58.3367 33.0059 58.5667C33.0059 58.5228 33.0074 58.4805 33.009 58.4366C31.5151 57.7738 30.1583 56.9112 29.0528 55.699V55.7006Z" fill="#0066CC"/>
<path d="M40.8424 39.7187C40.1404 39.5235 39.4475 39.2859 38.7364 39.1437C37.8304 38.9621 36.9091 38.9455 35.9817 38.9954C33.9473 39.1028 32.1611 39.864 30.5606 41.055C29.1825 42.0795 28.1257 43.3794 27.4603 44.9819C27.0598 45.9459 26.772 46.9462 26.6745 47.9706C26.5146 49.6428 26.6776 51.2999 27.3095 52.8812C27.7237 53.9209 28.2963 54.8712 29.0546 55.7005C30.1617 56.9126 31.5169 57.7752 33.0108 58.438C33.6762 58.6287 34.3295 58.892 35.0087 58.9903C35.8614 59.1129 36.7294 59.184 37.6004 59.1311C38.8826 59.0539 40.1008 58.7618 41.2642 58.2034C42.3743 57.6708 43.3001 56.9202 44.1727 56.0667C45.6757 54.5973 46.4827 52.7662 46.8604 50.7672C47.2015 48.9588 47.0157 47.161 46.3076 45.4208C45.4823 43.3884 44.1986 41.7511 42.3713 40.5253C41.8962 40.2075 41.3403 40.0486 40.8668 39.7308C40.8591 39.7263 40.8515 39.7203 40.8439 39.7157L40.8424 39.7187ZM45.8386 50.2239C45.6818 51.6615 45.0818 52.9584 44.2382 54.1615C43.1022 55.7822 41.5672 56.8415 39.7612 57.5573C38.8232 57.9295 37.8395 58.1126 36.9532 58.0022C34.6462 58.1338 32.761 57.3651 31.1241 56.0304C29.7825 54.9378 28.7805 53.5698 28.2019 51.9052C27.7983 50.743 27.611 49.5581 27.7085 48.3535C27.8334 46.7918 28.3511 45.3466 29.2648 44.0407C30.0977 42.8512 31.1469 41.9342 32.4154 41.2335C34.2077 40.2423 36.1005 39.8534 38.1425 40.1228C40.0704 40.377 41.6708 41.235 43.0504 42.5713C44.0631 43.5519 44.7514 44.7216 45.3056 46.0034C45.8965 47.3699 45.9955 48.7969 45.8401 50.2239H45.8386Z" fill="#0066CC"/>
<path d="M38.1391 40.1228C36.0971 39.8534 34.2042 40.2439 32.4119 41.2335C31.1435 41.9342 30.0943 42.8512 29.2613 44.0407C28.3477 45.3466 27.8299 46.7918 27.7051 48.3535C27.6076 49.5581 27.7949 50.743 28.1984 51.9052C28.7771 53.5698 29.7806 54.9378 31.1206 56.0304C32.7576 57.3651 34.6428 58.1338 36.9498 58.0022C37.8361 58.1126 38.8198 57.9295 39.7578 57.5573C41.5638 56.8415 43.0988 55.7822 44.2347 54.1615C45.0784 52.9584 45.6783 51.6615 45.8352 50.2239C45.9905 48.7969 45.8915 47.3699 45.3007 46.0034C44.7464 44.7232 44.0581 43.5534 43.0455 42.5713C41.6658 41.2351 40.0654 40.377 38.1376 40.1228H38.1391ZM45.6692 49.3508C45.59 53.7559 41.5729 57.7343 36.9818 57.8599C32.1972 57.9901 27.8604 53.8059 27.9259 48.8393C27.9852 44.3206 32.08 40.2227 36.8889 40.2756C41.6871 40.1031 45.756 44.587 45.6707 49.3523L45.6692 49.3508Z" fill="#0066CC"/>
<path d="M41.9934 42.8785C40.5513 41.6952 38.8991 41.0157 36.9774 41.1761C36.8236 41.1761 36.6682 41.1761 36.5144 41.1761C34.6947 41.1564 33.0989 41.8253 31.7238 42.927C30.3289 44.0453 29.4107 45.4965 28.998 47.2807C28.628 48.8772 28.7605 50.4011 29.3437 51.8992C29.7503 52.9449 30.3868 53.8483 31.1756 54.6609C32.1121 55.6249 33.2359 56.2378 34.4952 56.66C35.45 56.9793 36.4292 56.9929 37.4129 56.9505C39.1899 56.8733 40.7721 56.2302 42.1106 55.1013C43.8237 53.6576 44.576 51.7206 44.7069 49.5279C44.777 48.3657 44.5684 47.2353 44.1785 46.1457C43.7263 44.8806 43.038 43.7366 41.9918 42.8785H41.9934ZM32.8948 50.8021C31.9294 50.8051 31.1878 50.0288 31.1893 49.0179C31.1908 48.0464 32.0009 47.2761 33.0212 47.2792C33.9729 47.2822 34.6704 48.0222 34.6734 49.0346C34.6765 50.0681 33.9425 50.7991 32.8948 50.8021ZM36.9576 43.5262C37.8743 43.5232 38.5184 44.2208 38.5199 45.2181C38.5199 46.2229 37.8255 46.9039 36.8327 46.9538C35.9541 46.9977 35.0343 46.179 35.0343 45.1787C35.0343 44.0529 35.7926 43.6034 36.956 43.5262H36.9576ZM36.8053 54.6261C35.9145 54.6292 34.9703 53.809 35.0541 52.8178C34.9566 51.9507 35.8475 51.132 36.8601 51.1562C37.8819 51.1819 38.5123 51.8462 38.5352 52.9328C38.555 53.8634 37.7342 54.6231 36.8068 54.6261H36.8053ZM40.6975 50.7809C39.7031 50.7915 38.9158 50.0379 38.9037 49.0648C38.89 48.0207 39.6711 47.3185 40.8406 47.323C41.7147 47.3276 42.3939 48.0842 42.3954 49.0558C42.3969 50.0364 41.6766 50.7688 40.6975 50.7794V50.7809Z" fill="#0066CC"/>
</g>
<defs>
<clipPath id="clip0_1_3228">
<rect width="185" height="71" fill="white"/>
</clipPath>
</defs>
</svg>
