<svg width="32" height="33" viewBox="0 0 32 33" fill="none" xmlns="http://www.w3.org/2000/svg">
<path d="M8 15.0018C8 9.81693 11.9467 5.55382 17 5.05248C16.6711 5.01959 16.3378 5.00182 16 5.00182C10.4773 5.00182 6 9.47915 6 15.0018C6 20.5245 10.4773 25.0018 16 25.0018C16.3378 25.0018 16.6711 24.984 17 24.9512C11.9467 24.4498 8 20.1867 8 15.0018Z" fill="#D5DBE1"/>
<path d="M20.3701 25.6674C20.3657 25.6674 20.3604 25.6674 20.355 25.6674C20.0741 25.6602 19.827 25.478 19.7381 25.2114L16.923 16.7669C16.843 16.5269 16.9052 16.2638 17.0839 16.0842C17.2626 15.9047 17.5275 15.8434 17.7666 15.9225L26.211 18.7376C26.4777 18.8274 26.6599 19.0745 26.667 19.3554C26.6732 19.6362 26.5017 19.8914 26.2395 19.9927L22.4501 21.4496L20.9924 25.2398C20.8928 25.4985 20.6448 25.6674 20.3701 25.6674ZM18.6092 17.6105L20.4146 23.0274L21.3115 20.6958C21.379 20.5198 21.5186 20.3811 21.6946 20.3127L24.0261 19.4167L18.6092 17.6105Z" fill="#F2FAFD"/>
<path d="M16.0007 25.6672C10.1189 25.6672 5.33398 20.8823 5.33398 15.0005C5.33398 9.11874 10.1189 4.33385 16.0007 4.33385C21.8824 4.33385 26.6673 9.11874 26.6673 15.0005C26.6673 15.5676 26.6255 16.1143 26.5438 16.6263L25.2273 16.4147C25.2975 15.973 25.334 15.4974 25.334 15.0005C25.334 9.85385 21.1473 5.66718 16.0007 5.66718C10.854 5.66718 6.66732 9.85385 6.66732 15.0005C6.66732 20.1472 10.854 24.3338 16.0007 24.3338V25.6672Z" fill="#F2FAFD"/>
<path d="M15.9993 25.6672C13.9238 25.6672 12.146 23.5036 11.2456 19.8805C10.8669 18.3854 10.666 16.6956 10.666 15.0005C10.666 13.2992 10.8669 11.6156 11.2465 10.117C12.146 6.4974 13.9238 4.33385 15.9993 4.33385C18.0749 4.33385 19.8527 6.4974 20.7531 10.1205C21.122 11.5498 21.3149 13.1178 21.3238 14.7747L19.9905 14.7818C19.9816 13.2565 19.7985 11.7587 19.4607 10.4476C18.738 7.54096 17.3798 5.66718 15.9993 5.66718C14.6189 5.66718 13.2607 7.54096 12.5398 10.4414C12.186 11.8378 11.9993 13.4076 11.9993 14.9827C11.9993 16.5872 12.186 18.1623 12.5389 19.5561C13.2607 22.4601 14.6189 24.3338 15.9993 24.3338V25.6672Z" fill="#F2FAFD"/>
<path d="M15.9998 11.3528C12.8789 11.3528 9.92599 10.7074 7.89844 9.58299L8.54555 8.41588C10.3811 9.43455 13.0984 10.0194 15.9998 10.0194C18.9011 10.0194 21.6184 9.43543 23.454 8.41588L24.1011 9.58299C22.0735 10.7083 19.1207 11.3528 15.9998 11.3528Z" fill="#F2FAFD"/>
<path d="M15.334 20.3338H16.6673V24.965H15.334V20.3338Z" fill="#F2FAFD"/>
<path d="M15.334 5.00182H16.6673V14.3974H15.334V5.00182Z" fill="#F2FAFD"/>
<path d="M6.01758 14.3182H15.4042V15.6516H6.01758V14.3182Z" fill="#F2FAFD"/>
<path d="M21.2793 14.3182H25.9815V15.6516H21.2793V14.3182Z" fill="#F2FAFD"/>
<path d="M8.54466 21.5848L7.89844 20.4177C8.95622 19.8319 10.2549 19.3777 11.758 19.0675C12.9962 18.8106 14.3064 18.6719 15.6531 18.6542L15.6709 19.9875C14.4095 20.0044 13.1838 20.1333 12.0282 20.3733C10.6762 20.6524 9.47177 21.0719 8.54466 21.5848Z" fill="#F2FAFD"/>
</svg>
