<svg width="23" height="26" viewBox="0 0 23 26" fill="none" xmlns="http://www.w3.org/2000/svg">
<path d="M2.11753 16.1482H3.13362V17.8386C3.13361 17.9016 3.15021 17.9636 3.18175 18.0183C3.21329 18.0729 3.25866 18.1183 3.31329 18.1498C3.36792 18.1814 3.4299 18.198 3.49298 18.198C3.55607 18.198 3.61805 18.1814 3.67268 18.1498L7.13966 16.1482H9.98676V20.8395C9.9871 21.134 10.1042 21.4163 10.3124 21.6245C10.5207 21.8328 10.803 21.9499 11.0975 21.9502H12.1135V23.6406C12.1135 23.7037 12.1302 23.7657 12.1617 23.8203C12.1932 23.8749 12.2386 23.9203 12.2932 23.9518C12.3479 23.9834 12.4098 24 12.4729 24C12.536 24 12.598 23.9834 12.6526 23.9518L16.1196 21.9502H20.8829C21.1774 21.9499 21.4597 21.8327 21.6679 21.6245C21.8761 21.4163 21.9933 21.134 21.9936 20.8395V14.0114C21.9933 13.7169 21.8762 13.4346 21.6679 13.2264C21.4597 13.0181 21.1774 12.901 20.8829 12.9007H13.0137V11.2871L15.1569 10.0497H19.9203C20.2148 10.0494 20.4971 9.93227 20.7053 9.72404C20.9136 9.51581 21.0307 9.23348 21.031 8.939V2.11087C21.0307 1.81637 20.9136 1.534 20.7054 1.32574C20.4971 1.11748 20.2148 1.00033 19.9203 1L10.1348 1C9.84036 1.00034 9.55805 1.11747 9.34983 1.3257C9.14161 1.53392 9.02448 1.81622 9.02413 2.11069V7.09855H2.11753C1.82306 7.09889 1.54075 7.21602 1.33253 7.42424C1.12431 7.63246 1.00718 7.91477 1.00684 8.20924V15.0374C1.00716 15.3319 1.12428 15.6142 1.3325 15.8224C1.54072 16.0307 1.82305 16.1478 2.11753 16.1482ZM20.8829 13.6193C20.9868 13.6194 21.0865 13.6608 21.1599 13.7343C21.2334 13.8078 21.2747 13.9074 21.2749 14.0113V20.8394C21.2747 20.9433 21.2334 21.043 21.1599 21.1164C21.0865 21.1899 20.9868 21.2313 20.8829 21.2314H16.0233C15.9602 21.2314 15.8982 21.248 15.8436 21.2795L12.8323 23.018V21.5908C12.8323 21.4955 12.7944 21.4041 12.727 21.3367C12.6596 21.2693 12.5682 21.2315 12.4729 21.2315H11.0975C10.9935 21.2313 10.8939 21.19 10.8204 21.1165C10.747 21.0431 10.7056 20.9434 10.7055 20.8395V16.1482H11.903C12.1975 16.1478 12.4798 16.0307 12.688 15.8225C12.8962 15.6142 13.0134 15.3319 13.0137 15.0375V13.6193H20.8829ZM9.74288 2.11069C9.743 2.00678 9.78433 1.90716 9.85781 1.83368C9.93129 1.7602 10.0309 1.71887 10.1348 1.71875H19.9203C20.0242 1.71886 20.1238 1.76018 20.1973 1.83366C20.2708 1.90714 20.3122 2.00677 20.3123 2.11069V8.93882C20.3122 9.04275 20.2708 9.14239 20.1974 9.21588C20.1239 9.28937 20.0242 9.3307 19.9203 9.33081H15.0606C14.9976 9.3308 14.9356 9.34739 14.881 9.37892L11.8697 11.1174V9.69027C11.8697 9.59496 11.8318 9.50355 11.7644 9.43616C11.697 9.36876 11.6056 9.3309 11.5103 9.3309H10.1348C10.0309 9.33078 9.93127 9.28944 9.8578 9.21595C9.78432 9.14246 9.74299 9.04283 9.74288 8.93891V2.11069ZM1.72559 8.20924C1.7257 8.10533 1.76704 8.00571 1.84051 7.93223C1.91399 7.85875 2.01362 7.81742 2.11753 7.8173H9.02413V8.93891C9.02447 9.23338 9.14159 9.5157 9.34981 9.72394C9.55803 9.93217 9.84035 10.0493 10.1348 10.0496H11.1509V11.7401C11.1509 11.8031 11.1675 11.8651 11.1991 11.9197C11.2306 11.9744 11.276 12.0197 11.3306 12.0513C11.3852 12.0828 11.4472 12.0994 11.5103 12.0994C11.5734 12.0994 11.6353 12.0828 11.69 12.0513L12.2949 11.702V15.0375C12.2948 15.1414 12.2535 15.241 12.18 15.3145C12.1065 15.3879 12.0069 15.4293 11.903 15.4294H7.04335C6.98026 15.4294 6.91829 15.446 6.86366 15.4776L3.85237 17.216V15.7888C3.85237 15.6935 3.8145 15.6021 3.74711 15.5347C3.67971 15.4673 3.5883 15.4294 3.49299 15.4294H2.11753C2.01362 15.4293 1.91399 15.3879 1.84051 15.3145C1.76704 15.241 1.7257 15.1414 1.72559 15.0375V8.20924ZM4.21426 11.0229L5.86954 11.0746L5.64691 12.0938L4.44826 12.0564C4.40095 12.0546 4.35377 12.0623 4.30943 12.0789C4.26509 12.0955 4.22446 12.1206 4.18988 12.153C4.15529 12.1853 4.12744 12.2241 4.10791 12.2673C4.08839 12.3104 4.07758 12.3569 4.0761 12.4043C4.07462 12.4516 4.0825 12.4987 4.09929 12.543C4.11609 12.5872 4.14146 12.6277 4.17395 12.6622C4.20645 12.6966 4.24543 12.7243 4.28864 12.7436C4.33186 12.7629 4.37847 12.7735 4.42579 12.7747L5.49085 12.808L5.20654 14.109C5.19629 14.1551 5.19525 14.2029 5.20349 14.2494C5.21173 14.296 5.22907 14.3405 5.25454 14.3804C5.28 14.4202 5.31309 14.4546 5.35189 14.4817C5.39069 14.5087 5.43444 14.5278 5.48064 14.5379C5.52685 14.548 5.57459 14.5489 5.62113 14.5405C5.66768 14.5321 5.7121 14.5146 5.75187 14.489C5.79164 14.4634 5.82597 14.4303 5.85288 14.3914C5.87979 14.3525 5.89877 14.3087 5.90871 14.2624L6.22155 12.8308L7.26423 12.8634L6.96774 14.2214C6.95749 14.2675 6.95646 14.3153 6.9647 14.3618C6.97293 14.4084 6.99028 14.4529 7.01575 14.4928C7.04121 14.5326 7.07429 14.567 7.11309 14.5941C7.15189 14.6211 7.19565 14.6402 7.24185 14.6503C7.28805 14.6604 7.3358 14.6613 7.38234 14.6529C7.42888 14.6445 7.47331 14.627 7.51308 14.6014C7.55285 14.5758 7.58717 14.5426 7.61409 14.5038C7.641 14.4649 7.65997 14.4211 7.66992 14.3748L7.99515 12.8862L9.78408 12.9422H9.79549C9.8908 12.9436 9.98279 12.9072 10.0512 12.8408C10.1197 12.7745 10.1589 12.6836 10.1604 12.5883C10.1619 12.493 10.1254 12.401 10.059 12.3326C9.99268 12.2641 9.90185 12.2249 9.80654 12.2234L8.15099 12.1721L8.37366 11.1529L9.57231 11.1904H9.58372C9.67904 11.1919 9.77103 11.1554 9.83946 11.089C9.90789 11.0227 9.94716 10.9319 9.94863 10.8365C9.95009 10.7412 9.91363 10.6492 9.84727 10.5808C9.78091 10.5124 9.69009 10.4731 9.59478 10.4716L8.52972 10.4384L8.81399 9.13742C8.82424 9.09125 8.82527 9.04351 8.81704 8.99694C8.8088 8.95037 8.79145 8.90588 8.76599 8.86603C8.74052 8.82618 8.70744 8.79174 8.66864 8.7647C8.62984 8.73766 8.58608 8.71854 8.53988 8.70845C8.49368 8.69835 8.44594 8.69747 8.39939 8.70586C8.35285 8.71425 8.30842 8.73175 8.26865 8.75734C8.22888 8.78294 8.19456 8.81613 8.16765 8.85502C8.14073 8.89391 8.12176 8.93773 8.11181 8.98396L7.79902 10.4156L6.75634 10.3831L7.05296 9.02529C7.06321 8.97912 7.06425 8.93139 7.05601 8.88481C7.04777 8.83824 7.03042 8.79376 7.00496 8.7539C6.97949 8.71405 6.94641 8.67962 6.90761 8.65258C6.86881 8.62554 6.82506 8.60642 6.77885 8.59632C6.73265 8.58622 6.68491 8.58534 6.63837 8.59374C6.59182 8.60213 6.54739 8.61962 6.50763 8.64522C6.46786 8.67081 6.43353 8.70401 6.40662 8.7429C6.3797 8.78179 6.36073 8.8256 6.35079 8.87184L6.02551 10.3604L4.23663 10.3045C4.14136 10.3015 4.04881 10.3365 3.97933 10.4018C3.90986 10.467 3.86916 10.5572 3.86618 10.6525C3.8632 10.7477 3.89819 10.8403 3.96345 10.9098C4.02871 10.9792 4.1189 11.0199 4.21417 11.0229H4.21426ZM7.64296 11.1301L7.42024 12.1492L6.37756 12.1166L6.60024 11.0974L7.64296 11.1301ZM12.5826 8.10889H13.6768C13.7594 8.10879 13.8407 8.08768 13.9129 8.04755C13.9851 8.00742 14.0459 7.94958 14.0897 7.87947C14.1245 7.8898 14.1598 7.90007 14.1954 7.91029C14.258 7.92826 14.3436 7.95292 14.3708 7.96455C14.4208 7.98968 14.4761 8.00277 14.5321 8.00278H16.8329C16.9814 8.00315 17.1256 7.95328 17.2422 7.86128C17.3587 7.76927 17.4407 7.64054 17.4748 7.49602L17.9415 5.5416C17.9646 5.44462 17.9655 5.34366 17.9441 5.24629C17.9226 5.14892 17.8794 5.05767 17.8176 4.9794C17.7559 4.90113 17.6772 4.83788 17.5875 4.79438C17.4977 4.75088 17.3993 4.72827 17.2996 4.72825H16.6492C16.6484 4.23712 16.5754 3.42425 16.1315 3.09021C15.9102 2.92364 15.6301 2.89561 15.3431 3.01138C15.2907 3.03276 15.2397 3.05739 15.1903 3.08514C15.1326 3.11716 15.0848 3.16445 15.0522 3.22183C15.0196 3.2792 15.0035 3.34445 15.0055 3.41042L15.0248 4.03879C14.8086 4.4508 14.5588 4.84433 14.2781 5.21538L14.1985 5.2178C14.1849 5.21824 14.1714 5.21944 14.158 5.2214C14.1403 5.10638 14.0821 5.00148 13.9938 4.92564C13.9055 4.84979 13.7931 4.808 13.6767 4.8078H12.5826C12.4533 4.80795 12.3293 4.85937 12.2379 4.95078C12.1465 5.0422 12.0951 5.16615 12.0949 5.29543V7.62148C12.0951 7.75073 12.1466 7.87463 12.238 7.966C12.3294 8.05737 12.4533 8.10876 12.5826 8.10889ZM14.2202 5.9362L14.4676 5.92883C14.5186 5.92732 14.5687 5.91497 14.6145 5.89261C14.6603 5.87025 14.7009 5.83839 14.7335 5.79914C15.1091 5.32791 15.4356 4.81947 15.7077 4.28177C15.7346 4.22827 15.7477 4.1689 15.7459 4.10904L15.7333 3.69891C15.8886 3.89656 15.9664 4.58418 15.9182 5.0507C15.9131 5.10074 15.9185 5.15131 15.9341 5.19914C15.9497 5.24696 15.9752 5.29098 16.0089 5.32833C16.0426 5.36569 16.0837 5.39556 16.1297 5.416C16.1757 5.43644 16.2254 5.447 16.2757 5.447H17.2251L16.7865 7.28403H14.6029C14.5436 7.26265 14.4743 7.24266 14.3944 7.21961C14.333 7.20191 14.2392 7.17469 14.1644 7.149V5.93323C14.1829 5.93567 14.2016 5.93666 14.2202 5.9362ZM12.8137 5.52655H13.4456V7.39014H12.8137V5.52655ZM15.8076 20.3153C15.8629 20.348 15.926 20.3652 15.9902 20.3652C16.0544 20.3652 16.1175 20.348 16.1728 20.3153C16.982 19.838 19.0529 18.2425 18.9203 16.6143C18.8607 15.8811 18.4157 15.285 17.7591 15.0586C17.169 14.8551 16.5169 14.9905 15.9902 15.4097C15.4635 14.9905 14.8113 14.8551 14.2213 15.0586C13.5647 15.285 13.1197 15.8811 13.06 16.6143C12.9275 18.2425 14.9985 19.838 15.8076 20.3153ZM13.7764 16.6725C13.8131 16.2213 14.067 15.872 14.4556 15.7381C14.5611 15.7017 14.6719 15.6831 14.7835 15.6832C15.1135 15.6832 15.4493 15.8434 15.726 16.1433C15.7597 16.1797 15.8005 16.2088 15.846 16.2287C15.8914 16.2486 15.9405 16.2589 15.9901 16.2589C16.0397 16.2589 16.0888 16.2486 16.1343 16.2287C16.1797 16.2088 16.2206 16.1797 16.2542 16.1433C16.6239 15.7427 17.0988 15.5913 17.5247 15.7381C17.9133 15.8721 18.1671 16.2215 18.2039 16.6725C18.2842 17.6592 16.9904 18.9366 15.9901 19.5835C14.9899 18.9366 13.6961 17.6593 13.7764 16.6725Z" fill="white"/>
</svg>
