<svg width="22" height="25" viewBox="0 0 22 25" fill="none" xmlns="http://www.w3.org/2000/svg">
<path d="M19.0524 4.68916L21.9581 1.78345L21.3504 1.17578L18.4447 4.0815L16.7734 2.41019C15.9358 1.57264 14.573 1.57264 13.7354 2.41019L0.670152 15.4755C-0.167395 16.3131 -0.167395 17.6759 0.670152 18.5135L4.62044 22.4637C5.4579 23.3012 6.8207 23.3014 7.65837 22.4637L8.58079 21.5413L13.4598 23.0023C14.5918 23.3409 15.7933 22.6977 16.134 21.5606L19.3711 10.7511L20.7237 9.39845C21.5612 8.56091 21.5612 7.19807 20.7237 6.36052L19.0524 4.68916ZM15.3109 21.314C15.1069 21.9946 14.387 22.3825 13.7063 22.179L9.27116 20.851L18.0905 12.0317L15.3109 21.314ZM20.116 8.79075L7.05067 21.856C6.54823 22.3586 5.73054 22.3586 5.22811 21.856L1.27782 17.9058C0.77534 17.4033 0.77534 16.5857 1.27782 16.0832L14.3432 3.01785C14.8455 2.51546 15.6632 2.51529 16.1657 3.01785L17.837 4.68916L16.7904 5.73584L17.3981 6.34355L18.4447 5.29687L20.116 6.96818C20.6185 7.47066 20.6185 8.28823 20.116 8.79075Z" fill="white"/>
<path d="M5.45119 17.683C5.41402 17.0035 4.85435 16.465 4.16483 16.465C3.82048 16.465 3.4968 16.5991 3.25334 16.8425L2.3418 17.7541L5.38016 20.7924L6.29166 19.8809C7.08413 19.0886 6.55243 17.7432 5.45119 17.683ZM4.46871 18.0579L4.16488 18.3617L3.55721 17.7541L3.86104 17.4502C4.02901 17.2822 4.30074 17.2823 4.46871 17.4502C4.63624 17.6177 4.63624 17.8904 4.46871 18.0579ZM5.68408 19.2732L5.3802 19.5771L4.77254 18.9694L5.07637 18.6656C5.34587 18.396 5.80989 18.5882 5.80989 18.9694C5.80993 19.0842 5.76525 19.1921 5.68408 19.2732Z" fill="white"/>
<path d="M9.1985 16.0484L7.63581 16.0848C8.00509 15.5808 7.96216 14.8671 7.50704 14.4119C7.00452 13.9093 6.18669 13.9093 5.684 14.4119L4.77246 15.3234L6.5955 17.1465L7.81082 18.3618L8.41853 17.7541L7.60939 16.945L9.21848 16.9076L9.1985 16.0484ZM6.89933 15.6272L6.5955 15.931L5.98783 15.3234L6.29166 15.0195C6.45911 14.852 6.73175 14.8519 6.89933 15.0195C7.06691 15.1871 7.06691 15.4597 6.89933 15.6272Z" fill="white"/>
<path d="M7.89453 12.2009L9.85627 16.1244L10.6249 15.7401L10.1558 14.8018L10.9503 14.0072L11.8629 14.4893L12.2642 13.7293L8.40569 11.6914L7.89453 12.2009ZM10.1549 13.5871L9.75061 13.9915L9.33076 13.1518L10.1549 13.5871Z" fill="white"/>
<path d="M13.127 10.3164C13.1279 10.3166 13.1288 10.3169 13.1297 10.3171C13.1287 10.3168 13.1278 10.3166 13.127 10.3164Z" fill="white"/>
<path d="M11.4568 8.63902L13.1368 10.319C13.1373 10.3191 13.137 10.319 13.1357 10.3187C13.1357 10.3187 13.1356 10.3187 13.1355 10.3187C13.1356 10.3187 13.1356 10.3187 13.1357 10.3187C13.1348 10.3185 13.1335 10.3182 13.1317 10.3178C13.132 10.3179 13.1323 10.3179 13.1325 10.318C13.1319 10.3179 13.1314 10.3178 13.1308 10.3176C13.131 10.3177 13.1312 10.3177 13.1315 10.3178C13.1306 10.3176 13.1296 10.3174 13.1285 10.3171C13.1286 10.3172 13.1287 10.3172 13.1289 10.3172C13.127 10.3168 13.1257 10.3165 13.1248 10.3163C13.1254 10.3164 13.1261 10.3166 13.1269 10.3167C13.1261 10.3166 13.1252 10.3164 13.1243 10.3161C13.1242 10.3161 13.1242 10.3161 13.1241 10.3161C13.051 10.2992 12.608 10.197 10.4068 9.68918L9.93457 10.1614L12.9729 13.1998L13.5806 12.5921L11.9052 10.9166L14.6275 11.5451L15.1029 11.0698L12.0646 8.0314L11.4568 8.63902ZM13.1234 10.3159C13.1232 10.3158 13.1232 10.3158 13.1234 10.3159V10.3159Z" fill="white"/>
<path d="M13.1362 10.3206C13.136 10.3206 13.1354 10.3204 13.1348 10.3203L13.1349 10.3204C13.1354 10.3204 13.1358 10.3205 13.1362 10.3206Z" fill="white"/>
<path d="M14.4949 6.49219C13.921 6.49219 13.3815 6.71567 12.9757 7.12147L12.6719 7.4253L15.7102 10.4637L16.0141 10.1598C16.4198 9.75403 16.6433 9.21452 16.6433 8.64067C16.6433 7.45331 15.6825 6.49219 14.4949 6.49219ZM15.6586 9.19668L13.9389 7.47695C14.1103 7.39492 14.2993 7.35161 14.4949 7.35161C15.4364 7.35156 16.0699 8.33722 15.6586 9.19668Z" fill="white"/>
</svg>
