<svg width="113" height="99" viewBox="0 0 113 99" fill="none" xmlns="http://www.w3.org/2000/svg">
<path d="M53.7208 68.1217C51.3044 67.9824 48.8976 67.9128 46.4983 67.6037C42.8769 67.1373 39.334 66.3513 35.8768 65.2003C31.6021 63.777 27.5573 61.8589 23.7337 59.4703C21.5366 58.0966 19.4781 56.5414 17.4546 54.9346C17.0237 54.5927 17.0417 54.4514 17.5012 54.1243C21.058 51.5943 24.7343 49.2468 28.5272 47.086C31.2877 45.514 34.0968 44.0274 36.9674 42.6654C41.4581 40.5352 46.0366 38.6097 50.7147 36.9206C55.4573 35.2082 60.2688 33.7322 65.1481 32.4566C68.9028 31.4754 72.6914 30.6514 76.5001 29.9245C79.4586 29.3601 82.4351 28.8958 85.4274 28.535C87.3747 28.2997 89.323 28.0792 91.2777 27.9136C92.8226 27.7838 94.3674 27.6783 95.9166 27.6002C98.1063 27.4905 100.297 27.3407 102.488 27.4261C104.173 27.4916 105.864 27.5148 107.543 27.7173C107.898 27.7606 107.851 27.9452 107.785 28.189C107.477 29.3379 107.062 30.452 106.646 31.5641C105.861 33.6647 104.932 35.702 103.892 37.6876C102.219 40.8823 100.265 43.8934 98.0089 46.7157C96.4132 48.7129 94.6766 50.573 92.8522 52.3592C90.9664 54.2077 88.9291 55.8757 86.7891 57.4171C84.1399 59.3257 81.3529 61.0138 78.4051 62.4297C73.9356 64.5778 69.2723 66.1424 64.3931 67.0614C62.1917 67.476 59.9776 67.7672 57.7381 67.9054C56.3955 67.9888 55.0528 68.0394 53.7187 68.1196L53.7208 68.1217Z" fill="#0066CC"/>
<path d="M66.3553 28.3367C65.5272 28.4929 64.8548 28.6132 64.1846 28.7472C61.3574 29.3127 58.5832 30.0744 55.8259 30.9132C52.6525 31.8775 49.5468 33.0275 46.474 34.2672C42.5647 35.8456 38.757 37.6508 35.0255 39.6058C30.0086 42.2329 25.1887 45.1912 20.5244 48.3976C18.8641 49.5391 17.2461 50.7419 15.6261 51.9394C15.3434 52.1483 15.1877 52.1493 14.9283 51.9172C13.5369 50.6733 12.2028 49.3671 10.9342 48.0051C9.24641 46.1914 7.6867 44.2681 6.24665 42.2476C4.62235 39.9698 3.1897 37.579 1.91589 35.0965C1.23292 33.7661 0.595482 32.4071 0.0501664 31.0092C-0.0896038 30.6494 0.0935798 30.5365 0.35512 30.4363C2.24096 29.7136 4.1448 29.0415 6.08146 28.4697C9.44018 27.4779 12.8444 26.674 16.2889 26.0399C18.4723 25.6379 20.6663 25.3077 22.8677 25.0154C24.6423 24.7791 26.4212 24.5934 28.2022 24.4352C29.4527 24.3244 30.7128 24.2674 31.9665 24.1851C35.2458 23.9699 38.5283 23.9446 41.8076 24.0142C43.9571 24.0596 46.1066 24.202 48.254 24.3835C51.1743 24.6293 54.0735 25.008 56.9472 25.562C60.0158 26.1538 63.0357 26.9388 65.9412 28.1099C66.0334 28.1468 66.1181 28.2059 66.3553 28.3378V28.3367Z" fill="#0066CC"/>
<path d="M106.948 22.958C106.72 22.958 106.533 22.9632 106.345 22.958C104.239 22.8831 102.136 23.0487 100.031 23.0846C98.1908 23.1162 96.3494 23.2122 94.5081 23.285C92.6497 23.3578 90.7893 23.399 88.9342 23.5045C87.7101 23.5741 86.485 23.4961 85.2663 23.6174C85.063 23.6374 85.0365 23.5826 85.01 23.4211C84.8724 22.5876 85.4325 21.8955 86.2764 21.9282C88.3942 22.0105 90.5108 22.0781 92.6286 22.1487C94.3143 22.2047 95.9989 22.2827 97.6847 22.346C99.7325 22.4241 101.782 22.4811 103.829 22.575C104.75 22.6172 105.691 22.5307 106.605 22.7501C106.713 22.7765 106.854 22.7121 106.947 22.958H106.948Z" fill="#0066CC"/>
<path d="M107.884 17.1415C106.943 17.1995 106.062 17.2185 105.19 17.2343C103.551 17.2639 101.914 17.3493 100.276 17.3884C98.2625 17.4369 96.2485 17.5192 94.2345 17.591C92.3413 17.6585 90.4512 17.7883 88.5558 17.7798C88.1069 17.7777 87.6749 17.9233 87.2206 17.8906C86.4805 17.8368 86.3566 17.6659 86.6499 17.0086C86.7198 16.8514 86.8214 16.7058 86.8722 16.5433C87.0067 16.1075 87.335 16.0516 87.6939 16.1498C88.0031 16.2342 88.3081 16.2268 88.6172 16.2278C90.7201 16.2331 92.8156 16.4103 94.9175 16.4578C96.4634 16.4937 98.0115 16.5939 99.5585 16.6562C101.261 16.7248 102.968 16.7554 104.664 16.883C105.676 16.959 106.701 16.8039 107.698 17.0582C107.741 17.0698 107.782 17.0951 107.883 17.1415H107.884Z" fill="#0066CC"/>
<path d="M107.392 20.0439C106.525 19.9733 105.674 20.1811 104.813 20.16C103.277 20.1231 101.746 20.2539 100.212 20.2898C98.2496 20.3362 96.2875 20.4206 94.3254 20.4892C92.3803 20.5578 90.4373 20.6485 88.4911 20.6991C87.8928 20.715 87.2914 20.7962 86.6889 20.7804C86.1415 20.7656 86.0017 20.5873 86.169 20.0851C86.2717 19.7781 86.439 19.4922 86.5851 19.1999C86.6434 19.0838 86.7461 19.0142 86.8827 19.0448C87.8494 19.26 88.8363 19.0997 89.8157 19.2031C91.1488 19.3434 92.5031 19.2674 93.8447 19.3423C95.5463 19.4373 97.25 19.4858 98.9527 19.5576C100.517 19.623 102.085 19.6641 103.645 19.777C104.894 19.8677 106.159 19.7084 107.391 20.045L107.392 20.0439Z" fill="#0066CC"/>
<path d="M112.621 8.44784C111.686 8.50692 110.77 8.51958 109.864 8.53752C108.226 8.57128 106.588 8.65252 104.95 8.69261C102.936 8.74114 100.921 8.82238 98.9066 8.89518C97.0483 8.96165 95.1911 9.09459 93.3296 9.08298C92.8976 9.07981 92.4836 9.23491 92.0452 9.19271C91.3739 9.12729 91.25 8.95321 91.5073 8.35394C91.5677 8.2115 91.6661 8.08279 91.7085 7.93614C91.8599 7.41388 92.2485 7.34953 92.6837 7.45503C92.959 7.5215 93.228 7.5331 93.5033 7.53205C95.6242 7.52677 97.7377 7.71141 99.8575 7.761C101.456 7.79792 103.056 7.89499 104.655 7.96146C106.306 8.03004 107.959 8.09228 109.609 8.17774C110.418 8.21995 111.227 8.23155 112.034 8.25582C112.24 8.26215 112.444 8.26109 112.621 8.44784Z" fill="#0066CC"/>
<path d="M113 5.49688C112.063 5.47789 111.142 5.68679 110.212 5.66569C108.709 5.63193 107.212 5.75748 105.712 5.79546C103.784 5.844 101.855 5.92313 99.9273 5.99487C97.9821 6.06661 96.037 6.15207 94.0908 6.20483C93.5275 6.2196 92.9589 6.30189 92.3913 6.28501C91.7941 6.26707 91.6607 6.02547 91.8926 5.49372C92.1541 4.8955 92.3776 4.50513 93.2511 4.58426C94.5991 4.7077 95.9703 4.72458 97.332 4.75835C98.9489 4.79844 100.566 4.89339 102.183 4.95775C103.816 5.02316 105.451 5.0928 107.085 5.1656C108.754 5.23945 110.421 5.3439 112.093 5.36395C112.395 5.36711 112.698 5.45046 113 5.49583V5.49688Z" fill="#0066CC"/>
<path d="M109.049 14.2338C107.81 14.1652 106.595 14.3657 105.37 14.3783C103.112 14.4015 100.858 14.5303 98.6003 14.5915C96.7071 14.6432 94.8117 14.7054 92.9206 14.8046C91.4943 14.8795 90.0637 14.832 88.6385 14.9702C87.8062 15.0515 87.6411 14.7307 88.0074 13.988C88.3685 13.2547 88.3674 13.2705 89.2135 13.3222C90.0383 13.3729 90.8674 13.3845 91.6912 13.4035C93.0709 13.4362 94.4485 13.5195 95.8271 13.5565C97.5298 13.6029 99.2335 13.6926 100.937 13.7601C102.485 13.8213 104.037 13.8614 105.578 13.9795C106.739 14.0682 107.917 13.9057 109.051 14.2327L109.049 14.2338Z" fill="#0066CC"/>
<path d="M110.612 11.3418C110.001 11.2901 109.399 11.4885 108.778 11.4663C107.172 11.4093 105.571 11.5539 103.967 11.5929C102.021 11.6415 100.075 11.7195 98.1301 11.7923C96.2019 11.8651 94.2748 11.939 92.3466 12.0055C91.5567 12.0329 90.7646 12.0835 89.9726 12.0835C89.4262 12.0835 89.3002 11.8873 89.4823 11.3745C89.8074 10.4566 89.8455 10.4208 90.8409 10.4324C92.8919 10.4556 94.9376 10.6033 96.9876 10.6581C98.5346 10.7004 100.083 10.7964 101.631 10.8586C103.334 10.9261 105.039 10.9747 106.74 11.0791C108.026 11.1582 109.322 11.0728 110.612 11.3418Z" fill="#0066CC"/>
<path d="M53.8623 24.3697C54.0571 23.9677 54.3579 23.7124 54.6713 23.4877C56.4608 22.2016 58.3424 21.0569 60.3754 20.2044C60.9842 19.949 61.2267 19.6346 61.3654 19.029C61.6566 17.7588 62.3205 17.6005 63.6536 17.9972C64.0041 18.1016 64.1884 18.1164 64.5124 17.8347C65.6687 16.8324 66.9944 16.0591 68.337 15.3258C69.3006 14.8004 70.2387 14.2095 71.3389 13.9848C71.4024 13.9722 71.4702 13.9764 71.6258 13.969C71.4183 14.4005 71.108 14.6833 70.7936 14.8974C68.9617 16.1466 67.1204 17.4232 65.0238 18.166C63.948 18.5469 63.0924 19.2633 62.0632 19.6547C61.4999 19.8689 61.2786 20.369 60.855 20.6813C60.4135 21.0073 59.9667 21.3301 59.5008 21.6192C57.9972 22.5529 56.5021 23.5067 54.847 24.1629C54.5537 24.279 54.2435 24.3898 53.8623 24.3687V24.3697Z" fill="#0066CC"/>
<path d="M86.7036 3.91639C86.8762 3.91639 87.0985 3.84676 87.2139 3.928C87.917 4.4186 88.3056 3.86786 88.7853 3.52074C90.5578 2.23885 92.4352 1.13316 94.4386 0.243745C94.4545 0.23636 94.4693 0.225809 94.4862 0.222644C94.806 0.154066 95.273 -0.146625 95.4021 0.0907624C95.5228 0.312324 95.0464 0.62251 94.7838 0.819805C93.5872 1.71871 92.3028 2.48257 90.9909 3.20212C90.0273 3.7307 89.0892 4.30254 87.9678 4.47873C87.7074 4.51988 87.4818 4.78576 87.2393 4.94718C87.1536 5.00415 87.071 5.07062 86.9778 5.11177C85.1364 5.90411 83.888 7.55105 82.1038 8.44363C80.8607 9.06506 79.7108 9.87323 78.3745 10.3079C78.1956 10.3659 77.9436 10.5653 77.8123 10.3522C77.7032 10.175 77.9764 10.042 78.1045 9.92176C79.066 9.02391 80.2053 8.37611 81.3351 7.72514C82.287 7.17651 83.222 6.58779 84.2586 6.19847C84.3868 6.14994 84.5181 6.10457 84.6515 6.08031C84.9861 6.01806 85.1364 5.86297 85.1269 5.48948C85.1163 5.03791 85.3112 4.62328 85.5716 4.2519C85.8575 3.84465 86.2906 3.9069 86.7025 3.91745L86.7036 3.91639Z" fill="#0066CC"/>
<path d="M89.8532 6.12039C89.6774 5.768 89.4487 5.44304 89.2496 5.10226C88.9426 4.57684 88.6863 4.47872 88.1558 4.7773C87.2727 5.27529 86.4034 5.79754 85.5394 6.32823C85.0375 6.63631 84.9729 6.86737 85.2577 7.39489C85.6071 8.04375 85.9725 8.68839 86.378 9.30349C86.5749 9.60207 86.5008 9.78037 86.3102 10.0199C84.9316 11.7491 83.5625 13.4857 82.1955 15.2245C82.0779 15.3743 81.9721 15.4365 81.7656 15.4165C81.0413 15.3437 80.3065 15.3722 79.6034 15.5315C77.133 16.0917 75.2641 17.477 74.0772 19.7253C73.895 20.0693 73.6674 20.2159 73.2904 20.2729C71.2553 20.5789 69.2201 20.8943 67.1924 21.2467C66.8229 21.3111 66.6598 21.2098 66.4872 20.9239C66.0817 20.2476 65.7524 19.527 65.2738 18.8929C65.0323 18.5732 64.8269 18.4571 64.4161 18.665C63.4303 19.1619 62.5218 19.7855 61.5582 20.3172C61.2638 20.4797 61.1802 20.6907 61.2914 21.0399C61.4608 21.5748 61.7297 22.0485 62.0643 22.4822C62.5122 23.0625 63.0883 23.3273 63.8369 23.0646C64.4997 22.8325 65.1509 22.5339 65.8879 22.6468C66.1759 22.6911 66.4682 22.7523 66.7572 22.7459C68.5891 22.7058 70.4145 22.9084 72.2474 22.8662C73.0659 22.8472 73.7786 23.0793 74.2328 23.897C74.6362 24.6229 75.3277 24.7927 76.107 24.4857C76.3283 24.3982 76.5306 24.2599 76.736 24.1344C77.0515 23.9424 77.3025 23.858 77.6212 24.2104C78.0257 24.6577 78.5604 25.0396 79.1883 24.9827C79.5727 24.9478 79.8946 25.0038 80.2345 25.1209C80.4801 25.2063 80.7311 25.2696 80.9545 25.2359C82.2452 25.238 83.141 24.4119 83.2416 23.1521C83.2543 22.9918 83.2702 22.823 83.3751 22.7164C83.9447 22.1393 83.8113 21.4398 83.6917 20.7719C83.6069 20.2993 83.6292 20.0228 84.1438 19.7981C85.0544 19.3993 85.6813 18.6481 85.0015 17.4306C84.7145 16.9157 84.7484 16.3987 85.0279 15.8596C86.1143 13.7685 87.1859 11.6679 88.2363 9.55881C88.5053 9.01968 88.8473 8.58288 89.3396 8.23155C90.0946 7.69136 90.2662 6.94755 89.8532 6.11933V6.12039ZM80.9672 24.1987C80.3213 24.2019 79.8173 23.6828 79.8173 23.0129C79.8173 22.3007 80.2673 21.8249 80.945 21.8207C81.5644 21.8164 82.1923 22.3746 82.204 22.9411C82.2177 23.5858 81.6173 24.1966 80.9672 24.1998V24.1987Z" fill="#0066CC"/>
<path d="M18.2738 81.8016C18.2738 80.5197 18.2791 79.2378 18.2622 77.9549C18.2611 77.8704 18.0959 77.7871 18.0038 77.7069C17.9879 77.6932 17.9519 77.7048 17.9255 77.7037C17.3085 77.6826 17 77.3665 17 76.7553C17 76.4113 17.0117 76.0663 16.9968 75.7224C16.9862 75.4755 17.089 75.4037 17.3251 75.4048C18.9197 75.4111 20.5154 75.4111 22.1101 75.4048C22.3282 75.4048 22.4214 75.4755 22.4172 75.7013C22.4076 76.2699 22.4076 76.8397 22.4172 77.4083C22.4214 77.6362 22.324 77.7217 22.108 77.7006C22.0953 77.6995 22.0815 77.7006 22.0677 77.7006C21.5016 77.7196 21.2185 78.0087 21.2185 78.5678C21.2185 81.5062 21.2122 84.4455 21.227 87.3839C21.2291 87.7563 21.1434 87.8903 20.7463 87.8787C19.7636 87.8502 18.7789 87.8618 17.7963 87.8745C17.5167 87.8776 17.3431 87.7954 17.18 87.5516C15.8003 85.4816 14.4047 83.4221 13.0123 81.3606C12.9615 81.2846 12.9011 81.215 12.8027 81.0873C12.7847 81.2382 12.7646 81.3321 12.7646 81.4249C12.7624 82.6688 12.7741 83.9138 12.7561 85.1577C12.7518 85.4911 12.8609 85.584 13.187 85.5808C14.1983 85.5734 14.1983 85.5861 14.1983 86.5947C14.1983 86.926 14.1908 87.2562 14.1983 87.5875C14.2035 87.7901 14.1241 87.8703 13.9187 87.8692C12.2701 87.865 10.6225 87.8703 8.97381 87.8555C8.88381 87.8555 8.71968 87.7046 8.71651 87.6181C8.69321 87.0231 8.7091 86.4269 8.70168 85.8319C8.69851 85.6103 8.81922 85.5797 9.0024 85.5702C9.73937 85.5323 9.73831 85.528 9.73831 84.7916C9.73831 82.5813 9.7309 80.3699 9.74572 78.1595C9.74784 77.7977 9.64831 77.6742 9.27876 77.6911C8.70274 77.7164 8.70168 77.6943 8.70168 77.1203C8.70168 76.6571 8.71015 76.194 8.69851 75.7308C8.69321 75.4976 8.76627 75.4006 9.01511 75.4016C10.5441 75.4101 12.0721 75.4016 13.6011 75.4143C13.7292 75.4153 13.9049 75.5103 13.977 75.6169C15.2254 77.4421 16.4621 79.2758 17.701 81.1084C17.8619 81.3469 18.0229 81.5842 18.1849 81.8227C18.2135 81.8142 18.2431 81.8058 18.2717 81.7984L18.2738 81.8016Z" fill="#0066CC"/>
<path d="M48.6049 81.1485C49.0274 81.4112 49.4478 81.6127 49.7898 81.9029C50.1022 82.1688 50.4209 82.4927 50.5808 82.8588C51.0403 83.9128 50.9726 86.026 49.7898 86.9534C49.2413 87.3839 48.606 87.5949 47.941 87.7015C47.3174 87.8006 46.682 87.8597 46.0499 87.865C43.9099 87.884 41.77 87.8639 39.63 87.8808C39.2562 87.884 39.1482 87.7669 39.1683 87.4092C39.1959 86.9207 39.1874 86.4301 39.1704 85.9406C39.1609 85.6684 39.2488 85.5713 39.5305 85.5713C40.2113 85.5713 40.2113 85.5576 40.2113 84.8602C40.2113 82.6361 40.2028 80.4121 40.2198 78.1891C40.223 77.8145 40.1329 77.6732 39.7369 77.6953C39.1768 77.7259 39.1757 77.7006 39.1747 77.1499C39.1747 76.6867 39.1842 76.2235 39.1715 75.7604C39.1651 75.5156 39.2308 75.4048 39.5029 75.4059C41.9616 75.4143 44.4214 75.3848 46.879 75.4248C47.7409 75.4386 48.5901 75.6876 49.2731 76.2457C50.1244 76.942 50.3319 77.8958 50.2271 78.9551C50.1233 80.0091 49.595 80.7392 48.6028 81.1496L48.6049 81.1485ZM43.8729 84.0003C43.8729 84.3432 43.8729 84.6861 43.8729 85.0301C43.8729 85.3937 44.0493 85.5762 44.4023 85.5776C44.6278 85.5776 44.8534 85.5724 45.0778 85.5776C46.4576 85.6167 47.1596 84.4962 46.6365 83.2164C46.466 82.7986 46.1187 82.5053 45.6401 82.4768C45.152 82.4483 44.6596 82.4768 44.1693 82.4673C43.9449 82.4631 43.8654 82.5549 43.8697 82.7722C43.8792 83.1816 43.8729 83.5899 43.8718 83.9993L43.8729 84.0003ZM43.8739 79.0184C43.8739 79.3887 43.8792 79.759 43.8718 80.1293C43.8676 80.3287 43.9427 80.4195 44.1503 80.4131C44.469 80.4047 44.7877 80.4142 45.1064 80.4121C45.7576 80.4068 46.1621 80.0164 46.1918 79.3634C46.1992 79.1914 46.196 79.0194 46.1928 78.8474C46.1854 78.2988 45.8741 77.8789 45.3309 77.7839C44.9317 77.7143 44.5166 77.7133 44.11 77.7185C44.0296 77.7196 43.8919 77.8873 43.8845 77.9876C43.8559 78.3294 43.8739 78.6744 43.8739 79.0184Z" fill="#0066CC"/>
<path d="M25.4552 80.4195C25.4552 79.6514 25.4456 78.8833 25.4604 78.1152C25.4657 77.8219 25.4001 77.689 25.0666 77.6953C24.3592 77.709 24.4238 77.8188 24.4196 77.0349C24.4175 76.5981 24.4291 76.1602 24.4164 75.7245C24.409 75.4797 24.5064 75.4048 24.7436 75.4059C26.4325 75.4122 28.1203 75.4133 29.8092 75.4059C30.0633 75.4048 30.166 75.4797 30.1586 75.7435C30.1438 76.2858 30.1428 76.8291 30.1586 77.3714C30.166 77.6384 30.0591 77.7302 29.8071 77.7048C29.7023 77.6943 29.5943 77.7091 29.4884 77.7038C29.2935 77.6932 29.1961 77.7629 29.1972 77.9749C29.2014 79.5111 29.1612 81.0483 29.2173 82.5823C29.2427 83.2766 29.3084 84.0046 29.8166 84.5827C30.5303 85.3972 32.1525 85.1219 32.4659 84.0942C32.6438 83.5108 32.7624 82.8894 32.7825 82.2817C32.828 80.9059 32.7867 79.528 32.8037 78.1511C32.8079 77.8146 32.7285 77.6774 32.3632 77.6953C31.8422 77.7217 31.8401 77.6964 31.8401 77.19C31.8401 76.7131 31.8496 76.2362 31.8369 75.7604C31.8306 75.5156 31.8941 75.4027 32.1684 75.4048C33.7238 75.4143 35.2793 75.4143 36.8348 75.4048C37.0931 75.4038 37.1874 75.4871 37.18 75.7467C37.1651 76.2889 37.1641 76.8323 37.18 77.3746C37.1884 77.6457 37.0709 77.7048 36.8242 77.7069C36.138 77.7143 36.138 77.7238 36.138 78.4149C36.138 79.9373 36.174 81.4608 36.1275 82.9822C36.0872 84.2725 35.8024 85.5038 34.9701 86.5599C34.3602 87.3343 33.5608 87.7901 32.6226 87.9863C30.5091 88.4295 28.5375 88.1488 26.9005 86.6316C26.1413 85.9279 25.758 84.9752 25.6352 83.9697C25.4922 82.7944 25.4647 81.6054 25.3863 80.4227L25.4583 80.4184L25.4552 80.4195Z" fill="#0066CC"/>
<path d="M58.1939 87.8724C56.5463 87.8724 54.8976 87.8618 53.2501 87.8808C52.8911 87.8851 52.7905 87.7732 52.8074 87.4293C52.8339 86.9007 52.8244 86.3711 52.8106 85.8414C52.8043 85.5882 52.8869 85.4975 53.1505 85.4922C53.932 85.4785 53.932 85.4669 53.932 84.6819C53.932 82.5243 53.9235 80.3678 53.9404 78.2102C53.9436 77.8241 53.8589 77.6289 53.4396 77.7006C53.3496 77.7164 53.2532 77.6943 53.1611 77.7038C52.907 77.7302 52.8043 77.6331 52.8117 77.3683C52.8276 76.8524 52.835 76.3354 52.8096 75.8205C52.7926 75.4818 52.9197 75.3995 53.2426 75.4017C55.515 75.4133 57.7873 75.408 60.0596 75.408C61.109 75.408 62.1593 75.4154 63.2087 75.4038C63.4776 75.4006 63.5846 75.4755 63.5814 75.7604C63.5676 76.8186 63.5687 77.8779 63.5814 78.9361C63.5846 79.2167 63.4861 79.3011 63.2129 79.2959C62.4156 79.2821 61.6183 79.2832 60.8209 79.2959C60.5689 79.299 60.4567 79.2252 60.4705 78.9593C60.4874 78.6428 60.4662 78.3242 60.4758 78.0066C60.4821 77.7882 60.3995 77.6996 60.175 77.7017C59.4179 77.7091 58.6598 77.7112 57.9027 77.7006C57.6486 77.6964 57.5872 77.8093 57.5914 78.0361C57.6009 78.6312 57.6062 79.2273 57.5893 79.8223C57.5808 80.1072 57.6952 80.1832 57.9631 80.1789C58.8398 80.1673 59.7176 80.1863 60.5943 80.1684C60.9131 80.1621 61.0486 80.2391 61.0317 80.583C61.0052 81.1243 61.0147 81.6687 61.0285 82.2099C61.0359 82.4695 60.9416 82.5549 60.6833 82.5518C59.7801 82.5402 58.8758 82.5539 57.9726 82.5444C57.7153 82.5412 57.5829 82.595 57.5893 82.8915C57.6062 83.6458 57.603 84.4002 57.5903 85.1546C57.5861 85.411 57.6729 85.5049 57.9345 85.4996C58.6651 85.4869 59.3968 85.488 60.1274 85.4996C60.3794 85.5038 60.4916 85.4278 60.4789 85.162C60.463 84.8191 60.4842 84.4741 60.4736 84.1301C60.4673 83.9117 60.5478 83.8231 60.7733 83.8252C61.6109 83.8337 62.4474 83.8337 63.2849 83.8252C63.5147 83.8231 63.5814 83.9202 63.5803 84.1343C63.574 85.2727 63.5687 86.4111 63.5835 87.5485C63.5878 87.8703 63.413 87.8724 63.1801 87.8724C61.5187 87.8682 59.8574 87.8703 58.1971 87.8703L58.1939 87.8724Z" fill="#0066CC"/>
<path d="M85.0526 87.8724C83.4177 87.8724 81.7839 87.864 80.149 87.8787C79.8154 87.8819 79.6693 87.8123 79.6905 87.4441C79.7222 86.9028 79.7074 86.3595 79.6958 85.8172C79.6905 85.5766 79.7794 85.5007 80.0187 85.4933C80.815 85.469 80.815 85.4606 80.815 84.6587C80.815 82.5011 80.8065 80.3446 80.8235 78.187C80.8266 77.8093 80.7282 77.6405 80.3375 77.7027C80.2602 77.7154 80.1776 77.6954 80.0992 77.7059C79.7858 77.7481 79.6788 77.6194 79.6926 77.306C79.7148 76.7912 79.7085 76.2742 79.6947 75.7583C79.6884 75.5103 79.7593 75.4048 80.0293 75.4059C83.3912 75.4122 86.7531 75.4122 90.115 75.4059C90.3713 75.4059 90.4644 75.485 90.4613 75.7467C90.4507 76.8186 90.4528 77.8905 90.4602 78.9625C90.4613 79.1893 90.4041 79.3001 90.1489 79.2969C89.3251 79.2853 88.5013 79.2864 87.6775 79.2969C87.4382 79.3001 87.3429 79.2189 87.3524 78.9762C87.3662 78.646 87.3482 78.3147 87.3556 77.9834C87.3609 77.7777 87.2741 77.7027 87.0718 77.7038C86.301 77.7091 85.5301 77.7091 84.7593 77.7038C84.5581 77.7027 84.4713 77.7755 84.4734 77.9823C84.4797 78.6175 84.484 79.2526 84.4713 79.8878C84.466 80.161 84.6195 80.179 84.827 80.1779C85.7303 80.1737 86.6345 80.1842 87.5377 80.1716C87.8088 80.1674 87.9168 80.2465 87.9083 80.5292C87.8903 81.0842 87.8903 81.6413 87.9083 82.1962C87.9179 82.48 87.8088 82.5581 87.5377 82.5539C86.661 82.5412 85.7832 82.5613 84.9065 82.5433C84.5909 82.537 84.4543 82.6109 84.466 82.9569C84.4903 83.6839 84.4797 84.4129 84.4702 85.1409C84.467 85.3804 84.5189 85.507 84.7974 85.5017C85.5418 85.488 86.2862 85.4912 87.0295 85.5007C87.2688 85.5038 87.3641 85.4215 87.3556 85.1789C87.3429 84.8223 87.3598 84.4646 87.3514 84.1069C87.3461 83.9012 87.4318 83.8263 87.6341 83.8284C88.4844 83.8347 89.3346 83.8347 90.186 83.8284C90.402 83.8263 90.456 83.9297 90.4549 84.1206C90.4507 85.2717 90.4464 86.4238 90.4581 87.5749C90.4613 87.8787 90.2844 87.8735 90.0716 87.8735C88.3975 87.8714 86.7224 87.8724 85.0483 87.8724H85.0526Z" fill="#0066CC"/>
<path d="M100.664 76.4556C100.858 76.0252 100.988 75.7393 101.136 75.4111C101.977 75.4111 102.837 75.4132 103.699 75.4101C103.974 75.409 103.938 75.6 103.939 75.7688C103.941 76.8407 103.94 77.9127 103.94 78.9846C103.94 79.3423 103.915 79.701 103.946 80.0555C103.979 80.4216 103.827 80.5018 103.49 80.4923C102.733 80.4701 101.974 80.4606 101.218 80.4954C100.824 80.5144 100.728 80.3319 100.674 80.008C100.632 79.7537 100.548 79.5016 100.453 79.261C99.9784 78.072 98.3499 77.651 97.4181 79.0405C96.75 80.0365 96.5784 81.1707 96.7319 82.3629C96.8272 83.1025 97.0581 83.7798 97.5558 84.3327C98.3923 85.2622 99.6809 85.3814 100.784 84.6207C101.281 84.2789 101.719 83.8516 102.23 83.4253C102.873 84.1259 103.557 84.8697 104.299 85.6758C103.841 86.063 103.42 86.4755 102.943 86.811C101.872 87.5675 100.691 88.0275 99.3558 88.1256C97.7156 88.2469 96.211 87.9283 94.8673 86.9745C93.7184 86.159 93.0344 85.0153 92.7136 83.669C92.5653 83.0476 92.4647 82.3956 92.4743 81.7604C92.505 79.7168 93.1551 77.9063 94.7371 76.5253C95.7832 75.6116 96.984 75.0387 98.424 75.1759C99.1631 75.2465 99.8365 75.5008 100.376 76.0347C100.477 76.1349 100.541 76.2742 100.664 76.4567V76.4556Z" fill="#0066CC"/>
<path d="M71.6565 75.409C73.5307 75.409 75.4049 75.4164 77.2791 75.4016C77.6158 75.3995 77.7058 75.5071 77.7016 75.831C77.6846 77.0887 77.6867 78.3463 77.7016 79.6039C77.7047 79.9078 77.6243 80.0259 77.3003 80.0143C76.6628 79.9911 76.0243 79.9911 75.3869 80.0143C75.0618 80.0259 74.975 79.9067 74.9866 79.6029C75.0067 79.1007 74.9792 78.5963 74.9972 78.0941C75.0067 77.8114 74.9305 77.6996 74.6213 77.6964C73.5476 77.6869 73.5476 77.6753 73.5476 78.7441C73.5476 80.8489 73.555 82.9537 73.5402 85.0586C73.5381 85.4078 73.6366 85.5112 73.9892 85.507C74.9835 85.4932 74.9845 85.508 74.9835 86.4966C74.9835 86.8543 74.975 87.2119 74.9856 87.5685C74.9919 87.7848 74.9157 87.8756 74.688 87.8756C72.655 87.8703 70.6209 87.8703 68.5868 87.8756C68.3602 87.8756 68.2861 87.7869 68.2893 87.5696C68.2978 86.9872 68.2999 86.4048 68.2893 85.8224C68.2851 85.5861 68.3624 85.4827 68.6091 85.4964C68.8738 85.5112 69.1417 85.4816 69.4064 85.5038C69.7209 85.5302 69.8172 85.4131 69.8141 85.0997C69.8003 83.4981 69.8077 81.8966 69.8077 80.295C69.8077 79.5533 69.7982 78.8126 69.812 78.0709C69.8172 77.8019 69.7357 77.7048 69.4519 77.6985C68.2829 77.6763 68.2829 77.6668 68.2829 78.8095C68.2829 79.1007 68.2724 79.3919 68.2851 79.6831C68.2957 79.9162 68.2173 80.0165 67.9685 80.0122C67.277 80.0006 66.5866 80.0006 65.8952 80.0122C65.6485 80.0165 65.5754 79.9194 65.5765 79.6852C65.5839 78.3748 65.5903 77.0644 65.5733 75.754C65.5691 75.4133 65.7459 75.4069 65.9947 75.408C67.8816 75.4122 69.7696 75.4101 71.6565 75.4101V75.409Z" fill="#0066CC"/>
<path d="M45.9113 93.9981C45.9346 94.1742 45.9505 94.303 45.9791 94.5214C46.228 94.0403 46.5763 93.8894 47.0592 93.9042C47.5356 93.92 47.8999 94.0645 48.1763 94.5045C48.3234 94.3473 48.4262 94.1932 48.568 94.092C49.3421 93.5402 50.3978 93.9643 50.4878 94.898C50.5682 95.722 50.5555 96.5566 50.5598 97.3869C50.5598 97.4713 50.4115 97.5947 50.3078 97.6327C50.1913 97.676 50.0452 97.6348 49.9128 97.6454C49.6788 97.6633 49.6174 97.5462 49.6206 97.3352C49.629 96.8456 49.6333 96.3561 49.6184 95.8666C49.61 95.5659 49.611 95.2494 49.5157 94.9708C49.4564 94.7988 49.2425 94.6195 49.0615 94.5657C48.7904 94.4844 48.5236 94.611 48.4187 94.897C48.334 95.127 48.2769 95.3781 48.2673 95.6218C48.2451 96.1894 48.2451 96.7602 48.2641 97.3278C48.279 97.7361 47.9984 97.6369 47.7781 97.6422C47.5484 97.6475 47.29 97.7129 47.3038 97.3151C47.326 96.6547 47.3345 95.9911 47.2953 95.3316C47.2815 95.0964 47.1725 94.7904 46.9977 94.6543C46.5827 94.3304 46.0659 94.6627 46.0299 95.2536C45.9886 95.9235 45.9431 96.5967 45.9569 97.2666C45.9653 97.6981 45.7133 97.6359 45.4465 97.6485C45.1553 97.6612 44.9785 97.6296 44.988 97.2561C45.0134 96.3308 45.0145 95.4034 44.988 94.4781C44.9774 94.0983 45.0823 93.9369 45.473 93.9938C45.6127 94.0139 45.7578 93.997 45.9092 93.997L45.9113 93.9981Z" fill="#0066CC"/>
<path d="M76.3872 93.998C76.4083 94.1848 76.4242 94.3135 76.4496 94.5393C76.6985 94.0255 77.0595 93.8904 77.5445 93.9062C78.0083 93.9221 78.3683 94.0518 78.6108 94.4696C78.6722 94.4422 78.7389 94.4348 78.759 94.4C79.0936 93.8419 79.64 93.8967 80.1684 93.9252C80.4596 93.9411 80.9297 94.3409 80.9466 94.6353C80.9996 95.569 81.0144 96.5059 81.0377 97.4407C81.0388 97.4987 80.9943 97.6053 80.9657 97.6074C80.7158 97.6243 80.4596 97.6506 80.2171 97.6063C80.1536 97.5947 80.108 97.3447 80.1006 97.2012C80.0635 96.5038 80.0413 95.8064 80.017 95.109C80.0053 94.7862 79.8571 94.5815 79.5246 94.5509C79.173 94.5182 78.9295 94.6838 78.8331 95.0151C78.7707 95.2261 78.7431 95.454 78.7368 95.6745C78.723 96.2168 78.722 96.7591 78.7368 97.3014C78.7431 97.5557 78.6606 97.6475 78.3969 97.6496C77.7828 97.6549 77.7828 97.6675 77.7828 97.063C77.7828 96.4679 77.7891 95.8718 77.7796 95.2768C77.7743 94.9391 77.6663 94.6479 77.2893 94.5572C76.8848 94.4601 76.5344 94.7492 76.5047 95.2282C76.4623 95.9119 76.42 96.5966 76.4295 97.2814C76.4348 97.6865 76.2019 97.6464 75.9456 97.6464C75.6904 97.6464 75.4511 97.6897 75.4628 97.2824C75.4892 96.3434 75.4914 95.4034 75.4617 94.4654C75.449 94.0656 75.5909 93.9442 75.9615 93.9959C76.0896 94.0139 76.223 93.9991 76.3893 93.9991L76.3872 93.998Z" fill="#0066CC"/>
<path d="M82.7773 94.018C82.7921 94.1879 82.8027 94.305 82.8239 94.5435C83.1214 94.0085 83.5333 93.9009 84.0331 93.9051C84.5403 93.9104 84.9628 94.0244 85.2889 94.4263C86.009 95.3147 85.7993 96.8065 84.9903 97.4121C84.3571 97.8869 83.3533 97.8257 82.7995 97.1737C82.7995 97.7044 82.7741 98.1591 82.807 98.6096C82.8387 99.0359 82.5782 98.9895 82.3061 98.9968C82.0234 99.0042 81.836 98.9916 81.8423 98.6107C81.8635 97.236 81.8677 95.8602 81.8402 94.4854C81.8317 94.0697 81.9673 93.9357 82.3569 93.9927C82.4851 94.0117 82.6174 94.0075 82.7773 94.0149V94.018ZM84.7203 95.8422C84.7203 95.7504 84.7256 95.6576 84.7203 95.5658C84.6833 95.0003 84.2851 94.554 83.8161 94.5477C83.2602 94.5403 82.9478 94.8389 82.8843 95.4846C82.8557 95.7768 82.8514 96.0817 82.8991 96.3698C82.9976 96.9659 83.6308 97.2486 84.1708 96.9732C84.642 96.7316 84.7224 96.3086 84.7224 95.8433L84.7203 95.8422Z" fill="#0066CC"/>
<path d="M61.1761 96.0553C61.2079 96.9416 61.8114 97.3309 62.4626 96.9353C62.5071 96.9078 62.5738 96.8846 62.5886 96.8435C62.7972 96.2801 63.2568 96.4847 63.6528 96.4763C63.5924 97.1536 63.0365 97.6485 62.2752 97.7202C61.2237 97.8194 60.4741 97.3594 60.2528 96.4805C59.969 95.358 60.4423 94.2923 61.3741 94.0012C61.9565 93.8186 62.5833 93.7933 63.1085 94.2153C63.6231 94.6289 63.818 95.1902 63.7195 95.8348C63.7057 95.9224 63.5088 96.0406 63.3944 96.0437C62.6659 96.0627 61.9364 96.0532 61.1771 96.0532L61.1761 96.0553ZM62.7633 95.4065C62.6606 94.7334 62.4414 94.5139 61.9522 94.5487C61.499 94.5804 61.2258 94.9022 61.2396 95.4065H62.7633Z" fill="#0066CC"/>
<path d="M43.1311 95.3516C43.2009 95.0404 43.22 94.7228 42.8441 94.5666C42.518 94.4316 42.213 94.5983 42.0235 94.9771C41.9038 95.2166 41.7175 95.2482 41.1235 95.13C41.0123 94.6627 41.3257 94.3947 41.6296 94.1488C42.1241 93.7479 43.3735 93.8313 43.8056 94.2976C43.9485 94.4516 44.0862 94.6743 44.0989 94.8737C44.1539 95.742 44.1624 96.6135 44.1846 97.4828C44.1846 97.5187 44.1624 97.5556 44.1423 97.6179H43.2782C43.2581 97.4691 43.2412 97.3404 43.2158 97.1494C42.8653 97.8795 42.2416 97.7719 41.6772 97.6833C41.205 97.6094 40.9382 97.179 40.9318 96.6947C40.9244 96.1566 41.1743 95.7662 41.7281 95.6059C42.1664 95.4793 42.6302 95.4392 43.1321 95.3527L43.1311 95.3516ZM43.094 95.9562C42.8208 95.9952 42.5074 95.9699 42.2755 96.0944C42.0944 96.1914 41.9345 96.471 41.9208 96.6789C41.9134 96.8044 42.1855 97.0207 42.3655 97.0692C42.8706 97.2064 43.2465 96.6609 43.094 95.9551V95.9562Z" fill="#0066CC"/>
<path d="M74.5791 97.6211H73.7564C73.7331 97.4755 73.7119 97.3373 73.7013 97.2719C73.4811 97.4091 73.2598 97.6211 73.0003 97.6897C72.7303 97.7615 72.4116 97.7467 72.1363 97.6781C71.6545 97.5589 71.4057 97.177 71.4014 96.679C71.3962 96.1472 71.6535 95.759 72.2104 95.6007C72.6488 95.4762 73.1115 95.4351 73.5975 95.3517C73.6748 95.0616 73.6981 94.7503 73.3392 94.5741C73.0236 94.4191 72.7007 94.6005 72.4847 94.9846C72.2718 95.3623 71.9192 95.1112 71.6376 95.1713C71.4978 94.6364 71.8462 94.1046 72.508 93.978C73.1359 93.8578 73.8146 93.7396 74.3154 94.3304C74.4372 94.4739 74.5632 94.6691 74.5675 94.8442C74.5929 95.7516 74.5791 96.661 74.5791 97.6201V97.6211ZM73.5944 95.9594C73.3159 95.9943 73.0575 96.0069 72.8097 96.0639C72.5005 96.1356 72.293 96.4965 72.3841 96.7549C72.4825 97.0377 72.869 97.1738 73.1803 97.0345C73.5764 96.8573 73.6727 96.6368 73.5944 95.9594Z" fill="#0066CC"/>
<path d="M36.5352 95.8054C36.6082 96.987 35.7527 97.7467 34.6461 97.7351C33.3872 97.7224 32.7571 96.9332 32.7349 95.8339C32.7148 94.8527 33.2802 93.8535 34.7499 93.8947C35.6563 93.92 36.6696 94.667 36.5362 95.8054H36.5352ZM33.7461 95.7938C33.7461 95.8739 33.7366 95.9942 33.7472 96.1124C33.8128 96.8277 34.4217 97.2751 34.9966 97.0071C35.5568 96.7465 35.5907 96.2168 35.5811 95.6925C35.5716 95.1649 35.2846 94.6965 34.914 94.5752C34.8526 94.5551 34.7838 94.5551 34.7181 94.5477C34.1877 94.4908 33.691 94.9814 33.7451 95.7938H33.7461Z" fill="#0066CC"/>
<path d="M53.0873 93.9179C54.1123 93.7881 55.0451 94.6775 54.9763 95.8381C54.9054 97.0313 54.2722 97.7108 53.0799 97.7277C51.7658 97.7477 51.1612 96.8667 51.1602 95.8011C51.1602 94.7619 51.7912 93.8124 53.0873 93.9179ZM52.1724 95.8043C52.1724 95.8834 52.1629 96.0037 52.1745 96.1208C52.2349 96.7401 52.7485 97.1928 53.2482 97.0735C53.7088 96.9628 53.9841 96.5608 54.0117 95.9605C54.0434 95.2567 53.7787 94.7123 53.334 94.572C53.2726 94.553 53.2038 94.5541 53.1381 94.5477C52.614 94.4939 52.1163 94.9866 52.1735 95.8043H52.1724Z" fill="#0066CC"/>
<path d="M88.0163 93.9178C89.0656 93.7859 89.9816 94.6933 89.9148 95.8285C89.845 97.0281 89.2139 97.7086 88.028 97.7287C86.7181 97.7508 86.1072 96.8878 86.0987 95.8116C86.0913 94.7829 86.7192 93.8155 88.0163 93.9189V93.9178ZM87.111 95.7979C87.111 95.8781 87.1014 95.9973 87.112 96.1155C87.1798 96.8308 87.7908 97.2771 88.3647 97.0059C88.9216 96.7432 88.9587 96.2147 88.947 95.6882C88.9354 95.1607 88.6463 94.6922 88.2768 94.574C88.2154 94.554 88.1465 94.5551 88.0809 94.5477C87.5536 94.4917 87.0559 94.9834 87.111 95.7979Z" fill="#0066CC"/>
<path d="M25.2613 93.998C25.2804 94.1974 25.2931 94.3282 25.31 94.4939C25.3693 94.4569 25.4181 94.4432 25.4424 94.4105C25.9401 93.7395 27.0381 93.6804 27.5591 94.3293C27.7126 94.5202 27.8164 94.8019 27.828 95.0467C27.8619 95.799 27.8238 96.5544 27.8471 97.3066C27.8609 97.736 27.5771 97.6347 27.342 97.6442C27.0964 97.6548 26.8666 97.6822 26.8846 97.2982C26.9121 96.7042 26.892 96.1091 26.8909 95.5141C26.8909 94.8209 26.7141 94.5603 26.2366 94.5487C25.7431 94.5361 25.4 94.919 25.3693 95.5236C25.3397 96.1144 25.2878 96.7063 25.2973 97.2971C25.3037 97.6791 25.0856 97.6569 24.8389 97.6442C24.6048 97.6326 24.3232 97.7371 24.3327 97.3077C24.3539 96.356 24.356 95.4033 24.3306 94.4527C24.3211 94.0824 24.4418 93.9484 24.8018 93.9959C24.9426 94.0138 25.0877 93.999 25.2624 93.999L25.2613 93.998Z" fill="#0066CC"/>
<path d="M29.5702 93.9981C29.5892 94.2017 29.6009 94.3315 29.6168 94.4992C29.6782 94.4581 29.7269 94.4412 29.7512 94.4074C30.2362 93.7512 31.3184 93.6794 31.8404 94.304C32.0045 94.5013 32.121 94.7946 32.1337 95.05C32.1718 95.8011 32.1316 96.5566 32.1538 97.3099C32.1665 97.7414 31.8774 97.6306 31.6455 97.6443C31.3956 97.658 31.1733 97.6739 31.1913 97.294C31.2188 96.7001 31.1987 96.105 31.1987 95.51C31.1987 94.8189 31.0197 94.5583 30.5411 94.5477C30.0488 94.5361 29.7078 94.9202 29.6771 95.5268C29.6475 96.1177 29.5956 96.7095 29.6051 97.3004C29.6115 97.7235 29.3425 97.6391 29.1032 97.6443C28.8639 97.6496 28.6299 97.6939 28.6394 97.3046C28.6627 96.3529 28.6648 95.4002 28.6373 94.4496C28.6267 94.073 28.7591 93.9527 29.1127 93.9959C29.2536 94.0139 29.3986 93.9991 29.5702 93.9991V93.9981Z" fill="#0066CC"/>
<path d="M58.3796 95.0225C58.1371 95.0225 57.9242 95.0425 57.7188 95.014C57.614 95.0003 57.5145 94.9075 57.4234 94.8368C57.3112 94.7492 57.2233 94.6258 57.1015 94.5572C56.8675 94.4264 56.6473 94.5055 56.5266 94.7218C56.3974 94.9549 56.4831 95.1681 56.7362 95.2683C57.0412 95.3896 57.3599 95.473 57.6648 95.5943C58.081 95.761 58.459 95.971 58.4717 96.5038C58.4865 97.1315 58.279 97.5061 57.6532 97.6179C57.1672 97.7044 56.6356 97.6664 56.1464 97.5704C55.6858 97.4797 55.4465 97.0935 55.3809 96.624C55.9008 96.4426 56.1348 96.5069 56.4683 96.8688C56.5604 96.969 56.7044 97.0587 56.8357 97.0777C57.0941 97.1157 57.4054 97.1463 57.5028 96.8203C57.5992 96.4995 57.3609 96.3392 57.0941 96.2442C56.8093 96.1429 56.5075 96.0839 56.2322 95.9646C55.6096 95.6935 55.5037 95.5036 55.5259 94.8843C55.545 94.3609 55.8806 94.075 56.3222 93.9769C56.8728 93.8545 57.4509 93.807 57.9571 94.1784C58.226 94.3757 58.3743 94.6332 58.3796 95.0214V95.0225Z" fill="#0066CC"/>
<path d="M70.8848 96.3994C70.8615 97.1126 70.277 97.6581 69.5199 97.7214C68.4378 97.8121 67.7294 97.3743 67.5102 96.4743C67.2286 95.3232 67.6839 94.2977 68.6369 94.0034C69.6428 93.6921 70.7821 93.9833 70.9208 95.261C70.7345 95.261 70.5534 95.2546 70.3713 95.2631C70.1532 95.2726 70.0017 95.2335 69.9297 94.9793C69.8461 94.6839 69.6099 94.5478 69.2933 94.5457C68.964 94.5435 68.7226 94.6891 68.5977 94.9782C68.3563 95.5342 68.3467 96.1103 68.5977 96.661C68.838 97.1886 69.5655 97.2804 69.8058 96.7771C70.0727 96.2179 70.4676 96.4131 70.8848 96.4004V96.3994Z" fill="#0066CC"/>
<path d="M40.6742 94.0645C40.2338 95.1913 39.7996 96.3149 39.3464 97.4312C39.3072 97.5272 39.1495 97.5915 39.0341 97.6369C38.9536 97.6686 38.8477 97.6285 38.7577 97.6464C38.3161 97.7361 38.1298 97.5008 37.9911 97.1231C37.648 96.1862 37.2742 95.2609 36.9163 94.3293C36.8803 94.2354 36.8666 94.1331 36.8369 94.0128H37.8386C38.133 94.9286 38.4263 95.8359 38.7185 96.7443C38.7492 96.7496 38.7799 96.7549 38.8096 96.7591C38.9822 96.2221 39.1569 95.6861 39.3284 95.1491C39.3803 94.9866 39.4237 94.822 39.4777 94.6606C39.7244 93.921 39.8356 93.863 40.6732 94.0645H40.6742Z" fill="#0066CC"/>
<path d="M65.7786 97.0482C65.8305 97.3752 65.8728 97.6485 65.4969 97.7097C65.1613 97.7645 64.5577 97.6612 64.4688 97.3109C64.4306 97.1589 64.3862 97.0039 64.3851 96.8498C64.3787 95.5542 64.3978 94.2575 64.3713 92.963C64.3629 92.5515 64.5768 92.5684 64.8627 92.5621C65.1676 92.5547 65.3497 92.5832 65.3402 92.9767C65.3137 94.1394 65.337 95.3031 65.3264 96.4668C65.3233 96.795 65.373 97.0471 65.7786 97.0482Z" fill="#0066CC"/>
<path d="M23.5323 95.3074C23.5323 95.9805 23.5175 96.6536 23.5376 97.3257C23.5492 97.7308 23.275 97.638 23.0547 97.6411C22.8292 97.6443 22.573 97.7192 22.5772 97.3193C22.5931 95.9478 22.5931 94.5751 22.5772 93.2025C22.573 92.7974 22.8398 92.8902 23.06 92.8871C23.2856 92.8839 23.5492 92.809 23.5365 93.2088C23.5154 93.9073 23.5302 94.6068 23.5302 95.3063L23.5323 95.3074Z" fill="#0066CC"/>
</svg>
