<svg width="186" height="65" viewBox="0 0 186 65" fill="none" xmlns="http://www.w3.org/2000/svg">
<g clip-path="url(#clip0_1_3310)">
<path d="M3.40273 32.5106C8.68341 32.4824 13.9659 32.5969 19.243 32.4559C27.6362 32.2338 33.115 28.0933 35.9516 20.2142V21.5256C35.9516 24.8218 35.9764 28.118 35.9339 31.4142C35.9233 32.2215 36.0966 32.5423 36.9862 32.5176C39.241 32.4542 41.5011 32.4559 43.7577 32.5176C44.6136 32.5405 44.8347 32.2902 44.8241 31.4477C44.7763 27.8712 44.7816 24.293 44.8117 20.7148C44.8453 16.7947 47.1567 14.616 51.0898 14.7394C51.4117 14.75 51.7371 14.7711 52.0519 14.831C52.6266 14.9403 52.8424 14.7447 52.8353 14.1436C52.8106 12.0143 52.8052 9.88325 52.8371 7.75219C52.8459 7.10353 52.616 6.90964 51.9917 6.96252C49.4098 7.17756 46.9869 7.78039 45.0522 9.65234C44.8754 9.82332 44.7622 10.1723 44.3643 9.99783C44.3643 9.48137 44.313 8.95433 44.3749 8.43963C44.4792 7.57945 44.1362 7.3503 43.2979 7.37322C41.204 7.43139 39.1048 7.43139 37.0109 7.37322C36.1497 7.34854 35.8968 7.63057 35.9375 8.46431C35.9994 9.73166 35.9534 11.0061 35.9534 12.2769C33.2052 4.63404 27.9828 0.615165 19.8744 0.160397C14.3974 -0.148069 8.91154 0.0987042 3.43102 0.0211469C2.79083 0.0123336 2.49726 0.167448 2.49903 0.89014C2.51848 11.14 2.51848 21.3899 2.49903 31.6416C2.49903 32.3466 2.73778 32.5141 3.40273 32.5106ZM11.7181 16.2112C11.7181 13.6377 11.7464 11.066 11.7022 8.49427C11.6881 7.70107 11.8366 7.32739 12.7421 7.38027C15.1507 7.51952 17.5806 7.16699 19.9769 7.63409C23.9507 8.40614 26.4708 11.2863 26.7325 15.3211C27.1128 21.1784 24.0444 24.7284 18.1607 25.1356C16.3551 25.2607 14.5335 25.1479 12.7226 25.2079C11.925 25.2343 11.6881 24.9646 11.7004 24.1714C11.7464 21.5186 11.7181 18.8658 11.7181 16.213V16.2112Z" fill="#0066CC"/>
<path d="M169.849 34.2116C170.818 34.2151 171.193 34.0265 171.136 32.9795C171.044 31.2556 171.037 29.5194 171.136 27.7973C171.205 26.5898 170.911 26.1985 169.597 26.202C143.719 26.2461 117.843 26.2355 91.9646 26.2355C82.0487 26.2355 72.1329 26.2285 62.217 26.2461C61.3646 26.2461 60.8075 26.1756 60.4025 25.1973C59.7641 23.662 58.4006 22.8636 56.7365 22.5833C53.8857 22.1039 51.9633 23.5457 50.3293 25.5992C47.9913 28.5376 49.3707 32.8755 52.9696 33.9683C54.471 34.4249 56.0043 34.1605 57.5111 34.164C76.1332 34.2063 94.7553 34.1922 113.377 34.1922C122.648 34.1922 131.92 34.1922 141.19 34.1922C150.744 34.1922 160.297 34.1781 169.849 34.2134V34.2116Z" fill="#0066CC"/>
<path d="M56.0536 53.8176C55.9227 50.5549 54.3877 48.6953 51.5652 48.0396C50.428 47.7752 49.2662 47.7153 48.0866 47.8263C46.4684 47.9779 44.9687 48.505 43.2816 49.2541C43.745 47.8404 42.9474 47.8898 42.1091 47.9145C41.0622 47.9462 40.0135 47.9286 38.9665 47.918C38.6641 47.9145 38.3369 47.9956 38.1884 47.5531C37.8541 46.5555 38.3086 44.0437 39.0443 43.4479C40.2434 42.4784 41.6033 42.556 42.9138 43.1359C43.5504 43.4179 43.8069 43.3527 44.0721 42.7287C44.3197 42.1435 44.4364 41.7628 43.7184 41.382C40.0506 39.4396 36.0379 41.6905 35.9106 45.7975C35.8469 47.8739 35.8469 47.9092 33.8645 47.9057C33.1358 47.9057 32.8936 48.089 32.8936 48.8452C32.8936 49.619 33.0969 49.9715 33.9069 49.8552C34.1828 49.8164 34.4763 49.8887 34.7505 49.8428C35.7461 49.6771 35.9336 50.1425 35.9247 51.0485C35.8823 55.3071 35.9336 59.5657 35.8841 63.8243C35.8734 64.7567 36.2643 64.8572 37.0247 64.836C37.764 64.8167 38.2857 64.866 38.2662 63.8031C38.1955 59.9482 38.2379 56.0897 38.2379 52.233C38.2379 49.8499 38.2379 49.8939 40.6183 49.8305C41.6917 49.8023 42.5601 49.8781 42.9438 51.082C43.1561 51.75 43.5557 51.5932 44.0438 51.2565C45.731 50.0931 47.6321 49.7001 49.6641 49.8217C52.3062 49.9821 53.7351 51.5227 53.797 54.1807C53.8165 55.018 53.5919 55.2806 52.7306 55.2701C50.6792 55.2454 48.6224 55.1379 46.5745 55.4005C45.4392 55.5468 44.3604 55.8394 43.462 56.585C41.9623 57.8295 41.5856 59.474 42.026 61.2667C42.5477 63.3871 44.1623 64.4236 46.189 64.7973C49.0592 65.3261 51.6978 64.8748 53.912 62.356C53.912 63.0963 53.9526 63.5669 53.9031 64.0288C53.8076 64.9524 54.4301 64.8361 54.989 64.8167C55.5142 64.799 56.1332 65.0229 56.1208 64.064C56.0748 60.6497 56.1898 57.2302 56.0518 53.8212L56.0536 53.8176ZM52.1983 61.9277C50.2211 63.3995 48.053 63.544 45.8265 62.6362C44.6009 62.1357 43.9961 60.9846 44.1234 59.7331C44.256 58.4305 44.9953 57.6285 46.2438 57.2689C47.5773 56.8847 48.9496 57.0133 50.0124 56.9658C51.2309 56.9658 52.1541 56.9693 53.0772 56.964C53.4804 56.9605 53.7386 57.0363 53.7864 57.5386C53.9509 59.2625 53.6838 60.8225 52.1983 61.9277Z" fill="#0066CC"/>
<path d="M13.308 56.7807C14.1463 56.4951 14.8908 55.9945 15.5275 55.3617C17.6903 53.2113 18.0794 50.5902 17.3596 47.7858C16.6257 44.9267 14.5442 43.3086 11.7712 42.7128C8.07687 41.9196 4.30293 42.4643 0.566129 42.3427C-0.0722927 42.3215 0.0196683 42.7957 0.0196683 43.1835C0.0161313 50.1336 0.0338161 57.0838 0.00198347 64.0358C-0.00332197 65.0987 0.688154 64.7902 1.22224 64.8078C1.78992 64.8272 2.45487 65.0229 2.41596 63.9988C2.35406 62.3137 2.45133 60.6215 2.37882 58.9382C2.33638 57.9652 2.59104 57.5985 3.63444 57.6355C5.60453 57.7078 7.58169 57.6655 9.55532 57.6003C10.1389 57.5809 10.4289 57.8189 10.7243 58.2401C11.8543 59.853 13.117 61.3847 14.118 63.0716C14.9952 64.5505 16.0686 65.1974 17.9149 64.6809C16.2632 62.3665 14.6698 60.1086 13.0445 57.8735C12.6625 57.3482 12.5317 57.0451 13.3098 56.7807H13.308ZM10.6323 55.4305C8.12108 55.894 5.578 55.5521 3.05261 55.6596C2.36114 55.6896 2.40181 55.2542 2.40358 54.7994C2.40712 53.1954 2.40358 51.5914 2.40358 49.9873C2.40358 48.3833 2.41242 46.7793 2.40004 45.1753C2.39651 44.6747 2.46901 44.3239 3.10744 44.3468C5.55501 44.435 8.0132 44.1706 10.4519 44.5513C13.4654 45.0202 15.2392 46.9926 15.2764 49.9168C15.3153 52.8728 13.6476 54.8752 10.6323 55.4322V55.4305Z" fill="#0066CC"/>
<path d="M121.765 42.0095C121.769 41.1811 121.571 40.8797 120.703 40.9255C119.947 40.9643 119.447 40.929 119.475 41.9761C119.555 44.8986 119.504 47.8246 119.504 50.9956C115.703 46.3598 109.828 47.4544 107.184 49.9662C103.884 53.102 103.662 58.9311 106.765 62.3225C108.313 64.0146 110.276 64.866 112.53 64.9735C115.335 65.1075 117.694 64.1239 119.56 61.5857C119.56 62.5375 119.619 63.1774 119.546 63.8014C119.442 64.7038 119.856 64.8449 120.648 64.8413C121.422 64.8378 121.774 64.7285 121.769 63.8155C121.73 56.5462 121.734 49.277 121.765 42.0078V42.0095ZM113.169 62.9183C109.444 62.9077 106.921 60.2249 106.939 56.2959C106.954 52.404 109.526 49.7864 113.305 49.8129C116.945 49.8393 119.516 52.5556 119.512 56.37C119.509 60.2284 116.893 62.9288 113.169 62.9165V62.9183Z" fill="#0066CC"/>
<path d="M96.3012 43.284C95.9281 42.4573 95.4293 42.3181 94.6318 42.3092C93.8165 42.3004 93.339 42.4926 92.9782 43.3051C91.139 47.4474 89.2308 51.5579 87.3439 55.6791C85.9786 58.6615 84.608 61.6421 83.1826 64.7462C84.7813 64.8602 85.8742 64.265 86.4614 62.9606C86.9725 61.8272 87.5154 60.7062 87.9876 59.5569C88.2175 58.9981 88.5164 58.7708 89.1459 58.7761C92.812 58.806 96.4763 58.8007 100.142 58.7796C100.707 58.7761 101.007 58.9453 101.226 59.4811C101.745 60.7414 102.335 61.9735 102.894 63.2162C103.713 65.0388 103.886 65.1199 106.017 64.6299C105.892 64.3302 105.78 64.0376 105.649 63.7521C102.526 56.9323 99.3854 50.1214 96.3012 43.284ZM89.2556 56.7878C91.0329 52.8235 92.7625 48.9633 94.6247 44.8087C96.4745 48.9298 98.2129 52.8024 100.003 56.7878H89.2574H89.2556Z" fill="#0066CC"/>
<path d="M63.4693 48.0749C60.0862 48.995 57.9286 51.7112 57.5113 55.575C57.1346 59.058 58.8977 62.3859 61.9696 63.9864C65.1246 65.631 69.5953 65.2133 72.0977 63.0364C72.584 62.6133 73.058 62.3013 72.3789 61.524C71.7316 60.7819 71.4257 60.967 70.7855 61.487C66.9832 64.5822 60.9845 62.6909 59.9111 58.1185C59.7289 57.3412 59.8227 57.0415 60.7122 57.0662C62.723 57.1226 64.7373 57.0838 66.7498 57.0838C68.8437 57.0838 70.9376 57.0574 73.0297 57.0979C73.753 57.112 74.0076 56.9058 74.0112 56.1549C74.0395 50.5355 68.9144 46.5942 63.4675 48.0766L63.4693 48.0749ZM70.5573 55.404C68.9109 55.3177 67.2574 55.3811 65.6074 55.3811C63.998 55.3811 62.3852 55.337 60.7776 55.3987C59.8297 55.4358 59.7254 55.1132 59.9464 54.2777C60.6768 51.4962 62.8326 49.7847 65.7365 49.7723C68.5961 49.7617 70.8297 51.431 71.5724 54.0767C71.8412 55.0356 71.6909 55.4622 70.5573 55.4023V55.404Z" fill="#0066CC"/>
<path d="M32.4803 54.3835C32.4485 50.2782 30.6093 48.2071 26.5223 47.8246C23.974 47.5867 21.5777 48.1648 19.3883 49.5626C18.4669 50.1513 19.1566 50.6061 19.3883 51.1437C19.7101 51.8946 20.078 51.5103 20.4794 51.2389C22.1418 50.1108 23.9969 49.7142 25.9829 49.8147C28.6516 49.9504 30.0823 51.4046 30.2468 54.0733C30.298 54.9211 30.1283 55.2913 29.1574 55.2719C27.067 55.2313 24.9714 55.152 22.8828 55.4094C20.1434 55.746 18.4192 57.3782 18.2741 59.816C18.1362 62.1463 19.6836 64.1486 22.2355 64.7109C25.2172 65.3684 27.9884 65.0088 30.1636 62.5182C30.4112 62.95 30.3369 63.3643 30.2857 63.7291C30.153 64.6739 30.5598 64.8537 31.4281 64.8484C32.2593 64.8431 32.5228 64.6404 32.5069 63.7802C32.4538 60.6498 32.5033 57.5157 32.4786 54.3835H32.4803ZM30.0805 59.9641C28.9752 62.9906 24.1084 64.2861 21.5865 62.2485C19.8905 60.8771 20.3256 58.1291 22.3806 57.3641C23.8059 56.8336 25.3145 57.0116 26.5276 56.9623C27.235 56.9623 27.6825 56.9182 28.1175 56.9728C28.8054 57.0592 29.8064 56.5692 30.1141 57.2637C30.4625 58.0498 30.4042 59.0827 30.0823 59.9641H30.0805Z" fill="#0066CC"/>
<path d="M131.835 47.7647C126.862 47.8247 123.203 51.5192 123.252 56.4353C123.302 61.3531 127.046 65.0335 131.96 64.9965C136.898 64.9595 140.561 61.2456 140.531 56.3101C140.499 51.3606 136.78 47.7066 131.835 47.7647ZM131.874 62.9183C128.151 62.9095 125.574 60.2003 125.59 56.3119C125.606 52.4534 128.232 49.7847 131.98 49.8147C135.718 49.8447 138.186 52.5045 138.166 56.4793C138.147 60.3096 135.588 62.9289 131.872 62.9183H131.874Z" fill="#0066CC"/>
<path d="M177.366 47.7647C172.395 47.7859 168.716 51.4487 168.722 56.3736C168.727 61.2844 172.45 64.9965 177.368 64.9965C182.305 64.9965 185.998 61.3055 186 56.3718C186 51.4187 182.314 47.7453 177.366 47.7647ZM177.324 62.9183C173.606 62.9025 171.037 60.1845 171.06 56.2925C171.083 52.4411 173.718 49.7777 177.469 49.8147C181.2 49.8517 183.658 52.5151 183.635 56.4987C183.614 60.3184 181.041 62.9342 177.322 62.9183H177.324Z" fill="#0066CC"/>
<path d="M167.389 54.179C167.29 51.0062 165.533 48.7359 162.691 48.0679C159.455 47.3064 156.548 47.9233 154.029 50.8194C154.029 50.0103 153.987 49.5344 154.038 49.0691C154.136 48.2142 153.893 47.8634 152.935 47.8845C152.054 47.9039 151.766 48.0996 151.775 49.025C151.822 53.9234 151.824 58.8236 151.775 63.7221C151.766 64.6616 152.072 64.8396 152.94 64.8467C153.867 64.8555 154.169 64.6281 154.144 63.6569C154.075 60.9283 154.084 58.1961 154.134 55.4658C154.197 52.0726 156.496 49.8764 159.917 49.8534C163.326 49.8305 164.994 51.4962 165.105 55.2084C165.192 58.138 165.174 61.071 165.135 64.0006C165.121 65.0247 165.772 64.8061 166.336 64.8079C166.862 64.8079 167.459 65.0124 167.445 64.0535C167.394 60.7608 167.491 57.4664 167.389 54.1755V54.179Z" fill="#0066CC"/>
<path d="M77.803 41.9214C77.8083 40.9572 77.3626 40.9431 76.6376 40.929C75.8789 40.9149 75.488 40.9996 75.5022 41.9338C75.5588 45.586 75.5252 49.2382 75.5252 52.8922C75.5252 56.5445 75.5623 60.1985 75.5004 63.849C75.4845 64.8167 75.9213 64.8343 76.6499 64.8343C77.3874 64.8343 77.8101 64.7902 77.8048 63.8366C77.7641 56.5321 77.7641 49.2259 77.8048 41.9214H77.803Z" fill="#0066CC"/>
<path d="M150.526 48.4521C150.668 47.8087 150.224 47.7717 149.709 47.814C147.465 47.9973 145.596 48.8293 144.211 51.1578C144.211 50.1654 144.156 49.5573 144.223 48.9632C144.323 48.1031 143.995 47.8633 143.154 47.8951C142.414 47.9233 142.004 47.9497 142.013 48.9015C142.064 53.8846 142.066 58.8677 142.013 63.8507C142.002 64.8255 142.446 64.8272 143.168 64.8343C143.918 64.8413 144.344 64.7761 144.317 63.8278C144.248 61.4182 144.28 59.0051 144.3 56.5938C144.331 52.307 145.725 50.6589 149.93 49.9627C151.039 49.7794 150.413 48.9703 150.526 48.4503V48.4521Z" fill="#0066CC"/>
<path d="M64.6803 15.2594C66.8272 15.3863 68.5515 13.881 68.6859 11.7817C68.716 11.311 68.6452 11.0114 68.0634 11.0308C67.0978 11.0607 66.1304 11.0502 65.1631 11.0361C64.7493 11.0308 64.6042 11.207 64.5989 11.6089C64.5936 12.0408 64.6944 12.3105 65.1967 12.2787C65.4779 12.2611 65.7626 12.2558 66.042 12.2858C66.2949 12.314 66.661 12.1289 66.7653 12.5044C66.8484 12.8058 66.5832 13.0173 66.3851 13.2112C65.6759 13.9039 64.2629 13.9233 63.5007 13.2588C62.6094 12.4832 62.4803 11.0431 63.216 10.086C63.8827 9.21699 65.2763 8.93497 66.1269 9.67705C66.8255 10.2852 67.5187 10.3645 68.4578 10.2058C67.8901 8.58772 66.7176 7.93906 65.2232 7.7769C63.0427 7.54246 61.2989 9.03368 61.108 11.2458C60.9223 13.4051 62.4591 15.1307 64.6821 15.2612L64.6803 15.2594Z" fill="#0066CC"/>
<path d="M78.4 14.2917C78.3912 14.8681 78.4885 15.1607 79.1764 15.1554C79.8608 15.1519 80.073 14.9404 80.0695 14.2617C80.0659 13.2235 79.9138 12.1659 80.2163 10.9761C81.196 12.3228 82.0891 13.5073 82.9326 14.7253C83.3217 15.2876 83.8558 15.1748 84.3404 15.0937C84.8479 15.0091 84.6463 14.5103 84.6498 14.1895C84.6693 12.3845 84.6339 10.5795 84.6728 8.77633C84.687 8.0977 84.473 7.88442 83.7851 7.88089C83.106 7.87737 82.9822 8.15058 83.0016 8.73755C83.037 9.80572 83.0122 10.8757 83.0122 12.3087C81.9016 10.7911 80.9926 9.61712 80.1667 8.38854C79.7901 7.82801 79.3037 7.86503 78.7979 7.92496C78.156 8.00075 78.4301 8.54542 78.4248 8.88209C78.3965 10.6871 78.4283 12.492 78.4018 14.2952L78.4 14.2917Z" fill="#0066CC"/>
<path d="M142.414 15.2329C144.372 15.4409 145.93 14.4132 146.453 12.5713C146.857 11.1506 146.779 11.0413 145.368 11.0377C144.643 11.0377 143.917 11.0483 143.194 11.0342C142.784 11.0272 142.519 11.0871 142.51 11.6071C142.499 12.1535 142.722 12.3245 143.222 12.2804C143.422 12.2628 143.629 12.254 143.826 12.2839C144.117 12.3298 144.545 12.0971 144.666 12.5078C144.784 12.9115 144.411 13.1565 144.128 13.368C143.307 13.9796 141.937 13.8316 141.256 13.0824C140.518 12.2698 140.508 10.7998 141.235 9.97486C141.916 9.19929 143.276 8.97366 144.075 9.68754C144.772 10.3115 145.472 10.3521 146.36 10.204C145.576 8.2545 143.875 7.42076 141.815 7.8861C140.055 8.28446 138.996 9.78625 139.084 11.7551C139.171 13.6976 140.441 15.0231 142.416 15.2329H142.414Z" fill="#0066CC"/>
<path d="M131.711 15.2753C133.968 15.2841 135.556 13.7347 135.56 11.5244C135.561 9.31045 133.984 7.75578 131.729 7.75049C129.501 7.74697 127.853 9.34042 127.844 11.5067C127.835 13.6748 129.471 15.2665 131.71 15.2753H131.711ZM131.719 9.34394C133.038 9.34394 133.878 10.2076 133.864 11.5473C133.85 12.8728 132.981 13.7153 131.653 13.6889C130.422 13.6642 129.545 12.7794 129.527 11.5437C129.508 10.2676 130.429 9.34394 131.717 9.34394H131.719Z" fill="#0066CC"/>
<path d="M99.599 15.0003C101.357 15.6701 103.371 15.0849 104.293 13.6007C104.505 13.2588 104.989 12.7511 104.597 12.4673C104.194 12.1765 103.514 12.2012 103.028 12.5978C102.846 12.7458 102.743 12.9873 102.568 13.146C101.737 13.9074 100.386 13.8863 99.6185 13.1107C98.7944 12.2787 98.7873 10.7822 99.6026 9.93968C100.363 9.15354 101.806 9.0372 102.522 9.89033C103.159 10.65 103.819 10.6694 104.636 10.4967C104.181 8.72697 102.703 7.64998 100.908 7.75398C98.9924 7.86503 97.6431 9.06188 97.3548 10.9056C97.0754 12.6894 98.0092 14.3904 99.6026 14.9968L99.599 15.0003Z" fill="#0066CC"/>
<path d="M157.734 14.2088C157.895 13.6959 160.628 13.7259 160.783 14.2423C161.144 15.448 161.973 15.1254 162.902 15.0655C161.998 12.7952 161.112 10.6148 160.27 8.41673C160.079 7.91789 159.754 7.87911 159.335 7.90203C158.912 7.92494 158.465 7.79098 158.24 8.37618C157.382 10.5989 156.489 12.8075 155.593 15.0602C156.557 15.1713 157.372 15.3722 157.736 14.2071L157.734 14.2088ZM158.765 11.1964C158.91 10.8827 158.91 10.4826 159.331 10.2182C159.452 10.5055 159.598 10.7664 159.669 11.0466C159.791 11.5225 160.359 12.0725 159.993 12.4356C159.639 12.7864 158.946 12.6242 158.334 12.4462C158.481 12.009 158.587 11.586 158.765 11.1964Z" fill="#0066CC"/>
<path d="M88.8911 11.2581C88.8911 12.4197 88.9106 13.3857 88.8841 14.3498C88.8681 14.8892 89.0096 15.1624 89.6197 15.143C90.7869 15.1078 91.9577 15.1131 93.1249 15.143C93.6536 15.1554 93.8376 14.9562 93.8234 14.4397C93.8093 13.9515 93.666 13.6853 93.1231 13.7153C92.6014 13.7435 92.0762 13.7223 91.5509 13.7188C91.0398 13.717 90.5252 13.8457 90.5093 12.9873C90.4934 12.0707 91.0381 12.173 91.6057 12.1782C91.8073 12.18 92.0143 12.2082 92.2088 12.173C92.6774 12.0848 93.3937 12.5131 93.4273 11.5084C93.4591 10.5037 92.7606 10.8527 92.2742 10.7998C91.9948 10.7699 91.7101 10.7822 91.4289 10.7963C90.9019 10.8245 90.5093 10.8034 90.5128 10.0666C90.5164 9.37032 90.8382 9.26985 91.4006 9.29805C91.9241 9.32449 92.4493 9.28924 92.9728 9.3051C93.9667 9.33507 93.6466 8.63176 93.6165 8.1294C93.6024 7.89144 93.3212 7.90202 93.1284 7.90907C91.7667 7.95666 90.1432 7.41552 89.1228 8.12059C88.3517 8.65468 89.0043 10.3081 88.8894 11.2581H88.8911Z" fill="#0066CC"/>
<path d="M119.976 14.8839C120.65 15.6525 122.243 15.0479 123.433 15.1325C123.553 15.1413 123.675 15.1237 123.796 15.1342C124.316 15.1836 124.607 15.0602 124.611 14.4292C124.613 13.7876 124.378 13.5637 123.764 13.6078C123.324 13.6395 122.874 13.576 122.438 13.6201C121.654 13.7012 121.368 13.4156 121.408 12.6066C121.472 11.3657 121.396 10.1177 121.437 8.87502C121.458 8.19816 121.339 7.86677 120.531 7.86854C119.702 7.87206 119.757 8.32154 119.764 8.86444C119.776 9.74754 119.767 10.6306 119.767 11.5137C119.797 11.5137 119.827 11.5137 119.857 11.5137C119.857 12.67 119.401 14.2229 119.976 14.8787V14.8839Z" fill="#0066CC"/>
<path d="M72.4301 14.334C72.4178 14.9756 72.6547 15.1519 73.2702 15.1519C73.8732 15.1519 74.1438 15.0108 74.1102 14.3516C74.0607 13.3927 74.0978 12.4285 74.0978 11.4661C74.0978 10.5443 74.0625 9.62061 74.1102 8.7005C74.142 8.06418 73.9174 7.87029 73.2879 7.88263C72.6954 7.8932 72.4178 8.01835 72.4301 8.68288C72.4655 10.5654 72.4637 12.4515 72.4301 14.334Z" fill="#0066CC"/>
<path d="M150.419 14.2194C150.411 14.8398 150.511 15.1554 151.259 15.1571C152.075 15.1571 152.045 14.7094 152.036 14.1595C152.022 13.2781 152.032 12.3986 152.032 11.5172C152.032 10.6359 152.023 9.75456 152.036 8.87499C152.045 8.3268 152.077 7.87556 151.261 7.87732C150.515 7.87732 150.411 8.19284 150.421 8.81506C150.45 10.6165 150.45 12.4179 150.421 14.2194H150.419Z" fill="#0066CC"/>
<path d="M152.479 5.80799C151.242 5.40434 150.936 6.12527 150.758 7.10532C152.033 7.42965 152.197 6.58357 152.479 5.80799Z" fill="#0066CC"/>
<path d="M112.044 15.2717C114.285 15.2823 115.901 13.7382 115.921 11.5702C115.94 9.3774 114.387 7.80157 112.157 7.74869C109.899 7.69581 108.199 9.3157 108.201 11.519C108.201 13.6836 109.819 15.2612 112.046 15.2735L112.044 15.2717ZM112.083 9.34214C113.385 9.34743 114.249 10.2411 114.228 11.5613C114.209 12.8657 113.307 13.7259 111.993 13.6906C110.771 13.6571 109.89 12.7582 109.881 11.5314C109.872 10.2587 110.799 9.33509 112.081 9.34214H112.083Z" fill="#0066CC"/>
</g>
<defs>
<clipPath id="clip0_1_3310">
<rect width="186" height="65" fill="white"/>
</clipPath>
</defs>
</svg>
