<svg width="138" height="104" viewBox="0 0 138 104" fill="none" xmlns="http://www.w3.org/2000/svg">
<g clip-path="url(#clip0_1_3336)">
<path d="M90.4844 102.307V102.306V102.307Z" fill="#0066CC" stroke="#0066CC" stroke-miterlimit="10"/>
<path d="M94.9336 95.694V95.6952V95.694Z" fill="#0066CC" stroke="#0066CC" stroke-miterlimit="10"/>
<path d="M42.9662 34.9075C42.2964 35.3393 42.0634 36.2141 42.041 36.9985C41.9704 39.5191 41.332 41.9047 40.6229 44.3059C40.316 45.3436 39.8332 45.6315 38.8856 45.8067C33.7565 46.7574 28.6667 47.8832 23.7168 49.5971C26.2001 49.1631 28.6846 48.729 31.1679 48.295C33.1012 47.9513 35.0178 47.4994 36.9903 47.4068C39.0603 46.9203 41.1785 46.7797 43.2799 46.5052C50.8766 45.5144 58.5125 45.1026 66.163 44.9319C71.73 44.8081 77.287 45.1015 82.844 45.4619C91.0803 45.9964 99.2561 46.9939 107.383 48.4155C109.362 48.7614 111.345 49.0872 113.325 49.4219C113.206 49.1452 113.046 49.0704 112.878 49.0225C106.518 47.187 100.029 45.9696 93.5065 44.8717C91.18 44.48 88.6944 44.9208 86.7319 42.6244C84.4738 39.9833 82.5214 37.4125 82.3993 33.8107C82.3758 33.1289 82.5527 32.9046 83.2338 32.9716C84.9308 33.1389 86.0072 32.1872 86.8944 30.8995C87.8543 29.5059 89.1212 29.4043 90.4687 30.6306C89.5793 31.3046 88.7583 32.0778 87.8028 32.6167C86.0117 33.6288 85.5155 35.0291 86.4586 36.9639C86.9896 36.6024 87.488 36.0032 88.0526 35.9318C89.3239 35.7711 89.9635 34.9209 90.667 34.0706C91.5832 32.9626 92.5409 31.9484 93.9131 31.3258C95.1004 30.7868 95.3155 29.5985 94.6165 28.38C94.0072 27.3167 93.1525 26.4162 92.1198 25.8159C90.4709 24.8574 89.7149 23.6267 89.5256 21.6584C89.259 18.8789 90.8047 17.1304 93.5547 17.7263C94.3701 17.9026 95.0523 17.9204 95.7804 17.425C96.5981 16.8682 97.4437 17.0992 98.2603 17.5835C99.8845 18.5453 101.53 18.2351 102.651 16.7957C103.616 15.5572 103.51 15.1209 101.782 13.3624C100.844 12.4083 100.492 11.1542 100.535 9.94352C100.572 8.93037 101.888 9.33318 102.535 8.88574C103.023 8.54765 103.636 8.38251 104.114 8.03326C105.31 7.16181 105.863 5.97013 105.723 4.2172C105.472 4.5843 105.344 4.76059 105.226 4.94247C103.802 7.17297 102.525 7.49209 99.954 6.836C98.2346 6.39748 97.3631 4.26852 95.1956 4.84763C95.9282 3.98845 96.672 3.37699 97.3183 2.67515C98.2077 1.70886 98.1875 1.0907 97.3049 -0.00390625C96.7381 2.14402 95.1609 2.84921 93.1805 3.13821C92.3035 3.26653 91.2573 3.07349 90.5785 3.88915C90.0935 4.47272 89.492 4.4861 88.8199 4.43255C86.3209 4.23505 83.8207 4.08107 81.3184 4.41135C78.1462 4.82866 75.133 5.60638 72.8009 7.99867C70.4229 10.4367 67.5072 11.9799 64.326 13.1102C58.6996 15.1097 52.8738 15.1365 47.0233 14.8821C45.8562 14.8319 44.698 14.8408 43.5543 15.0015C40.2163 15.4724 38.964 17.8468 40.4381 20.816C41.5762 23.1078 41.4933 23.8744 39.7806 25.7646C39.0671 26.5523 38.5137 27.3747 38.703 28.4827C38.7848 28.958 38.8498 29.6744 39.4132 29.6576C39.9486 29.6409 40.3642 29.0819 40.3418 28.4548C40.2947 27.0779 40.8761 25.9587 41.6915 24.9165C42.6403 23.7014 42.7355 22.4104 42.0444 21.0369C41.7755 20.5024 41.5033 19.9568 41.3342 19.3866C41.0676 18.4861 41.3868 17.7486 42.1687 17.2297C43.7548 16.1753 47.5151 16.375 49.1404 17.6236C46.899 19.0597 45.9402 21.2121 45.51 23.736C45.0609 26.3693 45.873 29.2024 44.2566 31.6527C44.1905 31.7531 44.2264 31.9249 44.2264 32.0633C44.2297 33.1958 44.0662 34.1945 42.9629 34.9053L42.9662 34.9075ZM63.7155 32.7841C65.9199 33.1512 68.0247 32.5487 70.1014 31.8714C70.7589 31.6571 71.4086 31.4172 72.0751 31.2331C74.4643 30.5737 76.6217 31.4875 77.5603 33.7537C78.3433 35.6428 79.4298 37.2239 81.0943 38.4167C81.5603 38.7503 81.8639 39.2156 81.9266 39.7981C82.0834 41.2475 82.4385 42.601 83.7703 43.5851C78.7376 43.247 73.79 43.2214 68.8513 42.9915C68.5522 42.9781 68.0728 43.1968 68.2778 42.4615C68.438 41.8835 67.7357 41.8277 67.3795 41.599C64.5523 39.7758 62.5988 37.4326 62.5831 33.8687C62.5797 33.0363 62.6749 32.6112 63.7166 32.7852L63.7155 32.7841ZM50.5047 35.2032C53.4921 34.0684 55.5879 31.8904 56.7629 28.8877C56.8782 28.592 57.0149 28.303 57.1504 28.0152C57.1639 27.9873 57.2356 27.9873 57.2893 27.9705C57.5761 28.8219 57.0015 29.5762 57.0205 30.403C57.0956 33.7259 58.377 36.4897 60.8995 38.6477C62.1025 39.6776 63.2171 40.7599 64.1244 42.0665C64.7584 42.9793 64.5276 43.2147 63.4915 43.2125C59.1275 43.2035 54.7892 43.622 50.4565 44.0895C48.5702 44.2926 46.6873 44.5492 44.8156 44.8549C44.0023 44.9877 43.6809 44.7333 43.4479 43.9645C43.0693 42.7137 43.2261 41.6459 43.9811 40.5669C45.6613 38.1657 47.6764 36.2777 50.5047 35.2021V35.2032Z" fill="#0066CC" stroke="#0066CC" stroke-miterlimit="10"/>
<path d="M54.7944 81.4917C54.5715 80.1505 55.1137 78.8606 55.8059 77.8296C56.3167 77.0697 57.5421 77.6187 58.4405 77.5083C58.5771 77.4915 58.7183 77.506 58.8583 77.506C61.2699 77.5049 62.0596 78.2335 62.3296 80.618C62.3968 81.2161 62.0484 81.7439 62.0663 82.3051H68.0725C67.6827 81.5542 66.8392 81.2685 66.8056 80.4306C66.6835 80.2409 66.5278 80.0646 66.4427 79.8593C64.702 75.6471 62.8919 71.4617 61.2778 67.2015C60.6886 65.6461 59.8944 65.0358 58.2523 65.2478C57.4413 65.3526 56.7972 65.2377 57.0649 66.4082C57.2296 67.1268 56.9395 67.861 56.6718 68.5572C55.2996 72.1223 53.9521 75.6962 52.5587 79.2534C51.3254 82.4 50.9143 82.4357 48.7177 79.8336C47.1966 78.0316 46.1694 75.868 44.5083 74.1753C43.9684 73.6241 44.5733 73.4969 44.8331 73.257C46.958 71.2932 47.2156 69.2613 45.6307 66.8824C44.9317 66.3468 44.1969 65.8871 43.3198 65.6863C40.4456 65.0268 37.55 65.3683 34.9805 65.298C35.5809 71.0957 35.5954 76.7105 34.9894 82.3018H40.1342C38.8315 80.1628 39.4845 77.9445 39.3367 75.8122C39.3109 75.4362 39.1115 74.904 39.5708 74.6908C40.0894 74.4498 40.5856 74.7489 40.9351 75.1305C41.3383 75.5701 41.6923 76.0633 42.0115 76.5676C42.8527 77.8932 43.6357 79.2556 44.496 80.5689C45.2823 81.7684 46.408 82.41 47.8832 82.4033C49.923 82.3933 51.965 82.3855 54.0036 82.4256C54.7418 82.4401 54.9188 82.2493 54.7933 81.4928L54.7944 81.4917ZM58.5054 70.4831C59.0969 71.9973 59.5864 73.2358 60.0624 74.48C60.2551 74.9843 59.9907 75.1349 59.5259 75.1294C58.6567 75.1204 57.7863 75.1271 56.8017 75.1271C57.2139 73.5538 57.7706 72.1758 58.5054 70.4831ZM42.4629 71.0567C42.2053 72.5005 41.0079 73.7603 39.9303 73.796C39.3781 73.8149 39.3255 73.5092 39.3232 73.1109C39.3199 72.2829 39.3232 71.4539 39.3232 70.626C39.3232 70.1194 39.321 69.6139 39.3232 69.1073C39.3311 67.5508 39.5192 67.4214 40.9642 67.9703C42.0955 68.3999 42.7116 69.6675 42.4641 71.0567H42.4629Z" fill="#0066CC" stroke="#0066CC" stroke-miterlimit="10"/>
<path d="M31.9598 79.2518C30.4275 75.5004 28.7596 71.7993 27.3796 67.9933C26.6907 66.0941 25.8932 64.8154 23.6496 65.1903C23.1388 65.293 22.6471 65.3521 22.8688 66.1287C23.0346 66.7112 22.8845 67.336 22.6706 67.8962C21.0766 72.0704 19.5073 76.2547 17.8305 80.3955C17.0789 82.2533 16.6219 82.299 15.2094 80.8753C12.9131 78.56 11.3584 75.6901 9.43961 73.0914C9.23127 72.8091 9.12373 72.5346 9.38584 72.2199C11.2609 69.9705 12.6544 67.3238 15.0391 65.4459C14.4589 65.1323 13.8507 65.3164 13.2705 65.2885C11.9084 65.2227 10.8655 65.1491 10.0758 66.9221C9.12597 69.0522 7.2968 70.7939 5.84847 72.7042C5.45307 73.1862 5.08567 73.6727 5.55948 74.3098C5.7051 74.6591 5.42394 75.0318 5.63565 75.3866C6.66393 77.1083 7.4917 78.9505 8.92211 80.4267C9.24023 80.7548 9.58635 80.8206 9.93135 80.988C10.6269 81.9821 11.7023 82.2198 12.7978 82.4195C15.4782 82.318 18.1665 82.6025 20.8425 82.2734C20.036 80.622 20.9915 79.2261 21.5695 77.8112C21.7946 77.2589 26.9103 77.3225 27.1321 77.8704C27.6227 79.0844 28.4258 80.256 27.9957 81.6853C27.9083 81.9743 27.6608 82.3738 28.2253 82.3827C30.0825 82.4117 31.9397 82.3939 34.1542 82.3939C32.8963 81.3606 32.4 80.3307 31.9598 79.2529V79.2518ZM25.0509 75.1367C24.2724 75.1065 23.4916 75.13 22.5082 75.13C23.0884 73.5578 23.6149 72.1295 24.2757 70.3364C24.8683 71.893 25.2749 73.059 25.7554 74.1938C26.0903 74.9871 25.7834 75.1645 25.0509 75.1367Z" fill="#0066CC" stroke="#0066CC" stroke-miterlimit="10"/>
<path d="M20.8424 82.2734C20.7774 82.3348 20.7091 82.3861 20.6396 82.4296C20.7091 82.3895 20.7774 82.3393 20.8424 82.2734Z" fill="#0066CC" stroke="#0066CC" stroke-miterlimit="10"/>
<path d="M87.7388 82.4023C88.664 82.4514 89.6116 82.332 90.5145 82.486C92.6864 82.8553 94.8169 82.7192 96.9138 82.1312C98.3834 81.7195 99.7432 81.1046 100.763 79.8572C102.346 77.919 102.807 75.7008 102.755 73.2728C102.669 69.1276 100.087 66.0937 96.0121 65.3807C93.3753 64.9198 90.7385 65.3639 88.1039 65.2814C87.2 65.2535 86.0115 65.0392 87.0633 66.5958C87.2045 66.8044 87.2056 67.1325 87.209 67.4059C87.2571 71.28 87.3725 75.154 87.1653 79.027C87.3277 80.1294 87.2941 81.1883 86.4854 82.0754C86.7911 82.6021 87.3098 82.3789 87.7399 82.4023H87.7388ZM92.3436 67.6212C96.1902 67.5096 98.1907 69.3463 98.2747 73.2148C98.2971 74.2692 98.3341 75.3225 98.0317 76.3658C97.2128 79.1899 95.0364 80.5646 92.1196 80.1395C91.3299 80.0245 91.2963 79.5849 91.2997 78.9913C91.3109 77.2417 91.3042 75.491 91.3053 73.7403C91.3075 72.0822 91.3411 70.423 91.293 68.766C91.2694 67.9716 91.4464 67.6469 92.3448 67.6212H92.3436Z" fill="#0066CC" stroke="#0066CC" stroke-miterlimit="10"/>
<path d="M66.5358 88.569C64.2384 86.4188 61.3764 86.0127 58.3868 86.2392C54.1505 86.5583 50.8203 89.9693 50.4552 94.3377C50.1494 97.9898 52.3135 102.538 56.8545 103.562C58.3062 103.889 59.7579 104.022 61.2364 103.997C61.4885 103.824 61.7618 103.733 62.0709 103.781C65.6083 102.963 68.0569 100.896 68.8914 97.3448C69.6587 94.0766 69.1233 90.9914 66.5369 88.5701L66.5358 88.569ZM59.3344 101.505C57.7136 101.17 56.626 100.125 55.9416 98.6961C54.9211 96.5693 54.5481 94.3344 55.0869 91.9934C55.4924 90.2327 56.4826 88.993 58.2804 88.5657C60.0468 88.1461 61.5624 88.6973 62.7766 90.0251C64.3683 91.7658 64.6775 93.9472 64.8421 95.786C64.841 99.9525 62.5582 102.172 59.3344 101.505Z" fill="#0066CC" stroke="#0066CC" stroke-miterlimit="10"/>
<path d="M84.6712 65.929C84.8919 65.5541 84.828 65.3064 84.3565 65.2975C83.5231 65.2818 82.6886 65.2841 81.8541 65.2952C81.3915 65.3019 81.4217 65.4983 81.5203 65.9123C82.2092 68.8078 81.6525 71.7368 81.8541 74.6959C81.2279 74.6067 81.0241 74.2117 80.7463 73.9349C78.2551 71.4545 75.6844 69.0444 73.3299 66.4412C71.9488 64.9147 70.4512 65.3153 68.6836 65.3655C69.4654 66.4267 69.6133 67.3985 69.6055 68.4463C69.5752 72.278 69.5987 76.1096 69.5887 79.9424C69.5875 80.4847 69.7152 81.0594 69.3243 81.5425C69.1014 81.9643 68.7922 82.4173 69.6671 82.414C70.6304 82.4106 71.5926 82.414 72.4786 82.414C71.7371 78.7642 72.2557 75.227 72.0809 71.4344C75.6698 74.986 78.9978 78.2643 82.3033 81.5637C82.8913 82.1506 83.4682 82.6204 84.3598 82.3615C84.3654 77.6059 84.3677 72.8515 84.3789 68.0959C84.3811 67.3639 84.2724 66.6108 84.6723 65.9301L84.6712 65.929Z" fill="#0066CC" stroke="#0066CC" stroke-miterlimit="10"/>
<path d="M106.478 82.383C106.994 82.4132 106.865 82.0271 106.782 81.7024C106.474 80.4873 107.15 79.4741 107.498 78.4007C108.042 76.7292 109.465 77.8138 110.449 77.5103C110.575 77.4713 110.724 77.5047 110.863 77.5047C113.473 77.5047 113.703 77.7368 114.257 80.3177C114.414 81.0508 114.095 81.6533 114.029 82.3473H120.04C118.726 80.7696 117.874 79.0881 117.433 77.2046C116.057 73.9442 114.673 70.6883 113.308 67.4234C112.373 65.1873 112.385 65.2163 109.923 65.2621C109.117 65.2766 108.911 65.4428 109.096 66.2708C109.278 67.092 108.906 67.8999 108.608 68.6776C107.195 72.3731 105.799 76.0754 104.355 79.7587C104.007 80.6468 103.636 81.5674 102.742 82.1052C103.944 82.749 105.232 82.3094 106.478 82.383ZM109.588 72.7447C109.843 72.0629 110.099 71.3812 110.487 70.3491C111.096 71.9603 111.548 73.2011 112.038 74.4262C112.224 74.8904 112.169 75.1258 111.627 75.1225C111.581 75.1225 111.534 75.1214 111.489 75.1258C108.661 75.4226 108.613 75.3613 109.59 72.7447H109.588Z" fill="#0066CC" stroke="#0066CC" stroke-miterlimit="10"/>
<path d="M46.1812 86.9973C43.2946 86.1013 40.3341 86.6648 37.1484 86.4885C37.76 87.5006 38.0994 88.3218 38.0927 89.2747C38.0636 93.1566 38.0815 97.0396 38.0826 100.923C38.0826 101.62 38.0613 102.31 37.5707 102.879C37.4878 103.152 37.4038 103.425 37.3209 103.698C39.1176 103.698 40.9143 103.698 42.8096 103.698C42.5273 102.797 41.9672 102.135 42.0221 101.27C42.2047 98.3841 41.6077 95.454 42.534 92.6076C42.7356 91.9883 42.3671 91.7998 41.8911 92.1021C41.1876 92.5474 40.557 93.1064 39.8838 93.6252C39.615 92.8631 40.2568 92.3867 40.3554 91.6625C39.9689 91.7562 39.6441 91.8366 39.2196 91.9403C39.5321 90.588 40.6231 90.3191 41.6334 89.9955C41.3534 89.3416 40.6354 89.4633 40.1717 88.9623C41.1473 88.6119 42.0356 88.4523 42.8197 89.0805C43.3293 89.4889 43.7762 89.6329 44.436 89.5447C45.4979 89.4041 45.6065 89.5771 45.5393 90.5333C45.5315 90.6438 45.7477 90.7777 45.872 90.8881C46.4097 91.3691 46.7782 91.9359 46.7894 92.679C46.7916 92.7906 46.7155 92.9022 46.6583 93.0651C46.3279 92.8285 46.0456 92.6277 45.6379 92.3365C45.7152 93.1075 46.2092 93.7647 45.6256 94.4286C45.0039 93.6498 44.7194 92.6567 43.7057 92.1858C43.2632 93.5114 43.4245 94.7834 43.6149 96.0554C43.6642 96.3857 43.7393 96.6535 44.2131 96.6256C46.7423 96.475 49.098 95.3447 49.5651 92.8921C50.1363 89.894 49.0509 87.8877 46.1834 86.9962L46.1812 86.9973Z" fill="#0066CC" stroke="#0066CC" stroke-miterlimit="10"/>
<path d="M127.257 82.3199C129.082 82.3199 130.906 82.3199 132.727 82.3199C130.61 75.3997 133.846 70.2591 138 65.2893C136.872 65.2893 135.725 65.2971 134.579 65.286C134.062 65.2804 133.956 65.5214 133.822 66.0124C133.271 68.0153 132.035 69.6845 130.977 71.8235C130.105 69.535 128.405 68.0275 128.286 65.7769C128.272 65.5058 128.171 65.3206 127.899 65.3195C125.952 65.3105 124.006 65.315 122.06 65.315C123.274 66.2489 123.983 67.3725 124.643 68.5475C125.499 70.075 126.394 71.5814 127.254 73.1078C128.734 75.7366 128.173 78.5072 127.798 81.2632C127.618 81.6158 127.436 81.9673 127.256 82.3188L127.257 82.3199Z" fill="#0066CC" stroke="#0066CC" stroke-miterlimit="10"/>
<path d="M94.9209 102.061C94.5423 99.9377 94.4751 97.8154 94.9332 95.6931C96.5787 92.5365 97.7918 89.111 100.733 86.5201C99.351 86.5201 98.1222 86.5178 96.8934 86.5212C96.5854 86.5212 96.4487 86.6216 96.3961 86.9954C96.0892 89.1668 94.6028 90.788 93.6227 93.0331C92.5485 90.6742 90.838 88.9603 90.7641 86.4855C88.8117 86.4799 86.8593 86.4743 84.9069 86.4688C84.0859 86.6172 84.6336 86.9564 84.8632 87.097C85.4121 87.4339 85.9632 87.7475 86.2948 88.3255C87.6961 90.7635 89.0973 93.2027 90.4975 95.6407C90.8929 97.8623 90.8929 100.084 90.4829 102.304C90.3071 102.766 90.1323 103.227 89.9565 103.689C91.4866 103.69 93.0167 103.704 94.5456 103.686C94.9052 103.681 95.4541 103.899 95.4261 103.18C94.9691 102.936 94.8761 102.527 94.9198 102.06L94.9209 102.061Z" fill="#0066CC" stroke="#0066CC" stroke-miterlimit="10"/>
<path d="M0.683279 82.4966C0.455893 82.4565 0.228506 82.4129 0 82.3672C0.226266 82.4297 0.454773 82.4698 0.683279 82.4966Z" fill="#0066CC" stroke="#0066CC" stroke-miterlimit="10"/>
<path d="M5.53546 82.2344C5.17478 82.3817 4.81297 82.4888 4.45117 82.5658C4.8253 82.5702 5.19382 82.5044 5.53546 82.2344Z" fill="#0066CC" stroke="#0066CC" stroke-miterlimit="10"/>
<path d="M4.6967 80.4423C4.72471 76.0895 4.73815 71.7368 4.75607 67.3829C4.19265 66.6364 5.95685 65.8977 4.89161 65.3521C4.22961 65.0129 3.25398 65.2796 2.41948 65.2751C2.23354 65.2751 2.04872 65.2751 1.86278 65.2751C0.717256 65.2759 0.269205 65.7999 0.51862 66.8473C0.571266 67.0716 0.620552 67.3037 0.619432 67.5324C0.60375 70.4402 0.579107 73.348 0.556705 76.2558C0.754968 78.3256 0.786331 80.3809 0 82.3626C1.84597 82.366 3.69755 82.5835 5.53568 82.2309C5.01706 81.7467 4.6911 81.1865 4.69558 80.4434L4.6967 80.4423Z" fill="#0066CC" stroke="#0066CC" stroke-miterlimit="10"/>
<path d="M75.6825 60.4271C76.4028 60.1771 76.0376 59.4798 76.0679 58.9866C76.125 58.0672 76.0802 57.141 76.069 56.2183C76.0645 55.8835 76.0298 55.5521 75.5627 55.561C75.1314 55.5689 75.0553 55.8601 75.0082 56.2082C74.9265 56.8264 75.1684 57.4791 74.7495 58.2535C74.1054 57.4278 73.5229 56.6836 72.9449 55.936C72.694 55.6124 72.3692 55.4506 71.9727 55.5711C71.5762 55.6916 71.6042 56.0587 71.603 56.3778C71.5974 57.5316 71.603 58.6853 71.6042 59.8391C71.6042 60.2117 71.733 60.4494 72.1653 60.4539C72.6358 60.4583 72.6716 60.1582 72.6716 59.8145C72.6716 59.1394 72.6716 58.4633 72.6716 57.4055C73.4053 58.3249 73.9094 58.9553 74.4134 59.5858C74.7484 60.0053 74.9903 60.6636 75.6803 60.4249L75.6825 60.4271Z" fill="#0066CC" stroke="#0066CC" stroke-miterlimit="10"/>
<path d="M91.5778 60.4722C91.8018 60.4332 92.0393 60.4745 92.2689 60.4655C93.8404 60.4008 94.9908 59.2739 94.9102 57.8836C94.8183 56.308 93.6332 55.5805 91.4725 55.4991C89.37 55.4198 90.4532 56.9407 90.1855 57.7854C90.172 57.8266 90.1832 57.8769 90.1843 57.9226C90.1843 58.2908 90.2303 58.6657 90.1765 59.025C90.0085 60.1375 90.3871 60.6775 91.5789 60.4722H91.5778ZM91.5901 56.5825C93.1157 56.5044 93.6814 57.0333 93.6915 58.0152C93.7015 58.9179 93.1706 59.4301 92.2375 59.5428C91.3291 59.6521 91.2059 59.1132 91.3246 58.4548C91.4456 57.7809 90.8116 56.7756 91.5901 56.5836V56.5825Z" fill="#0066CC" stroke="#0066CC" stroke-miterlimit="10"/>
<path d="M43.7038 57.6234C43.4563 59.0918 44.3412 59.8952 45.542 60.5055C46.8323 61.1627 47.5123 59.9945 48.4543 59.6095C49.5128 57.3701 48.9752 56.232 46.4829 55.4375C45.0894 55.577 43.9615 56.0992 43.7049 57.6223L43.7038 57.6234ZM47.808 58.0206C47.8102 58.9155 47.2244 59.5147 46.316 59.5113C45.4143 59.508 44.8452 58.9467 44.8452 58.0161C44.8452 57.0844 45.3762 56.5912 46.1916 56.5622C47.3028 56.5622 47.8046 57.1413 47.8069 58.0206H47.808Z" fill="#0066CC" stroke="#0066CC" stroke-miterlimit="10"/>
<path d="M111.514 55.9747C111.013 55.5317 108.542 55.2952 108.189 55.6723C108.054 55.8174 108 56.084 107.996 56.2972C107.977 57.4498 107.98 58.6035 107.986 59.7573C107.989 60.0697 107.944 60.4335 108.435 60.4502C108.813 60.4625 109.045 60.3431 109.082 59.9213C109.111 59.591 108.971 59.1525 109.548 59.0833C110.131 59.013 110.393 59.3567 110.584 59.8019C110.884 60.5038 111.412 60.5852 112.056 60.3799C112.045 59.6859 110.905 59.2474 111.757 58.3112C112.404 57.5993 112.306 56.6754 111.514 55.9747ZM111.008 57.2992C110.987 58.0155 110.418 58.1215 109.846 58.184C109.212 58.2543 109.091 57.905 109.068 57.365C109.039 56.6922 109.323 56.4456 109.934 56.5449C110.505 56.5326 111.03 56.6074 111.01 57.2992H111.008Z" fill="#0066CC" stroke="#0066CC" stroke-miterlimit="10"/>
<path d="M103.261 60.0259C103.261 59.7526 103.113 59.5908 102.85 59.5796C102.295 59.5551 101.74 59.5551 101.185 59.5428C100.841 59.535 100.544 59.4859 100.525 59.0329C100.506 58.5575 100.827 58.5988 101.149 58.5129C101.738 58.3545 102.837 58.9804 102.836 58.0398C102.836 57.1115 101.718 57.6984 101.119 57.5232C100.848 57.444 100.568 57.4484 100.539 57.0757C100.503 56.6071 100.811 56.5602 101.16 56.5558C101.623 56.5502 102.086 56.5446 102.549 56.5402C102.852 56.5368 103.116 56.4565 103.149 56.1117C103.188 55.7 102.927 55.594 102.557 55.5214C99.9597 55.016 99.3985 55.4489 99.4075 58.0063C99.4075 58.6055 99.4108 59.2047 99.4063 59.8039C99.403 60.1643 99.4836 60.4578 99.9205 60.46C100.892 60.4645 101.864 60.4622 102.835 60.4522C103.096 60.4488 103.262 60.3094 103.262 60.0271L103.261 60.0259Z" fill="#0066CC" stroke="#0066CC" stroke-miterlimit="10"/>
<path d="M63.7871 56.1223C63.2236 57.2761 62.7442 58.47 62.2402 59.6516C62.1416 59.8826 61.8963 60.1761 62.2065 60.3713C62.4765 60.5409 62.8573 60.5599 63.0982 60.2832C64.1253 59.1038 65.0965 59.1239 66.118 60.31C66.3634 60.5945 66.7901 60.5264 67.2012 60.2731C66.9817 59.7286 66.7677 59.1774 66.537 58.6329C66.1774 57.7871 65.8447 56.9268 65.4258 56.1112C64.9901 55.2632 64.2071 55.2632 63.7871 56.1223ZM64.9721 58.4388C64.8669 58.5727 64.346 58.5939 64.2205 58.4667C63.7344 57.9724 64.3314 57.6153 64.5409 56.784C64.8467 57.5885 65.3743 57.9266 64.9721 58.4388Z" fill="#0066CC" stroke="#0066CC" stroke-miterlimit="10"/>
<path d="M17.5749 60.2974C18.5863 59.0901 19.5687 59.166 20.5847 60.2606C20.8456 60.5418 21.2052 60.5339 21.4752 60.4C21.9344 60.1724 21.5558 59.8455 21.4528 59.59C20.9924 58.444 20.513 57.307 20.0235 56.1722C19.8521 55.7739 19.59 55.4916 19.0814 55.5217C18.6423 55.5485 18.4508 55.7851 18.2917 56.1577C17.7014 57.5447 17.0831 58.9194 16.4727 60.303C16.8994 60.4949 17.3206 60.5975 17.5726 60.2963L17.5749 60.2974ZM19.0882 57.0403C19.4914 57.4019 19.8118 57.9151 19.6381 58.3537C19.4802 58.7486 18.9145 58.5233 18.4542 58.463C18.63 57.8448 18.7364 57.3974 19.0882 57.0403Z" fill="#0066CC" stroke="#0066CC" stroke-miterlimit="10"/>
<path d="M83.1145 55.5219C82.6721 55.5498 82.4671 55.7752 82.3092 56.1434C81.7144 57.5293 81.105 58.9084 80.499 60.2931C80.9168 60.5107 81.329 60.5977 81.5822 60.2965C82.5937 59.0914 83.5816 59.1584 84.5965 60.2597C84.8631 60.5487 85.2193 60.5319 85.4903 60.4148C85.9899 60.1994 85.5665 59.858 85.4735 59.6214C85.0199 58.4688 84.5281 57.3307 84.0319 56.1959C83.8628 55.8087 83.6432 55.4885 83.1134 55.5219H83.1145ZM82.5321 58.4219C82.5388 57.9042 82.811 57.4991 83.0328 57.0194C83.5603 57.3998 83.6331 57.9087 83.7351 58.413C83.3173 58.6083 82.9308 58.6004 82.5332 58.423L82.5321 58.4219Z" fill="#0066CC" stroke="#0066CC" stroke-miterlimit="10"/>
<path d="M116.555 60.3663C116.861 60.5504 117.208 60.5136 117.543 60.2023C118.542 59.2728 119.416 59.2784 120.384 60.19C120.613 60.4054 120.834 60.4801 121.199 60.4623C121.87 60.4902 121.519 60.045 121.4 59.756C120.929 58.6101 120.44 57.4708 119.946 56.3349C119.767 55.9221 119.632 55.4981 119.002 55.5204C118.387 55.5427 118.251 55.9589 118.069 56.374C117.587 57.4663 117.105 58.5587 116.641 59.6578C116.547 59.8821 116.238 60.1755 116.556 60.3663H116.555ZM118.839 56.9196C119.412 57.4083 119.427 57.9506 119.65 58.5063C117.374 58.6703 118.918 57.608 118.839 56.9196Z" fill="#0066CC" stroke="#0066CC" stroke-miterlimit="10"/>
<path d="M55.5243 56.5796C55.9891 56.5272 56.4293 56.6131 56.8651 56.814C57.1664 56.9523 57.4027 56.7068 57.5282 56.4591C57.7107 56.0987 57.3825 55.9738 57.1496 55.8633C56.016 55.3266 54.9171 55.34 53.909 56.159C52.9972 56.8999 52.8572 57.9052 53.2213 58.9117C53.62 60.0152 54.5329 60.5173 55.8793 60.4693C57.2985 60.4604 57.8586 59.8902 57.6391 58.5379C57.5943 58.2634 57.6099 57.9744 57.2179 57.9621C56.8673 57.951 56.7172 58.1418 56.725 58.4665C56.7374 58.9686 56.641 59.3982 56.044 59.4741C55.1423 59.5879 54.4646 59.2542 54.2899 58.3348C54.1106 57.3931 54.4556 56.699 55.5231 56.5785L55.5243 56.5796Z" fill="#0066CC" stroke="#0066CC" stroke-miterlimit="10"/>
<path d="M119.356 64.9082C118.832 65.0153 117.899 64.4886 117.852 65.3389C117.759 67.0126 117.625 68.6707 117.27 70.3399C119.068 69.2052 119.834 67.537 120.006 65.5364C120.047 65.061 119.811 64.8156 119.356 64.9082Z" fill="#0066CC" stroke="#0066CC" stroke-miterlimit="10"/>
<path d="M71.774 86.4955C71.382 86.4955 70.8511 86.2478 70.7637 86.8648C70.6181 87.8981 70.0647 88.8532 70.1398 90.1431C71.2297 88.9302 72.5425 89.0808 73.8317 89.0295C74.7357 88.9938 75.0482 89.2828 75.0314 90.2C74.9821 92.8757 75.0549 95.5547 75.0045 98.2304C74.9698 100.059 75.4794 101.987 73.9818 103.621H79.4671C78.6617 98.8151 79.1523 94.0384 79.1378 89.2794C80.2277 88.8644 81.3153 88.9268 82.4007 89.2917C82.9753 89.6242 83.317 89.4245 83.457 88.8164C83.6463 87.994 83.8222 87.1694 84.0126 86.3047C83.317 86.3772 82.6897 86.4955 82.0624 86.4977C78.6337 86.5133 75.2039 86.5022 71.7752 86.4955H71.774Z" fill="#0066CC" stroke="#0066CC" stroke-miterlimit="10"/>
<path d="M38.7491 56.0274C38.282 55.5521 35.6777 55.2888 35.2823 55.6592C35.167 55.7675 35.0953 55.9783 35.093 56.1424C35.0762 57.3887 35.0852 58.6351 35.0762 59.8826C35.0729 60.2843 35.2364 60.4728 35.6542 60.455C35.9746 60.4405 36.1616 60.3479 36.1952 59.9863C36.2288 59.627 36.0014 59.1216 36.7015 59.0702C37.2885 59.0278 37.5517 59.3659 37.7466 59.7989C38.0513 60.4762 38.5161 60.6246 39.1266 60.3534C39.2969 59.646 37.9986 59.2956 38.869 58.3963C39.5276 57.7157 39.4783 56.7683 38.7491 56.0263V56.0274ZM38.1252 57.3742C38.0423 58.1162 37.4431 58.1363 36.8819 58.1843C36.1829 58.2446 36.1616 57.786 36.1941 57.2693C36.0787 56.4872 36.6198 56.5296 37.1552 56.5363C37.7276 56.5429 38.2047 56.6635 38.1252 57.3742Z" fill="#0066CC" stroke="#0066CC" stroke-miterlimit="10"/>
<path d="M27.9928 56.5963C28.4364 56.5193 28.9024 56.4959 29.337 56.7703C29.6786 56.9857 29.9732 56.8161 30.1233 56.4735C30.3261 56.0138 29.8937 55.9022 29.6372 55.7985C28.5563 55.3611 27.4977 55.3164 26.5333 56.1232C25.6596 56.8529 25.3572 57.7567 25.7907 58.8134C26.2566 59.9493 27.1292 60.5373 28.507 60.4737C29.9508 60.4559 30.4493 59.9883 30.3216 58.665C30.2925 58.3626 30.3989 57.9843 29.8881 57.9631C29.4804 57.9475 29.2675 58.1227 29.2933 58.5277C29.3448 59.3546 28.8699 59.6011 28.1631 59.5007C27.3734 59.388 26.9242 58.8781 26.8761 58.0937C26.829 57.3126 27.1819 56.738 27.9917 56.5963H27.9928Z" fill="#0066CC" stroke="#0066CC" stroke-miterlimit="10"/>
<path d="M0.000143567 82.366C0.22753 82.4118 0.456036 82.4553 0.683423 82.4955C1.94357 82.7186 3.20259 82.8302 4.45042 82.5658C4.81334 82.4888 5.17402 82.3805 5.53471 82.2344C3.69657 82.5859 1.845 82.3694 -0.000976562 82.366H0.000143567Z" fill="#0066CC" stroke="#0066CC" stroke-miterlimit="10"/>
</g>
<defs>
<clipPath id="clip0_1_3336">
<rect width="138" height="104" fill="white"/>
</clipPath>
</defs>
</svg>
