<svg width="64" height="65" viewBox="0 0 64 65" fill="none" xmlns="http://www.w3.org/2000/svg">
<g filter="url(#filter0_d_6031_1292)">
<rect x="4" width="56" height="57" rx="7" fill="white"/>
</g>
<path d="M24.57 13H38.43C43.71 13 48 17.29 48 22.57V36.43C48 38.9681 46.9917 41.4023 45.197 43.197C43.4023 44.9917 40.9681 46 38.43 46H24.57C19.29 46 15 41.71 15 36.43V22.57C15 20.0319 16.0083 17.5977 17.803 15.803C19.5977 14.0083 22.0319 13 24.57 13ZM24.24 16.3C22.6646 16.3 21.1538 16.9258 20.0398 18.0398C18.9258 19.1538 18.3 20.6646 18.3 22.24V36.76C18.3 40.0435 20.9565 42.7 24.24 42.7H38.76C40.3354 42.7 41.8462 42.0742 42.9602 40.9602C44.0742 39.8462 44.7 38.3354 44.7 36.76V22.24C44.7 18.9565 42.0435 16.3 38.76 16.3H24.24ZM40.1625 18.775C40.7095 18.775 41.2341 18.9923 41.6209 19.3791C42.0077 19.7659 42.225 20.2905 42.225 20.8375C42.225 21.3845 42.0077 21.9091 41.6209 22.2959C41.2341 22.6827 40.7095 22.9 40.1625 22.9C39.6155 22.9 39.0909 22.6827 38.7041 22.2959C38.3173 21.9091 38.1 21.3845 38.1 20.8375C38.1 20.2905 38.3173 19.7659 38.7041 19.3791C39.0909 18.9923 39.6155 18.775 40.1625 18.775ZM31.5 21.25C33.688 21.25 35.7865 22.1192 37.3336 23.6664C38.8808 25.2135 39.75 27.312 39.75 29.5C39.75 31.688 38.8808 33.7865 37.3336 35.3336C35.7865 36.8808 33.688 37.75 31.5 37.75C29.312 37.75 27.2135 36.8808 25.6664 35.3336C24.1192 33.7865 23.25 31.688 23.25 29.5C23.25 27.312 24.1192 25.2135 25.6664 23.6664C27.2135 22.1192 29.312 21.25 31.5 21.25ZM31.5 24.55C30.1872 24.55 28.9281 25.0715 27.9998 25.9998C27.0715 26.9281 26.55 28.1872 26.55 29.5C26.55 30.8128 27.0715 32.0719 27.9998 33.0002C28.9281 33.9285 30.1872 34.45 31.5 34.45C32.8128 34.45 34.0719 33.9285 35.0002 33.0002C35.9285 32.0719 36.45 30.8128 36.45 29.5C36.45 28.1872 35.9285 26.9281 35.0002 25.9998C34.0719 25.0715 32.8128 24.55 31.5 24.55Z" fill="#0066CC"/>
<defs>
<filter id="filter0_d_6031_1292" x="0" y="0" width="64" height="65" filterUnits="userSpaceOnUse" color-interpolation-filters="sRGB">
<feFlood flood-opacity="0" result="BackgroundImageFix"/>
<feColorMatrix in="SourceAlpha" type="matrix" values="0 0 0 0 0 0 0 0 0 0 0 0 0 0 0 0 0 0 127 0" result="hardAlpha"/>
<feOffset dy="4"/>
<feGaussianBlur stdDeviation="2"/>
<feComposite in2="hardAlpha" operator="out"/>
<feColorMatrix type="matrix" values="0 0 0 0 0 0 0 0 0 0 0 0 0 0 0 0 0 0 0.25 0"/>
<feBlend mode="normal" in2="BackgroundImageFix" result="effect1_dropShadow_6031_1292"/>
<feBlend mode="normal" in="SourceGraphic" in2="effect1_dropShadow_6031_1292" result="shape"/>
</filter>
</defs>
</svg>
