<svg width="64" height="65" viewBox="0 0 64 65" fill="none" xmlns="http://www.w3.org/2000/svg">
<g filter="url(#filter0_d_1_1484)">
<rect x="4" width="56" height="57" rx="12" fill="white"/>
</g>
<path d="M25.57 12H39.43C44.71 12 49 16.29 49 21.57V35.43C49 37.9681 47.9917 40.4023 46.197 42.197C44.4023 43.9917 41.9681 45 39.43 45H25.57C20.29 45 16 40.71 16 35.43V21.57C16 19.0319 17.0083 16.5977 18.803 14.803C20.5977 13.0083 23.0319 12 25.57 12ZM25.24 15.3C23.6646 15.3 22.1538 15.9258 21.0398 17.0398C19.9258 18.1538 19.3 19.6646 19.3 21.24V35.76C19.3 39.0435 21.9565 41.7 25.24 41.7H39.76C41.3354 41.7 42.8462 41.0742 43.9602 39.9602C45.0742 38.8462 45.7 37.3354 45.7 35.76V21.24C45.7 17.9565 43.0435 15.3 39.76 15.3H25.24ZM41.1625 17.775C41.7095 17.775 42.2341 17.9923 42.6209 18.3791C43.0077 18.7659 43.225 19.2905 43.225 19.8375C43.225 20.3845 43.0077 20.9091 42.6209 21.2959C42.2341 21.6827 41.7095 21.9 41.1625 21.9C40.6155 21.9 40.0909 21.6827 39.7041 21.2959C39.3173 20.9091 39.1 20.3845 39.1 19.8375C39.1 19.2905 39.3173 18.7659 39.7041 18.3791C40.0909 17.9923 40.6155 17.775 41.1625 17.775ZM32.5 20.25C34.688 20.25 36.7865 21.1192 38.3336 22.6664C39.8808 24.2135 40.75 26.312 40.75 28.5C40.75 30.688 39.8808 32.7865 38.3336 34.3336C36.7865 35.8808 34.688 36.75 32.5 36.75C30.312 36.75 28.2135 35.8808 26.6664 34.3336C25.1192 32.7865 24.25 30.688 24.25 28.5C24.25 26.312 25.1192 24.2135 26.6664 22.6664C28.2135 21.1192 30.312 20.25 32.5 20.25ZM32.5 23.55C31.1872 23.55 29.9281 24.0715 28.9998 24.9998C28.0715 25.9281 27.55 27.1872 27.55 28.5C27.55 29.8128 28.0715 31.0719 28.9998 32.0002C29.9281 32.9285 31.1872 33.45 32.5 33.45C33.8128 33.45 35.0719 32.9285 36.0002 32.0002C36.9285 31.0719 37.45 29.8128 37.45 28.5C37.45 27.1872 36.9285 25.9281 36.0002 24.9998C35.0719 24.0715 33.8128 23.55 32.5 23.55Z" fill="#0066CC"/>
<defs>
<filter id="filter0_d_1_1484" x="0" y="0" width="64" height="65" filterUnits="userSpaceOnUse" color-interpolation-filters="sRGB">
<feFlood flood-opacity="0" result="BackgroundImageFix"/>
<feColorMatrix in="SourceAlpha" type="matrix" values="0 0 0 0 0 0 0 0 0 0 0 0 0 0 0 0 0 0 127 0" result="hardAlpha"/>
<feOffset dy="4"/>
<feGaussianBlur stdDeviation="2"/>
<feComposite in2="hardAlpha" operator="out"/>
<feColorMatrix type="matrix" values="0 0 0 0 0 0 0 0 0 0 0 0 0 0 0 0 0 0 0.25 0"/>
<feBlend mode="normal" in2="BackgroundImageFix" result="effect1_dropShadow_1_1484"/>
<feBlend mode="normal" in="SourceGraphic" in2="effect1_dropShadow_1_1484" result="shape"/>
</filter>
</defs>
</svg>
