<svg width="1440" height="526" viewBox="0 0 1440 526" fill="none" xmlns="http://www.w3.org/2000/svg">
<g clip-path="url(#clip0_1_2383)">
<path d="M-24.6191 161.354C-19.4512 135.286 -14.034 108.563 0.0739105 86.025C14.1819 63.4869 39.0992 45.6802 65.6617 47.702C103.806 50.6104 127.012 89.5134 144.967 123.196C161.7 154.6 179.821 185.872 205.171 210.888C230.52 235.903 264.162 254.34 299.83 254.671C366.05 255.284 416.034 197.282 454.959 143.862C493.885 90.4332 540.77 31.0884 606.865 26.9371C674.937 22.6532 731.568 80.9788 760.241 142.693C782.25 190.056 791.423 252.508 754.4 289.406C728.469 315.251 686.154 321.308 664.02 350.45C645.3 375.084 646.995 411.568 663.928 437.453C680.861 463.339 710.581 479.107 741.148 484.203C801.186 494.213 861.34 466.662 911.166 431.794C960.992 396.918 1005.44 353.888 1059.46 325.915C1132.04 288.321 1219.8 280.971 1297.66 305.954C1375.52 330.936 1442.5 387.952 1479.48 460.704" stroke="url(#paint0_linear_1_2383)" stroke-opacity="0.7" stroke-width="50" stroke-miterlimit="10"/>
</g>
<defs>
<linearGradient id="paint0_linear_1_2383" x1="-24.6191" y1="256.498" x2="1479.48" y2="256.498" gradientUnits="userSpaceOnUse">
<stop stop-color="#E4E08F"/>
<stop offset="0.49" stop-color="#0066CC"/>
<stop offset="1" stop-color="#F0E68C"/>
</linearGradient>
<clipPath id="clip0_1_2383">
<rect width="1543" height="526" fill="white" transform="translate(-45)"/>
</clipPath>
</defs>
</svg>
