<svg width="757" height="795" viewBox="0 0 757 795" fill="none" xmlns="http://www.w3.org/2000/svg">
<g clip-path="url(#clip0_1_2390)">
<path d="M773.001 32.4986C656.501 10.5009 639.001 167 672.245 250.454C675.188 265.094 677.658 280.207 674.943 294.9C672.228 309.584 663.348 323.953 649.441 329.4C629.317 337.289 606.609 324.19 593.105 307.316C579.601 290.443 571.465 269.674 557.269 253.378C543.485 237.556 517.327 227.25 502.378 241.969C489.776 254.368 494.067 275.409 500.504 291.871C508.911 313.393 519.499 334.172 525.427 356.509C531.347 378.846 532.188 403.635 521.522 424.142C510.855 444.64 486.44 458.966 464.187 452.714C441.969 446.47 429.341 423.713 419.113 403.031C397.832 360.003 376.552 316.975 355.271 273.947C345.095 253.37 332.09 230.498 309.636 225.709C289.407 221.392 268.214 235.043 259.526 253.816C250.839 272.589 252.853 294.883 260.157 314.234C267.461 333.585 279.607 350.66 291.316 367.708C322.51 413.135 351.523 460.069 378.207 508.281C401.563 550.486 423.693 595.914 422.756 644.134C421.819 692.355 390.362 743.316 342.626 750.295C311.178 754.892 279.441 739.717 256.566 717.66C233.692 695.603 218.121 667.233 202.91 639.344C177.522 592.805 152.134 546.265 126.747 499.726C121.09 489.358 115.213 478.728 106.062 471.277C96.9103 463.825 83.5 462 73.0902 465.734C57.5001 473.894 46 495 46 543C46 568.5 46 580.5 46 619" stroke="url(#paint0_linear_1_2390)" stroke-width="50" stroke-miterlimit="10"/>
</g>
<defs>
<linearGradient id="paint0_linear_1_2390" x1="409.5" y1="30.4023" x2="409.5" y2="751.118" gradientUnits="userSpaceOnUse">
<stop stop-color="#6495ED"/>
<stop offset="0.5" stop-color="#F0E68C"/>
<stop offset="1" stop-color="#E8A87C"/>
</linearGradient>
<clipPath id="clip0_1_2390">
<rect width="757" height="795" fill="white"/>
</clipPath>
</defs>
</svg>
