<svg width="48" height="49" viewBox="0 0 48 49" fill="none" xmlns="http://www.w3.org/2000/svg">
<g filter="url(#filter0_d_1_1744)">
<rect x="4" width="40" height="41" rx="7" fill="white"/>
</g>
<path d="M18.62 19.79C20.06 22.62 22.38 24.94 25.21 26.38L27.41 24.18C27.69 23.9 28.08 23.82 28.43 23.93C29.55 24.3 30.75 24.5 32 24.5C32.2652 24.5 32.5196 24.6054 32.7071 24.7929C32.8946 24.9804 33 25.2348 33 25.5V29C33 29.2652 32.8946 29.5196 32.7071 29.7071C32.5196 29.8946 32.2652 30 32 30C27.4913 30 23.1673 28.2089 19.9792 25.0208C16.7911 21.8327 15 17.5087 15 13C15 12.7348 15.1054 12.4804 15.2929 12.2929C15.4804 12.1054 15.7348 12 16 12H19.5C19.7652 12 20.0196 12.1054 20.2071 12.2929C20.3946 12.4804 20.5 12.7348 20.5 13C20.5 14.25 20.7 15.45 21.07 16.57C21.18 16.92 21.1 17.31 20.82 17.59L18.62 19.79Z" fill="#0066CC"/>
<defs>
<filter id="filter0_d_1_1744" x="0" y="0" width="48" height="49" filterUnits="userSpaceOnUse" color-interpolation-filters="sRGB">
<feFlood flood-opacity="0" result="BackgroundImageFix"/>
<feColorMatrix in="SourceAlpha" type="matrix" values="0 0 0 0 0 0 0 0 0 0 0 0 0 0 0 0 0 0 127 0" result="hardAlpha"/>
<feOffset dy="4"/>
<feGaussianBlur stdDeviation="2"/>
<feComposite in2="hardAlpha" operator="out"/>
<feColorMatrix type="matrix" values="0 0 0 0 0 0 0 0 0 0 0 0 0 0 0 0 0 0 0.25 0"/>
<feBlend mode="normal" in2="BackgroundImageFix" result="effect1_dropShadow_1_1744"/>
<feBlend mode="normal" in="SourceGraphic" in2="effect1_dropShadow_1_1744" result="shape"/>
</filter>
</defs>
</svg>
