<svg id="Layer_1" height="300" viewBox="0 0 512 512" width="300" xmlns="http://www.w3.org/2000/svg" data-name="Layer 1" version="1.1" xmlns:xlink="http://www.w3.org/1999/xlink" xmlns:svgjs="http://svgjs.dev/svgjs"><g width="100%" height="100%" transform="matrix(1,0,0,1,0,0)"><g id="Layer_1-2" data-name="Layer_1"><g id="_208141440" data-name=" 208141440"><g id="_208141896" data-name=" 208141896"><path d="m311.39 464.23h-280.39a8 8 0 0 1 -8-8v-280.7a8 8 0 0 1 8-8h280.39a8 8 0 0 1 8 8v280.7a8 8 0 0 1 -8 8zm-272.39-16h264.39v-264.7h-264.39z" fill="#ffffff" fill-opacity="1" data-original-color="#000000ff" stroke="none" stroke-opacity="1"/></g><g id="_208141992" data-name=" 208141992"><path d="m277.34 428.55h-55.34a8 8 0 0 1 -8-8v-44.32a8 8 0 0 1 8-8h55.36a8 8 0 0 1 8 8v44.32a8 8 0 0 1 -8.02 8zm-47.36-16h39.36v-28.32h-39.34z" fill="#ffffff" fill-opacity="1" data-original-color="#000000ff" stroke="none" stroke-opacity="1"/></g><g id="_208142472" data-name=" 208142472"><path d="m119 406.39h-54a8 8 0 0 1 0-16h54a8 8 0 0 1 0 16z" fill="#ffffff" fill-opacity="1" data-original-color="#000000ff" stroke="none" stroke-opacity="1"/></g><g id="_208142136" data-name=" 208142136"><path d="m223.45 285.92h-1.86a8 8 0 0 1 -5.62-2.31l-44.77-44.23-44.78 44.23a8 8 0 0 1 -5.62 2.31h-1.86a8 8 0 0 1 -8-8v-102.39a8 8 0 0 1 16 0v85.08l38.63-38.17a8 8 0 0 1 11.25 0l38.63 38.17v-85.08a8 8 0 0 1 16 0v102.39a8 8 0 0 1 -8 8z" fill="#ffffff" fill-opacity="1" data-original-color="#000000ff" stroke="none" stroke-opacity="1"/></g><g id="_208141968" data-name=" 208141968"><path d="m409 464.23h-97.61a8 8 0 0 1 0-16h89.61v-225.94h-89.61a8 8 0 0 1 0-16h97.61a8 8 0 0 1 8 8v241.94a8 8 0 0 1 -8 8z" fill="#ffffff" fill-opacity="1" data-original-color="#000000ff" stroke="none" stroke-opacity="1"/></g><g id="_208141152" data-name=" 208141152"><path d="m409 222.29h-97.61a8 8 0 0 1 0-16h92.69l36-69.52h-237.53l-22 42.44a8 8 0 1 1 -14.21-7.36l24.2-46.76a8 8 0 0 1 7.11-4.32h255.57a8 8 0 0 1 7.1 11.68l-44.26 85.55a8 8 0 0 1 -7.06 4.29z" fill="#ffffff" fill-opacity="1" data-original-color="#000000ff" stroke="none" stroke-opacity="1"/></g><g id="_208141752" data-name=" 208141752"><path d="m453.22 136.77a8 8 0 0 1 -8-8v-36.5c0-15.72-11.5-28.5-25.63-28.5h-188.28c-14.13 0-25.62 12.78-25.62 28.5v36.5a8 8 0 1 1 -16 0v-36.5c0-24.54 18.67-44.5 41.62-44.5h188.28c23 0 41.63 20 41.63 44.5v36.5a8 8 0 0 1 -8 8z" fill="#ffffff" fill-opacity="1" data-original-color="#000000ff" stroke="none" stroke-opacity="1"/></g><g id="_208141536" data-name=" 208141536"><path d="m481 464.23h-72a8 8 0 0 1 0-16h64v-227l-27.44-90.13a8 8 0 0 1 15.31-4.66l27.78 91.25a8 8 0 0 1 .35 2.31v236.23a8 8 0 0 1 -8 8z" fill="#ffffff" fill-opacity="1" data-original-color="#000000ff" stroke="none" stroke-opacity="1"/></g></g></g></g></svg>