<svg id="Layer_1" height="300" viewBox="0 0 512 512" width="300" xmlns="http://www.w3.org/2000/svg" data-name="Layer 1" version="1.1" xmlns:xlink="http://www.w3.org/1999/xlink" xmlns:svgjs="http://svgjs.dev/svgjs"><g width="100%" height="100%" transform="matrix(1,0,0,1,0,0)"><path d="m373.48 151.006a126.594 126.594 0 0 0 -19.539-18.194v-39.458a10.631 10.631 0 0 1 10.615-10.615h22.127a10.622 10.622 0 0 1 10.332 8.3h.189l1.273-.039a167.309 167.309 0 0 0 14.723-23.216l-.378-12.549a8.032 8.032 0 0 1 4.1-7.219c1.132-.613 2.17-1.132 3.161-1.557 6.086-2.406 11.983-1.84 16.7 1.7 8.963 6.794 10.615 22.881 10.709 32.977h12.458a13.879 13.879 0 0 1 11.04 5.379 13.7 13.7 0 0 1 2.642 11.985l-9.432 39.532a13.989 13.989 0 0 1 -13.681 10.8h-46.519a7.724 7.724 0 0 1 -3.585-.85c-.567-.188-2.218-.707-3.445-1.037-.566-.142-1.084-.331-1.651-.473a10.462 10.462 0 0 1 -8.633 4.53zm-54.969 7.312c-1.416-3.4-2.878-6.746-4.435-9.954a119.031 119.031 0 0 0 -18.211-27.647 140.142 140.142 0 0 1 45.716 23.259 144.559 144.559 0 0 1 -23.07 14.342zm-62.511 14.582a140.778 140.778 0 0 0 47.744-8.3c-1.274-3.161-2.6-6.227-4.057-9.2-12.03-24.634-27.977-38.74-43.687-38.74s-31.656 14.106-43.687 38.733q-2.123 4.46-4.1 9.2a141.247 141.247 0 0 0 47.787 8.307zm-63.879 75.1c.661-24.627 4.341-47.98 10.71-68.361a156.731 156.731 0 0 0 106.338 0c6.37 20.381 10.049 43.734 10.71 68.361zm113.557 94.544c-1.84 4.907-3.821 9.577-5.991 14.012-12.03 24.627-27.977 38.78-43.687 38.78s-31.656-14.153-43.687-38.78c-2.17-4.435-4.151-9.105-5.991-14.012a141.444 141.444 0 0 1 99.356 0zm-49.678-25a157.72 157.72 0 0 0 -54.679 9.813 260.6 260.6 0 0 1 -9.2-63.36h127.758a260.6 260.6 0 0 1 -9.2 63.36 157.72 157.72 0 0 0 -54.679-9.813zm-39.865-196.827a119.063 119.063 0 0 0 -18.211 27.647c-1.557 3.208-3.019 6.558-4.435 9.954a142.5 142.5 0 0 1 -23.07-14.342 139.678 139.678 0 0 1 45.716-23.259zm-58.076 33.921a140.432 140.432 0 0 0 -42.838 93.362h60.86c.707-26.75 4.812-52.321 11.936-74.589a157.114 157.114 0 0 1 -29.958-18.777zm-42.838 109.362h60.86c.66 24.815 4.246 48.64 10.426 69.729a158.266 158.266 0 0 0 -31.515 20.617 140.454 140.454 0 0 1 -39.771-90.346zm51.707 101.244a141.047 141.047 0 0 0 49.207 26.042 119.417 119.417 0 0 1 -18.211-27.694c-2.265-4.623-4.34-9.482-6.227-14.531a139.674 139.674 0 0 0 -24.769 16.183zm128.937 26.042a141.46 141.46 0 0 0 49.207-26.042 139.7 139.7 0 0 0 -24.772-16.186c-1.935 5.049-3.964 9.908-6.228 14.531a119.386 119.386 0 0 1 -18.211 27.694zm61.143-36.94a159.625 159.625 0 0 0 -31.515-20.617c6.18-21.089 9.766-44.914 10.426-69.729h60.86a140.691 140.691 0 0 1 -39.771 90.346zm39.771-106.346a140.432 140.432 0 0 0 -42.838-93.366 157.082 157.082 0 0 1 -29.958 18.777c7.124 22.268 11.229 47.839 11.936 74.589zm115.208-150.022a97.989 97.989 0 1 0 -195.977 0 94.711 94.711 0 0 0 .9 13.257 157.338 157.338 0 0 0 -121.814 0 94.711 94.711 0 0 0 .9-13.257 97.989 97.989 0 1 0 -97.996 97.988 95.831 95.831 0 0 0 13.257-.9 156.794 156.794 0 0 0 0 121.813 95.831 95.831 0 0 0 -13.257-.9 98.012 98.012 0 1 0 97.989 97.988 95.7 95.7 0 0 0 -.9-13.257 156.785 156.785 0 0 0 121.814 0 95.7 95.7 0 0 0 -.9 13.257 97.989 97.989 0 1 0 97.997-97.98 95.831 95.831 0 0 0 -13.257.9 157.231 157.231 0 0 0 0-121.766 103.684 103.684 0 0 0 13.257.849 98.084 98.084 0 0 0 97.988-97.988zm-443.425 343.738c15.1-4.2 18.211-4.812 18.777-4.907a8.021 8.021 0 0 0 6.841-5.85l.519-1.981a22.459 22.459 0 0 0 3.066.236 21.44 21.44 0 0 0 3.492-.33l.566 2.075a7.907 7.907 0 0 0 6.793 5.85c.614.095 3.68.708 18.824 4.907 1.793.519 5.992 1.651 7.03 2.831.519.613 1.226 2.311 1.509 7.076v.425c-.141 6.558-.235 9.53-.235 16.371a8 8 0 1 0 15.993 0c0-6.652.094-9.578.236-15.994v-.755a3.089 3.089 0 0 0 0-.66c-.944-16.465-7.266-21.088-20.24-24.721-7.737-2.123-12.6-3.444-15.71-4.2l-.283-1.038c10.191-10.049 18.069-28.684 12.55-48.074-3.633-12.6-16.23-21.419-30.666-21.419-14.389 0-26.986 8.822-30.619 21.419-4.529 15.8.472 35.761 11.889 47.461l1.18 1.179-.095.472c-3.161.755-7.973 2.076-15.71 4.2-12.974 3.633-19.3 8.256-20.239 24.721a3.354 3.354 0 0 0 -.047.66l.047.755c.141 6.416.236 9.342.188 15.994a8.021 8.021 0 0 0 16.041 0c0-6.841-.095-9.813-.236-16.371l-.047-.425c.33-4.765.991-6.463 1.557-7.076 1.038-1.18 5.236-2.312 7.029-2.831zm21.8-32.411c-6.51-6.7-11.275-20.476-7.973-31.94 1.935-6.746 9.247-9.813 15.239-9.813s13.351 3.067 15.285 9.813c3.728 13.021-2.075 26.892-9.435 33.261-1.887 1.7-6.369 5.567-13.116-1.321zm329.538-21.513c6.18-6.747 14.059-9.294 21.089-6.841 6.369 2.17 10.52 7.926 11.134 15.38 1.321 16.087-20.145 38.308-38.12 50.2-17.975-11.889-39.441-34.11-38.12-50.2.613-7.454 4.765-13.21 11.134-15.38a16.058 16.058 0 0 1 5.331-.944c5.52 0 11.134 2.737 15.758 7.785a8.1 8.1 0 0 0 11.794 0zm-1.84 75.06a8.127 8.127 0 0 1 -8.114 0c-14.767-8.728-52.462-37.837-50.009-67.842 1.132-13.729 9.483-24.957 21.843-29.2 10.757-3.727 22.551-1.463 32.223 5.8 9.671-7.266 21.466-9.53 32.222-5.8 12.361 4.246 20.711 15.474 21.844 29.2 2.453 30-35.289 59.114-50.009 67.842zm-20.805-332.51c1.415.424 3.066.9 4.151 1.227 1.557.471 2.925.849 4.152 1.273h43.451l8.491-35.714h-18.261a7.937 7.937 0 0 1 -5.944-2.641 8.152 8.152 0 0 1 -2.029-6.181c.849-8.162-.236-18.729-2.17-24.108l.141 5.143a7.691 7.691 0 0 1 -.849 3.821 182.779 182.779 0 0 1 -19.768 30.855 8.012 8.012 0 0 1 -5.944 2.877l-5 .142h-.424v23.306zm-15.998-31.562h-11.322v36.232h11.322zm-318.451-36h70.394v70.389h-70.394v-70.386zm50.481 26.42a8 8 0 1 1 8.02-8.021 8.014 8.014 0 0 1 -8.02 8.021zm-51.287 60.013a15.222 15.222 0 0 1 -15.191-15.238v-71.994a15.212 15.212 0 0 1 15.191-15.191h72a15.211 15.211 0 0 1 15.191 15.191v71.994a15.221 15.221 0 0 1 -15.191 15.238z" fill-rule="evenodd" fill="#ffffff" fill-opacity="1" data-original-color="#000000ff" stroke="none" stroke-opacity="1"/></g></svg>