<svg width="40" height="52" viewBox="0 0 40 52" fill="none" xmlns="http://www.w3.org/2000/svg">
<path fill-rule="evenodd" clip-rule="evenodd" d="M34.5544 32.4142H32.4724C32.4724 33.8009 32.1254 35.1876 31.6917 36.1409C33.1664 35.5342 34.2941 34.1476 34.5544 32.4142ZM19.5471 7.54091H13.7351C13.0411 7.54091 13.0411 6.50091 13.7351 6.50091H19.5471C20.1544 6.50091 20.1544 7.54091 19.5471 7.54091ZM19.5471 45.2409H13.7351C13.0411 45.2409 13.0411 44.2009 13.7351 44.2009H19.5471C20.1544 44.2009 20.1544 45.2409 19.5471 45.2409ZM1.67725 41.8609V6.93424C1.67725 5.20091 3.0652 3.81424 4.80014 3.81424H28.4821C30.217 3.81424 31.605 5.20091 31.605 6.93424V9.27424H38.2845C38.6315 9.27424 38.805 9.44757 38.805 9.79424V39.2609C38.805 39.5209 38.6315 39.7809 38.2845 39.7809H31.605V45.0676C31.605 46.8009 30.217 48.1876 28.4821 48.1876H4.80014C3.0652 48.1876 1.67725 46.8009 1.67725 45.0676V41.8609ZM5.32062 10.3142V38.7409H37.764V10.3142H5.32062ZM30.564 41.3409V39.7809H4.80014C4.45315 39.7809 4.27966 39.5209 4.27966 39.2609V9.79424C4.27966 9.44757 4.5399 9.27424 4.88688 9.27424H30.564V6.93424C30.564 5.80757 29.6098 4.85424 28.4821 4.85424H4.80014C3.67243 4.85424 2.71821 5.80757 2.71821 6.93424V41.3409H30.564ZM2.71821 42.3809V45.0676C2.71821 46.1942 3.67243 47.1476 4.80014 47.1476H28.4821C29.6098 47.1476 30.564 46.1942 30.564 45.0676V42.3809H2.71821ZM18.4194 22.3609L7.66279 22.2742C7.48929 22.1876 7.3158 22.0142 7.3158 21.7542V12.4809C7.3158 12.2209 7.57604 11.9609 7.83628 11.9609H18.5062C18.7664 11.9609 19.0266 12.2209 19.0266 12.4809V21.8409C19.0266 22.1009 18.7664 22.3609 18.4194 22.3609ZM8.96399 21.3209H13.3881L11.3062 18.2876L8.96399 21.3209ZM14.6893 21.3209H17.3785L15.3833 18.7209L14.1688 20.4542L14.6893 21.3209ZM17.9857 20.2809V13.0009H8.35676V20.2809L10.8724 17.1609C11.1327 16.8142 11.5664 16.9009 11.7399 17.1609L13.4748 19.5876L14.9495 17.5942C15.123 17.3342 15.5568 17.2476 15.7303 17.5942L17.9857 20.2809ZM13.5616 17.0742C11.3062 17.0742 11.3062 13.6942 13.5616 13.6942C15.7303 13.6942 15.7303 17.0742 13.5616 17.0742ZM13.5616 14.7342C12.6941 14.7342 12.6941 16.0342 13.5616 16.0342C14.3423 16.0342 14.3423 14.7342 13.5616 14.7342ZM29.523 21.7542C27.3544 19.5876 25.1857 17.3342 25.1857 14.9942C25.1857 12.5676 28.3953 11.3542 29.9568 13.4342C31.4315 11.3542 34.7278 12.5676 34.7278 14.9942C34.7278 17.3342 32.4724 19.5876 30.3038 21.7542C30.1303 22.0142 29.7833 21.9276 29.523 21.7542ZM27.7881 13.4342C26.9206 13.4342 26.2266 14.1276 26.2266 14.9942C26.2266 16.8142 28.0483 18.7209 29.9568 20.6276C31.8652 18.7209 33.6869 16.8142 33.6869 14.9942C33.6869 14.1276 32.9062 13.4342 32.0387 13.4342C30.4772 13.4342 30.7375 14.9942 29.9568 14.9942C29.0893 14.9942 29.4363 13.4342 27.7881 13.4342ZM21.0218 35.8809V25.0476H10.1785C9.48448 25.0476 9.48448 24.0076 10.1785 24.0076H21.0218V13.1742C21.0218 12.4809 22.0628 12.4809 22.0628 13.1742V24.0076H32.9062C33.6001 24.0076 33.6001 25.0476 32.9062 25.0476H22.0628V35.8809C22.0628 36.5742 21.0218 36.5742 21.0218 35.8809ZM9.22423 36.2276V27.5609C9.22423 27.1276 9.65797 26.8676 10.005 27.1276L16.858 31.4609C17.205 31.6342 17.205 32.1542 16.858 32.3276L10.005 36.6609C9.65797 36.8342 9.22423 36.6609 9.22423 36.2276ZM10.2652 28.5142V35.2742L15.6435 31.8942L10.2652 28.5142ZM28.2218 36.1409C27.7013 35.1876 27.3544 33.8009 27.3544 32.4142H25.3592C25.5327 34.1476 26.6604 35.5342 28.2218 36.1409ZM25.3592 31.3742H27.3544C27.3544 29.9876 27.7013 28.6009 28.2218 27.5609C26.6604 28.2542 25.5327 29.6409 25.3592 31.3742ZM31.6917 27.5609C32.1254 28.6009 32.4724 29.9876 32.4724 31.3742H34.5544C34.2941 29.6409 33.1664 28.2542 31.6917 27.5609ZM29.9568 37.5276C26.8339 37.5276 24.2315 35.0142 24.2315 31.8942C24.2315 28.7742 26.8339 26.2609 29.9568 26.2609C33.0797 26.2609 35.5953 28.7742 35.5953 31.8942C35.5953 35.0142 33.0797 37.5276 29.9568 37.5276ZM31.4315 32.4142H28.3953C28.4821 34.9276 29.3495 36.4876 29.9568 36.4876C30.4772 36.4876 31.3447 34.9276 31.4315 32.4142ZM28.3953 31.3742H31.4315C31.3447 28.8609 30.4772 27.3009 29.9568 27.3009C29.3495 27.3009 28.4821 28.8609 28.3953 31.3742Z" fill="#0066CC"/>
</svg>
