<svg width="64" height="65" viewBox="0 0 64 65" fill="none" xmlns="http://www.w3.org/2000/svg">
<g filter="url(#filter0_d_1_1477)">
<rect x="4" width="56" height="57" rx="12" fill="white"/>
</g>
<path d="M39.714 18.4575C38.6035 17.1892 37.9914 15.5608 37.9915 13.875H32.9703V34.025C32.9323 35.1157 32.4722 36.149 31.687 36.9069C30.9018 37.6649 29.8529 38.0882 28.7615 38.0875C26.454 38.0875 24.5365 36.2025 24.5365 33.8625C24.5365 31.0675 27.234 28.9712 30.0128 29.8325V24.6975C24.4065 23.95 19.499 28.305 19.499 33.8625C19.499 39.2738 23.984 43.125 28.7453 43.125C33.8478 43.125 37.9915 38.9813 37.9915 33.8625V23.6413C40.0276 25.1035 42.4722 25.8881 44.979 25.8838V20.8625C44.979 20.8625 41.924 21.0088 39.714 18.4575Z" fill="#0066CC"/>
<defs>
<filter id="filter0_d_1_1477" x="0" y="0" width="64" height="65" filterUnits="userSpaceOnUse" color-interpolation-filters="sRGB">
<feFlood flood-opacity="0" result="BackgroundImageFix"/>
<feColorMatrix in="SourceAlpha" type="matrix" values="0 0 0 0 0 0 0 0 0 0 0 0 0 0 0 0 0 0 127 0" result="hardAlpha"/>
<feOffset dy="4"/>
<feGaussianBlur stdDeviation="2"/>
<feComposite in2="hardAlpha" operator="out"/>
<feColorMatrix type="matrix" values="0 0 0 0 0 0 0 0 0 0 0 0 0 0 0 0 0 0 0.25 0"/>
<feBlend mode="normal" in2="BackgroundImageFix" result="effect1_dropShadow_1_1477"/>
<feBlend mode="normal" in="SourceGraphic" in2="effect1_dropShadow_1_1477" result="shape"/>
</filter>
</defs>
</svg>
