<svg width="48" height="49" viewBox="0 0 48 49" fill="none" xmlns="http://www.w3.org/2000/svg">
<g filter="url(#filter0_d_1_1734)">
<rect x="4" width="40" height="41" rx="7" fill="white"/>
</g>
<mask id="mask0_1_1734" style="mask-type:luminance" maskUnits="userSpaceOnUse" x="13" y="10" width="22" height="22">
<path d="M16.929 25.3789C15.119 25.9219 14 26.6719 14 27.5004C14 29.1574 18.477 30.5004 24 30.5004C29.523 30.5004 34 29.1574 34 27.5004C34 26.6719 32.8805 25.9219 31.071 25.3789" stroke="white" stroke-width="2" stroke-linecap="round" stroke-linejoin="round"/>
<path d="M24 26.5C24 26.5 30.5 22.252 30.5 17.341C30.5 13.839 27.59 11 24 11C20.41 11 17.5 13.839 17.5 17.341C17.5 22.252 24 26.5 24 26.5Z" fill="white" stroke="white" stroke-width="2" stroke-linejoin="round"/>
<path d="M24 20C24.663 20 25.2989 19.7366 25.7678 19.2678C26.2366 18.7989 26.5 18.163 26.5 17.5C26.5 16.837 26.2366 16.2011 25.7678 15.7322C25.2989 15.2634 24.663 15 24 15C23.337 15 22.7011 15.2634 22.2322 15.7322C21.7634 16.2011 21.5 16.837 21.5 17.5C21.5 18.163 21.7634 18.7989 22.2322 19.2678C22.7011 19.7366 23.337 20 24 20Z" fill="black" stroke="black" stroke-width="2" stroke-linejoin="round"/>
</mask>
<g mask="url(#mask0_1_1734)">
<path d="M12 9H36V33H12V9Z" fill="#0066CC"/>
</g>
<defs>
<filter id="filter0_d_1_1734" x="0" y="0" width="48" height="49" filterUnits="userSpaceOnUse" color-interpolation-filters="sRGB">
<feFlood flood-opacity="0" result="BackgroundImageFix"/>
<feColorMatrix in="SourceAlpha" type="matrix" values="0 0 0 0 0 0 0 0 0 0 0 0 0 0 0 0 0 0 127 0" result="hardAlpha"/>
<feOffset dy="4"/>
<feGaussianBlur stdDeviation="2"/>
<feComposite in2="hardAlpha" operator="out"/>
<feColorMatrix type="matrix" values="0 0 0 0 0 0 0 0 0 0 0 0 0 0 0 0 0 0 0.25 0"/>
<feBlend mode="normal" in2="BackgroundImageFix" result="effect1_dropShadow_1_1734"/>
<feBlend mode="normal" in="SourceGraphic" in2="effect1_dropShadow_1_1734" result="shape"/>
</filter>
</defs>
</svg>
