<svg width="319" height="301" viewBox="0 0 319 301" fill="none" xmlns="http://www.w3.org/2000/svg">
<g clip-path="url(#clip0_1_1933)">
<path d="M172.278 238.314C167.928 232.645 167.521 230.787 167.155 225.972C167.035 224.405 166.912 222.785 166.456 221.278C165.275 217.366 161.904 214.357 159.195 211.939L159.61 211.474C162.376 213.944 165.82 217.018 167.052 221.097C167.528 222.67 167.653 224.324 167.776 225.925C168.131 230.583 168.481 232.34 172.772 237.933L172.279 238.313L172.278 238.314Z" fill="#DF2715"/>
<path d="M231.967 260.813C230.572 259.828 228.93 258.746 227.105 258.37C224.289 257.789 221.356 258.915 218.473 259.475C211.062 260.914 203.129 258.503 197.769 253.185C197.448 252.865 197.132 252.534 196.816 252.203C193.883 249.122 192.819 248.546 188.179 248.352L188.205 247.729C189.91 247.8 191.844 247.881 193.527 248.69C195.423 249.601 196.765 251.311 198.208 252.742C203.424 257.917 211.144 260.261 218.355 258.863C221.249 258.3 224.25 257.147 227.23 257.76C229.172 258.16 230.879 259.283 232.326 260.304L231.967 260.814V260.813Z" fill="#DF2715"/>
<path d="M192.209 249.846C184.926 249.641 179.04 247.888 174.713 244.636L175.087 244.137C179.309 247.31 185.075 249.021 192.226 249.222C196.209 249.334 199.578 248.972 202.526 248.113C206.095 247.074 209.121 245.263 211.276 242.876C212.762 241.231 213.977 238.757 212.928 236.749C212.333 235.607 211.065 234.775 209.052 234.205C202.139 232.247 194.787 233.976 188.439 235.748C184.665 236.802 180.684 238.01 177.131 240.148L176.81 239.613C180.429 237.435 184.457 236.213 188.272 235.148C194.701 233.352 202.153 231.603 209.222 233.605C211.409 234.224 212.802 235.158 213.482 236.461C214.678 238.752 213.365 241.493 211.738 243.295C206.872 248.684 199.424 250.048 192.209 249.845V249.846Z" fill="#DF2715"/>
<path d="M171.057 246.552C169.558 244.002 169.284 240.817 170.849 238.376C169.063 232.086 168.984 225.266 170.754 219.02C172.574 212.598 177.449 206.503 182.346 207.959C183.701 208.362 184.942 209.445 185.837 211.009C188.628 215.88 186.74 221.909 184.275 225.591C180.496 231.235 173.452 235.729 171.527 238.483C172.301 241.122 173.382 243.665 174.759 246.023L174.222 246.338C172.913 244.097 171.866 241.693 171.093 239.197C170.058 241.201 170.251 243.952 171.593 246.236L171.056 246.552H171.057ZM171.354 219.19C169.66 225.168 169.689 231.681 171.316 237.727C173.572 234.888 180.105 230.7 183.758 225.244C186.124 221.71 187.947 215.943 185.298 211.318C184.483 209.894 183.372 208.914 182.17 208.557C177.438 207.15 172.984 213.442 171.355 219.19H171.354Z" fill="#DF2715"/>
<path d="M176.949 146.863C180.23 137.321 180.789 128.863 178.198 127.97C175.606 127.078 170.846 134.089 167.565 143.631C164.284 153.172 163.725 161.63 166.317 162.523C168.908 163.415 173.668 156.404 176.949 146.863Z" fill="#27254C"/>
<path d="M114.3 58.6679C117.096 63.9225 116.391 70.3273 114.964 76.1058C113.536 81.8851 111.445 87.6402 111.693 93.5884C111.863 97.6779 113.173 101.714 115.436 105.125C117.319 107.964 119.816 110.335 122.345 112.618C123.61 113.758 124.982 115.069 125.085 116.77C125.196 118.582 123.806 120.134 122.341 121.205C118.417 124.074 113.419 125.125 108.56 125.194C101.668 125.292 98.1632 123.397 94.3106 117.898C87.7109 108.477 85.1732 96.3048 87.4586 85.0293" fill="#27254C"/>
<path d="M80.4096 27.1981C78.5798 24.0156 74.7881 22.0795 71.1394 22.4642C67.4907 22.849 64.1858 25.5333 63.0592 29.0286C61.7302 33.151 63.2115 38.0568 60.8863 41.7108C58.9729 44.7174 55.1141 45.8199 52.5951 48.3401C49.0769 51.8596 48.7777 57.5012 49.7418 62.3852C50.6739 67.1081 52.5553 71.5902 53.7218 76.2607C54.8883 80.9312 55.2945 86.0325 53.3327 90.4278C51.0802 95.4767 46.083 98.7617 40.9724 100.862C35.8619 102.962 30.3951 104.17 25.4323 106.6C20.4694 109.029 15.8574 113.053 14.6292 118.444C13.7392 122.35 14.7698 126.537 16.884 129.938C22.793 139.444 40.0763 147.592 57.4384 143.485C68.222 140.935 77.8735 133.9 83.6075 124.411C88.9383 115.59 90.8228 105.174 92.612 95.0217" fill="#27254C"/>
<path d="M184.931 135.804C181.539 163.23 181.877 160.496 181.854 160.69L171.007 157.479C168.564 156.756 180.621 160.322 143.007 149.198C168.733 123.141 160.509 131.471 162.172 129.787L184.932 135.804H184.931Z" fill="#FFC2A5"/>
<path d="M201.747 134.383C195.113 134.887 189.078 136.046 182.782 137.881H182.775C178.526 139.178 174.233 141.093 171.891 144.821C169.561 148.525 169.698 153.238 171.007 157.479L143.916 149.466C143.891 149.086 143.873 148.705 143.866 148.325L162.172 129.787L184.932 135.805C190.442 130.285 194.611 125.674 198.041 121.925L201.748 134.384L201.747 134.383Z" fill="#E0916E"/>
<path d="M176.944 128.066C171.679 130.213 163.807 150.126 164.763 159.331C164.938 161.077 165.448 162.224 166.315 162.524C166.321 162.524 166.327 162.53 166.334 162.53C166.334 162.555 166.327 162.574 166.321 162.599C160.126 160.545 147.964 155.388 141.891 152.797C134.577 149.716 127.642 146.256 120.577 142.652C116.781 140.728 113.115 138.184 111.274 134.302C109.355 130.243 109.904 126.37 111.206 122.305C112.657 117.778 113.841 114.187 118.352 111.729C122.489 109.472 127.48 109.185 132.121 110.002C136.769 110.825 141.162 112.671 145.504 114.504C155.018 118.513 164.538 122.529 174.052 126.539C174.052 126.689 175.579 127.413 176.943 128.067L176.944 128.066Z" fill="#8686E1"/>
<path d="M166.334 162.53C166.334 162.555 166.327 162.574 166.321 162.599C160.126 160.545 147.964 155.388 141.891 152.797C134.577 149.716 127.642 146.256 120.577 142.652C118.115 141.405 115.686 139.889 113.785 137.894L130.134 131.153C140.434 143.998 149.525 154.826 164.763 159.331C164.937 161.077 165.448 162.224 166.315 162.524C166.321 162.524 166.327 162.53 166.334 162.53Z" fill="#5E41D3"/>
<path d="M71.8996 55.5245C70.7824 58.5115 70.5011 61.4758 70.2159 64.6098C67.9486 63.5526 68.0556 59.9979 64.7335 60.1004C63.0584 60.152 61.5341 61.2428 60.6293 62.655C59.7246 64.0671 59.3636 65.7632 59.2277 67.4357C59.3347 66.1158 58.6628 64.4761 58.6581 63.0811C58.6518 61.3843 58.8878 59.7047 59.2378 58.0478C59.841 55.1898 61.37 52.6634 62.2841 49.8711C65.0288 41.4911 66.0524 30.2899 70.7574 25.9642C72.4442 24.4128 74.9241 23.5543 77.0875 24.308C78.7509 24.8875 79.9776 26.2918 81.0331 27.7032C79.6947 21.9779 83.5802 16.3002 89.4032 15.4839C97.1483 14.3986 102.775 21.4602 106.609 27.1019C109.191 30.9013 111.837 34.7563 114.308 38.5909C116.656 42.2347 117.133 47.4111 116.887 51.6219C116.617 56.2689 115.332 60.8049 113.696 65.1626C113.464 57.4035 111.745 49.692 108.659 42.5702" fill="#27254C"/>
<path d="M106.574 110.502C107.052 110.914 107.548 111.315 107.924 111.822C109.787 114.327 108.101 116.763 107.73 119.306C107.213 122.849 108.126 126.749 108.233 130.31C108.372 134.957 107.648 139.984 104.439 143.345C103.607 144.216 102.978 144.457 101.385 143.789C96.7084 141.831 92.6589 138.661 88.6719 135.528C81.5011 129.894 74.3209 124.251 67.6212 118.062C71.9059 108.498 73.0505 98.7116 74.2381 88.4589C74.6639 84.8479 75.2358 80.132 74.6108 76.7103C85.1998 74.6655 93.0691 72.1109 99.6797 80.6332C99.6696 80.6958 99.1492 83.9111 99.182 83.7063L98.2398 89.5301C95.081 96.8389 100.588 105.356 106.572 110.502L106.574 110.502Z" fill="#FFC2A5"/>
<path d="M98.2413 89.5301C97.067 92.2473 97.1053 95.4212 98.1093 98.1338C97.3624 98.5591 96.3146 98.531 95.4849 98.4629C87.5421 97.8452 79.8681 94.2499 74.3138 88.5331C74.2912 88.5081 74.2623 88.4839 74.2396 88.4581C74.3748 87.3141 74.506 86.1303 74.624 84.9542C75.3842 84.1989 75.1928 84.1824 86.5077 83.7626C89.8884 83.6101 92.2925 79.6308 95.749 80.1985C97.2678 80.4651 99.0367 81.5747 99.1836 83.7063L98.2413 89.5301Z" fill="#E0916E"/>
<path d="M69.1119 60.4538C69.1369 67.6656 70.1261 75.0455 73.4982 81.4285C76.8703 87.8114 82.9012 93.0652 90.0423 94.124C95.1958 94.8825 100.647 93.3288 104.637 89.9735C113.756 82.3214 115.335 65.1783 112.296 54.0928C110.222 46.257 105.643 38.2617 98.4312 34.4943C87.7742 28.9332 72.0098 33.5638 69.5315 52.9574C69.1987 55.433 69.0994 57.9555 69.1119 60.4546V60.4538Z" fill="#FFC2A5"/>
<path d="M91.8933 42.6515C88.9055 41.4066 88.3758 37.2327 86.8054 36.145C85.9131 35.5273 84.6474 35.7126 83.7497 36.3217C82.852 36.9316 82.2519 37.884 81.73 38.8356C79.8674 42.2285 79.7588 43.8338 78.6845 45.328C78.0907 46.1546 76.5367 47.6043 75.6796 46.2468C75.4077 45.8168 75.4296 45.2717 75.4593 44.7643C75.5335 43.5226 75.614 42.2543 76.089 41.1048C76.5992 39.8709 77.5258 38.8653 78.2751 37.7613C79.2861 36.2724 79.6494 35.3365 82.1402 34.3481C82.6543 34.144 83.1887 33.9642 83.631 33.6311C84.2427 33.1689 84.6138 32.4566 84.8795 31.7364C85.067 31.2274 85.2709 30.637 85.778 30.4431C85.9577 30.3743 86.1546 30.3673 86.3468 30.3508C86.9226 30.3016 87.5672 30.135 88.1391 30.2899C88.568 30.4056 88.7157 30.7301 89.0368 31.0006C89.8744 31.7059 90.7822 32.2619 91.5573 33.0556C93.0519 34.5866 94.2012 36.4625 94.831 38.5111" fill="#18142E"/>
<path d="M94.931 78.9826C94.0207 78.9826 93.1144 78.8801 92.2292 78.78C92.0636 78.7613 91.9448 78.6119 91.9636 78.4469C91.9823 78.282 92.1276 78.1639 92.2964 78.1811C93.5691 78.3257 94.8841 78.4743 96.1576 78.3038C97.5452 78.1177 98.7054 77.5462 99.4242 76.6938C100.241 75.725 100.429 74.3238 99.8704 73.3636C99.4766 72.6864 98.6976 72.1563 97.6772 71.8693C96.585 71.5628 95.4263 71.5487 94.327 71.8302C94.134 71.8787 93.9512 71.7332 93.9512 71.5385C93.9551 64.1571 94.6911 56.7435 96.1404 49.5036C96.1732 49.3402 96.3318 49.2354 96.4951 49.2667C96.6584 49.2995 96.7639 49.4582 96.7319 49.6217C95.3153 56.699 94.5833 63.9436 94.5551 71.1609C96.6037 70.7543 99.3586 71.2844 100.391 73.061C101.085 74.2526 100.877 75.9072 99.8852 77.0825C98.6929 78.4962 96.7889 78.9826 94.931 78.9826Z" fill="#E0916E"/>
<path d="M69.5315 52.9566C76.4984 52.9785 83.459 53.6705 90.29 55.0147C90.9424 55.1453 91.544 54.6347 91.526 53.9716C91.4893 52.4171 91.2573 50.8407 89.747 50.0056C88.8516 49.5036 87.7867 49.416 86.753 49.3386C81.1784 48.914 75.3592 48.4808 69.9831 50.2449C69.7971 51.1386 69.6487 52.0425 69.5323 52.9566H69.5315Z" fill="#12181C"/>
<path d="M112.688 55.6864C109.01 55.5315 105.324 55.5652 101.648 55.7849C100.979 55.8271 100.456 55.2399 100.562 54.5799C100.81 53.0442 101.25 51.5147 102.853 50.8923C103.818 50.5201 104.88 50.5717 105.909 50.6343C107.726 50.7406 109.549 50.847 111.36 51.0268C111.896 52.5617 112.337 54.1248 112.688 55.6864Z" fill="#12181C"/>
<path d="M70.6167 63.727C70.173 61.7002 68.4986 60.0206 66.4977 59.4748C64.4976 58.929 62.2536 59.4928 60.6793 60.8424C59.1042 62.1921 58.2096 64.2704 58.2049 66.3457C58.1948 70.594 61.7364 74.4239 65.6711 74.5083C67.6525 74.5506 69.6831 73.5262 70.6175 71.777V63.727H70.6167Z" fill="#FFC2A5"/>
<path d="M65.5867 72.3236C63.5319 71.2852 62.9506 69.4609 63.5256 68.1418C64.0124 67.0244 65.3695 66.3965 66.6173 66.7132C67.7423 66.9986 68.6783 68.012 68.9463 69.2357C68.9823 69.3984 68.8791 69.5595 68.7166 69.5947C68.5533 69.6306 68.3939 69.5274 68.358 69.3648C68.1377 68.3592 67.3782 67.528 66.4688 67.2981C65.514 67.0557 64.4437 67.5428 64.0764 68.3834C63.6303 69.407 64.0913 70.8934 65.857 71.7856C66.0055 71.8607 66.0649 72.0421 65.9906 72.1907C65.9156 72.3392 65.7344 72.3987 65.5859 72.3244L65.5867 72.3236Z" fill="#E0916E"/>
<path d="M101.69 64.1563C101.702 65.8179 102.493 67.1652 103.457 67.1581C104.422 67.1511 105.193 65.7929 105.182 64.1313C105.17 62.4697 104.379 61.1224 103.414 61.1294C102.45 61.1365 101.678 62.4947 101.69 64.1563Z" fill="#261518"/>
<path d="M84.0974 62.9662C84.1091 64.6278 84.9005 65.9751 85.8647 65.968C86.8288 65.961 87.6007 64.6028 87.589 62.9412C87.5773 61.2795 86.7858 59.9323 85.8217 59.9393C84.8576 59.9463 84.0856 61.3046 84.0974 62.9662Z" fill="#261518"/>
<path d="M90.1713 82.6514C91.0291 83.051 91.9604 83.2637 92.8847 83.4639C94.3356 83.7782 95.9084 84.0597 97.2569 83.4388C97.4905 84.9089 96.299 86.4039 95.0021 86.9771C93.3699 87.6988 91.3784 87.189 90.3697 85.69C89.8111 84.8596 89.9533 83.6281 90.1705 82.6514H90.1713Z" fill="#18142E"/>
<path d="M102.224 53.6017C99.1813 52.3741 97.1624 50.4896 94.8474 48.3017C91.6089 45.242 89.9174 40.9039 88.6923 36.6188C88.3594 35.4538 88.0196 34.3387 87.1539 33.4543C86.2546 32.5348 84.9381 32.7639 84.7209 34.223C83.8247 32.4488 83.3388 30.4689 83.3114 28.4812C83.2778 26.04 84.0935 23.3822 86.1577 22.0811C86.907 21.6088 87.7719 21.3461 88.643 21.1881C92.4027 20.5039 96.4639 21.7824 99.1547 24.4981C101.238 26.6007 102.45 29.3867 103.833 32.0046C109.491 42.7156 119.301 50.4521 131.084 53.4039C126.581 54.038 124.356 57.3871 111.477 55.7857C108.326 55.3939 105.171 54.7918 102.224 53.6033V53.6017Z" fill="#27254C"/>
<path d="M72.9044 56.5965C70.9003 58.5318 69.4612 57.5943 68.7775 62.1725C68.315 59.2614 68.1009 59.3427 67.6876 57.9305C67.0274 55.6738 67.5751 53.278 67.8525 50.9987C68.1751 48.3518 68.6338 45.7206 69.2244 43.1206C69.7925 40.6192 70.4956 38.1186 71.7473 35.8799C72.9989 33.642 74.8522 31.6653 77.2164 30.6738C78.3509 30.1976 79.6346 29.9591 80.8182 30.2961C81.7941 30.5737 82.602 31.2251 83.2856 31.9546C83.5731 32.2611 83.9239 32.4808 84.1482 32.839C84.2154 32.9461 84.8334 34.2363 84.756 34.2527C82.5926 34.725 82.3324 35.1261 81.505 36.6783C80.1791 39.1641 77.8711 47.7427 75.7062 52.263C75.0631 53.6056 74.2928 55.519 73.0552 56.4308C71.7871 57.3644 70.9285 58.2511 70.3683 59.7986C69.8948 61.1091 69.7112 62.5033 69.5323 63.885C68.5416 60.3967 66.8774 59.5835 66.2524 57.9688C65.8164 56.8428 66.0055 55.5824 66.2258 54.3954C67.6665 46.6573 69.226 44.8534 68.8947 41.9587" fill="#27254C"/>
<path d="M111.089 55.6637C110.931 55.6097 110.848 55.4385 110.902 55.2813C110.956 55.1234 111.126 55.0389 111.284 55.0937C114.412 56.1641 117.922 55.8842 121.017 55.6379C123.179 55.4659 123.938 55.3681 127.124 54.2202L130.219 53.1052C130.373 53.0473 130.548 53.1302 130.604 53.2866C130.66 53.443 130.579 53.6158 130.423 53.6721C124.546 55.7896 124.249 55.9843 121.066 56.2384C117.747 56.5027 114.284 56.7568 111.089 55.6637Z" fill="#18142E"/>
<path d="M121.461 49.8828C116.443 48.4613 112.398 44.6665 110.433 42.5311C106.208 37.9395 104.306 31.6786 100.191 27.1199C100.079 26.9963 100.089 26.8056 100.213 26.6937C100.336 26.5819 100.526 26.5921 100.638 26.7156C104.789 31.315 106.743 37.6307 110.876 42.1221C114.146 45.6768 118.065 48.2939 121.626 49.3026C121.786 49.348 121.879 49.5145 121.834 49.6748C121.789 49.8312 121.627 49.9282 121.462 49.8828H121.461Z" fill="#18142E"/>
<path d="M133.081 221.605C127.063 223.089 120.109 222.066 113.898 222.066C53.9702 222.066 55.125 222.128 55.1195 222.066C54.9891 219.952 54.8328 217.838 54.6523 215.731C53.2194 199.251 48.7331 183.606 46.2658 167.355C45.3188 161.114 45.0321 154.791 45.1813 148.487C45.3735 139.766 46.4385 134.36 45.5548 128.253C45.3681 126.956 42.8734 114.973 41.7084 115.372C45.1165 114.212 67.4368 110.807 70.7574 110.127C70.3527 116.768 80.7573 125.641 88.6204 123.982C90.4455 129.681 91.1627 134.651 92.4089 140.506C92.1784 134.389 92.3902 128.253 93.0566 122.167C98.0781 122.61 106.546 114.31 105.673 109.74C112.294 109.74 119.151 109.073 125.697 109.646C125.485 109.627 127.134 121.945 127.362 123.044C130.429 137.778 134.831 143.02 136.96 151.28C139.953 162.894 136.439 174.797 134.961 186.353C134.188 192.402 133.341 198.446 132.852 204.527C132.728 206.075 132.729 221.692 133.081 221.605V221.605Z" fill="#8686E1"/>
<path d="M115.187 219.279C114.258 220.718 112.559 221.411 111.006 222.067H62.6334C62.2412 222.067 55.1258 222.135 55.1196 222.067C54.5492 212.845 53.814 206.265 50.9443 191.943C47.151 173.01 44.8141 163.98 45.1814 148.488L55.8665 133.279C56.3181 134.961 56.415 137.058 57.2455 138.574C58.2909 140.483 60.2113 142.111 61.4005 143.993C63.9436 148.015 65.7203 152.502 66.8298 157.123C68.5627 164.341 68.7127 171.859 68.1775 179.264C69.5659 179.751 71.0926 179.461 72.5341 179.167C76.7273 178.31 80.9198 177.453 85.1131 176.596C92.3167 175.123 98.4719 171.705 105.583 175.543C106.84 176.222 106.924 176.854 106.397 177.811C105.135 180.1 103.081 181.828 101.073 183.501C86.4077 195.715 83.606 197.783 80.8323 201.446C78.615 204.375 77.0524 207.947 77.1844 211.62C77.4274 218.342 87.1054 218.622 91.8909 219.086C97.7195 219.651 103.63 219.627 109.452 219.468C110.181 219.449 114.866 219.776 115.187 219.279Z" fill="#5E41D3"/>
<path d="M134.776 284.091H47.3127C46.9088 274.71 47.7065 264.534 49.6676 255.102L54.228 227.722C76.8945 225.689 132.663 225.682 132.663 225.682C132.939 230.388 133.631 242.216 133.797 245.038L134.775 284.091H134.776Z" fill="#27254C"/>
<path d="M132.826 228.421C120.782 231.077 108.278 230.248 95.9974 231.339C83.7044 232.436 70.8011 235.934 62.6208 245.188C54.3031 254.591 52.5092 267.935 47.2127 279.327C47.2127 271.495 47.9815 263.208 49.6676 255.102L54.228 227.722C76.8945 225.689 132.663 225.682 132.663 225.682L132.825 228.42L132.826 228.421Z" fill="#18142E"/>
<path d="M133.847 227.72H54.9C52.7889 225.689 53.01 222.777 54.7234 219.402H133.375C135.07 222.175 135.228 224.947 133.847 227.72Z" fill="#EDF1F5"/>
<path d="M224.981 112.989C221.106 120.54 216.464 127.735 211.554 134.676C206.215 142.208 201.305 150.127 195.1 156.918C194.427 157.648 193.754 158.383 192.982 158.995C191.829 159.911 190.464 160.547 189.044 160.94C186.695 161.589 184.134 161.552 181.854 160.691C179.574 159.824 177.599 158.097 176.584 155.877C175.505 153.532 175.543 150.802 176.185 148.301C176.808 145.882 177.905 142.976 179.574 141.136C180.59 140.014 181.68 138.948 182.777 137.882H182.783C196.14 125.086 206.802 111.611 213.86 103.262C212.633 102.489 212.135 100.961 211.767 99.5522C210.708 95.4681 209.998 91.2902 209.649 87.0811C207.276 86.5822 202.098 85.1419 202.11 82.0243C202.117 80.5715 203.3 79.2117 204.74 79.006C202.877 78.8567 201.4 76.8362 201.824 75.015C202.216 73.3253 204.16 72.2094 205.824 72.6145C204.921 72.2157 204.41 71.0678 204.634 70.0771C204.89 68.955 205.886 68.1129 206.983 67.7571C208.073 67.4076 209.257 67.4701 210.397 67.6265C209.057 67.4021 208.596 65.4754 209.388 64.3721C212.403 60.2005 222.285 65.3824 224.783 67.9635C229.724 73.0641 229.469 81.2885 229.643 87.8669C229.873 96.9022 229.151 104.877 224.982 112.99L224.981 112.989Z" fill="#FFC2A5"/>
<path d="M201.91 134.761C199.862 135.653 197.569 135.89 195.327 135.97C189.207 136.189 189.854 135.82 182.782 137.881C188.247 132.646 193.084 127.342 198.041 121.924C197.917 122.059 198.553 123.649 198.606 123.826C198.905 124.824 199.418 125.614 200.277 126.237C201.089 126.825 201.49 126.703 202.405 126.566C203.732 126.366 205.971 126.527 206.524 127.754C206.673 128.086 206.686 128.462 206.66 128.824C206.487 131.274 204.666 133.379 202.479 134.493C202.292 134.588 202.102 134.678 201.91 134.761Z" fill="#E0916E"/>
<path d="M185.87 144.443C185.814 141.71 185.743 138.309 184.078 135.736L184.601 135.397C186.362 138.118 186.435 141.618 186.494 144.43L185.871 144.442L185.87 144.443Z" fill="#E0916E"/>
<path d="M217.486 91.2809L220.309 125.392L214.743 126.105C214.718 126.107 214.846 126.097 214.821 126.099L212.503 98.0767" fill="#B72214"/>
<path d="M209.736 62.3617C209.266 61.6205 208.17 61.5032 207.378 61.8793C206.585 62.2554 206.031 62.9912 205.533 63.7137C204.646 64.9992 203.829 66.3308 203.014 67.6625C197.976 75.8884 192.911 84.1692 189.413 93.1599C187.955 96.9085 186.776 100.767 185.122 104.438C183.062 109.014 179.07 113.082 174.994 115.8C174.462 116.156 173.928 116.577 173.374 116.882C172.693 117.258 171.9 117.473 171.198 117.819C171.796 118.337 172.544 118.639 173.234 119.026C175.677 120.395 177.431 122.86 180.021 123.925C184.599 125.809 189.515 124.567 194.13 122.775C196.097 122.012 197.959 121.007 199.815 120.004C201.373 119.164 202.949 118.31 204.246 117.105C205.569 115.877 206.555 114.325 207.343 112.701C212.132 102.83 209.72 90.979 212.535 80.3729" fill="#B72214"/>
<g opacity="0.12">
<path d="M207.541 81.7303C204.522 82.7906 202.248 85.3913 200.85 88.2712C198.047 94.0481 198.474 100.229 191.447 123.179C191.339 123.534 191.234 123.938 191.418 124.259C191.662 124.684 192.254 124.719 192.741 124.67C197.185 124.225 201.029 121.129 203.424 117.355C205.818 113.582 206.976 109.171 207.969 104.812" fill="#27254C"/>
</g>
<path d="M205.265 102.022C204.259 106.36 202.567 110.62 199.872 114.193C197.025 117.969 193.464 119.502 188.828 119.962C182.905 120.551 176.716 120.338 171.311 117.845C165.222 125.05 160.039 126.911 154.973 131.527C154.326 132.117 153.686 132.74 153.262 133.507C151.26 137.132 157.258 138.272 159.726 138.413C162.683 138.582 165.629 138.05 168.58 137.805C194.23 134.653 193.106 134.866 198.294 134.154C201.08 133.772 203.875 132.857 206.21 131.259C208.492 129.697 208.803 125.603 209.109 123.092C209.994 115.816 209.503 106.768 217.424 91.2676C218.084 89.9758 218.715 88.5926 219.519 87.3845C220.238 86.307 220.926 85.3897 221.274 84.0964C222.024 81.3073 221.435 78.4657 220.148 75.9283C219.227 74.1142 218.682 73.4793 210.923 62.8325C209.548 60.9464 209.544 63.849 209.393 64.7951C206.32 84.1613 207.555 92.1402 205.264 102.022L205.265 102.022Z" fill="#DF2715"/>
<path d="M224.783 67.9627C222.283 65.3792 212.4 60.1973 209.386 64.3737C208.592 65.4738 209.057 67.3998 210.394 67.6281C209.255 67.4717 208.073 67.4076 206.979 67.7602C205.885 68.1129 204.89 68.9566 204.634 70.0771C204.408 71.0655 204.922 72.2165 205.822 72.6137C204.158 72.2087 202.217 73.3245 201.822 75.0142C201.396 76.8354 202.875 78.8575 204.737 79.0029C203.297 79.2086 202.114 80.5699 202.109 82.0259C202.1 84.7931 205.794 86.0411 207.934 86.6581C210.08 87.2766 212.606 88.8162 214.364 90.2127C216.397 91.8282 218.059 93.9183 219.133 96.2868C219.546 97.1986 219.917 98.2018 220.732 98.7828C221.891 99.6077 223.54 99.259 224.739 98.4942C227.668 96.6262 228.805 92.747 229.305 89.5082C230.384 82.5255 229.982 73.3331 224.783 67.9627Z" fill="#FFC2A5"/>
<path d="M134.279 193.58L133.656 193.56C133.81 188.959 135.201 184.555 135.953 180.083C136.608 176.194 136.676 172.065 137.05 168.11C137.941 158.673 136.925 149.965 134.029 142.229L126.018 120.827L126.602 120.608L134.613 142.01C137.542 149.835 138.571 158.636 137.67 168.168C137.296 172.139 137.23 176.25 136.567 180.186C135.817 184.645 134.43 189.062 134.278 193.58H134.279Z" fill="#5E41D3"/>
<path d="M215.798 84.9706C212.392 82.3973 208.589 80.4886 204.492 79.2985L204.665 78.6995C208.836 79.9107 212.708 81.8531 216.174 84.4725L215.799 84.9699L215.798 84.9706Z" fill="#E0916E"/>
<path d="M218.132 78.6667C214.557 75.7133 210.253 73.7358 205.686 72.9468L205.791 72.3322C210.465 73.1392 214.869 75.1636 218.528 78.1858L218.131 78.6667H218.132Z" fill="#E0916E"/>
<path d="M221.511 72.8358C217.827 70.7441 213.91 69.0426 209.866 67.7767L210.052 67.1816C214.138 68.4601 218.096 70.1803 221.818 72.2931L221.511 72.8358Z" fill="#E0916E"/>
<path d="M62.3962 176.19C62.7402 173.469 54.9101 170.236 44.9073 168.97C34.9046 167.703 26.5169 168.883 26.1729 171.604C25.829 174.325 33.659 177.557 43.6618 178.823C53.6646 180.09 62.0523 178.911 62.3962 176.19Z" fill="#27254C"/>
<path d="M149.368 156.157C147.175 158.209 143.194 158.165 140.372 158.57C140.951 158.527 141.512 159.044 141.593 159.63C141.68 160.273 141.294 160.915 140.764 161.288C139.617 162.085 137.432 161.984 136.041 161.894C136.477 162.093 136.801 162.654 136.714 163.153C136.596 163.858 135.985 164.369 135.349 164.687C134.191 165.274 132.82 165.442 131.555 165.149C132.427 165.398 133.431 166.01 133.331 166.914C133.202 168.123 131.099 168.887 130.023 169.62C122.543 174.738 121.182 173.323 114.946 174.409C107.164 175.769 100.067 181.673 93.7684 186.132C80.1299 195.779 71.0457 203.504 59.0956 208.898C55.3133 210.607 51.1771 211.374 47.0518 211.647C29.0794 212.829 29.3084 200.978 29.0583 194.905C28.5677 183.237 31.3171 171.597 33.4071 160.217L60.3043 163.023C59.2558 169.496 55.7282 176.697 54.6906 183.139C54.7594 182.715 65.482 179.915 66.6469 179.454C70.6715 177.864 74.9647 176.049 78.5533 173.592C85.2451 169.009 92.9644 166.19 98.2539 159.643C100.185 157.249 101.699 154.536 103.656 152.155C107.34 147.674 113.616 145.105 116.297 141.91C117.026 141.055 117.594 140.046 118.484 139.36C119.369 138.668 120.74 138.4 121.574 139.148C122.184 139.69 122.322 140.594 122.259 141.405C122.073 143.83 120.559 145.589 119.013 147.285C117.369 149.093 115.886 150.976 114.01 152.585C119.73 153.543 121.576 153.898 123.811 154.119C131.73 154.892 139.462 152.429 147.337 152.947C148.397 153.015 149.667 153.309 149.979 154.324C150.178 154.973 149.866 155.69 149.368 156.157Z" fill="#FFC2A5"/>
<path d="M60.3035 163.023C59.6808 166.87 58.1854 170.96 56.8579 175.001C49.6863 172.432 41.8053 171.678 34.4532 173.592C33.182 173.922 31.9359 174.328 30.6959 174.764C31.5186 169.901 32.5156 165.068 33.4063 160.217L60.3035 163.023V163.023Z" fill="#E0916E"/>
<path d="M66.0547 145.277C64.8397 155.497 63.6186 165.71 62.4036 175.93C62.2544 173.268 54.5968 170.194 44.9086 168.965C34.9024 167.699 26.5159 168.878 26.1737 171.603C26.2987 168.429 27.8059 156.27 28.2856 152.385C29.22 144.497 30.6217 136.871 32.1358 129.083C32.9273 124.942 34.329 120.708 37.5815 117.828C40.9521 114.859 44.8211 114.317 49.0831 114.448C53.8311 114.591 57.6064 114.735 61.2137 118.395C64.528 121.756 66.1797 126.47 66.6781 131.166C67.1766 135.861 66.6156 140.594 66.0554 145.277H66.0547Z" fill="#8686E1"/>
<path d="M62.713 175.967L62.0927 175.947C61.9708 173.773 55.3508 170.604 44.8688 169.274C40.0552 168.665 35.4713 168.603 31.9601 169.096C28.6231 169.565 26.6261 170.493 26.4823 171.642L25.8643 171.564C26.1011 169.679 29.263 168.846 31.8733 168.478C35.4369 167.976 40.0794 168.04 44.9469 168.656C53.5397 169.746 60.4011 172.214 62.2341 174.715L65.7445 145.24C66.2953 140.641 66.8649 135.886 66.3672 131.199C65.9805 127.552 64.7335 122.409 60.991 118.614L61.4348 118.176C65.3038 122.099 66.5899 127.387 66.9868 131.133C67.4923 135.891 66.918 140.681 66.3633 145.314L62.7122 175.968L62.713 175.967Z" fill="#5E41D3"/>
<path d="M49.5285 193.245L48.941 193.036C50.177 189.565 51.8701 186.272 53.9726 183.247L54.4843 183.604C52.4131 186.582 50.7458 189.827 49.5277 193.245H49.5285Z" fill="#E0916E"/>
<path d="M122.348 167.126L122.373 166.502C125.432 166.624 128.554 166.103 131.405 164.992L131.631 165.573C128.697 166.716 125.484 167.253 122.348 167.126Z" fill="#E0916E"/>
<path d="M127.914 162.495L127.854 161.874C130.551 161.617 133.295 161.501 135.996 161.529L135.989 162.152C133.305 162.123 130.587 162.239 127.913 162.494L127.914 162.495Z" fill="#E0916E"/>
<path d="M131.066 158.992L131.102 158.369C134.076 158.54 137.088 158.498 140.053 158.243L140.106 158.864C137.149 159.118 134.101 159.165 131.066 158.991V158.992Z" fill="#E0916E"/>
<path d="M92.1073 140.747C91.3198 135.796 90.265 129.987 88.4094 124.336C85.3256 124.865 81.8949 124.121 78.9548 122.275C74.8897 119.724 71.5855 115.135 70.1159 110L70.7144 109.828C72.1426 114.819 75.3468 119.275 79.2853 121.747C82.1793 123.563 85.56 124.265 88.5594 123.674L88.8282 123.621C88.9133 123.929 90.5595 128.37 92.0667 136.752C92.0573 135.174 92.055 133.595 92.0597 132.028C92.069 128.456 92.1253 125.237 92.7152 122.022L92.755 121.803L92.9746 121.77C99.8813 120.724 104.735 115.465 105.562 109.074L106.18 109.154C105.336 115.674 100.438 121.164 93.2887 122.351C92.7449 125.444 92.6917 128.569 92.6824 132.03C92.6745 134.904 92.6894 137.819 92.7261 140.693L92.1073 140.746V140.747Z" fill="#5E41D3"/>
<path d="M319 292.095H0L6.00433 274.323H312.996L319 292.095Z" fill="#BFC9D1"/>
<path d="M296.68 281.24H277.295V286.118H296.68V281.24Z" fill="#18142E"/>
<path d="M301.55 286.118H272.426V290.997H301.55V286.118Z" fill="#18142E"/>
<path d="M319 292.095H0V301H319V292.095Z" fill="#394049"/>
<path d="M216.222 28.5C214.547 42.4599 201.881 52.4202 187.928 50.7429C183.814 50.248 180.046 48.7975 176.821 46.6354L162.145 52.098C162.248 51.9143 166.228 44.8737 169.48 39.1046C166.441 34.3184 164.975 28.4937 165.702 22.4275C167.378 8.46445 180.046 -1.49273 193.996 0.184525C207.948 1.86178 217.897 14.537 216.221 28.5008L216.222 28.5Z" fill="#9DD3F5"/>
<path d="M204.833 26.4466C200.356 35.8471 191.115 39.4901 190.569 39.6989C190.566 39.7004 190.563 39.702 190.561 39.7012C190.557 39.7004 190.552 39.6981 190.544 39.6942C190.019 39.458 181.154 35.3482 177.602 25.7413C177.602 25.7413 174.487 18.9541 181.785 14.6331C181.785 14.6331 187.446 11.6157 191.541 19.442C196.384 11.851 201.737 15.1516 201.737 15.1516C208.598 19.8377 204.833 26.4474 204.833 26.4474V26.4466Z" fill="white"/>
<path d="M193.465 138.686H239.694C241.43 138.686 242.841 140.097 242.841 141.835V218.736C242.841 220.474 241.43 221.885 239.694 221.885H193.465C191.728 221.885 190.317 220.474 190.317 218.736V141.835C190.317 140.097 191.728 138.686 193.465 138.686Z" fill="#387AE3"/>
<path d="M287.552 175.642H251.023V182.325H287.552V175.642Z" fill="#27254C"/>
<path d="M289.719 176.371H282.222V284.196H289.719V176.371Z" fill="#18142E"/>
<path d="M292.188 176.371H284.691V284.196H292.188V176.371Z" fill="#27254C"/>
<path d="M286.299 189.385C292.41 189.385 297.364 184.427 297.364 178.311C297.364 172.195 292.41 167.237 286.299 167.237C280.188 167.237 275.234 172.195 275.234 178.311C275.234 184.427 280.188 189.385 286.299 189.385Z" fill="#8592A2"/>
<path d="M287.552 189.385C293.663 189.385 298.617 184.427 298.617 178.311C298.617 172.195 293.663 167.237 287.552 167.237C281.441 167.237 276.487 172.195 276.487 178.311C276.487 184.427 281.441 189.385 287.552 189.385Z" fill="#BFC9D1"/>
<path d="M287.552 183.645C290.495 183.645 292.881 181.257 292.881 178.311C292.881 175.365 290.495 172.978 287.552 172.978C284.608 172.978 282.222 175.365 282.222 178.311C282.222 181.257 284.608 183.645 287.552 183.645Z" fill="#27254C"/>
<path d="M198.047 138.686H244.276C246.013 138.686 247.423 140.097 247.423 141.835V218.736C247.423 220.474 246.013 221.885 244.276 221.885H198.047C196.31 221.885 194.9 220.474 194.9 218.736V141.835C194.9 140.097 196.31 138.686 198.047 138.686Z" fill="#6DB0F4"/>
<path d="M219.149 219.892C221.071 219.892 222.629 218.333 222.629 216.409C222.629 214.486 221.071 212.927 219.149 212.927C217.227 212.927 215.669 214.486 215.669 216.409C215.669 218.333 217.227 219.892 219.149 219.892Z" fill="#387AE3"/>
<path d="M242.882 146.683V208.198C242.882 210.105 241.338 211.651 239.432 211.651H202.893C200.986 211.651 199.442 210.105 199.442 208.198V146.683C199.442 144.775 200.986 143.23 202.893 143.23H239.432C241.338 143.23 242.882 144.775 242.882 146.683Z" fill="white"/>
<path d="M236.624 207.574H232.292V206.889H236.624C238.338 206.889 239.733 205.494 239.733 203.778V199.541H240.416V203.778C240.416 205.871 238.715 207.574 236.624 207.574Z" fill="#DF2715"/>
<path d="M202.59 155.529H201.907V151.105C201.907 149.012 203.607 147.31 205.699 147.31H212.053V147.994H205.699C203.985 147.994 202.59 149.39 202.59 151.105V155.529Z" fill="#DF2715"/>
<path d="M252.912 172.41H249.699V184.85H252.912V172.41Z" fill="#18142E"/>
<path d="M249.758 169.862H246.545V187.4H249.758V169.862Z" fill="#27254C"/>
<path d="M192.766 165.014H192.559C191.968 165.014 191.489 165.494 191.489 166.086V178.714C191.489 179.305 191.968 179.785 192.559 179.785H192.766C193.357 179.785 193.836 179.305 193.836 178.714V166.086C193.836 165.494 193.357 165.014 192.766 165.014Z" fill="white"/>
<path d="M192.766 154.751H192.559C191.968 154.751 191.489 155.231 191.489 155.823V159.959C191.489 160.551 191.968 161.03 192.559 161.03H192.766C193.357 161.03 193.836 160.551 193.836 159.959V155.823C193.836 155.231 193.357 154.751 192.766 154.751Z" fill="white"/>
<path d="M298.104 281.24H278.72V286.118H298.104V281.24Z" fill="#27254C"/>
<path d="M302.975 286.118H273.85V290.997H302.975V286.118Z" fill="#27254C"/>
<path d="M232.245 183.456C232.919 181.495 233.034 179.757 232.501 179.574C231.969 179.391 230.991 180.831 230.316 182.792C229.642 184.752 229.527 186.49 230.06 186.674C230.592 186.857 231.571 185.416 232.245 183.456Z" fill="#27254C"/>
<path d="M219.666 165.209C220.259 166.326 220.11 167.687 219.806 168.915C219.503 170.144 219.059 171.367 219.111 172.631C219.147 173.501 219.426 174.358 219.906 175.083C220.82 176.461 221.913 176.84 221.957 177.558C221.981 177.944 221.685 178.273 221.374 178.5C220.015 179.493 217.701 179.561 216.657 179.003C215.145 178.197 213.194 174.59 213.96 170.812L219.665 165.21L219.666 165.209Z" fill="#27254C"/>
<path d="M215.054 172.934C215.019 173.146 214.979 173.351 214.944 173.562C214.8 174.369 214.643 175.176 214.432 175.963C214.179 176.94 213.851 177.884 213.373 178.766V178.78C212.224 180.866 210.399 182.303 208.549 182.944C206.384 183.744 203.972 183.595 201.963 182.725C201.56 182.548 201.164 182.336 200.795 182.103C200.303 181.789 199.831 181.42 199.442 180.982V176.319C199.831 175.943 200.296 175.635 200.781 175.395C201.834 174.882 202.995 174.623 204.082 174.178C205.168 173.727 206.227 173.029 206.705 171.956C207.585 169.993 206.332 167.951 205.947 166C205.742 164.96 205.803 163.763 206.555 163.011C207.087 162.478 207.908 162.245 208.31 161.603C208.809 160.83 208.495 159.784 208.775 158.908C209.014 158.163 209.718 157.595 210.49 157.513C211.318 157.426 212.129 157.903 212.464 158.518C212.475 158.581 212.741 160.069 212.724 159.975C212.769 160.227 213.546 164.527 213.496 164.249L213.721 165.507L213.899 166.526C213.911 166.59 215.04 172.857 215.026 172.782L215.054 172.933V172.934Z" fill="#27254C"/>
<path d="M233.884 181.184C233.876 181.247 233.209 186.64 233.252 186.297L231.023 185.637C230.96 185.618 224.882 183.821 225.27 183.936C226.186 183.007 229.404 179.748 229.208 179.947L233.884 181.183V181.184Z" fill="#FFC2A5"/>
<path d="M237.339 180.891C235.949 180.997 234.711 181.24 233.442 181.61H233.44C232.567 181.877 231.685 182.27 231.204 183.036C230.725 183.797 230.753 184.766 231.022 185.637L225.456 183.991C225.45 183.913 225.447 183.835 225.446 183.757L229.207 179.948L233.883 181.184C235.023 180.042 235.936 179.031 236.576 178.332L237.338 180.892L237.339 180.891Z" fill="#E0916E"/>
<path d="M232.243 179.593C231.161 180.035 229.544 184.126 229.741 186.017C229.776 186.376 229.881 186.611 230.059 186.673C230.061 186.673 230.062 186.675 230.063 186.675C230.063 186.68 230.062 186.683 230.061 186.689C229.443 186.484 227.853 185.86 227.264 185.611C224.414 184.409 223.811 184.197 220.662 182.591C220.156 182.334 219.657 182.023 219.266 181.613C218.366 180.673 218.356 179.597 218.737 178.41C219.035 177.481 219.278 176.743 220.205 176.237C221.055 175.774 222.08 175.714 223.034 175.882C224.246 176.097 224.747 176.371 231.649 179.28C231.649 179.31 231.963 179.459 232.243 179.593Z" fill="#8686E1"/>
<path d="M230.063 186.675C230.063 186.68 230.061 186.683 230.06 186.689C229.442 186.484 227.852 185.86 227.263 185.611C224.414 184.409 223.81 184.197 220.661 182.591C220.156 182.334 219.656 182.023 219.266 181.613L222.624 180.228C224.263 182.272 225.985 184.384 228.355 185.498C228.803 185.708 229.267 185.879 229.739 186.018C229.775 186.377 229.88 186.612 230.058 186.674C230.059 186.674 230.06 186.675 230.062 186.675L230.063 186.675Z" fill="#5E41D3"/>
<path d="M210.654 164.541C210.417 165.176 210.357 165.806 210.296 166.472C209.814 166.247 209.837 165.491 209.131 165.513C208.775 165.524 208.452 165.756 208.259 166.056C208.067 166.356 207.991 166.717 207.962 167.072C207.984 166.791 207.841 166.443 207.841 166.147C207.836 164.822 208.348 164.144 208.611 163.339C209.195 161.558 209.412 159.178 210.412 158.258C210.771 157.928 211.297 157.746 211.757 157.907C212.11 158.029 212.371 158.328 212.596 158.628C212.311 157.412 213.137 156.205 214.375 156.031C216.021 155.801 217.216 157.301 218.031 158.501C218.58 159.309 219.142 160.127 219.667 160.943C220.166 161.717 220.267 162.817 220.216 163.712C220.158 164.7 219.885 165.664 219.538 166.59C219.488 164.941 219.123 163.302 218.467 161.789L210.655 164.542L210.654 164.541Z" fill="#27254C"/>
<path d="M218.023 176.226C218.125 176.313 218.23 176.399 218.31 176.506C218.706 177.038 218.348 177.556 218.269 178.096C218.159 178.849 218.353 179.678 218.376 180.435C218.405 181.422 218.251 182.491 217.569 183.205C217.393 183.391 217.259 183.441 216.92 183.3C215.926 182.884 215.065 182.21 214.218 181.544C212.694 180.346 211.168 179.148 209.745 177.833C210.655 175.8 210.899 173.72 211.151 171.541C211.18 171.298 211.207 171.046 211.233 170.797C211.294 170.174 211.324 169.553 211.231 169.044C213.481 168.61 215.154 168.067 216.558 169.878C216.482 170.351 216.276 171.621 216.252 171.769C215.581 173.322 216.751 175.132 218.023 176.226Z" fill="#FFC2A5"/>
<path d="M216.252 171.769C216.012 172.326 216.008 172.974 216.207 173.551C216.212 173.567 216.219 173.582 216.224 173.598C216.176 173.625 216.123 173.643 216.069 173.655C215.936 173.684 215.801 173.679 215.666 173.668C213.978 173.537 212.347 172.773 211.167 171.558C211.162 171.552 211.156 171.547 211.151 171.542C211.18 171.299 211.207 171.047 211.233 170.798C211.241 170.79 211.248 170.783 211.254 170.777C211.398 170.65 211.603 170.626 211.794 170.633C211.985 170.64 212.178 170.672 212.366 170.636C212.593 170.593 212.756 170.342 212.965 170.385C213.231 170.441 213.484 170.555 213.759 170.545C214.478 170.513 214.989 169.667 215.723 169.787C215.957 169.828 216.195 169.981 216.345 170.163C216.419 170.255 216.443 170.391 216.453 170.532L216.253 171.77L216.252 171.769Z" fill="#E0916E"/>
<path d="M210.062 165.589C210.067 167.122 210.277 168.69 210.994 170.047C211.71 171.403 212.993 172.52 214.51 172.745C216.367 173.018 218.305 171.991 219.102 169.517C219.662 167.787 219.724 165.534 219.041 163.586C218.995 163.455 218.947 163.328 218.895 163.201C218.366 161.892 217.498 160.701 216.294 160.072C214.837 159.312 213.022 159.496 211.774 160.587C210.375 161.813 210.052 163.729 210.062 165.589Z" fill="#FFC2A5"/>
<path d="M214.904 161.805C214.269 161.541 214.157 160.653 213.822 160.422C213.632 160.291 213.364 160.33 213.173 160.46C212.845 160.682 212.538 161.374 212.392 161.743C212.307 161.959 212.232 162.184 212.096 162.374C211.97 162.55 211.64 162.858 211.458 162.569C211.4 162.478 211.405 162.362 211.411 162.254C211.427 161.991 211.444 161.721 211.545 161.476C211.653 161.214 211.85 161 212.01 160.765C212.235 160.433 212.307 160.248 212.831 160.04C213.118 159.926 213.27 159.873 213.413 159.484C213.514 159.209 213.577 159.202 213.725 159.19C213.847 159.179 213.984 159.144 214.106 159.176C214.197 159.201 214.229 159.27 214.297 159.327C214.533 159.527 215.217 159.911 215.528 160.923L214.904 161.803V161.805Z" fill="#18142E"/>
<path d="M214.975 169.484C214.888 169.474 214.908 169.342 214.99 169.356C215.51 169.415 216.14 169.473 216.505 169.04C216.678 168.834 216.718 168.536 216.599 168.332C216.398 167.986 215.815 167.905 215.421 168.006C215.379 168.016 215.341 167.985 215.341 167.944C215.342 166.376 215.498 164.8 215.806 163.261C215.822 163.175 215.947 163.205 215.931 163.286C215.63 164.791 215.475 166.33 215.469 167.864C215.7 167.818 215.939 167.827 216.167 167.891C217.155 168.169 216.944 169.36 215.826 169.51C215.543 169.547 215.257 169.516 214.974 169.484H214.975Z" fill="#E0916E"/>
<path d="M210.151 163.995C211.632 164 213.111 164.147 214.563 164.433C214.701 164.461 214.829 164.352 214.825 164.21C214.808 163.46 214.515 163.278 213.811 163.226C212.627 163.136 211.39 163.044 210.247 163.418C210.207 163.608 210.176 163.801 210.151 163.995V163.995Z" fill="#12181C"/>
<path d="M219.323 164.576C218.541 164.543 217.758 164.55 216.976 164.597C216.834 164.606 216.723 164.481 216.746 164.341C216.865 163.604 217.174 163.459 217.883 163.503C218.269 163.525 218.656 163.548 219.041 163.586C219.155 163.913 219.249 164.245 219.323 164.576L219.323 164.576Z" fill="#12181C"/>
<path d="M210.381 166.285C210.186 165.394 209.045 165.007 208.27 165.672C207.605 166.242 207.552 167.312 208.223 168.042C208.931 168.813 210.005 168.702 210.381 167.996V166.285Z" fill="#FFC2A5"/>
<path d="M209.313 168.112C208.878 167.892 208.752 167.505 208.874 167.222C208.977 166.985 209.267 166.85 209.531 166.919C209.77 166.98 209.969 167.195 210.026 167.456C210.034 167.49 210.012 167.524 209.977 167.531C209.945 167.542 209.909 167.517 209.902 167.483C209.855 167.269 209.693 167.093 209.5 167.043C209.298 166.993 209.07 167.096 208.991 167.274C208.896 167.493 208.995 167.808 209.37 167.997C209.402 168.014 209.413 168.052 209.398 168.083C209.382 168.115 209.344 168.127 209.312 168.112H209.313Z" fill="#E0916E"/>
<path d="M216.986 166.376C216.988 166.729 217.157 167.015 217.362 167.014C217.566 167.012 217.73 166.724 217.728 166.37C217.726 166.017 217.557 165.731 217.352 165.732C217.148 165.734 216.983 166.022 216.986 166.376Z" fill="#261518"/>
<path d="M213.246 166.123C213.249 166.477 213.418 166.763 213.622 166.761C213.827 166.76 213.991 166.471 213.989 166.118C213.986 165.764 213.818 165.478 213.613 165.48C213.408 165.481 213.244 165.77 213.246 166.123Z" fill="#261518"/>
<path d="M214.537 170.306C214.719 170.392 214.918 170.436 215.114 170.479C215.422 170.546 215.756 170.606 216.043 170.474C216.093 170.786 215.839 171.104 215.564 171.226C215.217 171.379 214.793 171.271 214.579 170.952C214.461 170.776 214.491 170.514 214.537 170.306Z" fill="#18142E"/>
<path d="M215.531 163.006C214.843 162.356 214.483 161.434 214.223 160.524C214.152 160.276 214.08 160.039 213.896 159.851C213.705 159.656 213.425 159.704 213.379 160.015C212.947 159.16 212.93 157.91 213.685 157.434C214.304 157.044 215.612 157.105 216.447 157.948C216.89 158.395 217.147 158.987 217.441 159.543C218.644 161.819 220.728 163.464 223.233 164.091C222.274 164.226 221.809 164.938 219.066 164.597C217.065 164.348 216.474 163.897 215.532 163.006H215.531Z" fill="#27254C"/>
<path d="M210.867 164.77C210.425 165.197 210.136 164.978 209.991 165.955C209.892 165.338 209.846 165.351 209.759 165.053C209.619 164.574 209.735 164.064 209.795 163.58C209.908 162.654 210.167 161.18 210.622 160.367C210.888 159.892 211.282 159.472 211.785 159.261C212.327 159.033 212.713 159.147 213.075 159.533C213.135 159.598 213.211 159.645 213.258 159.721C213.272 159.743 213.403 160.018 213.387 160.021C213.015 160.102 212.802 160.112 212.467 161.092C212.308 161.56 212.149 162.027 211.989 162.494C211.831 162.959 211.337 164.412 210.901 164.734C210.33 165.154 210.252 165.548 210.152 166.318C209.727 164.82 208.963 165.842 209.76 162.97C209.879 162.543 210.069 162.112 210.017 161.658L210.869 164.77H210.867Z" fill="#27254C"/>
<path d="M218.983 164.571C218.949 164.56 218.931 164.523 218.943 164.49C218.955 164.457 218.991 164.437 219.024 164.45C219.689 164.677 220.435 164.618 221.093 164.565C221.549 164.53 221.713 164.509 222.391 164.264L223.049 164.027C223.08 164.015 223.118 164.033 223.131 164.066C223.143 164.099 223.125 164.136 223.092 164.148C221.971 164.552 221.814 164.637 221.104 164.693C220.395 164.749 219.662 164.802 218.984 164.571H218.983Z" fill="#18142E"/>
<path d="M221.205 163.345C221.142 163.309 220.078 163.121 218.844 161.78C217.946 160.804 217.542 159.473 216.667 158.505C216.61 158.441 216.706 158.357 216.762 158.419C217.644 159.395 218.059 160.739 218.937 161.693C219.633 162.448 220.465 163.004 221.222 163.219C221.256 163.228 221.276 163.264 221.266 163.298C221.258 163.326 221.232 163.345 221.204 163.345H221.205Z" fill="#18142E"/>
<path d="M223.231 198.813C221.994 199.118 220.566 198.907 219.289 198.907H208.756C208.676 198.907 207.214 198.921 207.212 198.907C207.186 198.473 207.154 198.039 207.116 197.605C206.672 192.494 205.051 188.852 205.171 183.789C205.21 182.018 205.428 180.88 205.247 179.632C205.209 179.365 204.697 176.903 204.457 176.985C205.157 176.746 209.743 176.047 210.425 175.907C210.342 177.272 212.48 179.095 214.096 178.754C214.471 179.926 214.618 180.946 214.874 182.15C214.826 180.893 214.87 179.632 215.007 178.381C216.039 178.472 217.778 176.768 217.599 175.828C218.96 175.828 220.37 175.691 221.715 175.808C221.674 175.804 221.801 177.377 222.099 178.052C222.168 178.208 222.242 178.317 222.27 178.489C222.653 180.872 223.055 181.348 223.493 182.306C224.16 183.764 224.55 185.508 224.636 187.106C224.748 189.146 224.189 191.136 223.714 193.098C222.813 196.827 223.139 196.858 223.231 198.811V198.813Z" fill="#8686E1"/>
<path d="M219.554 198.335C219.363 198.631 219.014 198.773 218.695 198.907H208.756C208.676 198.907 207.214 198.921 207.212 198.907C207.186 198.473 207.154 198.039 207.116 197.605C206.673 192.499 205.051 188.852 205.171 183.789L207.366 180.665C207.459 181.01 207.479 181.441 207.65 181.752C207.865 182.145 208.259 182.48 208.504 182.866C209.027 183.692 209.391 184.614 209.62 185.564C209.976 187.047 210.006 188.591 209.896 190.113C210.267 190.243 210.381 190.177 213.376 189.565C214.856 189.262 216.121 188.56 217.582 189.349C217.684 189.404 217.794 189.479 217.81 189.594C217.821 189.671 217.787 189.746 217.748 189.815C217.422 190.406 217.122 190.595 214.117 193.098C212.978 194.046 211.689 195.173 211.746 196.761C211.796 198.142 213.785 198.2 214.768 198.295C215.966 198.411 217.18 198.406 218.376 198.374C218.526 198.37 219.489 198.437 219.555 198.335H219.554Z" fill="#5E41D3"/>
<path d="M223.578 211.651H205.608C205.527 209.773 205.679 207.676 206.091 205.695L207.028 200.069C211.685 199.652 223.144 199.65 223.144 199.65C223.148 199.713 223.305 202.4 223.295 202.229L223.377 203.627L223.578 211.651H223.578Z" fill="#27254C"/>
<path d="M223.178 200.213C220.704 200.759 218.134 200.588 215.611 200.813C207.114 201.571 207.467 206.63 205.588 210.673C205.588 207.849 205.862 207.277 207.03 200.07C211.687 199.652 223.146 199.651 223.146 199.651L223.179 200.213H223.178Z" fill="#18142E"/>
<path d="M223.388 200.069H207.167C206.733 199.652 206.779 199.054 207.131 198.36H223.292C223.64 198.93 223.672 199.499 223.389 200.069H223.388Z" fill="#EDF1F5"/>
<path d="M242.882 168.879V174.267C242.732 175.019 242.493 175.757 242.11 176.496C241.134 178.407 236.868 184.905 235.537 185.946C234.094 187.102 231.631 186.188 232.039 184.011V184.004C232.046 183.915 232.067 183.833 232.087 183.751C232.169 183.437 232.285 183.081 232.456 182.774C232.456 182.767 232.463 182.767 232.463 182.76C232.723 182.239 233.152 181.908 233.884 181.18C235.25 179.816 236.301 178.625 236.569 178.342C236.569 178.335 236.576 178.329 236.576 178.329C236.735 178.161 238.019 176.682 238.749 175.785C238.754 175.785 238.756 175.783 238.756 175.778C238.808 175.716 239.542 174.835 239.658 174.712V174.705C239.712 174.636 239.774 174.568 239.829 174.5C239.74 174.445 239.672 174.37 239.617 174.281C239.617 174.281 239.61 174.281 239.61 174.274C239.282 173.771 239.023 171.835 238.968 171.217C238.961 171.204 238.961 171.183 238.961 171.17C238.857 171.149 238.682 171.109 238.551 171.067V171.06C238.386 171.032 237.939 170.86 237.683 170.643C237.635 170.601 237.594 170.561 237.553 170.52C237.486 170.43 237.444 170.325 237.43 170.253C237.41 170.133 237.422 170.193 237.417 170.13C237.417 169.843 237.643 169.569 237.937 169.521H237.944C237.948 169.517 237.953 169.514 237.958 169.514C237.575 169.48 237.268 169.07 237.356 168.694C237.438 168.352 237.827 168.126 238.162 168.201H238.176C237.992 168.119 237.89 167.88 237.93 167.675C238.001 167.385 238.333 167.124 238.832 167.149C238.927 167.156 239.023 167.163 239.119 167.176C239.042 167.138 238.996 167.145 238.948 167.08C238.912 167.045 238.883 166.995 238.865 166.943C238.858 166.936 238.865 166.936 238.865 166.936C238.811 166.799 238.818 166.628 238.906 166.505C238.913 166.498 238.919 166.491 238.926 166.491V166.484C238.997 166.38 239.145 166.283 239.268 166.245C240.094 165.951 241.632 166.792 242.069 167.244C242.456 167.67 242.707 168.084 242.882 168.878V168.879Z" fill="#FFC2A5"/>
<path d="M236.02 181.218C234.791 181.261 234.911 181.182 233.442 181.61C234.564 180.535 235.646 179.35 236.578 178.331C236.552 178.359 236.683 178.686 236.694 178.722C236.755 178.927 236.861 179.09 237.037 179.217C237.204 179.339 237.286 179.314 237.475 179.285C237.747 179.243 238.208 179.277 238.321 179.529C238.449 179.813 238.219 180.542 237.49 180.913C237.451 180.933 236.524 181.199 236.02 181.217V181.218Z" fill="#E0916E"/>
<path d="M234.077 182.959C234.065 182.398 234.05 181.698 233.708 181.17L233.816 181.1C234.178 181.659 234.192 182.379 234.205 182.957L234.077 182.959Z" fill="#E0916E"/>
<path d="M240.573 172.035L241.152 179.044C240.972 179.067 239.862 179.21 240.025 179.189L239.548 173.432L240.573 172.035Z" fill="#B72214"/>
<path d="M238.98 166.093C238.883 165.941 238.658 165.917 238.496 165.994C238.333 166.071 238.219 166.222 238.117 166.371C237.935 166.635 237.767 166.909 237.6 167.183C234.367 172.461 234.914 172.539 233.924 174.739C233.614 175.427 233.124 176.016 232.563 176.517C232.169 176.868 231.609 177.241 231.51 177.296C231.37 177.374 231.207 177.417 231.063 177.489C231.186 177.595 231.34 177.657 231.481 177.736C232.455 178.282 233.047 180.04 236.943 177.937C237.71 177.524 238.089 177.263 238.49 176.437C239.474 174.408 238.978 171.974 239.556 169.794L238.981 166.093H238.98Z" fill="#B72214"/>
<g opacity="0.12">
<path d="M238.529 170.073C237.909 170.292 237.442 170.826 237.154 171.418C236.579 172.603 236.656 173.909 235.222 178.59C235.2 178.663 235.178 178.746 235.216 178.812C235.266 178.9 235.388 178.907 235.488 178.897C236.401 178.805 237.191 178.17 237.683 177.394C238.175 176.618 238.412 175.712 238.616 174.817L238.528 170.074L238.529 170.073Z" fill="#27254C"/>
</g>
<path d="M238.061 174.243C237.855 175.134 237.507 176.009 236.954 176.743C236.368 177.519 235.637 177.834 234.685 177.929C233.467 178.05 232.196 178.006 231.085 177.494C229.806 179.007 228.815 179.314 227.729 180.305C227.596 180.426 227.464 180.554 227.377 180.712C226.965 181.457 228.198 181.691 228.705 181.72C229.434 181.761 231.244 181.506 233.27 181.257C236.529 180.857 237.336 180.879 238.256 180.25C238.725 179.928 238.789 179.088 238.851 178.571C239.015 177.23 238.953 175.937 239.819 173.684C240.221 172.639 240.821 171.489 240.991 171.235C241.138 171.013 241.28 170.825 241.351 170.559C241.505 169.986 241.384 169.402 241.12 168.881C240.909 168.467 240.691 168.204 239.224 166.19C238.942 165.802 238.94 166.399 238.91 166.594C238.842 167.021 238.781 167.449 238.726 167.878C238.325 170.995 238.476 172.454 238.061 174.243Z" fill="#DF2715"/>
<path d="M242.882 168.715V172.23C242.745 172.736 242.499 173.235 242.063 173.516C241.816 173.673 241.475 173.748 241.243 173.577C240.983 173.4 240.989 173.079 240.614 172.572V172.558C240.559 172.469 240.498 172.387 240.423 172.305C240.423 172.291 240.416 172.285 240.402 172.278C239.998 171.772 239.207 171.263 238.612 171.088C238.493 171.048 238.577 171.082 238.428 171.034V171.027C238.22 170.976 237.887 170.831 237.676 170.65C237.498 170.497 237.417 170.299 237.417 170.138V170.131C237.417 169.844 237.643 169.57 237.936 169.522H237.944C237.948 169.517 237.953 169.515 237.958 169.515C237.575 169.481 237.268 169.071 237.356 168.695C237.438 168.353 237.827 168.127 238.162 168.202H238.176C237.992 168.12 237.89 167.881 237.93 167.676C237.985 167.45 238.19 167.273 238.415 167.205C238.635 167.128 238.858 167.14 239.119 167.177C239.092 167.163 239.058 167.15 239.03 167.143C238.971 167.119 238.917 167.053 238.894 167.006C238.79 166.902 238.819 166.592 238.921 166.493H238.928V166.486C238.955 166.445 238.99 166.411 239.023 166.383C239.098 166.322 239.18 166.274 239.269 166.247C240.096 165.953 241.634 166.793 242.07 167.245C242.477 167.693 242.723 168.154 242.884 168.715H242.882Z" fill="#FFC2A5"/>
<path d="M224.308 191.247L224.184 191.217C224.757 188.845 224.68 186.359 223.961 184.026C223.759 183.369 223.676 183.172 221.779 178.105L221.899 178.06C223.334 181.894 223.847 183.222 224.083 183.988C224.808 186.342 224.886 188.852 224.307 191.246L224.308 191.247Z" fill="#5E41D3"/>
<path d="M240.226 170.739C239.526 170.21 238.744 169.818 237.903 169.573L237.939 169.45C238.795 169.699 239.591 170.098 240.303 170.636L240.226 170.739Z" fill="#E0916E"/>
<path d="M240.705 169.444C239.971 168.837 239.087 168.431 238.148 168.269L238.17 168.143C239.13 168.309 240.035 168.725 240.787 169.345L240.705 169.444Z" fill="#E0916E"/>
<path d="M241.4 168.245C240.644 167.816 239.838 167.466 239.008 167.206L239.046 167.083C239.886 167.347 240.699 167.699 241.463 168.133L241.4 168.245Z" fill="#E0916E"/>
<path d="M204.858 190.022C202.803 189.762 201.193 189.098 201.264 188.539C201.335 187.98 203.058 187.737 205.114 187.998C207.169 188.258 208.778 188.922 208.707 189.481C208.636 190.04 206.913 190.283 204.858 190.022Z" fill="#27254C"/>
<path d="M226.577 185.366C226.126 185.787 225.308 185.779 224.728 185.861C224.847 185.853 224.963 185.958 224.979 186.079C224.997 186.211 224.918 186.343 224.809 186.42C224.573 186.583 224.125 186.563 223.839 186.544C224.042 186.637 224.053 186.94 223.696 187.118C223.458 187.238 223.177 187.273 222.917 187.213C223.096 187.264 223.302 187.389 223.282 187.576C223.255 187.824 222.823 187.981 222.602 188.131C222.502 188.2 221.981 188.709 220.99 188.92C220.501 189.024 219.997 189.029 219.504 189.115C217.394 189.484 215.633 191.348 211.023 194.489C210.055 195.148 209.088 195.723 208.029 196.201C206.317 196.974 203.439 197.15 202.303 195.601C201.87 195.008 201.886 194.041 201.857 193.326C201.757 190.929 202.321 188.536 202.751 186.199L208.277 186.775C208.062 188.105 207.337 189.584 207.124 190.908C207.138 190.821 209.341 190.246 209.581 190.151C210.407 189.824 211.289 189.451 212.027 188.947C213.402 188.006 214.988 187.426 216.075 186.081C216.472 185.589 216.783 185.032 217.185 184.542C217.942 183.621 219.231 183.093 219.782 182.437C219.932 182.262 220.048 182.054 220.231 181.913C220.586 181.636 221.051 181.767 221.007 182.333C220.969 182.831 220.658 183.193 220.34 183.541C220.002 183.913 219.697 184.3 219.312 184.631C220.438 184.819 220.866 184.9 221.325 184.946C222.953 185.105 224.541 184.599 226.159 184.705C226.377 184.719 226.638 184.779 226.702 184.988C226.743 185.121 226.679 185.269 226.576 185.365L226.577 185.366Z" fill="#FFC2A5"/>
<path d="M208.277 186.776C208.149 187.567 207.842 188.407 207.569 189.238C206.096 188.71 204.476 188.555 202.966 188.949C202.705 189.017 202.449 189.099 202.194 189.189C202.363 188.19 202.568 187.197 202.751 186.2L208.277 186.776Z" fill="#E0916E"/>
<path d="M209.459 183.129C209.209 185.229 208.958 187.328 208.709 189.428C208.678 188.881 207.105 188.25 205.114 187.997C203.058 187.737 201.335 187.979 201.264 188.539C201.29 187.887 201.6 185.388 201.698 184.59C201.89 182.969 202.178 181.402 202.489 179.802C202.881 177.752 203.864 176.731 205.972 176.795C206.948 176.825 207.723 176.854 208.464 177.606C209.145 178.296 209.484 179.265 209.587 180.23C209.689 181.195 209.574 182.167 209.459 183.129Z" fill="#8686E1"/>
<path d="M208.772 189.436L208.645 189.432C208.597 188.587 204.767 187.701 202.453 188.024C201.767 188.121 201.357 188.311 201.328 188.547L201.201 188.532C201.36 187.271 207.704 187.855 208.674 189.179L209.395 183.123C209.509 182.179 209.626 181.201 209.524 180.238C209.444 179.489 209.188 178.432 208.419 177.653L208.51 177.563C209.305 178.369 209.569 179.455 209.651 180.225C209.755 181.202 209.637 182.186 209.523 183.138L208.773 189.436L208.772 189.436Z" fill="#5E41D3"/>
<path d="M206.063 192.986L205.943 192.943C206.196 192.23 206.544 191.554 206.976 190.932L207.082 191.004C206.656 191.617 206.313 192.284 206.064 192.986H206.063Z" fill="#E0916E"/>
<path d="M221.025 187.618L221.031 187.49C221.657 187.514 222.3 187.408 222.886 187.18L222.932 187.299C222.35 187.526 221.697 187.644 221.025 187.618Z" fill="#E0916E"/>
<path d="M222.169 186.668L222.156 186.54C222.713 186.487 223.278 186.464 223.829 186.47L223.828 186.598C223.282 186.592 222.721 186.616 222.168 186.668L222.169 186.668Z" fill="#E0916E"/>
<path d="M222.817 185.948L222.824 185.819C223.434 185.854 224.053 185.846 224.663 185.793L224.674 185.922C224.053 185.974 223.427 185.983 222.817 185.948Z" fill="#E0916E"/>
<path d="M214.812 182.199C214.65 181.182 214.433 179.988 214.052 178.827C213.418 178.935 212.714 178.783 212.109 178.403C211.274 177.879 210.595 176.936 210.293 175.882L210.416 175.846C210.71 176.872 211.367 177.787 212.177 178.295C212.771 178.668 213.465 178.813 214.082 178.692L214.138 178.681C214.157 178.749 214.49 179.637 214.804 181.379C214.788 178.59 214.918 178.568 214.945 178.307L214.99 178.3C216.403 178.087 217.406 177.011 217.576 175.692L217.704 175.708C217.529 177.055 216.516 178.177 215.055 178.419C214.901 179.292 214.918 180.44 214.94 182.188L214.812 182.199Z" fill="#5E41D3"/>
<path d="M220.091 219.892C222.013 219.892 223.571 218.333 223.571 216.409C223.571 214.486 222.013 212.927 220.091 212.927C218.169 212.927 216.611 214.486 216.611 216.409C216.611 218.333 218.169 219.892 220.091 219.892Z" fill="white"/>
<path d="M207.74 153.223C208.233 152.729 208.233 151.928 207.74 151.434C207.246 150.941 206.446 150.941 205.953 151.434C205.46 151.928 205.46 152.729 205.953 153.223C206.446 153.716 207.246 153.716 207.74 153.223Z" fill="#DF2715"/>
<path d="M20.4554 103.583C20.4335 103.418 20.5491 103.266 20.714 103.243C37.6324 100.954 46.8354 90.6522 47.8159 80.1914C48.6839 70.9404 43.0093 61.9481 42.5741 52.5508C42.3139 46.931 44.3938 43.6977 51.7904 42.212C53.7015 41.8367 55.7219 41.5059 57.2267 40.3753C62.4372 36.4585 58.4495 26.3841 63.7319 21.9982C65.5578 20.4812 68.3533 19.9644 71.3949 20.5798C75.2092 21.3508 78.7189 23.5918 81.0245 26.7281C81.1237 26.8626 81.0948 27.0519 80.9604 27.1504C80.8261 27.2489 80.637 27.22 80.5385 27.0863C78.3204 24.0688 74.9444 21.913 71.2762 21.1717C68.4119 20.5938 65.8023 21.063 64.1171 22.4627C59.0917 26.6359 63.0881 36.7252 57.59 40.8577C55.9774 42.0697 53.9171 42.4099 51.9099 42.804C44.7344 44.2435 42.9359 47.2743 43.1781 52.5219C43.6109 61.8801 49.3043 70.7934 48.4183 80.247C47.4127 90.9704 38.0207 101.51 20.796 103.84C20.6288 103.863 20.4788 103.745 20.4561 103.582L20.4554 103.583Z" fill="#27254C"/>
<path d="M77.3328 34.1792C77.2102 34.0658 77.2023 33.875 77.3149 33.7523C78.722 32.2236 79.7721 30.2461 80.4416 27.8651C78.1657 24.2682 75.7093 19.3834 75.8186 14.1507C75.9163 9.48801 78.947 7.00692 80.7385 8.17748C82.073 9.05012 82.0792 12.7338 82.0925 14.6081C82.1035 16.2166 82.0886 17.8446 82.0464 19.446C81.9746 22.2125 81.8191 25.061 81.094 27.7665C81.3925 28.2334 81.687 28.6767 81.9714 29.0958C82.0652 29.2335 82.0292 29.4219 81.891 29.5157C81.7527 29.6088 81.5652 29.5736 81.4714 29.4352C81.2761 29.1474 81.0753 28.8464 80.8721 28.536C80.1729 30.7848 79.1283 32.6732 77.7578 34.162C77.6453 34.284 77.4555 34.2934 77.3313 34.18L77.3328 34.1792ZM76.4226 14.164C76.321 19.0128 78.5102 23.5863 80.651 27.0597C80.7401 26.4169 81.5597 24.5559 81.4901 14.6128C81.4808 13.3383 81.4753 9.38088 80.4096 8.6834C79.272 7.93977 76.5195 9.55213 76.4234 14.164H76.4226Z" fill="#27254C"/>
<path d="M274.713 149.721C272.123 156.192 266.106 159.02 265.749 159.183C265.748 159.185 265.745 159.186 265.744 159.186C265.741 159.186 265.738 159.184 265.732 159.182C265.371 159.047 259.275 156.68 256.492 150.414C256.492 150.414 254.121 146.013 258.812 142.815C258.812 142.815 262.465 140.558 265.534 145.611C268.446 140.333 272.162 142.308 272.162 142.308C276.945 145.145 274.712 149.722 274.712 149.722L274.713 149.721Z" fill="#F9837F"/>
<g opacity="0.5">
<path d="M280.875 132.798C276.615 138.313 270.054 139.385 269.666 139.444C269.664 139.445 269.662 139.445 269.661 139.444C269.658 139.443 269.655 139.441 269.65 139.437C269.34 139.208 264.123 135.262 263.16 128.474C263.16 128.474 262.083 123.591 267.47 121.8C267.47 121.8 271.601 120.629 273.171 126.33C277.414 122.051 280.449 124.969 280.449 124.969C284.273 129.008 280.875 132.798 280.875 132.798Z" fill="#F2B9AD"/>
</g>
<g opacity="0.5">
<path d="M283.922 122.081C279.662 127.596 273.101 128.668 272.713 128.727C272.711 128.728 272.709 128.728 272.708 128.727C272.705 128.725 272.702 128.724 272.698 128.72C272.387 128.491 267.171 124.545 266.207 117.756C266.207 117.756 265.131 112.874 270.517 111.083C270.517 111.083 274.648 109.912 276.218 115.612C280.461 111.334 283.496 114.252 283.496 114.252C287.32 118.29 283.922 122.081 283.922 122.081Z" fill="#F2B9AD"/>
</g>
<path d="M184.144 237.565L171.093 255.383L204.658 292.572L214.654 276.835L184.144 237.565Z" fill="#FCCF36"/>
<path d="M184.144 237.565L134.135 223.561L123.208 239.673L171.093 255.383L184.144 237.565Z" fill="#F8E77F"/>
<path d="M123.207 239.674L157.357 274.037L204.658 292.57C204.588 292.493 171.165 255.462 171.091 255.381L146.105 247.185L123.206 239.674L123.207 239.674Z" fill="#FAB01B"/>
<g opacity="0.26">
<path d="M146.105 247.186L164.796 265.992L189.354 275.612L171.092 255.382L146.105 247.186Z" fill="#27254C"/>
</g>
<path d="M34.2235 231.837C34.7821 232.023 62.1599 242.275 62.1599 242.275L151.184 235.005L118.405 225.685L34.2235 231.836V231.837Z" fill="#FAB01B"/>
<path d="M62.1606 242.275V291.533L151.185 284.263V235.005L62.1606 242.275Z" fill="#F8E77F"/>
<path d="M34.2235 231.837V281.095L62.1607 291.533V242.275L34.2235 231.837Z" fill="#FCCF36"/>
<path d="M118.406 225.685V237.682L151.185 235.005L118.406 225.685Z" fill="#FCCF36"/>
<path d="M151.497 284.263H150.873V235.242L118.321 225.986L118.491 225.386L151.497 234.77V284.263Z" fill="#FAB01B"/>
</g>
<defs>
<clipPath id="clip0_1_1933">
<rect width="319" height="301" fill="white"/>
</clipPath>
</defs>
</svg>
