<svg width="63" height="65" viewBox="0 0 63 65" fill="none" xmlns="http://www.w3.org/2000/svg">
<g filter="url(#filter0_d_1_1481)">
<rect x="4" width="55" height="57" rx="12" fill="white"/>
</g>
<path d="M43.191 16.8016C41.6704 15.2739 39.8595 14.0625 37.8637 13.2382C35.8679 12.4138 33.7272 11.993 31.5663 12.0001C22.5121 12.0001 15.1327 19.3426 15.1327 28.3515C15.1327 31.239 15.8955 34.044 17.3216 36.519L15 45L23.706 42.723C26.1106 44.0265 28.8136 44.7195 31.5663 44.7195C40.6206 44.7195 48 37.377 48 28.368C48 23.9956 46.292 19.8871 43.191 16.8016ZM31.5663 41.9475C29.1121 41.9475 26.7075 41.2875 24.6015 40.05L24.104 39.753L18.9302 41.106L20.3065 36.09L19.9749 35.5785C18.611 33.4122 17.887 30.9078 17.8854 28.3515C17.8854 20.8606 24.0211 14.7556 31.5497 14.7556C35.198 14.7556 38.6307 16.1746 41.201 18.7486C42.4739 20.0089 43.4827 21.5083 44.1687 23.1596C44.8548 24.8108 45.2044 26.5812 45.1975 28.368C45.2307 35.859 39.095 41.9475 31.5663 41.9475ZM39.0618 31.7835C38.6472 31.5855 36.6241 30.5955 36.2593 30.447C35.8779 30.315 35.6126 30.249 35.3307 30.645C35.0487 31.0575 34.2693 31.9815 34.0372 32.2455C33.805 32.526 33.5563 32.559 33.1417 32.3445C32.7271 32.1465 31.4005 31.701 29.8417 30.315C28.6146 29.226 27.802 27.8895 27.5533 27.477C27.3211 27.0645 27.5201 26.85 27.7357 26.6356C27.9181 26.4541 28.1503 26.1571 28.3492 25.9261C28.5482 25.6951 28.6312 25.5136 28.7638 25.2496C28.8965 24.9691 28.8301 24.7381 28.7307 24.5401C28.6312 24.3421 27.802 22.3291 27.4704 21.5041C27.1387 20.7121 26.7905 20.8111 26.5417 20.7946H25.7457C25.4638 20.7946 25.0327 20.8936 24.6513 21.3061C24.2864 21.7186 23.2251 22.7086 23.2251 24.7216C23.2251 26.7345 24.701 28.6815 24.9 28.9455C25.099 29.226 27.802 33.351 31.9146 35.1165C32.893 35.5455 33.6558 35.793 34.2528 35.9745C35.2312 36.288 36.1266 36.2385 36.8397 36.1395C37.6357 36.024 39.2774 35.1495 39.609 34.1925C39.9573 33.2355 39.9573 32.427 39.8412 32.2455C39.7251 32.064 39.4764 31.9815 39.0618 31.7835Z" fill="#0066CC"/>
<defs>
<filter id="filter0_d_1_1481" x="0" y="0" width="63" height="65" filterUnits="userSpaceOnUse" color-interpolation-filters="sRGB">
<feFlood flood-opacity="0" result="BackgroundImageFix"/>
<feColorMatrix in="SourceAlpha" type="matrix" values="0 0 0 0 0 0 0 0 0 0 0 0 0 0 0 0 0 0 127 0" result="hardAlpha"/>
<feOffset dy="4"/>
<feGaussianBlur stdDeviation="2"/>
<feComposite in2="hardAlpha" operator="out"/>
<feColorMatrix type="matrix" values="0 0 0 0 0 0 0 0 0 0 0 0 0 0 0 0 0 0 0.25 0"/>
<feBlend mode="normal" in2="BackgroundImageFix" result="effect1_dropShadow_1_1481"/>
<feBlend mode="normal" in="SourceGraphic" in2="effect1_dropShadow_1_1481" result="shape"/>
</filter>
</defs>
</svg>
