<svg width="63" height="65" viewBox="0 0 63 65" fill="none" xmlns="http://www.w3.org/2000/svg">
<g filter="url(#filter0_d_6031_1293)">
<rect x="4" width="55" height="57" rx="7" fill="white"/>
</g>
<path d="M43.191 17.8016C41.6704 16.2739 39.8595 15.0625 37.8637 14.2382C35.8679 13.4138 33.7272 12.993 31.5663 13.0001C22.5121 13.0001 15.1327 20.3426 15.1327 29.3515C15.1327 32.239 15.8955 35.044 17.3216 37.519L15 46L23.706 43.723C26.1106 45.0265 28.8136 45.7195 31.5663 45.7195C40.6206 45.7195 48 38.377 48 29.368C48 24.9956 46.292 20.8871 43.191 17.8016ZM31.5663 42.9475C29.1121 42.9475 26.7075 42.2875 24.6015 41.05L24.104 40.753L18.9302 42.106L20.3065 37.09L19.9749 36.5785C18.611 34.4122 17.887 31.9078 17.8854 29.3515C17.8854 21.8606 24.0211 15.7556 31.5497 15.7556C35.198 15.7556 38.6307 17.1746 41.201 19.7486C42.4739 21.0089 43.4827 22.5083 44.1687 24.1596C44.8548 25.8108 45.2044 27.5812 45.1975 29.368C45.2307 36.859 39.095 42.9475 31.5663 42.9475ZM39.0618 32.7835C38.6472 32.5855 36.6241 31.5955 36.2593 31.447C35.8779 31.315 35.6126 31.249 35.3307 31.645C35.0487 32.0575 34.2693 32.9815 34.0372 33.2455C33.805 33.526 33.5563 33.559 33.1417 33.3445C32.7271 33.1465 31.4005 32.701 29.8417 31.315C28.6146 30.226 27.802 28.8895 27.5533 28.477C27.3211 28.0645 27.5201 27.85 27.7357 27.6356C27.9181 27.4541 28.1503 27.1571 28.3492 26.9261C28.5482 26.6951 28.6312 26.5136 28.7638 26.2496C28.8965 25.9691 28.8301 25.7381 28.7307 25.5401C28.6312 25.3421 27.802 23.3291 27.4704 22.5041C27.1387 21.7121 26.7905 21.8111 26.5417 21.7946H25.7457C25.4638 21.7946 25.0327 21.8936 24.6513 22.3061C24.2864 22.7186 23.2251 23.7086 23.2251 25.7216C23.2251 27.7345 24.701 29.6815 24.9 29.9455C25.099 30.226 27.802 34.351 31.9146 36.1165C32.893 36.5455 33.6558 36.793 34.2528 36.9745C35.2312 37.288 36.1266 37.2385 36.8397 37.1395C37.6357 37.024 39.2774 36.1495 39.609 35.1925C39.9573 34.2355 39.9573 33.427 39.8412 33.2455C39.7251 33.064 39.4764 32.9815 39.0618 32.7835Z" fill="#0066CC"/>
<defs>
<filter id="filter0_d_6031_1293" x="0" y="0" width="63" height="65" filterUnits="userSpaceOnUse" color-interpolation-filters="sRGB">
<feFlood flood-opacity="0" result="BackgroundImageFix"/>
<feColorMatrix in="SourceAlpha" type="matrix" values="0 0 0 0 0 0 0 0 0 0 0 0 0 0 0 0 0 0 127 0" result="hardAlpha"/>
<feOffset dy="4"/>
<feGaussianBlur stdDeviation="2"/>
<feComposite in2="hardAlpha" operator="out"/>
<feColorMatrix type="matrix" values="0 0 0 0 0 0 0 0 0 0 0 0 0 0 0 0 0 0 0.25 0"/>
<feBlend mode="normal" in2="BackgroundImageFix" result="effect1_dropShadow_6031_1293"/>
<feBlend mode="normal" in="SourceGraphic" in2="effect1_dropShadow_6031_1293" result="shape"/>
</filter>
</defs>
</svg>
